<?xml version="1.0" encoding="UTF-8" standalone="no"?>
<svg
   xmlns:dc="http://purl.org/dc/elements/1.1/"
   xmlns:cc="http://creativecommons.org/ns#"
   xmlns:rdf="http://www.w3.org/1999/02/22-rdf-syntax-ns#"
   xmlns:svg="http://www.w3.org/2000/svg"
   xmlns="http://www.w3.org/2000/svg"
   xmlns:sodipodi="http://sodipodi.sourceforge.net/DTD/sodipodi-0.dtd"
   xmlns:inkscape="http://www.inkscape.org/namespaces/inkscape"
   viewBox="0 0 512 448"
   version="1.1"
   id="svg4"
   sodipodi:docname="ghost.svg"
   width="512"
   height="448"
   inkscape:version="0.92.3 (2405546, 2018-03-11)">
  <metadata
     id="metadata10">
    <rdf:RDF>
      <cc:Work
         rdf:about="">
        <dc:format>image/svg+xml</dc:format>
        <dc:type
           rdf:resource="http://purl.org/dc/dcmitype/StillImage" />
        <dc:title></dc:title>
      </cc:Work>
    </rdf:RDF>
  </metadata>
  <defs
     id="defs8" />
  <sodipodi:namedview
     pagecolor="#ffffff"
     bordercolor="#666666"
     borderopacity="1"
     objecttolerance="10"
     gridtolerance="10"
     guidetolerance="10"
     inkscape:pageopacity="0"
     inkscape:pageshadow="2"
     inkscape:window-width="1920"
     inkscape:window-height="1017"
     id="namedview6"
     showgrid="false"
     fit-margin-top="0"
     fit-margin-left="0"
     fit-margin-right="0"
     fit-margin-bottom="0"
     inkscape:zoom="1.3037281"
     inkscape:cx="347.16989"
     inkscape:cy="172.27957"
     inkscape:window-x="0"
     inkscape:window-y="29"
     inkscape:window-maximized="1"
     inkscape:current-layer="svg4" />
  <path
     inkscape:connector-curvature="0"
     d="M 464,0 H 48.000001 C 21.500001,0 0,21.500001 0,48.000001 V 400 c 0,26.5 21.500001,48 48.000001,48 H 464 c 26.5,0 48,-21.5 48,-48 V 48.000001 C 512,21.500001 490.5,0 464,0 Z m 0,394 c 0,3.3 -2.7,6 -6,6 H 54.000001 c -3.3,0 -6,-2.7 -6,-6 V 160 H 464 Z"
     id="path920"
     style="fill:#000000;fill-opacity:0.1842105" />
  <text
     xml:space="preserve"
     style="font-style:normal;font-variant:normal;font-weight:normal;font-stretch:normal;font-size:26.66666603px;line-height:125%;font-family:'Times New Roman';-inkscape-font-specification:'Times New Roman';letter-spacing:0px;word-spacing:0px;fill:#000000;fill-opacity:1;stroke:none;stroke-width:1px;stroke-linecap:butt;stroke-linejoin:miter;stroke-opacity:1"
     x="47.367538"
     y="76.91613"
     id="text819"><tspan
       sodipodi:role="line"
       id="tspan817"
       x="47.367538"
       y="76.91613">Application: {WM_CLASS}</tspan><tspan
       sodipodi:role="line"
       x="47.367538"
       y="110.3256"
       id="tspan821">Window:      {WM_NAME}</tspan></text>
  <path
     d="m 178.20859,281.6686 c 23.75689,0 43.08663,-19.32974 43.08663,-43.08663 0,-23.75689 -19.32974,-43.08663 -43.08663,-43.08663 -23.75689,0 -43.08663,19.32974 -43.08663,43.08663 0,23.75689 19.32974,43.08663 43.08663,43.08663 z M 367.78976,212.73 H 247.1472 c -4.76107,0 -8.61733,3.85625 -8.61733,8.61732 v 77.55593 H 117.88731 V 186.87802 c 0,-4.76107 -3.85625,-8.61733 -8.61732,-8.61733 H 92.035341 c -4.76108,0 -8.61733,3.85626 -8.61733,8.61733 v 189.58116 c 0,4.76108 3.85625,8.61733 8.61733,8.61733 h 17.234649 c 4.76107,0 8.61732,-3.85625 8.61732,-8.61733 v -25.85197 h 275.75443 v 25.85197 c 0,4.76108 3.85625,8.61733 8.61732,8.61733 h 17.23465 c 4.76108,0 8.61733,-3.85625 8.61733,-8.61733 v -103.4079 c 0,-33.31674 -27.00455,-60.32128 -60.32128,-60.32128 z"
     id="path2"
     inkscape:connector-curvature="0"
     style="fill:#000000;fill-opacity:0.1842105;stroke-width:0.53858286" />
</svg>
