<?xml version="1.0" encoding="UTF-8" standalone="no"?>
<svg
   xmlns:dc="http://purl.org/dc/elements/1.1/"
   xmlns:cc="http://creativecommons.org/ns#"
   xmlns:rdf="http://www.w3.org/1999/02/22-rdf-syntax-ns#"
   xmlns:svg="http://www.w3.org/2000/svg"
   xmlns="http://www.w3.org/2000/svg"
   xmlns:sodipodi="http://sodipodi.sourceforge.net/DTD/sodipodi-0.dtd"
   xmlns:inkscape="http://www.inkscape.org/namespaces/inkscape"
   height="512"
   viewBox="0 0 512 512"
   width="512"
   version="1.1"
   id="svg4"
   sodipodi:docname="circle-plus.fl.svg"
   inkscape:version="0.92.3 (2405546, 2018-03-11)">
  <metadata
     id="metadata10">
    <rdf:RDF>
      <cc:Work
         rdf:about="">
        <dc:format>image/svg+xml</dc:format>
        <dc:type
           rdf:resource="http://purl.org/dc/dcmitype/StillImage" />
        <dc:title></dc:title>
      </cc:Work>
    </rdf:RDF>
  </metadata>
  <defs
     id="defs8" />
  <sodipodi:namedview
     pagecolor="#ffffff"
     bordercolor="#666666"
     borderopacity="1"
     objecttolerance="10"
     gridtolerance="10"
     guidetolerance="10"
     inkscape:pageopacity="0"
     inkscape:pageshadow="2"
     inkscape:window-width="1920"
     inkscape:window-height="1050"
     id="namedview6"
     showgrid="false"
     inkscape:zoom="0.3764855"
     inkscape:cx="239.48189"
     inkscape:cy="-416.92685"
     inkscape:window-x="0"
     inkscape:window-y="28"
     inkscape:window-maximized="1"
     inkscape:current-layer="g870" />
  <g
     id="g1311"
     transform="rotate(-45,-1889.4863,256.4682)">
    <g
       id="g1336"
       transform="matrix(0.14413113,-0.14413113,0.14413113,0.14413113,-883.03065,1773.4116)">
      <g
         id="g870"
         transform="matrix(0.59229787,0,0,0.59229787,736.08635,329.93011)">
        <circle
           style="opacity:1;fill:#ffffff;fill-opacity:1;stroke:#000000;stroke-width:62.97489166;stroke-linecap:square;stroke-linejoin:round;stroke-miterlimit:4;stroke-dasharray:none;stroke-dashoffset:0;stroke-opacity:1"
           id="path841"
           cx="2436.5081"
           cy="-1749.0746"
           transform="rotate(90)"
           r="2087.1775" />
        <circle
           style="opacity:1;fill:none;fill-opacity:1;stroke:#000000;stroke-width:121.61297607;stroke-linecap:square;stroke-linejoin:round;stroke-miterlimit:4;stroke-dasharray:none;stroke-dashoffset:0;stroke-opacity:1"
           id="path841-3"
           cx="2436.5081"
           cy="-1749.0746"
           transform="rotate(90)"
           r="1929.2491" />
        <g
           id="g1726"
           transform="matrix(0.68340273,0,0,0.68340273,-3267.5313,2083.1358)">
          <path
             style="stroke-width:1.68833959"
             inkscape:connector-curvature="0"
             d="m 5238.6629,506.04739 c 9.4174,-5.6555 15.6673,-7.9473 29.063,-10.658 9.3868,-1.8993 19.4616,-4.5453 22.3875,-5.88 2.927,-1.3346 7.4846,-2.445 10.1299,-2.4679 2.6453,-0.025 8.209,-0.8241 12.3633,-1.7815 4.1545,-0.9574 16.3106,-2.832 27.0137,-4.166 31.3624,-3.9086 45.4144,-5.7735 63.3563,-8.4076 9.286,-1.3634 24.2026,-3.2257 33.1491,-4.1383 8.9456,-0.9128 18.2087,-2.3983 20.5841,-3.3013 2.3762,-0.9032 10.2515,-2.1332 17.5013,-2.7337 7.251,-0.6005 17.7413,-2.0874 23.3128,-3.3045 5.5714,-1.2172 15.4481,-2.7196 21.9481,-3.3388 6.5004,-0.6196 14.0979,-1.8164 16.8836,-2.6598 2.7861,-0.8434 13.0425,-2.6703 22.7924,-4.0596 21.859,-3.1145 35.3036,-5.7107 82.7287,-15.9737 8.8216,-1.909 23.2571,-5.0332 32.0787,-6.9422 15.3564,-3.3236 23.6096,-5.5213 49.8059,-13.2608 22.2406,-6.5709 59.085,-18.5008 67.9555,-22.0023 4.8753,-1.9251 12.8526,-5.0872 17.7278,-7.0271 4.875,-1.94 11.5227,-4.3621 14.7729,-5.3824 3.2502,-1.0202 7.9261,-3.2316 10.3908,-4.9144 2.4637,-1.6827 4.9923,-3.0595 5.6165,-3.0595 6.1272,1e-4 68.3693,-35.2625 86.5949,-49.0597 14.3853,-10.8901 13.2703,-11.2261 33.5845,10.1231 30.0981,31.6327 70.3345,58.5499 111.1572,74.3612 7.4286,2.8776 15.5229,6.3407 17.9874,7.6963 2.4638,1.3552 5.8835,2.4901 7.5975,2.5214 1.7125,0.033 6.1551,1.5251 9.8696,3.3194 3.7141,1.7941 7.8927,3.3212 9.2859,3.3935 1.3931,0.075 5.5714,1.2563 9.2858,2.6313 3.7142,1.3749 9.7922,3.1627 13.5066,3.9723 3.7144,0.8101 17.7698,4.2143 31.2344,7.5654 35.5023,8.8363 44.7832,10.8105 60.5166,12.8735 7.7485,1.0159 15.7258,2.4532 17.7278,3.1942 2.0005,0.7413 9.4187,1.8563 16.4823,2.4787 7.0635,0.6221 15.3777,1.8587 18.4757,2.7471 3.0992,0.8887 13.5782,2.4237 23.2887,3.4116 9.711,0.9881 22.2897,2.8244 27.9538,4.0811 5.6636,1.2566 17.8947,2.7966 27.1806,3.4217 9.2859,0.6254 20.6822,1.8893 25.3252,2.8094 4.6429,0.9201 16.4189,2.3029 26.1691,3.0723 23.8278,1.8812 61.7563,6.35 79.352,9.3495 7.8931,1.3455 18.9093,2.9039 24.4811,3.4627 17.6127,1.7672 33.7837,9.9205 37.1468,18.7304 6.3742,16.6913 -9.1024,30.6214 -37.1468,33.4342 -5.5718,0.5591 -16.588,2.1172 -24.4807,3.4628 -17.5961,2.9994 -55.5246,7.4684 -79.3521,9.3494 -9.7505,0.7695 -21.5265,2.1523 -26.1694,3.0724 -4.643,0.9201 -16.0393,2.1845 -25.3252,2.8093 -9.2859,0.6254 -21.5177,2.1651 -27.1806,3.4219 -5.6635,1.2566 -18.2425,3.0934 -27.9538,4.0809 -9.7105,0.9881 -20.1907,2.523 -23.2887,3.4116 -3.0993,0.8888 -11.4126,2.1248 -18.4757,2.7474 -7.0636,0.6221 -14.4806,1.7376 -16.4823,2.4785 -2.0004,0.7414 -9.9793,2.1783 -17.7278,3.1943 -15.7343,2.063 -25.0161,4.0373 -60.5166,12.8733 -13.4646,3.3512 -27.52,6.7557 -31.2344,7.5656 -3.7144,0.81 -9.7924,2.5974 -13.5066,3.9721 -3.7144,1.3753 -7.8931,2.5593 -9.2858,2.6313 -1.3932,0.074 -5.5718,1.5994 -9.2859,3.3935 -3.7145,1.7945 -8.1559,3.288 -9.8696,3.3194 -1.7124,0.033 -5.1328,1.1661 -7.5975,2.5217 -2.4638,1.3555 -10.5595,4.8187 -17.9877,7.6962 -40.8224,15.8119 -81.0588,42.7302 -111.1569,74.3611 -20.3139,21.3492 -19.1982,21.0132 -33.5845,10.1233 -18.2256,-13.797 -80.4662,-49.0598 -86.5949,-49.0598 -0.6229,0 -3.1519,-1.3769 -5.6165,-3.0596 -2.4638,-1.6826 -7.1406,-3.894 -10.3908,-4.9144 -3.2498,-1.0202 -9.7079,-3.3727 -14.3509,-5.2278 -22.5276,-9.0011 -28.6763,-11.2091 -50.6502,-18.1869 -42.6137,-13.5316 -64.5891,-19.784 -85.261,-24.2581 -8.8216,-1.9093 -23.2571,-5.033 -32.0787,-6.9422 -47.4251,-10.2632 -60.8697,-12.8591 -82.7287,-15.9739 -9.7499,-1.3893 -20.0065,-3.2159 -22.7924,-4.0595 -2.7862,-0.8434 -10.3832,-2.0402 -16.8836,-2.6595 -6.5,-0.6195 -16.3767,-2.1218 -21.9481,-3.3388 -5.5715,-1.2171 -16.0627,-2.7042 -23.3128,-3.3047 -7.2508,-0.6005 -15.1267,-1.8304 -17.5013,-2.7339 -2.376,-0.9032 -11.6376,-2.3886 -20.5841,-3.3012 -8.9456,-0.9126 -23.8631,-2.7747 -33.1491,-4.1381 -17.9419,-2.6344 -31.9939,-4.4991 -63.3563,-8.4079 -10.7031,-1.3339 -22.8585,-3.2085 -27.0137,-4.1657 -4.1543,-0.9574 -9.7176,-1.7591 -12.3633,-1.7819 -2.6453,-0.025 -7.2038,-1.1333 -10.1299,-2.4679 -2.9272,-1.3345 -13.0004,-3.9805 -22.3875,-5.8801 -15.342,-3.1039 -41.0603,-14.8215 -41.0603,-18.7067 0,-0.4647 5.3987,-4.0862 11.9973,-8.0488 z"
             id="path1053-9" />
          <path
             style="stroke-width:1.68833959"
             inkscape:connector-curvature="0"
             d="m 7171.211,-912.96451 c 13.8443,-18.21707 49.1307,-80.46627 49.1307,-86.59488 0,-0.62421 1.3765,-3.15201 3.0595,-5.61681 1.6827,-2.4647 3.8942,-7.1407 4.9144,-10.3907 1.0202,-3.25 3.5117,-10.0878 5.5366,-15.195 2.0249,-5.1073 5.1868,-13.0847 7.0267,-17.7277 3.4114,-8.6076 15.7774,-46.8649 21.5567,-66.6893 10.8835,-37.3343 9.7771,-32.8686 20.2803,-81.8845 11.8118,-55.1192 13.0318,-61.4168 16.1887,-83.5728 1.3893,-9.7502 3.2162,-20.0068 4.0597,-22.7926 0.8436,-2.7858 2.0405,-10.3833 2.6597,-16.8834 0.6195,-6.5001 2.1219,-16.3769 3.3387,-21.9484 1.2172,-5.5715 2.7043,-16.0626 3.3046,-23.3143 0.6005,-7.2509 1.8308,-15.1269 2.734,-17.5014 0.9032,-2.3752 2.3886,-11.6376 3.3014,-20.5825 0.9126,-8.9455 2.7747,-23.863 4.1381,-33.1488 2.6341,-17.9421 4.4991,-31.9941 8.4077,-63.3567 1.334,-10.703 3.2086,-22.8584 4.1659,-27.0134 0.957,-4.1543 1.7591,-9.7179 1.7819,-12.3632 0.025,-2.6454 1.1333,-7.204 2.4679,-10.13 1.3345,-2.9262 3.9798,-12.9959 5.878,-22.3773 3.3767,-16.593 16.0392,-42.8839 20.7665,-42.8838 0.8402,-10e-5 1.0384,0.7917 0.4398,1.7597 -0.598,0.9679 2.0161,6.71 5.8096,12.7601 5.4693,8.7231 7.6183,14.5628 10.3798,28.2088 1.9156,9.4643 4.5745,19.6017 5.9091,22.5276 1.3346,2.9261 2.4454,7.4845 2.4679,10.13 0.025,2.6456 0.825,8.2088 1.7819,12.3632 0.9573,4.1543 2.832,16.3103 4.1659,27.0134 3.9086,31.3627 5.7736,45.4146 8.4077,63.3566 1.3637,9.2859 3.2256,24.2024 4.1381,33.1489 0.9128,8.9455 2.3983,18.2088 3.3014,20.5825 0.9032,2.3755 2.1332,10.2514 2.7336,17.5014 0.6006,7.2509 2.0875,17.7427 3.3046,23.3143 1.2169,5.5715 2.7196,15.4483 3.3388,21.9484 0.6196,6.5001 1.8164,14.0976 2.6598,16.8834 0.8433,2.7857 2.6701,13.0424 4.0595,22.7925 3.1146,21.859 5.7107,35.3032 15.9737,82.7287 1.9093,8.8216 5.0332,23.2569 6.9423,32.0785 1.9093,8.8215 5.0202,21.3574 6.9129,27.8576 1.8927,6.5001 4.881,16.7567 6.6406,22.7926 1.7594,6.0358 6.5766,21.6107 10.7047,34.6109 6.9779,21.9737 9.1858,28.1227 18.1869,50.6502 1.8551,4.6429 4.2077,11.1008 5.228,14.3509 1.0202,3.2501 3.2315,7.9259 4.9144,10.3906 1.6826,2.465 3.0594,4.9926 3.0594,5.61689 0,6.12701 35.2626,68.36933 49.0598,86.5932 10.8901,14.3854 11.2261,13.2702 -10.123,33.5844 -31.6329,30.0981 -58.55,70.3346 -74.3614,111.157 -2.8772,7.4287 -6.3407,15.5233 -7.6961,17.9875 -1.3552,2.465 -2.49,5.8837 -2.5217,7.5976 -0.033,1.7137 -1.5252,6.1551 -3.3194,9.8695 -1.7941,3.7143 -3.3213,7.893 -3.3934,9.2859 -0.075,1.3928 -1.2563,5.5715 -2.6313,9.2859 -1.3749,3.7143 -3.1626,9.7923 -3.9723,13.5066 -0.81,3.7144 -4.2143,17.7698 -7.5655,31.2344 -8.8361,35.5006 -10.8104,44.7831 -12.8734,60.5168 -1.0158,7.7482 -2.4531,15.7257 -3.1941,17.7276 -0.7413,2.0017 -1.8565,9.4188 -2.4788,16.4823 -0.622,7.0635 -1.8586,15.3778 -2.7471,18.4756 -0.8888,3.0983 -2.424,13.5784 -3.4116,23.2889 -0.988,9.7106 -2.8244,22.2895 -4.0811,27.9539 -1.2569,5.6635 -2.7965,17.8947 -3.4217,27.1805 -0.6254,9.2859 -1.8893,20.6822 -2.8093,25.3251 -0.9204,4.6429 -2.3029,16.4192 -3.0725,26.1693 -1.8811,23.8275 -6.3499,61.756 -9.3493,79.352 -1.3455,7.893 -2.9039,18.9093 -3.4628,24.4809 -2.8137,28.045 -16.7434,43.522 -33.4342,37.1469 -8.8102,-3.3646 -16.9644,-19.5359 -18.7304,-37.1469 -0.5591,-5.5716 -2.1172,-16.588 -3.4627,-24.4809 -2.9994,-17.5959 -7.4686,-55.5245 -9.3495,-79.352 -0.7695,-9.7501 -2.1522,-21.5263 -3.0723,-26.1692 -0.9201,-4.643 -2.1846,-16.0393 -2.8094,-25.3251 -0.6253,-9.2859 -2.1648,-21.5179 -3.4217,-27.1806 -1.257,-5.6636 -3.0934,-18.2425 -4.0811,-27.9539 -0.988,-9.7107 -2.5229,-20.1908 -3.4117,-23.2889 -0.8885,-3.0984 -2.1247,-11.4126 -2.7471,-18.4755 -0.622,-7.0635 -1.7374,-14.4806 -2.4785,-16.4824 -0.7413,-2.002 -2.1783,-9.9793 -3.1942,-17.7276 -2.063,-15.7347 -4.0373,-25.0161 -12.8733,-60.5168 -3.3512,-13.4646 -6.7557,-27.5199 -7.5655,-31.2344 -0.8101,-3.7143 -2.5975,-9.7923 -3.9724,-13.5066 -1.3749,-3.7144 -2.5588,-7.893 -2.6312,-9.2859 -0.075,-1.3931 -1.5994,-5.5716 -3.3937,-9.2859 -1.7941,-3.7143 -3.2877,-8.1557 -3.3194,-9.8695 -0.033,-1.714 -1.1661,-5.1327 -2.5213,-7.5976 -1.3553,-2.4647 -4.8186,-10.5593 -7.6961,-17.9876 -15.8119,-40.8223 -42.7302,-81.0588 -74.3612,-111.1568 -21.3491,-20.3141 -21.0131,-19.1982 -10.1232,-33.5845 z"
             id="path995-1-3" />
          <path
             style="stroke-width:1.68833959"
             inkscape:connector-curvature="0"
             d="m 7181.4395,1927.2734 c 31.3676,-29.5796 58.4672,-70.0457 74.3258,-110.9846 2.8776,-7.4289 6.3408,-15.5233 7.6962,-17.9877 1.3552,-2.4638 2.4901,-5.8836 2.5217,-7.5976 0.033,-1.7155 1.5252,-6.1551 3.3194,-9.8695 1.7942,-3.7144 3.3212,-7.8928 3.3935,-9.2859 0.074,-1.3931 1.2563,-5.5714 2.6313,-9.2859 1.3749,-3.7141 3.1626,-9.7924 3.9723,-13.5065 0.8101,-3.7145 4.2142,-17.7699 7.5654,-31.2344 8.8362,-35.5024 10.8104,-44.7833 12.8735,-60.517 1.0159,-7.7484 2.4531,-15.7258 3.1941,-17.7275 0.7414,-2.0005 1.8565,-9.419 2.4788,-16.4822 0.6221,-7.0635 1.8584,-15.378 2.7471,-18.4757 0.8888,-3.0992 2.4237,-13.5785 3.4116,-23.289 0.9877,-9.7107 2.8244,-22.2894 4.0811,-27.9539 1.2566,-5.6632 2.7965,-17.8944 3.4217,-27.1803 0.6254,-9.2859 1.8894,-20.6822 2.8095,-25.3252 0.92,-4.6429 2.3028,-16.419 3.0723,-26.1692 1.8809,-23.8277 6.35,-61.7563 9.3493,-79.352 1.3456,-7.893 2.904,-18.9095 3.4629,-24.4809 5.1669,-51.4994 46.9983,-51.4994 52.1645,0 0.5591,5.5714 2.1172,16.5879 3.4628,24.4809 2.9994,17.5957 7.4685,55.5243 9.3494,79.3519 0.7695,9.7503 2.1523,21.5264 3.0724,26.1693 0.92,4.643 2.1845,16.0393 2.8094,25.3252 0.6254,9.2859 2.1647,21.5178 3.4219,27.1803 1.2569,5.6639 3.0932,18.2428 4.0809,27.9539 0.988,9.7107 2.5229,20.191 3.4118,23.289 0.8884,3.0993 2.1246,11.4126 2.747,18.4757 0.6221,7.0632 1.7378,14.4805 2.4788,16.4822 0.7413,2.0005 2.1782,9.9791 3.1942,17.7275 2.063,15.7347 4.0373,25.0162 12.8735,60.517 3.3512,13.4645 6.7556,27.5199 7.5653,31.2344 0.8101,3.7141 2.5975,9.7924 3.9724,13.5065 1.3749,3.7145 2.5589,7.8931 2.6312,9.2859 0.075,1.3931 1.5995,5.5715 3.3935,9.2859 1.7942,3.7144 3.2879,8.1559 3.3195,9.8695 0.033,1.7125 1.1662,5.1329 2.5215,7.5976 1.3555,2.4638 4.8187,10.5594 7.6961,17.9877 15.8119,40.8221 42.7302,81.0588 74.3612,111.1568 21.3491,20.314 21.0131,19.1979 10.1232,33.5845 -13.7969,18.2256 -49.0598,80.4662 -49.0598,86.5949 0,0.6229 -1.3765,3.1519 -3.0596,5.6166 -1.6826,2.4638 -3.8941,7.1405 -4.9144,10.3907 -1.0202,3.2502 -3.5118,10.0877 -5.5365,15.1949 -2.0249,5.1075 -5.1871,13.0849 -7.027,17.7278 -3.4113,8.6075 -15.7773,46.8649 -21.5566,66.6896 -1.7598,6.0357 -4.7478,16.2921 -6.6407,22.7925 -1.8927,6.5 -5.0036,19.0361 -6.9129,27.8577 -1.909,8.8214 -5.033,23.2568 -6.9423,32.0781 -10.2631,47.4258 -12.859,60.8701 -15.9736,82.7287 -1.3894,9.7502 -3.2162,20.0069 -4.0597,22.7928 -0.8434,2.7862 -2.0402,10.3832 -2.6597,16.8832 -0.6196,6.5003 -2.1219,16.377 -3.3388,21.9485 -1.2169,5.5715 -2.7042,16.0624 -3.3046,23.3125 -0.6005,7.251 -1.8307,15.127 -2.7336,17.5014 -0.9031,2.3762 -2.3886,11.6377 -3.3015,20.5843 -0.9126,8.9456 -2.7746,23.8631 -4.1382,33.1487 -2.634,17.942 -4.499,31.9942 -8.4077,63.3569 -1.3339,10.7029 -3.2085,22.8583 -4.1657,27.0135 -0.9573,4.1543 -1.7591,9.7176 -1.7819,12.3633 -0.025,2.6453 -1.133,7.2038 -2.4678,10.1299 -1.3347,2.9271 -3.9805,13.0004 -5.88,22.3874 -3.1042,15.342 -14.8216,41.0607 -18.7069,41.0607 -3.8852,-3e-4 -15.6026,-25.7202 -18.7068,-41.0607 -1.8993,-9.3867 -4.5453,-19.4613 -5.8799,-22.3874 -1.3346,-2.927 -2.4453,-7.4846 -2.4678,-10.1299 -0.025,-2.6454 -0.8242,-8.209 -1.7819,-12.3636 -0.9574,-4.1543 -2.832,-16.3103 -4.1659,-27.0134 -3.9087,-31.3625 -5.7737,-45.4144 -8.4078,-63.3567 -1.3634,-9.2859 -3.2255,-24.2022 -4.1381,-33.1487 -0.9128,-8.9457 -2.3983,-18.2087 -3.3014,-20.5843 -0.9032,-2.376 -2.1331,-10.2513 -2.7336,-17.5014 -0.6006,-7.2508 -2.0874,-17.741 -3.3046,-23.3125 -1.2169,-5.5715 -2.7192,-15.4482 -3.3388,-21.9485 -0.6196,-6.5 -1.8164,-14.0976 -2.6598,-16.8832 -0.8433,-2.7862 -2.6701,-13.0426 -4.0596,-22.7928 -3.157,-22.1558 -4.377,-28.4535 -16.1887,-83.5726 -8.5948,-40.1081 -10.4404,-48.1042 -13.6402,-59.0919 -1.8927,-6.5 -4.881,-16.7568 -6.6405,-22.7925 -5.7787,-19.8247 -18.1447,-58.0826 -21.5568,-66.6896 -1.8399,-4.6429 -5.002,-12.6203 -7.0269,-17.7275 -2.0249,-5.1072 -4.5163,-11.945 -5.5364,-15.1952 -1.0203,-3.2502 -3.2318,-7.926 -4.9145,-10.3907 -1.6827,-2.4637 -3.0595,-4.9923 -3.0595,-5.6166 0,-6.1271 -35.2626,-68.3693 -49.0599,-86.5949 -10.9078,-14.4091 -11.126,-13.6834 10.1598,-33.7551 z"
             id="path993-6" />
          <g
             transform="matrix(0,31.305782,-31.305782,0,10203.847,-995.09077)"
             id="g1627">
            <path
               id="path1043-0"
               d="m 45.682108,118.44006 c -3.019197,-1.86147 -2.317342,-4.36007 1.500889,-5.34312 2.878653,-0.74111 6.634541,1.40155 5.9383,3.38771 -0.359746,1.02635 -2.314109,2.61385 -2.587432,2.10173 -0.105534,-0.19776 0.199274,-1.11313 0.480386,-1.44265 0.223258,-0.26169 0.227288,-0.32745 0.04038,-0.65935 -0.404955,-0.71906 -1.06276,-1.10612 -2.240441,-1.31828 -0.724501,-0.13052 -1.971326,0.25868 -2.509928,0.7835 -0.520393,0.50704 -0.633632,0.87837 -0.364249,1.19413 0.281107,0.3295 0.585901,1.24488 0.48038,1.44265 -0.08361,0.15666 -0.324527,0.10894 -0.738528,-0.14629 z"
               inkscape:connector-curvature="0"
               style="stroke-width:0.0539306" />
            <path
               d="m 59.680395,83.871492 c 0.552233,-0.544656 1.14472,-1.055651 1.785879,-1.525233 1.404819,-1.028878 3.124232,-2.025777 4.906457,-2.10275 1.650117,-0.07126 3.405651,0.891667 3.531918,2.698559 0.0606,0.794203 -0.410401,1.440596 -1.11447,1.758718 -0.869783,0.393004 -1.362104,-0.189445 -2.053212,-0.632918 -1.579739,-1.013714 -3.174899,-0.134858 -4.53214,0.813567 -2.110494,1.474814 -3.783539,3.556527 -5.208455,5.759011 1.424916,2.202463 3.09794,4.284178 5.208455,5.759 1.357217,0.948418 2.952401,1.827287 4.53214,0.813581 0.691116,-0.443471 1.183429,-1.025922 2.053212,-0.632921 0.704059,0.31813 1.175067,0.964518 1.11447,1.75872 -0.126267,1.806874 -1.881799,2.769834 -3.531923,2.698574 -1.78222,-0.077 -3.501631,-1.073892 -4.906452,-2.102775 -2.931004,-2.146657 -4.844433,-5.158602 -6.550599,-8.2941 1.332934,-2.449592 2.792376,-4.823936 4.76472,-6.769033 z m 10.224254,-0.929424 c -0.03617,-0.517694 0.04147,0.543571 0,0 z m -8.904444,4.427276 c 0.06639,-0.06549 0.13334,-0.130858 0.201449,-0.195355 1.002654,-0.95009 2.179203,-2.012603 3.553915,-2.358766 1.195004,-0.300924 3.094135,0.307774 2.808338,1.869774 -0.111853,0.67047 -0.918443,1.320374 -1.547487,1.475755 -0.370978,0.09333 -0.735423,-0.09001 -1.006036,-0.331512 -0.341628,-0.30489 -0.356645,-0.570219 -0.423199,-0.987451 -0.249883,0.05397 -0.497279,0.118851 -0.747516,0.171262 0.319526,0.342582 0.634486,0.611174 0.721307,1.096957 0.09351,0.523304 -0.01323,1.060982 -0.375407,1.460116 -0.510762,0.562846 -1.26184,0.826641 -1.993178,1.070325 0.731338,0.243699 1.482413,0.507494 1.993178,1.070321 0.362191,0.399137 0.468916,0.936832 0.375404,1.460122 -0.08681,0.485791 -0.401778,0.754375 -0.721302,1.09697 0.250233,0.05241 0.497631,0.117274 0.747514,0.171262 0.06654,-0.417237 0.08157,-0.682564 0.423194,-0.987454 0.270605,-0.241498 0.635071,-0.424854 1.006056,-0.331523 0.629029,0.15538 1.43563,0.805292 1.547472,1.475748 0.285808,1.562008 -1.61334,2.170716 -2.808335,1.869784 -1.374707,-0.346183 -2.551264,-1.408678 -3.553918,-2.358763 -1.08948,-1.032359 -1.928654,-2.214612 -2.735784,-3.466467 0.756682,-1.173605 1.541471,-2.286003 2.534335,-3.271105 z m 6.563694,7.226551 c -0.0527,-0.315896 0.07641,0.41759 0,0 z m 8e-6,-7.910898 c 0.07642,-0.41759 -0.05271,0.315904 0,0 z m 2.353267,11.497384 c -0.0027,0.04489 -0.03956,0.544801 -0.01243,0.156538 0.01037,-0.135901 0.01331,-0.171514 0.01243,-0.156538 z"
               id="path2-6-1-7-6"
               inkscape:connector-curvature="0"
               sodipodi:nodetypes="ssccccccsccccccsccccccccccccccccccccsccccccccccc"
               style="stroke-width:0.06123572" />
            <path
               d="m 41.754146,79.767981 c -0.544639,-0.552227 -1.055645,-1.14472 -1.52523,-1.785879 -1.028877,-1.404821 -2.025774,-3.124226 -2.102747,-4.906457 -0.07126,-1.650116 0.891665,-3.405645 2.698557,-3.53192 0.794203,-0.06059 1.440598,0.410405 1.758725,1.114472 0.392999,0.869781 -0.189452,1.362102 -0.632925,2.053212 -1.013714,1.57974 -0.134859,3.174905 0.813564,4.532146 1.474817,2.110491 3.556529,3.783533 5.759016,5.208458 2.202466,-1.424925 4.284181,-3.097949 5.759,-5.208461 0.948421,-1.357223 1.82729,-2.952401 0.813578,-4.532143 -0.443473,-0.69111 -1.025922,-1.183431 -0.632923,-2.053212 0.318133,-0.704059 0.96452,-1.175067 1.758723,-1.114472 1.806876,0.126275 2.769835,1.881806 2.698575,3.531922 -0.07699,1.782229 -1.073891,3.501631 -2.102776,4.906455 -2.14666,2.931007 -5.158602,4.844434 -8.2941,6.550599 -2.449595,-1.332934 -4.823934,-2.792375 -6.769037,-4.76472 z m -0.92942,-10.224256 c -0.517692,0.03617 0.543571,-0.04147 0,0 z m 4.427276,8.904446 c -0.06549,-0.06639 -0.130858,-0.13334 -0.19535,-0.201449 -0.950087,-1.002657 -2.012606,-2.179206 -2.358769,-3.553912 -0.300926,-1.195007 0.307774,-3.094135 1.869776,-2.80834 0.670471,0.111857 1.320372,0.918442 1.475759,1.547487 0.09333,0.370975 -0.09002,0.735427 -0.33151,1.006041 -0.304892,0.341619 -0.570222,0.356647 -0.987456,0.423193 0.05397,0.249883 0.118853,0.497279 0.171262,0.747516 0.342585,-0.319526 0.611174,-0.634486 1.09696,-0.721304 0.523298,-0.09351 1.060981,0.0132 1.460116,0.375407 0.562843,0.510757 0.826638,1.26184 1.070324,1.993175 0.243695,-0.731335 0.50749,-1.48241 1.070322,-1.993178 0.399134,-0.362193 0.936829,-0.468916 1.460116,-0.375404 0.485796,0.08681 0.754377,0.401775 1.096971,0.721302 0.05241,-0.25023 0.117276,-0.497631 0.171262,-0.747514 -0.417235,-0.06655 -0.682559,-0.08157 -0.987452,-0.423193 -0.241498,-0.270606 -0.424854,-0.635072 -0.331525,-1.006057 0.155382,-0.629029 0.805296,-1.435627 1.475753,-1.547471 1.562002,-0.285811 2.17071,1.613336 1.869781,2.808332 -0.346183,1.374709 -1.408681,2.551263 -2.358758,3.553923 -1.032361,1.089475 -2.214615,1.928654 -3.46647,2.735778 -1.173607,-0.756679 -2.286008,-1.54147 -3.271112,-2.534332 z m 7.226554,-6.563696 c -0.315897,0.0527 0.417586,-0.07641 0,0 z m -7.910897,-5e-6 c -0.417591,-0.07641 0.315905,0.05271 0,0 z m 11.497377,-2.353263 c 0.0449,0.0027 0.544808,0.03956 0.15654,0.01244 -0.135898,-0.01037 -0.171508,-0.01331 -0.15654,-0.01244 z"
               id="path2-6-1-2-2"
               inkscape:connector-curvature="0"
               sodipodi:nodetypes="ssccccccsccccccsccccccccccccccccccccsccccccccccc"
               style="stroke-width:0.06123572" />
            <path
               d="m 37.861655,83.430786 c -0.552228,-0.54465 -1.144715,-1.055648 -1.78588,-1.525233 -1.404818,-1.028878 -3.124223,-2.025775 -4.906449,-2.102747 -1.650121,-0.07126 -3.40565,0.891664 -3.531923,2.698554 -0.0606,0.794208 0.410403,1.440603 1.11447,1.758728 0.869784,0.393004 1.362096,-0.189455 2.053212,-0.632923 1.579737,-1.013714 3.174907,-0.134861 4.53214,0.813562 2.110497,1.474822 3.783542,3.556529 5.208456,5.759021 -1.424914,2.202463 -3.097938,4.284173 -5.208456,5.759 -1.357217,0.948418 -2.952403,1.827284 -4.53214,0.813573 -0.69111,-0.443474 -1.183428,-1.025922 -2.053212,-0.632926 -0.704064,0.318133 -1.17507,0.964523 -1.114467,1.758728 0.12627,1.806874 1.881801,2.769827 3.53192,2.698577 1.782226,-0.077 3.501631,-1.073895 4.906455,-2.10278 2.931004,-2.14666 4.844433,-5.158603 6.550596,-8.294101 -1.332931,-2.449594 -2.792375,-4.823933 -4.764722,-6.769033 z M 27.637403,82.50136 c 0.03617,-0.517689 -0.04146,0.543573 0,0 z m 8.904444,4.427278 c -0.06639,-0.06549 -0.13334,-0.130855 -0.201446,-0.195352 -1.002657,-0.950087 -2.179206,-2.012604 -3.553915,-2.358769 -1.195007,-0.300924 -3.09413,0.30778 -2.808338,1.869776 0.111858,0.67047 0.918446,1.320372 1.547482,1.475756 0.370972,0.09333 0.735433,-0.09002 1.006041,-0.331512 0.341617,-0.304893 0.35665,-0.57022 0.423193,-0.987452 0.249883,0.05397 0.497279,0.118854 0.747514,0.171263 -0.319526,0.342579 -0.634486,0.611171 -0.721304,1.096959 -0.09351,0.523296 0.0132,1.06098 0.375406,1.460114 0.51076,0.56284 1.261843,0.826641 1.993178,1.070327 -0.731337,0.243695 -1.482413,0.507489 -1.993178,1.070322 -0.362193,0.399132 -0.468915,0.936826 -0.375406,1.460113 0.08682,0.485799 0.401778,0.754375 0.721302,1.096971 -0.25023,0.05241 -0.497629,0.117279 -0.747512,0.171265 -0.06654,-0.417235 -0.08158,-0.682565 -0.423193,-0.987457 -0.270605,-0.241496 -0.635066,-0.424855 -1.00606,-0.331523 -0.629025,0.155384 -1.435626,0.805296 -1.547468,1.475753 -0.285811,1.562002 1.613334,2.170711 2.808335,1.869781 1.374706,-0.34618 2.551263,-1.408681 3.553918,-2.358757 1.08948,-1.032359 1.928654,-2.214618 2.735781,-3.466468 -0.756677,-1.17361 -1.541471,-2.286011 -2.53433,-3.27111 z m -6.563696,7.226554 c 0.0527,-0.315896 -0.07641,0.417584 0,0 z m -3e-6,-7.910899 c -0.07641,-0.417592 0.0527,0.315902 0,0 z m -2.353262,11.497379 c 0.0027,0.04489 0.03955,0.544804 0.01243,0.156541 -0.01037,-0.135898 -0.01331,-0.171508 -0.01243,-0.156541 z"
               id="path2-6-3-6"
               inkscape:connector-curvature="0"
               sodipodi:nodetypes="ssccccccsccccccsccccccccccccccccccccsccccccccccc"
               style="stroke-width:0.06123572" />
            <path
               style="stroke-width:0.06241848"
               inkscape:connector-curvature="0"
               id="path1015-5-1"
               d="m 48.164879,112.22976 c -0.06479,-0.185 -0.402034,-2.17373 -0.437243,-2.57839 -0.0764,-0.8781 -0.292197,-2.44262 -0.379581,-2.7519 -0.04934,-0.17467 -0.08971,-0.37038 -0.08971,-0.43491 0,-0.11461 -0.128545,-0.67649 -0.38476,-1.6818 -0.07,-0.27465 -0.180591,-0.61948 -0.245766,-0.76632 -0.06517,-0.14682 -0.118499,-0.30076 -0.118504,-0.34209 0,-0.0759 -0.05323,-0.22079 -0.475729,-1.29474 C 45.7572,101.67709 45.079025,100.29208 44.795765,99.851661 44.685367,99.68001 44.462376,99.3289 44.300232,99.071428 43.014907,97.030343 42.121266,96.13676 40.080244,94.851438 39.822765,94.689291 39.471663,94.466308 39.300009,94.3559 38.85961,94.072658 37.474583,93.39447 36.772061,93.118084 c -1.073912,-0.4225 -1.218779,-0.475737 -1.294752,-0.475737 -0.04132,0 -0.195257,-0.05332 -0.342088,-0.118499 -0.146822,-0.06518 -0.491654,-0.175765 -0.766307,-0.245761 -1.005374,-0.256217 -1.567204,-0.384765 -1.6818,-0.384765 -0.06453,0 -0.260244,-0.04049 -0.434912,-0.08999 -0.290393,-0.08228 -1.462024,-0.244083 -2.970371,-0.410176 -0.326128,-0.03591 -1.000249,-0.141724 -1.498044,-0.235124 l -0.905068,-0.169818 v -0.280836 -0.280845 l 0.905068,-0.169815 c 0.497789,-0.0934 1.171916,-0.19921 1.498044,-0.235119 1.508347,-0.166098 2.680002,-0.32789 2.970371,-0.410181 0.174668,-0.0495 0.370385,-0.08999 0.434912,-0.08999 0.114604,0 0.676489,-0.128551 1.6818,-0.384763 0.274643,-0.07 0.619472,-0.180594 0.766307,-0.245763 0.146831,-0.06518 0.300763,-0.118502 0.342088,-0.118502 0.07593,0 0.220805,-0.05324 1.294752,-0.475734 0.702522,-0.276378 2.087528,-0.954563 2.527948,-1.237818 0.171659,-0.1104 0.522756,-0.333389 0.780238,-0.495531 2.056371,-1.295 2.987468,-2.22604 4.282408,-4.282408 0.162139,-0.257482 0.385133,-0.608584 0.495528,-0.780235 0.283249,-0.440396 0.961432,-1.825427 1.237818,-2.527948 0.422503,-1.07391 0.475737,-1.218782 0.475734,-1.294752 0,-0.04133 0.05333,-0.195265 0.118502,-0.342085 0.06518,-0.146825 0.175768,-0.491659 0.245766,-0.766315 0.256212,-1.005369 0.38476,-1.567196 0.38476,-1.681801 0,-0.06452 0.04049,-0.260238 0.08999,-0.434906 0.08229,-0.290401 0.244086,-1.462029 0.410186,-2.970371 0.03591,-0.326133 0.141719,-1.000257 0.23512,-1.498044 l 0.169815,-0.905069 h 0.280842 l 0.280836,3e-6 0.169821,0.905066 c 0.0934,0.497787 0.199207,1.171913 0.235124,1.498039 0.166092,1.508347 0.327888,2.680009 0.410173,2.970376 0.0495,0.174662 0.08999,0.370385 0.08999,0.434906 0,0.114607 0.128548,0.676498 0.384768,1.681798 0.06999,0.274648 0.180586,0.619479 0.245758,0.766318 0.06518,0.14682 0.118499,0.30076 0.118499,0.342085 0,0.07592 0.05324,0.220805 0.475734,1.294752 0.276389,0.702521 0.954572,2.087523 1.237829,2.527948 0.110398,0.171651 0.333378,0.522756 0.495533,0.780235 1.28532,2.041081 2.178963,2.934661 4.219988,4.219988 0.257471,0.162144 0.608576,0.385135 0.78023,0.49553 0.440399,0.283244 1.825426,0.961432 2.527945,1.237824 1.073907,0.422497 1.218785,0.475729 1.294749,0.475729 0.04133,2e-6 0.195263,0.05333 0.342093,0.118507 0.14682,0.06517 0.491655,0.175762 0.766308,0.245753 1.005372,0.256217 1.567206,0.384767 1.681808,0.384767 0.06452,0 0.260236,0.0405 0.434904,0.08999 0.290393,0.0823 1.462024,0.244086 2.970368,0.410189 0.326141,0.0359 1.000257,0.141716 1.498042,0.235119 l 0.905071,0.169812 v 0.280845 0.280834 l -0.905074,0.16982 c -0.497782,0.0934 -1.171898,0.199207 -1.498039,0.235122 -1.508344,0.166095 -2.680007,0.327885 -2.970368,0.410181 -0.17467,0.04949 -0.37038,0.08998 -0.434907,0.08999 -0.114614,-2e-6 -0.676489,0.128545 -1.681805,0.384768 -0.274646,0.07 -0.61948,0.180586 -0.766307,0.245753 -0.146828,0.06518 -0.300771,0.118501 -0.342094,0.118501 -0.07592,0 -0.220797,0.05324 -1.294749,0.475735 -0.702519,0.276389 -2.087525,0.954574 -2.527945,1.237829 -0.171654,0.110392 -0.522759,0.333378 -0.780227,0.495533 -2.056384,1.294995 -2.98748,2.226029 -4.282409,4.282403 -0.162147,0.257474 -0.38514,0.608578 -0.495538,0.780237 -0.283249,0.440392 -0.961429,1.825432 -1.237821,2.527942 -0.422503,1.07391 -0.475734,1.21878 -0.475739,1.29475 0,0.0413 -0.05333,0.19527 -0.118499,0.34209 -0.06517,0.14682 -0.17576,0.49165 -0.245756,0.76631 -0.25622,1.00537 -0.384762,1.5672 -0.384762,1.68181 0,0.0645 -0.0405,0.26024 -0.08999,0.4349 -0.08229,0.2904 -0.244081,1.46202 -0.410181,2.97037 -0.03591,0.32614 -0.141708,1.00026 -0.235101,1.49804 l -0.169801,0.90507 -0.265846,0.0192 c -0.17707,0.0128 -0.275402,-0.008 -0.294449,-0.0624 z" />
            <path
               d="m 41.342891,101.56848 c -0.544652,0.55223 -1.05565,1.14472 -1.525233,1.78588 -1.028877,1.40482 -2.025774,3.12423 -2.102749,4.90646 -0.07126,1.65012 0.891664,3.40565 2.698559,3.53192 0.7942,0.0606 1.440596,-0.41041 1.758723,-1.11447 0.393004,-0.86979 -0.189455,-1.36211 -0.632921,-2.05322 -1.013714,-1.57974 -0.13486,-3.1749 0.813562,-4.53214 1.47482,-2.11049 3.556527,-3.78354 5.759016,-5.208457 2.202464,1.424917 4.284181,3.097947 5.759003,5.208457 0.948415,1.35723 1.82729,2.95241 0.813576,4.53215 -0.443471,0.6911 -1.025922,1.18343 -0.632926,2.05321 0.318132,0.70406 0.964523,1.17507 1.758722,1.11447 1.80688,-0.12627 2.769839,-1.88181 2.698576,-3.53192 -0.07699,-1.78223 -1.073891,-3.50164 -2.102774,-4.90646 -2.146657,-2.931 -5.158602,-4.844433 -8.2941,-6.550599 -2.449594,1.332931 -4.823931,2.792376 -6.769034,4.764719 z m -0.929423,10.22426 c -0.517694,-0.0362 0.543571,0.0415 0,0 z m 4.427273,-8.90445 c -0.06548,0.0664 -0.130857,0.13334 -0.195352,0.20145 -0.95009,1.00266 -2.012604,2.17921 -2.358766,3.55392 -0.300921,1.195 0.307774,3.09413 1.869773,2.80834 0.670468,-0.11186 1.320372,-0.91845 1.475762,-1.54749 0.09333,-0.37098 -0.09002,-0.73543 -0.33151,-1.00604 -0.304893,-0.34162 -0.570219,-0.35665 -0.987454,-0.4232 0.05398,-0.24988 0.118851,-0.49727 0.171262,-0.74751 0.342582,0.31952 0.611172,0.63448 1.09696,0.7213 0.523298,0.0935 1.060976,-0.0132 1.460114,-0.37541 0.562842,-0.51076 0.82664,-1.26184 1.070324,-1.99317 0.243697,0.73133 0.507494,1.48241 1.070327,1.99317 0.399129,0.36219 0.936826,0.46892 1.460113,0.37541 0.485799,-0.0868 0.754375,-0.40178 1.096971,-0.7213 0.05241,0.25022 0.117276,0.49762 0.171262,0.7475 -0.417235,0.0665 -0.682562,0.0816 -0.987451,0.4232 -0.241499,0.27061 -0.424855,0.63508 -0.331526,1.00606 0.155382,0.62903 0.805294,1.43563 1.475753,1.54747 1.562002,0.28581 2.170711,-1.61334 1.869781,-2.80833 -0.34618,-1.37471 -1.408681,-2.55127 -2.358757,-3.55392 -1.032365,-1.08948 -2.214618,-1.92866 -3.466473,-2.73579 -1.173605,0.75669 -2.286006,1.54148 -3.271113,2.53434 z m 7.226557,6.5637 c -0.315899,-0.0527 0.417586,0.0764 0,0 z m -7.910902,1e-5 c -0.417586,0.0764 0.31591,-0.0527 0,0 z m 11.497385,2.35326 c 0.04489,-0.003 0.544806,-0.0396 0.15654,-0.0124 -0.1359,0.0104 -0.171513,0.0133 -0.15654,0.0124 z"
               id="path2-6-1-2-7-8"
               inkscape:connector-curvature="0"
               sodipodi:nodetypes="ssccccccsccccccsccccccccccccccccccccsccccccccccc"
               style="stroke-width:0.06123572" />
            <path
               id="path1013-6-7"
               d="m 48.545908,103.24146 c 0.136837,-0.89336 1.205944,-3.499821 2.003629,-4.884978 0.159366,-0.276717 0.289756,-0.513191 0.289753,-0.525487 3e-6,-0.03132 0.80373,-1.267264 1.116258,-1.716608 0.748234,-1.075645 0.860407,-1.187823 1.936057,-1.93606 0.449326,-0.312555 1.685277,-1.116253 1.716609,-1.116253 0.0123,0 0.248772,-0.130392 0.525486,-0.289756 1.385155,-0.797737 3.991621,-1.866804 4.884981,-2.003626 0.126064,-0.01931 0.229206,-0.05511 0.229206,-0.07956 0,-0.02445 -0.103142,-0.06024 -0.229206,-0.07956 -0.89336,-0.136839 -3.499826,-1.205941 -4.884981,-2.003628 -0.276717,-0.159367 -0.513188,-0.289756 -0.525486,-0.289756 -0.0335,3e-6 -1.285706,-0.815753 -1.748809,-1.13923 -1.038434,-0.725418 -1.101478,-0.788463 -1.826953,-1.826953 -0.32349,-0.463071 -1.139227,-1.715315 -1.139227,-1.748809 0,-0.0123 -0.130392,-0.248769 -0.289756,-0.525483 -0.797739,-1.385157 -1.866807,-3.991623 -2.003628,-4.884981 -0.01931,-0.126061 -0.05511,-0.229206 -0.07956,-0.229206 -0.02445,0 -0.06025,0.103145 -0.07956,0.229206 -0.136837,0.893358 -1.205944,3.499824 -2.003629,4.884981 -0.159364,0.276714 -0.289753,0.513188 -0.289753,0.525483 0,0.03132 -0.803727,1.267265 -1.116256,1.716614 -0.748234,1.075646 -0.860412,1.187821 -1.936054,1.936055 -0.449331,0.312555 -1.685274,1.116256 -1.716614,1.116256 -0.0123,-3e-6 -0.248769,0.130389 -0.525486,0.289755 -1.385155,0.797738 -3.991618,1.866805 -4.884981,2.003626 -0.126064,0.01932 -0.229206,0.05511 -0.229203,0.07956 0,0.02445 0.103139,0.06025 0.229203,0.07956 0.893363,0.136837 3.499823,1.205939 4.884981,2.003629 0.276717,0.159364 0.513191,0.289753 0.525489,0.289753 0.07346,3e-6 1.852461,1.195859 2.478757,1.666243 0.319706,0.240117 0.534122,0.494202 1.096946,1.29994 0.323493,0.463074 1.139235,1.715318 1.139235,1.748808 0,0.0123 0.130384,0.24877 0.289751,0.525487 0.797742,1.385157 1.86681,3.991618 2.003631,4.884978 0.01931,0.12607 0.05511,0.22921 0.07956,0.22921 0.02445,0 0.06024,-0.10314 0.07955,-0.22921 z"
               inkscape:connector-curvature="0"
               style="stroke-width:0.0539306" />
            <path
               style="fill:#ffffff;fill-opacity:1;stroke-width:0.0539306"
               id="path1011-2-9"
               d="m 48.266826,99.169702 c -0.18746,-0.24512 -0.370809,-0.527113 -0.622417,-0.957265 -0.202065,-0.345461 -0.275217,-0.499012 -0.501039,-1.051647 -0.258749,-0.633254 -0.921999,-2.024668 -1.057904,-2.219463 -0.209132,-0.29969 -0.124984,-0.493381 0.710967,-1.636574 0.390046,-0.533387 0.663024,-1.272712 0.521988,-1.413741 -0.141033,-0.141033 -0.880361,0.131945 -1.413737,0.521992 -1.143167,0.83598 -1.336884,0.920107 -1.636578,0.710967 -0.194813,-0.135943 -1.586259,-0.799201 -2.219457,-1.057905 -0.715068,-0.292187 -1.023498,-0.457486 -1.736402,-0.930571 -0.635791,-0.421894 -0.620096,-0.449681 0.684755,-1.214086 0.345276,-0.202261 0.498408,-0.275262 1.051647,-0.501327 0.633248,-0.258749 2.024663,-0.921999 2.219462,-1.057902 0.299689,-0.209135 0.49338,-0.124984 1.636575,0.710967 1.424361,1.041614 1.987288,0.478671 0.945671,-0.945671 -0.835974,-1.14317 -0.920109,-1.336889 -0.710967,-1.63658 0.135943,-0.194816 0.799198,-1.586265 1.057905,-2.219463 0.292187,-0.715063 0.457486,-1.02349 0.930571,-1.736402 0.421894,-0.635789 0.449678,-0.620094 1.214086,0.684755 0.202261,0.345276 0.275259,0.498414 0.50133,1.05165 0.258746,0.633251 0.921999,2.02466 1.057899,2.21946 0.209135,0.299691 0.124984,0.493381 -0.710964,1.636575 -0.390049,0.533384 -0.663025,1.272709 -0.521991,1.41374 0.141033,0.141031 0.880364,-0.13194 1.413737,-0.521991 1.143167,-0.835981 1.336887,-0.920108 1.63658,-0.710968 0.194813,0.135943 1.586259,0.799198 2.21946,1.057905 0.715066,0.292187 1.023493,0.457486 1.736402,0.930571 0.594908,0.394764 0.594908,0.390086 0,0.784852 -0.712909,0.473068 -1.021336,0.638374 -1.736402,0.930574 -0.633254,0.258747 -2.024663,0.921999 -2.21946,1.0579 -0.299693,0.209134 -0.493384,0.124984 -1.63658,-0.710965 -0.587356,-0.429522 -1.271791,-0.664802 -1.441132,-0.495448 -0.169363,0.169363 0.06593,0.853771 0.49545,1.44113 0.835978,1.143167 0.92011,1.336887 0.710965,1.63658 -0.13594,0.194813 -0.799193,1.586259 -1.057899,2.219463 -0.225825,0.552624 -0.298977,0.706165 -0.501045,1.051642 -0.382399,0.653748 -0.740896,1.159507 -0.821954,1.15951 -0.02469,0 -0.114464,-0.09101 -0.199533,-0.20224 z"
               inkscape:connector-curvature="0" />
            <path
               id="path991-2-2"
               d="m 22.702477,95.383354 c -1.015349,-0.371203 -2.577772,-2.315565 -2.075894,-2.583384 0.197757,-0.105537 1.113125,0.199276 1.44264,0.480383 0.315783,0.269401 0.687078,0.156144 1.194134,-0.36425 0.524809,-0.538615 0.914016,-1.785424 0.783505,-2.509927 -0.212151,-1.177629 -0.599226,-1.835473 -1.318281,-2.240439 -0.331888,-0.186907 -0.397645,-0.182877 -0.659358,0.04038 -0.329499,0.281109 -1.244878,0.585901 -1.44264,0.480385 -0.51212,-0.273312 1.075375,-2.227659 2.101731,-2.587429 1.287483,-0.451268 2.792092,1.036542 3.387701,3.349789 0.744783,2.892944 -1.423228,6.662047 -3.41348,5.934525 z"
               inkscape:connector-curvature="0"
               style="stroke-width:0.0539306" />
            <path
               id="path989-7-0"
               d="m 73.224667,95.30246 c -1.063995,-0.442447 -1.917017,-1.650008 -2.347923,-3.323635 -0.741114,-2.878654 1.401548,-6.634544 3.387704,-5.9383 1.026353,0.359746 2.613856,2.314106 2.101731,2.587429 -0.19776,0.105537 -1.113126,-0.199274 -1.442643,-0.48038 -0.315781,-0.269402 -0.687078,-0.156147 -1.194134,0.364246 -0.524804,0.538615 -0.914016,1.785427 -0.783503,2.509928 0.212146,1.177628 0.599226,1.835475 1.318282,2.240438 0.331888,0.18691 0.397645,0.18288 0.659355,-0.04038 0.541837,-0.462249 1.537022,-0.644255 1.537022,-0.281117 0,1.160261 -2.223235,2.783085 -3.235838,2.361993 z"
               inkscape:connector-curvature="0"
               style="stroke-width:0.0539306" />
            <path
               id="path951-2"
               d="m 48.036974,68.496755 c -2.698636,-0.396584 -4.672714,-2.079887 -4.158753,-3.546152 0.359744,-1.026353 2.31411,-2.613856 2.58743,-2.101731 0.105537,0.19776 -0.199274,1.113126 -0.480383,1.442643 -0.223261,0.261697 -0.227293,0.327459 -0.04038,0.659355 0.404955,0.719056 1.062757,1.106115 2.240438,1.318281 0.724506,0.130519 1.971326,-0.258691 2.509933,-0.783505 0.520388,-0.507042 0.633627,-0.878366 0.364244,-1.194131 -0.281107,-0.329496 -0.585901,-1.244878 -0.48038,-1.442643 0.273312,-0.51212 2.227659,1.075378 2.587429,2.101731 0.512006,1.460764 -1.618239,3.265225 -4.185716,3.545562 -0.177972,0.01942 -0.359987,0.04267 -0.404477,0.05163 -0.0445,0.009 -0.287184,-0.01402 -0.53931,-0.05106 z"
               inkscape:connector-curvature="0"
               style="stroke-width:0.0539306" />
          </g>
          <path
             style="stroke-width:1.68833959"
             inkscape:connector-curvature="0"
             d="m 8173.5974,523.53689 c 3.0811,-7.4879 20.7142,-15.846 36.8429,-17.4642 5.5714,-0.5591 16.588,-2.1172 24.481,-3.4627 17.5958,-2.9994 55.5243,-7.4685 79.3519,-9.3495 9.7502,-0.7695 21.5263,-2.1523 26.1693,-3.0723 4.643,-0.9201 16.0392,-2.1845 25.3251,-2.8094 9.2859,-0.6253 21.5179,-2.1651 27.1806,-3.4218 5.6635,-1.2566 18.2424,-3.0932 27.9538,-4.081 9.7108,-0.9877 20.1908,-2.523 23.289,-3.4116 3.098,-0.8888 11.4125,-2.1247 18.4754,-2.7471 7.0635,-0.6221 14.4806,-1.7375 16.4825,-2.4785 2.0016,-0.7413 9.9792,-2.1782 17.7275,-3.1942 15.7347,-2.0628 25.0162,-4.0373 60.5169,-12.8733 13.4644,-3.3513 27.5199,-6.7558 31.2342,-7.5655 3.7144,-0.81 9.7925,-2.5974 13.5068,-3.9724 3.7143,-1.375 7.8929,-2.559 9.2859,-2.6313 1.3928,-0.075 5.5714,-1.5994 9.2858,-3.3937 3.7144,-1.7941 8.1557,-3.2877 9.8695,-3.3193 1.7137,-0.033 5.1328,-1.1662 7.5975,-2.5217 2.465,-1.3552 10.5595,-4.8187 17.9876,-7.696 40.8224,-15.8122 81.0589,-42.7304 111.1569,-74.3615 20.3141,-21.349 19.1982,-21.013 33.5845,-10.1231 18.2257,13.797 80.4663,49.0599 86.5933,49.0599 0.6242,0 3.1519,1.3768 5.6167,3.0595 2.465,1.6827 7.1407,3.8941 10.3908,4.9144 3.25,1.0202 10.0878,3.5117 15.195,5.5365 5.1073,2.0248 13.0846,5.1869 17.7276,7.027 8.4874,3.3636 45.5311,15.3483 67.5335,21.8488 32.5596,9.6199 31.9181,9.4614 81.0403,19.9881 55.1193,11.8117 61.4168,13.0317 83.5729,16.1887 9.7501,1.3893 20.0068,3.2161 22.7926,4.0595 2.7856,0.8437 10.3832,2.0406 16.8833,2.6598 6.5001,0.6196 16.3769,2.1215 21.9484,3.3388 5.5716,1.2171 16.0626,2.7041 23.3143,3.3046 7.2509,0.6005 15.1269,1.8307 17.5014,2.7335 2.3752,0.9032 11.6376,2.3887 20.5825,3.3015 8.9456,0.9126 23.863,2.7746 33.1488,4.138 17.9421,2.634 31.9942,4.4992 63.3567,8.4078 10.7031,1.3339 22.8584,3.2085 27.0134,4.1659 4.1544,0.957 9.7179,1.7591 12.3633,1.7819 2.6453,0.025 7.2039,1.1333 10.1299,2.4679 2.9262,1.3349 13.0003,3.9806 22.3875,5.88 15.3419,3.1042 41.0621,14.8216 41.0621,18.7068 0,3.8852 -25.7202,15.6026 -41.0621,18.7069 -9.3867,1.8992 -19.4615,4.5452 -22.3874,5.8798 -2.9261,1.3349 -7.4846,2.4453 -10.1301,2.4678 -2.6453,0.025 -8.2088,0.825 -12.3632,1.7819 -4.1543,0.9574 -16.3104,2.832 -27.0134,4.1658 -31.3626,3.9088 -45.4147,5.7738 -63.3567,8.4078 -9.2857,1.3634 -24.2023,3.2256 -33.1488,4.1382 -8.9455,0.9129 -18.2087,2.3983 -20.5826,3.3014 -2.3752,0.9031 -10.2512,2.1332 -17.5012,2.7336 -7.251,0.6005 -17.7428,2.0878 -23.3143,3.3046 -5.5716,1.2168 -15.4483,2.7195 -21.9485,3.3388 -6.5,0.6196 -14.0976,1.8161 -16.8833,2.6598 -2.7859,0.8434 -13.0425,2.6704 -22.7926,4.0597 -21.859,3.1146 -35.3033,5.7107 -82.7287,15.9737 -8.8216,1.9091 -23.2569,5.0332 -32.0784,6.9423 -8.8216,1.9093 -21.3575,5.0201 -27.8577,6.9129 -6.5001,1.8927 -16.7567,4.881 -22.7925,6.6406 -6.0359,1.7593 -21.6107,6.5765 -34.611,10.7046 -21.9737,6.9778 -28.1227,9.1859 -50.6502,18.1869 -4.6429,1.8552 -11.1008,4.2077 -14.3509,5.228 -3.25,1.0203 -7.9258,3.2316 -10.3907,4.9144 -2.4647,1.6827 -4.9924,3.0595 -5.6167,3.0595 -6.127,1e-4 -68.3693,35.2627 -86.5933,49.0598 -14.3854,10.8901 -13.2702,11.2261 -33.5845,-10.1231 -30.098,-31.6326 -70.3345,-58.5499 -111.1568,-74.3613 -7.4288,-2.8773 -15.5233,-6.3407 -17.9877,-7.696 -2.4647,-1.3553 -5.8836,-2.4901 -7.5975,-2.5217 -1.7137,-0.033 -6.1551,-1.5252 -9.8695,-3.3194 -3.7144,-1.7944 -7.8929,-3.3214 -9.2859,-3.3936 -1.3928,-0.075 -5.5715,-1.2564 -9.2858,-2.6313 -3.7143,-1.375 -9.7924,-3.1625 -13.5068,-3.9723 -3.7143,-0.8092 -17.7697,-4.2143 -31.2342,-7.5653 -35.5007,-8.8362 -44.7833,-10.8105 -60.5169,-12.8735 -7.7483,-1.0159 -15.7257,-2.4532 -17.7275,-3.1943 -2.002,-0.7413 -9.419,-1.8564 -16.4825,-2.4785 -7.0635,-0.622 -15.3777,-1.8586 -18.4755,-2.747 -3.0983,-0.8888 -13.5784,-2.424 -23.2889,-3.4116 -9.7108,-0.988 -22.2895,-2.8244 -27.954,-4.0811 -5.6634,-1.257 -17.8946,-2.7965 -27.1804,-3.4217 -9.2859,-0.6254 -20.6822,-1.8896 -25.3251,-2.8094 -4.643,-0.9201 -16.4191,-2.3026 -26.1693,-3.0724 -23.8276,-1.8811 -61.7561,-6.35 -79.3519,-9.3494 -7.893,-1.3455 -18.9094,-2.9036 -24.481,-3.4627 -28.8657,-2.8957 -44.0471,-17.1957 -36.8429,-34.7005 z"
             id="path2-3" />
        </g>
      </g>
    </g>
  </g>
</svg>
