<?xml version="1.0" encoding="UTF-8" standalone="no"?>
<svg
   height="512"
   viewBox="0 0 512 512"
   width="512"
   version="1.1"
   id="svg4"
   xmlns="http://www.w3.org/2000/svg"
   xmlns:svg="http://www.w3.org/2000/svg"
   xmlns:rdf="http://www.w3.org/1999/02/22-rdf-syntax-ns#"
   xmlns:cc="http://creativecommons.org/ns#"
   xmlns:dc="http://purl.org/dc/elements/1.1/">
  <metadata
     id="metadata10">
    <rdf:RDF>
      <cc:Work
         rdf:about="">
        <dc:format>image/svg+xml</dc:format>
        <dc:type
           rdf:resource="http://purl.org/dc/dcmitype/StillImage" />
        <dc:title />
      </cc:Work>
    </rdf:RDF>
  </metadata>
  <defs
     id="defs8" />
  <g
     id="g1311"
     transform="rotate(-45,-1889.4863,256.4682)">
    <g
       id="g1336"
       transform="matrix(0.14413113,-0.14413113,0.14413113,0.14413113,-883.03065,1773.4116)">
      <g
         id="g870"
         transform="matrix(0.59229787,0,0,0.59229787,736.08635,329.93011)">
        <circle
           style="opacity:1;fill:#ffffff;fill-opacity:1;stroke:#000000;stroke-width:62.91709137;stroke-linecap:square;stroke-linejoin:round;stroke-miterlimit:4;stroke-dasharray:none;stroke-dashoffset:0;stroke-opacity:1"
           id="path841"
           cx="2434.5632"
           cy="-1751.0192"
           r="2085.262"
           transform="rotate(90)" />
        <circle
           style="opacity:1;fill:none;fill-opacity:1;stroke:#000000;stroke-width:121.50135803;stroke-linecap:square;stroke-linejoin:round;stroke-miterlimit:4;stroke-dasharray:none;stroke-dashoffset:0;stroke-opacity:1"
           id="path841-3"
           cx="2434.5632"
           cy="-1751.0192"
           r="1927.4784"
           transform="rotate(90)" />
        <path
           id="path995-1-3"
           d="m 1635.3447,1458.1657 c 9.4526,-12.438 33.5453,-54.9403 33.5453,-59.1249 0,-0.4261 0.9397,-2.152 2.0889,-3.835 1.1489,-1.6828 2.6588,-4.8753 3.3554,-7.0944 0.6967,-2.2191 2.3978,-6.8877 3.7804,-10.3749 1.3824,-3.4872 3.5414,-8.9338 4.7975,-12.104 2.3293,-5.8771 10.7725,-31.9982 14.7184,-45.5338 7.431,-25.4909 6.6756,-22.4419 13.847,-55.9087 8.0647,-37.634 8.8978,-41.9339 11.0533,-57.0614 0.9486,-6.6573 2.1958,-13.6602 2.7717,-15.5622 0.576,-1.9021 1.3932,-7.0896 1.816,-11.5277 0.4229,-4.4381 1.4489,-11.1817 2.2796,-14.9858 0.8312,-3.804 1.8464,-10.9671 2.2562,-15.9184 0.4101,-4.9507 1.2502,-10.3283 1.8669,-11.9495 0.6166,-1.6217 1.6308,-7.9459 2.254,-14.0533 0.6231,-6.1077 1.8945,-16.2931 2.8255,-22.6332 1.7984,-12.2504 3.0718,-21.8447 5.7406,-43.2583 0.9108,-7.3078 2.1907,-15.6073 2.8444,-18.4441 0.6533,-2.8365 1.201,-6.6352 1.2165,-8.4413 0.017,-1.8063 0.7738,-4.9187 1.6851,-6.9166 0.911,-1.9979 2.7172,-8.8732 4.0132,-15.2787 2.3056,-11.32921 10.9513,-29.28 14.1789,-29.27993 0.5736,-7e-5 0.709,0.54056 0.3003,1.20149 -0.4083,0.66086 1.3766,4.58141 3.9667,8.71228 3.7342,5.95591 5.2015,9.94313 7.0871,19.26026 1.3079,6.462 3.1233,13.3836 4.0345,15.3813 0.9112,1.9979 1.6697,5.1102 1.6851,6.9165 0.017,1.8064 0.5633,5.6048 1.2166,8.4413 0.6537,2.8365 1.9336,11.1363 2.8444,18.4441 2.6688,21.4137 3.9421,31.0079 5.7405,43.2583 0.9312,6.3402 2.2024,16.5248 2.8254,22.6333 0.6233,6.1077 1.6376,12.4325 2.2542,14.0532 0.6166,1.622 1.4565,6.9994 1.8664,11.9495 0.41,4.9508 1.4253,12.1143 2.2564,15.9185 0.8308,3.804 1.8567,10.5476 2.2795,14.9858 0.4231,4.4381 1.2402,9.6255 1.816,11.5276 0.576,1.902 1.8232,8.9051 2.7718,15.5621 2.1265,14.9248 3.8991,24.1042 10.9065,56.4851 1.3037,6.0232 3.4364,15.8793 4.74,21.9024 1.3036,6.0232 3.4276,14.5823 4.72,19.0205 1.2922,4.4381 3.3325,11.4411 4.534,15.5623 1.2013,4.1211 4.4903,14.7552 7.3089,23.6315 4.7643,15.0031 6.2718,19.2015 12.4175,34.5826 1.2667,3.1702 2.873,7.5795 3.5696,9.7985 0.6966,2.2191 2.2063,5.4117 3.3555,7.0945 1.1488,1.683 2.0888,3.4087 2.0888,3.8351 0,4.1833 24.0764,46.6808 33.4969,59.1237 7.4354,9.822 7.6649,9.0606 -6.9118,22.9306 -21.5981,20.5502 -39.9766,48.0227 -50.772,75.8951 -1.9647,5.0722 -4.3294,10.599 -5.2548,12.2815 -0.9253,1.6831 -1.7001,4.0173 -1.7218,5.1875 -0.023,1.1701 -1.0414,4.2026 -2.2663,6.7388 -1.2251,2.536 -2.2677,5.389 -2.3169,6.3401 -0.052,0.9509 -0.858,3.8041 -1.7966,6.3402 -0.9389,2.536 -2.1594,6.6859 -2.7123,9.2219 -0.5531,2.5362 -2.8775,12.1327 -5.1655,21.3261 -6.0331,24.2389 -7.3812,30.5769 -8.7897,41.3193 -0.6935,5.2902 -1.6749,10.7372 -2.1808,12.104 -0.5062,1.3668 -1.2676,6.4311 -1.6925,11.2536 -0.4247,4.8229 -1.269,10.4998 -1.8757,12.6148 -0.6068,2.1155 -1.655,9.271 -2.3293,15.9011 -0.6745,6.6302 -1.9284,15.2187 -2.7865,19.0863 -0.8582,3.8669 -1.9093,12.218 -2.3362,18.5581 -0.427,6.3401 -1.2899,14.1213 -1.9181,17.2914 -0.6285,3.17 -1.5723,11.2107 -2.0979,17.8677 -1.2843,16.2689 -4.3356,42.1656 -6.3835,54.1796 -0.9186,5.3892 -1.9827,12.9109 -2.3643,16.7151 -1.9211,19.1484 -11.432,29.7157 -22.8281,25.363 -6.0153,-2.2974 -11.5828,-13.3387 -12.7886,-25.363 -0.3817,-3.8042 -1.4456,-11.3259 -2.3642,-16.7151 -2.0479,-12.014 -5.0995,-37.9107 -6.3836,-54.1796 -0.5253,-6.657 -1.4695,-14.6977 -2.0977,-17.8675 -0.6282,-3.1703 -1.4915,-10.9515 -1.9182,-17.2915 -0.427,-6.3402 -1.4781,-14.6919 -2.3363,-18.5582 -0.8581,-3.867 -2.1121,-12.4555 -2.7865,-19.0863 -0.6745,-6.6303 -1.7224,-13.7858 -2.3294,-15.9011 -0.6066,-2.1154 -1.4507,-7.7922 -1.8755,-12.6146 -0.4248,-4.8227 -1.1863,-9.887 -1.6924,-11.2538 -0.506,-1.3668 -1.4873,-6.8136 -2.1809,-12.104 -1.4085,-10.7432 -2.7564,-17.0804 -8.7895,-41.3193 -2.2882,-9.1934 -4.6127,-18.7899 -5.1655,-21.3261 -0.5532,-2.536 -1.7736,-6.6859 -2.7124,-9.2219 -0.9387,-2.5361 -1.7471,-5.3892 -1.7964,-6.3402 -0.052,-0.9513 -1.0922,-3.8041 -2.3172,-6.3401 -1.225,-2.5362 -2.2448,-5.5687 -2.2664,-6.7388 -0.023,-1.1704 -0.7962,-3.5046 -1.7216,-5.1875 -0.9253,-1.6828 -3.2899,-7.2096 -5.2546,-12.2815 -10.796,-27.8724 -29.1751,-55.3449 -50.7721,-75.8951 -14.5766,-13.87 -14.3471,-13.108 -6.9119,-22.9306 z"
           style="stroke-width:1.15275681" />
        <path
           id="path993-6"
           d="m 1642.3285,3397.4105 c 21.4171,-20.1962 39.92,-47.8256 50.7479,-75.7775 1.9648,-5.0723 4.3294,-10.599 5.2547,-12.2816 0.9253,-1.6822 1.7002,-4.0171 1.7219,-5.1874 0.023,-1.1713 1.0412,-4.2025 2.2662,-6.7387 1.2251,-2.5362 2.2678,-5.389 2.3171,-6.3402 0.05,-0.9511 0.8578,-3.804 1.7966,-6.3402 0.9388,-2.536 2.1593,-6.686 2.7122,-9.2219 0.553,-2.5361 2.8774,-12.1328 5.1654,-21.326 6.0332,-24.2402 7.3811,-30.5771 8.7898,-41.3197 0.6936,-5.2902 1.6748,-10.7371 2.1807,-12.1038 0.5062,-1.3659 1.2676,-6.4311 1.6925,-11.2537 0.4248,-4.8226 1.2689,-10.4997 1.8756,-12.6147 0.607,-2.1161 1.6549,-9.271 2.3294,-15.9013 0.6744,-6.6301 1.9285,-15.2185 2.7865,-19.0861 0.8581,-3.8666 1.9095,-12.2179 2.3362,-18.5581 0.4271,-6.3401 1.2901,-14.1213 1.9183,-17.2914 0.6282,-3.17 1.5723,-11.2104 2.0977,-17.8676 1.2843,-16.269 4.3356,-42.1657 6.3834,-54.1796 0.9189,-5.3891 1.9829,-12.911 2.3645,-16.715 3.5279,-35.1625 32.0892,-35.1625 35.6167,0 0.3818,3.804 1.4454,11.3259 2.3643,16.715 2.0478,12.0139 5.0992,37.9106 6.3834,54.1795 0.5255,6.6573 1.4697,14.6977 2.0979,17.8677 0.6282,3.1701 1.4915,10.9513 1.9181,17.2914 0.4271,6.3402 1.478,14.692 2.3364,18.5581 0.8581,3.8671 2.1119,12.4557 2.7863,19.0861 0.6747,6.6305 1.7226,13.7861 2.3296,15.9013 0.6065,2.1162 1.4506,7.7922 1.8755,12.6147 0.4248,4.8226 1.1865,9.887 1.6926,11.2537 0.506,1.3659 1.4871,6.8136 2.1808,12.1038 1.4086,10.7434 2.7566,17.0805 8.7896,41.3197 2.2882,9.1932 4.6126,18.7899 5.1656,21.326 0.553,2.5359 1.7735,6.6859 2.7122,9.2219 0.9387,2.5362 1.7471,5.3892 1.7965,6.3402 0.052,0.9512 1.0921,3.804 2.317,6.3402 1.2251,2.5362 2.2449,5.5686 2.2665,6.7387 0.023,1.1692 0.7962,3.5046 1.7215,5.1874 0.9257,1.6822 3.2901,7.2098 5.2547,12.2816 10.796,27.8722 29.1753,55.3449 50.772,75.8952 14.5767,13.8698 14.3473,13.1078 6.9119,22.9306 -9.4201,12.444 -33.4967,54.9403 -33.4967,59.1248 0,0.4254 -0.9399,2.152 -2.089,3.8348 -1.1489,1.6823 -2.6589,4.8754 -3.3555,7.0947 -0.6965,2.219 -2.3977,6.8876 -3.7802,10.3746 -1.3826,3.4873 -3.5417,8.9341 -4.7978,12.1042 -2.3291,5.877 -10.7725,31.9982 -14.7185,45.534 -1.2014,4.121 -3.2415,11.1239 -4.5339,15.5621 -1.2924,4.438 -3.4163,12.9975 -4.72,19.0205 -1.3035,6.023 -3.4364,15.8792 -4.74,21.9022 -7.0074,32.3812 -8.7799,41.5605 -10.9064,56.4851 -0.9488,6.6572 -2.196,13.6602 -2.772,15.5624 -0.5757,1.9023 -1.3928,7.0895 -1.8158,11.5274 -0.4231,4.4382 -1.4489,11.1819 -2.2797,14.986 -0.8309,3.804 -1.8464,10.967 -2.2563,15.9171 -0.41,4.9509 -1.25,10.3283 -1.8665,11.9496 -0.6166,1.6223 -1.6309,7.946 -2.2542,14.0544 -0.6231,6.1078 -1.8944,16.2933 -2.8253,22.6331 -1.7986,12.2504 -3.072,21.8449 -5.7407,43.2586 -0.9108,7.3077 -2.1907,15.607 -2.8442,18.4441 -0.6536,2.8365 -1.2011,6.6349 -1.2167,8.4414 -0.017,1.8062 -0.7735,4.9185 -1.6849,6.9164 -0.9113,1.9986 -2.7178,8.8764 -4.0147,15.2856 -2.1194,10.4751 -10.1198,28.0353 -12.7726,28.0353 -2.6528,-3e-4 -10.6531,-17.5612 -12.7726,-28.0353 -1.2968,-6.4089 -3.1034,-13.2877 -4.0146,-15.2856 -0.9114,-1.9985 -1.6696,-5.1102 -1.6851,-6.9164 -0.017,-1.8062 -0.5626,-5.6049 -1.2165,-8.4415 -0.6537,-2.8365 -1.9336,-11.1363 -2.8444,-18.4442 -2.6688,-21.4135 -3.9421,-31.0079 -5.7407,-43.2584 -0.9309,-6.3401 -2.2022,-16.5247 -2.8254,-22.6331 -0.6232,-6.1078 -1.6374,-12.4325 -2.254,-14.0544 -0.6167,-1.6224 -1.4565,-6.9993 -1.8665,-11.9496 -0.4101,-4.9506 -1.4251,-12.1131 -2.2563,-15.9171 -0.8308,-3.8041 -1.8566,-10.5478 -2.2797,-14.986 -0.4229,-4.4379 -1.2401,-9.6255 -1.816,-11.5274 -0.5758,-1.9023 -1.823,-8.9052 -2.7717,-15.5624 -2.1556,-15.1273 -2.9887,-19.4274 -11.0534,-57.0613 -5.8684,-27.3848 -7.1283,-32.8444 -9.3131,-40.3465 -1.2924,-4.4379 -3.3327,-11.4411 -4.534,-15.5621 -3.9454,-13.5358 -12.3888,-39.6574 -14.7185,-45.534 -1.2562,-3.1701 -3.4151,-8.6169 -4.7977,-12.104 -1.3826,-3.4869 -3.0837,-8.1558 -3.7801,-10.3748 -0.6967,-2.2193 -2.2066,-5.4118 -3.3556,-7.0947 -1.149,-1.682 -2.0888,-3.4085 -2.0888,-3.8348 0,-4.1834 -24.0766,-46.6808 -33.4969,-59.1248 -7.4477,-9.8382 -7.5967,-9.3428 6.9367,-23.0472 z"
           style="stroke-width:1.15275681" />
        <path
           d="m 1913.216,2677.7498 c 11.6419,11.8038 22.5643,24.4681 32.6016,38.1728 21.9921,30.0277 43.3007,66.7799 44.946,104.8746 1.5231,35.271 -19.0593,72.7952 -57.6814,75.4941 -16.9758,1.2953 -30.7923,-8.7723 -37.5922,-23.8216 -8.4004,-18.5914 4.0494,-29.1147 13.5285,-43.887 21.668,-33.7667 2.8827,-67.8629 -17.3898,-96.8738 -31.5238,-45.1113 -76.0201,-80.8724 -123.0978,-111.3297 -47.0773,30.4573 -91.5736,66.2179 -123.0976,111.3297 -20.2722,29.0103 -39.0579,63.1071 -17.3902,96.8738 9.4791,14.7724 21.9289,25.2956 13.5287,43.887 -6.8001,15.0491 -20.6165,25.1168 -37.5925,23.8216 -38.6216,-2.6989 -59.2045,-40.2231 -57.6814,-75.4941 1.6458,-38.0947 22.9541,-74.8467 44.9464,-104.8746 45.8845,-62.6497 110.2642,-103.549 177.2848,-140.018 52.3596,28.4913 103.1108,59.6867 144.6869,101.8452 z m 19.8662,218.5415 c 11.0657,-0.7732 -11.6187,0.8864 0,0 z m -94.6321,-190.3309 c 1.3999,1.419 2.7971,2.8501 4.1756,4.306 20.3081,21.4314 43.0191,46.5801 50.4183,75.9642 6.4321,25.5431 -6.5787,66.1367 -39.9662,60.0278 -14.331,-2.3909 -28.2227,-19.6316 -31.5439,-33.0772 -1.995,-7.9298 1.9239,-15.7196 7.086,-21.504 6.5169,-7.3021 12.1882,-7.6231 21.1066,-9.0456 -1.1536,-5.3414 -2.5405,-10.6294 -3.6607,-15.9781 -7.3227,6.8298 -13.0637,13.562 -23.4472,15.4177 -11.1856,1.9989 -22.6784,-0.2826 -31.2098,-8.0242 -12.0307,-10.9175 -17.6693,-26.9717 -22.878,-42.6037 -5.209,15.632 -10.8476,31.6862 -22.8779,42.6037 -8.5315,7.7419 -20.0246,10.0231 -31.2099,8.0242 -10.3837,-1.8555 -16.1246,-8.5879 -23.4475,-15.4177 -1.1202,5.3487 -2.5067,10.6367 -3.6608,15.9781 8.9184,1.4221 14.5899,1.7435 21.1067,9.0456 5.1621,5.7842 9.0813,13.5745 7.0863,21.5043 -3.3213,13.4453 -17.2131,30.6862 -31.5438,33.0769 -33.3877,6.109 -46.3988,-34.4849 -39.9664,-60.0277 7.3997,-29.3841 30.1103,-54.5329 50.4182,-75.9643 22.0665,-23.2875 47.3368,-41.2247 74.0951,-58.4769 25.0856,16.1738 48.8629,32.9486 69.9193,54.1709 z m -154.4662,140.2978 c 6.7522,-1.1265 -8.926,1.6333 0,0 z m 169.0939,2e-4 c 8.926,1.6334 -6.7523,-1.1267 0,0 z m -245.7545,50.3007 c -0.9595,-0.058 -11.645,-0.8456 -3.346,-0.2657 2.9048,0.2217 3.6661,0.2843 3.346,0.2657 z"
           id="path2-6-1-7-6"
           style="stroke-width:1.30890238" />
        <path
           d="m 1922.636,2211.378 c 11.6418,-11.8036 22.5644,-24.468 32.6016,-38.1728 21.9921,-30.0277 43.3006,-66.7797 44.9458,-104.8744 1.5231,-35.2711 -19.0591,-72.7952 -57.6811,-75.4942 -16.976,-1.2953 -30.7925,8.7722 -37.5924,23.8215 -8.4004,18.5914 4.0495,29.1146 13.5286,43.887 21.6679,33.7667 2.8826,67.8632 -17.3897,96.8738 -31.524,45.1115 -76.0202,80.8724 -123.0981,111.3298 -47.0772,-30.4574 -91.5734,-66.218 -123.0975,-111.3298 -20.2723,-29.0103 -39.0579,-63.1071 -17.39,-96.8738 9.479,-14.7722 21.9288,-25.2956 13.5286,-43.887 -6.8001,-15.0492 -20.6164,-25.1168 -37.5924,-23.8215 -38.6216,2.699 -59.2047,40.2232 -57.6816,75.4942 1.6458,38.0947 22.9543,74.8467 44.9465,104.8746 45.8845,62.6496 110.2642,103.5488 177.2848,140.0177 52.3598,-28.4911 103.1109,-59.6864 144.6869,-101.8451 z m 19.8663,-218.5414 c 11.0656,0.773 -11.6188,-0.8864 0,0 z m -94.6322,190.3309 c 1.3998,-1.4191 2.797,-2.8502 4.1756,-4.3059 20.3079,-21.4317 43.019,-46.5801 50.4182,-75.9645 6.4323,-25.5429 -6.5787,-66.1362 -39.966,-60.0276 -14.3312,2.391 -28.2227,19.6317 -31.5441,33.0772 -1.9948,7.9295 1.9242,15.7197 7.0861,21.5038 6.517,7.3021 12.1883,7.6235 21.1065,9.0458 -1.1535,5.3412 -2.5403,10.6292 -3.6606,15.9781 -7.3226,-6.8299 -13.0636,-13.5622 -23.4474,-15.4179 -11.1854,-1.9987 -22.6782,0.2822 -31.2097,8.0243 -12.0306,10.9173 -17.6691,26.9716 -22.878,42.6038 -5.2089,-15.6322 -10.8474,-31.6864 -22.8779,-42.6038 -8.5314,-7.7418 -20.0244,-10.023 -31.2096,-8.0243 -10.384,1.8557 -16.1247,8.588 -23.4477,15.4177 -1.1202,-5.3487 -2.5068,-10.6367 -3.6607,-15.9779 8.9184,-1.4223 14.5897,-1.7437 21.1066,-9.0458 5.1621,-5.7841 9.0813,-13.5743 7.0863,-21.5041 -3.3212,-13.4453 -17.213,-30.6863 -31.5439,-33.0769 -33.3875,-6.1092 -46.3985,34.4847 -39.9662,60.0275 7.3995,29.3842 30.1103,54.5328 50.418,75.9645 22.0665,23.2874 47.337,41.2247 74.0951,58.4767 25.0857,-16.1738 48.8631,-32.9486 69.9194,-54.1707 z m -154.4663,-140.2979 c 6.7523,1.1265 -8.9257,-1.6333 0,0 z m 169.0941,-10e-5 c 8.9258,-1.6333 -6.7524,1.1265 0,0 z m -245.7545,-50.3004 c -0.9596,0.058 -11.645,0.8452 -3.346,0.2656 2.9048,-0.2216 3.6659,-0.2845 3.346,-0.2656 z"
           id="path2-6-3-6"
           style="stroke-width:1.30890238" />
        <path
           style="stroke-width:1.33418381"
           id="path1015-5-1"
           d="m 1307.0631,2431.6076 c 3.9545,-1.3849 46.4632,-8.5933 55.1127,-9.346 18.7692,-1.6331 52.2105,-6.2456 58.8214,-8.1134 3.7335,-1.0547 7.9168,-1.9176 9.2961,-1.9176 2.4498,0 14.4599,-2.7476 35.9482,-8.2241 5.8706,-1.4963 13.2412,-3.8601 16.3799,-5.2532 3.1381,-1.3931 6.4287,-2.533 7.3122,-2.5331 1.6223,0 4.7194,-1.1377 27.6747,-10.1685 15.0162,-5.9078 44.6207,-20.4036 54.0345,-26.4582 3.6689,-2.3598 11.1739,-7.1262 16.6773,-10.5919 43.6279,-27.4736 62.728,-46.5752 90.2015,-90.2015 3.4659,-5.5035 8.2322,-13.0084 10.5922,-16.6775 6.0542,-9.4134 20.5502,-39.0181 26.4579,-54.0343 9.031,-22.9549 10.1689,-26.0513 10.1689,-27.6752 0,-0.8832 1.1397,-4.1736 2.5329,-7.3121 1.3932,-3.1383 3.7569,-10.5089 5.253,-16.3797 5.4767,-21.4897 8.2243,-33.4987 8.2243,-35.9481 0,-1.3793 0.8655,-5.5626 1.9237,-9.2962 1.7586,-6.2071 5.2172,-31.2505 8.7673,-63.4912 0.7675,-6.9709 3.0293,-21.3801 5.0258,-32.0203 l 3.6298,-19.3456 h 6.0028 6.003 l 3.6299,19.3456 c 1.9963,10.6401 4.2579,25.0494 5.0256,32.0203 3.5502,32.2407 7.0084,57.2847 8.7675,63.4912 1.058,3.7336 1.9234,7.9169 1.9234,9.2962 0,2.4497 2.7478,14.4598 8.2243,35.9481 1.4963,5.8705 3.8601,13.2413 5.2532,16.3797 1.3932,3.1385 2.533,6.4288 2.533,7.3121 0,1.623 1.1378,4.7197 10.1686,27.6752 5.9076,15.0162 20.4036,44.6205 26.4583,54.0343 2.3597,3.6692 7.126,11.174 10.5918,16.6775 27.6802,43.9545 47.5812,63.8567 91.5357,91.5357 5.5036,3.4656 13.0084,8.2321 16.6774,10.5918 9.4133,6.0545 39.0182,20.5504 54.0344,26.4581 22.9547,9.0309 26.0512,10.1688 27.6751,10.1688 0.8834,0 4.1737,1.1398 7.312,2.5329 3.1383,1.3933 10.5092,3.757 16.3799,5.2532 21.4895,5.4766 33.4984,8.2242 35.9481,8.2242 1.3791,0 5.5625,0.8655 9.296,1.9236 6.2073,1.7589 31.2507,5.2172 63.4912,8.7675 6.9711,0.7677 21.3802,3.0293 32.0203,5.0258 l 19.3458,3.6296 v 6.0029 l -10e-5,6.003 -19.3457,3.6298 c -10.6401,1.9965 -25.0494,4.2581 -32.0202,5.0258 -32.2406,3.5501 -57.2848,7.0086 -63.4913,8.7674 -3.7334,1.0581 -7.9169,1.9236 -9.296,1.9236 -2.4497,0 -14.46,2.7476 -35.9481,8.2243 -5.8706,1.4961 -13.2413,3.8599 -16.3799,5.253 -3.1383,1.3932 -6.4287,2.533 -7.312,2.533 -1.6228,0 -4.7196,1.1378 -27.6751,10.1686 -15.0162,5.9078 -44.6205,20.4038 -54.0344,26.4584 -3.669,2.3597 -11.1738,7.1259 -16.6774,10.5918 -43.6277,27.4735 -62.7279,46.5751 -90.2014,90.2016 -3.4659,5.5033 -8.2323,13.0082 -10.592,16.6773 -6.0543,9.4134 -20.5504,39.0181 -26.4582,54.0343 -9.0308,22.9546 -10.1687,26.0514 -10.1687,27.6751 0,0.8834 -1.1398,4.1737 -2.5331,7.3122 -1.3929,3.1381 -3.7568,10.5089 -5.2529,16.3797 -5.4765,21.4895 -8.2243,33.4987 -8.2243,35.9483 0,1.3791 -0.8657,5.5624 -1.9235,9.296 -1.7592,6.2071 -5.2172,31.2505 -8.7677,63.491 -0.7674,6.9713 -3.0292,21.3804 -5.0256,32.0204 l -3.6297,19.3457 h -6.003 -6.0029 l -3.6297,-19.3457 c -1.9966,-10.64 -4.2582,-25.0491 -5.0259,-32.0204 -3.5501,-32.2405 -7.0084,-57.2846 -8.7674,-63.491 -1.0579,-3.7336 -1.9234,-7.9168 -1.9235,-9.296 0,-2.4499 -2.7478,-14.46 -8.2245,-35.9483 -1.4962,-5.8706 -3.8599,-13.2414 -5.2529,-16.3797 -1.3931,-3.1385 -2.5328,-6.4289 -2.5328,-7.3122 0,-1.6228 -1.1381,-4.7195 -10.1688,-27.6751 -5.9078,-15.0162 -20.4039,-44.6205 -26.4585,-54.0343 -2.3596,-3.6691 -7.1259,-11.174 -10.5919,-16.6773 -27.6802,-43.9549 -47.581,-63.8569 -91.5355,-91.5357 -5.5035,-3.4658 -13.0084,-8.2323 -16.6775,-10.592 -9.4133,-6.0545 -39.0182,-20.5504 -54.0343,-26.4582 -22.9547,-9.031 -26.0512,-10.1687 -27.6751,-10.1688 -0.8826,0 -4.1738,-1.1399 -7.3119,-2.5328 -3.1384,-1.3932 -10.509,-3.757 -16.3798,-5.2531 -21.4897,-5.4767 -33.4987,-8.2243 -35.9484,-8.2243 -1.3787,0 -5.5627,-0.8656 -9.2959,-1.9234 -6.2073,-1.759 -31.2504,-5.2173 -63.4912,-8.7676 -6.9711,-0.7676 -21.3804,-3.029 -32.0203,-5.0253 l -19.3457,-3.6295 -0.4105,-5.6823 c -0.2736,-3.7848 0.1711,-5.8868 1.3339,-6.2938 z" />
        <path
           id="path1013-6-7"
           d="m 1499.1865,2439.7521 c 19.0954,2.9249 74.808,25.7768 104.4155,42.8271 5.9148,3.4065 10.9694,6.1936 11.2322,6.1934 0.6694,2e-4 27.0875,17.1797 36.6922,23.86 22.9917,15.9933 25.3895,18.391 41.3828,41.3828 6.681,9.6042 23.8598,36.0224 23.8598,36.6922 0,0.2629 2.7871,5.3175 6.1935,11.2322 17.0515,29.6074 39.9026,85.3201 42.8271,104.4156 0.4128,2.6946 1.178,4.8992 1.7005,4.8992 0.5228,0 1.2877,-2.2046 1.7006,-4.8992 2.925,-19.0955 25.7769,-74.8082 42.8273,-104.4156 3.4065,-5.9149 6.1934,-10.9693 6.1934,-11.2322 0,-0.7161 17.4367,-27.4818 24.351,-37.3805 15.5056,-22.1963 16.8532,-23.544 39.0507,-39.0508 9.8981,-6.9146 36.6645,-24.3507 37.3805,-24.3507 0.2628,0 5.3174,-2.7872 11.2321,-6.1936 29.6075,-17.0515 85.3202,-39.9025 104.4155,-42.8272 2.6946,-0.4127 4.8992,-1.1779 4.8992,-1.7005 0,-0.5226 -2.2046,-1.2878 -4.8992,-1.7006 -19.0953,-2.9249 -74.808,-25.7768 -104.4155,-42.8271 -5.9147,-3.4065 -10.9693,-6.1934 -11.2321,-6.1934 -0.6694,0 -27.0876,-17.1796 -36.6924,-23.8598 -22.9916,-15.9934 -25.3894,-18.3913 -41.3828,-41.3829 -6.6807,-9.6044 -23.8597,-36.0225 -23.8597,-36.6923 0,-0.263 -2.7872,-5.3175 -6.1935,-11.2322 -17.0515,-29.6074 -39.9026,-85.3201 -42.8271,-104.4156 -0.4131,-2.6946 -1.1779,-4.8992 -1.7005,-4.8992 -0.5228,0 -1.288,2.2046 -1.7007,4.8992 -2.9248,19.0955 -25.7768,74.808 -42.8272,104.4156 -3.4064,5.9147 -6.1934,10.9694 -6.1934,11.2322 0,1.5702 -25.5613,39.5962 -35.6158,52.9831 -5.1324,6.8335 -10.5633,11.4167 -27.7859,23.447 -9.8981,6.9146 -36.6645,24.3509 -37.3804,24.3509 -0.2629,0 -5.3174,2.787 -11.2322,6.1934 -29.6075,17.0515 -85.3201,39.9027 -104.4155,42.8273 -2.6948,0.4128 -4.8994,1.1779 -4.8994,1.7005 0,0.5227 2.2046,1.2876 4.8994,1.7004 z"
           style="stroke-width:1.15275693" />
        <path
           style="fill:#ffffff;fill-opacity:1;stroke-width:1.15275693"
           id="path1011-2-9"
           d="m 1586.2196,2433.7867 c 5.2393,-4.0069 11.2669,-7.9259 20.4613,-13.304 7.3841,-4.3191 10.6664,-5.8827 22.4788,-10.7097 13.5356,-5.5307 43.2769,-19.7074 47.4406,-22.6125 6.4058,-4.4701 10.5459,-2.6715 34.9815,15.1968 11.401,8.3372 27.204,14.172 30.2184,11.1575 3.0146,-3.0146 -2.8202,-18.8176 -11.1576,-30.2185 -17.8688,-24.4349 -19.667,-28.5756 -15.1966,-34.9815 2.9057,-4.1641 17.0828,-33.906 22.6125,-47.4405 6.2455,-15.2844 9.7787,-21.8771 19.8908,-37.1153 9.018,-13.5899 9.6118,-13.2545 25.9508,14.6366 4.3233,7.3802 5.8837,10.6534 10.7158,22.4787 5.5307,13.5357 19.7076,43.2768 22.6125,47.4406 4.4701,6.4058 2.6714,10.5459 -15.1968,34.9816 -22.2643,30.4455 -10.2316,42.4778 20.2136,20.2136 24.435,-17.8689 28.5757,-19.6673 34.9816,-15.1969 4.1641,2.9057 33.9061,17.0827 47.4405,22.6125 15.2845,6.2454 21.8769,9.7787 37.1154,19.8908 13.5898,9.018 13.2544,9.6118 -14.6365,25.9508 -7.3802,4.3234 -10.6536,5.8837 -22.4789,10.716 -13.5356,5.5305 -43.2767,19.7074 -47.4405,22.6123 -6.4059,4.4701 -10.546,2.6715 -34.9816,-15.1968 -11.4009,-8.3371 -27.2038,-14.172 -30.2183,-11.1574 -3.0146,3.0145 2.8202,18.8177 11.1574,30.2184 17.8689,24.4349 19.6672,28.5758 15.1968,34.9815 -2.9057,4.1641 -17.0828,33.906 -22.6125,47.4407 -6.2455,15.2844 -9.7786,21.8769 -19.8909,37.1153 -8.438,12.7161 -8.3378,12.7161 -16.776,0 -10.1118,-15.2384 -13.6451,-21.8309 -19.8907,-37.1153 -5.5308,-13.5357 -19.7077,-43.2769 -22.6125,-47.4407 -4.4703,-6.4057 -2.6716,-10.5458 15.1966,-34.9815 9.1811,-12.5546 14.2101,-27.1843 10.5902,-30.804 -3.6201,-3.62 -18.2491,1.4094 -30.8039,10.5902 -24.435,17.8689 -28.5757,19.6672 -34.9816,15.1968 -4.1641,-2.9057 -33.906,-17.0826 -47.4405,-22.6125 -11.8123,-4.827 -15.0943,-6.3904 -22.4787,-10.7096 -13.9738,-8.1737 -24.7843,-15.8365 -24.7843,-17.5692 0,-0.5277 1.9453,-2.4466 4.3228,-4.2649 z" />
        <path
           id="path991-2-2"
           d="m 1667.1521,1887.3534 c 7.9343,-21.7029 49.4948,-55.0994 55.2193,-44.3718 2.2559,4.2269 -4.2594,23.7927 -10.2681,30.8361 -5.7584,6.7497 -3.3376,14.6862 7.7859,25.5244 11.5128,11.2176 38.163,19.5369 53.6491,16.7472 25.1716,-4.5346 39.2329,-12.8083 47.8889,-28.1779 3.9952,-7.0942 3.9091,-8.4997 -0.863,-14.0937 -6.0087,-7.043 -12.5236,-26.609 -10.2682,-30.8361 5.8421,-10.9466 47.616,22.9859 55.3059,44.924 9.6458,27.5198 -22.1559,59.6806 -71.6012,72.4115 -61.8361,15.9196 -142.4,-30.4212 -126.8492,-72.9625 z"
           style="stroke-width:1.15275693" />
        <path
           id="path989-7-0"
           d="m 1668.8812,2967.256 c 9.4572,-22.7425 35.2685,-40.9758 71.042,-50.1864 61.5308,-15.8412 141.8122,29.9579 126.9302,72.4117 -7.6895,21.938 -49.4637,55.8706 -55.3059,44.9241 -2.2559,-4.2272 4.2595,-23.7929 10.2681,-30.8362 5.7584,-6.7497 3.3376,-14.6863 -7.7857,-25.5245 -11.5129,-11.2175 -38.1632,-19.5369 -53.6492,-16.7472 -25.1716,4.5346 -39.2331,12.8084 -47.8892,28.1781 -3.9951,7.0939 -3.9089,8.4995 0.8633,14.0936 9.8805,11.5815 13.7709,32.8535 6.0088,32.8535 -24.8004,0 -59.4879,-47.5212 -50.4872,-69.1655 z"
           style="stroke-width:1.15275693" />
      </g>
    </g>
  </g>
</svg>
