<?xml version="1.0" encoding="UTF-8" standalone="no"?>
<svg
   height="512"
   viewBox="0 0 512 512"
   width="512"
   version="1.1"
   id="svg4"
   xmlns="http://www.w3.org/2000/svg"
   xmlns:svg="http://www.w3.org/2000/svg"
   xmlns:rdf="http://www.w3.org/1999/02/22-rdf-syntax-ns#"
   xmlns:cc="http://creativecommons.org/ns#"
   xmlns:dc="http://purl.org/dc/elements/1.1/">
  <metadata
     id="metadata10">
    <rdf:RDF>
      <cc:Work
         rdf:about="">
        <dc:format>image/svg+xml</dc:format>
        <dc:type
           rdf:resource="http://purl.org/dc/dcmitype/StillImage" />
        <dc:title />
      </cc:Work>
    </rdf:RDF>
  </metadata>
  <defs
     id="defs8" />
  <g
     id="g1311"
     transform="rotate(-45,-1889.4863,256.4682)">
    <g
       id="g1336"
       transform="matrix(0.14413113,-0.14413113,0.14413113,0.14413113,-883.03065,1773.4116)">
      <g
         id="g1058"
         transform="matrix(1.2891452,0,0,1.2891452,-6856.3106,-1640.6559)" />
      <g
         id="g891"
         transform="rotate(-90,1934.7089,1613.6796)">
        <path
           id="path940"
           d="m 7538.0276,2220.0959 -317.0336,315.7913 22.4982,1.4404 20.2697,165.0197 -161.6295,81.1684 -407.3053,394.8762 -407.9109,-394.8762 -161.6294,-81.1684 20.269,-165.0197 21.4251,-2.5537 -317.0335,-313.5463 643.1988,34.6072 -15.2388,-77.0763 216.6171,82.292 216.6167,-82.2978 -6.4477,84.2507 z"
           style="fill:#ffffff;fill-opacity:1;fill-rule:evenodd;stroke:none;stroke-width:3.80561972px;stroke-linecap:butt;stroke-linejoin:miter;stroke-opacity:1"
           transform="matrix(1.2891452,0,0,1.2891452,-6856.3105,-1640.6559)" />
        <path
           style="stroke-width:4.11534786"
           id="path13623"
           d="m 6694.5245,2261.0503 c -3.5301,0.1599 -7.0685,0.3228 -10.604,0.4827 -2.3252,25.7913 -2.8433,51.6786 -4.9791,77.4728 -1.682,31.649 -6.3295,63.0332 -8.509,94.6096 -28.0436,284.437 -38.8336,294.3077 -47.1301,367.5376 -22.0954,152.3584 26.702,194.3408 43.3095,239.501 10.8571,23.7078 15.5045,49.4525 20.2446,74.912 2.5754,-0.7886 5.1364,-1.5627 7.6648,-2.3455 2.5289,0.7828 5.0899,1.5569 7.6653,2.3455 4.74,-25.4595 9.3875,-51.2042 20.2446,-74.9119 16.6075,-45.1601 65.4048,-87.1426 43.3095,-239.5009 -8.2907,-73.23 -19.0836,-83.1036 -47.1273,-367.5406 -2.1795,-31.5763 -6.8269,-62.9606 -8.5089,-94.6096 -2.133,-25.7913 -2.6569,-51.6785 -4.9792,-77.4727 -3.5326,-0.157 -7.0681,-0.3174 -10.6007,-0.4798 z"
           transform="matrix(1.2891452,0,0,1.2891452,-6856.3105,-1640.6559)" />
        <path
           style="stroke-width:4.11534786"
           id="path13631"
           d="m 6512.1698,2664.7037 c -31.4105,-9.3178 -69.1005,-0.9254 -90.6521,24.5603 -14.3667,16.1708 -22.5089,57.9467 14.8876,82.8766 8.1538,5.4998 17.4249,0.6867 25.4362,-2.3019 -4.3853,-9.6 -13.8197,-18.848 -11.3575,-30.2726 5.5956,-16.5957 27.2633,-24.7029 42.6921,-16.6189 30.2639,13.5489 29.6618,69.0977 -14.3666,87.902 -56.1684,20.6842 -101.6951,-19.9421 -113.1256,-64.3369 -8.9862,-31.7888 0.1894,-65.3322 12.8008,-94.7755 50.0665,-109.017 155.5392,-153.9385 211.766,-291.4647 13.3246,-37.1227 27.4267,-74.4114 32.9993,-113.6467 -18.1615,-0.521 -34.7772,-7.7028 -49.5455,-17.9198 -6.4718,26.7662 -12.2308,53.8145 -22.2122,79.5796 -39.2267,110.9637 -152.0556,205.4598 -259.7455,196.2613 -82.7223,-9.6466 -143.6517,-79.5737 -109.2613,-146.4336 13.1094,-24.2024 46.0387,-39.9687 71.5944,-25.7447 23.2302,12.4228 25.2936,49.8074 2.6568,63.6735 -10.5719,7.9181 -23.539,2.1563 -35.1093,0.6897 -10.0653,14.9311 29.368,46.2572 62.9405,35.5339 56.4334,-16.8983 67.7037,-80.0306 28.8988,-131.6858 -45.7215,-54.8417 -151.5608,-48.9432 -189.2919,40.6089 -42.1712,98.9979 44.8811,260.4121 254.3884,213.6137 -61.0572,70.3403 -100.8078,171.1889 -53.9772,251.2107 48.8763,78.5814 132.0059,84.3403 178.0563,63.2225 89.1767,-37.2392 104.0409,-170.7495 9.5275,-204.5316 z"
           transform="matrix(1.2891452,0,0,1.2891452,-6856.3105,-1640.6559)" />
        <path
           style="stroke-width:4.11534786"
           id="path13639"
           d="m 6876.8789,2664.7037 c 31.4104,-9.3178 69.1008,-0.9254 90.652,24.5603 14.3667,16.1708 22.5089,57.9467 -14.8876,82.8766 -8.1538,5.4998 -17.4248,0.6867 -25.4362,-2.3019 4.3854,-9.6 13.8198,-18.848 11.358,-30.2726 -5.5961,-16.5957 -27.2609,-24.7 -42.6955,-16.616 -30.2639,13.5489 -29.6618,69.0977 14.3667,87.9021 56.1683,20.6841 101.6952,-19.9422 113.1255,-64.337 8.9863,-31.7888 -0.1893,-65.3322 -12.8008,-94.7755 -50.0665,-109.017 -155.5391,-153.9386 -211.7659,-291.4647 -13.3218,-37.1256 -27.4296,-74.4143 -32.9993,-113.6468 18.1614,-0.5208 34.7771,-7.7026 49.5454,-17.9196 6.4718,26.766 12.2337,53.8115 22.2122,79.5794 39.2267,110.9638 152.0556,205.4599 259.7455,196.2614 82.7223,-9.6465 143.6516,-79.5737 109.2617,-146.4336 -13.1098,-24.2024 -46.0363,-39.9658 -71.5918,-25.7418 -23.2303,12.4228 -25.2938,49.8074 -2.6569,63.6735 10.5719,7.9181 23.539,2.1564 35.1093,0.6897 10.0653,14.9312 -29.3708,46.2543 -62.9401,35.5339 -56.4338,-16.8983 -67.7041,-80.0305 -28.8992,-131.6857 45.7215,-54.8417 151.5608,-48.9433 189.292,40.6088 42.1716,98.9979 -44.8808,260.4122 -254.3886,213.6137 61.0573,70.3403 100.8079,171.1889 53.9773,251.2107 -48.8759,78.5814 -132.0059,84.3403 -178.0563,63.2225 -89.1767,-37.245 -104.0438,-170.7524 -9.5274,-204.5374 z"
           transform="matrix(1.2891452,0,0,1.2891452,-6856.3105,-1640.6559)" />
        <path
           style="stroke-width:4.11534786"
           id="path13647"
           d="m 6464.3761,2582.2055 c 3.8178,16.2377 9.6962,33.4474 23.7279,43.6906 18.6327,15.1232 44.8984,15.6935 66.9707,8.986 80.1411,-30.0718 93.1341,-195.2749 114.5227,-367.04 3.294,-14.3405 -10.3595,-24.4382 -17.3988,-35.1323 -7.278,29.1085 -10.7555,162.6976 -76.073,262.9234 -49.0245,74.0855 -76.2361,79.7513 -111.7495,86.5723 z"
           transform="matrix(1.2891452,0,0,1.2891452,-6856.3105,-1640.6559)" />
        <path
           style="stroke-width:4.11534786"
           id="path13655"
           d="m 6924.6725,2582.2055 c -3.8178,16.2377 -9.6962,33.4474 -23.7279,43.6906 -18.6326,15.1232 -44.8984,15.6935 -66.9707,8.986 -80.141,-30.0718 -93.134,-195.2749 -114.5227,-367.04 -3.2939,-14.3405 10.3595,-24.4382 17.3989,-35.1323 7.278,29.1085 10.7554,162.6976 76.073,262.9234 49.0245,74.0855 76.236,79.7513 111.7494,86.5723 z"
           transform="matrix(1.2891452,0,0,1.2891452,-6856.3105,-1640.6559)" />
        <path
           style="stroke-width:4.11534786"
           id="path13663"
           d="m 6294.3107,2670.4887 c -7.6563,-5.2409 -15.3853,-10.409 -23.0184,-15.7663 -14.1861,19.1681 -52.5571,68.4983 -40.4893,89.4182 11.1653,21.4554 34.8937,30.9128 56.1132,39.3751 -5.5524,-37.6902 -5.078,-76.6637 7.3945,-113.027 z"
           transform="matrix(1.2891452,0,0,1.2891452,-6856.3105,-1640.6559)" />
        <path
           style="stroke-width:4.11534786"
           id="path13671"
           d="m 7094.7384,2670.4887 c 7.6591,-5.2379 15.3848,-10.409 23.0179,-15.7663 14.1861,19.1681 52.5572,68.4983 40.4897,89.4182 -11.1657,21.4554 -34.894,30.9128 -56.1136,39.3751 5.5467,-37.6902 5.0722,-76.6637 -7.394,-113.027 z"
           transform="matrix(1.2891452,0,0,1.2891452,-6856.3105,-1640.6559)" />
        <path
           style="stroke-width:4.11534786"
           id="path13687"
           d="m 6293.2221,2657.2599 c 9.8155,-16.4036 16.8314,-34.3728 27.5226,-50.2322 7.3739,-11.5935 16.6656,-21.7406 24.7727,-32.7403 -45.4367,7.7638 -36.7968,9.3032 -94.3969,3.4134 -9.6062,32.7869 13.8893,65.0528 42.1016,79.5591 z"
           transform="matrix(1.2891452,0,0,1.2891452,-6856.3105,-1640.6559)" />
        <path
           style="stroke-width:4.11534786"
           id="path13695"
           d="m 7095.8265,2657.2599 c -9.8155,-16.4036 -16.8314,-34.3728 -27.5226,-50.2322 -7.3739,-11.5935 -16.6656,-21.7406 -24.7728,-32.7403 45.4367,7.7638 36.797,9.3032 94.397,3.4134 9.6003,32.7869 -13.8893,65.0528 -42.1016,79.5591 z"
           transform="matrix(1.2891452,0,0,1.2891452,-6856.3105,-1640.6559)" />
        <path
           style="stroke-width:4.11534786"
           id="path13703"
           d="m 6244.6458,2620.4922 c -72.9623,26.2045 -102.4668,20.7133 -119.359,81.8551 51.8994,28.4277 81.5987,-12.3005 133.6322,-56.966 -4.9351,-8.2003 -9.699,-16.4734 -14.2732,-24.8891 z"
           transform="matrix(1.2891452,0,0,1.2891452,-6856.3105,-1640.6559)" />
        <path
           style="stroke-width:4.11534786"
           id="path13711"
           d="m 7144.4028,2620.4922 c 72.9623,26.2045 102.4668,20.7133 119.3591,81.8551 -51.8995,28.4277 -81.5987,-12.3005 -133.6323,-56.966 4.9293,-8.2003 9.699,-16.4734 14.2732,-24.8891 z"
           transform="matrix(1.2891452,0,0,1.2891452,-6856.3105,-1640.6559)" />
        <path
           style="stroke-width:4.11534786"
           id="path13727"
           d="m 6149.3233,2602.2611 c 26.5039,18.4901 60.6383,9.3411 90.1075,5.0954 0.1447,-10.9503 2.6339,-22.1654 0.2139,-33.0226 -32.8801,-7.9879 -66.1153,-17.0932 -94.0889,-37.0063 -4.1033,21.08 -12.9698,46.9643 3.7655,64.9335 z"
           transform="matrix(1.2891452,0,0,1.2891452,-6856.3105,-1640.6559)" />
        <path
           style="stroke-width:4.11534786"
           id="path13735"
           d="m 7239.7254,2602.2611 c -26.5041,18.4901 -60.638,9.3411 -90.1076,5.0954 -0.1441,-10.9503 -2.6305,-22.1625 -0.214,-33.0226 32.88,-7.9879 66.1147,-17.0932 94.0884,-37.0063 4.1034,21.08 12.9699,46.9643 -3.7656,64.9335 z"
           transform="matrix(1.2891452,0,0,1.2891452,-6856.3105,-1640.6559)" />
        <path
           style="stroke-width:4.11534786"
           id="path13751"
           d="m 6474.2382,2230.3614 c -46.8014,53.4477 -178.5486,-2.6219 -232.3687,5.4533 -18.9877,2.9654 -39.4011,5.5 -54.8793,17.9925 17.6371,0.614 34.966,-4.103 52.6007,-3.911 61.7269,2.683 107.3118,47.6976 137.3748,60.4754 103.6949,47.0487 161.4871,-42.6023 132.0669,-99.446 -7.0624,-12.7545 -14.8642,-30.2232 -31.1252,-32.1671 3.1573,16.9915 8.09,36.5728 -3.6692,51.6029 z"
           transform="matrix(1.2891452,0,0,1.2891452,-6856.3105,-1640.6559)" />
        <path
           style="stroke-width:4.11534786"
           id="path13759"
           d="m 6914.8105,2230.3614 c 46.8014,53.4477 178.5484,-2.6219 232.3685,5.4533 18.9878,2.9654 39.4016,5.5 54.8798,17.9925 -17.6375,0.614 -34.9664,-4.103 -52.604,-3.914 -61.7269,2.6831 -107.3118,47.6978 -137.3748,60.4756 -103.6948,47.0486 -161.4871,-42.6023 -132.0669,-99.4461 7.0624,-12.7545 14.8643,-30.2231 31.1281,-32.17 -3.1602,17.0001 -8.0899,36.5786 3.6693,51.6087 z"
           transform="matrix(1.2891452,0,0,1.2891452,-6856.3105,-1640.6559)" />
        <path
           style="stroke-width:4.11534786"
           id="path13775"
           d="m 7384.093,2328.6958 c 61.5727,-29.9176 127.8186,17.5589 122.179,69.6477 -2.0371,20.6726 -12.7778,39.3751 -24.9386,55.7554 -4.8101,-14.7216 -6.6377,-31.4366 -17.78,-43.19 -22.2323,-24.0482 -70.7712,-21.435 -109.9481,9.2916 -44.9363,36.1362 -104.3031,112.0026 -132.6113,115.6867 14.4132,-17.3058 32.5746,-31.3872 45.1367,-50.3051 36.634,-53.6806 69.9416,-135.7132 117.9623,-156.8863 z"
           transform="matrix(1.2891452,0,0,1.2891452,-6856.3105,-1640.6559)" />
        <path
           style="stroke-width:4.11534786"
           id="path13807"
           d="m 6118.387,2315.5368 c 2.5608,-6.7802 9.8126,-14.5092 4.5511,-21.7143 -16.4499,-25.8378 -36.1768,-49.5455 -57.7021,-71.3559 -27.3334,46.2718 -25.9165,43.9118 -37.5477,96.0093 54.9173,43.4753 47.3919,49.4698 71.8506,90.201 -1.3736,-32.0506 3.6783,-64.5494 18.8481,-93.1401 z"
           transform="matrix(1.2891452,0,0,1.2891452,-6856.3105,-1640.6559)" />
        <path
           style="stroke-width:4.11534786"
           id="path13815"
           d="m 7270.6617,2315.5368 c -2.561,-6.7802 -9.8155,-14.5062 -4.5512,-21.7143 16.4532,-25.8407 36.1768,-49.5455 57.7022,-71.3559 27.3337,46.2718 25.9164,43.9118 37.5476,96.0093 -54.9173,43.4753 -47.392,49.4698 -71.8507,90.201 1.3708,-32.0477 -3.6783,-64.5494 -18.8479,-93.1401 z"
           transform="matrix(1.2891452,0,0,1.2891452,-6856.3105,-1640.6559)" />
        <path
           style="stroke-width:4.11534786"
           id="path13775-3"
           d="m 6003.8818,2327.5825 c -61.5725,-29.9174 -127.8185,17.559 -122.1788,69.6478 2.0371,20.6726 12.7778,39.3751 24.9386,55.7554 4.81,-14.7216 6.6376,-31.4366 17.78,-43.19 22.2323,-24.0483 70.7712,-21.4351 109.948,9.2916 44.9364,36.1362 104.3031,112.0026 132.6113,115.6866 -14.4131,-17.3057 -32.5745,-31.3871 -45.1367,-50.305 -36.6339,-53.6806 -69.9416,-135.7132 -117.9624,-156.8864 z"
           transform="matrix(1.2891452,0,0,1.2891452,-6856.3105,-1640.6559)" />
        <path
           style="stroke-width:4.11534786"
           id="path13807-7"
           d="m 5955.8355,2237.8051 c -3.6983,-6.2332 -5.2093,-16.7234 -14.1225,-17.1108 -30.454,-3.2785 -61.2896,-2.6672 -91.7656,0.5333 19.0853,50.2389 18.1261,47.6589 51.5646,89.2676 68.2464,-15.7625 68.2316,-6.1414 115.3201,0.1779 -25.896,-18.9348 -48.131,-43.1691 -60.9966,-72.868 z"
           transform="matrix(1.2891452,0,0,1.2891452,-6856.3105,-1640.6559)" />
        <path
           style="stroke-width:4.11534786"
           id="path13807-7-9"
           d="m 7432.1395,2236.6734 c 3.6983,-6.2332 5.2093,-16.7234 14.1225,-17.1108 30.454,-3.2785 61.2896,-2.6672 91.7656,0.5333 -19.0853,50.2389 -18.1261,47.6589 -51.5646,89.2676 -68.2464,-15.7625 -68.2316,-6.1414 -115.3201,0.1779 25.896,-18.9348 48.131,-43.1691 60.9966,-72.868 z"
           transform="matrix(1.2891452,0,0,1.2891452,-6856.3105,-1640.6559)" />
        <g
           transform="translate(-338.80695,-1026.1941)"
           id="g1141">
          <path
             style="stroke-width:4.89419079"
             id="path13719"
             d="m 2117.2311,3349.7159 c 11.1195,0.1626 23.2425,1.9933 36.4348,6.1601 17.5628,5.6098 31.6032,17.9611 45.8125,29.1808 12.9711,-16.1825 34.3097,-27.2637 40.7951,-47.675 -32.8802,-33.1087 -77.9385,-49.2562 -123.0424,-49.1836 -45.1035,-0.073 -90.1584,16.0716 -123.0419,49.1836 6.4852,20.4113 27.8239,31.4925 40.7945,47.675 14.2097,-11.2197 28.2502,-23.571 45.8131,-29.1808 13.1923,-4.1737 25.3186,-6.0008 36.4343,-6.1601 z" />
          <path
             style="stroke-width:4.11534786"
             id="path13743"
             d="m 2113.7757,3449.2714 c 20.9084,-18.9761 40.9263,-38.959 59.7248,-60.0332 -16.075,-16.2028 -37.3674,-25.5294 -59.7248,-25.637 -22.3575,0.1084 -43.6499,9.4342 -59.7244,25.637 18.7985,21.0742 38.8192,41.0541 59.7244,60.0332 z" />
          <path
             style="stroke-width:1.57145452"
             d="m 1939.3932,3360.675 c 49.9162,50.615 110.8448,88.0654 173.7074,122.2718 80.4643,-43.7842 157.7602,-92.8853 212.8486,-168.1017 26.4036,-36.0508 51.9865,-80.1752 53.962,-125.9112 1.8287,-42.3461 -22.8808,-87.3994 -69.2495,-90.6398 -20.3812,-1.5551 -36.9716,10.5341 -45.1354,28.6021 -10.0853,22.3207 4.8615,34.9548 16.2424,52.6903 26.0142,40.5398 3.4608,81.4759 -20.8781,116.3055 -37.8474,54.1607 -91.2689,97.0946 -147.79,133.6614 -56.521,-36.5668 -109.9406,-79.5029 -147.7877,-133.6636 -24.3387,-34.8294 -46.8946,-75.7634 -20.8803,-116.3033 11.3809,-17.7356 26.3277,-30.3696 16.2424,-52.6903 -8.1638,-18.0679 -24.7521,-30.1551 -45.1333,-28.6 -46.3687,3.2405 -71.0803,48.2916 -69.2516,90.6377 1.9755,45.7359 27.5605,89.8581 53.9641,125.9091 12.0506,16.4536 25.1624,31.6598 39.139,45.832 z"
             id="path1118" />
        </g>
      </g>
      <g
         id="g985"
         transform="matrix(1.9101019,0,0,1.9101019,721.92351,-2055.4079)">
        <path
           style="stroke-width:0.44943434"
           d="m 152.99788,1619.234 c 3.6854,-4.8494 13.0786,-21.4201 13.0786,-23.0515 0,-0.1662 0.3664,-0.839 0.8144,-1.4952 0.4479,-0.6561 1.0366,-1.9008 1.3082,-2.766 0.2716,-0.8651 0.9348,-2.6853 1.4739,-4.0449 0.539,-1.3595 1.3807,-3.4831 1.8704,-4.7191 0.9082,-2.2913 4.2,-12.4754 5.7384,-17.7526 2.8972,-9.9383 2.6027,-8.7496 5.3986,-21.7976 3.1443,-14.6726 3.4691,-16.3491 4.3095,-22.247 0.3698,-2.5955 0.8561,-5.3258 1.0806,-6.0673 0.2246,-0.7416 0.5432,-2.7641 0.708,-4.4944 0.1649,-1.7303 0.5649,-4.3595 0.8888,-5.8426 0.324,-1.4832 0.7199,-4.2759 0.8797,-6.2063 0.1598,-1.9301 0.4874,-4.0267 0.7278,-4.6588 0.2404,-0.6323 0.6358,-3.0979 0.8788,-5.4791 0.2429,-2.3813 0.7386,-6.3523 1.1016,-8.8241 0.7012,-4.7762 1.1976,-8.5168 2.2381,-16.8655 0.3551,-2.8492 0.8541,-6.0849 1.109,-7.191 0.2547,-1.1058 0.4682,-2.5869 0.4743,-3.2911 0.01,-0.7042 0.3017,-1.9176 0.657,-2.6965 0.3551,-0.779 1.0593,-3.4595 1.5646,-5.9569 0.8989,-4.417 4.2697,-11.4156 5.5281,-11.4156 0.2236,0 0.2764,0.2108 0.1171,0.4684 -0.1593,0.2577 0.5366,1.7862 1.5464,3.3968 1.456,2.322 2.028,3.8766 2.7632,7.5091 0.5099,2.5194 1.2177,5.218 1.5729,5.9968 0.3553,0.779 0.651,1.9924 0.657,2.6966 0.01,0.7043 0.2197,2.1852 0.4743,3.2911 0.2549,1.1059 0.7539,4.3418 1.109,7.191 1.0405,8.3487 1.5369,12.0893 2.2381,16.8654 0.363,2.4719 0.8587,6.4427 1.1016,8.8242 0.2429,2.3813 0.6384,4.8472 0.8788,5.4791 0.2404,0.6323 0.5678,2.7289 0.7277,4.6588 0.1598,1.9302 0.5557,4.7231 0.8797,6.2063 0.3239,1.4831 0.7239,4.1123 0.8887,5.8426 0.165,1.7303 0.4836,3.7528 0.7081,4.4944 0.2245,0.7415 0.7108,3.4718 1.0806,6.0673 0.8291,5.8188 1.5202,9.3977 4.2522,22.0223 0.5083,2.3483 1.3398,6.191 1.8481,8.5393 0.5082,2.3482 1.3363,5.6853 1.8402,7.4156 0.5038,1.7304 1.2992,4.4607 1.7677,6.0674 0.4683,1.6067 1.7506,5.7528 2.8495,9.2134 1.8575,5.8494 2.4453,7.4863 4.8414,13.483 0.4938,1.236 1.12,2.9551 1.3917,3.8202 0.2715,0.8652 0.8602,2.1099 1.3082,2.766 0.4479,0.6562 0.8144,1.329 0.8144,1.4952 0,1.631 9.3868,18.1998 13.0597,23.0511 2.8989,3.8293 2.9884,3.5325 -2.6948,8.9401 -8.4206,8.0121 -15.586,18.7229 -19.7949,29.5898 -0.7659,1.9775 -1.6879,4.1323 -2.0487,4.7883 -0.3608,0.6562 -0.6628,1.5663 -0.6713,2.0225 -0.01,0.4562 -0.406,1.6385 -0.8836,2.6273 -0.4776,0.9887 -0.8841,2.101 -0.9033,2.4719 -0.02,0.3707 -0.3345,1.4831 -0.7004,2.4719 -0.3661,0.9887 -0.8419,2.6067 -1.0575,3.5954 -0.2156,0.9888 -1.1218,4.7302 -2.0139,8.3145 -2.3522,9.4503 -2.8777,11.9213 -3.4269,16.1095 -0.2704,2.0626 -0.653,4.1862 -0.8503,4.7191 -0.1973,0.5329 -0.4942,2.5073 -0.6598,4.3876 -0.1656,1.8803 -0.4948,4.0936 -0.7313,4.9182 -0.2366,0.8248 -0.6452,3.6145 -0.9082,6.1994 -0.2629,2.585 -0.7518,5.9335 -1.0864,7.4414 -0.3345,1.5076 -0.7444,4.7635 -0.9108,7.2354 -0.1665,2.4719 -0.5029,5.5056 -0.7478,6.7415 -0.2451,1.236 -0.6131,4.3708 -0.8179,6.9663 -0.5008,6.3428 -1.6904,16.4394 -2.4888,21.1234 -0.3582,2.1011 -0.773,5.0336 -0.9218,6.5168 -0.749,7.4656 -4.4571,11.5855 -8.9002,9.8885 -2.3452,-0.8957 -4.5159,-5.2005 -4.986,-9.8885 -0.1488,-1.4832 -0.5636,-4.4157 -0.9217,-6.5168 -0.7984,-4.684 -1.9882,-14.7806 -2.4889,-21.1234 -0.2048,-2.5955 -0.5729,-5.7303 -0.8178,-6.9662 -0.2449,-1.236 -0.5815,-4.2697 -0.7478,-6.7416 -0.1666,-2.4719 -0.5763,-5.728 -0.9109,-7.2354 -0.3346,-1.5077 -0.8235,-4.8562 -1.0864,-7.4414 -0.263,-2.5849 -0.6716,-5.3747 -0.9082,-6.1994 -0.2365,-0.8248 -0.5656,-3.038 -0.7312,-4.9182 -0.1657,-1.8803 -0.4626,-3.8547 -0.6599,-4.3876 -0.1973,-0.5329 -0.5798,-2.6564 -0.8502,-4.7191 -0.5492,-4.1885 -1.0747,-6.6592 -3.4269,-16.1095 -0.8921,-3.5843 -1.7984,-7.3257 -2.0139,-8.3145 -0.2157,-0.9887 -0.6915,-2.6067 -1.0575,-3.5954 -0.366,-0.9888 -0.6811,-2.1012 -0.7004,-2.4719 -0.02,-0.3709 -0.4258,-1.4832 -0.9034,-2.4719 -0.4776,-0.9888 -0.8752,-2.1711 -0.8836,-2.6273 -0.01,-0.4563 -0.3105,-1.3664 -0.6712,-2.0225 -0.3608,-0.6561 -1.2827,-2.8109 -2.0487,-4.7883 -4.2091,-10.8669 -11.3747,-21.5777 -19.7949,-29.5898 -5.6831,-5.4076 -5.5936,-5.1105 -2.6948,-8.9401 z"
           id="path995-1-3" />
        <path
           style="stroke-width:0.44943434"
           d="m 155.72068,2375.3026 c 8.3501,-7.8741 15.564,-18.6462 19.7855,-29.544 0.766,-1.9776 1.6879,-4.1323 2.0487,-4.7883 0.3608,-0.6559 0.6629,-1.5662 0.6713,-2.0225 0.01,-0.4567 0.406,-1.6384 0.8836,-2.6272 0.4777,-0.9888 0.8841,-2.1011 0.9034,-2.4719 0.02,-0.3709 0.3344,-1.4831 0.7004,-2.4719 0.366,-0.9887 0.8419,-2.6068 1.0575,-3.5954 0.2156,-0.9888 1.1218,-4.7304 2.0138,-8.3146 2.3522,-9.4507 2.8778,-11.9213 3.427,-16.1096 0.2704,-2.0626 0.653,-4.1862 0.8502,-4.719 0.1974,-0.5326 0.4942,-2.5074 0.6599,-4.3876 0.1656,-1.8803 0.4947,-4.0936 0.7312,-4.9182 0.2366,-0.825 0.6452,-3.6146 0.9082,-6.1995 0.2629,-2.585 0.7519,-5.9334 1.0864,-7.4413 0.3345,-1.5075 0.7444,-4.7635 0.9108,-7.2354 0.1665,-2.4719 0.503,-5.5056 0.7479,-6.7415 0.2449,-1.236 0.613,-4.3707 0.8179,-6.9662 0.5007,-6.343 1.6903,-16.4395 2.4887,-21.1235 0.3583,-2.101 0.7731,-5.0337 0.9219,-6.5167 1.3754,-13.7092 12.5109,-13.7092 13.8861,0 0.1489,1.483 0.5636,4.4157 0.9218,6.5167 0.7984,4.684 1.9881,14.7805 2.4888,21.1234 0.2049,2.5956 0.573,5.7303 0.8179,6.9663 0.2449,1.2359 0.5815,4.2696 0.7478,6.7415 0.1665,2.4719 0.5763,5.728 0.9109,7.2354 0.3346,1.5077 0.8234,4.8562 1.0864,7.4413 0.263,2.585 0.6716,5.3748 0.9082,6.1995 0.2365,0.8251 0.5656,3.038 0.7312,4.9182 0.1656,1.8802 0.4626,3.8547 0.6599,4.3876 0.1973,0.5325 0.5798,2.6564 0.8503,4.719 0.5491,4.1886 1.0747,6.6593 3.4269,16.1096 0.8921,3.5842 1.7983,7.3258 2.0139,8.3146 0.2156,0.9886 0.6915,2.6067 1.0574,3.5954 0.366,0.9888 0.6812,2.1011 0.7004,2.4719 0.02,0.3709 0.4258,1.4831 0.9034,2.4719 0.4777,0.9888 0.8752,2.1711 0.8837,2.6272 0.01,0.4558 0.3104,1.3664 0.6711,2.0225 0.3609,0.6558 1.2828,2.8109 2.0487,4.7883 4.2091,10.8668 11.3748,21.5778 19.7949,29.5898 5.6831,5.4076 5.5937,5.1105 2.6948,8.9402 -3.6727,4.8516 -13.0596,21.42 -13.0596,23.0514 0,0.1659 -0.3665,0.8391 -0.8145,1.4952 -0.4479,0.6558 -1.0366,1.9008 -1.3082,2.766 -0.2715,0.8652 -0.9348,2.6853 -1.4738,4.0449 -0.5391,1.3596 -1.3808,3.4832 -1.8706,4.7191 -0.9081,2.2913 -4.1999,12.4754 -5.7384,17.7527 -0.4684,1.6067 -1.2638,4.337 -1.7677,6.0674 -0.5039,1.7302 -1.3319,5.0674 -1.8402,7.4156 -0.5082,2.3483 -1.3398,6.1909 -1.848,8.5392 -2.7321,12.6247 -3.4231,16.2035 -4.2522,22.0223 -0.3699,2.5955 -0.8562,5.3258 -1.0807,6.0674 -0.2245,0.7417 -0.5431,2.7641 -0.708,4.4943 -0.1649,1.7303 -0.5648,4.3596 -0.8888,5.8427 -0.3239,1.4831 -0.7198,4.2758 -0.8797,6.2057 -0.1598,1.9303 -0.4873,4.0268 -0.7276,4.6589 -0.2404,0.6325 -0.6359,3.098 -0.8789,5.4795 -0.2429,2.3813 -0.7386,6.3524 -1.1016,8.8242 -0.7012,4.7761 -1.1976,8.5168 -2.2381,16.8655 -0.3551,2.8491 -0.8541,6.0848 -1.1089,7.191 -0.2548,1.1059 -0.4683,2.5868 -0.4743,3.2911 -0.01,0.7042 -0.3017,1.9176 -0.657,2.6965 -0.3553,0.7793 -1.0596,3.4607 -1.5652,5.9596 -0.8263,4.084 -3.9455,10.9303 -4.9798,10.9303 -1.0342,-1e-4 -4.1534,-6.8467 -4.9797,-10.9303 -0.5056,-2.4987 -1.21,-5.1806 -1.5652,-5.9596 -0.3554,-0.7791 -0.651,-1.9923 -0.657,-2.6965 -0.01,-0.7042 -0.2194,-2.1852 -0.4743,-3.2912 -0.2549,-1.1059 -0.7539,-4.3418 -1.109,-7.191 -1.0405,-8.3486 -1.5369,-12.0892 -2.2381,-16.8654 -0.3629,-2.4719 -0.8586,-6.4427 -1.1016,-8.8242 -0.2429,-2.3813 -0.6384,-4.8471 -0.8788,-5.4795 -0.2404,-0.6325 -0.5678,-2.7289 -0.7277,-4.6589 -0.1598,-1.9301 -0.5556,-4.7226 -0.8797,-6.2057 -0.3239,-1.4831 -0.7238,-4.1124 -0.8888,-5.8427 -0.1649,-1.7302 -0.4835,-3.7528 -0.708,-4.4943 -0.2245,-0.7417 -0.7108,-3.4719 -1.0806,-6.0674 -0.8405,-5.8978 -1.1652,-7.5743 -4.3095,-22.247 -2.2879,-10.6767 -2.7792,-12.8053 -3.631,-15.7301 -0.5038,-1.7303 -1.2993,-4.4607 -1.7677,-6.0674 -1.5382,-5.2773 -4.8301,-15.4616 -5.7384,-17.7527 -0.4898,-1.2359 -1.3315,-3.3595 -1.8705,-4.7191 -0.5391,-1.3595 -1.2023,-3.1797 -1.4738,-4.0449 -0.2716,-0.8652 -0.8603,-2.1099 -1.3082,-2.766 -0.448,-0.6558 -0.8145,-1.3289 -0.8145,-1.4952 0,-1.631 -9.3869,-18.1998 -13.0596,-23.0514 -2.9037,-3.8357 -2.9618,-3.6425 2.7044,-8.9856 z"
           id="path993-6" />
        <path
           style="stroke-width:0.51031214"
           id="path2-6-1-7-6"
           d="m 261.33378,2094.7228 c 4.5389,4.602 8.7973,9.5396 12.7106,14.8827 8.5743,11.7072 16.882,26.036 17.5235,40.8883 0.5938,13.7514 -7.4308,28.3813 -22.4887,29.4335 -6.6185,0.505 -12.0053,-3.4201 -14.6564,-9.2875 -3.2751,-7.2484 1.5788,-11.3512 5.2745,-17.1106 8.4479,-13.1649 1.1239,-26.4582 -6.7799,-37.7689 -12.2905,-17.5879 -29.6386,-31.5304 -47.9931,-43.4051 -18.3544,11.8747 -35.7026,25.817 -47.9931,43.4051 -7.9037,11.3104 -15.2278,24.604 -6.78,37.7689 3.6957,5.7595 8.5496,9.8622 5.2745,17.1106 -2.6512,5.8673 -8.0379,9.7925 -14.6565,9.2875 -15.0577,-1.0522 -23.0825,-15.6821 -22.4887,-29.4335 0.6417,-14.8523 8.9493,-29.1811 17.5236,-40.8883 17.8894,-24.4257 42.9896,-40.3714 69.1195,-54.5899 20.4138,11.1081 40.2006,23.2705 56.4102,39.7072 z m 7.7454,85.2045 c 4.3142,-0.3013 -4.5299,0.3453 0,0 z m -36.895,-74.2058 c 0.5458,0.5533 1.0905,1.1112 1.628,1.6788 7.9177,8.3556 16.7722,18.1606 19.6569,29.6168 2.5078,9.9586 -2.5648,25.7852 -15.5818,23.4034 -5.5874,-0.9321 -11.0035,-7.6539 -12.2983,-12.896 -0.7778,-3.0916 0.7501,-6.1287 2.7626,-8.3839 2.5409,-2.847 4.752,-2.9721 8.2291,-3.5268 -0.4498,-2.0824 -0.9905,-4.1441 -1.4273,-6.2294 -2.8549,2.6628 -5.0932,5.2875 -9.1415,6.011 -4.3611,0.7793 -8.8419,-0.1104 -12.168,-3.1284 -4.6905,-4.2565 -6.8889,-10.5157 -8.9197,-16.6103 -2.0308,6.0946 -4.2292,12.3538 -8.9196,16.6103 -3.3262,3.0183 -7.8071,3.9077 -12.168,3.1284 -4.0484,-0.7234 -6.2866,-3.3482 -9.1417,-6.011 -0.4367,2.0853 -0.9773,4.147 -1.4272,6.2294 3.4771,0.5546 5.6882,0.6798 8.229,3.5268 2.0126,2.2551 3.5406,5.2924 2.7628,8.384 -1.2949,5.242 -6.711,11.9639 -12.2983,12.8959 -13.0171,2.3818 -18.0898,-13.4448 -15.5819,-23.4033 2.8849,-11.4563 11.7393,-21.2613 19.6569,-29.6169 8.6032,-9.0793 18.4556,-16.0726 28.888,-22.7989 9.7803,6.3059 19.0506,12.8459 27.26,21.1201 z m -60.223,54.699 c 2.6326,-0.4391 -3.48,0.6368 0,0 z m 65.9261,0 c 3.48,0.6369 -2.6326,-0.4391 0,0 z m -95.8143,19.6112 c -0.3741,-0.025 -4.5401,-0.3297 -1.3045,-0.1035 1.1325,0.086 1.4293,0.1109 1.3045,0.1035 z" />
        <path
           style="stroke-width:0.51031214"
           id="path2-6-3-6"
           d="m 265.00638,1912.8948 c 4.5389,-4.602 8.7974,-9.5396 12.7107,-14.8827 8.5742,-11.7072 16.8819,-26.036 17.5234,-40.8883 0.5938,-13.7514 -7.4308,-28.3812 -22.4886,-29.4335 -6.6186,-0.505 -12.0054,3.4201 -14.6565,9.2875 -3.2751,7.2484 1.5788,11.3511 5.2745,17.1106 8.4479,13.1649 1.1239,26.4583 -6.7798,37.7689 -12.2906,17.588 -29.6386,31.5304 -47.9933,43.405 -18.3543,-11.8746 -35.7024,-25.8169 -47.993,-43.405 -7.9037,-11.3104 -15.2278,-24.604 -6.78,-37.7689 3.6957,-5.7594 8.5496,-9.8622 5.2746,-17.1106 -2.6512,-5.8673 -8.0379,-9.7925 -14.6565,-9.2875 -15.0577,1.0523 -23.0826,15.6822 -22.4888,29.4335 0.6417,14.8523 8.9494,29.1811 17.5237,40.8883 17.8893,24.4257 42.9896,40.3714 69.1194,54.5898 20.4139,-11.108 40.2007,-23.2704 56.4102,-39.7071 z m 7.7455,-85.2045 c 4.3142,0.3014 -4.5299,-0.3455 0,0 z m -36.895,74.2058 c 0.5457,-0.5533 1.0904,-1.1112 1.628,-1.6787 7.9176,-8.3558 16.7721,-18.1606 19.6569,-29.6169 2.5078,-9.9586 -2.5649,-25.7851 -15.5819,-23.4035 -5.5874,0.9323 -11.0034,7.654 -12.2983,12.8961 -0.7778,3.0915 0.7502,6.1288 2.7627,8.3839 2.5408,2.8469 4.7519,2.9722 8.229,3.5267 -0.4498,2.0824 -0.9905,4.1442 -1.4272,6.2295 -2.855,-2.6628 -5.0933,-5.2875 -9.1416,-6.011 -4.361,-0.7793 -8.8418,0.11 -12.168,3.1284 -4.6905,4.2565 -6.8889,10.5157 -8.9197,16.6103 -2.0308,-6.0946 -4.2292,-12.3538 -8.9196,-16.6103 -3.3261,-3.0183 -7.807,-3.9077 -12.1679,-3.1284 -4.0485,0.7235 -6.2866,3.3482 -9.1417,6.011 -0.4368,-2.0853 -0.9774,-4.1471 -1.4273,-6.2295 3.4771,-0.5545 5.6882,-0.6798 8.2291,-3.5267 2.0125,-2.2551 3.5406,-5.2924 2.7627,-8.384 -1.2948,-5.242 -6.7109,-11.9639 -12.2983,-12.896 -13.017,-2.3818 -18.0897,13.4449 -15.5819,23.4035 2.8849,11.4562 11.7394,21.2611 19.6569,29.6168 8.6032,9.0793 18.4556,16.0726 28.888,22.7988 9.7804,-6.3058 19.0507,-12.8459 27.2601,-21.12 z m -60.2231,-54.699 c 2.6326,0.4392 -3.4799,-0.6368 0,0 z m 65.9261,-1e-4 c 3.48,-0.6367 -2.6326,0.4392 0,0 z m -95.8142,-19.611 c -0.3741,0.023 -4.5402,0.3295 -1.3046,0.1036 1.1326,-0.086 1.4293,-0.1109 1.3046,-0.1036 z" />
        <path
           d="m 25.00818,1998.7574 c 1.5417,-0.54 18.1149,-3.3504 21.4872,-3.6438 7.3177,-0.6367 20.3557,-2.435 22.9332,-3.1633 1.4556,-0.4111 3.0865,-0.7475 3.6243,-0.7475 0.9551,0 5.6376,-1.0713 14.0154,-3.2065 2.2888,-0.5833 5.1625,-1.5049 6.3862,-2.0481 1.2235,-0.5431 2.5064,-0.9875 2.8508,-0.9875 0.6325,0 1.84,-0.4435 10.7898,-3.9645 5.8545,-2.3034 17.3966,-7.955 21.0668,-10.3155 1.4305,-0.92 4.3565,-2.7783 6.5022,-4.1296 17.0095,-10.7113 24.4562,-18.1586 35.1675,-35.1676 1.3513,-2.1456 3.2096,-5.0716 4.1297,-6.5021 2.3604,-3.6701 8.0121,-15.2123 10.3154,-21.0668 3.5209,-8.9495 3.9646,-10.1568 3.9646,-10.7899 0,-0.3443 0.4443,-1.6272 0.9875,-2.8508 0.5432,-1.2236 1.4648,-4.0972 2.0481,-6.3861 2.1352,-8.3784 3.2064,-13.0604 3.2064,-14.0154 0,-0.5377 0.3374,-2.1687 0.75,-3.6244 0.6856,-2.42 2.0341,-12.1838 3.4182,-24.7538 0.2992,-2.7178 1.181,-8.3356 1.9594,-12.484 l 1.4152,-7.5424 h 2.3404 2.3404 l 1.4152,7.5424 c 0.7783,4.1483 1.6601,9.7662 1.9594,12.484 1.3841,12.57 2.7324,22.3341 3.4182,24.7538 0.4125,1.4557 0.75,3.0867 0.75,3.6244 0,0.9551 1.0712,5.6376 3.2064,14.0154 0.5834,2.2887 1.505,5.1625 2.0481,6.3861 0.5432,1.2236 0.9876,2.5064 0.9876,2.8508 0,0.6328 0.4436,1.8401 3.9645,10.7899 2.3032,5.8545 7.9549,17.3965 10.3155,21.0668 0.92,1.4306 2.7783,4.3565 4.1295,6.5021 10.7919,17.137 18.5509,24.8964 35.6878,35.6878 2.1457,1.3512 5.0716,3.2095 6.5021,4.1296 3.67,2.3604 15.2123,8.0121 21.0668,10.3154 8.9495,3.5209 10.1568,3.9645 10.7899,3.9645 0.3444,0 1.6272,0.4445 2.8508,0.9876 1.2236,0.5432 4.0973,1.4647 6.3862,2.0481 8.3783,2.1352 13.0603,3.2064 14.0153,3.2064 0.5377,0 2.1687,0.3375 3.6244,0.75 2.42,0.6857 12.1839,2.034 24.7538,3.4183 2.7178,0.2992 8.3357,1.181 12.484,1.9594 l 7.5425,1.4151 v 2.3404 l -10e-5,2.3404 -7.5424,1.4152 c -4.1483,0.7784 -9.7662,1.6601 -12.484,1.9594 -12.5699,1.3842 -22.3341,2.7325 -24.7538,3.4183 -1.4556,0.4126 -3.0867,0.7499 -3.6244,0.7499 -0.955,0 -5.6376,1.0712 -14.0153,3.2065 -2.2888,0.5833 -5.1625,1.5049 -6.3862,2.048 -1.2236,0.5432 -2.5064,0.9875 -2.8508,0.9875 -0.6327,0 -1.8401,0.4435 -10.7899,3.9646 -5.8545,2.3033 -17.3965,7.955 -21.0668,10.3155 -1.4305,0.92 -4.3564,2.7782 -6.5021,4.1296 -17.0095,10.7113 -24.4563,18.1586 -35.1676,35.1675 -1.3513,2.1457 -3.2096,5.0717 -4.1296,6.5022 -2.3604,3.67 -8.0121,15.2123 -10.3154,21.0667 -3.5209,8.9495 -3.9646,10.1569 -3.9646,10.79 0,0.3444 -0.4444,1.6272 -0.9876,2.8508 -0.5431,1.2235 -1.4647,4.0972 -2.048,6.3861 -2.1351,8.3783 -3.2064,13.0604 -3.2064,14.0154 0,0.5377 -0.3376,2.1687 -0.75,3.6244 -0.6858,2.42 -2.0341,12.1838 -3.4183,24.7537 -0.2992,2.7179 -1.181,8.3357 -1.9594,12.4841 l -1.4151,7.5424 h -2.3405 -2.3403 l -1.4152,-7.5424 c -0.7784,-4.1484 -1.6602,-9.7662 -1.9595,-12.4841 -1.3841,-12.5699 -2.7324,-22.334 -3.4182,-24.7537 -0.4124,-1.4557 -0.7499,-3.0866 -0.7499,-3.6244 0,-0.9551 -1.0713,-5.6376 -3.2066,-14.0154 -0.5833,-2.2888 -1.5049,-5.1625 -2.0479,-6.3861 -0.5432,-1.2236 -0.9876,-2.5065 -0.9876,-2.8508 0,-0.6327 -0.4437,-1.8401 -3.9645,-10.79 -2.3034,-5.8544 -7.9551,-17.3965 -10.3156,-21.0667 -0.92,-1.4305 -2.7782,-4.3565 -4.1296,-6.5022 -10.7919,-17.1369 -18.5507,-24.8963 -35.6876,-35.6877 -2.1457,-1.3513 -5.0717,-3.2096 -6.5022,-4.1296 -3.6701,-2.3605 -15.2124,-8.0121 -21.0668,-10.3155 -8.9495,-3.5209 -10.1568,-3.9645 -10.7899,-3.9645 -0.3441,0 -1.6273,-0.4445 -2.8508,-0.9875 -1.2236,-0.5432 -4.0972,-1.4648 -6.3861,-2.0481 -8.3783,-2.1352 -13.0604,-3.2064 -14.0155,-3.2064 -0.5375,0 -2.1687,-0.3376 -3.6242,-0.75 -2.4201,-0.6857 -12.1839,-2.034 -24.7538,-3.4182 -2.718,-0.2993 -8.3358,-1.1809 -12.4841,-1.9593 l -7.5424,-1.4151 -0.16,-2.2154 c -0.1067,-1.4755 0.067,-2.2951 0.52,-2.4538 z"
           id="path1015-5-1"
           style="stroke-width:0.52016878" />
        <path
           style="stroke-width:0.4494344"
           d="m 99.91278,2001.9328 c 7.4449,1.1403 29.166,10.0498 40.7093,16.6973 2.3061,1.3281 4.2768,2.4147 4.3792,2.4147 0.261,0 10.5608,6.6979 14.3055,9.3025 8.964,6.2354 9.8988,7.1702 16.1343,16.1342 2.6047,3.7445 9.3023,14.0444 9.3023,14.3054 0,0.1026 1.0867,2.0732 2.4147,4.3792 6.648,11.5433 15.5572,33.2645 16.6974,40.7094 0.1609,1.0505 0.4592,1.9101 0.663,1.9101 0.2038,0 0.502,-0.8596 0.663,-1.9101 1.1404,-7.4449 10.0498,-29.1661 16.6974,-40.7094 1.3281,-2.306 2.4147,-4.2767 2.4147,-4.3792 0,-0.2791 6.7982,-10.7145 9.4939,-14.5738 6.0453,-8.6538 6.5707,-9.1792 15.225,-15.225 3.8591,-2.6958 14.2947,-9.4938 14.5739,-9.4938 0.1024,0 2.0731,-1.0866 4.3791,-2.4147 11.5433,-6.6481 33.2645,-15.5572 40.7093,-16.6974 1.0506,-0.1609 1.9101,-0.4592 1.9101,-0.663 0,-0.2036 -0.8595,-0.5021 -1.9101,-0.6631 -7.4448,-1.1403 -29.166,-10.0497 -40.7093,-16.6973 -2.306,-1.3281 -4.2767,-2.4147 -4.3791,-2.4147 -0.2611,0 -10.5609,-6.6979 -14.3056,-9.3024 -8.9639,-6.2354 -9.8988,-7.1703 -16.1342,-16.1342 -2.6047,-3.7446 -9.3024,-14.0444 -9.3024,-14.3055 0,-0.1026 -1.0867,-2.0732 -2.4147,-4.3792 -6.648,-11.5433 -15.5572,-33.2644 -16.6974,-40.7093 -0.161,-1.0506 -0.4592,-1.9101 -0.663,-1.9101 -0.2038,0 -0.5021,0.8595 -0.663,1.9101 -1.1403,7.4449 -10.0498,29.1659 -16.6974,40.7093 -1.3281,2.306 -2.4147,4.2767 -2.4147,4.3792 0,0.6121 -9.9658,15.4376 -13.8858,20.6568 -2.001,2.6643 -4.1184,4.4512 -10.8331,9.1415 -3.859,2.6959 -14.2947,9.4939 -14.5738,9.4939 -0.1025,0 -2.0731,1.0866 -4.3792,2.4147 -11.5433,6.648 -33.2644,15.5572 -40.7093,16.6974 -1.0506,0.1609 -1.9101,0.4592 -1.9101,0.663 0,0.2036 0.8595,0.502 1.9101,0.6629 z"
           id="path1013-6-7" />
        <path
           d="m 133.84508,1999.607 c 2.0427,-1.5622 4.3927,-3.0902 7.9774,-5.1869 2.8789,-1.684 4.1586,-2.2936 8.764,-4.1755 5.2773,-2.1563 16.8728,-7.6835 18.4961,-8.8161 2.4974,-1.7429 4.1116,-1.0416 13.6384,5.9249 4.4451,3.2505 10.6063,5.5253 11.7816,4.35 1.1753,-1.1753 -1.0996,-7.3365 -4.3501,-11.7815 -6.9667,-9.5267 -7.6678,-11.141 -5.9249,-13.6385 1.1329,-1.6235 6.6602,-13.2192 8.8161,-18.496 2.435,-5.9591 3.8125,-8.5294 7.7551,-14.4704 3.5158,-5.2985 3.7474,-5.1677 10.1176,5.7065 1.6855,2.8773 2.2939,4.1534 4.1778,8.7639 2.1563,5.2772 7.6836,16.8726 8.8161,18.496 1.7429,2.4975 1.0416,4.1116 -5.9248,13.6386 -8.6804,11.87 -3.9891,16.5611 7.8808,7.8808 9.5267,-6.9667 11.141,-7.6678 13.6385,-5.925 1.6235,1.1329 13.2193,6.6603 18.4961,8.8161 5.959,2.435 8.5293,3.8125 14.4704,7.7551 5.2984,3.5158 5.1676,3.7474 -5.7064,10.1176 -2.8774,1.6856 -4.1536,2.2939 -8.764,4.1779 -5.2773,2.1563 -16.8727,7.6835 -18.4961,8.8161 -2.4975,1.7428 -4.1116,1.0415 -13.6385,-5.9249 -4.445,-3.2505 -10.6062,-5.5254 -11.7815,-4.35 -1.1753,1.1753 1.0996,7.3365 4.35,11.7814 6.9668,9.5267 7.6679,11.1411 5.925,13.6386 -1.1329,1.6235 -6.6602,13.2192 -8.8161,18.496 -2.435,5.9591 -3.8126,8.5293 -7.7551,14.4704 -3.2898,4.9578 -3.2507,4.9578 -6.5406,0 -3.9423,-5.9411 -5.3199,-8.5113 -7.7549,-14.4704 -2.1564,-5.2772 -7.6836,-16.8726 -8.8162,-18.496 -1.7428,-2.4975 -1.0415,-4.1116 5.9249,-13.6386 3.5795,-4.8947 5.5402,-10.5985 4.1289,-12.0097 -1.4114,-1.4114 -7.115,0.5494 -12.0098,4.1289 -9.5267,6.9666 -11.141,7.6677 -13.6385,5.9248 -1.6235,-1.1329 -13.2192,-6.6601 -18.4961,-8.8161 -4.6053,-1.8819 -5.8849,-2.4915 -8.7639,-4.1754 -5.4481,-3.1868 -9.6629,-6.1743 -9.6629,-6.8498 0,-0.2056 0.7585,-0.954 1.6854,-1.6629 z"
           id="path1011-2-9"
           style="fill:#ffffff;fill-opacity:1;stroke-width:0.4494344" />
        <path
           style="stroke-width:0.4494344"
           d="m 165.39888,1786.5648 c 3.0934,-8.4616 19.2969,-21.4821 21.5288,-17.2996 0.8795,1.648 -1.6607,9.2762 -4.0033,12.0223 -2.2451,2.6316 -1.3012,5.7258 3.0355,9.9514 4.4886,4.3735 14.8789,7.617 20.9167,6.5293 9.8138,-1.7679 15.296,-4.9936 18.6708,-10.9859 1.5576,-2.7658 1.524,-3.3138 -0.3365,-5.4948 -2.3427,-2.7459 -4.8827,-10.3743 -4.0034,-12.0223 2.2777,-4.2678 18.5644,8.9617 21.5626,17.5149 3.7607,10.7293 -8.6381,23.2681 -27.9157,28.2316 -24.1086,6.2067 -55.5187,-11.8606 -49.4558,-28.4465 z"
           id="path991-2-2" />
        <path
           style="stroke-width:0.4494344"
           d="m 166.07298,2207.5949 c 3.6872,-8.8668 13.7505,-15.9756 27.6978,-19.5666 23.9895,-6.1761 55.2894,11.6799 49.4872,28.2317 -2.9979,8.5531 -19.2848,21.7827 -21.5625,17.5149 -0.8795,-1.648 1.6607,-9.2763 4.0033,-12.0223 2.2451,-2.6316 1.3013,-5.7259 -3.0355,-9.9515 -4.4886,-4.3734 -14.879,-7.617 -20.9166,-6.5293 -9.8139,1.7679 -15.2961,4.9937 -18.6709,10.986 -1.5576,2.7658 -1.5241,3.3137 0.3365,5.4948 3.8522,4.5154 5.369,12.8088 2.3427,12.8088 -9.6691,0 -23.193,-18.5275 -19.6838,-26.966 z"
           id="path989-7-0" />
      </g>
    </g>
  </g>
</svg>
