<?xml version='1.0' encoding='utf-8'?>
<svg xmlns="http://www.w3.org/2000/svg" xmlns:svg="http://www.w3.org/2000/svg" xmlns:rdf="http://www.w3.org/1999/02/22-rdf-syntax-ns#" xmlns:cc="http://creativecommons.org/ns#" xmlns:dc="http://purl.org/dc/elements/1.1/" height="512" viewBox="0 0 512 512" width="512" version="1.1" id="svg4">
  <defs id="defs8"/>
  <g id="g1311" transform="rotate(-45,-1889.4863,256.4682)">
    <g id="g1336" transform="matrix(0.14413113,-0.14413113,0.14413113,0.14413113,-883.03065,1773.4116)">
      <g id="g1058" transform="matrix(1.2891452,0,0,1.2891452,-6856.3106,-1640.6559)">
        <path d="m 7538.0276,2220.0959 -317.0336,315.7913 22.4982,1.4404 20.2697,165.0197 -161.6295,81.1684 -407.3053,394.8762 -407.9109,-394.8762 -161.6294,-81.1684 20.269,-165.0197 21.4251,-2.5537 -317.0335,-313.5463 643.1988,34.6072 -15.2388,-77.0763 216.6171,82.292 216.6167,-82.2978 -6.4477,84.2507 z" id="path940" fill="#ffffff" fill-opacity="1" fill-rule="evenodd" stroke="none" stroke-width="3.80561972px" stroke-linecap="butt" stroke-linejoin="miter" stroke-opacity="1"/>
        <path d="m 6694.5245,2261.0503 c -3.5301,0.1599 -7.0685,0.3228 -10.604,0.4827 -2.3252,25.7913 -2.8433,51.6786 -4.9791,77.4728 -1.682,31.649 -6.3295,63.0332 -8.509,94.6096 -28.0436,284.437 -38.8336,294.3077 -47.1301,367.5376 -22.0954,152.3584 26.702,194.3408 43.3095,239.501 10.8571,23.7078 15.5045,49.4525 20.2446,74.912 2.5754,-0.7886 5.1364,-1.5627 7.6648,-2.3455 2.5289,0.7828 5.0899,1.5569 7.6653,2.3455 4.74,-25.4595 9.3875,-51.2042 20.2446,-74.9119 16.6075,-45.1601 65.4048,-87.1426 43.3095,-239.5009 -8.2907,-73.23 -19.0836,-83.1036 -47.1273,-367.5406 -2.1795,-31.5763 -6.8269,-62.9606 -8.5089,-94.6096 -2.133,-25.7913 -2.6569,-51.6785 -4.9792,-77.4727 -3.5326,-0.157 -7.0681,-0.3174 -10.6007,-0.4798 z" id="path13623" stroke-width="4.11534786"/>
        <path d="m 6512.1698,2664.7037 c -31.4105,-9.3178 -69.1005,-0.9254 -90.6521,24.5603 -14.3667,16.1708 -22.5089,57.9467 14.8876,82.8766 8.1538,5.4998 17.4249,0.6867 25.4362,-2.3019 -4.3853,-9.6 -13.8197,-18.848 -11.3575,-30.2726 5.5956,-16.5957 27.2633,-24.7029 42.6921,-16.6189 30.2639,13.5489 29.6618,69.0977 -14.3666,87.902 -56.1684,20.6842 -101.6951,-19.9421 -113.1256,-64.3369 -8.9862,-31.7888 0.1894,-65.3322 12.8008,-94.7755 50.0665,-109.017 155.5392,-153.9385 211.766,-291.4647 13.3246,-37.1227 27.4267,-74.4114 32.9993,-113.6467 -18.1615,-0.521 -34.7772,-7.7028 -49.5455,-17.9198 -6.4718,26.7662 -12.2308,53.8145 -22.2122,79.5796 -39.2267,110.9637 -152.0556,205.4598 -259.7455,196.2613 -82.7223,-9.6466 -143.6517,-79.5737 -109.2613,-146.4336 13.1094,-24.2024 46.0387,-39.9687 71.5944,-25.7447 23.2302,12.4228 25.2936,49.8074 2.6568,63.6735 -10.5719,7.9181 -23.539,2.1563 -35.1093,0.6897 -10.0653,14.9311 29.368,46.2572 62.9405,35.5339 56.4334,-16.8983 67.7037,-80.0306 28.8988,-131.6858 -45.7215,-54.8417 -151.5608,-48.9432 -189.2919,40.6089 -42.1712,98.9979 44.8811,260.4121 254.3884,213.6137 -61.0572,70.3403 -100.8078,171.1889 -53.9772,251.2107 48.8763,78.5814 132.0059,84.3403 178.0563,63.2225 89.1767,-37.2392 104.0409,-170.7495 9.5275,-204.5316 z" id="path13631" stroke-width="4.11534786"/>
        <path d="m 6876.8789,2664.7037 c 31.4104,-9.3178 69.1008,-0.9254 90.652,24.5603 14.3667,16.1708 22.5089,57.9467 -14.8876,82.8766 -8.1538,5.4998 -17.4248,0.6867 -25.4362,-2.3019 4.3854,-9.6 13.8198,-18.848 11.358,-30.2726 -5.5961,-16.5957 -27.2609,-24.7 -42.6955,-16.616 -30.2639,13.5489 -29.6618,69.0977 14.3667,87.9021 56.1683,20.6841 101.6952,-19.9422 113.1255,-64.337 8.9863,-31.7888 -0.1893,-65.3322 -12.8008,-94.7755 -50.0665,-109.017 -155.5391,-153.9386 -211.7659,-291.4647 -13.3218,-37.1256 -27.4296,-74.4143 -32.9993,-113.6468 18.1614,-0.5208 34.7771,-7.7026 49.5454,-17.9196 6.4718,26.766 12.2337,53.8115 22.2122,79.5794 39.2267,110.9638 152.0556,205.4599 259.7455,196.2614 82.7223,-9.6465 143.6516,-79.5737 109.2617,-146.4336 -13.1098,-24.2024 -46.0363,-39.9658 -71.5918,-25.7418 -23.2303,12.4228 -25.2938,49.8074 -2.6569,63.6735 10.5719,7.9181 23.539,2.1564 35.1093,0.6897 10.0653,14.9312 -29.3708,46.2543 -62.9401,35.5339 -56.4338,-16.8983 -67.7041,-80.0305 -28.8992,-131.6857 45.7215,-54.8417 151.5608,-48.9433 189.292,40.6088 42.1716,98.9979 -44.8808,260.4122 -254.3886,213.6137 61.0573,70.3403 100.8079,171.1889 53.9773,251.2107 -48.8759,78.5814 -132.0059,84.3403 -178.0563,63.2225 -89.1767,-37.245 -104.0438,-170.7524 -9.5274,-204.5374 z" id="path13639" stroke-width="4.11534786"/>
        <path d="m 6464.3761,2582.2055 c 3.8178,16.2377 9.6962,33.4474 23.7279,43.6906 18.6327,15.1232 44.8984,15.6935 66.9707,8.986 80.1411,-30.0718 93.1341,-195.2749 114.5227,-367.04 3.294,-14.3405 -10.3595,-24.4382 -17.3988,-35.1323 -7.278,29.1085 -10.7555,162.6976 -76.073,262.9234 -49.0245,74.0855 -76.2361,79.7513 -111.7495,86.5723 z" id="path13647" stroke-width="4.11534786"/>
        <path d="m 6924.6725,2582.2055 c -3.8178,16.2377 -9.6962,33.4474 -23.7279,43.6906 -18.6326,15.1232 -44.8984,15.6935 -66.9707,8.986 -80.141,-30.0718 -93.134,-195.2749 -114.5227,-367.04 -3.2939,-14.3405 10.3595,-24.4382 17.3989,-35.1323 7.278,29.1085 10.7554,162.6976 76.073,262.9234 49.0245,74.0855 76.236,79.7513 111.7494,86.5723 z" id="path13655" stroke-width="4.11534786"/>
        <path d="m 6294.3107,2670.4887 c -7.6563,-5.2409 -15.3853,-10.409 -23.0184,-15.7663 -14.1861,19.1681 -52.5571,68.4983 -40.4893,89.4182 11.1653,21.4554 34.8937,30.9128 56.1132,39.3751 -5.5524,-37.6902 -5.078,-76.6637 7.3945,-113.027 z" id="path13663" stroke-width="4.11534786"/>
        <path d="m 7094.7384,2670.4887 c 7.6591,-5.2379 15.3848,-10.409 23.0179,-15.7663 14.1861,19.1681 52.5572,68.4983 40.4897,89.4182 -11.1657,21.4554 -34.894,30.9128 -56.1136,39.3751 5.5467,-37.6902 5.0722,-76.6637 -7.394,-113.027 z" id="path13671" stroke-width="4.11534786"/>
        <path d="m 6293.2221,2657.2599 c 9.8155,-16.4036 16.8314,-34.3728 27.5226,-50.2322 7.3739,-11.5935 16.6656,-21.7406 24.7727,-32.7403 -45.4367,7.7638 -36.7968,9.3032 -94.3969,3.4134 -9.6062,32.7869 13.8893,65.0528 42.1016,79.5591 z" id="path13687" stroke-width="4.11534786"/>
        <path d="m 7095.8265,2657.2599 c -9.8155,-16.4036 -16.8314,-34.3728 -27.5226,-50.2322 -7.3739,-11.5935 -16.6656,-21.7406 -24.7728,-32.7403 45.4367,7.7638 36.797,9.3032 94.397,3.4134 9.6003,32.7869 -13.8893,65.0528 -42.1016,79.5591 z" id="path13695" stroke-width="4.11534786"/>
        <path d="m 6244.6458,2620.4922 c -72.9623,26.2045 -102.4668,20.7133 -119.359,81.8551 51.8994,28.4277 81.5987,-12.3005 133.6322,-56.966 -4.9351,-8.2003 -9.699,-16.4734 -14.2732,-24.8891 z" id="path13703" stroke-width="4.11534786"/>
        <path d="m 7144.4028,2620.4922 c 72.9623,26.2045 102.4668,20.7133 119.3591,81.8551 -51.8995,28.4277 -81.5987,-12.3005 -133.6323,-56.966 4.9293,-8.2003 9.699,-16.4734 14.2732,-24.8891 z" id="path13711" stroke-width="4.11534786"/>
        <path d="m 6149.3233,2602.2611 c 26.5039,18.4901 60.6383,9.3411 90.1075,5.0954 0.1447,-10.9503 2.6339,-22.1654 0.2139,-33.0226 -32.8801,-7.9879 -66.1153,-17.0932 -94.0889,-37.0063 -4.1033,21.08 -12.9698,46.9643 3.7655,64.9335 z" id="path13727" stroke-width="4.11534786"/>
        <path d="m 7239.7254,2602.2611 c -26.5041,18.4901 -60.638,9.3411 -90.1076,5.0954 -0.1441,-10.9503 -2.6305,-22.1625 -0.214,-33.0226 32.88,-7.9879 66.1147,-17.0932 94.0884,-37.0063 4.1034,21.08 12.9699,46.9643 -3.7656,64.9335 z" id="path13735" stroke-width="4.11534786"/>
        <path d="m 6474.2382,2230.3614 c -46.8014,53.4477 -178.5486,-2.6219 -232.3687,5.4533 -18.9877,2.9654 -39.4011,5.5 -54.8793,17.9925 17.6371,0.614 34.966,-4.103 52.6007,-3.911 61.7269,2.683 107.3118,47.6976 137.3748,60.4754 103.6949,47.0487 161.4871,-42.6023 132.0669,-99.446 -7.0624,-12.7545 -14.8642,-30.2232 -31.1252,-32.1671 3.1573,16.9915 8.09,36.5728 -3.6692,51.6029 z" id="path13751" stroke-width="4.11534786"/>
        <path d="m 6914.8105,2230.3614 c 46.8014,53.4477 178.5484,-2.6219 232.3685,5.4533 18.9878,2.9654 39.4016,5.5 54.8798,17.9925 -17.6375,0.614 -34.9664,-4.103 -52.604,-3.914 -61.7269,2.6831 -107.3118,47.6978 -137.3748,60.4756 -103.6948,47.0486 -161.4871,-42.6023 -132.0669,-99.4461 7.0624,-12.7545 14.8643,-30.2231 31.1281,-32.17 -3.1602,17.0001 -8.0899,36.5786 3.6693,51.6087 z" id="path13759" stroke-width="4.11534786"/>
        <path d="m 7384.093,2328.6958 c 61.5727,-29.9176 127.8186,17.5589 122.179,69.6477 -2.0371,20.6726 -12.7778,39.3751 -24.9386,55.7554 -4.8101,-14.7216 -6.6377,-31.4366 -17.78,-43.19 -22.2323,-24.0482 -70.7712,-21.435 -109.9481,9.2916 -44.9363,36.1362 -104.3031,112.0026 -132.6113,115.6867 14.4132,-17.3058 32.5746,-31.3872 45.1367,-50.3051 36.634,-53.6806 69.9416,-135.7132 117.9623,-156.8863 z" id="path13775" stroke-width="4.11534786"/>
        <path d="m 6118.387,2315.5368 c 2.5608,-6.7802 9.8126,-14.5092 4.5511,-21.7143 -16.4499,-25.8378 -36.1768,-49.5455 -57.7021,-71.3559 -27.3334,46.2718 -25.9165,43.9118 -37.5477,96.0093 54.9173,43.4753 47.3919,49.4698 71.8506,90.201 -1.3736,-32.0506 3.6783,-64.5494 18.8481,-93.1401 z" id="path13807" stroke-width="4.11534786"/>
        <path d="m 7270.6617,2315.5368 c -2.561,-6.7802 -9.8155,-14.5062 -4.5512,-21.7143 16.4532,-25.8407 36.1768,-49.5455 57.7022,-71.3559 27.3337,46.2718 25.9164,43.9118 37.5476,96.0093 -54.9173,43.4753 -47.392,49.4698 -71.8507,90.201 1.3708,-32.0477 -3.6783,-64.5494 -18.8479,-93.1401 z" id="path13815" stroke-width="4.11534786"/>
        <path d="m 6003.8818,2327.5825 c -61.5725,-29.9174 -127.8185,17.559 -122.1788,69.6478 2.0371,20.6726 12.7778,39.3751 24.9386,55.7554 4.81,-14.7216 6.6376,-31.4366 17.78,-43.19 22.2323,-24.0483 70.7712,-21.4351 109.948,9.2916 44.9364,36.1362 104.3031,112.0026 132.6113,115.6866 -14.4131,-17.3057 -32.5745,-31.3871 -45.1367,-50.305 -36.6339,-53.6806 -69.9416,-135.7132 -117.9624,-156.8864 z" id="path13775-3" stroke-width="4.11534786"/>
        <path d="m 5955.8355,2237.8051 c -3.6983,-6.2332 -5.2093,-16.7234 -14.1225,-17.1108 -30.454,-3.2785 -61.2896,-2.6672 -91.7656,0.5333 19.0853,50.2389 18.1261,47.6589 51.5646,89.2676 68.2464,-15.7625 68.2316,-6.1414 115.3201,0.1779 -25.896,-18.9348 -48.131,-43.1691 -60.9966,-72.868 z" id="path13807-7" stroke-width="4.11534786"/>
        <path d="m 7432.1395,2236.6734 c 3.6983,-6.2332 5.2093,-16.7234 14.1225,-17.1108 30.454,-3.2785 61.2896,-2.6672 91.7656,0.5333 -19.0853,50.2389 -18.1261,47.6589 -51.5646,89.2676 -68.2464,-15.7625 -68.2316,-6.1414 -115.3201,0.1779 25.896,-18.9348 48.131,-43.1691 60.9966,-72.868 z" id="path13807-7-9" stroke-width="4.11534786"/>
      </g>
      <g id="g1141" transform="translate(-338.80695,-1026.1941)">
        <path d="m 2117.2311,3349.7159 c 11.1195,0.1626 23.2425,1.9933 36.4348,6.1601 17.5628,5.6098 31.6032,17.9611 45.8125,29.1808 12.9711,-16.1825 34.3097,-27.2637 40.7951,-47.675 -32.8802,-33.1087 -77.9385,-49.2562 -123.0424,-49.1836 -45.1035,-0.073 -90.1584,16.0716 -123.0419,49.1836 6.4852,20.4113 27.8239,31.4925 40.7945,47.675 14.2097,-11.2197 28.2502,-23.571 45.8131,-29.1808 13.1923,-4.1737 25.3186,-6.0008 36.4343,-6.1601 z" id="path13719" stroke-width="4.89419079"/>
        <path d="m 2113.7757,3449.2714 c 20.9084,-18.9761 40.9263,-38.959 59.7248,-60.0332 -16.075,-16.2028 -37.3674,-25.5294 -59.7248,-25.637 -22.3575,0.1084 -43.6499,9.4342 -59.7244,25.637 18.7985,21.0742 38.8192,41.0541 59.7244,60.0332 z" id="path13743" stroke-width="4.11534786"/>
        <path id="path1118" d="m 1939.3932,3360.675 c 49.9162,50.615 110.8448,88.0654 173.7074,122.2718 80.4643,-43.7842 157.7602,-92.8853 212.8486,-168.1017 26.4036,-36.0508 51.9865,-80.1752 53.962,-125.9112 1.8287,-42.3461 -22.8808,-87.3994 -69.2495,-90.6398 -20.3812,-1.5551 -36.9716,10.5341 -45.1354,28.6021 -10.0853,22.3207 4.8615,34.9548 16.2424,52.6903 26.0142,40.5398 3.4608,81.4759 -20.8781,116.3055 -37.8474,54.1607 -91.2689,97.0946 -147.79,133.6614 -56.521,-36.5668 -109.9406,-79.5029 -147.7877,-133.6636 -24.3387,-34.8294 -46.8946,-75.7634 -20.8803,-116.3033 11.3809,-17.7356 26.3277,-30.3696 16.2424,-52.6903 -8.1638,-18.0679 -24.7521,-30.1551 -45.1333,-28.6 -46.3687,3.2405 -71.0803,48.2916 -69.2516,90.6377 1.9755,45.7359 27.5605,89.8581 53.9641,125.9091 12.0506,16.4536 25.1624,31.6598 39.139,45.832 z" stroke-width="1.57145452"/>
      </g>
    </g>
  </g>
</svg>
