<?xml version='1.0' encoding='utf-8'?>
<svg xmlns="http://www.w3.org/2000/svg" xmlns:svg="http://www.w3.org/2000/svg" xmlns:rdf="http://www.w3.org/1999/02/22-rdf-syntax-ns#" xmlns:cc="http://creativecommons.org/ns#" xmlns:dc="http://purl.org/dc/elements/1.1/" height="512" viewBox="0 0 512 512" width="512" version="1.1" id="svg4">
  <defs id="defs8"/>
  <g id="g1311" transform="rotate(-45,-1889.4863,256.4682)">
    <g id="g1336" transform="matrix(0.14413113,-0.14413113,0.14413113,0.14413113,-883.03065,1773.4116)">
      <g id="g870" transform="matrix(0.59229787,0,0,0.59229787,736.08635,329.93011)">
        <g id="g869" transform="rotate(-45,5996.5571,2081.5642)">
          <path id="path2-6-1" d="m 1724.0758,-811.38102 c 10.2397,-10.0991 21.2258,-19.5742 33.1144,-28.2814 26.0486,-19.0778 57.9306,-37.5626 90.9772,-38.9899 30.5971,-1.3213 63.1488,16.5336 65.4901,50.0376 1.1236,14.7264 -7.6098,26.7121 -20.6649,32.6108 -16.1278,7.2872 -25.2566,-3.5128 -38.0714,-11.7358 -29.2921,-18.7966 -58.8701,-2.5006 -84.0365,15.0854 -39.1335,27.3466 -70.1557,65.9464 -96.577,106.7856 26.4213,40.8389 57.4431,79.4388 96.577,106.7854 25.166,17.5859 54.7444,33.8822 84.0365,15.0857 12.8149,-8.223 21.9436,-19.023 38.0714,-11.7359 13.0549,5.8989 21.7885,17.8845 20.6649,32.6109 -2.3413,33.5037 -34.893,51.3592 -65.4901,50.0379 -33.0466,-1.4276 -64.9285,-19.9125 -90.9772,-38.9904 -54.3477,-39.8041 -89.8272,-95.6526 -121.4635,-153.7921 24.7157,-45.4212 51.7772,-89.4471 88.3491,-125.5138 z m 189.5817,-17.2337 c -0.6707,-9.5992 0.7689,10.0791 0,0 z m -165.1093,82.0921 c 1.2312,-1.2142 2.4724,-2.4264 3.7353,-3.6223 18.5916,-17.6169 40.4076,-37.3184 65.898,-43.7371 22.1581,-5.5798 57.3725,5.7069 52.0731,34.67 -2.074,12.4321 -17.0301,24.4828 -28.694,27.364 -6.8788,1.7306 -13.6365,-1.6691 -18.6543,-6.147 -6.3345,-5.6534 -6.6131,-10.5732 -7.8471,-18.3097 -4.6334,1.0008 -9.2207,2.2038 -13.8607,3.1756 5.9248,6.3523 11.7649,11.3326 13.3747,20.3402 1.7339,9.7032 -0.245,19.6731 -6.9609,27.074 -9.4707,10.4364 -23.3975,15.3278 -36.9582,19.8463 13.5607,4.5187 27.4874,9.4101 36.9582,19.8463 6.7159,7.4009 8.6948,17.371 6.9609,27.074 -1.6097,9.0078 -7.4499,13.9879 -13.3746,20.3404 4.6398,0.9718 9.2272,2.1746 13.8606,3.1756 1.2339,-7.7365 1.5126,-12.6563 7.847,-18.3097 5.0177,-4.4779 11.7757,-7.8778 18.6547,-6.1472 11.6636,2.8811 26.6199,14.932 28.6937,27.3639 5.2996,28.9632 -29.915,40.2501 -52.0731,34.6701 -25.4903,-6.419 -47.3064,-26.1202 -65.898,-43.7369 -20.2015,-19.1424 -35.7618,-41.0642 -50.7278,-64.2765 14.0306,-21.7614 28.5825,-42.3879 46.9925,-60.654 z m 121.7063,133.9973 c -0.9772,-5.8575 1.4169,7.743 0,0 z m 10e-5,-146.6867 c 1.417,-7.7431 -0.9773,5.8576 0,0 z m 43.6351,213.1885 c -0.05,0.8323 -0.7334,10.1019 -0.2306,2.9026 0.1923,-2.5199 0.2469,-3.1802 0.2306,-2.9026 z" stroke-width="1.13545406"/>
          <path d="m 1049.0747,-340.21412 c -1.1197,-1.7875 -4.6129,-8.425 -7.7627,-14.75 -20.584,-41.334 -53.55898,-53.233 -108.16998,-39.036 -1.925,0.5005 -6.425,1.4048 -10,2.0096 -3.575,0.6048 -9.425,1.73 -13,2.5004 -13.466,2.9021 -24.758,4.8358 -32.5,5.5653 -4.4,0.4147 -12.754,1.2885 -18.564,1.9419 -36.45,4.0992 -67.693,-11.156 -84.15,-41.088 -11.309,-20.569 -16.177,-40.281 -15.903,-64.393 0.2537,-22.276 0.6926,-25.018 7.6587,-47.843 12.188,-39.934 50.585,-85.352 90.382,-106.91 5.8466,-3.1666 6.7491,-5.2575 1.8269,-4.2323 -5.0009,1.0415 -17.845,5.5455 -21.735,7.6218 -1.9168,1.0231 -3.8207,1.8602 -4.2308,1.8602 -1.0949,0 -16.483,7.6201 -22.284,11.035 -2.75,1.6188 -6.7684,3.8986 -8.9297,5.0662 -3.4329,1.8545 -14.073,8.6209 -27.07,17.216 -2.2,1.4547 -12.325,8.0191 -22.5,14.587 -10.175,6.5684 -19.354,12.564 -20.397,13.324 -1.75,1.2742 -1.7974,1.795 -0.61256,6.7338 2.998,12.497 -0.16427,26.745 -9.299,41.898 -5.25,8.7087 -8.809,13.361 -23.692,30.968 -28.161,33.316 -28.161,46.286 0,58.076 18.719,7.8369 18.569,7.5931 10.622,17.228 -34.634,41.988 -106.93,4.889 -92.922,-47.683 2.5517,-9.5764 2.284,-9.587 -10.7,-0.4227 -18.895,13.336 -59.275,38.975 -61.384,38.975 -0.2998,0 -4.7536,2.4297 -9.8974,5.3993 -9.8365,5.6789 -36.685,19.432 -47.718,24.443 -3.575,1.6238 -9.5187,4.3485 -13.208,6.0549 -3.6896,1.7063 -7.3755,3.1024 -8.191,3.1024 -0.81548,0 -1.7505,0.4333 -2.0778,0.963 -0.32733,0.5296 -2.0414,1.4051 -3.809,1.9455 -1.7676,0.5404 -6.1389,2.0928 -9.7139,3.4497 -16.27,6.1755 -20.83,7.82 -25.5,9.1958 -29.809,8.7832 -48.664,13.216 -61.829,14.536 -33.435,3.3527 -36.139,3.3908 -58.171,0.8192 -20.576,-2.4015 -44.44,-10.795 -56.5,-19.872 -1.925,-1.4488 -4.85,-3.4705 -6.5,-4.4925 -67.221,-41.638 -56.657,-156.59 14.729,-160.27 38.015,-1.9602 68.77,18.465 68.772,45.674 0.003,39.492 -17.481,48.046 -20.834,10.192 -1.2094,-13.654 -2.1663,-15.032 -14.613,-21.053 -42.961,-20.781 -78.05,14.851 -56.771,57.649 14.514,29.192 35.229,35.421 68.217,20.512 18.89,-8.5373 23.054,-10.897 56.035,-31.747 23.8,-15.046 41.417,-25.093 49.965,-28.494 3.025,-1.2035 6.625,-2.7608 8,-3.4606 25.98,-13.223 63.16,-2.2542 68.92,20.332 1.4954,5.8636 3.1001,22.906 3.0897,32.814 -0.0122,11.577 -0.75453,11.41 14.005,3.1369 6.8671,-3.8494 15.411,-8.5608 18.986,-10.47 3.575,-1.9089 8.75,-4.8553 11.5,-6.5473 2.75,-1.6921 7.25,-4.3076 10,-5.8123 22.026,-12.052 69.19,-43.512 75,-50.028 l 2,-2.2429 -3,0.5276 c -1.65,0.2901 -6.6,1.8676 -11,3.5054 -40.025,14.899 -62.77,7.387 -81.461,-26.902 -2.2061,-4.0473 -4.0175,-8.089 -4.0252,-8.9816 -0.008,-0.8926 -0.99157,-3.8176 -2.1863,-6.5 -3.5737,-8.0236 -3.2426,-30.634 0.56872,-38.838 8.7966,-18.935 24.816,-28.117 25.367,-14.539 1.729,42.631 15.758,53.113 52.736,39.401 3.85,-1.4275 8.8,-3.2391 11,-4.0256 2.2,-0.7864 4.9,-1.8407 6,-2.3427 5.6935,-2.5984 18.826,-8.0859 25,-10.446 33.452,-12.789 46.043,-15.176 61.715,-11.697 l 10.375,2.3028 9.7999,-5.3463 c 5.3899,-2.9405 11.445,-6.3373 13.455,-7.5486 2.0103,-1.2113 4.33,-2.5244 5.155,-2.9181 1.4172,-0.6763 23.20004,-12.899 38.50004,-21.602 3.85,-2.1901 10.375,-5.8019 14.5,-8.0262 4.125,-2.2243 9.525,-5.1573 12,-6.5177 2.475,-1.3604 8.775,-4.7203 14,-7.4663 29.891,-15.709 30.578,-16.155 26.495,-17.179 -2.933,-0.7362 -53.526,1.1073 -67.995,2.4775 -20.466,1.9381 -57.90804,3.0609 -87.00004,2.609 l -30,-0.466 -7.5,-3.1538 c -5.8609,-2.4645 -8.2103,-4.0932 -10.75,-7.4521 -7.0377,-9.3079 -2.8364,-18.944 10.75,-24.658 l 7.5,-3.1538 30,-0.466 c 29.092,-0.4519 66.53404,0.6709 87.00004,2.609 14.469,1.3702 65.062,3.2137 67.995,2.4775 4.0828,-1.0247 3.396,-1.47 -26.495,-17.179 -5.225,-2.746 -11.525,-6.1059 -14,-7.4663 -2.475,-1.3604 -7.875,-4.2934 -12,-6.5177 -4.125,-2.2243 -10.65,-5.8361 -14.5,-8.0262 -15.3,-8.7033 -37.08304,-20.926 -38.50004,-21.602 -0.825,-0.3937 -3.1448,-1.7068 -5.155,-2.9181 -2.0103,-1.2113 -8.065,-4.6081 -13.455,-7.5486 l -9.7999,-5.3463 -10.375,2.3028 c -15.673,3.4787 -28.264,1.0923 -61.715,-11.697 -6.1741,-2.3604 -19.307,-7.8479 -25,-10.446 -1.1,-0.502 -3.8,-1.5563 -6,-2.3427 -2.2,-0.7865 -7.15,-2.5981 -11,-4.0256 -36.978,-13.712 -51.007,-3.2296 -52.736,39.401 -0.55068,13.578 -16.571,4.3959 -25.367,-14.539 -3.8113,-8.2041 -4.1424,-30.814 -0.56872,-38.838 1.1947,-2.6824 2.1786,-5.6074 2.1863,-6.5 0.008,-0.8926 1.8191,-4.9343 4.0252,-8.9816 18.691,-34.289 41.436,-41.801 81.461,-26.902 4.4,1.6378 9.35,3.2153 11,3.5054 l 3,0.5276 -2,-2.2429 c -5.8104,-6.516 -52.974,-37.976 -75,-50.028 -2.75,-1.5047 -7.25,-4.1202 -10,-5.8123 -2.75,-1.692 -7.925,-4.6384 -11.5,-6.5473 -3.575,-1.909 -12.119,-6.6204 -18.986,-10.47 -14.759,-8.2735 -14.017,-8.4398 -14.005,3.1369 0.0104,9.9078 -1.5943,26.95 -3.0897,32.814 -5.7602,22.586 -42.94,33.554 -68.92,20.332 -1.375,-0.6998 -4.975,-2.2571 -8,-3.4606 -8.5484,-3.401 -26.165,-13.448 -49.965,-28.494 -32.981,-20.851 -37.145,-23.21 -56.035,-31.747 -32.988,-14.909 -53.702,-8.6799 -68.217,20.512 -21.279,42.798 13.81,78.43 56.771,57.649 12.446,-6.0207 13.403,-7.3993 14.613,-21.053 3.353,-37.854 20.837,-29.3 20.834,10.192 -0.002,27.209 -30.757,47.634 -68.772,45.674 -71.386,-3.6809 -81.95,-118.63 -14.729,-160.27 1.65,-1.022 4.575,-3.0437 6.5,-4.4925 12.06,-9.0768 35.924,-17.46998 56.5,-19.87198 22.032,-2.5716 24.736,-2.5335 58.171,0.8192 13.165,1.32 32.02,5.7529 61.829,14.53598 4.6695,1.3758 9.2296,3.0203 25.5,9.1958 3.575,1.3569 7.9462,2.9093 9.7139,3.4497 1.7676,0.5404 3.4817,1.4159 3.809,1.9455 0.32734,0.5297 1.2624,0.963 2.0778,0.963 0.81547,0 4.5014,1.3961 8.191,3.1024 3.6896,1.7064 9.6333,4.4311 13.208,6.0549 11.033,5.0116 37.882,18.764 47.718,24.443 5.1438,2.9696 9.5976,5.3993 9.8974,5.3993 2.109,0 42.489,25.638 61.384,38.975 12.984,9.1643 13.252,9.1537 10.7,-0.4227 -14.008,-52.572 58.288,-89.671 92.922,-47.683 7.9468,9.6344 8.0971,9.3906 -10.622,17.228 -28.161,11.79 -28.161,24.759 0,58.076 14.883,17.608 18.442,22.26 23.692,30.968 9.1347,15.152 12.297,29.4 9.299,41.898 -1.1848,4.9388 -1.1374,5.4596 0.61256,6.7338 1.0432,0.7595 10.222,6.7551 20.397,13.324 10.175,6.5683 20.3,13.133 22.5,14.587 12.998,8.5947 23.637,15.361 27.07,17.216 2.1613,1.1676 6.1797,3.4474 8.9297,5.0662 5.801,3.4149 21.189,11.035 22.284,11.035 0.4101,0 2.314,0.8371 4.2308,1.8602 3.8902,2.0763 16.734,6.5803 21.735,7.6218 4.9222,1.0252 4.0197,-1.0657 -1.8269,-4.2323 -25.786,-13.966 -51.994,-38.568 -70.576,-66.25 -13.213,-19.684 -25.422,-51.591 -26.784,-70 -2.6046,-35.188 1.6089,-58.133 15.222,-82.893 16.457,-29.932 47.7,-45.188 84.15,-41.088 5.8103,0.6534 14.164,1.5272 18.564,1.9419 7.742,0.7295 19.034,2.6632 32.5,5.5653 3.575,0.7704 9.425,1.8956 13,2.5004 3.575,0.6048 8.075,1.5091 10,2.0096 55.511,14.431 87.09198,2.6395 109.00998,-40.70198 10.187,-20.142 10.511,-20.222 16.595,-4.0791 20.677,54.85798 -7.8719,92.13198 -70.60798,92.18798 -17.694,0.016 -25.492,-1.2509 -42.75,-6.9446 -8.2063,-2.7074 -1.7376,4.7401 25.19,29.002 14.966,13.484 16.601,15.54 14.433,18.152 -6.2094,7.4819 -19.186,1.6085 -37.862,-17.138 -16.133,-16.193 -17.125,-16.31 -14.09,-1.6605 5.2758,25.46 -9.2217,51.12 -32.345,57.25 -2.2423,0.5944 -5.6518,1.7648 -7.5768,2.6009 -4.4572,1.9359 -21.749,2.8051 -29,1.4577 -26.046,-4.8395 -39.44,-19.855 -39.394,-44.163 0.041,-21.661 5.2509,-29.706 11.246,-17.368 12.432,25.588 49.586,33.838 62.796,13.943 31.171,-46.943 -39.332,-91.641 -87.923,-55.742 -23.536,17.388 -32.821,64.75 -19.734,100.67 1.002,2.75 2.1141,6.35 2.4715,8 9.4986,43.862 55.562,97.044 94.498,109.1 9.2152,2.8538 9.0331,3.1136 4.1079,-5.8605 -6.1978,-11.293 -9.0682,-22.042 -9.0682,-33.961 v -9.8666 l 4.75,-5.0831 c 19.061,-20.398 35.3,-20.212 35.738,0.4083 0.4857,22.849 22.213,56.76 36.367,56.76 0.4815,0 1.9573,0.8511 3.2797,1.8913 1.3224,1.0401 5.9956,3.3282 10.385,5.0845 4.3893,1.7563 10.23,4.0961 12.98,5.1995 9.7862,3.9267 25.88798,8.5421 39.73698,11.39 19.829,4.0779 20.763,4.9521 20.763,19.435 0,14.4829 -0.934,15.357 -20.763,19.435 -13.848,2.8479 -29.95098,7.4633 -39.73698,11.39 -2.75,1.1034 -8.5912,3.4432 -12.98,5.1995 -4.3893,1.7563 -9.0625,4.0444 -10.385,5.0845 -1.3224,1.0402 -2.7982,1.8913 -3.2797,1.8913 -14.154,0 -35.881,33.912 -36.367,56.76 -0.4384,20.62 -16.677,20.806 -35.738,0.4083 l -4.75,-5.0831 v -9.8666 c 0,-11.918 2.8704,-22.668 9.0682,-33.961 4.9252,-8.9741 5.1073,-8.7143 -4.1079,-5.8605 -38.936,12.058 -84.999,65.24 -94.498,109.1 -0.3574,1.65 -1.4695,5.25 -2.4715,8 -13.086,35.916 -3.8019,83.278 19.734,100.67 48.591,35.899 119.09,-8.7994 87.923,-55.742 -13.21,-19.895 -50.364,-11.645 -62.796,13.943 -5.9947,12.339 -11.204,4.293 -11.246,-17.368 -0.046,-24.308 13.348,-39.323 39.394,-44.163 7.2513,-1.3474 24.543,-0.4782 29,1.4577 1.925,0.8361 5.3345,2.0065 7.5768,2.6009 23.123,6.1297 37.62,31.79 32.345,57.25 -3.0357,14.65 -2.0437,14.533 14.09,-1.6605 18.677,-18.746 31.653,-24.62 37.862,-17.138 2.1677,2.6119 0.533,4.6678 -14.433,18.152 -26.928,24.262 -33.397,31.71 -25.19,29.002 17.258,-5.6937 25.056,-6.9605 42.75,-6.9446 62.57798,0.056 91.41398,37.562 70.68798,91.942 -5.0831,13.337 -6.4066,14.592 -9.7529,9.25 z" id="path1017"/>
          <path id="path2-6" d="m 1319.5051,-819.55272 c -10.2396,-10.0991 -21.2257,-19.5742 -33.1143,-28.2814 -26.0487,-19.0778 -57.9305,-37.5626 -90.9772,-38.9899 -30.5971,-1.3213 -63.1487,16.5336 -65.4901,50.0376 -1.1236,14.7264 7.6098,26.7121 20.6649,32.6109 16.1278,7.2872 25.2565,-3.5129 38.0714,-11.7359 29.292,-18.7966 58.8702,-2.5006 84.0365,15.0854 39.1335,27.3466 70.1557,65.9464 96.577,106.7857 -26.4213,40.8389 -57.4431,79.4387 -96.577,106.7854 -25.166,17.5859 -54.7445,33.8822 -84.0365,15.0856 -12.8149,-8.223 -21.9436,-19.023 -38.0714,-11.7359 -13.055,5.8989 -21.7886,17.8845 -20.6649,32.6109 2.3414,33.5037 34.8931,51.3592 65.4901,50.0379 33.0467,-1.4276 64.9285,-19.9125 90.9772,-38.9904 54.3477,-39.8041 89.8272,-95.6526 121.4635,-153.7921 -24.7157,-45.4212 -51.7772,-89.447 -88.3492,-125.5138 z m -189.5816,-17.2337 c 0.6706,-9.5992 -0.7689,10.0791 0,0 z m 165.1093,82.0921 c -1.2312,-1.2142 -2.4724,-2.4264 -3.7353,-3.6223 -18.5916,-17.6169 -40.4076,-37.3184 -65.8979,-43.7371 -22.1582,-5.5798 -57.3725,5.7069 -52.0732,34.67 2.0741,12.4321 17.0301,24.4828 28.694,27.364 6.8787,1.7306 13.6366,-1.6691 18.6543,-6.147 6.3344,-5.6534 6.6131,-10.5732 7.847,-18.3097 4.6334,1.0008 9.2207,2.2038 13.8607,3.1756 -5.9248,6.3523 -11.7649,11.3326 -13.3747,20.3402 -1.7339,9.7032 0.245,19.6731 6.9609,27.074 9.4707,10.4364 23.3975,15.3278 36.9582,19.8463 -13.5607,4.5187 -27.4874,9.4101 -36.9582,19.8463 -6.7159,7.4009 -8.6948,17.371 -6.9609,27.074 1.6097,9.0078 7.4499,13.9879 13.3746,20.3404 -4.6398,0.9718 -9.2272,2.1746 -13.8606,3.1756 -1.2339,-7.7365 -1.5126,-12.6563 -7.847,-18.3097 -5.0177,-4.4779 -11.7756,-7.8778 -18.6547,-6.1472 -11.6636,2.8811 -26.6199,14.932 -28.6937,27.3639 -5.2996,28.9632 29.915,40.2501 52.0731,34.6701 25.4903,-6.419 47.3064,-26.1202 65.898,-43.7369 20.2015,-19.1424 35.7618,-41.0642 50.7278,-64.2765 -14.0306,-21.7614 -28.5825,-42.3879 -46.9924,-60.654 z m -121.7063,133.9973 c 0.9772,-5.8575 -1.4169,7.743 0,0 z m -10e-5,-146.6867 c -1.4169,-7.7431 0.9773,5.8576 0,0 z m -43.635,213.1885 c 0.05,0.8323 0.7334,10.1019 0.2306,2.9026 -0.1923,-2.5199 -0.2469,-3.1802 -0.2306,-2.9026 z" stroke-width="1.13545406"/>
          <path d="m 1510.5511,-285.55222 c -1.2013,-3.4303 -7.4546,-40.3059 -8.1075,-47.8093 -1.4166,-16.2821 -5.418,-45.2919 -7.0383,-51.0268 -0.9149,-3.2387 -1.6635,-6.8676 -1.6635,-8.0641 0,-2.1252 -2.3835,-12.5438 -7.1344,-31.1846 -1.2979,-5.0926 -3.3485,-11.4866 -4.557,-14.2093 -1.2085,-2.7224 -2.1973,-5.5768 -2.1973,-6.3431 0,-1.4078 -0.9871,-4.0941 -8.8212,-24.0077 -5.1248,-13.0263 -17.6998,-38.7076 -22.9521,-46.874 -2.047,-3.1829 -6.1818,-9.6932 -9.1883,-14.4674 -23.833,-37.8465 -40.4032,-54.4156 -78.2485,-78.2485 -4.7743,-3.0066 -11.2845,-7.1412 -14.4674,-9.1884 -8.166,-5.252 -33.8477,-17.8272 -46.8741,-22.9521 -19.9128,-7.8341 -22.599,-8.8212 -24.0077,-8.8212 -0.7663,0 -3.6206,-0.9887 -6.3431,-2.1973 -2.7225,-1.2085 -9.1165,-3.2591 -14.2092,-4.5569 -18.642,-4.7509 -29.0596,-7.1345 -31.1845,-7.1345 -1.1965,0 -4.8256,-0.7508 -8.0643,-1.6686 -5.3846,-1.5258 -27.1094,-4.5259 -55.0777,-7.6056 -6.0472,-0.666 -18.547,-2.628 -27.7772,-4.3598 l -16.7821,-3.1488 v -5.2074 -5.2075 l 16.7821,-3.1488 c 9.2302,-1.7318 21.73,-3.6938 27.7772,-4.3597 27.9683,-3.0798 49.6936,-6.0798 55.0777,-7.6057 3.2387,-0.9178 6.8678,-1.6686 8.0643,-1.6686 2.125,0 12.5437,-2.3836 31.1845,-7.1344 5.0925,-1.298 11.4865,-3.3486 14.2092,-4.557 2.7225,-1.2086 5.5768,-2.1973 6.3431,-2.1973 1.4078,0 4.0942,-0.9871 24.0077,-8.8212 13.0264,-5.1248 38.7077,-17.6999 46.8741,-22.9521 3.1829,-2.0471 9.6931,-6.1818 14.4674,-9.1883 38.13,-24.0124 55.3947,-41.276 79.4059,-79.4059 3.0065,-4.7743 7.1413,-11.2846 9.1883,-14.4674 5.2521,-8.166 17.8272,-33.8477 22.9521,-46.8741 7.8341,-19.9128 8.8212,-22.5991 8.8212,-24.0077 0,-0.7663 0.9888,-3.6207 2.1973,-6.3431 1.2085,-2.7225 3.2591,-9.1165 4.5571,-14.2093 4.7507,-18.6419 7.1343,-29.0595 7.1343,-31.1845 0,-1.1964 0.7509,-4.8255 1.6686,-8.0642 1.5259,-5.3847 4.5259,-27.10938 7.6058,-55.07768 0.6658,-6.0472 2.6278,-18.5471 4.3597,-27.7772 l 3.1487,-16.7821 h 5.2075 5.2074 l 3.1488,16.7821 c 1.7319,9.2301 3.6938,21.73 4.3598,27.7772 3.0797,27.9683 6.0798,49.69358 7.6056,55.07768 0.9178,3.2387 1.6686,6.8678 1.6686,8.0642 0,2.1251 2.3836,12.5438 7.1345,31.1845 1.2979,5.0926 3.3485,11.4866 4.5569,14.2093 1.2086,2.7224 2.1973,5.5768 2.1973,6.3431 0,1.4078 0.9871,4.0942 8.8212,24.0077 5.1249,13.0264 17.7,38.7076 22.9522,46.8741 2.0471,3.1828 6.1817,9.6931 9.1884,14.4674 23.8328,37.8464 40.4031,54.4155 78.2485,78.2485 4.7741,3.0065 11.2844,7.1413 14.4673,9.1883 8.166,5.252 33.8477,17.8272 46.874,22.9521 19.9128,7.8341 22.5991,8.8212 24.0077,8.8212 0.7663,0 3.6207,0.9888 6.3432,2.1973 2.7224,1.2085 9.1164,3.2591 14.2092,4.5569 18.6419,4.7509 29.0596,7.1345 31.1846,7.1345 1.1965,0 4.8254,0.7509 8.0642,1.6686 5.3846,1.5259 27.1093,4.5259 55.0776,7.6058 6.0474,0.6658 18.5471,2.6278 27.7772,4.3597 l 16.7821,3.1487 v 5.2075 5.2074 l -16.7821,3.1488 c -9.2301,1.7319 -21.7298,3.6938 -27.7772,4.3597 -27.9683,3.0798 -49.6936,6.0798 -55.0776,7.6057 -3.2388,0.9178 -6.8677,1.6686 -8.0642,1.6686 -2.1252,0 -12.5437,2.3836 -31.1846,7.1345 -5.0926,1.2979 -11.4866,3.3485 -14.2092,4.5569 -2.7225,1.2086 -5.5769,2.1973 -6.3432,2.1973 -1.4077,0 -4.0941,0.9871 -24.0077,8.8212 -13.0263,5.1249 -38.7076,17.7 -46.874,22.9522 -3.1829,2.047 -9.6932,6.1817 -14.4673,9.1884 -38.1301,24.0122 -55.3949,41.2758 -79.4059,79.4058 -3.0066,4.7742 -7.1414,11.2845 -9.1884,14.4674 -5.2521,8.1659 -17.8272,33.8477 -22.9521,46.874 -7.8342,19.9128 -8.8213,22.5991 -8.8213,24.0077 0,0.7663 -0.9888,3.6207 -2.1973,6.3431 -1.2084,2.7225 -3.259,9.1165 -4.5569,14.2093 -4.7509,18.6419 -7.1344,29.0595 -7.1344,31.1846 0,1.1965 -0.7509,4.8254 -1.6687,8.0641 -1.5258,5.3847 -4.5258,27.1094 -7.6057,55.0777 -0.6659,6.0474 -2.6276,18.5471 -4.3593,27.7772 l -3.1485,16.7821 -4.9294,0.3564 c -3.2833,0.2373 -5.1066,-0.1491 -5.4598,-1.1574 z" id="path1015" stroke-width="1.15738523"/>
          <path d="m 1517.6163,-452.21622 c 2.5373,-16.565 22.361,-64.895 37.152,-90.579 2.955,-5.131 5.3727,-9.5158 5.3727,-9.7438 0,-0.5808 14.903,-23.498 20.698,-31.83 13.874,-19.945 15.954,-22.025 35.899,-35.899 8.3316,-5.7955 31.249,-20.698 31.83,-20.698 0.228,0 4.6128,-2.4177 9.7438,-5.3727 25.684,-14.792 74.014,-34.615 90.579,-37.152 2.3375,-0.3581 4.25,-1.0219 4.25,-1.4752 0,-0.4533 -1.9125,-1.1171 -4.25,-1.4752 -16.565,-2.5373 -64.895,-22.361 -90.579,-37.152 -5.131,-2.955 -9.5158,-5.3727 -9.7438,-5.3727 -0.6212,0 -23.84,-15.126 -32.427,-21.124 -19.255,-13.451 -20.424,-14.62 -33.876,-33.876 -5.9983,-8.5865 -21.124,-31.806 -21.124,-32.427 0,-0.228 -2.4177,-4.6128 -5.3727,-9.7438 -14.792,-25.684 -34.615,-74.014 -37.152,-90.579 -0.3581,-2.3375 -1.0219,-4.25 -1.4752,-4.25 -0.4533,0 -1.1171,1.9125 -1.4752,4.25 -2.5373,16.565 -22.361,64.895 -37.152,90.579 -2.955,5.131 -5.3727,9.5158 -5.3727,9.7438 0,0.5808 -14.903,23.498 -20.698,31.83 -13.874,19.945 -15.954,22.025 -35.899,35.899 -8.3316,5.7955 -31.249,20.698 -31.83,20.698 -0.228,0 -4.6128,2.4177 -9.7438,5.3727 -25.684,14.792 -74.014,34.615 -90.579,37.152 -2.3375,0.3581 -4.25,1.0219 -4.25,1.4752 0,0.4533 1.9125,1.1171 4.25,1.4752 16.565,2.5373 64.895,22.361 90.579,37.152 5.131,2.955 9.5158,5.3727 9.7438,5.3727 1.3622,0 34.349,22.174 45.962,30.896 5.9281,4.4524 9.9038,9.1637 20.34,24.104 5.9983,8.5865 21.124,31.806 21.124,32.427 0,0.228 2.4177,4.6128 5.3727,9.7438 14.792,25.684 34.615,74.014 37.152,90.579 0.3581,2.3375 1.0219,4.25 1.4752,4.25 0.4533,0 1.1171,-1.9125 1.4752,-4.25 z" id="path1013"/>
          <path d="m 1512.4414,-527.71622 c -3.4759,-4.5451 -6.8756,-9.7739 -11.541,-17.75 -3.7468,-6.4056 -5.1032,-9.2528 -9.2905,-19.5 -4.7978,-11.742 -17.096,-37.542 -19.616,-41.154 -3.8778,-5.557 -2.3175,-9.1485 13.183,-30.346 7.2324,-9.8902 12.294,-23.599 9.6789,-26.214 -2.6151,-2.6151 -16.324,2.4465 -26.214,9.6789 -21.197,15.501 -24.789,17.061 -30.346,13.183 -3.6123,-2.5207 -29.413,-14.819 -41.154,-19.616 -13.259,-5.4179 -18.978,-8.4829 -32.197,-17.255 -11.789,-7.8229 -11.498,-8.3381 12.697,-22.512 6.4022,-3.7504 9.2417,-5.104 19.5,-9.2958 11.742,-4.7978 37.542,-17.096 41.154,-19.616 5.557,-3.8778 9.1485,-2.3175 30.346,13.183 26.411,19.314 36.849,8.8757 17.535,-17.535 -15.501,-21.197 -17.061,-24.789 -13.183,-30.346 2.5207,-3.6123 14.819,-29.413 19.616,-41.154 5.4179,-13.259 8.4829,-18.978 17.255,-32.197 7.8229,-11.789 8.3381,-11.498 22.512,12.697 3.7504,6.4022 5.104,9.2417 9.2958,19.5 4.7978,11.742 17.096,37.542 19.616,41.154 3.8778,5.557 2.3175,9.1485 -13.183,30.346 -7.2324,9.8902 -12.294,23.599 -9.6789,26.214 2.6151,2.6151 16.324,-2.4465 26.214,-9.6789 21.197,-15.501 24.789,-17.061 30.346,-13.183 3.6123,2.5207 29.413,14.819 41.154,19.616 13.259,5.4179 18.978,8.4829 32.197,17.255 11.031,7.3199 11.031,7.2331 0,14.553 -13.219,8.7718 -18.938,11.837 -32.197,17.255 -11.742,4.7978 -37.542,17.096 -41.154,19.616 -5.557,3.8778 -9.1485,2.3175 -30.346,-13.183 -10.891,-7.9643 -23.582,-12.327 -26.722,-9.1868 -3.1404,3.1404 1.2225,15.831 9.1868,26.722 15.501,21.197 17.061,24.789 13.183,30.346 -2.5207,3.6123 -14.819,29.413 -19.616,41.154 -4.1873,10.247 -5.5437,13.094 -9.2905,19.5 -7.0906,12.122 -13.738,21.5 -15.241,21.5 -0.4576,0 -2.1224,-1.6875 -3.6997,-3.75 z" id="path1011" fill="#ffffff" fill-opacity="1"/>
          <path d="m 1978.9414,-340.21622 c -32.421,-50.858 0.7978,-102.13 66.204,-102.19 17.694,-0.016 25.492,1.2509 42.75,6.9446 8.2063,2.7074 1.7376,-4.7401 -25.19,-29.002 -14.966,-13.484 -16.601,-15.54 -14.433,-18.152 6.2094,-7.4819 19.186,-1.6085 37.862,17.138 16.133,16.193 17.125,16.31 14.09,1.6605 -5.2758,-25.46 9.2217,-51.12 32.345,-57.25 2.2423,-0.5944 5.6518,-1.7648 7.5768,-2.6009 4.4572,-1.9359 21.749,-2.8051 29,-1.4577 26.046,4.8395 39.44,19.855 39.394,44.163 -0.041,21.661 -5.2509,29.706 -11.246,17.368 -12.432,-25.588 -49.586,-33.838 -62.796,-13.943 -31.171,46.943 39.332,91.641 87.923,55.742 23.536,-17.388 32.821,-64.75 19.734,-100.67 -1.002,-2.75 -2.1141,-6.35 -2.4715,-8 -9.4986,-43.862 -55.562,-97.044 -94.498,-109.1 -9.2152,-2.8538 -9.0331,-3.1136 -4.1079,5.8605 6.1978,11.293 9.0682,22.042 9.0682,33.961 v 9.8666 l -4.75,5.0831 c -19.061,20.398 -35.3,20.212 -35.738,-0.4083 -0.4857,-22.849 -22.213,-56.76 -36.367,-56.76 -0.4815,0 -1.9573,-0.8511 -3.2797,-1.8913 -1.3224,-1.0401 -5.9956,-3.3282 -10.385,-5.0845 -4.3893,-1.7563 -10.23,-4.0961 -12.98,-5.1995 -9.7862,-3.9267 -25.888,-8.5421 -39.737,-11.39 -19.8,-4.1 -20.7,-5 -20.7,-19.5 0,-14.483 0.934,-15.357 20.763,-19.435 13.848,-2.8479 29.951,-7.4633 39.737,-11.39 2.75,-1.1034 8.5912,-3.4432 12.98,-5.1995 4.3893,-1.7563 9.0625,-4.0444 10.385,-5.0845 1.3224,-1.0402 2.7982,-1.8913 3.2797,-1.8913 14.154,0 35.881,-33.912 36.367,-56.76 0.4384,-20.62 16.677,-20.806 35.738,-0.4083 l 4.75,5.0831 v 9.8666 c 0,11.918 -2.8704,22.668 -9.0682,33.961 -4.9252,8.9741 -5.1073,8.7143 4.1079,5.8605 38.936,-12.058 84.999,-65.24 94.498,-109.1 0.3574,-1.65 1.4695,-5.25 2.4715,-8 13.086,-35.916 3.8019,-83.278 -19.734,-100.67 -48.591,-35.899 -119.09,8.7994 -87.923,55.742 13.21,19.895 50.364,11.645 62.796,-13.943 5.9947,-12.339 11.204,-4.293 11.246,17.368 0.046,24.308 -13.348,39.323 -39.394,44.163 -7.2513,1.3474 -24.543,0.4782 -29,-1.4577 -1.925,-0.8361 -5.3345,-2.0065 -7.5768,-2.6009 -23.123,-6.1297 -37.62,-31.79 -32.345,-57.25 3.0357,-14.65 2.0437,-14.533 -14.09,1.6605 -18.677,18.746 -31.653,24.62 -37.862,17.138 -2.1677,-2.6119 -0.533,-4.6678 14.433,-18.152 26.928,-24.262 33.397,-31.71 25.19,-29.002 -17.258,5.6937 -25.056,6.9605 -42.75,6.9446 -62.736,-0.056 -91.285,-37.331 -70.608,-92.18798 6.0845,-16.142 6.4086,-16.063 16.595,4.0791 21.92,43.34198 53.502,55.13398 109.01,40.70198 1.925,-0.5005 6.425,-1.4048 10,-2.0096 3.575,-0.6048 9.425,-1.73 13,-2.5004 13.466,-2.9021 24.758,-4.8358 32.5,-5.5653 4.4,-0.4147 12.754,-1.2885 18.564,-1.9419 36.45,-4.0992 67.693,11.156 84.15,41.088 11.309,20.569 16.177,40.281 15.903,64.393 -0.2537,22.276 -0.6926,25.018 -7.6587,47.843 -12.188,39.934 -50.585,85.352 -90.382,106.91 -5.8466,3.1666 -6.7491,5.2575 -1.8269,4.2323 l 16.2543,22.9269 c 2.933,0.7362 53.526,-1.1073 67.995,-2.4775 20.466,-1.9381 57.908,-3.0609 87,-2.609 l 30,0.466 7.5,3.1538 c 5.8609,2.4645 8.2103,4.0932 10.75,7.4521 7.0377,9.3079 2.8365,18.944 -10.75,24.658 l -7.5,3.1538 -30,0.466 c -29.092,0.4519 -66.534,-0.6709 -87,-2.609 -14.469,-1.3702 -65.062,-3.2137 -67.995,-2.4775 l -16.2543,22.9269 c -4.9222,-1.0252 -4.0197,1.0657 1.8269,4.2323 25.786,13.966 51.994,38.568 70.576,66.25 13.213,19.684 25.4216,51.591 26.784,70 2.6042,35.188 -1.6089,58.133 -15.222,82.893 -16.457,29.932 -47.7,45.188 -84.15,41.088 -5.8103,-0.6534 -14.164,-1.5272 -18.564,-1.9419 -7.742,-0.7295 -19.034,-2.6632 -32.5,-5.5653 -3.575,-0.7704 -9.425,-1.8956 -13,-2.5004 -3.575,-0.6048 -8.075,-1.5091 -10,-2.0096 -54.613,-14.198 -87.588,-2.2981 -108.17,39.036 -9.3203,18.716 -10.349,19.959 -13.032,15.75 z" id="path1009"/>
          <path d="m 159.01142,-569.89802 c -10.79,-8.2 -47.66,-29.1 -51.29,-29.1 -0.36982,0 -1.8669,-0.8154 -3.3268,-1.8121 -1.4599,-0.9967 -4.2294,-2.3065 -6.1544,-2.9108 -1.925,-0.6043 -5.975,-2.08 -9,-3.2793 -3.025,-1.1993 -7.75,-3.0722 -10.5,-4.162 -5.0983,-2.0205 -27.758,-9.3449 -39.5,-12.768 -22.113,-6.4462 -19.468,-5.7909 -48.5000003,-12.012 -32.6469997,-6.996 -36.3769997,-7.7186 -49.4999997,-9.5885 -5.775,-0.8229 -11.85,-1.9049 -13.5,-2.4045 -1.65,-0.4996 -6.15,-1.2085 -10,-1.5753 -3.85,-0.3669 -9.7,-1.2568 -13,-1.9776 -3.3,-0.7208 -9.5138,-1.6016 -13.809,-1.9573 -4.2947,-0.3557 -8.9596,-1.0843 -10.366,-1.6192 -1.4069,-0.5349 -6.893,-1.4148 -12.191,-1.9554 -5.2984,-0.5405 -14.134,-1.6434 -19.634,-2.451 -10.627,-1.5602 -18.95,-2.6648 -37.526,-4.9799 -6.3394,-0.7901 -13.539,-1.9004 -16,-2.4674 -2.4606,-0.567 -5.7559,-1.0419 -7.3227,-1.0554 -1.5669,-0.013 -4.2669,-0.6712 -6,-1.4617 -1.7331,-0.7905 -7.6974,-2.3572 -13.254,-3.4815 -9.828,-2 -25.4,-9.5 -25.4,-12.3 0,-0.4977 0.46904,-0.615 1.0423,-0.2606 0.57327,0.3543 3.9743,-1.1942 7.5578,-3.441 5.1666,-3.2395 8.6255,-4.5123 16.708,-6.1479 5.6057,-1.1345 11.61,-2.7095 13.343,-3.5 1.7331,-0.7905 4.4331,-1.4483 6,-1.4617 1.5669,-0.014 4.8621,-0.4884 7.3227,-1.0554 2.4606,-0.567 9.6606,-1.6773 16,-2.4674 18.576,-2.3151 26.899,-3.4197 37.526,-4.9799 5.5,-0.8076 14.335,-1.9105 19.634,-2.451 5.2984,-0.5406 10.785,-1.4205 12.191,-1.9554 1.4069,-0.5349 6.0718,-1.2635 10.366,-1.6192 4.2947,-0.3557 10.509,-1.2365 13.809,-1.9573 3.3,-0.7208 9.15,-1.6107 13,-1.9776 3.85,-0.3668 8.35,-1.0757 10,-1.5753 1.65,-0.4996 7.725,-1.5816 13.5,-2.4045 12.947,-1.8448 20.91,-3.3824 48.9999997,-9.4612 5.225,-1.1308 13.775,-2.9811 19,-4.1119 5.2250003,-1.1309 12.6500003,-2.9734 16.5000003,-4.0945 3.85,-1.1211 9.925,-2.891 13.5,-3.9332 3.575,-1.0421 12.8,-3.8953 20.5,-6.3404 13.015,-4.1329 16.657,-5.4407 30,-10.772 2.75,-1.0988 6.575,-2.4922 8.5,-3.0965 1.925,-0.6043 4.6945,-1.9141 6.1544,-2.9108 1.4599,-0.9967 2.957,-1.8121 3.3268,-1.8121 3.629,0 40.495,-20.886 51.289,-29.058 8.5204,-6.4502 7.8599,-6.6492 19.892,5.9959 17.827,18.736 41.659,34.679 65.838,44.044 4.4,1.7043 9.1944,3.7556 10.654,4.5584 1.4599,0.8028 3.4849,1.4749 4.5,1.4935 1.0151,0.019 3.6457,0.9034 5.8457,1.9661 2.2,1.0627 4.675,1.9672 5.5,2.01 0.825,0.043 3.3,0.7441 5.5,1.5585 2.2,0.8144 5.8,1.8732 8,2.3528 2.2,0.4796 10.525,2.4961 18.5,4.481 21.027,5.2336 26.525,6.403 35.844,7.6249 4.5893,0.6017 9.3143,1.453 10.5,1.8919 1.1857,0.4389 5.5788,1.0995 9.7625,1.4681 4.1837,0.3686 9.1082,1.1008 10.943,1.6271 1.8351,0.5264 8.0425,1.4356 13.794,2.0207 5.7516,0.5851 13.202,1.6728 16.557,2.4172 3.3545,0.7444 10.599,1.6564 16.099,2.0267 5.5,0.3702 12.25,1.1191 15,1.664 2.75,0.545 9.725,1.3639 15.5,1.8198 14.113,1.1141 36.578,3.7611 47,5.5376 4.675,0.797 11.2,1.7199 14.5,2.051 16.611,1.6665 25.778,9.9171 22.002,19.803 -1.9928,5.2182 -11.571,10.048 -22.002,11.094 -3.3,0.3311 -9.825,1.254 -14.5,2.051 -10.422,1.7765 -32.887,4.4235 -47,5.5376 -5.775,0.4559 -12.75,1.2748 -15.5,1.8198 -2.75,0.5449 -9.5,1.2938 -15,1.664 -5.5,0.3703 -12.745,1.2823 -16.099,2.0267 -3.3545,0.7444 -10.805,1.8321 -16.557,2.4172 -5.7517,0.5851 -11.959,1.4943 -13.794,2.0207 -1.8351,0.5263 -6.7596,1.2585 -10.943,1.6271 -4.1837,0.3686 -8.5768,1.0292 -9.7625,1.4681 -1.1857,0.4389 -5.9107,1.2902 -10.5,1.8919 -9.3196,1.2219 -14.817,2.3913 -35.844,7.6249 -7.975,1.9849 -16.3,4.0014 -18.5,4.481 -2.2,0.4796 -5.8,1.5384 -8,2.3528 -2.2,0.8144 -4.675,1.5157 -5.5,1.5585 -0.825,0.043 -3.3,0.9473 -5.5,2.01 -2.2,1.0627 -4.8306,1.9474 -5.8457,1.9661 -1.0151,0.019 -3.0401,0.6907 -4.5,1.4935 -1.4599,0.8028 -6.2543,2.8541 -10.654,4.5584 -24.179,9.3654 -48.011,25.309 -65.838,44.044 -12.032,12.645 -11.371,12.446 -19.892,5.9959 z" id="path995"/>
          <path d="m 1038.4184,-597.92402 c -18.827,-6.883 -47.79798,-42.936 -38.49198,-47.902 3.66688,-1.9569 20.63998,3.695 26.74998,8.9074 5.8553,4.9953 12.74,2.8953 22.142,-6.754 9.7311,-9.9872 16.948,-33.106 14.528,-46.54 -3.9337,-21.836 -11.111,-34.034 -24.444,-41.543 -6.154,-3.4657 -7.3733,-3.391 -12.226,0.7488 -6.1097,5.2124 -23.083,10.864 -26.74998,8.9074 -9.4959,-5.0678 19.93998,-41.306 38.97098,-47.977 23.873,-8.3676 51.772,19.22 62.816,62.113 13.81,53.642 -26.39,123.53 -63.294,110.04 z" id="path991"/>
          <path d="m 1975.2184,-599.42402 c -19.729,-8.204 -35.546,-30.595 -43.536,-61.628 -13.742,-53.377 25.988,-123.02 62.816,-110.11 19.031,6.6705 48.467,42.909 38.971,47.977 -3.6669,1.9569 -20.64,-3.695 -26.75,-8.9074 -5.8553,-4.9953 -12.74,-2.8953 -22.142,6.754 -9.7311,9.9872 -16.948,33.106 -14.528,46.54 3.9337,21.836 11.111,34.034 24.444,41.543 6.154,3.4657 7.3733,3.391 12.226,-0.7488 10.047,-8.5712 28.5,-11.946 28.5,-5.2126 0,21.514 -41.224,51.605 -60,43.797 z" id="path989"/>
          <path d="m 578.51842,-633.52402 c -51.65,-12.619 -37.085,-111.78 14.916,-101.54 22.412,4.4092 32.311,19.28 28.818,43.29 -0.83688,5.7516 -0.83688,9.7484 0,15.5 2.2442,15.424 -1.3042,28.529 -9.3043,34.363 -11.959,8.721 -22.533,11.298 -34.43,8.3918 z" id="path987"/>
        </g>
        <circle id="path841" cx="1711.1664" cy="-2474.4163" r="1372.6158" transform="rotate(90)" fill="#ffffff" fill-opacity="1" stroke="#000000" stroke-width="41.41493988" stroke-linecap="square" stroke-linejoin="round" stroke-opacity="1"/>
        <circle id="path841-3" cx="1711.1664" cy="-2474.4163" r="1268.7555" transform="rotate(90)" fill="none" fill-opacity="1" stroke="#000000" stroke-width="79.97781372" stroke-linecap="square" stroke-linejoin="round" stroke-opacity="1"/>
        <path id="path995-1-3" d="m 2398.274,1068.4562 c 6.2221,-8.1873 22.081,-36.1643 22.081,-38.9187 0,-0.2805 0.6186,-1.4166 1.375,-2.5244 0.7563,-1.1077 1.7502,-3.2092 2.2087,-4.6699 0.4586,-1.4607 1.5783,-4.5338 2.4884,-6.8292 0.91,-2.2954 2.3311,-5.8807 3.158,-7.9674 1.5332,-3.8686 7.0909,-21.0627 9.6883,-29.97247 4.8915,-16.77932 4.3942,-14.77228 9.1147,-36.80171 5.3086,-24.77247 5.857,-27.60283 7.2758,-37.56049 0.6244,-4.38208 1.4454,-8.99175 1.8245,-10.24378 0.3792,-1.25204 0.9171,-4.66662 1.1954,-7.58798 0.2784,-2.92137 0.9537,-7.36035 1.5005,-9.86437 0.5471,-2.50402 1.2154,-7.21909 1.4852,-10.47825 0.2699,-3.2588 0.8229,-6.79855 1.2288,-7.86573 0.4059,-1.0675 1.0735,-5.23034 1.4837,-9.25048 0.4102,-4.02042 1.2471,-10.72486 1.8599,-14.89822 1.1838,-8.06379 2.022,-14.37925 3.7787,-28.47468 0.5995,-4.81029 1.442,-10.27335 1.8723,-12.14075 0.4301,-1.86708 0.7906,-4.36756 0.8008,-5.55645 0.011,-1.18893 0.5094,-3.23772 1.1092,-4.55277 0.5997,-1.31513 1.7886,-5.8408 2.6417,-10.05713 1.5176,-7.45746 7.2086,-19.2735 9.3332,-19.27345 0.3776,-5e-5 0.4667,0.35582 0.1977,0.79087 -0.2688,0.43501 0.9061,3.0157 2.611,5.73483 2.4581,3.92046 3.4239,6.54502 4.6651,12.678 0.8609,4.25358 2.0559,8.80968 2.6557,10.12468 0.5998,1.31509 1.0991,3.36379 1.1092,4.55277 0.011,1.18903 0.3708,3.68932 0.8008,5.55645 0.4303,1.86708 1.2728,7.33041 1.8723,12.14075 1.7567,14.09548 2.5949,20.41088 3.7787,28.47464 0.6129,4.1734 1.4497,10.87739 1.8598,14.89825 0.4103,4.02042 1.0779,8.18366 1.4838,9.25049 0.4059,1.06763 0.9587,4.60733 1.2286,7.86573 0.2699,3.2588 0.9382,7.97418 1.4852,10.47825 0.5469,2.50402 1.2222,6.94299 1.5005,9.86436 0.2785,2.92137 0.8164,6.33595 1.1954,7.58798 0.3791,1.25199 1.2001,5.86171 1.8245,10.24374 1.3998,9.82418 2.5666,15.86647 7.1792,37.18112 0.8581,3.96473 2.262,10.45245 3.1201,14.41718 0.8581,3.96469 2.2562,9.59875 3.1069,12.52017 0.8506,2.92137 2.1936,7.53104 2.9845,10.24378 0.7907,2.71269 2.9557,9.71259 4.811,15.55533 3.1361,9.87574 4.1284,12.63934 8.1738,22.76394 0.8338,2.0867 1.8911,4.9891 2.3497,6.4498 0.4585,1.4607 1.4523,3.5622 2.2087,4.6699 0.7562,1.1078 1.375,2.2438 1.375,2.5244 0,2.7537 15.8482,30.7275 22.0492,38.918 4.8943,6.4653 5.0454,5.9641 -4.5497,15.094 -14.2169,13.5271 -26.3144,31.6107 -33.4205,49.9577 -1.2932,3.3387 -2.8498,6.9767 -3.4589,8.0842 -0.6091,1.1079 -1.1191,2.6444 -1.1334,3.4147 -0.015,0.7702 -0.6855,2.7663 -1.4918,4.4357 -0.8064,1.6693 -1.4927,3.5473 -1.5251,4.1734 -0.034,0.6259 -0.5647,2.504 -1.1826,4.1734 -0.618,1.6693 -1.4214,4.401 -1.7853,6.0703 -0.3641,1.6694 -1.8941,7.9863 -3.4002,14.0378 -3.9713,15.9552 -4.8586,20.1271 -5.7858,27.1983 -0.4565,3.4823 -1.1025,7.0677 -1.4355,7.9674 -0.3332,0.8997 -0.8344,4.2332 -1.1141,7.4077 -0.2795,3.1746 -0.8353,6.9114 -1.2346,8.3036 -0.3995,1.3925 -1.0894,6.1026 -1.5333,10.4668 -0.444,4.3643 -1.2694,10.0177 -1.8342,12.5635 -0.5649,2.5454 -1.2568,8.0425 -1.5378,12.2158 -0.2811,4.1734 -0.8491,9.2953 -1.2626,11.382 -0.4137,2.0867 -1.035,7.3794 -1.3809,11.7614 -0.8454,10.7089 -2.8539,27.7553 -4.2019,35.6635 -0.6047,3.5474 -1.3051,8.4985 -1.5563,11.0026 -1.2646,12.6044 -7.5251,19.5603 -15.0265,16.6951 -3.9596,-1.5122 -7.6244,-8.7801 -8.4181,-16.6951 -0.2512,-2.5041 -0.9515,-7.4552 -1.5562,-11.0026 -1.348,-7.9082 -3.3567,-24.9546 -4.202,-35.6635 -0.3458,-4.382 -0.9673,-9.6747 -1.3808,-11.7613 -0.4135,-2.0868 -0.9818,-7.2087 -1.2626,-11.382 -0.2811,-4.1734 -0.973,-9.6709 -1.5379,-12.2159 -0.5649,-2.5454 -1.3903,-8.1988 -1.8342,-12.5635 -0.444,-4.3643 -1.1338,-9.0744 -1.5333,-10.4668 -0.3993,-1.3925 -0.9549,-5.1292 -1.2346,-8.3035 -0.2796,-3.1746 -0.7809,-6.5081 -1.114,-7.4078 -0.3331,-0.8997 -0.979,-4.485 -1.4355,-7.9674 -0.9272,-7.0717 -1.8145,-11.2431 -5.7857,-27.1983 -1.5062,-6.0515 -3.0363,-12.3684 -3.4002,-14.0378 -0.3641,-1.6693 -1.1674,-4.401 -1.7854,-6.0703 -0.6179,-1.6694 -1.15,-3.5474 -1.1825,-4.1734 -0.034,-0.6262 -0.7189,-2.5041 -1.5253,-4.1734 -0.8063,-1.6694 -1.4776,-3.6655 -1.4918,-4.4357 -0.015,-0.7704 -0.5241,-2.3069 -1.1332,-3.4147 -0.6091,-1.1077 -2.1656,-4.7457 -3.4589,-8.0842 -7.1064,-18.347 -19.2044,-36.4306 -33.4205,-49.9577 -9.595,-9.1299 -9.444,-8.6283 -4.5497,-15.094 z" stroke-width="0.75879788"/>
        <path id="path993-6" d="m 2402.871,2344.9569 c 14.0977,-13.2941 26.2772,-31.481 33.4046,-49.8803 1.2933,-3.3388 2.8498,-6.9767 3.4589,-8.0843 0.6091,-1.1073 1.1192,-2.6443 1.1334,-3.4146 0.015,-0.771 0.6854,-2.7663 1.4918,-4.4357 0.8064,-1.6694 1.4927,-3.5473 1.5252,-4.1734 0.033,-0.6261 0.5646,-2.504 1.1826,-4.1734 0.6179,-1.6693 1.4213,-4.4011 1.7853,-6.0703 0.364,-1.6694 1.894,-7.9864 3.4001,-14.0378 3.9713,-15.956 4.8586,-20.1272 5.7858,-27.1985 0.4566,-3.4823 1.1025,-7.0677 1.4355,-7.9673 0.3332,-0.8991 0.8344,-4.2332 1.1141,-7.4077 0.2796,-3.1745 0.8352,-6.9114 1.2346,-8.3036 0.3995,-1.3929 1.0893,-6.1026 1.5333,-10.4669 0.4439,-4.3643 1.2694,-10.0176 1.8342,-12.5634 0.5648,-2.5452 1.2569,-8.0424 1.5378,-12.2158 0.2811,-4.1734 0.8492,-9.2953 1.2627,-11.382 0.4135,-2.0867 1.035,-7.3792 1.3808,-11.7613 0.8454,-10.709 2.8539,-27.7554 4.2019,-35.6635 0.6048,-3.5474 1.3052,-8.4986 1.5564,-11.0026 2.3222,-23.1456 21.1226,-23.1456 23.4445,0 0.2513,2.504 0.9515,7.4552 1.5563,11.0026 1.348,7.9081 3.3566,24.9545 4.2019,35.6634 0.3459,4.3822 0.9674,9.6747 1.3809,11.7614 0.4135,2.0867 0.9818,7.2086 1.2626,11.382 0.2811,4.1734 0.9729,9.6709 1.5379,12.2158 0.5649,2.5455 1.3902,8.1989 1.8341,12.5634 0.4441,4.3644 1.1339,9.0746 1.5334,10.4669 0.3993,1.393 0.9549,5.1292 1.2346,8.3036 0.2796,3.1745 0.781,6.5081 1.1141,7.4077 0.3331,0.8991 0.9789,4.485 1.4356,7.9673 0.9271,7.0718 1.8145,11.2432 5.7857,27.1985 1.5062,6.0514 3.0362,12.3684 3.4002,14.0378 0.364,1.6692 1.1674,4.401 1.7853,6.0703 0.6179,1.6694 1.15,3.5474 1.1825,4.1734 0.034,0.6261 0.7189,2.504 1.5252,4.1734 0.8064,1.6694 1.4777,3.6655 1.4919,4.4357 0.015,0.7696 0.5241,2.3069 1.1332,3.4146 0.6093,1.1073 2.1657,4.7458 3.4589,8.0843 7.1064,18.3468 19.2045,36.4306 33.4205,49.9577 9.595,9.1298 9.444,8.6282 4.5497,15.094 -6.2008,8.1912 -22.0491,36.1643 -22.0491,38.9187 0,0.28 -0.6187,1.4166 -1.3751,2.5243 -0.7562,1.1073 -1.7502,3.2092 -2.2087,4.67 -0.4585,1.4607 -1.5783,4.5337 -2.4883,6.8291 -0.9101,2.2955 -2.3313,5.8808 -3.1582,7.9675 -1.5331,3.8685 -7.0909,21.0627 -9.6883,29.9726 -0.7909,2.7126 -2.1338,7.3222 -2.9845,10.2437 -0.8507,2.9213 -2.2488,8.5555 -3.1069,12.5202 -0.858,3.9646 -2.262,10.4524 -3.1201,14.417 -4.6126,21.3148 -5.7793,27.3571 -7.1791,37.1811 -0.6245,4.3821 -1.4455,8.9918 -1.8246,10.2439 -0.379,1.2522 -0.9169,4.6666 -1.1953,7.5879 -0.2785,2.9214 -0.9537,7.3604 -1.5006,9.8644 -0.5469,2.504 -1.2154,7.219 -1.4852,10.4774 -0.2699,3.2589 -0.8228,6.7986 -1.2286,7.8658 -0.4059,1.0679 -1.0735,5.2304 -1.4838,9.2513 -0.4102,4.0204 -1.247,10.7249 -1.8598,14.8981 -1.1839,8.0638 -2.0221,14.3793 -3.7788,28.4748 -0.5995,4.8103 -1.442,10.2733 -1.8722,12.1408 -0.4302,1.8671 -0.7906,4.3674 -0.8008,5.5565 -0.011,1.1889 -0.5092,3.2376 -1.1091,4.5527 -0.5999,1.3156 -1.789,5.8428 -2.6427,10.0617 -1.3951,6.8952 -6.6613,18.4541 -8.4075,18.4541 -1.7462,-2e-4 -7.0124,-11.5596 -8.4075,-18.4541 -0.8536,-4.2187 -2.0428,-8.7466 -2.6426,-10.0617 -0.5999,-1.3155 -1.099,-3.3638 -1.1092,-4.5527 -0.011,-1.1889 -0.3704,-3.6894 -0.8008,-5.5566 -0.4303,-1.8671 -1.2728,-7.3304 -1.8723,-12.1408 -1.7567,-14.0954 -2.5949,-20.4108 -3.7788,-28.4747 -0.6127,-4.1734 -1.4496,-10.8773 -1.8598,-14.8981 -0.4102,-4.0205 -1.0778,-8.1837 -1.4837,-9.2513 -0.4059,-1.0679 -0.9587,-4.6073 -1.2286,-7.8658 -0.2699,-3.2587 -0.9381,-7.9734 -1.4852,-10.4774 -0.5469,-2.504 -1.2221,-6.943 -1.5006,-9.8644 -0.2784,-2.9213 -0.8163,-6.336 -1.1954,-7.5879 -0.379,-1.2522 -1.2,-5.8618 -1.8245,-10.2439 -1.4189,-9.9575 -1.9672,-12.788 -7.2758,-37.5604 -3.8628,-18.0259 -4.6922,-21.6197 -6.1303,-26.5579 -0.8507,-2.9213 -2.1937,-7.5311 -2.9845,-10.2437 -2.5971,-8.9099 -8.1549,-26.1044 -9.6884,-29.9726 -0.8269,-2.0867 -2.248,-5.672 -3.1581,-7.9674 -0.9101,-2.2953 -2.0298,-5.3685 -2.4882,-6.8292 -0.4586,-1.4608 -1.4525,-3.5623 -2.2088,-4.67 -0.7563,-1.1072 -1.375,-2.2437 -1.375,-2.5243 0,-2.7537 -15.8483,-30.7275 -22.0492,-38.9187 -4.9024,-6.4759 -5.0005,-6.1498 4.5661,-15.1707 z" stroke-width="0.75879788"/>
        <path d="m 2581.1817,1871.2429 c 7.6633,7.7698 14.8529,16.106 21.4599,25.1271 14.4762,19.7656 28.5025,43.9576 29.5855,69.0333 1.0026,23.217 -12.5457,47.9172 -37.9685,49.6937 -11.1743,0.8527 -20.269,-5.7743 -24.745,-15.6804 -5.5295,-12.2378 2.6655,-19.1647 8.9051,-28.8885 14.2629,-22.2268 1.8975,-44.6705 -11.4468,-63.7668 -20.7504,-29.6944 -50.0399,-53.234 -81.0286,-73.2824 -30.9885,20.0484 -60.278,43.5877 -81.0286,73.2824 -13.3441,19.0959 -25.7097,41.54 -11.447,63.7668 6.2396,9.7239 14.4346,16.6507 8.9052,28.8885 -4.4761,9.906 -13.5707,16.533 -24.7451,15.6804 -25.4225,-1.7765 -38.9712,-26.4767 -37.9686,-49.6937 1.0834,-25.0757 15.1095,-49.2676 29.5858,-69.0333 30.2033,-41.2389 72.581,-68.1607 116.6971,-92.1663 34.4655,18.7543 67.8723,39.2885 95.2396,67.0392 z m 13.0769,143.8541 c 7.2839,-0.5089 -7.648,0.5835 0,0 z m -62.2913,-125.2846 c 0.9215,0.9341 1.8412,1.8761 2.7486,2.8344 13.3677,14.1072 28.3172,30.6612 33.1876,50.0032 4.234,16.8136 -4.3303,43.5342 -26.3075,39.513 -9.4334,-1.5737 -18.5775,-12.9224 -20.7637,-21.7729 -1.3132,-5.2197 1.2664,-10.3474 4.6643,-14.1549 4.2898,-4.8066 8.0229,-5.0179 13.8934,-5.9543 -0.7594,-3.5159 -1.6723,-6.9967 -2.4097,-10.5175 -4.8201,4.4957 -8.5991,8.9272 -15.434,10.1487 -7.3629,1.3157 -14.928,-0.1861 -20.5437,-5.2819 -7.9192,-7.1864 -11.6308,-17.754 -15.0594,-28.0438 -3.4288,10.2898 -7.1404,20.8574 -15.0593,28.0438 -5.6158,5.096 -13.1811,6.5976 -20.5438,5.2819 -6.835,-1.2214 -10.6139,-5.653 -15.4342,-10.1487 -0.7374,3.5208 -1.65,7.0016 -2.4097,10.5175 5.8705,0.9362 9.6037,1.1477 13.8934,5.9543 3.3979,3.8074 5.9777,8.9354 4.6645,14.1551 -2.1862,8.8503 -11.3304,20.1991 -20.7636,21.7727 -21.9773,4.0213 -30.5418,-22.6995 -26.3077,-39.5129 4.8708,-19.342 19.82,-35.8961 33.1876,-50.0033 14.5252,-15.3289 31.1593,-27.136 48.7728,-38.4922 16.5125,10.6464 32.1638,21.6883 46.0241,35.6578 z m -101.6768,92.3505 c 4.4446,-0.7415 -5.8755,1.0751 0,0 z m 111.3055,10e-5 c 5.8755,1.0753 -4.4447,-0.7416 0,0 z m -161.767,33.1103 c -0.6316,-0.038 -7.6653,-0.5566 -2.2025,-0.1749 1.9121,0.1459 2.4132,0.1872 2.2025,0.1749 z" id="path2-6-1-7-6" stroke-width="0.86158019"/>
        <path d="m 2587.3824,1564.2554 c 7.6632,-7.7697 14.8529,-16.106 21.4599,-25.1271 14.4762,-19.7656 28.5024,-43.9575 29.5854,-69.0332 1.0026,-23.2171 -12.5456,-47.9172 -37.9684,-49.6938 -11.1744,-0.8526 -20.2691,5.7743 -24.7451,15.6805 -5.5295,12.2377 2.6656,19.1645 8.9052,28.8884 14.2628,22.2268 1.8975,44.6707 -11.4467,63.7668 -20.7506,29.6945 -50.04,53.234 -81.0289,73.2824 -30.9884,-20.0484 -60.2778,-43.5877 -81.0285,-73.2824 -13.3441,-19.0959 -25.7097,-41.54 -11.4469,-63.7668 6.2396,-9.7238 14.4346,-16.6507 8.9052,-28.8884 -4.4761,-9.9061 -13.5707,-16.5331 -24.7451,-15.6805 -25.4225,1.7766 -38.9712,26.4768 -37.9687,49.6938 1.0834,25.0757 15.1096,49.2676 29.5859,69.0333 30.2033,41.2389 72.581,68.1607 116.6971,92.1662 34.4656,-18.7542 67.8723,-39.2884 95.2396,-67.0392 z m 13.0769,-143.8541 c 7.2839,0.5089 -7.648,-0.5834 0,0 z m -62.2913,125.2846 c 0.9214,-0.9341 1.8411,-1.8761 2.7486,-2.8343 13.3676,-14.1073 28.3171,-30.6612 33.1876,-50.0033 4.234,-16.8136 -4.3304,-43.534 -26.3075,-39.513 -9.4335,1.5739 -18.5775,12.9225 -20.7638,21.7729 -1.3131,5.2196 1.2666,10.3475 4.6644,14.1549 4.2898,4.8065 8.0229,5.0181 13.8933,5.9543 -0.7593,3.5158 -1.6722,6.9967 -2.4096,10.5175 -4.8201,-4.4957 -8.5991,-8.9272 -15.4341,-10.1487 -7.3628,-1.3157 -14.9279,0.1857 -20.5437,5.2819 -7.9191,7.1863 -11.6307,17.754 -15.0594,28.0438 -3.4287,-10.2898 -7.1403,-20.8574 -15.0593,-28.0438 -5.6157,-5.096 -13.181,-6.5976 -20.5436,-5.2819 -6.8352,1.2215 -10.614,5.653 -15.4343,10.1486 -0.7374,-3.5207 -1.6501,-7.0016 -2.4097,-10.5174 5.8705,-0.9362 9.6036,-1.1478 13.8934,-5.9543 3.3979,-3.8074 5.9777,-8.9353 4.6645,-14.1551 -2.1862,-8.8503 -11.3304,-20.1991 -20.7637,-21.7727 -21.9772,-4.0214 -30.5416,22.6994 -26.3076,39.5129 4.8707,19.342 19.82,35.896 33.1875,50.0033 14.5252,15.3289 31.1594,27.136 48.7728,38.4921 16.5126,-10.6463 32.164,-21.6883 46.0242,-35.6577 z m -101.6769,-92.3505 c 4.4447,0.7415 -5.8753,-1.0751 0,0 z m 111.3056,-10e-5 c 5.8754,-1.0751 -4.4447,0.7415 0,0 z m -161.767,-33.1101 c -0.6316,0.038 -7.6653,0.5564 -2.2025,0.1749 1.9121,-0.1459 2.4131,-0.1873 2.2025,-0.1749 z" id="path2-6-3-6" stroke-width="0.86158019"/>
        <path id="path1015-5-1" d="m 2182.1838,1709.2207 c 2.603,-0.9116 30.5842,-5.6565 36.2777,-6.1519 12.3548,-1.075 34.3674,-4.1112 38.719,-5.3407 2.4576,-0.6942 5.2112,-1.2622 6.1191,-1.2622 1.6126,0 9.5182,-1.8086 23.6628,-5.4135 3.8643,-0.9849 8.716,-2.5409 10.782,-3.4579 2.0657,-0.917 4.2317,-1.6673 4.8132,-1.6674 1.0679,0 3.1065,-0.7489 18.2168,-6.6934 9.8844,-3.8888 29.3714,-13.4306 35.568,-17.416 2.4151,-1.5533 7.3552,-4.6908 10.9778,-6.9721 28.7179,-18.0844 41.2905,-30.6579 59.3748,-59.3748 2.2814,-3.6227 5.4188,-8.5627 6.9722,-10.9779 3.9852,-6.1963 13.5272,-25.6835 17.4159,-35.5679 5.9446,-15.1099 6.6936,-17.1481 6.6936,-18.2171 0,-0.5813 0.7502,-2.7472 1.6673,-4.8131 0.9171,-2.0658 2.473,-6.9175 3.4578,-10.7819 3.605,-14.1455 5.4136,-22.0504 5.4136,-23.6627 0,-0.9079 0.5697,-3.6616 1.2662,-6.1192 1.1576,-4.0858 3.4342,-20.5705 5.7711,-41.7928 0.5052,-4.5886 1.994,-14.0734 3.3082,-21.0773 l 2.3893,-12.7342 h 3.9513 3.9515 l 2.3893,12.7342 c 1.3141,7.0038 2.8028,16.4887 3.3081,21.0773 2.3369,21.2223 4.6133,37.7074 5.7712,41.7928 0.6964,2.4576 1.2661,5.2113 1.2661,6.1192 0,1.6125 1.8087,9.5181 5.4136,23.6627 0.9849,3.8642 2.5409,8.716 3.4579,10.7819 0.917,2.0659 1.6673,4.2317 1.6673,4.8131 0,1.0684 0.749,3.1068 6.6935,18.2171 3.8886,9.8844 13.4306,29.3713 17.416,35.5679 1.5533,2.4153 4.6907,7.3552 6.972,10.9779 18.2205,28.9329 31.3202,42.0334 60.2531,60.253 3.6227,2.2813 8.5627,5.4188 10.9778,6.9721 6.1963,3.9853 25.6836,13.5272 35.568,17.4159 15.1098,5.9446 17.1481,6.6936 18.217,6.6936 0.5815,0 2.7473,0.7503 4.8131,1.6673 2.0658,0.9171 6.9176,2.473 10.782,3.4579 14.1454,3.6049 22.0502,5.4135 23.6627,5.4135 0.9078,0 3.6615,0.5697 6.1191,1.2662 4.0859,1.1578 20.5706,3.4342 41.7928,5.7712 4.5887,0.5053 14.0735,1.994 21.0773,3.3082 l 12.7343,2.3892 v 3.9514 l -10e-5,3.9514 -12.7342,2.3893 c -7.0038,1.3142 -16.4887,2.8029 -21.0772,3.3082 -21.2223,2.3369 -37.7075,4.6134 -41.7929,5.7711 -2.4575,0.6965 -5.2113,1.2662 -6.1191,1.2662 -1.6125,0 -9.5182,1.8086 -23.6627,5.4136 -3.8643,0.9848 -8.716,2.5408 -10.782,3.4578 -2.0658,0.9171 -4.2317,1.6673 -4.8131,1.6673 -1.0682,0 -3.1067,0.749 -18.217,6.6935 -9.8844,3.8888 -29.3713,13.4307 -35.568,17.4161 -2.4151,1.5533 -7.3551,4.6906 -10.9778,6.9721 -28.7178,18.0843 -41.2904,30.6578 -59.3748,59.3748 -2.2814,3.6226 -5.4188,8.5626 -6.9721,10.9778 -3.9852,6.1963 -13.5272,25.6835 -17.416,35.5679 -5.9445,15.1097 -6.6935,17.1482 -6.6935,18.217 0,0.5815 -0.7503,2.7473 -1.6674,4.8132 -0.9169,2.0657 -2.4729,6.9175 -3.4577,10.7819 -3.6049,14.1454 -5.4136,22.0504 -5.4136,23.6628 0,0.9078 -0.5699,3.6615 -1.2662,6.1191 -1.1579,4.0858 -3.4342,20.5705 -5.7713,41.7927 -0.5051,4.5888 -1.9939,14.0736 -3.3081,21.0773 l -2.3892,12.7343 h -3.9515 -3.9513 l -2.3893,-12.7343 c -1.3142,-7.0037 -2.8029,-16.4885 -3.3082,-21.0773 -2.3369,-21.2222 -4.6133,-37.7074 -5.7712,-41.7927 -0.6963,-2.4576 -1.266,-5.2112 -1.2661,-6.1191 0,-1.6126 -1.8087,-9.5182 -5.4137,-23.6628 -0.9849,-3.8643 -2.5408,-8.7161 -3.4577,-10.7819 -0.9171,-2.0659 -1.6673,-4.2318 -1.6673,-4.8132 0,-1.0682 -0.7491,-3.1066 -6.6935,-18.217 -3.8888,-9.8844 -13.4308,-29.3713 -17.4162,-35.5679 -1.5532,-2.4152 -4.6906,-7.3552 -6.9721,-10.9778 -18.2204,-28.9331 -31.32,-42.0335 -60.2529,-60.253 -3.6227,-2.2814 -8.5627,-5.4189 -10.9779,-6.9722 -6.1963,-3.9853 -25.6836,-13.5272 -35.5679,-17.416 -15.1098,-5.9446 -17.1481,-6.6935 -18.217,-6.6936 -0.581,0 -2.7474,-0.7503 -4.8131,-1.6672 -2.0658,-0.917 -6.9175,-2.473 -10.7819,-3.4578 -14.1455,-3.605 -22.0504,-5.4136 -23.6629,-5.4136 -0.9075,0 -3.6616,-0.5698 -6.119,-1.2661 -4.0859,-1.1578 -20.5705,-3.4342 -41.7928,-5.7712 -4.5888,-0.5053 -14.0736,-1.9938 -21.0773,-3.3079 l -12.7342,-2.3891 -0.2702,-3.7404 c -0.1801,-2.4913 0.1126,-3.8749 0.878,-4.1428 z" stroke-width="0.87822151"/>
        <path id="path1013-6-7" d="m 2308.6483,1714.5818 c 12.5695,1.9253 49.2421,16.9675 68.7311,28.1908 3.8934,2.2423 7.2206,4.0769 7.3936,4.0768 0.4406,10e-5 17.8302,11.3084 24.1525,15.7057 15.1342,10.5275 16.7125,12.1058 27.2401,27.2401 4.3977,6.3219 15.7056,23.7116 15.7056,24.1525 0,0.173 1.8346,3.5002 4.0768,7.3935 11.2241,19.489 26.2658,56.1617 28.1908,68.7312 0.2717,1.7737 0.7754,3.2249 1.1194,3.2249 0.3441,0 0.8476,-1.4512 1.1194,-3.2249 1.9254,-12.5695 16.9675,-49.2422 28.1909,-68.7312 2.2423,-3.8934 4.0768,-7.2205 4.0768,-7.3935 0,-0.4714 11.4776,-18.0898 16.0289,-24.6056 10.2065,-14.6106 11.0936,-15.4977 25.705,-25.705 6.5154,-4.5515 24.1343,-16.0288 24.6056,-16.0288 0.173,0 3.5001,-1.8346 7.3935,-4.0769 19.489,-11.2241 56.1617,-26.2657 68.7311,-28.1908 1.7737,-0.2717 3.2249,-0.7754 3.2249,-1.1194 0,-0.344 -1.4512,-0.8477 -3.2249,-1.1194 -12.5694,-1.9253 -49.2421,-16.9675 -68.7311,-28.1908 -3.8934,-2.2423 -7.2205,-4.0768 -7.3935,-4.0768 -0.4407,0 -17.8303,-11.3084 -24.1526,-15.7056 -15.1342,-10.5276 -16.7125,-12.106 -27.2401,-27.2401 -4.3976,-6.3221 -15.7056,-23.7117 -15.7056,-24.1526 0,-0.1731 -1.8346,-3.5002 -4.0768,-7.3935 -11.2241,-19.489 -26.2658,-56.1617 -28.1908,-68.7312 -0.2719,-1.7737 -0.7754,-3.2249 -1.1194,-3.2249 -0.3441,0 -0.8478,1.4512 -1.1194,3.2249 -1.9253,12.5695 -16.9675,49.2421 -28.1909,68.7312 -2.2422,3.8933 -4.0768,7.2205 -4.0768,7.3935 0,1.0336 -16.8256,26.064 -23.4439,34.8759 -3.3784,4.4982 -6.9533,7.515 -18.29,15.4339 -6.5154,4.5515 -24.1343,16.0289 -24.6055,16.0289 -0.1731,0 -3.5002,1.8345 -7.3936,4.0768 -19.489,11.2241 -56.1616,26.2658 -68.7311,28.1909 -1.7738,0.2717 -3.225,0.7754 -3.225,1.1194 0,0.344 1.4512,0.8475 3.225,1.1192 z" stroke-width="0.75879794"/>
        <path id="path1011-2-9" d="m 2365.9375,1710.6551 c 3.4488,-2.6375 7.4164,-5.2172 13.4686,-8.7573 4.8606,-2.8431 7.0211,-3.8723 14.7966,-7.0496 8.9098,-3.6406 28.4869,-12.9724 31.2276,-14.8846 4.2166,-2.9425 6.9418,-1.7585 23.0264,10.0032 7.5047,5.488 17.907,9.3287 19.8912,7.3444 1.9843,-1.9844 -1.8564,-12.3866 -7.3444,-19.8912 -11.7621,-16.0842 -12.9458,-18.8098 -10.0032,-23.0265 1.9127,-2.741 11.2447,-22.3185 14.8846,-31.2275 4.1111,-10.0609 6.4368,-14.4005 13.0931,-24.431 5.936,-8.9455 6.3269,-8.7247 17.082,9.6345 2.8458,4.858 3.8729,7.0125 7.0536,14.7965 3.6406,8.9098 12.9725,28.4868 14.8846,31.2276 2.9425,4.2166 1.7585,6.9418 -10.0032,23.0265 -14.6554,20.0406 -6.7349,27.9609 13.3055,13.3055 16.0843,-11.7621 18.8099,-12.9459 23.0265,-10.0033 2.741,1.9127 22.3186,11.2447 31.2276,14.8846 10.0609,4.1111 14.4004,6.4368 24.431,13.0931 8.9455,5.936 8.7247,6.3269 -9.6344,17.082 -4.858,2.8458 -7.0127,3.8729 -14.7966,7.0537 -8.9098,3.6405 -28.4868,12.9724 -31.2276,14.8845 -4.2166,2.9425 -6.9418,1.7585 -23.0265,-10.0032 -7.5046,-5.4879 -17.9068,-9.3287 -19.8911,-7.3443 -1.9843,1.9843 1.8564,12.3866 7.3443,19.8911 11.7622,16.0842 12.9459,18.8099 10.0033,23.0265 -1.9127,2.741 -11.2447,22.3185 -14.8846,31.2276 -4.1111,10.0609 -6.4368,14.4004 -13.0931,24.431 -5.5543,8.3703 -5.4884,8.3703 -11.0428,0 -6.656,-10.0306 -8.9818,-14.3701 -13.093,-24.431 -3.6406,-8.9098 -12.9725,-28.4868 -14.8846,-31.2276 -2.9425,-4.2166 -1.7585,-6.9418 10.0032,-23.0265 6.0434,-8.264 9.3537,-17.894 6.9709,-20.2766 -2.3829,-2.3829 -12.0124,0.9277 -20.2765,6.971 -16.0843,11.7621 -18.8099,12.9458 -23.0265,10.0032 -2.741,-1.9127 -22.3185,-11.2446 -31.2276,-14.8846 -7.7754,-3.1773 -9.9357,-4.2065 -14.7965,-7.0496 -9.1982,-5.3803 -16.3142,-10.4243 -16.3142,-11.5648 0,-0.3474 1.2805,-1.6105 2.8455,-2.8074 z" fill="#ffffff" fill-opacity="1" stroke-width="0.75879794"/>
        <path id="path991-2-2" d="m 2419.211,1350.9674 c 5.2228,-14.2859 32.5798,-36.269 36.348,-29.2076 1.4849,2.7824 -2.8038,15.6615 -6.759,20.2978 -3.7904,4.443 -2.1969,9.6671 5.125,16.8013 7.5783,7.384 25.1207,12.8601 35.3144,11.0238 16.5691,-2.9849 25.8249,-8.431 31.5227,-18.548 2.6298,-4.6697 2.5731,-5.5949 -0.5681,-9.2771 -3.9552,-4.636 -8.2436,-17.5153 -6.759,-20.2978 3.8455,-7.2055 31.343,15.1304 36.4049,29.5711 6.3493,18.1148 -14.584,39.2845 -47.1312,47.6646 -40.7034,10.479 -93.7343,-20.0247 -83.4981,-48.0273 z" stroke-width="0.75879794"/>
        <path id="path989-7-0" d="m 2420.3492,2061.8093 c 6.2252,-14.9702 23.2154,-26.9722 46.7632,-33.035 40.5024,-10.4274 93.3473,19.7197 83.5513,47.6647 -5.0616,14.4406 -32.5593,36.7766 -36.4049,29.5711 -1.4849,-2.7825 2.8038,-15.6616 6.7589,-20.2978 3.7905,-4.443 2.197,-9.6672 -5.1249,-16.8014 -7.5783,-7.3839 -25.1208,-12.8601 -35.3144,-11.0238 -16.5691,2.9849 -25.825,8.4311 -31.5228,18.5481 -2.6298,4.6696 -2.5731,5.5948 0.5682,9.2771 6.5038,7.6235 9.0646,21.6257 3.9553,21.6257 -16.3248,0 -39.1577,-31.2807 -33.233,-45.5279 z" stroke-width="0.75879794"/>
      </g>
    </g>
  </g>
</svg>
