<?xml version="1.0" encoding="UTF-8" standalone="no"?>
<svg
   xmlns:dc="http://purl.org/dc/elements/1.1/"
   xmlns:cc="http://creativecommons.org/ns#"
   xmlns:rdf="http://www.w3.org/1999/02/22-rdf-syntax-ns#"
   xmlns:svg="http://www.w3.org/2000/svg"
   xmlns="http://www.w3.org/2000/svg"
   xmlns:sodipodi="http://sodipodi.sourceforge.net/DTD/sodipodi-0.dtd"
   xmlns:inkscape="http://www.inkscape.org/namespaces/inkscape"
   version="1.1"
   id="Layer_1"
   x="0px"
   y="0px"
   viewBox="0 0 512.00002 512.00002"
   enable-background="new 0 0 1646.565 1646.565"
   xml:space="preserve"
   sodipodi:docname="unlink.fl.svg"
   width="512"
   height="512"
   inkscape:version="0.92.3 (2405546, 2018-03-11)"><metadata
   id="metadata11"><rdf:RDF><cc:Work
       rdf:about=""><dc:format>image/svg+xml</dc:format><dc:type
         rdf:resource="http://purl.org/dc/dcmitype/StillImage" /><dc:title></dc:title></cc:Work></rdf:RDF></metadata><defs
   id="defs9" /><sodipodi:namedview
   pagecolor="#ffffff"
   bordercolor="#666666"
   borderopacity="1"
   objecttolerance="10"
   gridtolerance="10"
   guidetolerance="10"
   inkscape:pageopacity="0"
   inkscape:pageshadow="2"
   inkscape:window-width="1920"
   inkscape:window-height="1050"
   id="namedview7"
   showgrid="false"
   inkscape:zoom="0.28665738"
   inkscape:cx="-499.96531"
   inkscape:cy="-66.83391"
   inkscape:window-x="0"
   inkscape:window-y="28"
   inkscape:window-maximized="1"
   inkscape:current-layer="g4" />
<g
   id="g4"
   transform="matrix(0.28371738,-0.71628262,0.71628262,-0.28371738,13.953964,585.25916)">
	<path
   style="opacity:1;fill:#ffffff;fill-opacity:1;stroke:none;stroke-width:6.08182859;stroke-linecap:square;stroke-linejoin:round;stroke-miterlimit:4;stroke-dasharray:none;stroke-dashoffset:0;stroke-opacity:1"
   d="M 158.10961,412.17539 C 93.884337,347.95011 77.397247,325.11652 75.696417,235.98909 75.118387,205.69887 83.091347,84.07693 90.922077,56.89351 106.13289,4.0911105 125.07274,-8.2769895 146.84553,-51.01699 c 37.76827,-18.8678 67.73777,-41.3905 116.56559,-59.2613 32.3074,-11.8244 142.73542,-10.4829 178.22525,-9.8056 89.12743,1.7008 104.98523,14.0634 169.2105,78.2887 64.22527,64.2252 77.62894,83.9754 79.32977,173.10282 1.37119,71.85412 19.11523,108.61555 -13.78141,179.4893 -7.90817,17.03765 -31.80582,65.59624 -56.94328,110.79249 -33.82883,15.5143 -84.55089,52.92095 -126.68213,69.47501 -35.05368,13.77316 -121.88889,3.2555 -162.36629,2.48306 -89.12742,-1.70083 -108.06864,-17.14682 -172.29392,-81.3721 z"
   id="path852"
   inkscape:connector-curvature="0"
   sodipodi:nodetypes="sssccsssscsss" /><path
   d="m 643.51307,28.838935 c 8.85427,22.014288 18.9843,46.353425 17.27659,57.834674 -1.10493,16.042851 -13.59885,17.477761 -18.93874,14.002671 -4.8247,-3.253051 -5.07674,-13.996746 4.81522,-17.115079 3.41229,-0.811091 7.36538,0.451966 9.4146,3.365256 0.9051,1.260685 1.08961,2.84218 1.21014,4.345043 3.85277,-5.906379 -5.09138,-16.086299 -15.59763,-12.355207 -15.74649,4.977568 -16.16203,28.208407 0.63422,32.816187 12.00706,3.39133 27.4862,-4.16609 28.45055,-24.454016 0.26667,-1.99157 -0.13151,-4.242318 -0.0136,-6.072309 0.0624,0.09043 0.19048,0.269048 0.25285,0.359124 9.82674,31.015821 15.71463,75.502531 -11.28255,87.715501 -13.22548,6.14106 -38.75615,3.32418 -41.28191,-23.42245 -0.74431,-29.99692 32.54206,-32.5815 42.75398,-16.29648 3.85589,5.88268 4.93764,12.76134 3.29054,18.22128 -2.56169,5.80604 -9.04638,4.20361 -11.57404,4.70299 -8.98848,0.99717 -7.79814,7.56807 -1.99959,7.53646 7.90795,0.24022 14.54787,-9.05711 15.07689,-16.95231 1.81819,-24.92888 -29.68673,-33.99349 -44.51714,-17.01985 -9.68209,10.95189 -8.76072,34.87215 7.30532,45.89832 4.64616,3.23883 10.15823,5.09964 15.75287,5.79496 39.25086,5.85582 70.11925,-45.20614 46.83587,-109.551335 C 684.50593,49.793339 671.56056,27.769493 661.6244,12.085472 Z M 562.0645,-91.90238 c -16.54246,-10.56792 -41.87695,-23.332 -61.4045,-30.62531 -64.34565,-23.28339 -115.40726,7.58545 -109.55137,46.835836 0.69536,5.595058 2.55654,11.106765 5.79502,15.752852 11.02604,16.066152 34.94635,16.987073 45.89823,7.30535 16.97372,-14.829952 7.90904,-46.335276 -17.01981,-44.517134 -7.89521,0.529393 -17.19254,7.169043 -16.9523,15.076875 -0.0312,5.798529 6.53919,6.988891 7.53648,-1.999474 0.49932,-2.5277 -1.10304,-9.012469 4.70296,-11.574145 5.45988,-1.647467 12.33895,-0.565348 18.22128,3.290595 16.285,10.211522 13.7004,43.49784 -16.29652,42.753913 -26.74664,-2.526114 -29.56348,-28.056703 -23.42248,-41.281867 12.213,-26.997501 56.69977,-21.109691 87.71553,-11.282561 0.0908,0.0624 0.26912,0.19041 0.35914,0.25284 -1.82999,0.12094 -4.0804,-0.27774 -6.07227,-0.0108 -20.28798,0.96437 -27.84534,16.443441 -24.45407,28.450586 4.60738,16.796251 27.8387,16.380632 32.8162,0.634098 3.73116,-10.506248 -6.44876,-19.450375 -12.35522,-15.597591 1.50285,0.120526 3.08433,0.304989 4.34504,1.210115 2.91324,2.049257 4.17639,6.00238 3.36525,9.414653 -3.11836,9.891904 -13.862,9.63945 -17.11499,4.81519 -3.47479,-5.339851 -2.04027,-17.833331 14.00259,-18.938756 11.99337,-1.783828 39.93538,8.093597 63.21998,17.514053 z m 63.45641,519.55759 c 10.49636,-41.37195 47.84727,-76.63365 65.85949,-124.86094 23.28338,-64.34559 -7.58542,-115.40716 -46.83587,-109.55135 -5.59464,0.69533 -11.10671,2.55654 -15.75287,5.79497 -16.06604,11.02617 -16.987,34.94643 -7.30532,45.89832 14.83,16.97364 46.33533,7.90903 44.51713,-17.01987 -0.52901,-7.89518 -7.16907,-17.1925 -15.07689,-16.95229 -5.79854,-0.0316 -6.98889,6.53929 1.99946,7.53646 2.5278,0.49938 9.01249,-1.10305 11.57418,4.70298 1.6475,5.45995 0.56534,12.339 -3.29054,18.22129 -10.21151,16.28502 -43.49789,13.70044 -42.75399,-16.29648 2.52617,-26.74663 28.05671,-29.56351 41.28191,-23.42247 26.99746,12.21299 21.10971,56.6997 11.28255,87.71553 -0.0624,0.0904 -0.19034,0.26905 -0.25284,0.35912 -0.12067,-1.82999 0.27779,-4.08035 0.0136,-6.07232 -0.96448,-20.28794 -16.44348,-27.84533 -28.45068,-24.45401 -16.79625,4.60738 -16.38058,27.83862 -0.63408,32.81619 10.50624,3.73109 19.4504,-6.44883 15.59763,-12.3552 -0.12066,1.50286 -0.30505,3.08435 -1.21014,4.34504 -2.04922,2.91329 -6.00232,4.17635 -9.4146,3.36526 -9.89196,-3.11834 -9.63952,-13.86204 -4.81522,-17.11509 5.33989,-3.47469 17.8334,-2.04018 18.93874,14.00268 3.70391,24.90241 -32.94974,84.36329 -42.66464,135.94636 -51.58303,9.71491 -111.04392,46.36846 -135.94633,42.66462 -16.04286,-1.10503 -17.47779,-13.5989 -14.00273,-18.93874 3.25312,-4.82467 13.99676,-5.07673 17.11512,4.81518 0.81115,3.41227 -0.452,7.36539 -3.36524,9.41465 -1.26071,0.90513 -2.84219,1.08963 -4.34504,1.21013 5.90632,3.85277 16.08624,-5.09134 12.35522,-15.59759 -4.97764,-15.74654 -28.20841,-16.16216 -32.8162,0.6341 -3.39127,12.00713 4.16608,27.4862 24.45407,28.45058 1.99146,0.26668 4.24228,-0.13191 6.07227,-0.0108 -0.0908,0.0624 -0.26912,0.19043 -0.35914,0.25285 -31.01576,9.82672 -75.50253,15.71452 -87.71553,-11.28258 -6.14101,-13.22556 -3.32416,-38.75615 23.42248,-41.28186 29.99691,-0.74433 32.58152,32.54199 16.29652,42.75392 -5.88274,3.85593 -12.7614,4.93765 -18.22128,3.29058 -5.80614,-2.56168 -4.20364,-9.04645 -4.70296,-11.57415 -0.99729,-8.98836 -7.56821,-7.798 -7.53648,-1.99947 -0.24024,7.90783 9.05709,14.54787 16.9523,15.07687 24.92885,1.81815 33.99339,-29.68677 17.01981,-44.51713 -10.95188,-9.68212 -34.87219,-8.7608 -45.89837,7.30535 -3.23875,4.64609 -5.09952,10.15819 -5.79488,15.75285 -5.85589,39.25078 45.20612,70.11924 109.55137,46.83583 48.22687,-18.01189 83.48857,-55.36275 124.8605,-65.85911 z m -502.15853,-82.5842 c -10.40971,-25.60541 -19.35577,-47.83474 -17.43372,-60.75759 1.10507,-16.04285 13.59899,-17.47776 18.93874,-14.00268 4.82471,3.25305 5.07674,13.99675 -4.81508,17.11509 -3.41229,0.81109 -7.36538,-0.45197 -9.41473,-3.36526 -0.9051,-1.26068 -1.08962,-2.84218 -1.21015,-4.34504 -3.85277,5.90638 5.09139,16.0863 15.59764,12.35521 15.74649,-4.97757 16.16216,-28.20842 -0.63409,-32.81619 -12.0072,-3.39133 -27.486202,4.16608 -28.450547,24.45402 -0.266676,1.99156 0.131508,4.24231 0.01356,6.0723 -0.06236,-0.0904 -0.190347,-0.26904 -0.252847,-0.35912 -9.826747,-31.01582 -15.714498,-75.50253 11.282544,-87.71551 13.22562,-6.14106 38.75615,-3.32418 41.28191,23.42245 0.74431,29.99692 -32.54193,32.58151 -42.75384,16.29648 -3.85603,-5.88268 -4.93778,-12.76133 -3.29068,-18.22128 2.56169,-5.80604 9.04651,-4.20361 11.57417,-4.70298 8.98835,-0.99717 7.79801,-7.56807 1.99946,-7.53647 -7.90781,-0.24021 -14.54746,9.05712 -15.07688,16.95231 -1.818064,24.92888 29.68685,33.99349 44.51713,17.01986 9.68209,-10.9519 8.76086,-34.87216 -7.30532,-45.89832 -4.64643,-3.23883 -10.15823,-5.09964 -15.75287,-5.79497 -39.251127,-5.85621 -70.119656,45.20536 -46.836142,109.55095 8.311561,22.25446 20.741077,41.7481 32.749632,60.35525 z m 90.6487,115.55342 c 13.54814,8.3218 36.4271,27.05634 52.04738,32.8903 64.34552,23.2834 115.40713,-7.58546 109.55137,-46.83584 -0.69536,-5.59467 -2.55654,-11.10677 -5.79502,-15.75285 -11.02618,-16.06616 -34.94648,-16.98708 -45.89837,-7.30534 -16.97358,14.82995 -7.9089,46.33526 17.01995,44.51713 7.89521,-0.52901 17.19254,-7.16904 16.9523,-15.07688 0.0312,-5.79853 -6.53933,-6.9889 -7.53648,1.99948 -0.49932,2.52769 1.10304,9.01246 -4.70296,11.57413 -5.46001,1.64747 -12.33909,0.56535 -18.22128,-3.29058 -16.285,-10.21152 -13.70053,-43.49784 16.29638,-42.75391 26.74665,2.52611 29.56362,28.0567 23.42248,41.28185 -12.213,26.99751 -56.69963,21.10969 -87.71553,11.28258 -0.0908,-0.0624 -0.26898,-0.19043 -0.359,-0.25285 1.82999,-0.12093 4.08027,0.27774 6.07227,0.0109 20.28785,-0.96438 27.84534,-16.44344 24.45393,-28.45059 -4.60738,-16.79625 -27.83856,-16.38063 -32.81606,-0.6341 -3.73116,10.50625 6.44876,19.45037 12.35508,15.5976 -1.50285,-0.12053 -3.08433,-0.30501 -4.34504,-1.21012 -2.91324,-2.04926 -4.17625,-6.00239 -3.36524,-9.41465 3.11836,-9.89192 13.86213,-9.63947 17.11512,-4.81519 3.47465,5.33983 2.04013,17.83333 -14.00273,18.93874 -10.37379,1.54294 -35.36379,-14.78962 -54.66424,-22.38879 z M 141.19755,-56.66816 C 130.70079,-15.296623 93.349876,19.965077 75.33806,68.192758 52.054546,132.53835 82.923481,183.59992 122.1738,177.74411 c 5.59504,-0.69534 11.10684,-2.55654 15.75286,-5.79498 16.06618,-11.02617 16.98714,-34.94642 7.30533,-45.89832 -14.82987,-16.97364 -46.335198,-7.90902 -44.51714,17.01987 0.52942,7.89518 7.16907,17.19251 15.07689,16.9523 5.79854,0.0316 6.98889,-6.5393 -1.99946,-7.53647 -2.52766,-0.49938 -9.01248,1.10305 -11.57417,-4.70297 -1.64737,-5.45996 -0.56535,-12.33901 3.29067,-18.2213 10.21151,-16.28502 43.49775,-13.70043 42.75385,16.29648 -2.52603,26.74663 -28.0567,29.56352 -41.28177,23.42247 -26.998,-12.21338 -21.110114,-56.70009 -11.283367,-87.715911 0.06236,-0.09043 0.190347,-0.269048 0.252847,-0.359124 0.120662,1.829991 -0.277793,4.080346 -0.01356,6.072309 0.964345,20.287926 16.44349,27.845346 28.45055,24.454016 16.79625,-4.60738 16.38071,-27.838619 0.63409,-32.816187 -10.50625,-3.731092 -19.45027,6.448828 -15.5975,12.355207 0.12066,-1.502863 0.30491,-3.084358 1.21001,-4.345043 2.04935,-2.91329 6.00244,-4.176347 9.41473,-3.365256 9.89196,3.118333 9.63938,13.862028 4.81522,17.115079 -5.33989,3.4747 -17.8334,2.04018 -18.93874,-14.002671 -3.70391,-24.902409 32.9496,-84.3632839 42.66463,-135.946356 51.58303,-9.714911 111.04392,-46.368452 135.94634,-42.664625 16.04286,1.105032 17.47765,13.598905 14.00259,18.938756 -3.25299,4.824653 -13.99676,5.076714 -17.11499,-4.81519 -0.81114,-3.412273 0.45187,-7.365396 3.36525,-9.414653 1.26071,-0.905126 2.84219,-1.089616 4.34504,-1.210115 -5.90646,-3.852784 -16.08638,5.091343 -12.35522,15.597591 4.9775,15.746534 28.20841,16.162153 32.8162,-0.634097 3.39127,-12.007146 -4.16609,-27.48622 -24.45407,-28.45059 -1.9916,-0.26668 -4.24228,0.13191 -6.07227,0.0108 0.0908,-0.0625 0.26898,-0.19043 0.35914,-0.25285 31.01576,-9.82672 75.50253,-15.71454 87.71553,11.282564 6.141,13.225558 3.32416,38.756146 -23.42248,41.281867 -29.99692,0.744321 -32.58152,-32.541998 -16.29652,-42.753913 5.88273,-3.855943 12.7614,-4.937655 18.22128,-3.290595 5.806,2.561676 4.20364,9.046445 4.70296,11.574145 0.99715,8.988365 7.56807,7.798003 7.53648,1.999474 0.24024,-7.907832 -9.05709,-14.547482 -16.9523,-15.076875 -24.92885,-1.818142 -33.99353,29.686776 -17.01981,44.517134 10.95188,9.682116 34.87205,8.760802 45.89823,-7.30535 3.23889,-4.64648 5.09966,-10.158187 5.79502,-15.752852 5.85698,-39.250779 -45.20491,-70.119229 -109.55015,-46.835829 -48.22769,18.01189 -83.48939,55.362751 -124.86091,65.859523 z"
   id="path2"
   inkscape:connector-curvature="0"
   sodipodi:nodetypes="cccccccccccccccccccccccccccccccccccccccccccccccccccccccccccccccccccccccccccccccccccccccccccccccccccccccccccccccccccccccccccccccccccccccccccccccccccccccccccccccccccccccccccccccccccccccccc"
   style="stroke-width:0.39507574" />
</g>
<g
   id="g1336"
   transform="matrix(0.05694272,-0.05694272,0.05694272,0.05694272,-980.79561,115.26943)"><g
     id="g883"
     transform="matrix(2.534701,0,0,2.534701,5133.1613,7614.9697)"><path
       id="path1053"
       d="m 1768.2,3538.8 c -3.3498,-5.5779 -4.7072,-9.2797 -6.3127,-17.214 -1.125,-5.5597 -2.6922,-11.527 -3.4827,-13.26 -0.7905,-1.7332 -1.4483,-4.4332 -1.4617,-6 -0.014,-1.5669 -0.4884,-4.8621 -1.0554,-7.3228 -0.567,-2.4606 -1.6773,-9.6606 -2.4674,-16 -2.3151,-18.576 -3.4197,-26.899 -4.9799,-37.526 -0.8076,-5.5 -1.9105,-14.335 -2.451,-19.634 -0.5406,-5.2985 -1.4205,-10.785 -1.9554,-12.192 -0.5349,-1.4069 -1.2635,-6.0718 -1.6192,-10.366 -0.3557,-4.2947 -1.2365,-10.508 -1.9573,-13.808 -0.7208,-3.3 -1.6107,-9.15 -1.9776,-13 -0.3668,-3.85 -1.0757,-8.35 -1.5753,-10 -0.4996,-1.65 -1.5816,-7.725 -2.4045,-13.5 -1.8448,-12.947 -3.3824,-20.91 -9.4612,-49 -1.1308,-5.225 -2.9811,-13.775 -4.1119,-19 -1.9685,-9.0956 -3.2702,-13.984 -7.8543,-29.5 -3.8919,-13.173 -10.958,-34.996 -13.032,-40.25 -1.1401,-2.8875 -3.013,-7.6125 -4.1621,-10.5 -1.1491,-2.8875 -2.5836,-6.825 -3.1879,-8.75 -0.6043,-1.925 -1.9141,-4.6945 -2.9108,-6.1544 -0.9967,-1.4599 -1.8121,-2.9569 -1.8121,-3.3267 0,-3.629 -20.886,-40.495 -29.058,-51.29 -6.4502,-8.5204 -6.6492,-7.8599 5.9959,-19.892 18.736,-17.827 34.679,-41.659 44.044,-65.838 1.7043,-4.4 3.7556,-9.1944 4.5584,-10.654 0.8028,-1.4599 1.4749,-3.4849 1.4935,-4.5 0.019,-1.0151 0.9034,-3.6457 1.9661,-5.8457 1.0627,-2.2 1.9672,-4.675 2.01,-5.5 0.043,-0.825 0.7441,-3.3 1.5585,-5.5 0.8144,-2.2 1.8732,-5.8 2.3528,-8 0.4796,-2.2 2.4961,-10.525 4.481,-18.5 5.2336,-21.028 6.403,-26.525 7.6249,-35.844 0.6017,-4.5894 1.453,-9.3144 1.8919,-10.5 0.4389,-1.1857 1.0995,-5.5788 1.4681,-9.7625 0.3686,-4.1837 1.1008,-9.1082 1.6271,-10.943 0.5264,-1.8351 1.4356,-8.0425 2.0207,-13.794 0.5851,-5.7517 1.6728,-13.202 2.4172,-16.557 0.7444,-3.3545 1.6564,-10.599 2.0267,-16.099 0.3702,-5.5 1.1191,-12.25 1.664,-15 0.545,-2.75 1.3639,-9.725 1.8198,-15.5 1.1141,-14.113 3.7611,-36.578 5.5376,-47 0.797,-4.675 1.7199,-11.2 2.051,-14.5 1.0466,-10.432 5.8759,-20.01 11.094,-22.002 9.8862,-3.7755 18.137,5.3913 19.803,22.002 0.3311,3.3 1.254,9.825 2.051,14.5 1.7765,10.422 4.4235,32.887 5.5376,47 0.4559,5.775 1.2748,12.75 1.8198,15.5 0.5449,2.75 1.2938,9.5 1.664,15 0.3703,5.5 1.2823,12.745 2.0267,16.099 0.7444,3.3546 1.8321,10.805 2.4172,16.557 0.5851,5.7516 1.4943,11.959 2.0207,13.794 0.5263,1.8351 1.2585,6.7596 1.6271,10.943 0.3686,4.1837 1.0292,8.5768 1.4681,9.7625 0.4389,1.1856 1.2902,5.9106 1.8919,10.5 1.2219,9.3195 2.3913,14.817 7.6249,35.844 1.9849,7.975 4.0014,16.3 4.481,18.5 0.4796,2.2 1.5384,5.8 2.3528,8 0.8144,2.2 1.5157,4.675 1.5585,5.5 0.043,0.825 0.9473,3.3 2.01,5.5 1.0627,2.2 1.9474,4.8306 1.9661,5.8457 0.019,1.0151 0.6907,3.0401 1.4935,4.5 0.8028,1.4599 2.8541,6.2543 4.5584,10.654 9.3654,24.179 25.309,48.011 44.044,65.838 12.645,12.032 12.446,11.371 5.9959,19.892 -8.1719,10.795 -29.058,47.66 -29.058,51.29 0,0.3698 -0.8154,1.8668 -1.8121,3.3267 -0.9967,1.4599 -2.3065,4.2294 -2.9108,6.1544 -0.6043,1.925 -1.9977,5.75 -3.0965,8.5 -5.3313,13.343 -6.6391,16.985 -10.772,30 -8.0147,25.24 -11.718,38.256 -14.368,50.5 -1.1308,5.225 -2.9811,13.775 -4.1119,19 -6.0788,28.09 -7.6164,36.053 -9.4612,49 -0.8229,5.775 -1.9049,11.85 -2.4045,13.5 -0.4996,1.65 -1.2085,6.15 -1.5753,10 -0.3669,3.85 -1.2568,9.7 -1.9776,13 -0.7208,3.3 -1.6016,9.5138 -1.9573,13.808 -0.3557,4.2947 -1.0843,8.9596 -1.6192,10.366 -0.5349,1.4068 -1.4148,6.893 -1.9554,12.192 -0.5405,5.2984 -1.6434,14.134 -2.451,19.634 -1.5602,10.627 -2.6648,18.95 -4.9799,37.526 -0.7901,6.3394 -1.9004,13.539 -2.4674,16 -0.567,2.4607 -1.0419,5.7559 -1.0554,7.3228 -0.013,1.5668 -0.6712,4.2668 -1.4617,6 -0.7905,1.7331 -2.3577,7.7 -3.4827,13.26 -1.8386,9.087 -8.7788,24.32 -11.08,24.32 -0.275,0 -2.4203,-3.1977 -4.7673,-7.106 z"
       inkscape:connector-curvature="0" /><path
       id="path1051"
       d="m 1545.534,3094.43 c -24.466,-4.8984 -33.896,-8.9844 -49.666,-21.522 -8.491,-6.7502 -18.689,-17.388 -22.379,-23.346 -1.022,-1.65 -3.0437,-4.575 -4.4925,-6.5 -9.0768,-12.06 -17.47,-35.924 -19.872,-56.5 -2.5716,-22.032 -2.5335,-24.736 0.8192,-58.171 1.32,-13.164 5.7529,-32.02 14.536,-61.829 1.3758,-4.6695 3.0203,-9.2296 9.1958,-25.5 1.3569,-3.575 2.9093,-7.9462 3.4497,-9.7139 0.5404,-1.7676 1.4159,-3.4817 1.9455,-3.809 0.5297,-0.3273 0.963,-1.2623 0.963,-2.0778 0,-0.8155 1.3961,-4.5014 3.1024,-8.191 1.7064,-3.6896 4.4311,-9.6333 6.0549,-13.208 5.0116,-11.034 18.764,-37.882 24.443,-47.718 2.9696,-5.1438 5.3993,-9.5977 5.3993,-9.8974 0,-2.1091 25.638,-42.489 38.975,-61.384 9.1643,-12.984 9.1537,-13.252 -0.4227,-10.7 -52.572,14.008 -89.671,-58.288 -47.683,-92.922 9.6344,-7.9469 9.3906,-8.0972 17.228,10.622 11.79,28.161 24.759,28.161 58.076,0 17.608,-14.883 22.26,-18.442 30.968,-23.692 15.152,-9.1347 29.4,-12.297 41.898,-9.299 4.9388,1.1848 5.4596,1.1375 6.7338,-0.6125 0.7595,-1.0432 6.7551,-10.222 13.324,-20.397 6.5683,-10.175 13.133,-20.3 14.587,-22.5 8.5947,-12.998 15.361,-23.637 17.216,-27.07 1.1676,-2.1613 3.4474,-6.1797 5.0662,-8.9297 3.4149,-5.801 11.035,-21.189 11.035,-22.284 0,-0.4101 0.8371,-2.314 1.8602,-4.2308 2.0763,-3.8902 6.5803,-16.734 7.6218,-21.735 1.0252,-4.9222 -1.0657,-4.0197 -4.2323,1.8269 -13.966,25.786 -38.568,51.994 -66.25,70.576 -19.684,13.213 -51.591,25.422 -70,26.784 -35.188,2.6046 -58.133,-1.6089 -82.893,-15.222 -29.932,-16.457 -45.188,-47.7 -41.088,-84.15 0.6534,-5.8103 1.5272,-14.164 1.9419,-18.564 0.7295,-7.742 2.6632,-19.034 5.5653,-32.5 0.7704,-3.575 1.8956,-9.425 2.5004,-13 0.6048,-3.575 1.5091,-8.075 2.0096,-10 14.431,-55.511 2.6395,-87.092 -40.702,-109.01 -20.142,-10.187 -20.222,-10.511 -4.0791,-16.595 54.858,-20.677 92.132,7.8719 92.188,70.608 0.016,17.694 -1.2509,25.492 -6.9446,42.75 -2.7074,8.2063 4.7401,1.7376 29.002,-25.19 13.484,-14.966 15.54,-16.601 18.152,-14.433 7.4819,6.2094 1.6085,19.186 -17.138,37.862 -16.193,16.133 -16.31,17.125 -1.6605,14.09 25.46,-5.2758 51.12,9.2217 57.25,32.345 0.5944,2.2423 1.7648,5.6518 2.6009,7.5768 1.9359,4.4572 2.8051,21.749 1.4577,29 -4.8395,26.046 -19.855,39.44 -44.163,39.394 -21.661,-0.041 -29.706,-5.2509 -17.368,-11.246 25.588,-12.432 33.838,-49.586 13.943,-62.796 -46.943,-31.171 -91.641,39.332 -55.742,87.923 17.388,23.536 64.75,32.821 100.67,19.734 2.75,-1.002 6.35,-2.1141 8,-2.4715 43.862,-9.4986 97.044,-55.562 109.1,-94.498 2.8538,-9.2152 3.1136,-9.0331 -5.8605,-4.1079 -11.293,6.1978 -22.042,9.0682 -33.961,9.0682 h -9.8666 l -5.0831,-4.75 c -20.398,-19.061 -20.212,-35.3 0.4083,-35.738 22.849,-0.4857 56.76,-22.213 56.76,-36.367 0,-0.4815 0.8511,-1.9573 1.8913,-3.2797 1.0401,-1.3224 3.3282,-5.9956 5.0845,-10.385 1.7563,-4.3893 4.0961,-10.23 5.1995,-12.98 3.9267,-9.7862 8.5421,-25.888 11.39,-39.737 4.1,-19.8 5,-20.7 19.5,-20.7 14.483,0 15.357,0.934 19.435,20.763 2.8479,13.848 7.4633,29.951 11.39,39.737 1.1034,2.75 3.4432,8.5912 5.1995,12.98 1.7563,4.3893 4.0444,9.0625 5.0845,10.385 1.0402,1.3224 1.8913,2.7982 1.8913,3.2797 0,14.154 33.912,35.881 56.76,36.367 20.62,0.4384 20.806,16.677 0.4083,35.738 l -5.0831,4.75 h -9.8666 c -11.918,0 -22.668,-2.8704 -33.961,-9.0682 -8.9741,-4.9252 -8.7143,-5.1073 -5.8605,4.1079 12.058,38.936 65.24,84.999 109.1,94.498 1.65,0.3574 5.25,1.4695 8,2.4715 35.916,13.086 83.278,3.8019 100.67,-19.734 35.899,-48.591 -8.7994,-119.09 -55.742,-87.923 -19.895,13.21 -11.645,50.364 13.943,62.796 12.339,5.9947 4.293,11.204 -17.368,11.246 -24.308,0.046 -39.323,-13.348 -44.163,-39.394 -1.3474,-7.2513 -0.4782,-24.543 1.4577,-29 0.8361,-1.925 2.0065,-5.3345 2.6009,-7.5768 6.1297,-23.123 31.79,-37.62 57.25,-32.345 14.65,3.0357 14.533,2.0437 -1.6605,-14.09 -18.746,-18.677 -24.62,-31.653 -17.138,-37.862 2.6119,-2.1677 4.6678,-0.533 18.152,14.433 24.262,26.928 31.71,33.397 29.002,25.19 -5.6937,-17.258 -6.9605,-25.056 -6.9446,-42.75 0.056,-62.736 37.331,-91.285 92.188,-70.608 16.142,6.0845 16.063,6.4086 -4.0791,16.595 -43.342,21.92 -55.134,53.502 -40.702,109.01 0.5005,1.925 1.4048,6.425 2.0096,10 0.6048,3.575 1.73,9.425 2.5004,13 2.9021,13.466 4.8358,24.758 5.5653,32.5 0.4147,4.4 1.2885,12.754 1.9419,18.564 4.0992,36.45 -11.156,67.693 -41.088,84.15 -20.569,11.309 -40.281,16.177 -64.393,15.903 -22.276,-0.2537 -25.018,-0.6926 -47.843,-7.6587 -39.934,-12.188 -85.352,-50.585 -106.91,-90.382 -3.1666,-5.8466 -5.2575,-6.7491 -4.2323,-1.8269 1.0415,5.0009 5.5455,17.845 7.6218,21.735 1.0231,1.9168 1.8602,3.8207 1.8602,4.2308 0,1.0949 7.6201,16.483 11.035,22.284 1.6188,2.75 3.8986,6.7684 5.0662,8.9297 1.8545,3.4329 8.6209,14.073 17.216,27.07 1.4547,2.2 8.0191,12.325 14.587,22.5 6.5684,10.175 12.564,19.354 13.324,20.397 1.2742,1.75 1.795,1.7973 6.7338,0.6125 12.497,-2.998 26.745,0.1643 41.898,9.299 8.7087,5.2501 13.361,8.809 30.968,23.692 33.316,28.161 46.286,28.161 58.076,0 7.8369,-18.72 7.5931,-18.569 17.228,-10.622 41.988,34.634 4.889,106.93 -47.683,92.922 -9.5764,-2.5517 -9.587,-2.284 -0.4227,10.7 13.336,18.895 38.975,59.275 38.975,61.384 0,0.2997 2.4297,4.7536 5.3993,9.8974 5.6789,9.8365 19.432,36.685 24.443,47.718 1.6238,3.575 4.3485,9.5187 6.0549,13.208 1.7063,3.6896 3.1024,7.3755 3.1024,8.191 0,0.8155 0.4333,1.7505 0.963,2.0778 0.5296,0.3273 1.4051,2.0414 1.9455,3.809 0.5404,1.7677 2.0928,6.1389 3.4497,9.7139 6.1755,16.27 7.82,20.83 9.1958,25.5 8.7832,29.809 13.216,48.664 14.536,61.829 3.3527,33.435 3.3908,36.139 0.8192,58.171 -2.4015,20.576 -10.795,44.44 -19.872,56.5 -1.4488,1.925 -3.4705,4.85 -4.4925,6.5 -41.638,67.221 -156.59,56.657 -160.27,-14.729 -1.9602,-38.015 18.465,-68.77 45.674,-68.772 39.492,0 48.046,17.481 10.192,20.834 -13.654,1.2094 -15.032,2.1663 -21.053,14.613 -20.781,42.961 14.851,78.05 57.649,56.771 29.192,-14.514 35.421,-35.229 20.512,-68.217 -8.5373,-18.89 -10.897,-23.054 -31.747,-56.035 -15.046,-23.8 -25.093,-41.417 -28.494,-49.965 -1.2035,-3.025 -2.7608,-6.625 -3.4606,-8 -13.223,-25.98 -2.2542,-63.16 20.332,-68.92 5.8636,-1.4955 22.906,-3.1001 32.814,-3.0897 11.577,0.012 11.41,0.7545 3.1369,-14.005 -3.8494,-6.8671 -8.5608,-15.411 -10.47,-18.986 -1.9089,-3.575 -4.8553,-8.75 -6.5473,-11.5 -1.6921,-2.75 -4.3076,-7.25 -5.8123,-10 -12.052,-22.026 -43.512,-69.19 -50.028,-75 l -2.2429,-2 0.5276,3 c 0.2901,1.65 1.8676,6.6 3.5054,11 14.899,40.025 7.387,62.77 -26.902,81.461 -4.0473,2.2062 -8.089,4.0175 -8.9816,4.0252 -0.8926,0.01 -3.8176,0.9916 -6.5,2.1863 -8.0236,3.5737 -30.634,3.2426 -38.838,-0.5687 -18.935,-8.7966 -28.117,-24.816 -14.539,-25.367 42.631,-1.729 53.113,-15.758 39.401,-52.736 -1.4275,-3.85 -3.2391,-8.8 -4.0256,-11 -0.7864,-2.2 -1.8407,-4.9 -2.3427,-6 -2.5984,-5.6935 -8.0859,-18.826 -10.446,-25 -12.789,-33.452 -15.176,-46.043 -11.697,-61.715 l 2.3028,-10.375 -5.3463,-9.7999 c -2.9405,-5.3899 -6.3373,-11.445 -7.5486,-13.455 -1.2113,-2.0102 -2.5244,-4.33 -2.9181,-5.155 -0.6763,-1.4172 -12.899,-23.2 -21.602,-38.5 -2.1901,-3.85 -5.8019,-10.375 -8.0262,-14.5 -2.2243,-4.125 -5.1573,-9.525 -6.5177,-12 -1.3604,-2.475 -4.7203,-8.775 -7.4663,-14 -15.709,-29.891 -16.155,-30.578 -17.179,-26.495 -0.7362,2.933 1.1073,53.526 2.4775,67.995 1.9381,20.466 3.0609,57.908 2.609,87 l -0.466,30 -3.1538,7.5 c -2.4645,5.8609 -4.0932,8.2103 -7.4521,10.75 -9.3079,7.0377 -18.944,2.8365 -24.658,-10.75 l -3.1538,-7.5 -0.466,-30 c -0.4519,-29.092 0.6709,-66.534 2.609,-87 1.3702,-14.469 3.2137,-65.062 2.4775,-67.995 -1.0247,-4.0828 -1.47,-3.396 -17.179,26.495 -2.746,5.225 -6.1059,11.525 -7.4663,14 -1.3604,2.475 -4.2934,7.875 -6.5177,12 -2.2243,4.125 -5.8361,10.65 -8.0262,14.5 -8.7033,15.3 -20.926,37.083 -21.602,38.5 -0.3937,0.825 -1.7068,3.1448 -2.9181,5.155 -1.2113,2.0103 -4.6081,8.065 -7.5486,13.455 l -5.3463,9.7999 2.3028,10.375 c 3.4787,15.672 1.0923,28.264 -11.697,61.715 -2.3604,6.1741 -7.8479,19.306 -10.446,25 -0.502,1.1 -1.5563,3.8 -2.3427,6 -0.7865,2.2 -2.5981,7.15 -4.0256,11 -13.712,36.978 -3.2296,51.007 39.401,52.736 13.578,0.5507 4.3959,16.57 -14.539,25.367 -8.2041,3.8113 -30.814,4.1424 -38.838,0.5687 -2.6824,-1.1947 -5.6074,-2.1785 -6.5,-2.1863 -0.8926,-0.01 -4.9343,-1.819 -8.9816,-4.0252 -34.289,-18.691 -41.801,-41.436 -26.902,-81.461 1.6378,-4.4 3.2153,-9.35 3.5054,-11 l 0.5276,-3 -2.2429,2 c -6.516,5.8104 -37.976,52.974 -50.028,75 -1.5047,2.75 -4.1202,7.25 -5.8123,10 -1.692,2.75 -4.6384,7.925 -6.5473,11.5 -1.909,3.575 -6.6204,12.118 -10.47,18.986 -8.2735,14.759 -8.4398,14.017 3.1369,14.005 9.9078,-0.01 26.95,1.5942 32.814,3.0897 22.586,5.7602 33.554,42.94 20.332,68.92 -0.6998,1.375 -2.2571,4.975 -3.4606,8 -3.401,8.5484 -13.448,26.166 -28.494,49.965 -20.851,32.981 -23.21,37.145 -31.747,56.035 -14.909,32.988 -8.6799,53.702 20.512,68.217 42.798,21.279 78.43,-13.81 57.649,-56.771 -6.0207,-12.446 -7.3993,-13.403 -21.053,-14.613 -37.854,-3.353 -29.3,-20.837 10.192,-20.834 22.12,0 40.14,20.306 45.053,50.762 7.3785,45.738 -24.906,78.654 -76.607,78.103 -4.95,-0.053 -9.9,-0.2761 -11,-0.4963 z"
       inkscape:connector-curvature="0" /><path
       id="path1049"
       d="m 1754.534,2742.07 c -32.223,-10.628 -42.507,-38.814 -23.613,-64.722 5.8342,-8.0002 18.939,-11.548 34.363,-9.3043 5.7516,0.8368 9.7484,0.8368 15.5,0 52.368,-7.6198 61.09,58.853 9.75,74.309 -7.0532,2.1233 -29.233,1.949 -36,-0.2828 z"
       inkscape:connector-curvature="0" /><path
       id="path1043"
       d="m 1721.204,2287.5958 c -55.983,-34.516 -42.969,-80.846 27.83,-99.074 53.377,-13.742 123.02,25.988 110.11,62.816 -6.6705,19.031 -42.909,48.467 -47.977,38.971 -1.9569,-3.6669 3.695,-20.64 8.9074,-26.75 4.1398,-4.8525 4.2145,-6.0718 0.7488,-12.226 -7.5088,-13.333 -19.706,-20.51 -41.543,-24.444 -13.434,-2.4201 -36.553,4.7967 -46.54,14.528 -9.6493,9.4018 -11.749,16.287 -6.754,22.142 5.2124,6.1097 10.864,23.083 8.9074,26.75 -1.5504,2.905 -6.0175,2.0201 -13.694,-2.7126 z"
       inkscape:connector-curvature="0" /><path
       d="m 1648.3704,1570.5246 c -10.099,-10.2396 -19.5742,-21.2258 -28.2814,-33.1144 -19.0778,-26.0486 -37.5626,-57.9305 -38.9899,-90.9772 -1.3213,-30.5971 16.5336,-63.1487 50.0376,-65.4901 14.7264,-1.1236 26.7121,7.6099 32.6109,20.6649 7.2872,16.1278 -3.5129,25.2566 -11.7359,38.0714 -18.7966,29.2921 -2.5006,58.8702 15.0854,84.0366 27.3466,39.1335 65.9464,70.1556 106.7857,96.577 40.8389,-26.4214 79.4388,-57.4432 106.7854,-96.577 17.5859,-25.1661 33.8822,-54.7445 15.0856,-84.0366 -8.223,-12.8148 -19.023,-21.9436 -11.7359,-38.0714 5.8989,-13.0549 17.8845,-21.7885 32.6109,-20.6649 33.5037,2.3414 51.3592,34.8931 50.0379,65.4901 -1.4276,33.0467 -19.9125,64.9285 -38.9904,90.9772 -39.8041,54.3477 -95.6526,89.8272 -153.7921,121.4635 -45.4212,-24.7157 -89.447,-51.7772 -125.5138,-88.3491 z m -17.2337,-189.5817 c -9.5992,0.6707 10.0791,-0.7689 0,0 z m 82.0921,165.1093 c -1.2141,-1.2312 -2.4264,-2.4724 -3.6222,-3.7353 -17.6169,-18.5916 -37.3185,-40.4076 -43.7372,-65.8979 -5.5798,-22.1582 5.7069,-57.3725 34.6701,-52.0732 12.4321,2.0741 24.4828,17.0301 27.364,28.694 1.7306,6.8788 -1.6692,13.6366 -6.147,18.6544 -5.6534,6.3344 -10.5732,6.6131 -18.3097,7.847 1.0008,4.6334 2.2038,9.2207 3.1756,13.8607 6.3523,-5.9248 11.3326,-11.7649 20.3402,-13.3747 9.7032,-1.7339 19.6731,0.2449 27.074,6.9609 10.4364,9.4707 15.3278,23.3975 19.8463,36.9582 4.5187,-13.5607 9.4101,-27.4874 19.8463,-36.9582 7.4009,-6.7159 17.371,-8.6948 27.074,-6.9609 9.0078,1.6097 13.9879,7.4499 20.3404,13.3746 0.9718,-4.6398 2.1746,-9.2272 3.1756,-13.8606 -7.7365,-1.2339 -12.6563,-1.5126 -18.3097,-7.847 -4.4779,-5.0177 -7.8778,-11.7757 -6.1472,-18.6547 2.8811,-11.6636 14.932,-26.6199 27.3639,-28.6937 28.9632,-5.2996 40.2501,29.915 34.6701,52.0731 -6.419,25.4903 -26.1202,47.3064 -43.7369,65.898 -19.1424,20.2015 -41.0642,35.7618 -64.2765,50.7278 -21.7614,-14.0306 -42.3879,-28.5825 -60.6541,-46.9925 z m 133.9973,-121.7063 c -5.8575,0.9772 7.743,-1.4169 0,0 z m -146.6866,-10e-5 c -7.7431,-1.4169 5.8576,0.9773 0,0 z m 213.1884,-43.635 c 0.8324,0.05 10.102,0.7334 2.9026,0.2306 -2.5199,-0.1923 -3.1802,-0.2469 -2.9026,-0.2306 z"
       id="path2-6-1-2"
       inkscape:connector-curvature="0"
       sodipodi:nodetypes="ssccccccsccccccsccccccccccccccccccccsccccccccccc"
       style="stroke-width:1.13545406" /><path
       style="stroke-width:1.15738523"
       inkscape:connector-curvature="0"
       id="path1015"
       d="m 1767.2404,2172.4421 c -1.2013,-3.4303 -7.4546,-40.3059 -8.1075,-47.8093 -1.4166,-16.2821 -5.418,-45.2919 -7.0383,-51.0268 -0.9149,-3.2387 -1.6635,-6.8676 -1.6635,-8.0641 0,-2.1252 -2.3835,-12.5438 -7.1344,-31.1846 -1.2979,-5.0926 -3.3485,-11.4866 -4.557,-14.2093 -1.2085,-2.7224 -2.1973,-5.5768 -2.1973,-6.3431 0,-1.4078 -0.9871,-4.0941 -8.8212,-24.0077 -5.1248,-13.0263 -17.6998,-38.7076 -22.9521,-46.874 -2.047,-3.1829 -6.1818,-9.6932 -9.1883,-14.4674 -23.833,-37.8465 -40.4032,-54.4156 -78.2485,-78.2485 -4.7743,-3.0066 -11.2845,-7.1412 -14.4674,-9.1884 -8.166,-5.252 -33.8477,-17.8272 -46.8741,-22.9521 -19.9128,-7.8341 -22.599,-8.8212 -24.0077,-8.8212 -0.7663,0 -3.6206,-0.9887 -6.3431,-2.1973 -2.7225,-1.2085 -9.1165,-3.2591 -14.2092,-4.5569 -18.642,-4.7509 -29.0596,-7.1345 -31.1845,-7.1345 -1.1965,0 -4.8256,-0.7508 -8.0643,-1.6686 -5.3846,-1.5258 -27.1094,-4.5259 -55.0777,-7.6056 -6.0472,-0.666 -18.547,-2.628 -27.7772,-4.3598 l -16.7821,-3.1488 v -5.2074 -5.2075 l 16.7821,-3.1488 c 9.2302,-1.7318 21.73,-3.6938 27.7772,-4.3597 27.9683,-3.0798 49.6936,-6.0798 55.0777,-7.6057 3.2387,-0.9178 6.8678,-1.6686 8.0643,-1.6686 2.125,0 12.5437,-2.3836 31.1845,-7.1344 5.0925,-1.298 11.4865,-3.3486 14.2092,-4.557 2.7225,-1.2086 5.5768,-2.1973 6.3431,-2.1973 1.4078,0 4.0942,-0.9871 24.0077,-8.8212 13.0264,-5.1248 38.7077,-17.6999 46.8741,-22.9521 3.1829,-2.0471 9.6931,-6.1818 14.4674,-9.1883 38.13,-24.0124 55.3947,-41.276 79.4059,-79.4059 3.0065,-4.7743 7.1413,-11.2846 9.1883,-14.4674 5.2521,-8.166 17.8272,-33.8477 22.9521,-46.8741 7.8341,-19.9128 8.8212,-22.5991 8.8212,-24.0077 0,-0.7663 0.9888,-3.6207 2.1973,-6.3431 1.2085,-2.7225 3.2591,-9.1165 4.5571,-14.2093 4.7507,-18.6419 7.1343,-29.0595 7.1343,-31.1845 0,-1.1964 0.7509,-4.8255 1.6686,-8.0642 1.5259,-5.3847 4.5259,-27.1094 7.6058,-55.0777 0.6658,-6.0472 2.6278,-18.5471 4.3597,-27.7772 l 3.1487,-16.7821 h 5.2075 5.2074 l 3.1488,16.7821 c 1.7319,9.2301 3.6938,21.73 4.3598,27.7772 3.0797,27.9683 6.0798,49.6936 7.6056,55.0777 0.9178,3.2387 1.6686,6.8678 1.6686,8.0642 0,2.1251 2.3836,12.5438 7.1345,31.1845 1.2979,5.0926 3.3485,11.4866 4.5569,14.2093 1.2086,2.7224 2.1973,5.5768 2.1973,6.3431 0,1.4078 0.9871,4.0942 8.8212,24.0077 5.1249,13.0264 17.7,38.7076 22.9522,46.8741 2.0471,3.1828 6.1817,9.6931 9.1884,14.4674 23.8328,37.8464 40.4031,54.4155 78.2485,78.2485 4.7741,3.0065 11.2844,7.1413 14.4673,9.1883 8.166,5.252 33.8477,17.8272 46.874,22.9521 19.9128,7.8341 22.5991,8.8212 24.0077,8.8212 0.7663,0 3.6207,0.9888 6.3432,2.1973 2.7224,1.2085 9.1164,3.2591 14.2092,4.5569 18.6419,4.7509 29.0596,7.1345 31.1846,7.1345 1.1965,0 4.8254,0.7509 8.0642,1.6686 5.3846,1.5259 27.1093,4.5259 55.0776,7.6058 6.0474,0.6658 18.5471,2.6278 27.7772,4.3597 l 16.7821,3.1487 v 5.2075 5.2074 l -16.7821,3.1488 c -9.2301,1.7319 -21.7298,3.6938 -27.7772,4.3597 -27.9683,3.0798 -49.6936,6.0798 -55.0776,7.6057 -3.2388,0.9178 -6.8677,1.6686 -8.0642,1.6686 -2.1252,0 -12.5437,2.3836 -31.1846,7.1345 -5.0926,1.2979 -11.4866,3.3485 -14.2092,4.5569 -2.7225,1.2086 -5.5769,2.1973 -6.3432,2.1973 -1.4077,0 -4.0941,0.9871 -24.0077,8.8212 -13.0263,5.1249 -38.7076,17.7 -46.874,22.9522 -3.1829,2.047 -9.6932,6.1817 -14.4673,9.1884 -38.1301,24.0122 -55.3949,41.2758 -79.4059,79.4058 -3.0066,4.7742 -7.1414,11.2845 -9.1884,14.4674 -5.2521,8.1659 -17.8272,33.8477 -22.9521,46.874 -7.8342,19.9128 -8.8213,22.5991 -8.8213,24.0077 0,0.7663 -0.9888,3.6207 -2.1973,6.3431 -1.2084,2.7225 -3.259,9.1165 -4.5569,14.2093 -4.7509,18.6419 -7.1344,29.0595 -7.1344,31.1846 0,1.1965 -0.7509,4.8254 -1.6687,8.0641 -1.5258,5.3847 -4.5258,27.1094 -7.6057,55.0777 -0.6659,6.0474 -2.6276,18.5471 -4.3593,27.7772 l -3.1485,16.7821 -4.9294,0.3564 c -3.2833,0.2373 -5.1066,-0.1491 -5.4598,-1.1574 z" /><path
       d="m 1640.7447,1974.7571 c -10.0991,10.2396 -19.5742,21.2258 -28.2814,33.1144 -19.0778,26.0486 -37.5626,57.9305 -38.9899,90.9772 -1.3213,30.5971 16.5336,63.1487 50.0376,65.4901 14.7264,1.1236 26.7121,-7.6099 32.6109,-20.6649 7.2872,-16.1279 -3.5129,-25.2567 -11.7359,-38.0714 -18.7966,-29.2921 -2.5006,-58.8702 15.0854,-84.0366 27.3466,-39.1335 65.9464,-70.1556 106.7857,-96.577 40.8389,26.4214 79.4388,57.4432 106.7854,96.577 17.5859,25.1661 33.8822,54.7445 15.0856,84.0366 -8.223,12.8148 -19.023,21.9436 -11.7359,38.0714 5.8989,13.0549 17.8845,21.7885 32.6109,20.6649 33.5037,-2.3414 51.3592,-34.8931 50.0379,-65.4901 -1.4276,-33.0467 -19.9125,-64.9285 -38.9904,-90.9772 -39.8041,-54.3477 -95.6526,-89.8272 -153.7921,-121.4635 -45.4212,24.7157 -89.447,51.7772 -125.5138,88.3491 z m -17.2337,189.5817 c -9.5992,-0.6707 10.0791,0.7689 0,0 z m 82.0921,-165.1093 c -1.2141,1.2312 -2.4264,2.4724 -3.6223,3.7353 -17.6169,18.5916 -37.3184,40.4076 -43.7371,65.8979 -5.5798,22.1582 5.7069,57.3725 34.67,52.0732 12.4321,-2.0741 24.4828,-17.0301 27.3641,-28.694 1.7306,-6.8788 -1.6692,-13.6366 -6.147,-18.6544 -5.6534,-6.3344 -10.5732,-6.6131 -18.3097,-7.847 1.0008,-4.6334 2.2038,-9.2207 3.1756,-13.8607 6.3523,5.9247 11.3326,11.7649 20.3402,13.3746 9.7032,1.734 19.6731,-0.245 27.074,-6.9609 10.4364,-9.4707 15.3278,-23.3975 19.8463,-36.9582 4.5187,13.5607 9.4101,27.4874 19.8463,36.9582 7.4009,6.7159 17.371,8.6949 27.074,6.9609 9.0078,-1.6097 13.9879,-7.4499 20.3404,-13.3746 0.9718,4.6398 2.1746,9.2272 3.1756,13.8606 -7.7365,1.2339 -12.6563,1.5126 -18.3097,7.847 -4.4779,5.0177 -7.8778,11.7758 -6.1472,18.6548 2.8811,11.6635 14.932,26.6199 27.3639,28.6936 28.9632,5.2996 40.2501,-29.915 34.6701,-52.0731 -6.419,-25.4903 -26.1202,-47.3064 -43.7369,-65.898 -19.1424,-20.2015 -41.0642,-35.7618 -64.2765,-50.7278 -21.7614,14.0307 -42.3879,28.5825 -60.6541,46.9926 z m 133.9973,121.7063 c -5.8575,-0.9772 7.743,1.4169 0,0 z m -146.6867,10e-5 c -7.743,1.4169 5.8577,-0.9773 0,0 z m 213.1885,43.635 c 0.8323,-0.05 10.102,-0.7334 2.9026,-0.2306 -2.5199,0.1923 -3.1802,0.2469 -2.9026,0.2306 z"
       id="path2-6-1-2-7"
       inkscape:connector-curvature="0"
       sodipodi:nodetypes="ssccccccsccccccsccccccccccccccccccccsccccccccccc"
       style="stroke-width:1.13545406" /><path
       id="path1013"
       d="m 1774.3056,2005.7781 c 2.5373,-16.565 22.361,-64.895 37.152,-90.579 2.955,-5.131 5.3727,-9.5158 5.3727,-9.7438 0,-0.5808 14.903,-23.498 20.698,-31.83 13.874,-19.945 15.954,-22.025 35.899,-35.899 8.3316,-5.7955 31.249,-20.698 31.83,-20.698 0.228,0 4.6128,-2.4177 9.7438,-5.3727 25.684,-14.792 74.014,-34.615 90.579,-37.152 2.3375,-0.3581 4.25,-1.0219 4.25,-1.4752 0,-0.4533 -1.9125,-1.1171 -4.25,-1.4752 -16.565,-2.5373 -64.895,-22.361 -90.579,-37.152 -5.131,-2.955 -9.5158,-5.3727 -9.7438,-5.3727 -0.6212,0 -23.84,-15.126 -32.427,-21.124 -19.255,-13.451 -20.424,-14.62 -33.876,-33.876 -5.9983,-8.5865 -21.124,-31.806 -21.124,-32.427 0,-0.228 -2.4177,-4.6128 -5.3727,-9.7438 -14.792,-25.684 -34.615,-74.014 -37.152,-90.579 -0.3581,-2.3375 -1.0219,-4.25 -1.4752,-4.25 -0.4533,0 -1.1171,1.9125 -1.4752,4.25 -2.5373,16.565 -22.361,64.895 -37.152,90.579 -2.955,5.131 -5.3727,9.5158 -5.3727,9.7438 0,0.5808 -14.903,23.498 -20.698,31.83 -13.874,19.945 -15.954,22.025 -35.899,35.899 -8.3316,5.7955 -31.249,20.698 -31.83,20.698 -0.228,0 -4.6128,2.4177 -9.7438,5.3727 -25.684,14.792 -74.014,34.615 -90.579,37.152 -2.3375,0.3581 -4.25,1.0219 -4.25,1.4752 0,0.4533 1.9125,1.1171 4.25,1.4752 16.565,2.5373 64.895,22.361 90.579,37.152 5.131,2.955 9.5158,5.3727 9.7438,5.3727 1.3622,0 34.349,22.174 45.962,30.896 5.9281,4.4524 9.9038,9.1637 20.34,24.104 5.9983,8.5865 21.124,31.806 21.124,32.427 0,0.228 2.4177,4.6128 5.3727,9.7438 14.792,25.684 34.615,74.014 37.152,90.579 0.3581,2.3375 1.0219,4.25 1.4752,4.25 0.4533,0 1.1171,-1.9125 1.4752,-4.25 z"
       inkscape:connector-curvature="0" /><path
       style="fill:#ffffff;fill-opacity:1"
       id="path1011"
       d="m 1769.1307,1930.2781 c -3.4759,-4.5451 -6.8756,-9.7739 -11.541,-17.75 -3.7468,-6.4056 -5.1032,-9.2528 -9.2905,-19.5 -4.7978,-11.742 -17.096,-37.542 -19.616,-41.154 -3.8778,-5.557 -2.3175,-9.1485 13.183,-30.346 7.2324,-9.8902 12.294,-23.599 9.6789,-26.214 -2.6151,-2.6151 -16.324,2.4465 -26.214,9.6789 -21.197,15.501 -24.789,17.061 -30.346,13.183 -3.6123,-2.5207 -29.413,-14.819 -41.154,-19.616 -13.259,-5.4179 -18.978,-8.4829 -32.197,-17.255 -11.789,-7.8229 -11.498,-8.3381 12.697,-22.512 6.4022,-3.7504 9.2417,-5.104 19.5,-9.2958 11.742,-4.7978 37.542,-17.096 41.154,-19.616 5.557,-3.8778 9.1485,-2.3175 30.346,13.183 26.411,19.314 36.849,8.8757 17.535,-17.535 -15.501,-21.197 -17.061,-24.789 -13.183,-30.346 2.5207,-3.6123 14.819,-29.413 19.616,-41.154 5.4179,-13.259 8.4829,-18.978 17.255,-32.197 7.8229,-11.789 8.3381,-11.498 22.512,12.697 3.7504,6.4022 5.104,9.2417 9.2958,19.5 4.7978,11.742 17.096,37.542 19.616,41.154 3.8778,5.557 2.3175,9.1485 -13.183,30.346 -7.2324,9.8902 -12.294,23.599 -9.6789,26.214 2.6151,2.6151 16.324,-2.4465 26.214,-9.6789 21.197,-15.501 24.789,-17.061 30.346,-13.183 3.6123,2.5207 29.413,14.819 41.154,19.616 13.259,5.4179 18.978,8.4829 32.197,17.255 11.031,7.3199 11.031,7.2331 0,14.553 -13.219,8.7718 -18.938,11.837 -32.197,17.255 -11.742,4.7978 -37.542,17.096 -41.154,19.616 -5.557,3.8778 -9.1485,2.3175 -30.346,-13.183 -10.891,-7.9643 -23.582,-12.327 -26.722,-9.1868 -3.1404,3.1404 1.2225,15.831 9.1868,26.722 15.501,21.197 17.061,24.789 13.183,30.346 -2.5207,3.6123 -14.819,29.413 -19.616,41.154 -4.1873,10.247 -5.5437,13.094 -9.2905,19.5 -7.0906,12.122 -13.738,21.5 -15.241,21.5 -0.4576,0 -2.1224,-1.6875 -3.6997,-3.75 z"
       inkscape:connector-curvature="0" /><path
       id="path951"
       d="m 1764.8687,1361.5296 c -50.039,-7.3536 -86.643,-38.566 -77.113,-65.754 6.6705,-19.031 42.909,-48.467 47.977,-38.971 1.9569,3.6669 -3.695,20.64 -8.9074,26.75 -4.1398,4.8525 -4.2145,6.0718 -0.7488,12.226 7.5088,13.333 19.706,20.51 41.543,24.444 13.434,2.4201 36.553,-4.7967 46.54,-14.528 9.6493,-9.4018 11.749,-16.287 6.754,-22.142 -5.2124,-6.1097 -10.864,-23.083 -8.9074,-26.75 5.0678,-9.4959 41.306,19.94 47.977,38.971 9.4938,27.086 -30.006,60.545 -77.613,65.743 -3.3,0.3603 -6.675,0.7912 -7.5,0.9574 -0.825,0.1663 -5.325,-0.2598 -10,-0.9468 z"
       inkscape:connector-curvature="0" /><path
       id="path945"
       d="m 1462.3687,1322.1024 c -15.705,-3.2521 -27.973,-7.3458 -33.586,-11.208 -3.4263,-2.3572 -2.0142,-3.5154 14.419,-11.827 43.342,-21.92 55.134,-53.502 40.702,-109.01 -0.5005,-1.925 -1.4048,-6.425 -2.0096,-10 -0.6048,-3.575 -1.73,-9.425 -2.5004,-13 -2.9021,-13.466 -4.8358,-24.758 -5.5653,-32.5 -0.4147,-4.4 -1.2885,-12.754 -1.9419,-18.564 -4.0992,-36.45 11.156,-67.693 41.088,-84.15 20.569,-11.309 40.281,-16.177 64.393,-15.903 22.276,0.2537 25.018,0.6926 47.843,7.6587 39.934,12.188 85.352,50.585 106.91,90.382 3.1666,5.8466 5.2575,6.7491 4.2323,1.8269 -1.0415,-5.0009 -5.5455,-17.845 -7.6218,-21.735 -1.0231,-1.9168 -1.8602,-3.8207 -1.8602,-4.2308 0,-1.0949 -7.6201,-16.483 -11.035,-22.284 -1.6188,-2.75 -3.8986,-6.7684 -5.0662,-8.9297 -1.8545,-3.4329 -8.6209,-14.073 -17.216,-27.07 -1.4547,-2.2 -8.0191,-12.325 -14.587,-22.5 -6.5684,-10.175 -12.564,-19.354 -13.324,-20.397 -1.2742,-1.75 -1.795,-1.7974 -6.7338,-0.61256 -12.497,2.998 -26.745,-0.16427 -41.898,-9.299 -8.7087,-5.25 -13.361,-8.809 -30.968,-23.692 -33.316,-28.161 -46.286,-28.161 -58.076,0 -7.8369,18.719 -7.5931,18.569 -17.228,10.622 -41.988,-34.634 -4.889,-106.93 47.683,-92.922 9.5764,2.5517 9.587,2.284 0.4227,-10.7 -13.4,-18.97 -39,-59.35 -39,-61.45 0,-0.2998 -2.4297,-4.7536 -5.3993,-9.8974 -5.6789,-9.8365 -19.432,-36.685 -24.443,-47.718 -1.6238,-3.575 -4.3485,-9.5187 -6.0549,-13.208 -1.7063,-3.6896 -3.1024,-7.3755 -3.1024,-8.191 0,-0.81548 -0.4333,-1.7505 -0.963,-2.0778 -0.5296,-0.32733 -1.4051,-2.0414 -1.9455,-3.809 -0.5404,-1.7676 -2.1714,-6.3639 -3.6244,-10.214 -1.453,-3.85 -3.7457,-9.925 -5.0948,-13.5 -1.3492,-3.575 -3.116,-8.75 -3.9263,-11.5 -8.7832,-29.809 -13.216,-48.664 -14.536,-61.829 -3.3527,-33.435 -3.3908,-36.139 -0.8192,-58.171 2.4015,-20.576 10.795,-44.44 19.872,-56.5 1.4488,-1.925 3.4705,-4.85 4.4925,-6.5 41.638,-67.221 156.59,-56.657 160.27,14.729 1.9602,38.015 -18.465,68.77 -45.674,68.772 -39.492,0.003 -48.046,-17.481 -10.192,-20.834 13.654,-1.2094 15.032,-2.1663 21.053,-14.613 20.781,-42.961 -14.851,-78.05 -57.649,-56.771 -29.192,14.514 -35.421,35.229 -20.512,68.217 8.5373,18.89 10.897,23.054 31.747,56.035 15.046,23.8 25.093,41.417 28.494,49.965 1.2035,3.025 2.7608,6.625 3.4606,8 13.223,25.98 2.2542,63.16 -20.332,68.92 -5.8636,1.4954 -22.906,3.1001 -32.814,3.0897 -11.577,-0.0122 -11.41,-0.75453 -3.1369,14.005 3.8494,6.8671 8.5608,15.411 10.47,18.986 1.9089,3.575 4.8553,8.75 6.5473,11.5 1.6921,2.75 4.3076,7.25 5.8123,10 12.052,22.026 43.512,69.19 50.028,75 l 2.2429,2 -0.5276,-3 c -0.2901,-1.65 -1.8676,-6.6 -3.5054,-11 -14.899,-40.025 -7.387,-62.77 26.902,-81.461 4.0473,-2.2061 8.089,-4.0175 8.9816,-4.0252 0.8926,-0.008 3.8176,-0.99157 6.5,-2.1863 8.0236,-3.5737 30.634,-3.2426 38.838,0.56872 18.935,8.7966 28.117,24.816 14.539,25.367 -42.631,1.729 -53.113,15.758 -39.401,52.736 1.4275,3.85 3.2391,8.8 4.0256,11 0.7864,2.2 1.8407,4.9 2.3427,6 2.5984,5.6935 8.0859,18.826 10.446,25 12.789,33.452 15.176,46.043 11.697,61.715 l -2.3028,10.375 5.3463,9.7999 c 2.9405,5.3899 6.3373,11.445 7.5486,13.455 1.2113,2.0103 2.5244,4.33 2.9181,5.155 0.6763,1.4172 12.899,23.20004 21.602,38.50004 2.1901,3.85 5.8019,10.375 8.0262,14.5 2.2243,4.125 5.1573,9.525 6.5177,12 1.3604,2.475 4.7203,8.775 7.4663,14 15.709,29.891 16.155,30.578 17.179,26.495 0.7362,-2.933 -1.1073,-53.526 -2.4775,-67.995 -1.9381,-20.466 -3.0609,-57.90804 -2.609,-87.00004 l 0.466,-30 3.1538,-7.5 c 2.4645,-5.8609 4.0932,-8.2103 7.4521,-10.75 9.3079,-7.0377 18.944,-2.8364 24.658,10.75 l 3.1538,7.5 0.466,30 c 0.4519,29.092 -0.6709,66.53404 -2.609,87.00004 -1.3702,14.469 -3.2137,65.062 -2.4775,67.995 1.0247,4.0828 1.47,3.396 17.179,-26.495 2.746,-5.225 6.1059,-11.525 7.4663,-14 1.3604,-2.475 4.2934,-7.875 6.5177,-12 2.2243,-4.125 5.8361,-10.65 8.0262,-14.5 8.7033,-15.3 20.926,-37.08304 21.602,-38.50004 0.3937,-0.825 1.7068,-3.1448 2.9181,-5.155 1.2113,-2.0103 4.6081,-8.065 7.5486,-13.455 l 5.3463,-9.7999 -2.3028,-10.375 c -3.4787,-15.673 -1.0923,-28.264 11.697,-61.715 2.3604,-6.1741 7.8479,-19.307 10.446,-25 0.502,-1.1 1.5563,-3.8 2.3427,-6 0.7865,-2.2 2.5981,-7.15 4.0256,-11 13.712,-36.978 3.2296,-51.007 -39.401,-52.736 -13.578,-0.55068 -4.3959,-16.571 14.539,-25.367 8.2041,-3.8113 30.814,-4.1424 38.838,-0.56872 2.6824,1.1947 5.6074,2.1786 6.5,2.1863 0.8926,0.008 4.9343,1.8191 8.9816,4.0252 34.289,18.691 41.801,41.436 26.902,81.461 -1.6378,4.4 -3.2153,9.35 -3.5054,11 l -0.5276,3 2.2429,-2 c 6.516,-5.8104 37.976,-52.974 50.028,-75 1.5047,-2.75 4.1202,-7.25 5.8123,-10 1.692,-2.75 4.6384,-7.925 6.5473,-11.5 1.909,-3.575 6.6204,-12.119 10.47,-18.986 8.2735,-14.759 8.4398,-14.017 -3.1369,-14.005 -9.9078,0.0104 -26.95,-1.5943 -32.814,-3.0897 -22.586,-5.7602 -33.554,-42.94 -20.332,-68.92 0.6998,-1.375 2.2571,-4.975 3.4606,-8 3.401,-8.5484 13.448,-26.165 28.494,-49.965 20.851,-32.981 23.21,-37.145 31.747,-56.035 14.909,-32.988 8.6799,-53.702 -20.512,-68.217 -42.798,-21.279 -78.43,13.81 -57.649,56.771 6.0207,12.446 7.3993,13.403 21.053,14.613 37.854,3.353 29.3,20.837 -10.192,20.834 -27.209,-0.002 -47.634,-30.757 -45.674,-68.772 3.6809,-71.386 118.63,-81.95 160.27,-14.729 1.022,1.65 3.0437,4.575 4.4925,6.5 9.0768,12.06 17.47,35.924 19.872,56.5 2.5716,22.032 2.5335,24.736 -0.8192,58.171 -1.32,13.165 -5.7529,32.02 -14.536,61.829 -1.3758,4.6695 -3.0203,9.2296 -9.1958,25.5 -1.3569,3.575 -2.9093,7.9462 -3.4497,9.7139 -0.5404,1.7676 -1.4159,3.4817 -1.9455,3.809 -0.5297,0.32734 -0.963,1.2624 -0.963,2.0778 0,0.81547 -1.3961,4.5014 -3.1024,8.191 -1.7064,3.6896 -4.4311,9.6333 -6.0549,13.208 -5.0116,11.033 -18.764,37.882 -24.443,47.718 -2.9696,5.1438 -5.3993,9.5976 -5.3993,9.8974 0,2.109 -25.638,42.489 -38.975,61.384 -9.1643,12.984 -9.1537,13.252 0.4227,10.7 52.572,-14.008 89.671,58.288 47.683,92.922 -9.6344,7.9468 -9.3906,8.0971 -17.228,-10.622 -11.79,-28.161 -24.759,-28.161 -58.076,0 -17.608,14.883 -22.26,18.442 -30.968,23.692 -15.152,9.1347 -29.4,12.297 -41.898,9.299 -4.9388,-1.1848 -5.4596,-1.1374 -6.7338,0.61256 -0.7595,1.0432 -6.7551,10.222 -13.324,20.397 -6.5683,10.175 -13.133,20.3 -14.587,22.5 -8.5947,12.998 -15.361,23.637 -17.216,27.07 -1.1676,2.1613 -3.4474,6.1797 -5.0662,8.9297 -3.4149,5.801 -11.035,21.189 -11.035,22.284 0,0.4101 -0.8371,2.314 -1.8602,4.2308 -2.0763,3.8902 -6.5803,16.734 -7.6218,21.735 -1.0252,4.9222 1.0657,4.0197 4.2323,-1.8269 13.966,-25.786 38.568,-51.994 66.25,-70.576 19.684,-13.213 51.591,-25.422 70,-26.784 35.188,-2.6046 58.133,1.6089 82.893,15.222 29.932,16.457 45.188,47.7 41.088,84.15 -0.6534,5.8103 -1.5272,14.164 -1.9419,18.564 -0.7295,7.742 -2.6632,19.034 -5.5653,32.5 -0.7704,3.575 -1.8956,9.425 -2.5004,13 -0.6048,3.575 -1.5091,8.075 -2.0096,10 -14.431,55.511 -2.6395,87.092 40.702,109.01 20.142,10.187 20.222,10.511 4.0791,16.595 -54.858,20.677 -92.132,-7.8719 -92.188,-70.608 -0.016,-17.694 1.2509,-25.492 6.9446,-42.75 2.7074,-8.2063 -4.7401,-1.7376 -29.002,25.19 -13.484,14.966 -15.54,16.601 -18.152,14.433 -7.4819,-6.2094 -1.6085,-19.186 17.138,-37.862 16.193,-16.133 16.31,-17.125 1.6605,-14.09 -25.46,5.2758 -51.12,-9.2217 -57.25,-32.345 -0.5944,-2.2423 -1.7648,-5.6518 -2.6009,-7.5768 -1.9359,-4.4572 -2.8051,-21.749 -1.4577,-29 4.8395,-26.046 19.855,-39.44 44.163,-39.394 21.661,0.041 29.706,5.2509 17.368,11.246 -25.588,12.432 -33.838,49.586 -13.943,62.796 46.943,31.171 91.641,-39.332 55.742,-87.923 -17.388,-23.536 -64.75,-32.821 -100.67,-19.734 -2.75,1.002 -6.35,2.1141 -8,2.4715 -43.862,9.4986 -97.044,55.562 -109.1,94.498 -2.8538,9.2152 -3.1136,9.0331 5.8605,4.1079 11.293,-6.1978 22.042,-9.0682 33.961,-9.0682 h 9.8666 l 5.0831,4.75 c 20.398,19.061 20.212,35.3 -0.4083,35.738 -22.849,0.4857 -56.76,22.213 -56.76,36.367 0,0.4815 -0.8511,1.9573 -1.8913,3.2797 -1.0401,1.3224 -3.3282,5.9956 -5.0845,10.385 -1.7563,4.3893 -4.0961,10.23 -5.1995,12.98 -3.9267,9.7862 -8.5421,25.888 -11.39,39.737 -3.9,19.8 -4.8,20.7 -19.3,20.7 -14.483,0 -15.357,-0.934 -19.435,-20.763 -2.8479,-13.848 -7.4633,-29.951 -11.39,-39.737 -1.1034,-2.75 -3.4432,-8.5912 -5.1995,-12.98 -1.7563,-4.3893 -4.0444,-9.0625 -5.0845,-10.385 -1.0402,-1.3224 -1.8913,-2.7982 -1.8913,-3.2797 0,-14.154 -33.912,-35.881 -56.76,-36.367 -20.62,-0.4384 -20.806,-16.677 -0.4083,-35.738 l 5.0831,-4.75 h 9.8666 c 11.918,0 22.668,2.8704 33.961,9.0682 8.9741,4.9252 8.7143,5.1073 5.8605,-4.1079 -12.058,-38.936 -65.24,-84.999 -109.1,-94.498 -1.65,-0.3574 -5.25,-1.4695 -8,-2.4715 -35.916,-13.086 -83.278,-3.8019 -100.67,19.734 -35.899,48.591 8.7994,119.09 55.742,87.923 19.895,-13.21 11.645,-50.364 -13.943,-62.796 -12.339,-5.9947 -4.293,-11.204 17.368,-11.246 24.308,-0.046 39.323,13.348 44.163,39.394 1.3474,7.2513 0.4782,24.543 -1.4577,29 -0.8361,1.925 -2.0065,5.3345 -2.6009,7.5768 -6.1297,23.123 -31.79,37.62 -57.25,32.345 -14.65,-3.0357 -14.533,-2.0437 1.6605,14.09 18.746,18.677 24.62,31.653 17.138,37.862 -2.6119,2.1677 -4.6678,0.533 -18.152,-14.433 -24.262,-26.928 -31.71,-33.397 -29.002,-25.19 5.6937,17.258 6.9605,25.056 6.9446,42.75 -0.046,51.449 -30.141,85.082 -68.942,77.047 z"
       inkscape:connector-curvature="0" /><path
       id="path939"
       d="m 1747.5987,878.4444 c -26.721,-4.4915 -34.228,-41.901 -12.454,-62.06 33.283,-30.814 97.724,-6.5731 89.786,33.775 -4.426,22.497 -19.172,32.252 -43.54,28.802 -5.7532,-0.81448 -9.8255,-0.83558 -14.5,-0.0751 -7.8219,1.2724 -9.291,1.2388 -19.292,-0.4422 z"
       inkscape:connector-curvature="0" /><path
       id="path2-3"
       d="m 1768.7857,787.2814 c -4.4351,-1.8249 -9.3856,-12.269 -10.344,-21.822 -0.3311,-3.3 -1.254,-9.825 -2.051,-14.5 -1.7765,-10.422 -4.4235,-32.887 -5.5376,-47 -0.4559,-5.775 -1.2748,-12.75 -1.8198,-15.5 -0.5449,-2.75 -1.2938,-9.5 -1.664,-15 -0.3703,-5.5 -1.2823,-12.745 -2.0267,-16.099 -0.7444,-3.3545 -1.8321,-10.805 -2.4172,-16.557 -0.5851,-5.7517 -1.4943,-11.959 -2.0207,-13.794 -0.5263,-1.8351 -1.2585,-6.7596 -1.6271,-10.943 -0.3686,-4.1837 -1.0292,-8.5768 -1.4681,-9.7625 -0.4389,-1.1857 -1.2902,-5.9107 -1.8919,-10.5 -1.2219,-9.3196 -2.3913,-14.817 -7.6249,-35.844 -1.9849,-7.975 -4.0014,-16.3 -4.481,-18.5 -0.4796,-2.2 -1.5384,-5.8 -2.3528,-8 -0.8144,-2.2 -1.5157,-4.675 -1.5585,-5.5 -0.043,-0.825 -0.9473,-3.3 -2.01,-5.5 -1.0627,-2.2 -1.9474,-4.8306 -1.9661,-5.8457 -0.019,-1.0151 -0.6907,-3.0401 -1.4935,-4.5 -0.8028,-1.4599 -2.8541,-6.2543 -4.5584,-10.654 -9.3654,-24.179 -25.309,-48.011 -44.044,-65.838 -12.645,-12.032 -12.446,-11.371 -5.9959,-19.892 8.1719,-10.795 29.058,-47.66 29.058,-51.289 0,-0.36982 0.8154,-1.8669 1.8121,-3.3268 0.9967,-1.4599 2.3065,-4.2294 2.9108,-6.1544 0.6043,-1.925 2.08,-5.975 3.2793,-9 1.1993,-3.025 3.0722,-7.75 4.162,-10.5 1.9923,-5.0271 9.0908,-26.968 12.941,-40 5.6979,-19.285 5.604,-18.905 11.839,-48 6.996,-32.647 7.7186,-36.377 9.5885,-49.5 0.8229,-5.775 1.9049,-11.85 2.4045,-13.5 0.4996,-1.65 1.2085,-6.15 1.5753,-10 0.3669,-3.85 1.2568,-9.7 1.9776,-13 0.7208,-3.3 1.6016,-9.5138 1.9573,-13.809 0.3557,-4.2947 1.0843,-8.9596 1.6192,-10.366 0.5349,-1.4069 1.4148,-6.893 1.9554,-12.191 0.5405,-5.2984 1.6434,-14.134 2.451,-19.634 1.5602,-10.627 2.6648,-18.95 4.9799,-37.526 0.7901,-6.3394 1.9004,-13.539 2.4674,-16 0.567,-2.4606 1.0419,-5.7559 1.0554,-7.3227 0.013,-1.5669 0.6712,-4.2669 1.4617,-6 0.7905,-1.7331 2.3577,-7.7 3.4827,-13.26 1.8386,-9.087 8.7788,-24.321 11.08,-24.321 2.3012,0 9.2414,15.234 11.08,24.321 1.125,5.5597 2.6922,11.527 3.4827,13.26 0.7905,1.7331 1.4483,4.4331 1.4617,6 0.014,1.5669 0.4884,4.8621 1.0554,7.3227 0.567,2.4606 1.6773,9.6606 2.4674,16 2.3151,18.576 3.4197,26.899 4.9799,37.526 0.8076,5.5 1.9105,14.335 2.451,19.634 0.5406,5.2984 1.4205,10.785 1.9554,12.191 0.5349,1.4069 1.2635,6.0718 1.6192,10.366 0.3557,4.2947 1.2365,10.509 1.9573,13.809 0.7208,3.3 1.6107,9.15 1.9776,13 0.3668,3.85 1.0757,8.35 1.5753,10 0.4996,1.65 1.5816,7.725 2.4045,13.5 1.8448,12.947 3.3824,20.91 9.4612,49 1.1308,5.225 2.9811,13.775 4.1119,19 1.1309,5.225 2.9734,12.65 4.0945,16.5 1.1211,3.85 2.891,9.925 3.9332,13.5 1.0421,3.575 3.8953,12.8 6.3404,20.5 4.1329,13.015 5.4407,16.657 10.772,30 1.0988,2.75 2.4922,6.575 3.0965,8.5 0.6043,1.925 1.9141,4.6945 2.9108,6.1544 0.9967,1.4599 1.8121,2.957 1.8121,3.3268 0,3.629 20.886,40.495 29.058,51.289 6.4502,8.5204 6.6492,7.8599 -5.9959,19.892 -18.736,17.827 -34.679,41.659 -44.044,65.838 -1.7043,4.4 -3.7556,9.1944 -4.5584,10.654 -0.8028,1.4599 -1.4749,3.4849 -1.4935,4.5 -0.019,1.0151 -0.9034,3.6457 -1.9661,5.8457 -1.0627,2.2 -1.9672,4.675 -2.01,5.5 -0.043,0.825 -0.7441,3.3 -1.5585,5.5 -0.8144,2.2 -1.8732,5.8 -2.3528,8 -0.4796,2.2 -2.4961,10.525 -4.481,18.5 -5.2336,21.027 -6.403,26.525 -7.6249,35.844 -0.6017,4.5893 -1.453,9.3143 -1.8919,10.5 -0.4389,1.1857 -1.0995,5.5788 -1.4681,9.7625 -0.3686,4.1837 -1.1008,9.1082 -1.6271,10.943 -0.5264,1.8351 -1.4356,8.0425 -2.0207,13.794 -0.5851,5.7516 -1.6728,13.202 -2.4172,16.557 -0.7444,3.3545 -1.6564,10.599 -2.0267,16.099 -0.3702,5.5 -1.1191,12.25 -1.664,15 -0.545,2.75 -1.3639,9.725 -1.8198,15.5 -1.1141,14.113 -3.7611,36.578 -5.5376,47 -0.797,4.675 -1.7199,11.2 -2.051,14.5 -1.7152,17.097 -10.185,26.089 -20.553,21.822 z"
       inkscape:connector-curvature="0" /></g></g></svg>