<?xml version="1.0" encoding="utf-8"?>
<!-- Generator: Adobe Illustrator 15.0.2, SVG Export Plug-In . SVG Version: 6.00 Build 0)  -->
<!DOCTYPE svg PUBLIC "-//W3C//DTD SVG 1.1//EN" "http://www.w3.org/Graphics/SVG/1.1/DTD/svg11.dtd">
<svg version="1.1" id="Layer_1" xmlns="http://www.w3.org/2000/svg" xmlns:xlink="http://www.w3.org/1999/xlink" x="0px" y="0px"
	 width="351px" height="351px" viewBox="0 0 351 351" enable-background="new 0 0 351 351" xml:space="preserve">
<g>
	<path fill-rule="evenodd" clip-rule="evenodd" d="M330.708,10.255c2.476,11.318-6.894,19.167,0,26.014
		c-1.602,4.311-6.469,5.355-9.46,8.277c0.948,8.043-3.396,10.793-8.277,13.007c-0.004,6.499-2.38,10.626-5.912,13.598
		c0.46,15.042-6.648,22.518-14.188,29.561c3.838,11.882,11.271,21.742,15.371,33.699c20.491,59.757-5.872,121.849-38.429,153.125
		c-11.957,11.487-30.301,21.418-46.115,28.97c-0.502,4.621-1.565,8.682-1.183,14.189c-0.614,3.129-5.135,2.354-5.912,5.32
		c-0.677,3.259,4.615,3.636,2.956,5.912c-3.445-0.077-7.239,1.924-11.824,2.365c-1.248-2.891-0.031-8.245-3.547-8.868
		c-2.892,1.769,0.27,5.97-0.592,9.46c-5.579-2.651-6.27-12.548-4.138-19.511c-3.219-6.312-7.452,1.159-13.007,2.365
		c-3.94,0.855-5.086-2.275-8.277,0.591c-6.558-1.331-12.548-3.313-22.466-4.139c-6.155-0.512-13.167,0.154-17.736-1.182
		c-3.868-1.132-6.846-4.769-10.051-4.73c-3.043,0.036-7.148,2.831-8.868,4.139c-2.922-3.07-4.958-1.346-7.095-0.591
		c-4.826-0.692-3.495-7.542-5.321-11.233c-31.629-16.846-55.666-41.452-69.764-77.449c-7.077-18.071-11.896-35.729-10.051-61.486
		c4.326-60.389,35.143-103.682,80.406-125.929c15.249-7.496,34.476-13.855,53.209-15.372c19.043-1.541,40.258,4.655,54.392,9.459
		c6.073,2.064,13.912,4.184,20.692,7.686c4.959,2.561,13.232,10.706,17.736,10.642c5.597-0.079,5.806-5.707,8.869-9.459
		c3.112-0.354,5.079,0.438,7.686,0.591c0.561-18.556,14.879-23.353,27.787-29.561c2.729-0.364,3.402,1.328,5.912,1.183
		c2.537-1.01,2.675-4.42,4.139-6.503C313.606,11.647,322.247,8.537,330.708,10.255z M206.553,39.816
		c-5.826-1.57-12.218-3.573-17.737-4.139C121.479,28.78,77.678,64.235,51.063,104.258c-3.548,5.335-7.986,10.622-10.051,15.963
		c-6.814,17.633-11.705,41.506-11.233,65.034c0.577,28.806,11.985,57.45,24.831,75.085c9.004,12.36,22.873,28.748,36.655,37.837
		c3.835,2.529,12.806,9.259,16.554,8.869c3.507-0.365,5.622-5.14,9.459-7.095c4.24-2.161,7.58-2.18,11.233-4.73
		c0.052-26.459-3.005-49.81-7.095-72.128c3.717-6.595,0.644-14.639-6.503-15.372c-1.524-1.894-1.419-6.785-5.912-6.503
		c-9.165,0.575-2.563,23.425-12.416,26.014c-7.948,2.089-18.936-7.964-12.416-14.189c1.832,5.908,11.655,3.962,10.051-3.547
		c6.719-0.075,11.864-12.003,6.503-16.555c-3.744,1.231-2.886,3.948-5.321,5.912c-3.493,2.818-7.435,1.621-11.825,2.956
		c-2.646,0.806-4.817,3.834-7.686,4.139c-10.222,1.087-13.747-12.925-24.24-11.232c-9.03-5.715,2.024-15.217,0-25.423
		c-0.825-4.156-4.691-7.875-5.321-13.007c-0.917-7.477-0.674-14.059,4.139-18.919c5.919,2.949,5.324,12.413,11.824,14.781
		c4.602-2.729,6.058-6.061,11.233-7.686c5.392-1.693,12.128,0.038,17.145-2.365c10.487-5.023,6.5-22.162,18.328-26.014
		c0.983,5.171,2.478,12.237,2.956,18.919c0.473,6.599-1.6,13.367,1.183,17.737c7.632-6.163,8.366-19.224,10.051-31.334
		c1.207-1.946,3.75-2.556,5.321-4.139c6.078-25.06,29.1-33.174,43.75-49.662c0.812,9.859,8.555,6.199,13.598,2.365
		c5.383,4.54,9.215-1.876,15.963-1.183c1.181,13.403,11.723,17.444,21.875,21.875c2.571,5.312,2.547,13.219,2.365,21.284
		c2.723,4.175,4.201,9.593,6.503,14.189c6.616-3.162,2.518-10.944,2.956-17.145c0.218-3.078,2.663-6.283,2.956-9.459
		c0.512-5.534-2.288-10.911-1.773-16.554c2.219-1.082,3.859,1.007,7.095,0.591c0.983-8.279,5.228-13.298,6.504-21.284
		C239.271,51.871,223.745,44.448,206.553,39.816z M281.637,269.208c19.711-22.994,30.776-55.997,28.97-95.777
		c-1.195-26.305-6.625-53.327-22.467-66.216c-2.583,4.905-9.564,5.413-11.232,11.233c-2.872,0.163-5.484-1.604-7.095,0.591
		c10.97,11.884-9.35,23.764-17.146,27.787c-1.496,5.42-10.816,14.378-11.824,20.102c-0.297,1.688,1.341,3.589,1.183,5.321
		c-0.272,2.972-3.83,5.133-4.139,7.686c-0.705,5.842,3.596,9.298,7.686,13.007c-5.155,3.318-8.849,8.1-11.232,14.189
		c-0.816,0.664,0.674,4.021,1.182,5.321c-3.917,1.947-3.938,9.494-6.503,14.188c-1.34,2.453-4.468,3.24-4.729,5.912
		c-0.235,2.404,2.447,4.139,2.364,6.504c-5.324,2.989-4.793,8.852,0.592,11.824c-9.009,6.989,3.647,13.023,4.729,18.328
		c0.753,3.688-1.467,6.001-2.365,9.459c-2.486,9.572-4.345,21.601-4.729,31.926C247.533,304.622,266.135,287.291,281.637,269.208z
		 M104.272,163.971c-0.301-3.885-7.104-4.322-10.642-2.956c-4.249,1.64-9.881,8.894-8.277,13.598
		C88.911,172.562,104.658,168.964,104.272,163.971z M70.572,177.569c-0.568-5.735-13.138-7.291-13.006,1.773
		C60.719,183.946,71.251,184.418,70.572,177.569z M95.404,181.708c-7.013-0.412-6.882,9.646-14.781,11.232
		c-4.994,1.003-7.256-2.151-13.007,0.592c-1.187,5.226,3.582,9.524,8.869,8.276c3.276-0.773,2.864-4.471,5.912-5.32
		C91.804,206.547,108.877,182.498,95.404,181.708z M75.302,188.211c1.803,3.658,6.778,1.69,9.459,0c0-1.576,0-3.153,0-4.729
		C80.533,183.982,75.88,184.059,75.302,188.211z M163.985,252.063c-5.956,4.327-5.458,13.712-6.503,24.831
		c-0.609,6.481-2.792,14.199-2.365,18.327c0.248,2.389,2.461,4.221,2.956,7.095c0.805,4.668-0.254,9.232,0,13.007
		c-2.855,0.247-4.25-3.293-7.094-1.183c-2.364,8.912,9.712,8.387,17.145,9.46c4.918-3.556,4.532-12.416,10.051-15.372
		c4.185,0.243,7.722-0.161,10.642-1.182c5.389-17.637,4.948-35.49,0.592-51.437c-2.383-8.722-8.005-15.861-10.643-23.648
		c-3.277-9.678-5.125-18.011-7.094-27.787c-0.591,0-1.182,0-1.773,0C170.856,222.655,160.77,235.117,163.985,252.063z M142.11,289.9
		c0.034-7.947,2.917-17.638,3.547-27.787c1.052-16.935,5.393-40.567-1.182-52.618c-0.591,0-1.183,0-1.774,0
		c-2.877,8.809-5.782,23.963-4.729,35.473c0.329,3.596,1.829,6.92,1.773,10.642c-0.254,16.99-3.058,33.084-2.365,47.889
		c2.698,0.53,3.351-0.984,5.321-1.183C144.866,298.445,142.091,294.289,142.11,289.9z M90.083,221.319
		c3.945,3.889,11.479-2.239,7.095-6.504C94.752,216.923,90.502,217.206,90.083,221.319z M207.144,269.208
		c0.475,4.012-1.459,9.331-2.956,14.78c-2.424,8.818-4.642,15.888-5.321,23.648c-0.805,9.191-3.838,8.706-7.095,13.598
		c7.573,0.655,17.219-1.147,23.058-4.138c2.107-22.919-0.462-51.084-11.824-64.443c-0.395,0-0.788,0-1.183,0
		C200.541,258.366,206.408,263.004,207.144,269.208z M126.147,312.366c-0.352,3.913,3.396,5.487,6.503,4.139
		C134.742,312.456,129.181,309.769,126.147,312.366z M144.475,320.052c1.893,1.053,2.983,1.147,5.321,0.592
		C150.653,315.98,143.38,313.752,144.475,320.052z"/>
	<path fill-rule="evenodd" clip-rule="evenodd" d="M58.157,200.035c-0.22,2.389,2.022,2.314,2.957,3.548
		c-3.86,4.811-11.677,5.666-17.737,8.276c1.129-4.98,9.189-3.029,10.642-7.686c-1.23-2.837-6.08,1.944-8.277,0
		C48.761,201.675,52.991,200.388,58.157,200.035z"/>
	<path fill-rule="evenodd" clip-rule="evenodd" d="M64.66,205.947c5.326-0.462,6.489,5.67,4.139,9.46
		c-2.397-0.165-2.559-2.565-4.139-3.548c-3.192,1.341-2.172,6.894-6.503,7.095C57.338,213.919,61.334,208.788,64.66,205.947z"/>
</g>
</svg>
