<?xml version="1.0" encoding="utf-8"?>

<!DOCTYPE svg PUBLIC "-//W3C//DTD SVG 1.1//EN" "http://www.w3.org/Graphics/SVG/1.1/DTD/svg11.dtd">
<svg version="1.1" id="Layer_1" xmlns="http://www.w3.org/2000/svg" xmlns:xlink="http://www.w3.org/1999/xlink" x="0px" y="0px"
	 viewBox="0 0 1626.385 1626.385" enable-background="new 0 0 1626.385 1626.385" xml:space="preserve">
<g>
	<path d="M1607.473,18.912c-21.977-0.158-622.272-4.481-794.28-5.72c-172.008,1.239-772.304,5.561-794.28,5.72
		c-0.158,21.977-4.481,622.272-5.72,794.28c1.239,172.008,5.561,772.304,5.72,794.28c21.977,0.158,622.272,4.481,794.28,5.72
		c172.008-1.239,772.304-5.561,794.28-5.72c0.158-21.977,4.481-622.272,5.72-794.28
		C1611.954,641.184,1607.631,40.889,1607.473,18.912z M813.193,31.201c167.552,1.456,736.353,4.323,775.752,6.239
		c1.916,39.4,4.783,608.2,6.239,775.752c-1.456,167.552-4.323,736.353-6.239,775.752c-39.4,1.916-608.2,4.783-775.752,6.239
		c-167.552-1.456-736.352-4.323-775.752-6.239c-1.916-39.4-4.783-608.2-6.239-775.752C32.657,645.64,35.524,76.84,37.441,37.441
		C76.84,35.524,645.64,32.657,813.193,31.201z"/>
	<path d="M1422.818,203.567c-0.634-0.579-1.27-1.159-1.906-1.739c-4.831,4.032-9.368,8.391-14.167,12.456
		c-5.727,5.149-11.918,9.743-17.718,14.794c-53.691,44.054-57.241,43.896-71.249,55.054c-29.975,22.382-28.804,37.98-33.71,48.593
		c-2.208,5.939-5.833,11.161-9.393,16.35c0.578,0.307,1.151,0.614,1.72,0.914c0.3,0.569,0.607,1.142,0.914,1.72
		c5.189-3.56,10.411-7.185,16.35-9.393c10.613-4.906,26.211-3.735,48.593-33.71c11.158-14.008,11-17.558,55.053-71.249
		c5.051-5.8,9.645-11.992,14.794-17.718c4.065-4.798,8.423-9.336,12.456-14.167C1423.977,204.837,1423.397,204.202,1422.818,203.567
		z"/>
	<path d="M1422.818,1422.818c0.579-0.634,1.159-1.27,1.739-1.906c-4.032-4.831-8.391-9.368-12.456-14.167
		c-5.149-5.727-9.743-11.918-14.794-17.718c-44.054-53.691-43.896-57.241-55.053-71.249c-22.382-29.975-37.98-28.804-48.593-33.71
		c-5.939-2.208-11.161-5.833-16.35-9.393c-0.307,0.578-0.614,1.151-0.914,1.72c-0.569,0.3-1.142,0.607-1.72,0.914
		c3.56,5.189,7.185,10.411,9.393,16.35c4.906,10.613,3.735,26.211,33.71,48.593c14.007,11.158,17.558,11,71.249,55.053
		c5.8,5.051,11.991,9.645,17.718,14.794c4.798,4.065,9.336,8.423,14.167,12.456
		C1421.548,1423.977,1422.183,1423.397,1422.818,1422.818z"/>
	<path d="M203.567,1422.818c0.634,0.579,1.27,1.159,1.905,1.739c4.831-4.032,9.368-8.391,14.167-12.456
		c5.727-5.149,11.918-9.743,17.718-14.794c53.691-44.054,57.241-43.896,71.249-55.053c29.975-22.382,28.804-37.98,33.71-48.593
		c2.208-5.939,5.833-11.161,9.393-16.35c-0.578-0.307-1.151-0.614-1.72-0.914c-0.3-0.569-0.607-1.142-0.914-1.72
		c-5.189,3.56-10.411,7.185-16.35,9.393c-10.613,4.906-26.211,3.735-48.593,33.71c-11.158,14.007-11,17.558-55.054,71.249
		c-5.051,5.8-9.645,11.991-14.794,17.718c-4.065,4.798-8.423,9.336-12.456,14.167
		C202.408,1421.548,202.988,1422.183,203.567,1422.818z"/>
	<path d="M203.567,203.567c-0.579,0.634-1.159,1.27-1.739,1.905c4.032,4.831,8.391,9.368,12.456,14.167
		c5.149,5.727,9.743,11.918,14.794,17.718c44.054,53.691,43.896,57.241,55.054,71.249c22.382,29.975,37.98,28.804,48.593,33.71
		c5.939,2.208,11.161,5.833,16.35,9.393c0.307-0.578,0.614-1.151,0.914-1.72c0.569-0.3,1.142-0.607,1.72-0.914
		c-3.56-5.189-7.185-10.411-9.393-16.35c-4.906-10.613-3.735-26.211-33.71-48.593c-14.008-11.158-17.558-11-71.249-55.054
		c-5.8-5.051-11.992-9.645-17.718-14.794c-4.798-4.065-9.336-8.423-14.167-12.456C204.837,202.408,204.202,202.988,203.567,203.567z
		"/>
	<path d="M1322.129,241.591c-3.796-6.998-11.714-12.032-19.796-11.356c-5.247,0.31-13.824,6.089-11.682,16.798
		c0.456,2.346,2.876,3.112,4.766,3.975c0.896-2.403,0.864-5.613,3.25-7.153c3.813-1.89,8.928,0.44,10.191,4.481
		c2.872,7.528-6.776,16.969-17.572,12.635c-13.205-6.097-14.047-20.9-8.383-30.492c3.918-7.006,11.258-11.193,18.484-14.085
		c27.334-10.129,53.175,0.275,86.466-13.694c8.668-4.09,17.499-8.073,25.197-13.857c-3.031-3.21-4.652-7.299-5.434-11.592
		c-5.711,3.487-11.348,7.144-17.49,9.857c-25.806,12.326-61.429,9.176-78.352-10.908c-12.556-15.871-11.01-38.355,6.387-43.934
		c6.411-1.906,14.777,1.043,16.724,7.878c1.857,6.126-4.212,12.904-10.484,11.397c-3.177-0.456-4.415-3.674-6.151-5.914
		c-4.295,0.836-2.901,12.994,4.709,16.92c12.6,6.793,25.384-2.118,27.592-17.661c1.567-17.279-17.632-34.451-39.502-25.547
		c-24.256,9.764-37.033,52.456,7.006,80.413c-22.577,1.595-46.735,12.093-52.438,33.889c-5.104,21.9,8.19,37.173,19.731,41.457
		C1307.07,284.021,1332.564,263.636,1322.129,241.591z"/>
	<path d="M241.591,304.256c-6.998,3.796-12.032,11.714-11.356,19.796c0.31,5.247,6.089,13.824,16.798,11.682
		c2.346-0.456,3.112-2.876,3.975-4.766c-2.403-0.896-5.613-0.864-7.153-3.25c-1.89-3.813,0.44-8.929,4.481-10.191
		c7.528-2.872,16.969,6.776,12.635,17.572c-6.097,13.205-20.9,14.047-30.492,8.383c-7.006-3.918-11.193-11.258-14.085-18.484
		c-10.129-27.334,0.275-53.175-13.694-86.466c-4.09-8.668-8.073-17.498-13.857-25.197c-3.21,3.031-7.299,4.652-11.592,5.434
		c3.487,5.711,7.144,11.348,9.857,17.49c12.326,25.806,9.176,61.429-10.908,78.352c-15.871,12.556-38.355,11.01-43.934-6.387
		c-1.906-6.411,1.043-14.778,7.878-16.725c6.126-1.857,12.904,4.212,11.397,10.484c-0.456,3.177-3.674,4.415-5.914,6.151
		c0.836,4.295,12.994,2.902,16.92-4.709c6.793-12.6-2.118-25.384-17.661-27.592c-17.279-1.567-34.451,17.632-25.547,39.502
		c9.764,24.256,52.456,37.033,80.413-7.006c1.595,22.577,12.093,46.735,33.889,52.438c21.9,5.104,37.173-8.19,41.457-19.731
		C284.021,319.315,263.636,293.821,241.591,304.256z"/>
	<path d="M304.256,1384.794c3.796,6.998,11.714,12.032,19.796,11.356c5.247-0.31,13.824-6.089,11.682-16.798
		c-0.456-2.346-2.876-3.112-4.766-3.975c-0.896,2.403-0.864,5.613-3.25,7.153c-3.813,1.89-8.929-0.44-10.191-4.48
		c-2.872-7.528,6.776-16.969,17.572-12.635c13.205,6.097,14.047,20.9,8.383,30.492c-3.918,7.006-11.258,11.193-18.484,14.085
		c-27.334,10.129-53.175-0.275-86.466,13.694c-8.668,4.089-17.498,8.073-25.197,13.857c3.031,3.21,4.652,7.299,5.434,11.592
		c5.711-3.487,11.348-7.145,17.49-9.857c25.806-12.326,61.429-9.176,78.352,10.908c12.556,15.871,11.01,38.355-6.387,43.934
		c-6.411,1.906-14.778-1.043-16.725-7.878c-1.857-6.126,4.212-12.904,10.484-11.397c3.177,0.456,4.415,3.674,6.151,5.914
		c4.295-0.836,2.902-12.994-4.709-16.92c-12.6-6.793-25.384,2.118-27.592,17.661c-1.567,17.279,17.632,34.451,39.502,25.547
		c24.256-9.764,37.033-52.456-7.006-80.413c22.577-1.595,46.735-12.093,52.438-33.889c5.104-21.9-8.19-37.173-19.731-41.457
		C319.315,1342.364,293.821,1362.75,304.256,1384.794z"/>
	<path d="M1384.794,1322.129c6.998-3.796,12.032-11.714,11.356-19.796c-0.31-5.247-6.089-13.824-16.798-11.682
		c-2.346,0.456-3.112,2.876-3.975,4.766c2.403,0.896,5.613,0.864,7.153,3.25c1.89,3.813-0.44,8.928-4.48,10.191
		c-7.528,2.872-16.969-6.776-12.635-17.572c6.097-13.205,20.9-14.047,30.492-8.383c7.006,3.918,11.193,11.258,14.085,18.484
		c10.129,27.334-0.275,53.175,13.694,86.466c4.089,8.668,8.073,17.499,13.857,25.197c3.21-3.031,7.299-4.652,11.592-5.434
		c-3.487-5.711-7.145-11.348-9.857-17.49c-12.326-25.806-9.176-61.429,10.908-78.352c15.871-12.556,38.355-11.01,43.934,6.387
		c1.906,6.411-1.043,14.777-7.878,16.724c-6.126,1.857-12.904-4.212-11.397-10.484c0.456-3.177,3.674-4.415,5.914-6.151
		c-0.836-4.295-12.994-2.901-16.92,4.709c-6.793,12.6,2.118,25.384,17.661,27.592c17.279,1.567,34.451-17.632,25.547-39.502
		c-9.764-24.256-52.456-37.033-80.413,7.006c-1.595-22.577-12.093-46.735-33.889-52.438c-21.9-5.104-37.173,8.19-41.457,19.731
		C1342.364,1307.07,1362.75,1332.564,1384.794,1322.129z"/>
	<path d="M1384.794,304.256c6.998,3.796,12.032,11.714,11.356,19.796c-0.31,5.247-6.089,13.824-16.798,11.682
		c-2.346-0.456-3.112-2.876-3.975-4.766c2.403-0.896,5.613-0.864,7.153-3.25c1.89-3.813-0.44-8.929-4.48-10.191
		c-7.528-2.872-16.969,6.776-12.635,17.572c6.097,13.205,20.9,14.047,30.492,8.383c7.006-3.918,11.193-11.258,14.085-18.484
		c10.129-27.334-0.275-53.175,13.694-86.466c4.089-8.668,8.073-17.498,13.857-25.197c3.21,3.031,7.299,4.652,11.592,5.434
		c-3.487,5.711-7.145,11.348-9.857,17.49c-12.326,25.806-9.176,61.429,10.908,78.352c15.871,12.556,38.355,11.01,43.934-6.387
		c1.906-6.411-1.043-14.778-7.878-16.725c-6.126-1.857-12.904,4.212-11.397,10.484c0.456,3.177,3.674,4.415,5.914,6.151
		c-0.836,4.295-12.994,2.902-16.92-4.709c-6.793-12.6,2.118-25.384,17.661-27.592c17.279-1.567,34.451,17.632,25.547,39.502
		c-9.764,24.256-52.456,37.033-80.413-7.006c-1.595,22.577-12.093,46.735-33.889,52.438c-21.9,5.104-37.173-8.19-41.457-19.731
		C1342.364,319.315,1362.75,293.821,1384.794,304.256z"/>
	<path d="M304.256,241.591c3.796-6.998,11.714-12.032,19.796-11.356c5.247,0.31,13.824,6.089,11.682,16.798
		c-0.456,2.346-2.876,3.112-4.766,3.975c-0.896-2.403-0.864-5.613-3.25-7.153c-3.813-1.89-8.929,0.44-10.191,4.481
		c-2.872,7.528,6.776,16.969,17.572,12.635c13.205-6.097,14.047-20.9,8.383-30.492c-3.918-7.006-11.258-11.193-18.484-14.085
		c-27.334-10.129-53.175,0.275-86.466-13.694c-8.668-4.09-17.498-8.073-25.197-13.857c3.031-3.21,4.652-7.299,5.434-11.592
		c5.711,3.487,11.348,7.144,17.49,9.857c25.806,12.326,61.429,9.176,78.352-10.908c12.556-15.871,11.01-38.355-6.387-43.934
		c-6.411-1.906-14.778,1.043-16.725,7.878c-1.857,6.126,4.212,12.904,10.484,11.397c3.177-0.456,4.415-3.674,6.151-5.914
		c4.295,0.836,2.902,12.994-4.709,16.92c-12.6,6.793-25.384-2.118-27.592-17.661c-1.567-17.279,17.632-34.451,39.502-25.547
		c24.256,9.764,37.033,52.456-7.006,80.413c22.577,1.595,46.735,12.093,52.438,33.889c5.104,21.9-8.19,37.173-19.731,41.457
		C319.315,284.021,293.821,263.636,304.256,241.591z"/>
	<path d="M241.591,1322.129c-6.998-3.796-12.032-11.714-11.356-19.796c0.31-5.247,6.089-13.824,16.798-11.682
		c2.346,0.456,3.112,2.876,3.975,4.766c-2.403,0.896-5.613,0.864-7.153,3.25c-1.89,3.813,0.44,8.928,4.481,10.191
		c7.528,2.872,16.969-6.776,12.635-17.572c-6.097-13.205-20.9-14.047-30.492-8.383c-7.006,3.918-11.193,11.258-14.085,18.484
		c-10.129,27.334,0.275,53.175-13.694,86.466c-4.09,8.668-8.073,17.499-13.857,25.197c-3.21-3.031-7.299-4.652-11.592-5.434
		c3.487-5.711,7.144-11.348,9.857-17.49c12.326-25.806,9.176-61.429-10.908-78.352c-15.871-12.556-38.355-11.01-43.934,6.387
		c-1.906,6.411,1.043,14.777,7.878,16.724c6.126,1.857,12.904-4.212,11.397-10.484c-0.456-3.177-3.674-4.415-5.914-6.151
		c0.836-4.295,12.994-2.901,16.92,4.709c6.793,12.6-2.118,25.384-17.661,27.592c-17.279,1.567-34.451-17.632-25.547-39.502
		c9.764-24.256,52.456-37.033,80.413,7.006c1.595-22.577,12.093-46.735,33.889-52.438c21.9-5.104,37.173,8.19,41.457,19.731
		C284.021,1307.07,263.636,1332.564,241.591,1322.129z"/>
	<path d="M1322.129,1384.794c-3.796,6.998-11.714,12.032-19.796,11.356c-5.247-0.31-13.824-6.089-11.682-16.798
		c0.456-2.346,2.876-3.112,4.766-3.975c0.896,2.403,0.864,5.613,3.25,7.153c3.813,1.89,8.928-0.44,10.191-4.48
		c2.872-7.528-6.776-16.969-17.572-12.635c-13.205,6.097-14.047,20.9-8.383,30.492c3.918,7.006,11.258,11.193,18.484,14.085
		c27.334,10.129,53.175-0.275,86.466,13.694c8.668,4.089,17.499,8.073,25.197,13.857c-3.031,3.21-4.652,7.299-5.434,11.592
		c-5.711-3.487-11.348-7.145-17.49-9.857c-25.806-12.326-61.429-9.176-78.352,10.908c-12.556,15.871-11.01,38.355,6.387,43.934
		c6.411,1.906,14.777-1.043,16.724-7.878c1.857-6.126-4.212-12.904-10.484-11.397c-3.177,0.456-4.415,3.674-6.151,5.914
		c-4.295-0.836-2.901-12.994,4.709-16.92c12.6-6.793,25.384,2.118,27.592,17.661c1.567,17.279-17.632,34.451-39.502,25.547
		c-24.256-9.764-37.033-52.456,7.006-80.413c-22.577-1.595-46.735-12.093-52.438-33.889c-5.104-21.9,8.19-37.173,19.731-41.457
		C1307.07,1342.364,1332.564,1362.75,1322.129,1384.794z"/>
	<path d="M1328.092,219.204c-2.134,3.446-4.081,7.413-3.43,11.584c0.603,5.8,5.018,10.411,9.963,13.051
		c18.937,8.603,49.555-17.55,82.743-43.388c3.03-1.898,2.419-5.979,3.047-9.026c-6.252,3.751-29.803,26.107-58.247,32.105
		C1341.015,227.836,1335.366,224.134,1328.092,219.204z"/>
	<path d="M219.204,298.293c3.446,2.134,7.413,4.081,11.584,3.43c5.8-0.603,10.411-5.018,13.051-9.963
		c8.603-18.937-17.55-49.555-43.388-82.743c-1.898-3.03-5.979-2.419-9.026-3.047c3.751,6.252,26.107,29.803,32.105,58.247
		C227.836,285.37,224.134,291.019,219.204,298.293z"/>
	<path d="M298.293,1407.181c2.134-3.446,4.081-7.413,3.43-11.584c-0.603-5.8-5.018-10.411-9.963-13.051
		c-18.937-8.603-49.555,17.55-82.743,43.388c-3.03,1.898-2.419,5.979-3.047,9.026c6.252-3.751,29.803-26.107,58.247-32.105
		C285.37,1398.549,291.019,1402.251,298.293,1407.181z"/>
	<path d="M1407.181,1328.092c-3.446-2.134-7.413-4.081-11.584-3.43c-5.8,0.603-10.411,5.018-13.051,9.963
		c-8.603,18.937,17.55,49.555,43.388,82.743c1.898,3.03,5.979,2.419,9.026,3.047c-3.751-6.252-26.107-29.803-32.105-58.247
		C1398.549,1341.015,1402.251,1335.366,1407.181,1328.092z"/>
	<path d="M1407.181,298.293c-3.446,2.134-7.413,4.081-11.584,3.43c-5.8-0.603-10.411-5.018-13.051-9.963
		c-8.603-18.937,17.55-49.555,43.388-82.743c1.898-3.03,5.979-2.419,9.026-3.047c-3.751,6.252-26.107,29.803-32.105,58.247
		C1398.549,285.37,1402.251,291.019,1407.181,298.293z"/>
	<path d="M298.293,219.204c2.134,3.446,4.081,7.413,3.43,11.584c-0.603,5.8-5.018,10.411-9.963,13.051
		c-18.937,8.603-49.555-17.55-82.743-43.388c-3.03-1.898-2.419-5.979-3.047-9.026c6.252,3.751,29.803,26.107,58.247,32.105
		C285.37,227.836,291.019,224.134,298.293,219.204z"/>
	<path d="M219.204,1328.092c3.446-2.134,7.413-4.081,11.584-3.43c5.8,0.603,10.411,5.018,13.051,9.963
		c8.603,18.937-17.55,49.555-43.388,82.743c-1.898,3.03-5.979,2.419-9.026,3.047c3.751-6.252,26.107-29.803,32.105-58.247
		C227.836,1341.015,224.134,1335.366,219.204,1328.092z"/>
	<path d="M1328.092,1407.181c-2.134-3.446-4.081-7.413-3.43-11.584c0.603-5.8,5.018-10.411,9.963-13.051
		c18.937-8.603,49.555,17.55,82.743,43.388c3.03,1.898,2.419,5.979,3.047,9.026c-6.252-3.751-29.803-26.107-58.247-32.105
		C1341.015,1398.549,1335.366,1402.251,1328.092,1407.181z"/>
	<path d="M1283.702,205.152c-0.416-2.216-0.855-4.432-1.246-6.664c-5.731,0.856-20.8,2.739-22.321,8.407
		c-1.768,5.605,0.684,11.307,2.876,16.407C1268.534,215.873,1275.312,209.258,1283.702,205.152z"/>
	<path d="M205.152,342.683c-2.216,0.415-4.432,0.855-6.664,1.246c0.856,5.731,2.739,20.8,8.407,22.321
		c5.605,1.768,11.307-0.684,16.407-2.876C215.873,357.852,209.258,351.074,205.152,342.683z"/>
	<path d="M342.683,1421.233c0.415,2.216,0.855,4.432,1.246,6.664c5.731-0.856,20.8-2.739,22.321-8.407
		c1.768-5.605-0.684-11.307-2.876-16.407C357.852,1410.513,351.074,1417.128,342.683,1421.233z"/>
	<path d="M1421.233,1283.702c2.216-0.416,4.432-0.855,6.664-1.246c-0.856-5.731-2.739-20.8-8.407-22.321
		c-5.605-1.768-11.307,0.684-16.407,2.876C1410.513,1268.534,1417.128,1275.312,1421.233,1283.702z"/>
	<path d="M1421.233,342.683c2.216,0.415,4.432,0.855,6.664,1.246c-0.856,5.731-2.739,20.8-8.407,22.321
		c-5.605,1.768-11.307-0.684-16.407-2.876C1410.513,357.852,1417.128,351.074,1421.233,342.683z"/>
	<path d="M342.683,205.152c0.415-2.216,0.855-4.432,1.246-6.664c5.731,0.856,20.8,2.739,22.321,8.407
		c1.768,5.605-0.684,11.307-2.876,16.407C357.852,215.873,351.074,209.258,342.683,205.152z"/>
	<path d="M205.152,1283.702c-2.216-0.416-4.432-0.855-6.664-1.246c0.856-5.731,2.739-20.8,8.407-22.321
		c5.605-1.768,11.307,0.684,16.407,2.876C215.873,1268.534,209.258,1275.312,205.152,1283.702z"/>
	<path d="M1283.702,1421.233c-0.416,2.216-0.855,4.432-1.246,6.664c-5.731-0.856-20.8-2.739-22.321-8.407
		c-1.768-5.605,0.684-11.307,2.876-16.407C1268.534,1410.513,1275.312,1417.128,1283.702,1421.233z"/>
	<path d="M1442.904,183.481c-4.198-4.217-7.452-9.366-9.3-15.069c-1.572-4.252-1.898-8.79-2.607-13.23
		c-7.926,0.033-15.853,0.22-23.787,0.244c0.179,3.332,0.497,7.03,3.006,9.515c1.711,2.028,4.407,2.558,6.851,3.145
		c-1.263,1.002-2.615,1.939-3.601,3.242c-3.299,4.464-2.379,11.747,2.615,14.598c3.153,2.224,7.055,0.953,10.427,0.098
		c-2.094,3.128-4.244,6.794-3.381,10.713c0.47,1.541,1.354,2.912,2.498,4.023c1.11,1.144,2.482,2.027,4.023,2.498
		c3.918,0.863,7.584-1.287,10.713-3.381c-0.855,3.373-2.126,7.275,0.098,10.427c2.851,4.994,10.134,5.914,14.598,2.615
		c1.303-0.986,2.24-2.338,3.242-3.601c0.587,2.444,1.116,5.14,3.145,6.851c2.485,2.509,6.183,2.827,9.515,3.006
		c0.024-7.935,0.212-15.861,0.244-23.788c-4.44-0.709-8.977-1.035-13.23-2.607C1452.271,190.933,1447.121,187.679,1442.904,183.481z
		"/>
	<path d="M1442.904,1442.904c4.217-4.198,9.366-7.452,15.069-9.3c4.252-1.572,8.79-1.898,13.23-2.607
		c-0.033-7.926-0.22-15.853-0.244-23.787c-3.332,0.179-7.03,0.497-9.515,3.006c-2.028,1.711-2.558,4.407-3.145,6.851
		c-1.002-1.263-1.939-2.615-3.242-3.601c-4.464-3.299-11.747-2.379-14.598,2.615c-2.224,3.153-0.953,7.055-0.098,10.427
		c-3.128-2.094-6.794-4.244-10.713-3.381c-1.541,0.47-2.912,1.354-4.023,2.498c-1.144,1.11-2.027,2.482-2.498,4.023
		c-0.863,3.918,1.287,7.584,3.381,10.713c-3.373-0.855-7.275-2.126-10.427,0.098c-4.994,2.851-5.914,10.134-2.615,14.598
		c0.986,1.303,2.338,2.24,3.601,3.242c-2.444,0.587-5.141,1.116-6.851,3.145c-2.509,2.485-2.827,6.183-3.006,9.515
		c7.935,0.024,15.861,0.212,23.787,0.244c0.709-4.44,1.035-8.977,2.607-13.23
		C1435.452,1452.271,1438.706,1447.121,1442.904,1442.904z"/>
	<path d="M183.481,1442.904c4.198,4.217,7.452,9.366,9.3,15.069c1.572,4.252,1.898,8.79,2.607,13.23
		c7.926-0.033,15.853-0.22,23.788-0.244c-0.179-3.332-0.497-7.03-3.006-9.515c-1.711-2.028-4.407-2.558-6.851-3.145
		c1.263-1.002,2.615-1.939,3.601-3.242c3.299-4.464,2.379-11.747-2.615-14.598c-3.153-2.224-7.055-0.953-10.427-0.098
		c2.094-3.128,4.244-6.794,3.381-10.713c-0.47-1.541-1.353-2.912-2.498-4.023c-1.11-1.144-2.482-2.027-4.023-2.498
		c-3.918-0.863-7.584,1.287-10.713,3.381c0.855-3.373,2.126-7.275-0.098-10.427c-2.851-4.994-10.134-5.914-14.598-2.615
		c-1.303,0.986-2.24,2.338-3.242,3.601c-0.587-2.444-1.116-5.141-3.145-6.851c-2.485-2.509-6.183-2.827-9.515-3.006
		c-0.024,7.935-0.212,15.861-0.244,23.787c4.44,0.709,8.977,1.035,13.23,2.607C174.115,1435.452,179.264,1438.706,183.481,1442.904z
		"/>
	<path d="M183.481,183.481c-4.217,4.198-9.366,7.452-15.069,9.3c-4.252,1.572-8.79,1.898-13.23,2.607
		c0.033,7.926,0.22,15.853,0.244,23.788c3.332-0.179,7.03-0.497,9.515-3.006c2.028-1.711,2.558-4.407,3.145-6.851
		c1.002,1.263,1.939,2.615,3.242,3.601c4.464,3.299,11.747,2.379,14.598-2.615c2.224-3.153,0.953-7.055,0.098-10.427
		c3.128,2.094,6.794,4.244,10.713,3.381c1.541-0.47,2.912-1.353,4.023-2.498c1.144-1.11,2.027-2.482,2.498-4.023
		c0.863-3.918-1.287-7.584-3.381-10.713c3.373,0.855,7.275,2.126,10.427-0.098c4.994-2.851,5.914-10.134,2.615-14.598
		c-0.986-1.303-2.338-2.24-3.601-3.242c2.444-0.587,5.14-1.116,6.851-3.145c2.509-2.485,2.827-6.183,3.006-9.515
		c-7.935-0.024-15.861-0.212-23.788-0.244c-0.709,4.44-1.035,8.977-2.607,13.23C190.933,174.115,187.679,179.264,183.481,183.481z"
		/>
	<path d="M1285.788,202.692c4.505-1.132,8.798-3.014,13.36-3.902c3.259-0.725,6.599-0.872,9.882-1.369
		c-9.141-6.473-7.921-4.724-16.806-15.633C1284.941,185.772,1283.433,195.352,1285.788,202.692z"/>
	<path d="M202.692,340.597c-1.132-4.505-3.014-8.798-3.902-13.36c-0.725-3.259-0.872-6.599-1.369-9.882
		c-6.473,9.141-4.724,7.921-15.633,16.806C185.772,341.445,195.352,342.952,202.692,340.597z"/>
	<path d="M340.597,1423.693c-4.505,1.132-8.798,3.014-13.36,3.902c-3.259,0.725-6.599,0.872-9.882,1.369
		c9.141,6.473,7.921,4.724,16.806,15.633C341.445,1440.614,342.952,1431.033,340.597,1423.693z"/>
	<path d="M1423.693,1285.788c1.132,4.505,3.014,8.798,3.902,13.36c0.725,3.259,0.872,6.599,1.369,9.882
		c6.473-9.141,4.724-7.921,15.633-16.806C1440.614,1284.941,1431.033,1283.433,1423.693,1285.788z"/>
	<path d="M1423.693,340.597c1.132-4.505,3.014-8.798,3.902-13.36c0.725-3.259,0.872-6.599,1.369-9.882
		c6.473,9.141,4.724,7.921,15.633,16.806C1440.614,341.445,1431.033,342.952,1423.693,340.597z"/>
	<path d="M340.597,202.692c-4.505-1.132-8.798-3.014-13.36-3.902c-3.259-0.725-6.599-0.872-9.882-1.369
		c9.141-6.473,7.921-4.724,16.806-15.633C341.445,185.772,342.952,195.352,340.597,202.692z"/>
	<path d="M202.692,1285.788c-1.132,4.505-3.014,8.798-3.902,13.36c-0.725,3.259-0.872,6.599-1.369,9.882
		c-6.473-9.141-4.724-7.921-15.633-16.806C185.772,1284.941,195.352,1283.433,202.692,1285.788z"/>
	<path d="M1285.788,1423.693c4.505,1.132,8.798,3.014,13.36,3.902c3.259,0.725,6.599,0.872,9.882,1.369
		c-9.141,6.473-7.921,4.724-16.806,15.633C1284.941,1440.614,1283.433,1431.033,1285.788,1423.693z"/>
	<path d="M1283.759,188.028c-17.039-8.034-21.165-14.047-34.573-6.444c4.033,13.802,16.134,11.907,32.749,13.173
		C1282.497,192.501,1283.099,190.26,1283.759,188.028z"/>
	<path d="M188.028,342.626c-8.034,17.039-14.047,21.165-6.444,34.573c13.802-4.033,11.907-16.134,13.173-32.749
		C192.501,343.889,190.26,343.286,188.028,342.626z"/>
	<path d="M342.626,1438.357c17.039,8.034,21.165,14.047,34.573,6.444c-4.033-13.802-16.134-11.907-32.749-13.173
		C343.889,1433.885,343.286,1436.125,342.626,1438.357z"/>
	<path d="M1438.357,1283.759c8.034-17.039,14.047-21.165,6.444-34.573c-13.802,4.033-11.907,16.134-13.173,32.749
		C1433.885,1282.497,1436.125,1283.099,1438.357,1283.759z"/>
	<path d="M1438.357,342.626c8.034,17.039,14.047,21.165,6.444,34.573c-13.802-4.033-11.907-16.134-13.173-32.749
		C1433.885,343.889,1436.125,343.286,1438.357,342.626z"/>
	<path d="M342.626,188.028c17.039-8.034,21.165-14.047,34.573-6.444c-4.033,13.802-16.134,11.907-32.749,13.173
		C343.889,192.501,343.286,190.26,342.626,188.028z"/>
	<path d="M188.028,1283.759c-8.034-17.039-14.047-21.165-6.444-34.573c13.802,4.033,11.907,16.134,13.173,32.749
		C192.501,1282.497,190.26,1283.099,188.028,1283.759z"/>
	<path d="M1283.759,1438.357c-17.039,8.034-21.165,14.047-34.573,6.444c4.033-13.802,16.134-11.907,32.749-13.173
		C1282.497,1433.885,1283.099,1436.125,1283.759,1438.357z"/>
	<path d="M1454.174,172.211c-1.583-1.63-3.071-3.646-4.374-6.154c-1.727-3.348-1.971-7.161-2.403-10.835
		c-4.212,0.464-8.896-1.018-12.782,0.994c-0.033,9.535,4.144,18.377,10.671,24.883c6.506,6.527,15.349,10.704,24.883,10.671
		c2.012-3.886,0.53-8.57,0.994-12.782c-3.674-0.432-7.487-0.676-10.835-2.403C1457.819,175.282,1455.803,173.794,1454.174,172.211z"
		/>
	<path d="M1454.174,1454.174c1.63-1.583,3.646-3.071,6.154-4.374c3.348-1.727,7.161-1.971,10.835-2.403
		c-0.464-4.212,1.018-8.896-0.994-12.782c-9.534-0.033-18.377,4.144-24.883,10.671c-6.527,6.506-10.704,15.349-10.671,24.883
		c3.886,2.012,8.57,0.53,12.782,0.994c0.432-3.674,0.676-7.487,2.403-10.835C1451.103,1457.819,1452.591,1455.803,1454.174,1454.174
		z"/>
	<path d="M172.211,1454.174c1.583,1.63,3.07,3.646,4.374,6.154c1.727,3.348,1.971,7.161,2.403,10.835
		c4.212-0.464,8.896,1.018,12.782-0.994c0.033-9.534-4.144-18.377-10.671-24.883c-6.506-6.527-15.348-10.704-24.883-10.671
		c-2.012,3.886-0.53,8.57-0.994,12.782c3.674,0.432,7.487,0.676,10.835,2.403C168.566,1451.103,170.582,1452.591,172.211,1454.174z"
		/>
	<path d="M172.211,172.211c-1.63,1.583-3.646,3.07-6.154,4.374c-3.348,1.727-7.161,1.971-10.835,2.403
		c0.464,4.212-1.018,8.896,0.994,12.782c9.535,0.033,18.377-4.144,24.883-10.671c6.527-6.506,10.704-15.348,10.671-24.883
		c-3.886-2.012-8.57-0.53-12.782-0.994c-0.432,3.674-0.676,7.487-2.403,10.835C175.282,168.566,173.794,170.582,172.211,172.211z"/>
	<path d="M1270.513,168.517c1.377,7.731,8.814,12.024,14.607,16.358c1.906-1.857,4.26-3.356,5.711-5.637
		c-4.277-7.022-8.423-14.297-9.808-22.525C1276.696,159.63,1270.725,162.554,1270.513,168.517z"/>
	<path d="M168.517,355.872c7.731-1.377,12.024-8.814,16.358-14.607c-1.857-1.906-3.356-4.261-5.637-5.711
		c-7.022,4.277-14.297,8.423-22.525,9.808C159.63,349.689,162.554,355.66,168.517,355.872z"/>
	<path d="M355.872,1457.868c-1.377-7.731-8.814-12.024-14.607-16.358c-1.906,1.857-4.261,3.356-5.711,5.637
		c4.277,7.022,8.423,14.297,9.808,22.525C349.689,1466.755,355.66,1463.831,355.872,1457.868z"/>
	<path d="M1457.868,1270.513c-7.731,1.377-12.024,8.814-16.358,14.607c1.857,1.906,3.356,4.26,5.637,5.711
		c7.022-4.277,14.297-8.423,22.525-9.808C1466.755,1276.696,1463.831,1270.725,1457.868,1270.513z"/>
	<path d="M1457.868,355.872c-7.731-1.377-12.024-8.814-16.358-14.607c1.857-1.906,3.356-4.261,5.637-5.711
		c7.022,4.277,14.297,8.423,22.525,9.808C1466.755,349.689,1463.831,355.66,1457.868,355.872z"/>
	<path d="M355.872,168.517c-1.377,7.731-8.814,12.024-14.607,16.358c-1.906-1.857-4.261-3.356-5.711-5.637
		c4.277-7.022,8.423-14.297,9.808-22.525C349.689,159.63,355.66,162.554,355.872,168.517z"/>
	<path d="M168.517,1270.513c7.731,1.377,12.024,8.814,16.358,14.607c-1.857,1.906-3.356,4.26-5.637,5.711
		c-7.022-4.277-14.297-8.423-22.525-9.808C159.63,1276.696,162.554,1270.725,168.517,1270.513z"/>
	<path d="M1270.513,1457.868c1.377-7.731,8.814-12.024,14.607-16.358c1.906,1.857,4.26,3.356,5.711,5.637
		c-4.277,7.022-8.423,14.297-9.808,22.525C1276.696,1466.755,1270.725,1463.831,1270.513,1457.868z"/>
	<path d="M1470.751,155.634c-6.853-0.332-13.726-0.338-20.577,0.053c-0.023,5.546,2.033,10.807,5.857,14.667
		c3.86,3.823,9.121,5.879,14.667,5.857C1471.089,169.36,1471.083,162.487,1470.751,155.634z"/>
	<path d="M1470.751,1470.751c0.332-6.853,0.338-13.726-0.053-20.577c-5.546-0.023-10.807,2.033-14.667,5.857
		c-3.823,3.86-5.879,9.121-5.857,14.667C1457.025,1471.089,1463.898,1471.083,1470.751,1470.751z"/>
	<path d="M155.634,1470.751c6.853,0.332,13.726,0.338,20.577-0.053c0.022-5.546-2.034-10.807-5.857-14.667
		c-3.86-3.823-9.121-5.879-14.667-5.857C155.296,1457.025,155.303,1463.898,155.634,1470.751z"/>
	<path d="M155.634,155.634c-0.332,6.853-0.338,13.726,0.053,20.577c5.546,0.022,10.807-2.034,14.667-5.857
		c3.823-3.86,5.879-9.121,5.857-14.667C169.36,155.296,162.487,155.303,155.634,155.634z"/>
	<path d="M1390.241,160.444c-17.225,1.142-30.228-31.129-40.863-38.989c-3.772-2.753-7.715-5.825-12.521-6.338
		c2.925,3.136,6.713,5.303,9.711,8.366c10.145,11.067,10.243,26.634,13.213,33.995c9.733,25.901,35.067,20.427,39.779,5.605
		c0.978-3.405,2.639-7.747,0.179-10.876C1397.361,155.671,1394.844,159.882,1390.241,160.444z"/>
	<path d="M160.444,236.144c1.142,17.225-31.129,30.228-38.989,40.863c-2.753,3.772-5.825,7.715-6.338,12.521
		c3.136-2.925,5.303-6.713,8.366-9.71c11.067-10.145,26.634-10.243,33.995-13.213c25.901-9.733,20.427-35.067,5.605-39.779
		c-3.405-0.978-7.747-2.639-10.876-0.179C155.671,229.024,159.882,231.541,160.444,236.144z"/>
	<path d="M236.144,1465.941c17.225-1.142,30.228,31.129,40.863,38.989c3.772,2.753,7.715,5.825,12.521,6.338
		c-2.925-3.136-6.713-5.303-9.71-8.366c-10.145-11.067-10.243-26.634-13.213-33.995c-9.733-25.901-35.067-20.427-39.779-5.605
		c-0.978,3.405-2.639,7.747-0.179,10.875C229.024,1470.715,231.541,1466.503,236.144,1465.941z"/>
	<path d="M1465.941,1390.241c-1.142-17.225,31.129-30.228,38.989-40.863c2.753-3.772,5.825-7.715,6.338-12.521
		c-3.136,2.925-5.303,6.713-8.366,9.711c-11.067,10.145-26.634,10.243-33.995,13.213c-25.901,9.733-20.427,35.067-5.605,39.779
		c3.405,0.978,7.747,2.639,10.875,0.179C1470.715,1397.361,1466.503,1394.844,1465.941,1390.241z"/>
	<path d="M1465.941,236.144c-1.142,17.225,31.129,30.228,38.989,40.863c2.753,3.772,5.825,7.715,6.338,12.521
		c-3.136-2.925-5.303-6.713-8.366-9.71c-11.067-10.145-26.634-10.243-33.995-13.213c-25.901-9.733-20.427-35.067-5.605-39.779
		c3.405-0.978,7.747-2.639,10.875-0.179C1470.715,229.024,1466.503,231.541,1465.941,236.144z"/>
	<path d="M236.144,160.444c17.225,1.142,30.228-31.129,40.863-38.989c3.772-2.753,7.715-5.825,12.521-6.338
		c-2.925,3.136-6.713,5.303-9.71,8.366c-10.145,11.067-10.243,26.634-13.213,33.995c-9.733,25.901-35.067,20.427-39.779,5.605
		c-0.978-3.405-2.639-7.747-0.179-10.876C229.024,155.671,231.541,159.882,236.144,160.444z"/>
	<path d="M160.444,1390.241c1.142-17.225-31.129-30.228-38.989-40.863c-2.753-3.772-5.825-7.715-6.338-12.521
		c3.136,2.925,5.303,6.713,8.366,9.711c11.067,10.145,26.634,10.243,33.995,13.213c25.901,9.733,20.427,35.067,5.605,39.779
		c-3.405,0.978-7.747,2.639-10.876,0.179C155.671,1397.361,159.882,1394.844,160.444,1390.241z"/>
	<path d="M1390.241,1465.941c-17.225-1.142-30.228,31.129-40.863,38.989c-3.772,2.753-7.715,5.825-12.521,6.338
		c2.925-3.136,6.713-5.303,9.711-8.366c10.145-11.067,10.243-26.634,13.213-33.995c9.733-25.901,35.067-20.427,39.779-5.605
		c0.978,3.405,2.639,7.747,0.179,10.875C1397.361,1470.715,1394.844,1466.503,1390.241,1465.941z"/>
	<path d="M1292.712,96.707c-5.439-15.72-24.979-18.945-32.96-9.026c-3.202,3.902-4.57,8.961-5.295,13.865
		c3.356-1.703,6.542-4.261,10.476-4.366c7.952-0.312,15.843,8.477,17.295,20.488c1.512,13.93-1.323,37.166,2.908,42.663
		c0.497-5.45-0.204-10.99,0.888-16.399C1288.953,128.414,1297.325,108.596,1292.712,96.707z"/>
	<path d="M96.707,333.673c-15.72,5.439-18.945,24.979-9.026,32.96c3.902,3.202,8.961,4.57,13.865,5.295
		c-1.703-3.356-4.261-6.542-4.366-10.476c-0.312-7.952,8.477-15.843,20.488-17.295c13.93-1.512,37.166,1.323,42.663-2.908
		c-5.45-0.497-10.99,0.204-16.399-0.888C128.414,337.433,108.596,329.06,96.707,333.673z"/>
	<path d="M333.673,1529.678c5.439,15.72,24.979,18.944,32.96,9.026c3.202-3.902,4.57-8.961,5.295-13.865
		c-3.356,1.703-6.542,4.261-10.476,4.366c-7.952,0.312-15.843-8.477-17.295-20.488c-1.512-13.93,1.323-37.166-2.908-42.663
		c-0.497,5.45,0.204,10.99-0.888,16.399C337.433,1497.972,329.06,1517.79,333.673,1529.678z"/>
	<path d="M1529.678,1292.712c15.72-5.439,18.944-24.979,9.026-32.96c-3.902-3.202-8.961-4.57-13.865-5.295
		c1.703,3.356,4.261,6.542,4.366,10.476c0.312,7.952-8.477,15.843-20.488,17.295c-13.93,1.512-37.166-1.323-42.663,2.908
		c5.45,0.497,10.99-0.204,16.399,0.888C1497.972,1288.953,1517.79,1297.325,1529.678,1292.712z"/>
	<path d="M1529.678,333.673c15.72,5.439,18.944,24.979,9.026,32.96c-3.902,3.202-8.961,4.57-13.865,5.295
		c1.703-3.356,4.261-6.542,4.366-10.476c0.312-7.952-8.477-15.843-20.488-17.295c-13.93-1.512-37.166,1.323-42.663-2.908
		c5.45-0.497,10.99,0.204,16.399-0.888C1497.972,337.433,1517.79,329.06,1529.678,333.673z"/>
	<path d="M333.673,96.707c5.439-15.72,24.979-18.945,32.96-9.026c3.202,3.902,4.57,8.961,5.295,13.865
		c-3.356-1.703-6.542-4.261-10.476-4.366c-7.952-0.312-15.843,8.477-17.295,20.488c-1.512,13.93,1.323,37.166-2.908,42.663
		c-0.497-5.45,0.204-10.99-0.888-16.399C337.433,128.414,329.06,108.596,333.673,96.707z"/>
	<path d="M96.707,1292.712c-15.72-5.439-18.945-24.979-9.026-32.96c3.902-3.202,8.961-4.57,13.865-5.295
		c-1.703,3.356-4.261,6.542-4.366,10.476c-0.312,7.952,8.477,15.843,20.488,17.295c13.93,1.512,37.166-1.323,42.663,2.908
		c-5.45,0.497-10.99-0.204-16.399,0.888C128.414,1288.953,108.596,1297.325,96.707,1292.712z"/>
	<path d="M1292.712,1529.678c-5.439,15.72-24.979,18.944-32.96,9.026c-3.202-3.902-4.57-8.961-5.295-13.865
		c3.356,1.703,6.542,4.261,10.476,4.366c7.952,0.312,15.843-8.477,17.295-20.488c1.512-13.93-1.323-37.166,2.908-42.663
		c0.497,5.45-0.204,10.99,0.888,16.399C1288.953,1497.972,1297.325,1517.79,1292.712,1529.678z"/>
	<path d="M1568.743,1568.743c0.238-27.01,0.889-54.012,1.007-81.03c-9.841-0.595-19.714-0.081-29.563-0.13
		c-0.269,5.645,0.049,11.307-0.261,16.953c4.44-0.114,8.896-0.081,13.344,0.122c-0.205,15.951-0.189,31.918-0.742,47.871
		c-15.952,0.554-31.919,0.537-47.871,0.742c-0.204-4.448-0.236-8.904-0.122-13.344c-5.646,0.31-11.307-0.008-16.953,0.261
		c0.049,9.849-0.464,19.723,0.13,29.563C1514.731,1569.632,1541.734,1568.981,1568.743,1568.743z"/>
	<path d="M57.642,1568.743c27.01,0.238,54.012,0.889,81.03,1.007c0.595-9.841,0.081-19.714,0.13-29.563
		c-5.645-0.269-11.307,0.049-16.953-0.261c0.114,4.44,0.081,8.896-0.122,13.344c-15.951-0.205-31.918-0.189-47.871-0.742
		c-0.554-15.952-0.537-31.919-0.742-47.871c4.448-0.204,8.904-0.236,13.344-0.122c-0.31-5.646,0.008-11.307-0.261-16.953
		c-9.849,0.049-19.722-0.464-29.563,0.13C56.753,1514.731,57.404,1541.734,57.642,1568.743z"/>
	<path d="M57.642,57.642c-0.238,27.01-0.888,54.012-1.007,81.03c9.841,0.595,19.714,0.081,29.563,0.13
		c0.269-5.645-0.049-11.307,0.261-16.953c-4.44,0.114-8.896,0.081-13.344-0.122c0.205-15.951,0.189-31.918,0.742-47.871
		c15.952-0.554,31.919-0.537,47.871-0.742c0.204,4.448,0.236,8.904,0.122,13.344c5.646-0.31,11.307,0.008,16.953-0.261
		c-0.049-9.849,0.464-19.722-0.13-29.563C111.654,56.753,84.652,57.404,57.642,57.642z"/>
	<path d="M1568.743,57.642c-27.01-0.238-54.012-0.888-81.03-1.007c-0.595,9.841-0.081,19.714-0.13,29.563
		c5.645,0.269,11.307-0.049,16.953,0.261c-0.114-4.44-0.081-8.896,0.122-13.344c15.951,0.205,31.918,0.189,47.871,0.742
		c0.554,15.952,0.537,31.919,0.742,47.871c-4.448,0.204-8.904,0.236-13.344,0.122c0.31,5.646-0.008,11.307,0.261,16.953
		c9.849-0.049,19.723,0.464,29.563-0.13C1569.632,111.654,1568.981,84.652,1568.743,57.642z"/>
	<path d="M1504.576,1504.576c3.357-0.104,6.717-0.184,10.072-0.399c0.253-5.458,0.204-10.941,0.073-16.407
		c-9.041-0.485-18.09-0.202-27.139-0.188c-0.014,9.049-0.297,18.098,0.188,27.139c5.466,0.13,10.949,0.179,16.407-0.073
		C1504.392,1511.293,1504.471,1507.933,1504.576,1504.576z"/>
	<path d="M121.809,1504.576c0.104,3.357,0.184,6.717,0.399,10.072c5.458,0.253,10.941,0.204,16.407,0.073
		c0.485-9.041,0.202-18.09,0.188-27.139c-9.049-0.014-18.098-0.297-27.139,0.188c-0.13,5.466-0.179,10.949,0.073,16.407
		C115.092,1504.392,118.453,1504.471,121.809,1504.576z"/>
	<path d="M121.809,121.809c-3.357,0.104-6.717,0.184-10.072,0.399c-0.253,5.458-0.204,10.941-0.073,16.407
		c9.041,0.485,18.09,0.202,27.139,0.188c0.014-9.049,0.297-18.098-0.188-27.139c-5.466-0.13-10.949-0.179-16.407,0.073
		C121.993,115.092,121.914,118.453,121.809,121.809z"/>
	<path d="M1504.576,121.809c-0.104-3.357-0.184-6.717-0.399-10.072c-5.458-0.253-10.941-0.204-16.407-0.073
		c-0.485,9.041-0.202,18.09-0.188,27.139c9.049,0.014,18.098,0.297,27.139-0.188c0.13-5.466,0.179-10.949-0.073-16.407
		C1511.293,121.993,1507.933,121.914,1504.576,121.809z"/>
	<path d="M813.193,68.996c143.657,1.367,579.425,3.119,640.851,3.907c0.081,16.725-0.326,33.457,0.024,50.182
		c-18.557,0.106-37.123-0.098-55.681-0.261c-1.491,0.008-3.047-0.326-4.041-1.531c-4.863-4.896-9.873-9.662-14.387-14.884
		c22.818-0.22,45.636,0.171,68.454,0.204c0.245-5.67,0.016-11.348-0.098-17.018c-36.252-0.367-72.511-0.497-108.763-0.587
		c16.146,16.415,32.692,32.439,48.813,48.87c0.945,0.961,2.175,1.629,3.552,1.54c26.5-0.187,53.009,0.407,79.517,0.285
		c0.008-0.82,0.357-69.965-0.358-82.996c-32.515-0.719-507.57-3.527-657.885-4.296c-150.315,0.769-625.37,3.577-657.885,4.296
		c-0.715,13.031-0.366,82.175-0.358,82.996c26.508,0.122,53.017-0.473,79.517-0.285c1.377,0.09,2.607-0.578,3.552-1.54
		c16.122-16.431,32.667-32.455,48.813-48.87c-36.252,0.09-72.511,0.22-108.763,0.587c-0.114,5.67-0.342,11.348-0.098,17.018
		c22.818-0.033,45.636-0.424,68.454-0.204c-4.513,5.222-9.523,9.988-14.387,14.884c-0.994,1.206-2.55,1.54-4.041,1.531
		c-18.557,0.163-37.123,0.367-55.681,0.261c0.35-16.725-0.057-33.457,0.024-50.182C233.767,72.115,669.535,70.363,813.193,68.996z"
		/>
	<path d="M1557.389,813.193c-1.367,143.657-3.119,579.425-3.907,640.851c-16.725,0.081-33.457-0.326-50.182,0.024
		c-0.106-18.557,0.098-37.123,0.261-55.681c-0.008-1.491,0.326-3.047,1.531-4.041c4.896-4.863,9.662-9.873,14.884-14.387
		c0.22,22.818-0.171,45.636-0.204,68.454c5.67,0.245,11.348,0.016,17.018-0.098c0.367-36.252,0.497-72.511,0.587-108.763
		c-16.415,16.146-32.439,32.692-48.87,48.813c-0.961,0.945-1.629,2.175-1.54,3.552c0.187,26.5-0.407,53.009-0.285,79.517
		c0.82,0.008,69.965,0.357,82.996-0.358c0.719-32.515,3.527-507.57,4.296-657.885c-0.769-150.315-3.577-625.37-4.296-657.885
		c-13.031-0.715-82.175-0.366-82.996-0.358c-0.122,26.508,0.473,53.017,0.285,79.517c-0.09,1.377,0.578,2.607,1.54,3.552
		c16.431,16.122,32.455,32.667,48.87,48.813c-0.09-36.252-0.22-72.511-0.587-108.763c-5.67-0.114-11.348-0.342-17.018-0.098
		c0.033,22.818,0.424,45.636,0.204,68.454c-5.222-4.513-9.988-9.523-14.884-14.387c-1.206-0.994-1.54-2.55-1.531-4.041
		c-0.163-18.557-0.367-37.123-0.261-55.681c16.724,0.35,33.457-0.057,50.182,0.024
		C1554.271,233.767,1556.022,669.535,1557.389,813.193z"/>
	<path d="M813.193,1557.389c-143.657-1.367-579.425-3.119-640.851-3.907c-0.081-16.725,0.326-33.457-0.024-50.182
		c18.557-0.106,37.123,0.098,55.681,0.261c1.491-0.008,3.047,0.326,4.041,1.531c4.863,4.896,9.873,9.662,14.387,14.884
		c-22.818,0.22-45.636-0.171-68.454-0.204c-0.244,5.67-0.016,11.348,0.098,17.018c36.252,0.367,72.511,0.497,108.763,0.587
		c-16.146-16.415-32.692-32.439-48.813-48.87c-0.945-0.961-2.175-1.629-3.552-1.54c-26.5,0.187-53.009-0.407-79.517-0.285
		c-0.008,0.82-0.357,69.965,0.358,82.996c32.515,0.719,507.57,3.527,657.885,4.296c150.315-0.769,625.37-3.577,657.885-4.296
		c0.715-13.031,0.366-82.175,0.358-82.996c-26.509-0.122-53.017,0.473-79.517,0.285c-1.377-0.09-2.607,0.578-3.552,1.54
		c-16.122,16.431-32.667,32.455-48.813,48.87c36.251-0.09,72.511-0.22,108.763-0.587c0.114-5.67,0.342-11.348,0.098-17.018
		c-22.818,0.033-45.636,0.424-68.454,0.204c4.513-5.222,9.523-9.988,14.387-14.884c0.994-1.206,2.55-1.54,4.041-1.531
		c18.557-0.163,37.123-0.367,55.681-0.261c-0.35,16.724,0.057,33.457-0.024,50.182
		C1392.618,1554.271,956.85,1556.022,813.193,1557.389z"/>
	<path d="M68.996,813.193c1.367-143.657,3.119-579.425,3.907-640.851c16.725-0.081,33.457,0.326,50.182-0.024
		c0.106,18.557-0.098,37.123-0.261,55.681c0.008,1.491-0.326,3.047-1.531,4.041c-4.896,4.863-9.662,9.873-14.884,14.387
		c-0.22-22.818,0.171-45.636,0.204-68.454c-5.67-0.244-11.348-0.016-17.018,0.098c-0.367,36.252-0.497,72.511-0.587,108.763
		c16.415-16.146,32.439-32.692,48.87-48.813c0.961-0.945,1.629-2.175,1.54-3.552c-0.187-26.5,0.407-53.009,0.285-79.517
		c-0.82-0.008-69.965-0.357-82.996,0.358c-0.719,32.515-3.527,507.57-4.296,657.885c0.769,150.315,3.577,625.37,4.296,657.885
		c13.031,0.715,82.175,0.366,82.996,0.358c0.122-26.509-0.473-53.017-0.285-79.517c0.09-1.377-0.578-2.607-1.54-3.552
		c-16.431-16.122-32.455-32.667-48.87-48.813c0.09,36.251,0.22,72.511,0.587,108.763c5.67,0.114,11.348,0.342,17.018,0.098
		c-0.033-22.818-0.424-45.636-0.204-68.454c5.222,4.513,9.988,9.523,14.884,14.387c1.206,0.994,1.54,2.55,1.531,4.041
		c0.163,18.557,0.367,37.123,0.261,55.681c-16.725-0.35-33.457,0.057-50.182-0.024C72.115,1392.618,70.363,956.85,68.996,813.193z"
		/>
	<path d="M1314.463,113.936c1.605-0.725,4.179-0.806,4.513-2.949c1.613-7.267,2.297-14.729,2.346-22.175
		c-12.647,3.254-11.998,3.092-22.948,10.045c1.966,16.906-0.357,16.643-3.153,27.844
		C1300.492,120.959,1306.944,116.242,1314.463,113.936z"/>
	<path d="M113.936,311.922c-0.725-1.605-0.806-4.179-2.949-4.513c-7.267-1.613-14.729-2.297-22.175-2.346
		c3.254,12.647,3.092,11.998,10.045,22.948c16.906-1.966,16.643,0.357,27.844,3.153
		C120.959,325.893,116.242,319.441,113.936,311.922z"/>
	<path d="M311.922,1512.449c-1.605,0.725-4.179,0.807-4.513,2.949c-1.613,7.266-2.297,14.729-2.346,22.175
		c12.647-3.254,11.998-3.092,22.948-10.045c-1.966-16.906,0.357-16.643,3.153-27.844
		C325.893,1505.427,319.441,1510.143,311.922,1512.449z"/>
	<path d="M1512.449,1314.463c0.725,1.605,0.807,4.179,2.949,4.513c7.266,1.613,14.729,2.297,22.175,2.346
		c-3.254-12.647-3.092-11.998-10.045-22.948c-16.906,1.966-16.643-0.357-27.844-3.153
		C1505.427,1300.492,1510.143,1306.944,1512.449,1314.463z"/>
	<path d="M1512.449,311.922c0.725-1.605,0.807-4.179,2.949-4.513c7.266-1.613,14.729-2.297,22.175-2.346
		c-3.254,12.647-3.092,11.998-10.045,22.948c-16.906-1.966-16.643,0.357-27.844,3.153
		C1505.427,325.893,1510.143,319.441,1512.449,311.922z"/>
	<path d="M311.922,113.936c-1.605-0.725-4.179-0.806-4.513-2.949c-1.613-7.267-2.297-14.729-2.346-22.175
		c12.647,3.254,11.998,3.092,22.948,10.045c-1.966,16.906,0.357,16.643,3.153,27.844
		C325.893,120.959,319.441,116.242,311.922,113.936z"/>
	<path d="M113.936,1314.463c-0.725,1.605-0.806,4.179-2.949,4.513c-7.267,1.613-14.729,2.297-22.175,2.346
		c3.254-12.647,3.092-11.998,10.045-22.948c16.906,1.966,16.643-0.357,27.844-3.153
		C120.959,1300.492,116.242,1306.944,113.936,1314.463z"/>
	<path d="M1314.463,1512.449c1.605,0.725,4.179,0.807,4.513,2.949c1.613,7.266,2.297,14.729,2.346,22.175
		c-12.647-3.254-11.998-3.092-22.948-10.045c1.966-16.906-0.357-16.643-3.153-27.844
		C1300.492,1505.427,1306.944,1510.143,1314.463,1512.449z"/>
	<path d="M1535.712,90.673c-20.067-0.277-40.127-0.834-60.202-0.508c0.171,5.548-0.204,11.079-0.016,16.619
		c14.468,0.651,28.958,0.064,43.428,0.68c0.616,14.47,0.029,28.96,0.68,43.428c5.54,0.187,11.071-0.187,16.619-0.016
		C1536.546,130.8,1535.989,110.74,1535.712,90.673z"/>
	<path d="M1535.712,1535.712c0.277-20.067,0.834-40.127,0.508-60.202c-5.548,0.171-11.079-0.204-16.619-0.016
		c-0.651,14.468-0.064,28.958-0.68,43.428c-14.469,0.616-28.96,0.029-43.428,0.68c-0.187,5.54,0.187,11.071,0.016,16.619
		C1495.585,1536.546,1515.645,1535.989,1535.712,1535.712z"/>
	<path d="M90.673,1535.712c20.067,0.277,40.127,0.834,60.202,0.508c-0.171-5.548,0.204-11.079,0.016-16.619
		c-14.468-0.651-28.958-0.064-43.428-0.68c-0.616-14.469-0.029-28.96-0.68-43.428c-5.54-0.187-11.071,0.187-16.619,0.016
		C89.84,1495.585,90.396,1515.645,90.673,1535.712z"/>
	<path d="M90.673,90.673c-0.277,20.067-0.834,40.127-0.508,60.202c5.548-0.171,11.079,0.204,16.619,0.016
		c0.651-14.468,0.064-28.958,0.68-43.428c14.47-0.616,28.96-0.029,43.428-0.68c0.187-5.54-0.187-11.071-0.016-16.619
		C130.8,89.84,110.74,90.396,90.673,90.673z"/>
</g>
</svg>
