<?xml version="1.0" encoding="UTF-8" standalone="no"?>
<svg
   version="1.1"
   id="Layer_1"
   x="0px"
   y="0px"
   viewBox="0 0 1646.565 1646.565"
   enable-background="new 0 0 1646.565 1646.565"
   xml:space="preserve"
   xmlns="http://www.w3.org/2000/svg"
   xmlns:svg="http://www.w3.org/2000/svg"><defs
   id="defs9" />
<g
   id="g4">
	<path
   d="M1436.233,210.333c-104.719-26.568-193.972-121.109-316.043-166.701c-162.869-58.934-292.114,19.2-277.292,118.549   c1.76,14.162,6.471,28.113,14.668,39.873c27.909,40.666,88.455,42.997,116.176,18.491c42.963-37.537,20.019-117.282-43.08-112.68   c-19.984,1.34-43.517,18.146-42.909,38.162c-0.08,14.677,16.552,17.69,19.076-5.061c1.264-6.398-2.792-22.812,11.904-29.296   c13.82-4.17,31.232-1.431,46.121,8.329c41.22,25.847,34.678,110.1-41.249,108.217c-67.7-6.394-74.83-71.016-59.286-104.491   c30.913-68.335,143.516-53.432,222.022-28.558c0.229,0.158,0.681,0.482,0.909,0.64c-4.632,0.306-10.328-0.703-15.37-0.028   c-51.352,2.441-70.481,41.621-61.897,72.013c11.662,42.514,70.464,41.462,83.063,1.605c9.444-26.593-16.323-49.232-31.273-39.48   c3.804,0.305,7.807,0.772,10.998,3.063c7.374,5.187,10.571,15.193,8.518,23.83c-7.893,25.038-35.087,24.399-43.321,12.188   c-8.795-13.516-5.164-45.139,35.443-47.937c63.032-9.375,213.537,83.401,344.102,107.991   c24.59,130.565,117.366,281.07,107.991,344.102c-2.797,40.607-34.421,44.239-47.937,35.443   c-12.212-8.234-12.85-35.428,12.188-43.321c8.637-2.053,18.643,1.144,23.83,8.518c2.291,3.191,2.758,7.194,3.063,10.998   c9.752-14.95-12.887-40.717-39.48-31.273c-39.857,12.599-40.909,71.4,1.605,83.063c30.392,8.584,69.572-10.545,72.013-61.897   c0.675-5.041-0.334-10.738-0.028-15.37c0.158,0.229,0.482,0.681,0.64,0.909c24.873,78.506,39.776,191.109-28.558,222.022   c-33.476,15.544-98.098,8.414-104.491-59.286c-1.884-75.927,82.369-82.469,108.217-41.249c9.76,14.89,12.498,32.301,8.329,46.121   c-6.484,14.696-22.898,10.64-29.296,11.904c-22.751,2.524-19.738,19.156-5.061,19.076c20.016,0.608,36.823-22.925,38.162-42.909   c4.602-63.099-75.142-86.043-112.68-43.08c-24.507,27.721-22.175,88.267,18.491,116.176c11.76,8.198,25.712,12.908,39.873,14.668   c99.35,14.822,177.483-114.424,118.549-277.292C1557.342,404.304,1462.801,315.051,1436.233,210.333z M1436.233,1436.233   c26.568-104.719,121.109-193.972,166.701-316.043c58.934-162.869-19.2-292.114-118.549-277.292   c-14.161,1.76-28.113,6.471-39.873,14.668c-40.666,27.909-42.997,88.455-18.491,116.176c37.537,42.963,117.282,20.019,112.68-43.08   c-1.339-19.984-18.146-43.517-38.162-42.909c-14.677-0.08-17.69,16.552,5.061,19.076c6.398,1.264,22.812-2.792,29.296,11.904   c4.17,13.82,1.431,31.232-8.329,46.121c-25.847,41.22-110.1,34.678-108.217-41.249c6.394-67.7,71.016-74.83,104.491-59.286   c68.335,30.913,53.432,143.516,28.558,222.022c-0.158,0.229-0.482,0.681-0.64,0.909c-0.306-4.632,0.703-10.328,0.028-15.37   c-2.441-51.352-41.621-70.481-72.013-61.897c-42.514,11.662-41.462,70.464-1.605,83.063c26.593,9.444,49.232-16.323,39.48-31.273   c-0.305,3.804-0.772,7.807-3.063,10.998c-5.187,7.374-15.193,10.571-23.83,8.518c-25.038-7.893-24.399-35.087-12.188-43.321   c13.516-8.795,45.139-5.164,47.937,35.443c9.375,63.032-83.401,213.537-107.991,344.102   c-130.565,24.59-281.07,117.366-344.102,107.991c-40.607-2.797-44.239-34.421-35.443-47.937   c8.234-12.212,35.428-12.85,43.321,12.188c2.053,8.637-1.144,18.643-8.518,23.83c-3.191,2.291-7.194,2.758-10.998,3.063   c14.95,9.752,40.717-12.887,31.273-39.48c-12.599-39.857-71.4-40.909-83.063,1.605c-8.584,30.392,10.545,69.572,61.897,72.013   c5.041,0.675,10.738-0.334,15.37-0.028c-0.229,0.158-0.681,0.482-0.909,0.64c-78.506,24.873-191.109,39.776-222.022-28.558   c-15.544-33.476-8.414-98.098,59.286-104.491c75.927-1.884,82.469,82.369,41.249,108.217c-14.89,9.76-32.301,12.498-46.121,8.329   c-14.696-6.484-10.64-22.898-11.904-29.296c-2.524-22.751-19.156-19.738-19.076-5.061c-0.608,20.016,22.925,36.823,42.909,38.162   c63.099,4.602,86.043-75.142,43.08-112.68c-27.721-24.507-88.267-22.175-116.176,18.491c-8.198,11.76-12.908,25.712-14.668,39.873   c-14.822,99.35,114.424,177.483,277.292,118.549C1242.261,1557.342,1331.514,1462.801,1436.233,1436.233z M210.333,1436.233   c104.719,26.568,193.972,121.109,316.043,166.701c162.869,58.934,292.114-19.2,277.292-118.549   c-1.76-14.161-6.471-28.113-14.668-39.873c-27.909-40.666-88.455-42.997-116.176-18.491   c-42.963,37.537-20.019,117.282,43.08,112.68c19.984-1.339,43.517-18.146,42.909-38.162c0.08-14.677-16.552-17.69-19.076,5.061   c-1.264,6.398,2.792,22.812-11.904,29.296c-13.82,4.17-31.232,1.431-46.121-8.329c-41.22-25.847-34.678-110.1,41.249-108.217   c67.7,6.394,74.83,71.016,59.286,104.491c-30.913,68.335-143.516,53.432-222.022,28.558c-0.229-0.158-0.681-0.482-0.909-0.64   c4.632-0.306,10.328,0.703,15.37,0.028c51.352-2.441,70.481-41.621,61.897-72.013c-11.662-42.514-70.464-41.462-83.063-1.605   c-9.444,26.593,16.323,49.232,31.273,39.48c-3.804-0.305-7.807-0.772-10.998-3.063c-7.374-5.187-10.571-15.193-8.518-23.83   c7.893-25.038,35.087-24.399,43.321-12.188c8.795,13.516,5.164,45.139-35.443,47.937c-63.032,9.375-213.537-83.401-344.102-107.991   c-24.59-130.565-117.366-281.07-107.991-344.102c2.797-40.607,34.421-44.239,47.937-35.443   c12.212,8.234,12.85,35.428-12.188,43.321c-8.637,2.053-18.643-1.144-23.83-8.518c-2.291-3.191-2.758-7.194-3.063-10.998   c-9.752,14.95,12.887,40.717,39.48,31.273c39.857-12.599,40.909-71.4-1.605-83.063c-30.392-8.584-69.572,10.545-72.013,61.897   c-0.675,5.041,0.334,10.738,0.028,15.37c-0.158-0.229-0.482-0.681-0.64-0.909c-24.873-78.506-39.776-191.109,28.558-222.022   c33.476-15.544,98.098-8.414,104.491,59.286c1.884,75.927-82.369,82.469-108.217,41.249c-9.76-14.89-12.498-32.301-8.329-46.121   c6.484-14.696,22.898-10.64,29.296-11.904c22.751-2.524,19.738-19.156,5.061-19.076c-20.016-0.608-36.822,22.925-38.162,42.909   c-4.602,63.099,75.142,86.043,112.68,43.08c24.507-27.721,22.175-88.267-18.491-116.176c-11.761-8.198-25.712-12.908-39.873-14.668   C62.831,828.076-15.302,957.321,43.632,1120.19C89.223,1242.261,183.764,1331.514,210.333,1436.233z M210.333,210.333   C183.764,315.051,89.223,404.304,43.632,526.376c-58.934,162.869,19.2,292.114,118.549,277.292   c14.162-1.76,28.113-6.471,39.873-14.668c40.666-27.909,42.997-88.455,18.491-116.176c-37.537-42.963-117.282-20.019-112.68,43.08   c1.34,19.984,18.146,43.517,38.162,42.909c14.677,0.08,17.69-16.552-5.061-19.076c-6.398-1.264-22.812,2.792-29.296-11.904   c-4.17-13.82-1.431-31.232,8.329-46.121c25.847-41.22,110.1-34.678,108.217,41.249c-6.394,67.7-71.016,74.83-104.491,59.286   C55.389,751.333,70.292,638.73,95.165,560.224c0.158-0.229,0.482-0.681,0.64-0.909c0.306,4.632-0.703,10.328-0.028,15.37   c2.441,51.352,41.621,70.481,72.013,61.897c42.514-11.662,41.462-70.464,1.605-83.063c-26.593-9.444-49.232,16.323-39.48,31.273   c0.305-3.804,0.772-7.807,3.063-10.998c5.187-7.374,15.193-10.571,23.83-8.518c25.038,7.893,24.399,35.087,12.188,43.321   c-13.516,8.795-45.139,5.164-47.937-35.443c-9.375-63.032,83.401-213.537,107.991-344.102   c130.565-24.59,281.07-117.366,344.102-107.991c40.607,2.797,44.239,34.421,35.443,47.937   c-8.234,12.212-35.428,12.85-43.321-12.188c-2.053-8.637,1.144-18.643,8.518-23.83c3.191-2.291,7.194-2.758,10.998-3.063   c-14.95-9.752-40.717,12.887-31.273,39.48c12.599,39.857,71.4,40.909,83.063-1.605c8.584-30.392-10.545-69.572-61.897-72.013   c-5.041-0.675-10.738,0.334-15.37,0.028c0.229-0.158,0.681-0.482,0.909-0.64c78.506-24.873,191.109-39.776,222.022,28.558   c15.544,33.476,8.414,98.098-59.286,104.491c-75.927,1.884-82.469-82.369-41.249-108.217c14.89-9.76,32.301-12.498,46.121-8.329   c14.696,6.484,10.64,22.898,11.904,29.296c2.524,22.751,19.156,19.738,19.076,5.061c0.608-20.016-22.925-36.822-42.909-38.162   c-63.099-4.602-86.043,75.142-43.08,112.68c27.721,24.507,88.267,22.175,116.176-18.491c8.198-11.761,12.908-25.712,14.668-39.873   C818.49,62.831,689.244-15.302,526.376,43.632C404.304,89.223,315.051,183.764,210.333,210.333z"
   id="path2" />
</g>
</svg>
