<?xml version="1.0" encoding="utf-8"?>

<!DOCTYPE svg PUBLIC "-//W3C//DTD SVG 1.1//EN" "http://www.w3.org/Graphics/SVG/1.1/DTD/svg11.dtd">
<svg version="1.1" id="Layer_1" xmlns="http://www.w3.org/2000/svg" xmlns:xlink="http://www.w3.org/1999/xlink" x="0px" y="0px"
	 viewBox="0 0 1631.3932 1631.3932" enable-background="new 0 0 1631.3932 1631.3932" xml:space="preserve">
<g>
	<g>
		<g>
			<path d="M815.6966,143.9396c5.9023-0.9957,11.7722-2.0421,17.5962-3.0804c11.4468-2.0408,23.2831-4.1511,34.9713-5.8071
				c13.6412-1.933,26.9808-3.6679,40.2045-3.6679c1.3881,0,2.769,0.0198,4.1074,0.0587c16.4922,1.4781,32.5659,4.78,47.4833,8.1295
				c29.6963,6.668,59.524,15.2109,88.3694,23.4726l2.6696,0.7646l0.0895,0.0247c2.9462,0.7928,5.9801,1.6983,8.9139,2.5742
				c10.1292,3.0242,20.6031,6.1511,31.8071,6.1511c6.9014,0,13.1198-0.9722,18.4825-2.8893c1.9047-0.6808,3.806-1.4897,5.7438-2.445
				c1.4158,1.25,2.8988,2.4364,4.4365,3.5486c10.4735,7.5753,23.6638,11.9201,36.1884,11.9207
				c14.7679,0.0007,27.2104-5.9768,35.139-16.641c0.0791,0.0737,0.1583,0.1478,0.2377,0.2219
				c14.3961,13.4382,32.0955,29.9601,51.3197,40.556c8.8248,16.0108,21.76,30.9639,33.6008,43.8319
				c11.8408-12.868,24.776-27.8211,33.6008-43.8319c19.2242-10.596,36.9236-27.1178,51.3196-40.556
				c0.0795-0.0741,0.1587-0.1481,0.2378-0.2219c7.9285,10.6642,20.3711,16.6417,35.139,16.641
				c12.5245-0.0006,25.7148-4.3454,36.1884-11.9207c1.5377-1.1122,3.0208-2.2986,4.4365-3.5486
				c1.9376,0.9553,3.8391,1.7642,5.7438,2.445c4.495,1.6069,9.5911,2.5499,15.1866,2.8131
				c0.2632,5.5955,1.2062,10.6917,2.8131,15.1866c0.6808,1.9047,1.4896,3.8061,2.4449,5.7438
				c-1.25,1.4158-2.4364,2.8988-3.5486,4.4365c-7.5753,10.4736-11.92,23.6639-11.9207,36.1884
				c-0.0007,14.768,5.9768,27.2105,16.641,35.139c-0.0739,0.0791-0.1478,0.1584-0.2219,0.2377
				c-13.4382,14.3961-29.9601,32.0954-40.556,51.3197c-16.0109,8.8248-30.9639,21.7599-43.8319,33.6008
				c12.868,11.8409,27.821,24.776,43.8319,33.6008c10.5959,19.2242,27.1178,36.9236,40.556,51.3196
				c0.0741,0.0794,0.1481,0.1587,0.2219,0.2378c-10.6642,7.9285-16.6417,20.3711-16.641,35.139
				c0.0006,12.5245,4.3453,25.7148,11.9207,36.1884c1.1122,1.5377,2.2986,3.0207,3.5486,4.4366
				c-0.9553,1.9376-1.7642,3.8391-2.4449,5.7437c-1.9171,5.3628-2.8894,11.5812-2.8894,18.4825
				c0,11.204,3.127,21.678,6.1511,31.8073c0.876,2.9338,1.7815,5.9677,2.5742,8.9139l0.0247,0.0895l0.7646,2.6696
				c8.2617,28.8454,16.8047,58.6732,23.4727,88.3694c3.3495,14.9174,6.6515,30.9911,8.1295,47.4833
				c0.0388,1.3384,0.0587,2.7194,0.0587,4.1074c0,13.2237-1.735,26.5633-3.668,40.2045
				c-1.656,11.6882-3.7662,23.5245-5.8071,34.9713c-1.0383,5.824-2.0847,11.6938-3.0804,17.5961
				c0.9957,5.9023,2.0421,11.7722,3.0804,17.5962c2.0409,11.4468,4.1511,23.2831,5.8071,34.9713
				c1.933,13.6412,3.668,26.9808,3.668,40.2045c0,1.3881-0.0199,2.769-0.0587,4.1074c-1.478,16.4922-4.78,32.5659-8.1295,47.4833
				c-6.668,29.6963-15.2109,59.524-23.4727,88.3694l-0.7646,2.6696l-0.0247,0.0895c-0.7927,2.9462-1.6982,5.9801-2.5742,8.9139
				c-3.0242,10.1292-6.1511,20.6031-6.1511,31.8071c0,6.9014,0.9723,13.1198,2.8894,18.4825
				c0.6808,1.9047,1.4896,3.806,2.4449,5.7438c-1.25,1.4158-2.4364,2.8988-3.5486,4.4365
				c-7.5753,10.4735-11.92,23.6638-11.9207,36.1884c-0.0007,14.7679,5.9768,27.2104,16.641,35.139
				c-0.0739,0.0791-0.1478,0.1583-0.2219,0.2377c-13.4382,14.3961-29.9601,32.0955-40.556,51.3197
				c-16.0109,8.8248-30.9639,21.76-43.8319,33.6008c12.868,11.8408,27.821,24.776,43.8319,33.6008
				c10.5959,19.2242,27.1178,36.9236,40.556,51.3196c0.0741,0.0795,0.1481,0.1587,0.2219,0.2378
				c-10.6642,7.9285-16.6417,20.3711-16.641,35.139c0.0006,12.5245,4.3453,25.7148,11.9207,36.1884
				c1.1122,1.5377,2.2986,3.0208,3.5486,4.4365c-0.9553,1.9376-1.7642,3.8391-2.4449,5.7438
				c-1.6069,4.495-2.5499,9.5911-2.8131,15.1866c-5.5956,0.2632-10.6917,1.2062-15.1866,2.8131
				c-1.9047,0.6808-3.8062,1.4896-5.7438,2.4449c-1.4158-1.25-2.8988-2.4364-4.4365-3.5486
				c-10.4735-7.5753-23.6638-11.92-36.1884-11.9207c-14.7679-0.0007-27.2106,5.9768-35.139,16.641
				c-0.0791-0.0739-0.1583-0.1478-0.2378-0.2219c-14.396-13.4382-32.0953-29.9601-51.3196-40.556
				c-8.8248-16.0109-21.76-30.9639-33.6008-43.8319c-11.8408,12.868-24.776,27.821-33.6008,43.8319
				c-19.2242,10.5959-36.9236,27.1178-51.3197,40.556c-0.0793,0.0741-0.1586,0.1481-0.2377,0.2219
				c-7.9286-10.6642-20.3711-16.6417-35.139-16.641c-12.5245,0.0006-25.7148,4.3453-36.1884,11.9207
				c-1.5377,1.1122-3.0208,2.2986-4.4365,3.5486c-1.9377-0.9553-3.8391-1.7642-5.7438-2.4449
				c-5.3628-1.9171-11.5812-2.8894-18.4825-2.8894c-11.204,0-21.678,3.127-31.8071,6.1511
				c-2.9338,0.876-5.9678,1.7815-8.9139,2.5742l-0.0895,0.0247l-2.6696,0.7646c-28.8454,8.2617-58.6732,16.8047-88.3694,23.4727
				c-14.9174,3.3495-30.9911,6.6515-47.4833,8.1295c-1.3384,0.0388-2.7194,0.0587-4.1074,0.0587
				c-13.2237,0-26.5633-1.735-40.2045-3.668c-11.6882-1.656-23.5245-3.7662-34.9713-5.8071
				c-5.824-1.0383-11.6938-2.0847-17.5962-3.0804c-5.9023,0.9957-11.7721,2.0421-17.5961,3.0804
				c-11.4468,2.0409-23.2831,4.1511-34.9713,5.8071c-13.6412,1.933-26.9808,3.668-40.2045,3.668
				c-1.3881,0-2.769-0.0199-4.1074-0.0587c-16.4922-1.478-32.5659-4.78-47.4833-8.1295
				c-29.6963-6.668-59.524-15.2109-88.3694-23.4727l-2.6696-0.7646l-0.0895-0.0247c-2.9462-0.7927-5.9801-1.6982-8.9139-2.5742
				c-10.1292-3.0242-20.6032-6.1511-31.8073-6.1511c-6.9013,0-13.1197,0.9723-18.4825,2.8894
				c-1.9047,0.6808-3.8061,1.4896-5.7437,2.4449c-1.4159-1.25-2.8989-2.4364-4.4366-3.5486
				c-10.4735-7.5753-23.6638-11.92-36.1884-11.9207c-14.7679-0.0007-27.2105,5.9768-35.139,16.641
				c-0.0791-0.0739-0.1584-0.1478-0.2378-0.2219c-14.3961-13.4382-32.0954-29.9601-51.3196-40.556
				c-8.8248-16.0109-21.76-30.9639-33.6008-43.8319c-11.8409,12.868-24.776,27.821-33.6008,43.8319
				c-19.2242,10.5959-36.9236,27.1178-51.3197,40.556c-0.0794,0.0741-0.1586,0.1481-0.2377,0.2219
				c-7.9285-10.6642-20.3711-16.6417-35.139-16.641c-12.5245,0.0006-25.7148,4.3453-36.1884,11.9207
				c-1.5377,1.1122-3.0207,2.2986-4.4365,3.5486c-1.9377-0.9553-3.8391-1.7642-5.7438-2.4449
				c-4.495-1.6069-9.5911-2.5499-15.1866-2.8131c-0.2631-5.5956-1.2062-10.6917-2.8131-15.1866
				c-0.6808-1.9047-1.4897-3.8062-2.445-5.7438c1.25-1.4158,2.4364-2.8988,3.5486-4.4365
				c7.5753-10.4735,11.9201-23.6638,11.9207-36.1884c0.0007-14.7679-5.9768-27.2106-16.641-35.139
				c0.0737-0.0791,0.1478-0.1583,0.2219-0.2378c13.4382-14.396,29.9601-32.0953,40.556-51.3196
				c16.0108-8.8248,30.9639-21.76,43.8319-33.6008c-12.868-11.8408-27.8211-24.776-43.8319-33.6008
				c-10.596-19.2242-27.1178-36.9236-40.556-51.3197c-0.0741-0.0793-0.1481-0.1586-0.2219-0.2377
				c10.6642-7.9286,16.6417-20.3711,16.641-35.139c-0.0006-12.5245-4.3454-25.7148-11.9207-36.1884
				c-1.1122-1.5377-2.2986-3.0208-3.5486-4.4365c0.9553-1.9377,1.7642-3.8391,2.445-5.7438
				c1.9171-5.3628,2.8893-11.5812,2.8893-18.4825c0-11.204-3.1269-21.678-6.1511-31.8071
				c-0.8759-2.9338-1.7815-5.9678-2.5742-8.9139l-0.0247-0.0895l-0.7646-2.6696c-8.2617-28.8454-16.8046-58.6732-23.4726-88.3694
				c-3.3495-14.9174-6.6515-30.9911-8.1295-47.4833c-0.0389-1.3384-0.0587-2.7194-0.0587-4.1074
				c0-13.2237,1.7349-26.5633,3.6679-40.2045c1.6561-11.6882,3.7663-23.5245,5.8071-34.9713
				c1.0383-5.824,2.0848-11.6938,3.0804-17.5962c-0.9957-5.9023-2.0421-11.7721-3.0804-17.5961
				c-2.0408-11.4468-4.1511-23.2831-5.8071-34.9713c-1.933-13.6412-3.6679-26.9808-3.6679-40.2045
				c0-1.3881,0.0198-2.769,0.0587-4.1074c1.4781-16.4922,4.78-32.5659,8.1295-47.4833c6.668-29.6963,15.2109-59.524,23.4726-88.3694
				l0.7646-2.6696l0.0247-0.0895c0.7928-2.9462,1.6983-5.9801,2.5742-8.9139c3.0242-10.1292,6.1511-20.6032,6.1511-31.8073
				c0-6.9013-0.9722-13.1197-2.8893-18.4825c-0.6808-1.9047-1.4897-3.8061-2.445-5.7437c1.25-1.4159,2.4364-2.8989,3.5486-4.4366
				c7.5753-10.4735,11.9201-23.6638,11.9207-36.1884c0.0007-14.7679-5.9768-27.2105-16.641-35.139
				c0.0737-0.0791,0.1478-0.1584,0.2219-0.2378c13.4382-14.3961,29.9601-32.0954,40.556-51.3196
				c16.0108-8.8248,30.9639-21.76,43.8319-33.6008c-12.868-11.8409-27.8211-24.776-43.8319-33.6008
				c-10.596-19.2242-27.1178-36.9236-40.556-51.3197c-0.0741-0.0794-0.1481-0.1586-0.2219-0.2377
				c10.6642-7.9285,16.6417-20.3711,16.641-35.139c-0.0006-12.5245-4.3454-25.7148-11.9207-36.1884
				c-1.1122-1.5377-2.2986-3.0207-3.5486-4.4365c0.9553-1.9377,1.7642-3.8391,2.445-5.7438
				c1.6069-4.495,2.5499-9.5911,2.8131-15.1866c5.5955-0.2631,10.6917-1.2062,15.1866-2.8131
				c1.9047-0.6808,3.8061-1.4897,5.7438-2.445c1.4158,1.25,2.8988,2.4364,4.4365,3.5486
				c10.4736,7.5753,23.6639,11.9201,36.1884,11.9207c14.768,0.0007,27.2105-5.9768,35.139-16.641
				c0.0791,0.0737,0.1584,0.1478,0.2377,0.2219c14.3961,13.4382,32.0954,29.9601,51.3197,40.556
				c8.8248,16.0108,21.7599,30.9639,33.6008,43.8319c11.8409-12.868,24.776-27.8211,33.6008-43.8319
				c19.2242-10.596,36.9236-27.1178,51.3196-40.556c0.0794-0.0741,0.1587-0.1481,0.2378-0.2219
				c7.9285,10.6642,20.3711,16.6417,35.139,16.641c12.5245-0.0006,25.7148-4.3454,36.1884-11.9207
				c1.5377-1.1122,3.0207-2.2986,4.4366-3.5486c1.9376,0.9553,3.8391,1.7642,5.7437,2.445
				c5.3628,1.9171,11.5812,2.8893,18.4825,2.8893c11.204,0,21.678-3.1269,31.8073-6.1511c2.9338-0.8759,5.9677-1.7815,8.9139-2.5742
				l0.0895-0.0247l2.6696-0.7646c28.8454-8.2617,58.6732-16.8046,88.3694-23.4726c14.9174-3.3495,30.9911-6.6515,47.4833-8.1295
				c1.3384-0.0389,2.7194-0.0587,4.1074-0.0587c13.2237,0,26.5633,1.7349,40.2045,3.6679
				c11.6882,1.6561,23.5245,3.7663,34.9713,5.8071C803.9245,141.8975,809.7943,142.9439,815.6966,143.9396z M1461.7164,169.6768
				c-6.3733-0.0444-12.098-0.9587-17.0232-2.7192c-2.3645-0.8454-4.7294-1.9022-7.1794-3.2104
				c-1.7697,1.6781-3.6659,3.2508-5.6588,4.6924c-9.9938,7.2282-22.5687,11.3738-34.5002,11.3738
				c-15.0051,0-27.428-6.5657-34.6478-18.1572c-0.8845,0.8232-1.785,1.6641-2.7015,2.5197
				c-14.4491,13.4883-32.2773,30.1312-51.4686,40.5341c-8.1638,15.0604-20.1703,29.2814-31.4794,41.6886
				c-11.3091-12.4072-23.3156-26.6282-31.4794-41.6886c-19.1913-10.403-37.0195-27.0458-51.4686-40.5341
				c-0.9165-0.8556-1.817-1.6965-2.7015-2.5197c-7.2198,11.5915-19.6427,18.1572-34.6478,18.1572
				c-11.9315,0-24.5065-4.1456-34.5004-11.3738c-1.9928-1.4416-3.889-3.0142-5.6587-4.6924
				c-2.4501,1.3082-4.8149,2.365-7.1794,3.2104c-5.051,1.8054-10.9429,2.7209-17.5129,2.7209
				c-10.7826,0-21.0514-3.0655-30.9824-6.0304c-2.9526-0.8813-6.0059-1.7929-8.9901-2.5957l-2.7075-0.7751
				c-28.8871-8.2735-58.7579-16.8289-88.5383-23.5161c-15.0407-3.3771-31.2574-6.7067-47.946-8.1957
				c-1.3951-0.0415-2.8336-0.0622-4.2775-0.0622c-13.4118,0-26.8611,1.7485-40.6074,3.6961
				c-11.7383,1.6631-23.6004,3.778-35.072,5.8233c-5.6581,1.0087-11.3596,2.0251-17.0908,2.9947
				c-5.7311-0.9696-11.4326-1.986-17.0908-2.9947c-11.4716-2.0453-23.3336-4.1602-35.072-5.8233
				c-13.7462-1.9476-27.1956-3.6961-40.6074-3.6961c-1.4439,0-2.8823,0.0207-4.2775,0.0622
				c-16.6886,1.489-32.9053,4.8186-47.946,8.1957c-29.7804,6.6871-59.6511,15.2426-88.5383,23.5161l-2.7075,0.7751
				c-2.9843,0.8028-6.0375,1.7144-8.9901,2.5957c-9.931,2.9649-20.1998,6.0304-30.9824,6.0304
				c-6.5701,0-12.462-0.9154-17.5129-2.7209c-2.3646-0.8454-4.7294-1.9022-7.1795-3.2104
				c-1.7697,1.6781-3.6659,3.2508-5.6588,4.6924c-9.9939,7.2282-22.5688,11.3738-34.5003,11.3738
				c-15.0051,0-27.428-6.5657-34.6479-18.1572c-0.8845,0.8232-1.785,1.6641-2.7015,2.5197
				c-14.4491,13.4883-32.2774,30.1312-51.4687,40.5341c-8.1638,15.0604-20.1702,29.2814-31.4793,41.6886
				c-11.3091-12.4072-23.3156-26.6282-31.4793-41.6886c-19.1913-10.403-37.0196-27.0458-51.4687-40.5341
				c-0.9165-0.8556-1.817-1.6965-2.7015-2.5197c-7.2198,11.5915-19.6427,18.1572-34.6478,18.1572
				c-11.9315,0-24.5064-4.1456-34.5003-11.3738c-1.9929-1.4416-3.8891-3.0142-5.6588-4.6924
				c-2.4501,1.3082-4.8149,2.365-7.1795,3.2104c-4.9251,1.7605-10.6499,2.6747-17.0232,2.7192
				c-0.0444,6.3734-0.9587,12.0981-2.7192,17.0232c-0.8454,2.3645-1.9022,4.7294-3.2104,7.1795
				c1.6781,1.7697,3.2508,3.6659,4.6924,5.6588c7.2282,9.9939,11.3738,22.5687,11.3738,34.5003
				c0,15.0051-6.5657,27.428-18.1572,34.6478c0.8232,0.8846,1.6641,1.7851,2.5197,2.7015
				c13.4883,14.4491,30.1312,32.2774,40.5341,51.4687c15.0604,8.1638,29.2814,20.1702,41.6886,31.4793
				c-12.4072,11.3091-26.6282,23.3156-41.6886,31.4793c-10.403,19.1913-27.0458,37.0196-40.5341,51.4687
				c-0.8556,0.9165-1.6965,1.817-2.5197,2.7015c11.5915,7.2199,18.1572,19.6427,18.1572,34.6479
				c0,11.9315-4.1456,24.5064-11.3738,34.5003c-1.4416,1.9929-3.0142,3.8891-4.6924,5.6588
				c1.3082,2.4501,2.365,4.8149,3.2104,7.1795c1.8054,5.0509,2.7209,10.9428,2.7209,17.5129
				c0,10.7827-3.0655,21.0514-6.0304,30.9824c-0.8813,2.9526-1.7929,6.0058-2.5957,8.9901l-0.7751,2.7075
				c-8.2735,28.8871-16.8289,58.7579-23.5161,88.5383c-3.3771,15.0407-6.7067,31.2574-8.1957,47.946
				c-0.0415,1.3951-0.0622,2.8336-0.0622,4.2775c0,13.4118,1.7485,26.8611,3.6961,40.6074
				c1.6631,11.7383,3.778,23.6004,5.8233,35.072c1.0087,5.6581,2.0251,11.3596,2.9947,17.0908
				c-0.9696,5.7312-1.986,11.4327-2.9947,17.0908c-2.0453,11.4716-4.1602,23.3336-5.8233,35.072
				c-1.9476,13.7462-3.6961,27.1956-3.6961,40.6074c0,1.4439,0.0207,2.8823,0.0622,4.2775
				c1.489,16.6886,4.8186,32.9053,8.1957,47.946c6.6871,29.7804,15.2426,59.6511,23.5161,88.5383l0.7751,2.7075
				c0.8028,2.9843,1.7144,6.0375,2.5957,8.9901c2.9649,9.931,6.0304,20.1998,6.0304,30.9824c0,6.5701-0.9154,12.4619-2.7209,17.5129
				c-0.8454,2.3645-1.9022,4.7294-3.2104,7.1794c1.6781,1.7697,3.2508,3.6659,4.6924,5.6587
				c7.2282,9.9939,11.3738,22.5688,11.3738,34.5004c0,15.0051-6.5657,27.428-18.1572,34.6478
				c0.8232,0.8845,1.6641,1.785,2.5197,2.7015c13.4883,14.4491,30.1312,32.2773,40.5341,51.4686
				c15.0604,8.1638,29.2814,20.1703,41.6886,31.4794c-12.4072,11.3091-26.6282,23.3156-41.6886,31.4794
				c-10.403,19.1913-27.0458,37.0195-40.5341,51.4686c-0.8556,0.9165-1.6965,1.817-2.5197,2.7015
				c11.5915,7.2198,18.1572,19.6427,18.1572,34.6478c0,11.9315-4.1456,24.5065-11.3738,34.5002
				c-1.4416,1.9929-3.0142,3.8892-4.6924,5.6588c1.3082,2.4501,2.365,4.8149,3.2104,7.1794
				c1.7605,4.9252,2.6747,10.6499,2.7192,17.0232c6.3734,0.0446,12.0981,0.9587,17.0232,2.7192
				c2.3645,0.8453,4.7294,1.9022,7.1795,3.2104c1.7697-1.6782,3.6659-3.2509,5.6588-4.6924
				c9.9939-7.2283,22.5687-11.3738,34.5003-11.3738c15.0051,0,27.428,6.5657,34.6478,18.1571
				c0.8846-0.8232,1.7851-1.6641,2.7015-2.5197c14.4491-13.4884,32.2774-30.1312,51.4687-40.5342
				c8.1638-15.0604,20.1702-29.2814,31.4793-41.6886c11.3091,12.4072,23.3156,26.6282,31.4793,41.6886
				c19.1913,10.403,37.0196,27.0458,51.4687,40.5342c0.9165,0.8556,1.817,1.6964,2.7015,2.5197
				c7.2199-11.5914,19.6427-18.1571,34.6479-18.1571c11.9315,0,24.5064,4.1455,34.5003,11.3738
				c1.9929,1.4415,3.8891,3.0142,5.6588,4.6924c2.4501-1.3082,4.8149-2.3651,7.1795-3.2104
				c5.0509-1.8054,10.9428-2.7209,17.5129-2.7209c10.7827,0,21.0514,3.0656,30.9824,6.0305
				c2.9526,0.8812,6.0058,1.7928,8.9901,2.5957l2.7075,0.7751c28.8871,8.2734,58.7579,16.8289,88.5383,23.516
				c15.0407,3.3772,31.2574,6.7068,47.946,8.1958c1.3951,0.0415,2.8336,0.0621,4.2775,0.0621
				c13.4118,0,26.8611-1.7484,40.6074-3.696c11.7383-1.6631,23.6004-3.7781,35.072-5.8232
				c5.6581-1.0087,11.3596-2.0251,17.0908-2.9948c5.7312,0.9696,11.4327,1.9861,17.0908,2.9948
				c11.4716,2.0452,23.3336,4.1602,35.072,5.8232c13.7462,1.9476,27.1956,3.696,40.6074,3.696c1.4439,0,2.8823-0.0206,4.2775-0.0621
				c16.6886-1.489,32.9053-4.8186,47.946-8.1958c29.7804-6.6871,59.6511-15.2426,88.5383-23.516l2.7075-0.7751
				c2.9843-0.8029,6.0375-1.7145,8.9901-2.5957c9.931-2.965,20.1998-6.0305,30.9824-6.0305c6.5701,0,12.4619,0.9155,17.5129,2.7209
				c2.3645,0.8453,4.7294,1.9022,7.1794,3.2104c1.7697-1.6782,3.6659-3.2509,5.6587-4.6924
				c9.9939-7.2283,22.5688-11.3738,34.5004-11.3738c15.0051,0,27.428,6.5657,34.6478,18.1571
				c0.8845-0.8232,1.785-1.6641,2.7015-2.5197c14.4491-13.4884,32.2773-30.1312,51.4686-40.5342
				c8.1638-15.0604,20.1703-29.2814,31.4794-41.6886c11.3091,12.4072,23.3156,26.6282,31.4794,41.6886
				c19.1913,10.403,37.0195,27.0458,51.4686,40.5342c0.9165,0.8556,1.817,1.6964,2.7015,2.5197
				c7.2198-11.5914,19.6427-18.1571,34.6478-18.1571c11.9315,0,24.5065,4.1455,34.5002,11.3738
				c1.9929,1.4415,3.8892,3.0142,5.6588,4.6924c2.4501-1.3082,4.8149-2.3651,7.1794-3.2104
				c4.9252-1.7605,10.6499-2.6747,17.0232-2.7192c0.0446-6.3733,0.9587-12.098,2.7192-17.0232
				c0.8453-2.3645,1.9022-4.7294,3.2104-7.1794c-1.6782-1.7697-3.2509-3.6659-4.6924-5.6588
				c-7.2283-9.9938-11.3738-22.5687-11.3738-34.5002c0-15.0051,6.5657-27.428,18.1571-34.6478
				c-0.8232-0.8845-1.6641-1.785-2.5197-2.7015c-13.4884-14.4491-30.1312-32.2773-40.5342-51.4686
				c-15.0604-8.1638-29.2814-20.1703-41.6886-31.4794c12.4072-11.3091,26.6282-23.3156,41.6886-31.4794
				c10.403-19.1913,27.0458-37.0195,40.5342-51.4686c0.8556-0.9165,1.6964-1.817,2.5197-2.7015
				c-11.5914-7.2198-18.1571-19.6427-18.1571-34.6478c0-11.9315,4.1455-24.5065,11.3738-34.5004
				c1.4415-1.9928,3.0142-3.889,4.6924-5.6587c-1.3082-2.4501-2.3651-4.8149-3.2104-7.1794
				c-1.8054-5.051-2.7209-10.9429-2.7209-17.5129c0-10.7826,3.0656-21.0514,6.0305-30.9824
				c0.8812-2.9526,1.7928-6.0059,2.5957-8.9901l0.7751-2.7075c8.2734-28.8871,16.8289-58.7579,23.516-88.5383
				c3.3772-15.0407,6.7068-31.2574,8.1958-47.946c0.0415-1.3951,0.0621-2.8336,0.0621-4.2775
				c0-13.4118-1.7484-26.8611-3.696-40.6074c-1.6631-11.7383-3.7781-23.6004-5.8232-35.072
				c-1.0087-5.6581-2.0251-11.3596-2.9948-17.0908c0.9696-5.7311,1.9861-11.4326,2.9948-17.0908
				c2.0452-11.4716,4.1602-23.3336,5.8232-35.072c1.9476-13.7462,3.696-27.1956,3.696-40.6074c0-1.4439-0.0206-2.8823-0.0621-4.2775
				c-1.489-16.6886-4.8186-32.9053-8.1958-47.946c-6.6871-29.7804-15.2426-59.6511-23.516-88.5383l-0.7751-2.7075
				c-0.8029-2.9843-1.7145-6.0375-2.5957-8.9901c-2.965-9.931-6.0305-20.1998-6.0305-30.9824c0-6.5701,0.9155-12.462,2.7209-17.5129
				c0.8453-2.3646,1.9022-4.7294,3.2104-7.1795c-1.6782-1.7697-3.2509-3.6659-4.6924-5.6588
				c-7.2283-9.9939-11.3738-22.5688-11.3738-34.5003c0-15.0051,6.5657-27.428,18.1571-34.6479
				c-0.8232-0.8845-1.6641-1.785-2.5197-2.7015c-13.4884-14.4491-30.1312-32.2774-40.5342-51.4687
				c-15.0604-8.1638-29.2814-20.1702-41.6886-31.4793c12.4072-11.3091,26.6282-23.3156,41.6886-31.4793
				c10.403-19.1913,27.0458-37.0196,40.5342-51.4687c0.8556-0.9165,1.6964-1.817,2.5197-2.7015
				c-11.5914-7.2198-18.1571-19.6427-18.1571-34.6478c0-11.9315,4.1455-24.5064,11.3738-34.5003
				c1.4415-1.9929,3.0142-3.8891,4.6924-5.6588c-1.3082-2.4501-2.3651-4.8149-3.2104-7.1795
				C1462.6752,181.7749,1461.761,176.0501,1461.7164,169.6768z"/>
			<path d="M815.6966,141.0173c5.7312-0.9696,11.4327-1.986,17.0908-2.9947c11.4716-2.0453,23.3336-4.1602,35.072-5.8233
				c13.7462-1.9476,27.1956-3.6961,40.6074-3.6961c1.4439,0,2.8823,0.0207,4.2775,0.0622
				c16.6886,1.489,32.9053,4.8186,47.946,8.1957c29.7804,6.6871,59.6511,15.2426,88.5383,23.5161l2.7075,0.7751
				c2.9843,0.8028,6.0375,1.7144,8.9901,2.5957c9.931,2.9649,20.1998,6.0304,30.9824,6.0304c6.5701,0,12.4619-0.9154,17.5129-2.7209
				c2.3645-0.8454,4.7294-1.9022,7.1794-3.2104c1.7697,1.6781,3.6659,3.2508,5.6587,4.6924
				c9.9939,7.2282,22.5688,11.3738,34.5004,11.3738c15.0051,0,27.428-6.5657,34.6478-18.1572
				c0.8845,0.8232,1.785,1.6641,2.7015,2.5197c14.4491,13.4883,32.2773,30.1312,51.4686,40.5341
				c8.1638,15.0604,20.1703,29.2814,31.4794,41.6886c11.3091-12.4072,23.3156-26.6282,31.4794-41.6886
				c19.1913-10.403,37.0195-27.0458,51.4686-40.5341c0.9165-0.8556,1.817-1.6965,2.7015-2.5197
				c7.2198,11.5915,19.6427,18.1572,34.6478,18.1572c11.9315,0,24.5065-4.1456,34.5002-11.3738
				c1.9929-1.4416,3.8892-3.0142,5.6588-4.6924c2.4501,1.3082,4.8149,2.365,7.1794,3.2104
				c4.9252,1.7605,10.6499,2.6747,17.0232,2.7192c0.0446,6.3734,0.9587,12.0981,2.7192,17.0232
				c0.8453,2.3645,1.9022,4.7294,3.2104,7.1795c-1.6782,1.7697-3.2509,3.6659-4.6924,5.6588
				c-7.2283,9.9939-11.3738,22.5687-11.3738,34.5003c0,15.0051,6.5657,27.428,18.1571,34.6478
				c-0.8232,0.8846-1.6641,1.7851-2.5197,2.7015c-13.4884,14.4491-30.1312,32.2774-40.5342,51.4687
				c-15.0604,8.1638-29.2814,20.1702-41.6886,31.4793c12.4072,11.3091,26.6282,23.3156,41.6886,31.4793
				c10.403,19.1913,27.0458,37.0196,40.5342,51.4687c0.8556,0.9165,1.6964,1.817,2.5197,2.7015
				c-11.5914,7.2199-18.1571,19.6427-18.1571,34.6479c0,11.9315,4.1455,24.5064,11.3738,34.5003
				c1.4415,1.9929,3.0142,3.8891,4.6924,5.6588c-1.3082,2.4501-2.3651,4.8149-3.2104,7.1795
				c-1.8054,5.0509-2.7209,10.9428-2.7209,17.5129c0,10.7827,3.0656,21.0514,6.0305,30.9824
				c0.8812,2.9526,1.7928,6.0058,2.5957,8.9901l0.7751,2.7075c8.2734,28.8871,16.8289,58.7579,23.516,88.5383
				c3.3772,15.0407,6.7068,31.2574,8.1958,47.946c0.0415,1.3951,0.0621,2.8336,0.0621,4.2775
				c0,13.4118-1.7484,26.8611-3.696,40.6074c-1.6631,11.7383-3.7781,23.6004-5.8232,35.072
				c-1.0087,5.6581-2.0251,11.3596-2.9948,17.0908c0.9696,5.7312,1.9861,11.4327,2.9948,17.0908
				c2.0452,11.4716,4.1602,23.3336,5.8232,35.072c1.9476,13.7462,3.696,27.1956,3.696,40.6074c0,1.4439-0.0206,2.8823-0.0621,4.2775
				c-1.489,16.6886-4.8186,32.9053-8.1958,47.946c-6.6871,29.7804-15.2426,59.6511-23.516,88.5383l-0.7751,2.7075
				c-0.8029,2.9843-1.7145,6.0375-2.5957,8.9901c-2.965,9.931-6.0305,20.1998-6.0305,30.9824
				c0,6.5701,0.9155,12.4619,2.7209,17.5129c0.8453,2.3645,1.9022,4.7294,3.2104,7.1794c-1.6782,1.7697-3.2509,3.6659-4.6924,5.6587
				c-7.2283,9.9939-11.3738,22.5688-11.3738,34.5004c0,15.0051,6.5657,27.428,18.1571,34.6478
				c-0.8232,0.8845-1.6641,1.785-2.5197,2.7015c-13.4884,14.4491-30.1312,32.2773-40.5342,51.4686
				c-15.0604,8.1638-29.2814,20.1703-41.6886,31.4794c12.4072,11.3091,26.6282,23.3156,41.6886,31.4794
				c10.403,19.1913,27.0458,37.0195,40.5342,51.4686c0.8556,0.9165,1.6964,1.817,2.5197,2.7015
				c-11.5914,7.2198-18.1571,19.6427-18.1571,34.6478c0,11.9315,4.1455,24.5065,11.3738,34.5002
				c1.4415,1.9929,3.0142,3.8892,4.6924,5.6588c-1.3082,2.4501-2.3651,4.8149-3.2104,7.1794
				c-1.7605,4.9252-2.6747,10.6499-2.7192,17.0232c-6.3733,0.0446-12.098,0.9587-17.0232,2.7192
				c-2.3645,0.8453-4.7294,1.9022-7.1794,3.2104c-1.7697-1.6782-3.6659-3.2509-5.6588-4.6924
				c-9.9938-7.2283-22.5687-11.3738-34.5002-11.3738c-15.0051,0-27.428,6.5657-34.6478,18.1571
				c-0.8845-0.8232-1.785-1.6641-2.7015-2.5197c-14.4491-13.4884-32.2773-30.1312-51.4686-40.5342
				c-8.1638-15.0604-20.1703-29.2814-31.4794-41.6886c-11.3091,12.4072-23.3156,26.6282-31.4794,41.6886
				c-19.1913,10.403-37.0195,27.0458-51.4686,40.5342c-0.9165,0.8556-1.817,1.6964-2.7015,2.5197
				c-7.2198-11.5914-19.6427-18.1571-34.6478-18.1571c-11.9315,0-24.5065,4.1455-34.5004,11.3738
				c-1.9928,1.4415-3.889,3.0142-5.6587,4.6924c-2.4501-1.3082-4.8149-2.3651-7.1794-3.2104
				c-5.051-1.8054-10.9429-2.7209-17.5129-2.7209c-10.7826,0-21.0514,3.0656-30.9824,6.0305
				c-2.9526,0.8812-6.0059,1.7928-8.9901,2.5957l-2.7075,0.7751c-28.8871,8.2734-58.7579,16.8289-88.5383,23.516
				c-15.0407,3.3772-31.2574,6.7068-47.946,8.1958c-1.3951,0.0415-2.8336,0.0621-4.2775,0.0621
				c-13.4118,0-26.8611-1.7484-40.6074-3.696c-11.7383-1.6631-23.6004-3.7781-35.072-5.8232
				c-5.6581-1.0087-11.3596-2.0251-17.0908-2.9948c-5.7311,0.9696-11.4326,1.9861-17.0908,2.9948
				c-11.4716,2.0452-23.3336,4.1602-35.072,5.8232c-13.7462,1.9476-27.1956,3.696-40.6074,3.696
				c-1.4439,0-2.8823-0.0206-4.2775-0.0621c-16.6886-1.489-32.9053-4.8186-47.946-8.1958
				c-29.7804-6.6871-59.6511-15.2426-88.5383-23.516l-2.7075-0.7751c-2.9843-0.8029-6.0375-1.7145-8.9901-2.5957
				c-9.931-2.965-20.1998-6.0305-30.9824-6.0305c-6.5701,0-12.462,0.9155-17.5129,2.7209
				c-2.3646,0.8453-4.7294,1.9022-7.1795,3.2104c-1.7697-1.6782-3.6659-3.2509-5.6588-4.6924
				c-9.9939-7.2283-22.5688-11.3738-34.5003-11.3738c-15.0051,0-27.428,6.5657-34.6479,18.1571
				c-0.8845-0.8232-1.785-1.6641-2.7015-2.5197c-14.4491-13.4884-32.2774-30.1312-51.4687-40.5342
				c-8.1638-15.0604-20.1702-29.2814-31.4793-41.6886c-11.3091,12.4072-23.3156,26.6282-31.4793,41.6886
				c-19.1913,10.403-37.0196,27.0458-51.4687,40.5342c-0.9165,0.8556-1.817,1.6964-2.7015,2.5197
				c-7.2198-11.5914-19.6427-18.1571-34.6478-18.1571c-11.9315,0-24.5064,4.1455-34.5003,11.3738
				c-1.9929,1.4415-3.8891,3.0142-5.6588,4.6924c-2.4501-1.3082-4.8149-2.3651-7.1795-3.2104
				c-4.9251-1.7605-10.6499-2.6747-17.0232-2.7192c-0.0444-6.3733-0.9587-12.098-2.7192-17.0232
				c-0.8454-2.3645-1.9022-4.7294-3.2104-7.1794c1.6781-1.7697,3.2508-3.6659,4.6924-5.6588
				c7.2282-9.9938,11.3738-22.5687,11.3738-34.5002c0-15.0051-6.5657-27.428-18.1572-34.6478
				c0.8232-0.8845,1.6641-1.785,2.5197-2.7015c13.4883-14.4491,30.1312-32.2773,40.5341-51.4686
				c15.0604-8.1638,29.2814-20.1703,41.6886-31.4794c-12.4072-11.3091-26.6282-23.3156-41.6886-31.4794
				c-10.403-19.1913-27.0458-37.0195-40.5341-51.4686c-0.8556-0.9165-1.6965-1.817-2.5197-2.7015
				c11.5915-7.2198,18.1572-19.6427,18.1572-34.6478c0-11.9315-4.1456-24.5065-11.3738-34.5004
				c-1.4416-1.9928-3.0142-3.889-4.6924-5.6587c1.3082-2.4501,2.365-4.8149,3.2104-7.1794
				c1.8054-5.051,2.7209-10.9429,2.7209-17.5129c0-10.7826-3.0655-21.0514-6.0304-30.9824
				c-0.8813-2.9526-1.7929-6.0059-2.5957-8.9901l-0.7751-2.7075c-8.2735-28.8871-16.8289-58.7579-23.5161-88.5383
				c-3.3771-15.0407-6.7067-31.2574-8.1957-47.946c-0.0415-1.3951-0.0622-2.8336-0.0622-4.2775
				c0-13.4118,1.7485-26.8611,3.6961-40.6074c1.6631-11.7383,3.778-23.6004,5.8233-35.072
				c1.0087-5.6581,2.0251-11.3596,2.9947-17.0908c-0.9696-5.7311-1.986-11.4326-2.9947-17.0908
				c-2.0453-11.4716-4.1602-23.3336-5.8233-35.072c-1.9476-13.7462-3.6961-27.1956-3.6961-40.6074
				c0-1.4439,0.0207-2.8823,0.0622-4.2775c1.489-16.6886,4.8186-32.9053,8.1957-47.946
				c6.6871-29.7804,15.2426-59.6511,23.5161-88.5383l0.7751-2.7075c0.8028-2.9843,1.7144-6.0375,2.5957-8.9901
				c2.9649-9.931,6.0304-20.1998,6.0304-30.9824c0-6.5701-0.9154-12.462-2.7209-17.5129c-0.8454-2.3646-1.9022-4.7294-3.2104-7.1795
				c1.6781-1.7697,3.2508-3.6659,4.6924-5.6588c7.2282-9.9939,11.3738-22.5688,11.3738-34.5003
				c0-15.0051-6.5657-27.428-18.1572-34.6479c0.8232-0.8845,1.6641-1.785,2.5197-2.7015
				c13.4883-14.4491,30.1312-32.2774,40.5341-51.4687c15.0604-8.1638,29.2814-20.1702,41.6886-31.4793
				c-12.4072-11.3091-26.6282-23.3156-41.6886-31.4793c-10.403-19.1913-27.0458-37.0196-40.5341-51.4687
				c-0.8556-0.9165-1.6965-1.817-2.5197-2.7015c11.5915-7.2198,18.1572-19.6427,18.1572-34.6478
				c0-11.9315-4.1456-24.5064-11.3738-34.5003c-1.4416-1.9929-3.0142-3.8891-4.6924-5.6588
				c1.3082-2.4501,2.365-4.8149,3.2104-7.1795c1.7605-4.9251,2.6747-10.6499,2.7192-17.0232
				c6.3734-0.0444,12.0981-0.9587,17.0232-2.7192c2.3645-0.8454,4.7294-1.9022,7.1795-3.2104
				c1.7697,1.6781,3.6659,3.2508,5.6588,4.6924c9.9939,7.2282,22.5687,11.3738,34.5003,11.3738
				c15.0051,0,27.428-6.5657,34.6478-18.1572c0.8846,0.8232,1.7851,1.6641,2.7015,2.5197
				c14.4491,13.4883,32.2774,30.1312,51.4687,40.5341c8.1638,15.0604,20.1702,29.2814,31.4793,41.6886
				c11.3091-12.4072,23.3156-26.6282,31.4793-41.6886c19.1913-10.403,37.0196-27.0458,51.4687-40.5341
				c0.9165-0.8556,1.817-1.6965,2.7015-2.5197c7.2199,11.5915,19.6427,18.1572,34.6479,18.1572
				c11.9315,0,24.5064-4.1456,34.5003-11.3738c1.9929-1.4416,3.8891-3.0142,5.6588-4.6924c2.4501,1.3082,4.8149,2.365,7.1795,3.2104
				c5.0509,1.8054,10.9428,2.7209,17.5129,2.7209c10.7827,0,21.0514-3.0655,30.9824-6.0304
				c2.9526-0.8813,6.0058-1.7929,8.9901-2.5957l2.7075-0.7751c28.8871-8.2735,58.7579-16.8289,88.5383-23.5161
				c15.0407-3.3771,31.2574-6.7067,47.946-8.1957c1.3951-0.0415,2.8336-0.0622,4.2775-0.0622
				c13.4118,0,26.8611,1.7485,40.6074,3.6961c11.7383,1.6631,23.6004,3.778,35.072,5.8233
				C804.264,139.0313,809.9655,140.0477,815.6966,141.0173z M1464.6492,166.7441c-0.8119,0.0354-1.6262,0.0538-2.4432,0.0538
				c-5.5546,0-11.2992-0.6784-16.543-2.5531c-3.0015-1.0729-5.8792-2.4732-8.6384-4.0634c-2.1074,2.1703-4.4072,4.1514-6.8582,5.924
				c-9.3854,6.7881-21.3478,10.8269-32.8119,10.8274c-13.8258,0.0007-26.9277-5.8719-33.9237-19.8784
				c-14.9661,13.8216-35.2458,33.892-57.0479,45.5018c-7.5469,14.1722-18.6688,27.7013-29.3256,39.5457
				c-10.6567-11.8444-21.7787-25.3735-29.3257-39.5457c-21.8019-11.6099-42.0817-31.6802-57.0477-45.5018
				c-6.996,14.0065-20.0979,19.8791-33.9237,19.8784c-11.4641-0.0005-23.4265-4.0393-32.8119-10.8274
				c-2.4509-1.7726-4.7507-3.7537-6.8582-5.924c-2.7593,1.5901-5.637,2.9904-8.6384,4.0634
				c-5.2438,1.8747-10.9884,2.5531-16.543,2.5531c-13.5399,0-26.3466-5.0631-39.2242-8.5276
				c-30.2986-8.6762-60.5999-17.4123-91.363-24.3197c-15.985-3.5893-32.0667-6.8102-48.4053-8.262
				c-1.4811-0.0449-2.9625-0.0662-4.4479-0.0662c-13.6868,0-27.5233,1.8134-41.0129,3.7247
				c-17.3849,2.4634-34.6085,5.836-51.7589,8.7504c-17.1504-2.9144-34.374-6.287-51.7589-8.7504
				c-13.4896-1.9113-27.3262-3.7247-41.0129-3.7247c-1.4854,0-2.9667,0.0213-4.4479,0.0662
				c-16.3386,1.4518-32.4203,4.6727-48.4053,8.262c-30.7631,6.9075-61.0643,15.6436-91.363,24.3197
				c-12.8777,3.4645-25.6843,8.5276-39.2243,8.5276c-5.5544,0-11.2991-0.6784-16.5429-2.5531
				c-3.0014-1.0729-5.8791-2.4732-8.6384-4.0634c-2.1074,2.1703-4.4072,4.1514-6.8582,5.924
				c-9.3853,6.7881-21.3478,10.8269-32.8119,10.8274c-13.8257,0.0007-26.9278-5.8719-33.9237-19.8784
				c-14.966,13.8216-35.2459,33.892-57.0478,45.5018c-7.5469,14.1722-18.6689,27.7013-29.3256,39.5457
				c-10.6567-11.8444-21.7787-25.3735-29.3256-39.5457c-21.8019-11.6099-42.0818-31.6802-57.0478-45.5018
				c-6.9959,14.0065-20.0979,19.8791-33.9237,19.8784c-11.4641-0.0005-23.4265-4.0393-32.8119-10.8274
				c-2.451-1.7726-4.7508-3.7537-6.8581-5.924c-2.7593,1.5901-5.6371,2.9904-8.6384,4.0634
				c-5.2438,1.8747-10.9884,2.5531-16.5429,2.5531c-0.817,0-1.6314-0.0184-2.4433-0.0538c0.0354,0.8119,0.0538,1.6262,0.0538,2.4433
				c0,5.5545-0.6784,11.2991-2.5531,16.5429c-1.0729,3.0014-2.4732,5.8791-4.0634,8.6384c2.1703,2.1074,4.1514,4.4072,5.924,6.8581
				c6.7881,9.3853,10.8269,21.3478,10.8274,32.8119c0.0007,13.8257-5.8719,26.9277-19.8784,33.9237
				c13.8216,14.966,33.892,35.2459,45.5018,57.0478c14.1722,7.5469,27.7013,18.6689,39.5457,29.3256
				c-11.8444,10.6567-25.3735,21.7787-39.5457,29.3256c-11.6099,21.8019-31.6802,42.0818-45.5018,57.0478
				c14.0065,6.9959,19.8791,20.0979,19.8784,33.9237c-0.0005,11.4641-4.0393,23.4265-10.8274,32.8119
				c-1.7726,2.451-3.7537,4.7508-5.924,6.8582c1.5901,2.7593,2.9904,5.637,4.0634,8.6384
				c1.8747,5.2438,2.5531,10.9885,2.5531,16.5429c0,13.54-5.0631,26.3466-8.5276,39.2243
				c-8.6762,30.2986-17.4123,60.5999-24.3197,91.363c-3.5893,15.985-6.8102,32.0667-8.262,48.4053
				c-0.0449,1.4811-0.0662,2.9625-0.0662,4.4479c0,13.6868,1.8134,27.5233,3.7247,41.0129
				c2.4634,17.3849,5.836,34.6085,8.7504,51.7589c-2.9144,17.1505-6.287,34.374-8.7504,51.7589
				c-1.9113,13.4896-3.7247,27.3262-3.7247,41.0129c0,1.4854,0.0213,2.9667,0.0662,4.4479
				c1.4518,16.3386,4.6727,32.4203,8.262,48.4053c6.9075,30.7631,15.6436,61.0643,24.3197,91.363
				c3.4645,12.8777,8.5276,25.6843,8.5276,39.2242c0,5.5546-0.6784,11.2992-2.5531,16.543
				c-1.0729,3.0015-2.4732,5.8792-4.0634,8.6384c2.1703,2.1074,4.1514,4.4072,5.924,6.8582
				c6.7881,9.3854,10.8269,21.3478,10.8274,32.8119c0.0007,13.8258-5.8719,26.9277-19.8784,33.9237
				c13.8216,14.9661,33.892,35.2458,45.5018,57.0477c14.1722,7.547,27.7013,18.6689,39.5457,29.3257
				c-11.8444,10.6567-25.3735,21.7787-39.5457,29.3256c-11.6099,21.802-31.6802,42.0818-45.5018,57.0479
				c14.0065,6.996,19.8791,20.0979,19.8784,33.9237c-0.0005,11.4641-4.0393,23.4265-10.8274,32.8119
				c-1.7726,2.4509-3.7537,4.7507-5.924,6.8582c1.5901,2.7593,2.9904,5.637,4.0634,8.6384
				c1.8747,5.2438,2.5531,10.9884,2.5531,16.543c0,0.817-0.0184,1.6313-0.0538,2.4432c0.8119-0.0354,1.6262-0.0538,2.4433-0.0538
				c5.5545,0,11.2991,0.6783,16.5429,2.5531c3.0014,1.0729,5.8791,2.4731,8.6384,4.0632c2.1074-2.1702,4.4072-4.1514,6.8581-5.924
				c9.3853-6.7881,21.3478-10.8269,32.8119-10.8274c13.8257-0.0006,26.9277,5.8719,33.9237,19.8784
				c14.966-13.8217,35.2459-33.892,57.0478-45.5018c7.5469-14.1722,18.6689-27.7013,29.3256-39.5457
				c10.6567,11.8444,21.7787,25.3734,29.3256,39.5457c21.8019,11.6099,42.0818,31.6802,57.0478,45.5018
				c6.9959-14.0065,20.0979-19.879,33.9237-19.8784c11.4641,0.0005,23.4265,4.0393,32.8119,10.8274
				c2.451,1.7726,4.7508,3.7538,6.8582,5.924c2.7593-1.5901,5.637-2.9904,8.6384-4.0632
				c5.2438-1.8748,10.9885-2.5531,16.5429-2.5531c13.54,0,26.3466,5.063,39.2243,8.5275
				c30.2986,8.6761,60.5999,17.4124,91.363,24.3198c15.985,3.5892,32.0667,6.8102,48.4053,8.262
				c1.4811,0.0449,2.9625,0.0662,4.4479,0.0662c13.6868,0,27.5233-1.8134,41.0129-3.7246
				c17.3849-2.4635,34.6085-5.8361,51.7589-8.7504c17.1505,2.9143,34.374,6.2869,51.7589,8.7504
				c13.4896,1.9113,27.3262,3.7246,41.0129,3.7246c1.4854,0,2.9667-0.0212,4.4479-0.0662
				c16.3386-1.4518,32.4203-4.6727,48.4053-8.262c30.7631-6.9075,61.0643-15.6437,91.363-24.3198
				c12.8777-3.4645,25.6843-8.5275,39.2242-8.5275c5.5546,0,11.2992,0.6783,16.543,2.5531
				c3.0015,1.0729,5.8792,2.4731,8.6384,4.0632c2.1074-2.1702,4.4072-4.1514,6.8582-5.924
				c9.3854-6.7881,21.3478-10.8269,32.8119-10.8274c13.8258-0.0006,26.9277,5.8719,33.9237,19.8784
				c14.9661-13.8217,35.2458-33.892,57.0477-45.5018c7.547-14.1722,18.6689-27.7013,29.3257-39.5457
				c10.6567,11.8444,21.7787,25.3734,29.3256,39.5457c21.802,11.6099,42.0818,31.6802,57.0479,45.5018
				c6.996-14.0065,20.0979-19.879,33.9237-19.8784c11.4641,0.0005,23.4265,4.0393,32.8119,10.8274
				c2.4509,1.7726,4.7507,3.7538,6.8582,5.924c2.7593-1.5901,5.637-2.9904,8.6384-4.0632
				c5.2438-1.8748,10.9884-2.5531,16.543-2.5531c0.817,0,1.6313,0.0184,2.4432,0.0538c-0.0354-0.8119-0.0538-1.6262-0.0538-2.4432
				c0-5.5546,0.6783-11.2992,2.5531-16.543c1.0729-3.0015,2.4731-5.8792,4.0632-8.6384c-2.1702-2.1074-4.1514-4.4072-5.924-6.8582
				c-6.7881-9.3854-10.8269-21.3478-10.8274-32.8119c-0.0006-13.8258,5.8719-26.9277,19.8784-33.9237
				c-13.8217-14.9661-33.892-35.2458-45.5018-57.0479c-14.1722-7.5469-27.7013-18.6688-39.5457-29.3256
				c11.8444-10.6567,25.3734-21.7787,39.5457-29.3257c11.6099-21.8019,31.6802-42.0817,45.5018-57.0477
				c-14.0065-6.996-19.879-20.0979-19.8784-33.9237c0.0005-11.4641,4.0393-23.4265,10.8274-32.8119
				c1.7726-2.4509,3.7538-4.7507,5.924-6.8582c-1.5901-2.7593-2.9904-5.637-4.0632-8.6384
				c-1.8748-5.2438-2.5531-10.9884-2.5531-16.543c0-13.5399,5.063-26.3466,8.5275-39.2242
				c8.6761-30.2986,17.4124-60.5999,24.3198-91.363c3.5892-15.985,6.8102-32.0667,8.262-48.4053
				c0.0449-1.4811,0.0662-2.9625,0.0662-4.4479c0-13.6868-1.8134-27.5233-3.7246-41.0129
				c-2.4635-17.3849-5.8361-34.6085-8.7504-51.7589c2.9143-17.1504,6.2869-34.374,8.7504-51.7589
				c1.9113-13.4896,3.7246-27.3262,3.7246-41.0129c0-1.4854-0.0212-2.9667-0.0662-4.4479
				c-1.4518-16.3386-4.6727-32.4203-8.262-48.4053c-6.9075-30.7631-15.6437-61.0643-24.3198-91.363
				c-3.4645-12.8777-8.5275-25.6843-8.5275-39.2243c0-5.5544,0.6783-11.2991,2.5531-16.5429
				c1.0729-3.0014,2.4731-5.8791,4.0632-8.6384c-2.1702-2.1074-4.1514-4.4072-5.924-6.8582
				c-6.7881-9.3853-10.8269-21.3478-10.8274-32.8119c-0.0006-13.8257,5.8719-26.9278,19.8784-33.9237
				c-13.8217-14.966-33.892-35.2459-45.5018-57.0478c-14.1722-7.5469-27.7013-18.6689-39.5457-29.3256
				c11.8444-10.6567,25.3734-21.7787,39.5457-29.3256c11.6099-21.8019,31.6802-42.0818,45.5018-57.0478
				c-14.0065-6.9959-19.879-20.0979-19.8784-33.9237c0.0005-11.4641,4.0393-23.4265,10.8274-32.8119
				c1.7726-2.451,3.7538-4.7508,5.924-6.8581c-1.5901-2.7593-2.9904-5.6371-4.0632-8.6384
				c-1.8748-5.2438-2.5531-10.9884-2.5531-16.5429C1464.5953,168.3703,1464.6138,167.556,1464.6492,166.7441z"/>
			<path d="M1277.0574,221.758c-9.2998-6.6882-16.7164-16.7413-20.765-27.7623c-13.3447-4.9022-25.2703-14.7424-31.5216-26.8848
				c14.8602-7.5313,31.3669-19.6292,35.5624-36.7263c4.5597-18.5813,5.0664-41.4245-4.6842-58.5271
				c-8.8539-15.5298-24.5042-29.6571-39.9447-38.4079c-18.7682-10.6368-38.495-9.821-59.2469-11.9901
				c37.4152-7.2668,85.4938-10.685,120.6001,8.502c35.1063-19.187,83.1848-15.7688,120.6001-8.502
				c-20.7521,2.1691-40.4788,1.3533-59.2469,11.9901c-15.4406,8.7508-31.0908,22.8781-39.9448,38.4079
				c-9.7505,17.1026-9.2438,39.9457-4.6841,58.5271c4.1954,17.0971,20.7021,29.1951,35.5624,36.7263
				c-6.2513,12.1423-18.1769,21.9825-31.5216,26.8848C1293.7738,205.0167,1286.3572,215.0698,1277.0574,221.758z"/>
			<path d="M221.758,354.3359c-6.6882,9.2999-16.7413,16.7165-27.7623,20.7651c-4.9022,13.3447-14.7424,25.2702-26.8848,31.5216
				c-7.5313-14.8603-19.6292-31.367-36.7263-35.5624c-18.5813-4.5596-41.4245-5.0663-58.5271,4.6842
				c-15.5298,8.8539-29.6571,24.5042-38.4079,39.9447c-10.6368,18.7682-9.821,38.495-11.9901,59.247
				c-7.2668-37.4153-10.685-85.4938,8.502-120.6002c-19.187-35.1063-15.7688-83.1849-8.502-120.6001
				c2.1691,20.7521,1.3533,40.4788,11.9901,59.247c8.7508,15.4405,22.8781,31.0909,38.4079,39.9447
				c17.1026,9.7505,39.9457,9.2438,58.5271,4.6842c17.0971-4.1955,29.1951-20.7021,36.7263-35.5625
				c12.1423,6.2513,21.9825,18.1769,26.8848,31.5216C205.0167,337.6194,215.0698,345.036,221.758,354.3359z"/>
			<path d="M354.3359,1409.6353c9.2999,6.6882,16.7165,16.7413,20.7651,27.7622c13.3447,4.9022,25.2702,14.7424,31.5216,26.8848
				c-14.8603,7.5314-31.367,19.6293-35.5624,36.7263c-4.5596,18.5814-5.0663,41.4246,4.6842,58.5271
				c8.8539,15.5299,24.5042,29.6571,39.9447,38.408c18.7682,10.6367,38.495,9.821,59.247,11.9901
				c-37.4153,7.2667-85.4938,10.6849-120.6002-8.5021c-35.1063,19.187-83.1849,15.7688-120.6001,8.5021
				c20.7521-2.1691,40.4788-1.3534,59.247-11.9901c15.4405-8.7509,31.0909-22.8781,39.9447-38.408
				c9.7505-17.1025,9.2438-39.9457,4.6842-58.5271c-4.1955-17.097-20.7021-29.1949-35.5625-36.7263
				c6.2513-12.1423,18.1769-21.9825,31.5216-26.8848C337.6194,1426.3766,345.036,1416.3235,354.3359,1409.6353z"/>
			<path d="M1409.6353,1277.0574c6.6882-9.2998,16.7413-16.7164,27.7622-20.765c4.9022-13.3447,14.7424-25.2703,26.8848-31.5216
				c7.5314,14.8602,19.6293,31.3669,36.7263,35.5624c18.5814,4.5597,41.4246,5.0664,58.5271-4.6842
				c15.5299-8.8539,29.6571-24.5042,38.408-39.9447c10.6367-18.7682,9.821-38.495,11.9901-59.2469
				c7.2667,37.4152,10.6849,85.4938-8.5021,120.6001c19.187,35.1063,15.7688,83.1848,8.5021,120.6001
				c-2.1691-20.7521-1.3534-40.4788-11.9901-59.2469c-8.7509-15.4406-22.8781-31.0908-38.408-39.9448
				c-17.1025-9.7505-39.9457-9.2438-58.5271-4.6841c-17.097,4.1954-29.1949,20.7021-36.7263,35.5624
				c-12.1423-6.2513-21.9825-18.1769-26.8848-31.5216C1426.3766,1293.7738,1416.3235,1286.3572,1409.6353,1277.0574z"/>
			<path d="M1409.6353,354.3359c6.6882,9.2999,16.7413,16.7165,27.7622,20.7651c4.9022,13.3447,14.7424,25.2702,26.8848,31.5216
				c7.5314-14.8603,19.6293-31.367,36.7263-35.5624c18.5814-4.5596,41.4246-5.0663,58.5271,4.6842
				c15.5299,8.8539,29.6571,24.5042,38.408,39.9447c10.6367,18.7682,9.821,38.495,11.9901,59.247
				c7.2667-37.4153,10.6849-85.4938-8.5021-120.6002c19.187-35.1063,15.7688-83.1849,8.5021-120.6001
				c-2.1691,20.7521-1.3534,40.4788-11.9901,59.247c-8.7509,15.4405-22.8781,31.0909-38.408,39.9447
				c-17.1025,9.7505-39.9457,9.2438-58.5271,4.6842c-17.097-4.1955-29.1949-20.7021-36.7263-35.5625
				c-12.1423,6.2513-21.9825,18.1769-26.8848,31.5216C1426.3766,337.6194,1416.3235,345.036,1409.6353,354.3359z"/>
			<path d="M354.3359,221.758c9.2999-6.6882,16.7165-16.7413,20.7651-27.7623c13.3447-4.9022,25.2702-14.7424,31.5216-26.8848
				c-14.8603-7.5313-31.367-19.6292-35.5624-36.7263c-4.5596-18.5813-5.0663-41.4245,4.6842-58.5271
				c8.8539-15.5298,24.5042-29.6571,39.9447-38.4079c18.7682-10.6368,38.495-9.821,59.247-11.9901
				c-37.4153-7.2668-85.4938-10.685-120.6002,8.502c-35.1063-19.187-83.1849-15.7688-120.6001-8.502
				c20.7521,2.1691,40.4788,1.3533,59.247,11.9901c15.4405,8.7508,31.0909,22.8781,39.9447,38.4079
				c9.7505,17.1026,9.2438,39.9457,4.6842,58.5271c-4.1955,17.0971-20.7021,29.1951-35.5625,36.7263
				c6.2513,12.1423,18.1769,21.9825,31.5216,26.8848C337.6194,205.0167,345.036,215.0698,354.3359,221.758z"/>
			<path d="M221.758,1277.0574c-6.6882-9.2998-16.7413-16.7164-27.7623-20.765c-4.9022-13.3447-14.7424-25.2703-26.8848-31.5216
				c-7.5313,14.8602-19.6292,31.3669-36.7263,35.5624c-18.5813,4.5597-41.4245,5.0664-58.5271-4.6842
				c-15.5298-8.8539-29.6571-24.5042-38.4079-39.9447c-10.6368-18.7682-9.821-38.495-11.9901-59.2469
				c-7.2668,37.4152-10.685,85.4938,8.502,120.6001c-19.187,35.1063-15.7688,83.1848-8.502,120.6001
				c2.1691-20.7521,1.3533-40.4788,11.9901-59.2469c8.7508-15.4406,22.8781-31.0908,38.4079-39.9448
				c17.1026-9.7505,39.9457-9.2438,58.5271-4.6841c17.0971,4.1954,29.1951,20.7021,36.7263,35.5624
				c12.1423-6.2513,21.9825-18.1769,26.8848-31.5216C205.0167,1293.7738,215.0698,1286.3572,221.758,1277.0574z"/>
			<path d="M1277.0574,1409.6353c-9.2998,6.6882-16.7164,16.7413-20.765,27.7622c-13.3447,4.9022-25.2703,14.7424-31.5216,26.8848
				c14.8602,7.5314,31.3669,19.6293,35.5624,36.7263c4.5597,18.5814,5.0664,41.4246-4.6842,58.5271
				c-8.8539,15.5299-24.5042,29.6571-39.9447,38.408c-18.7682,10.6367-38.495,9.821-59.2469,11.9901
				c37.4152,7.2667,85.4938,10.6849,120.6001-8.5021c35.1063,19.187,83.1848,15.7688,120.6001,8.5021
				c-20.7521-2.1691-40.4788-1.3534-59.2469-11.9901c-15.4406-8.7509-31.0908-22.8781-39.9448-38.408
				c-9.7505-17.1025-9.2438-39.9457-4.6841-58.5271c4.1954-17.097,20.7021-29.1949,35.5624-36.7263
				c-6.2513-12.1423-18.1769-21.9825-31.5216-26.8848C1293.7738,1426.3766,1286.3572,1416.3235,1277.0574,1409.6353z"/>
			<path d="M1156.293,99.0409c-19.8716-11.8767-45.7268-13.1944-68.2755-13.8015c-25.9421-0.6984-50.5846,3.7838-75.8179,9.3546
				c-12.8847,2.8445-25.7181,5.9152-38.5371,9.0408c-12.0587,2.9403-25.3737,4.8229-36.9104,9.4375
				c38.1151,0.6491,74.0268,2.1586,109.6122,17.3765c15.2241,6.5105,31.1746,17.7529,48.4407,16.9152
				c8.7913-0.4265,16.2317-5.4017,21.1945-12.5242c4.6073-6.6121,4.0723-13.3514,4.3385-20.997
				c3.4949,2.2843,7.1002,4.3926,10.609,6.6549c-4.0496,5.5862-6.9397,8.8234-6.5155,16.2888
				c0.3361,5.9135,2.4286,12.2382,7.7903,15.4443c9.0579,5.4693,25.8756,7.2788,34.9093,0.8283
				C1188.468,138.3228,1173.567,109.3652,1156.293,99.0409z"/>
			<path d="M99.0409,475.1003c-11.8767,19.8716-13.1944,45.7267-13.8015,68.2755c-0.6984,25.9421,3.7838,50.5846,9.3546,75.8179
				c2.8445,12.8847,5.9152,25.7181,9.0408,38.5371c2.9403,12.0587,4.8229,25.3737,9.4375,36.9104
				c0.6491-38.1151,2.1586-74.0268,17.3765-109.6122c6.5105-15.2241,17.7529-31.1746,16.9152-48.4407
				c-0.4265-8.7912-5.4017-16.2317-12.5242-21.1945c-6.6121-4.6072-13.3514-4.0722-20.997-4.3384
				c2.2843-3.4949,4.3926-7.1002,6.6549-10.609c5.5862,4.0496,8.8234,6.9397,16.2888,6.5155
				c5.9135-0.3361,12.2382-2.4287,15.4443-7.7903c5.4693-9.0579,7.2788-25.8756,0.8283-34.9093
				C138.3228,442.9253,109.3652,457.8263,99.0409,475.1003z"/>
			<path d="M475.1003,1532.3523c19.8716,11.8767,45.7267,13.1945,68.2755,13.8015c25.9421,0.6984,50.5846-3.7838,75.8179-9.3546
				c12.8847-2.8446,25.7181-5.9153,38.5371-9.0409c12.0587-2.9403,25.3737-4.8229,36.9104-9.4375
				c-38.1151-0.6492-74.0268-2.1586-109.6122-17.3766c-15.2241-6.5104-31.1746-17.7529-48.4407-16.9152
				c-8.7912,0.4265-16.2317,5.4017-21.1945,12.5242c-4.6072,6.6121-4.0722,13.3513-4.3384,20.9969
				c-3.4949-2.2843-7.1002-4.3926-10.609-6.6549c4.0496-5.5862,6.9397-8.8235,6.5155-16.2888
				c-0.3361-5.9135-2.4287-12.2382-7.7903-15.4442c-9.0579-5.4694-25.8756-7.2789-34.9093-0.8284
				C442.9253,1493.0704,457.8263,1522.0281,475.1003,1532.3523z"/>
			<path d="M1532.3523,1156.293c11.8767-19.8716,13.1945-45.7268,13.8015-68.2755c0.6984-25.9421-3.7838-50.5846-9.3546-75.8179
				c-2.8446-12.8847-5.9153-25.7181-9.0409-38.5371c-2.9403-12.0587-4.8229-25.3737-9.4375-36.9104
				c-0.6492,38.1151-2.1586,74.0268-17.3766,109.6122c-6.5104,15.2241-17.7529,31.1746-16.9152,48.4407
				c0.4265,8.7913,5.4017,16.2317,12.5242,21.1945c6.6121,4.6073,13.3513,4.0723,20.9969,4.3385
				c-2.2843,3.4949-4.3926,7.1002-6.6549,10.609c-5.5862-4.0496-8.8235-6.9397-16.2888-6.5155
				c-5.9135,0.3361-12.2382,2.4286-15.4442,7.7903c-5.4694,9.0579-7.2789,25.8756-0.8284,34.9093
				C1493.0704,1188.468,1522.0281,1173.567,1532.3523,1156.293z"/>
			<path d="M1532.3523,475.1003c11.8767,19.8716,13.1945,45.7267,13.8015,68.2755c0.6984,25.9421-3.7838,50.5846-9.3546,75.8179
				c-2.8446,12.8847-5.9153,25.7181-9.0409,38.5371c-2.9403,12.0587-4.8229,25.3737-9.4375,36.9104
				c-0.6492-38.1151-2.1586-74.0268-17.3766-109.6122c-6.5104-15.2241-17.7529-31.1746-16.9152-48.4407
				c0.4265-8.7912,5.4017-16.2317,12.5242-21.1945c6.6121-4.6072,13.3513-4.0722,20.9969-4.3384
				c-2.2843-3.4949-4.3926-7.1002-6.6549-10.609c-5.5862,4.0496-8.8235,6.9397-16.2888,6.5155
				c-5.9135-0.3361-12.2382-2.4287-15.4442-7.7903c-5.4694-9.0579-7.2789-25.8756-0.8284-34.9093
				C1493.0704,442.9253,1522.0281,457.8263,1532.3523,475.1003z"/>
			<path d="M475.1003,99.0409c19.8716-11.8767,45.7267-13.1944,68.2755-13.8015c25.9421-0.6984,50.5846,3.7838,75.8179,9.3546
				c12.8847,2.8445,25.7181,5.9152,38.5371,9.0408c12.0587,2.9403,25.3737,4.8229,36.9104,9.4375
				c-38.1151,0.6491-74.0268,2.1586-109.6122,17.3765c-15.2241,6.5105-31.1746,17.7529-48.4407,16.9152
				c-8.7912-0.4265-16.2317-5.4017-21.1945-12.5242c-4.6072-6.6121-4.0722-13.3514-4.3384-20.997
				c-3.4949,2.2843-7.1002,4.3926-10.609,6.6549c4.0496,5.5862,6.9397,8.8234,6.5155,16.2888
				c-0.3361,5.9135-2.4287,12.2382-7.7903,15.4443c-9.0579,5.4693-25.8756,7.2788-34.9093,0.8283
				C442.9253,138.3228,457.8263,109.3652,475.1003,99.0409z"/>
			<path d="M99.0409,1156.293c-11.8767-19.8716-13.1944-45.7268-13.8015-68.2755c-0.6984-25.9421,3.7838-50.5846,9.3546-75.8179
				c2.8445-12.8847,5.9152-25.7181,9.0408-38.5371c2.9403-12.0587,4.8229-25.3737,9.4375-36.9104
				c0.6491,38.1151,2.1586,74.0268,17.3765,109.6122c6.5105,15.2241,17.7529,31.1746,16.9152,48.4407
				c-0.4265,8.7913-5.4017,16.2317-12.5242,21.1945c-6.6121,4.6073-13.3514,4.0723-20.997,4.3385
				c2.2843,3.4949,4.3926,7.1002,6.6549,10.609c5.5862-4.0496,8.8234-6.9397,16.2888-6.5155
				c5.9135,0.3361,12.2382,2.4286,15.4443,7.7903c5.4693,9.0579,7.2788,25.8756,0.8283,34.9093
				C138.3228,1188.468,109.3652,1173.567,99.0409,1156.293z"/>
			<path d="M1156.293,1532.3523c-19.8716,11.8767-45.7268,13.1945-68.2755,13.8015c-25.9421,0.6984-50.5846-3.7838-75.8179-9.3546
				c-12.8847-2.8446-25.7181-5.9153-38.5371-9.0409c-12.0587-2.9403-25.3737-4.8229-36.9104-9.4375
				c38.1151-0.6492,74.0268-2.1586,109.6122-17.3766c15.2241-6.5104,31.1746-17.7529,48.4407-16.9152
				c8.7913,0.4265,16.2317,5.4017,21.1945,12.5242c4.6073,6.6121,4.0723,13.3513,4.3385,20.9969
				c3.4949-2.2843,7.1002-4.3926,10.609-6.6549c-4.0496-5.5862-6.9397-8.8235-6.5155-16.2888
				c0.3361-5.9135,2.4286-12.2382,7.7903-15.4442c9.0579-5.4694,25.8756-7.2789,34.9093-0.8284
				C1188.468,1493.0704,1173.567,1522.0281,1156.293,1532.3523z"/>
			<path d="M1494.6847,136.7086c-11.2588,5.6309-22.9778,11.2571-35.3749,10.6556c-8.7913-0.4265-16.2318-5.4017-21.1946-12.5242
				c-4.6072-6.6121-4.0721-13.3514-4.3384-20.997c-3.4949,2.2843-7.1002,4.3926-10.609,6.6549
				c4.0496,5.5862,6.9397,8.8234,6.5155,16.2888c-0.3361,5.9135-2.4287,12.2382-7.7903,15.4443
				c-9.0579,5.4693-25.8756,7.2788-34.9093,0.8283c-21.337-14.7366-6.436-43.6941,10.838-54.0184
				c19.8716-11.8767,45.7268-13.1944,68.2755-13.8015c24.5015-0.6596,47.8436,3.3019,71.6191,8.4373
				c5.1355,23.7756,9.097,47.1177,8.4374,71.6192c-0.6071,22.5488-1.9248,48.404-13.8015,68.2755
				c-10.3242,17.274-39.2819,32.175-54.0184,10.838c-6.4506-9.0337-4.641-25.8515,0.8284-34.9093
				c3.2061-5.3616,9.5308-7.4542,15.4442-7.7903c7.4653-0.4241,10.7026,2.4659,16.2888,6.5155
				c2.2623-3.5088,4.3706-7.1142,6.6549-10.609c-7.6456-0.2662-14.3849,0.2688-20.9969-4.3384
				c-7.1224-4.9628-12.0977-12.4033-12.5242-21.1945C1483.4276,159.6863,1489.0538,147.9674,1494.6847,136.7086z"/>
			<path d="M1494.6847,1494.6847c-5.6309-11.2588-11.2571-22.9778-10.6556-35.3749c0.4265-8.7913,5.4017-16.2318,12.5242-21.1946
				c6.6121-4.6072,13.3513-4.0721,20.9969-4.3384c-2.2843-3.4949-4.3926-7.1002-6.6549-10.609
				c-5.5862,4.0496-8.8235,6.9397-16.2888,6.5155c-5.9135-0.3361-12.2382-2.4287-15.4442-7.7903
				c-5.4694-9.0579-7.2789-25.8756-0.8284-34.9093c14.7366-21.337,43.6942-6.436,54.0184,10.838
				c11.8767,19.8716,13.1945,45.7268,13.8015,68.2755c0.6597,24.5015-3.3019,47.8436-8.4374,71.6191
				c-23.7755,5.1355-47.1177,9.097-71.6191,8.4374c-22.5487-0.6071-48.4039-1.9248-68.2755-13.8015
				c-17.274-10.3242-32.175-39.2819-10.838-54.0184c9.0337-6.4506,25.8514-4.641,34.9093,0.8284
				c5.3616,3.2061,7.4542,9.5308,7.7903,15.4442c0.4242,7.4653-2.4659,10.7026-6.5155,16.2888
				c3.5088,2.2623,7.1141,4.3706,10.609,6.6549c0.2662-7.6456-0.2688-14.3849,4.3384-20.9969
				c4.9628-7.1224,12.4033-12.0977,21.1946-12.5242C1471.7069,1483.4276,1483.4259,1489.0538,1494.6847,1494.6847z"/>
			<path d="M136.7086,1494.6847c11.2588-5.6309,22.9777-11.2571,35.3749-10.6556c8.7912,0.4265,16.2317,5.4017,21.1945,12.5242
				c4.6072,6.6121,4.0722,13.3513,4.3384,20.9969c3.4949-2.2843,7.1002-4.3926,10.609-6.6549
				c-4.0496-5.5862-6.9397-8.8235-6.5155-16.2888c0.3361-5.9135,2.4287-12.2382,7.7903-15.4442
				c9.0578-5.4694,25.8756-7.2789,34.9093-0.8284c21.337,14.7366,6.436,43.6942-10.838,54.0184
				c-19.8715,11.8767-45.7268,13.1945-68.2755,13.8015c-24.5014,0.6597-47.8436-3.3019-71.6192-8.4374
				c-5.1354-23.7755-9.097-47.1177-8.4373-71.6191c0.6071-22.5487,1.9248-48.4039,13.8015-68.2755
				c10.3243-17.274,39.2818-32.175,54.0184-10.838c6.4506,9.0337,4.641,25.8514-0.8283,34.9093
				c-3.2061,5.3616-9.5308,7.4542-15.4443,7.7903c-7.4653,0.4242-10.7026-2.4659-16.2888-6.5155
				c-2.2623,3.5088-4.3706,7.1141-6.6549,10.609c7.6456,0.2662,14.3849-0.2688,20.997,4.3384
				c7.1225,4.9628,12.0976,12.4033,12.5242,21.1946C147.9657,1471.7069,142.3394,1483.4259,136.7086,1494.6847z"/>
			<path d="M136.7086,136.7086c5.6309,11.2588,11.2571,22.9777,10.6556,35.3749c-0.4265,8.7912-5.4017,16.2317-12.5242,21.1945
				c-6.6121,4.6072-13.3514,4.0722-20.997,4.3384c2.2843,3.4949,4.3926,7.1002,6.6549,10.609
				c5.5862-4.0496,8.8234-6.9397,16.2888-6.5155c5.9135,0.3361,12.2382,2.4287,15.4443,7.7903
				c5.4693,9.0578,7.2788,25.8756,0.8283,34.9093c-14.7366,21.337-43.6941,6.436-54.0184-10.838
				C87.1642,213.7,85.8465,187.8447,85.2395,165.296c-0.6596-24.5014,3.3019-47.8436,8.4373-71.6192
				c23.7756-5.1354,47.1177-9.097,71.6192-8.4373c22.5488,0.6071,48.404,1.9248,68.2755,13.8015
				c17.274,10.3243,32.175,39.2818,10.838,54.0184c-9.0337,6.4506-25.8515,4.641-34.9093-0.8283
				c-5.3616-3.2061-7.4542-9.5308-7.7903-15.4443c-0.4241-7.4653,2.4659-10.7026,6.5155-16.2888
				c-3.5088-2.2623-7.1142-4.3706-10.609-6.6549c-0.2662,7.6456,0.2688,14.3849-4.3384,20.997
				c-4.9628,7.1225-12.4033,12.0976-21.1945,12.5242C159.6863,147.9657,147.9674,142.3394,136.7086,136.7086z"/>
			<path d="M1167.131,153.0593C1162.8745,156.0987,1172.8352,149.1197,1167.131,153.0593L1167.131,153.0593z"/>
			<path d="M153.0593,464.2623C156.0987,468.5187,149.1197,458.558,153.0593,464.2623L153.0593,464.2623z"/>
			<path d="M464.2623,1478.3339C468.5187,1475.2946,458.558,1482.2736,464.2623,1478.3339L464.2623,1478.3339z"/>
			<path d="M1478.3339,1167.131C1475.2946,1162.8745,1482.2736,1172.8352,1478.3339,1167.131L1478.3339,1167.131z"/>
			<path d="M1478.3339,464.2623C1475.2946,468.5187,1482.2736,458.558,1478.3339,464.2623L1478.3339,464.2623z"/>
			<path d="M464.2623,153.0593C468.5187,156.0987,458.558,149.1197,464.2623,153.0593L464.2623,153.0593z"/>
			<path d="M153.0593,1167.131C156.0987,1162.8745,149.1197,1172.8352,153.0593,1167.131L153.0593,1167.131z"/>
			<path d="M1167.131,1478.3339C1162.8745,1475.2946,1172.8352,1482.2736,1167.131,1478.3339L1167.131,1478.3339z"/>
			<path d="M1386.9838,153.0593C1391.2402,156.0987,1381.2795,149.1197,1386.9838,153.0593L1386.9838,153.0593z"/>
			<path d="M153.0593,244.4095C156.0987,240.1531,149.1197,250.1137,153.0593,244.4095L153.0593,244.4095z"/>
			<path d="M244.4095,1478.3339C240.1531,1475.2946,250.1137,1482.2736,244.4095,1478.3339L244.4095,1478.3339z"/>
			<path d="M1478.3339,1386.9838C1475.2946,1391.2402,1482.2736,1381.2795,1478.3339,1386.9838L1478.3339,1386.9838z"/>
			<path d="M1478.3339,244.4095C1475.2946,240.1531,1482.2736,250.1137,1478.3339,244.4095L1478.3339,244.4095z"/>
			<path d="M244.4095,153.0593C240.1531,156.0987,250.1137,149.1197,244.4095,153.0593L244.4095,153.0593z"/>
			<path d="M153.0593,1386.9838C156.0987,1391.2402,149.1197,1381.2795,153.0593,1386.9838L153.0593,1386.9838z"/>
			<path d="M1386.9838,1478.3339C1391.2402,1475.2946,1381.2795,1482.2736,1386.9838,1478.3339L1386.9838,1478.3339z"/>
			<path d="M1237.382,136.8686C1231.584,143.6244,1242.942,130.473,1237.382,136.8686L1237.382,136.8686z"/>
			<path d="M136.8686,394.0113C143.6244,399.8093,130.473,388.4512,136.8686,394.0113L136.8686,394.0113z"/>
			<path d="M394.0113,1494.5247C399.8093,1487.7689,388.4512,1500.9202,394.0113,1494.5247L394.0113,1494.5247z"/>
			<path d="M1494.5247,1237.382C1487.7689,1231.584,1500.9202,1242.942,1494.5247,1237.382L1494.5247,1237.382z"/>
			<path d="M1494.5247,394.0113C1487.7689,399.8093,1500.9202,388.4512,1494.5247,394.0113L1494.5247,394.0113z"/>
			<path d="M394.0113,136.8686C399.8093,143.6244,388.4512,130.473,394.0113,136.8686L394.0113,136.8686z"/>
			<path d="M136.8686,1237.382C143.6244,1231.584,130.473,1242.942,136.8686,1237.382L136.8686,1237.382z"/>
			<path d="M1237.382,1494.5247C1231.584,1487.7689,1242.942,1500.9202,1237.382,1494.5247L1237.382,1494.5247z"/>
			<path d="M1316.7328,136.8686C1322.5308,143.6244,1311.1726,130.473,1316.7328,136.8686L1316.7328,136.8686z"/>
			<path d="M136.8686,314.6605C143.6244,308.8625,130.473,320.2206,136.8686,314.6605L136.8686,314.6605z"/>
			<path d="M314.6605,1494.5247C308.8625,1487.7689,320.2206,1500.9202,314.6605,1494.5247L314.6605,1494.5247z"/>
			<path d="M1494.5247,1316.7328C1487.7689,1322.5308,1500.9202,1311.1726,1494.5247,1316.7328L1494.5247,1316.7328z"/>
			<path d="M1494.5247,314.6605C1487.7689,308.8625,1500.9202,320.2206,1494.5247,314.6605L1494.5247,314.6605z"/>
			<path d="M314.6605,136.8686C308.8625,143.6244,320.2206,130.473,314.6605,136.8686L314.6605,136.8686z"/>
			<path d="M136.8686,1316.7328C143.6244,1322.5308,130.473,1311.1726,136.8686,1316.7328L136.8686,1316.7328z"/>
			<path d="M1316.7328,1494.5247C1322.5308,1487.7689,1311.1726,1500.9202,1316.7328,1494.5247L1316.7328,1494.5247z"/>
			<path d="M1554.6857,76.7076c-41.8867-8.9788-85.2446-13.6963-126.6454-6.3558c-26.624,4.7205-55.1915,12.9919-61.7277,42.9392
				c-2.8594,13.1015-1.8193,25.5117-16.4011,31.0172c-11.8035,4.4566-24.7075,2.4311-33.1787-7.4396
				c-19.4065-22.3226-10.2535-53.7142,9.6238-71.9458c21.4688-19.6909,52.8352-28.0328,80.9379-32.3738
				c58.6332-9.057,115.5088,3.6281,171.4167,20.133c16.5049,55.908,29.1901,112.7836,20.1331,171.4168
				c-4.3411,28.1027-12.683,59.4691-32.3739,80.9378c-18.2316,19.8773-49.6232,29.0302-71.9457,9.6238
				c-9.8707-8.4712-11.8962-21.3753-7.4397-33.1788c5.5056-14.5817,17.9158-13.5417,31.0172-16.4011
				c29.9474-6.5361,38.2188-35.1037,42.9393-61.7276C1568.382,161.9522,1563.6644,118.5943,1554.6857,76.7076z"/>
			<path d="M1554.6857,1554.6857c8.9788-41.8867,13.6963-85.2446,6.3558-126.6454c-4.7206-26.624-12.9919-55.1915-42.9393-61.7277
				c-13.1014-2.8594-25.5116-1.8193-31.0172-16.4011c-4.4565-11.8035-2.431-24.7075,7.4397-33.1787
				c22.3225-19.4065,53.7141-10.2535,71.9457,9.6238c19.6909,21.4688,28.0328,52.8352,32.3739,80.9379
				c9.057,58.6332-3.6282,115.5088-20.1331,171.4167c-55.908,16.5049-112.7836,29.1901-171.4167,20.1331
				c-28.1027-4.3411-59.4691-12.683-80.9379-32.3739c-19.8773-18.2316-29.0303-49.6232-9.6238-71.9457
				c8.4712-9.8707,21.3752-11.8962,33.1787-7.4397c14.5818,5.5056,13.5417,17.9158,16.4011,31.0172
				c6.5361,29.9474,35.1036,38.2188,61.7277,42.9393C1469.441,1568.382,1512.799,1563.6644,1554.6857,1554.6857z"/>
			<path d="M76.7076,1554.6857c41.8867,8.9788,85.2446,13.6963,126.6454,6.3558c26.624-4.7206,55.1915-12.9919,61.7276-42.9393
				c2.8594-13.1014,1.8194-25.5116,16.4011-31.0172c11.8035-4.4565,24.7076-2.431,33.1788,7.4397
				c19.4064,22.3225,10.2535,53.7141-9.6238,71.9457c-21.4688,19.6909-52.8352,28.0328-80.9378,32.3739
				c-58.6332,9.057-115.5088-3.6282-171.4168-20.1331c-16.5049-55.908-29.19-112.7836-20.133-171.4167
				c4.341-28.1027,12.6829-59.4691,32.3738-80.9379c18.2316-19.8773,49.6232-29.0303,71.9458-9.6238
				c9.8707,8.4712,11.8962,21.3752,7.4396,33.1787c-5.5056,14.5818-17.9157,13.5417-31.0172,16.4011
				c-29.9474,6.5361-38.2187,35.1036-42.9392,61.7277C63.0113,1469.441,67.7288,1512.799,76.7076,1554.6857z"/>
			<path d="M76.7076,76.7076c-8.9788,41.8867-13.6963,85.2446-6.3558,126.6454c4.7205,26.624,12.9919,55.1915,42.9392,61.7276
				c13.1015,2.8594,25.5117,1.8194,31.0172,16.4011c4.4566,11.8035,2.4311,24.7076-7.4396,33.1788
				c-22.3226,19.4064-53.7142,10.2535-71.9458-9.6238c-19.6909-21.4688-28.0328-52.8352-32.3738-80.9378
				c-9.057-58.6332,3.6281-115.5088,20.133-171.4168c55.908-16.5049,112.7836-29.19,171.4168-20.133
				c28.1027,4.341,59.4691,12.6829,80.9378,32.3738c19.8773,18.2316,29.0302,49.6232,9.6238,71.9458
				c-8.4712,9.8707-21.3753,11.8962-33.1788,7.4396c-14.5817-5.5056-13.5417-17.9157-16.4011-31.0172
				c-6.5361-29.9474-35.1037-38.2187-61.7276-42.9392C161.9522,63.0113,118.5943,67.7288,76.7076,76.7076z"/>
			<path d="M815.6966,103.6466c47.7118-11.8908,93.9985-30.8493,140.7242-45.2286
				c62.0145-19.0844,125.1176-35.9529,190.3995-25.8689c28.1027,4.341,59.4691,12.6829,80.9379,32.3738
				c19.8773,18.2316,29.0302,49.6232,9.6238,71.9458c-8.4712,9.8707-21.3752,11.8962-33.1787,7.4396
				c-14.5818-5.5056-13.5417-17.9157-16.4012-31.0172c-6.536-29.9474-35.1036-38.2187-61.7275-42.9392
				c-59.4807-10.5461-123.0013,3.797-180.3947,19.9077c-42.437,11.9123-86.0234,23.1943-129.9832,30.1564
				c-43.9597-6.9621-87.5461-18.244-129.9831-30.1564c-57.3934-16.1107-120.9139-30.4538-180.3947-19.9077
				c-26.624,4.7205-55.1915,12.9919-61.7276,42.9392c-2.8594,13.1015-1.8194,25.5117-16.4011,31.0172
				c-11.8035,4.4566-24.7076,2.4311-33.1788-7.4396c-19.4064-22.3226-10.2535-53.7142,9.6238-71.9458
				c21.4688-19.6909,52.8352-28.0328,80.9379-32.3738c65.2819-10.084,128.3849,6.7845,190.3995,25.8689
				C721.6981,72.7972,767.9849,91.7557,815.6966,103.6466z"/>
			<path d="M1527.7467,815.6966c11.8909,47.7118,30.8494,93.9985,45.2286,140.7242
				c19.0844,62.0145,35.9529,125.1176,25.8689,190.3995c-4.3411,28.1027-12.683,59.4691-32.3739,80.9379
				c-18.2316,19.8773-49.6232,29.0302-71.9457,9.6238c-9.8707-8.4712-11.8962-21.3752-7.4397-33.1787
				c5.5056-14.5818,17.9158-13.5417,31.0172-16.4012c29.9474-6.536,38.2188-35.1036,42.9393-61.7275
				c10.5461-59.4807-3.797-123.0013-19.9077-180.3947c-11.9124-42.437-23.1943-86.0234-30.1564-129.9832
				c6.962-43.9597,18.244-87.5461,30.1564-129.9831c16.1107-57.3934,30.4539-120.9139,19.9077-180.3947
				c-4.7206-26.624-12.9919-55.1915-42.9393-61.7276c-13.1014-2.8594-25.5116-1.8194-31.0172-16.4011
				c-4.4565-11.8035-2.431-24.7076,7.4397-33.1788c22.3225-19.4064,53.7141-10.2535,71.9457,9.6238
				c19.6909,21.4688,28.0328,52.8352,32.3739,80.9379c10.084,65.2819-6.7845,128.3849-25.8689,190.3995
				C1558.5961,721.6981,1539.6376,767.9849,1527.7467,815.6966z"/>
			<path d="M815.6966,1527.7467c-47.7117,11.8909-93.9985,30.8494-140.7242,45.2286
				c-62.0145,19.0844-125.1176,35.9529-190.3995,25.8689c-28.1027-4.3411-59.4691-12.683-80.9379-32.3739
				c-19.8773-18.2316-29.0302-49.6232-9.6238-71.9457c8.4712-9.8707,21.3753-11.8962,33.1788-7.4397
				c14.5817,5.5056,13.5417,17.9158,16.4011,31.0172c6.5361,29.9474,35.1036,38.2188,61.7276,42.9393
				c59.4807,10.5461,123.0013-3.797,180.3947-19.9077c42.437-11.9124,86.0234-23.1943,129.9831-30.1564
				c43.9597,6.962,87.5462,18.244,129.9832,30.1564c57.3934,16.1107,120.914,30.4539,180.3947,19.9077
				c26.6239-4.7206,55.1915-12.9919,61.7275-42.9393c2.8595-13.1014,1.8195-25.5116,16.4012-31.0172
				c11.8035-4.4565,24.7075-2.431,33.1787,7.4397c19.4064,22.3225,10.2535,53.7141-9.6238,71.9457
				c-21.4688,19.6909-52.8352,28.0328-80.9379,32.3739c-65.2819,10.084-128.3849-6.7845-190.3995-25.8689
				C909.6951,1558.5961,863.4084,1539.6376,815.6966,1527.7467z"/>
			<path d="M103.6466,815.6966c-11.8908-47.7117-30.8493-93.9985-45.2286-140.7242
				C39.3336,612.9579,22.465,549.8548,32.5491,484.5729c4.341-28.1027,12.6829-59.4691,32.3738-80.9379
				c18.2316-19.8773,49.6232-29.0302,71.9458-9.6238c9.8707,8.4712,11.8962,21.3753,7.4396,33.1788
				c-5.5056,14.5817-17.9157,13.5417-31.0172,16.4011c-29.9474,6.5361-38.2187,35.1036-42.9392,61.7276
				c-10.5461,59.4807,3.797,123.0013,19.9077,180.3947c11.9123,42.437,23.1943,86.0234,30.1564,129.9831
				c-6.9621,43.9597-18.244,87.5462-30.1564,129.9832c-16.1107,57.3934-30.4538,120.914-19.9077,180.3947
				c4.7205,26.6239,12.9919,55.1915,42.9392,61.7275c13.1015,2.8595,25.5117,1.8195,31.0172,16.4012
				c4.4566,11.8035,2.4311,24.7075-7.4396,33.1787c-22.3226,19.4064-53.7142,10.2535-71.9458-9.6238
				c-19.6909-21.4688-28.0328-52.8352-32.3738-80.9379c-10.084-65.2819,6.7845-128.3849,25.8689-190.3995
				C72.7972,909.6951,91.7557,863.4084,103.6466,815.6966z"/>
		</g>
	</g>
</g>
</svg>
