<?xml version="1.0" encoding="UTF-8" standalone="no"?>
<svg
   version="1.1"
   id="Layer_1"
   x="0px"
   y="0px"
   viewBox="0 0 1680.6832 1680.6832"
   enable-background="new 0 0 1680.6832 1680.6832"
   xml:space="preserve"
   xmlns="http://www.w3.org/2000/svg"
   xmlns:svg="http://www.w3.org/2000/svg"><defs
   id="defs73" />
<g
   id="g68">
	<g
   id="g66">
		<g
   id="g64">
			<path
   d="M1508.387,172.2962c1.6525,9.0727,3.0371,18.3819,3.8824,27.8148c0.0431,1.481,0.0649,3.0089,0.0649,4.5448     c0,14.6319-1.9197,29.392-4.0585,44.4859c-1.8324,12.9328-4.1674,26.0296-6.4255,38.6954     c-3.2504,18.2319-6.573,36.8688-8.49,55.5793c1.917,18.7105,5.2396,37.3475,8.49,55.5794     c2.2582,12.6658,4.5931,25.7626,6.4255,38.6954c2.1388,15.0939,4.0585,29.854,4.0585,44.4859     c0,1.5359-0.0219,3.0638-0.0649,4.5448c-1.6354,18.2484-5.2889,36.0339-8.9952,52.5399     c-7.3781,32.8587-16.8307,65.8629-25.9723,97.78l-0.8459,2.9539l-0.0273,0.099c-0.8772,3.2599-1.8792,6.6169-2.8484,9.8631     c-3.3462,11.2079-6.8062,22.7973-6.8062,35.1945c0,7.6362,1.0758,14.5168,3.197,20.4507     c0.7534,2.1075,1.6484,4.2114,2.7054,6.3554c-1.3832,1.5667-2.6959,3.2076-3.9265,4.909     c-8.382,11.5889-13.1895,26.1838-13.1902,40.0421c-0.0007,16.3406,6.6133,30.1082,18.4131,38.881     c-0.0815,0.0875-0.1635,0.1752-0.2455,0.2631c-11.907,12.7556-26.0018,27.855-37.1656,44.2878     c11.1638,16.4327,25.2587,31.5322,37.1656,44.2878c0.082,0.0878,0.1639,0.1755,0.2455,0.2631     c-11.7998,8.7728-18.4138,22.5404-18.4131,38.881c0.0007,13.8583,4.8082,28.4532,13.1902,40.0422     c1.2306,1.7014,2.5433,3.3423,3.9265,4.9089c-1.057,2.144-1.952,4.2479-2.7054,6.3554     c-2.1212,5.9339-3.197,12.8145-3.197,20.4507c0,12.3972,3.46,23.9866,6.8062,35.1945c0.9692,3.2462,1.9712,6.6031,2.8484,9.863     l0.0273,0.099l0.8459,2.9539c9.1416,31.9172,18.5942,64.9214,25.9723,97.78c3.7063,16.506,7.3599,34.2915,8.9952,52.5399     c0.0431,1.481,0.0649,3.0089,0.0649,4.5448c0,14.632-1.9197,29.3921-4.0585,44.486     c-1.8324,12.9329-4.1674,26.0297-6.4255,38.6954c-3.2504,18.2319-6.573,36.8689-8.49,55.5793     c1.917,18.7106,5.2396,37.3475,8.49,55.5793c2.2582,12.6659,4.5931,25.7626,6.4255,38.6954     c2.1388,15.0939,4.0585,29.8541,4.0585,44.486c0,1.5359-0.0219,3.0638-0.0649,4.5448c-0.8453,9.433-2.23,18.7422-3.8824,27.8148     c-9.0726,1.6525-18.3818,3.0371-27.8148,3.8824c-1.481,0.0431-3.0089,0.0649-4.5448,0.0649     c-14.6318,0-29.3921-1.9197-44.486-4.0585c-12.9329-1.8324-26.0295-4.1674-38.6954-6.4255     c-18.2318-3.2504-36.8688-6.573-55.5793-8.49c-18.7104,1.917-37.3474,5.2396-55.5793,8.49     c-12.6658,2.2582-25.7626,4.5931-38.6954,6.4255c-15.0939,2.1388-29.854,4.0585-44.486,4.0585     c-1.5359,0-3.0638-0.0219-4.5448-0.0649c-18.2484-1.6354-36.0339-5.2889-52.5399-8.9952     c-32.8586-7.3781-65.8628-16.8307-97.78-25.9723l-2.9539-0.8459l-0.099-0.0273c-3.2599-0.8772-6.6168-1.8792-9.863-2.8484     c-11.2079-3.3462-22.7973-6.8062-35.1945-6.8062c-7.6362,0-14.5168,1.0758-20.4507,3.197     c-2.1075,0.7534-4.2114,1.6484-6.3554,2.7054c-1.5666-1.3832-3.2075-2.6959-4.9089-3.9265     c-11.5889-8.382-26.1839-13.1895-40.0422-13.1902c-16.3406-0.0007-30.1082,6.6133-38.881,18.4131     c-0.0875-0.0815-0.1752-0.1635-0.2631-0.2455c-12.7557-11.907-27.8551-26.0018-44.2878-37.1656     c-16.4328,11.1638-31.5322,25.2587-44.2878,37.1656c-0.0879,0.082-0.1755,0.1639-0.2631,0.2455     c-8.7728-11.7998-22.5404-18.4138-38.881-18.4131c-13.8583,0.0007-28.4532,4.8082-40.0421,13.1902     c-1.7014,1.2306-3.3423,2.5433-4.909,3.9265c-2.144-1.057-4.2479-1.952-6.3554-2.7054     c-5.9338-2.1212-12.8145-3.197-20.4507-3.197c-12.3972,0-23.9865,3.46-35.1945,6.8062     c-3.2462,0.9692-6.6032,1.9712-9.8631,2.8484l-0.099,0.0273l-2.9539,0.8459c-31.9172,9.1416-64.9213,18.5942-97.78,25.9723     c-16.506,3.7063-34.2914,7.3599-52.5399,8.9952c-1.481,0.0431-3.0089,0.0649-4.5448,0.0649     c-14.6319,0-29.392-1.9197-44.4859-4.0585c-12.9329-1.8324-26.0296-4.1674-38.6954-6.4255     c-18.2319-3.2504-36.8688-6.573-55.5794-8.49c-18.7105,1.917-37.3474,5.2396-55.5793,8.49     c-12.6658,2.2582-25.7626,4.5931-38.6954,6.4255c-15.0939,2.1388-29.854,4.0585-44.4859,4.0585     c-1.5359,0-3.0638-0.0219-4.5448-0.0649c-9.4329-0.8453-18.7421-2.23-27.8148-3.8824     c-1.6524-9.0726-3.0371-18.3818-3.8824-27.8148c-0.043-1.481-0.0649-3.0089-0.0649-4.5448     c0-14.6318,1.9197-29.3921,4.0585-44.486c1.8324-12.9329,4.1674-26.0295,6.4255-38.6954     c3.2504-18.2318,6.573-36.8688,8.49-55.5793c-1.917-18.7104-5.2395-37.3474-8.49-55.5793     c-2.2582-12.6658-4.5931-25.7626-6.4255-38.6954c-2.1388-15.0939-4.0585-29.854-4.0585-44.486     c0-1.5359,0.0219-3.0638,0.0649-4.5448c1.6354-18.2484,5.289-36.0339,8.9953-52.5399     c7.3781-32.8586,16.8307-65.8628,25.9723-97.78l0.846-2.9539l0.0273-0.099c0.8772-3.2599,1.8791-6.6168,2.8484-9.863     c3.3462-11.2079,6.8061-22.7973,6.8061-35.1945c0-7.6362-1.0758-14.5168-3.197-20.4507     c-0.7533-2.1075-1.6484-4.2114-2.7054-6.3554c1.3832-1.5666,2.6959-3.2075,3.9265-4.9089     c8.382-11.5889,13.1895-26.1839,13.1901-40.0422c0.0008-16.3406-6.6133-30.1082-18.4131-38.881     c0.0816-0.0875,0.1635-0.1752,0.2455-0.2631c11.9069-12.7557,26.0018-27.8551,37.1657-44.2878     c-11.1638-16.4328-25.2587-31.5322-37.1657-44.2878c-0.082-0.0879-0.1639-0.1755-0.2455-0.2631     c11.7998-8.7728,18.4139-22.5404,18.4131-38.881c-0.0006-13.8583-4.8082-28.4532-13.1901-40.0421     c-1.2306-1.7014-2.5434-3.3423-3.9265-4.909c1.057-2.144,1.9521-4.2479,2.7054-6.3554c2.1212-5.9338,3.197-12.8145,3.197-20.4507     c0-12.3972-3.4599-23.9865-6.8061-35.1945c-0.9692-3.2462-1.9712-6.6032-2.8484-9.8631l-0.0273-0.099l-0.846-2.9539     c-9.1415-31.9172-18.5942-64.9213-25.9723-97.78c-3.7062-16.506-7.3598-34.2914-8.9953-52.5399     c-0.043-1.481-0.0649-3.0089-0.0649-4.5448c0-14.6319,1.9197-29.392,4.0585-44.4859     c1.8324-12.9329,4.1674-26.0296,6.4255-38.6954c3.2504-18.2319,6.573-36.8688,8.49-55.5794     c-1.917-18.7105-5.2395-37.3474-8.49-55.5793c-2.2582-12.6658-4.5931-25.7626-6.4255-38.6954     c-2.1388-15.0939-4.0585-29.854-4.0585-44.4859c0-1.5359,0.0219-3.0638,0.0649-4.5448c0.8454-9.4329,2.23-18.7421,3.8824-27.8148     c9.0727-1.6524,18.3819-3.0371,27.8148-3.8824c1.481-0.043,3.0089-0.0649,4.5448-0.0649c14.6319,0,29.392,1.9197,44.4859,4.0585     c12.9328,1.8324,26.0296,4.1674,38.6954,6.4255c18.2319,3.2504,36.8688,6.573,55.5793,8.49     c18.7105-1.917,37.3475-5.2395,55.5794-8.49c12.6658-2.2582,25.7626-4.5931,38.6954-6.4255     c15.0939-2.1388,29.854-4.0585,44.4859-4.0585c1.5359,0,3.0638,0.0219,4.5448,0.0649     c18.2484,1.6354,36.0339,5.289,52.5399,8.9953c32.8587,7.3781,65.8629,16.8307,97.78,25.9723l2.9539,0.846l0.099,0.0273     c3.2599,0.8772,6.6169,1.8791,9.8631,2.8484c11.2079,3.3462,22.7973,6.8061,35.1945,6.8061     c7.6362,0,14.5168-1.0758,20.4507-3.197c2.1075-0.7533,4.2114-1.6484,6.3554-2.7054c1.5667,1.3832,3.2076,2.6959,4.909,3.9265     c11.5889,8.382,26.1838,13.1895,40.0421,13.1901c16.3406,0.0008,30.1082-6.6133,38.881-18.4131     c0.0875,0.0816,0.1752,0.1635,0.2631,0.2455c12.7556,11.9069,27.855,26.0018,44.2878,37.1657     c16.4327-11.1638,31.5322-25.2587,44.2878-37.1657c0.0878-0.082,0.1755-0.1639,0.2631-0.2455     c8.7728,11.7998,22.5404,18.4139,38.881,18.4131c13.8583-0.0006,28.4532-4.8082,40.0422-13.1901     c1.7014-1.2306,3.3423-2.5434,4.9089-3.9265c2.144,1.057,4.2479,1.9521,6.3554,2.7054c5.9339,2.1212,12.8145,3.197,20.4507,3.197     c12.3972,0,23.9866-3.4599,35.1945-6.8061c3.2462-0.9692,6.6031-1.9712,9.863-2.8484l0.099-0.0273l2.9539-0.846     c31.9172-9.1415,64.9214-18.5942,97.78-25.9723c16.506-3.7062,34.2915-7.3598,52.5399-8.9953     c1.481-0.043,3.0089-0.0649,4.5448-0.0649c14.632,0,29.3921,1.9197,44.486,4.0585c12.9329,1.8324,26.0297,4.1674,38.6954,6.4255     c18.2319,3.2504,36.8689,6.573,55.5793,8.49c18.7106-1.917,37.3475-5.2395,55.5793-8.49     c12.6659-2.2582,25.7626-4.5931,38.6954-6.4255c15.0939-2.1388,29.8541-4.0585,44.486-4.0585     c1.5359,0,3.0638,0.0219,4.5448,0.0649C1490.0051,169.2591,1499.3143,170.6438,1508.387,172.2962z M1440.4301,840.3416     c10.8307-15.5497,24.2404-29.9145,35.6206-42.1053c0.9467-1.0141,1.8771-2.0105,2.788-2.9892     c-12.8258-7.9888-20.0907-21.7345-20.0907-38.3376c0-13.2021,4.587-27.1161,12.585-38.1743     c1.5951-2.2051,3.3352-4.3032,5.192-6.2614c-1.4475-2.711-2.6168-5.3276-3.5522-7.944     c-1.9977-5.5889-3.0106-12.1082-3.0106-19.3779c0-11.9308,3.392-23.2932,6.6726-34.2817     c0.9751-3.2671,1.9839-6.6454,2.8722-9.9474l0.8577-2.9959c9.1544-31.9633,18.6211-65.0151,26.0203-97.9669     c3.7368-16.6423,7.4209-34.586,9.0685-53.0518c0.0459-1.5437,0.0688-3.1353,0.0688-4.7329     c0-14.8401-1.9347-29.7216-4.0896-44.9317c-1.8402-12.9884-4.1804-26.1137-6.4435-38.8069     c-3.22-18.062-6.5112-36.5235-8.4229-55.0201c1.9116-18.4966,5.2029-36.9582,8.4229-55.0201     c2.2631-12.6932,4.6033-25.8185,6.4435-38.8069c2.1549-15.2101,4.0896-30.0916,4.0896-44.9317     c0-1.5977-0.0229-3.1893-0.0688-4.733c-0.9218-10.3306-2.4808-20.4977-4.33-30.365c-9.8673-1.8492-20.0344-3.4083-30.3651-4.33     c-1.5437-0.0459-3.1353-0.0688-4.7329-0.0688c-14.8401,0-29.7216,1.9347-44.9316,4.0897     c-12.9884,1.8402-26.1136,4.1804-38.8069,6.4434c-18.0619,3.2199-36.5234,6.5113-55.0201,8.4229     c-18.4966-1.9116-36.9581-5.2029-55.0201-8.4229c-12.6931-2.2631-25.8184-4.6033-38.8068-6.4434     c-15.2101-2.155-30.0917-4.0897-44.9318-4.0897c-1.5977,0-3.1892,0.0229-4.7329,0.0688     c-18.4658,1.6476-36.4095,5.3317-53.0519,9.0685c-32.9518,7.3992-66.0035,16.8658-97.9668,26.0203l-2.996,0.8577     c-3.302,0.8883-6.6803,1.897-9.9474,2.8721c-10.9886,3.2807-22.3509,6.6726-34.2818,6.6726     c-7.2697,0-13.7891-1.0129-19.3779-3.0106c-2.6163-0.9354-5.233-2.1048-7.944-3.5523c-1.9581,1.8568-4.0563,3.597-6.2614,5.192     c-11.0582,7.998-24.9721,12.585-38.1743,12.585c-16.603,0-30.3488-7.2649-38.3375-20.0908     c-0.9788,0.9109-1.9752,1.8413-2.9892,2.7881c-12.1909,11.3802-26.5557,24.7899-42.1053,35.6205     c-15.5497-10.8306-29.9145-24.2403-42.1053-35.6205c-1.0141-0.9468-2.0105-1.8772-2.9892-2.7881     c-7.9888,12.8259-21.7345,20.0908-38.3376,20.0908c-13.2021,0-27.1161-4.587-38.1743-12.585     c-2.2051-1.5951-4.3032-3.3352-6.2614-5.192c-2.711,1.4475-5.3276,2.6169-7.944,3.5523     c-5.5889,1.9977-12.1082,3.0106-19.3779,3.0106c-11.9308,0-23.2932-3.392-34.2817-6.6726     c-3.2671-0.9751-6.6454-1.9838-9.9474-2.8721l-2.9959-0.8577c-31.9633-9.1545-65.0151-18.6211-97.9669-26.0203     c-16.6423-3.7368-34.586-7.4209-53.0518-9.0685c-1.5437-0.0459-3.1353-0.0688-4.7329-0.0688     c-14.8401,0-29.7216,1.9347-44.9317,4.0897c-12.9884,1.8402-26.1137,4.1804-38.8069,6.4434     c-18.062,3.2199-36.5235,6.5113-55.0201,8.4229c-18.4966-1.9116-36.9582-5.2029-55.0201-8.4229     c-12.6932-2.2631-25.8185-4.6033-38.8069-6.4434c-15.2101-2.155-30.0916-4.0897-44.9317-4.0897     c-1.5977,0-3.1893,0.0229-4.733,0.0688c-10.3306,0.9217-20.4977,2.4809-30.365,4.33c-1.8492,9.8673-3.4083,20.0345-4.33,30.365     c-0.0459,1.5437-0.0688,3.1353-0.0688,4.733c0,14.84,1.9347,29.7216,4.0897,44.9317     c1.8402,12.9884,4.1804,26.1136,6.4434,38.8069c3.2199,18.0619,6.5113,36.5235,8.4229,55.0201     c-1.9116,18.4966-5.2029,36.9582-8.4229,55.0201c-2.2631,12.6932-4.6033,25.8185-6.4434,38.8069     c-2.155,15.2101-4.0897,30.0916-4.0897,44.9317c0,1.5977,0.0229,3.1892,0.0688,4.7329     c1.6476,18.4659,5.3317,36.4095,9.0685,53.0518c7.3992,32.9518,16.8658,66.0035,26.0203,97.9669l0.8577,2.9959     c0.8883,3.3021,1.897,6.6804,2.8721,9.9474c3.2807,10.9886,6.6726,22.3509,6.6726,34.2817     c0,7.2697-1.0129,13.7891-3.0106,19.3779c-0.9354,2.6163-2.1048,5.233-3.5523,7.944c1.8568,1.9581,3.597,4.0563,5.192,6.2614     c7.998,11.0582,12.585,24.9722,12.585,38.1743c0,16.6031-7.2649,30.3488-20.0908,38.3376     c0.9109,0.9787,1.8413,1.9751,2.7881,2.9892c11.3802,12.1909,24.7899,26.5556,35.6205,42.1053     c-10.8306,15.5497-24.2403,29.9145-35.6205,42.1053c-0.9468,1.014-1.8772,2.0104-2.7881,2.9892     c12.8259,7.9887,20.0908,21.7345,20.0908,38.3375c0,13.2021-4.587,27.1161-12.585,38.1743     c-1.5951,2.2051-3.3352,4.3033-5.192,6.2614c1.4475,2.7111,2.6169,5.3277,3.5523,7.944     c1.9977,5.5888,3.0106,12.1082,3.0106,19.3779c0,11.9309-3.392,23.2932-6.6726,34.2818     c-0.9751,3.2671-1.9838,6.6454-2.8721,9.9474l-0.8577,2.996c-9.1545,31.9633-18.6211,65.015-26.0203,97.9668     c-3.7368,16.6423-7.4209,34.5861-9.0685,53.0519c-0.0459,1.5437-0.0688,3.1353-0.0688,4.7329     c0,14.8401,1.9347,29.7217,4.0897,44.9318c1.8402,12.9884,4.1804,26.1136,6.4434,38.8068     c3.2199,18.062,6.5113,36.5236,8.4229,55.0201c-1.9116,18.4967-5.2029,36.9583-8.4229,55.0201     c-2.2631,12.6932-4.6033,25.8185-6.4434,38.8069c-2.155,15.2101-4.0897,30.0916-4.0897,44.9316     c0,1.5977,0.0229,3.1892,0.0688,4.7329c0.9217,10.3307,2.4809,20.4978,4.33,30.3651c9.8673,1.8491,20.0345,3.4082,30.365,4.33     c1.5437,0.0459,3.1353,0.0688,4.733,0.0688c14.84,0,29.7216-1.9347,44.9317-4.0896c12.9884-1.8402,26.1136-4.1804,38.8069-6.4435     c18.0619-3.22,36.5235-6.5112,55.0201-8.4229c18.4966,1.9116,36.9582,5.2029,55.0201,8.4229     c12.6932,2.2631,25.8185,4.6033,38.8069,6.4435c15.2101,2.1549,30.0916,4.0896,44.9317,4.0896     c1.5977,0,3.1892-0.0229,4.7329-0.0688c18.4659-1.6476,36.4095-5.3317,53.0518-9.0685     c32.9518-7.3992,66.0035-16.8658,97.9669-26.0203l2.9959-0.8577c3.3021-0.8883,6.6804-1.8971,9.9474-2.8722     c10.9886-3.2806,22.3509-6.6726,34.2817-6.6726c7.2697,0,13.7891,1.0129,19.3779,3.0106c2.6163,0.9354,5.233,2.1047,7.944,3.5522     c1.9581-1.8568,4.0563-3.5969,6.2614-5.192c11.0582-7.9979,24.9722-12.585,38.1743-12.585     c16.6031,0,30.3488,7.2649,38.3376,20.0907c0.9787-0.9109,1.9751-1.8413,2.9892-2.788     c12.1909-11.3802,26.5556-24.7899,42.1053-35.6206c15.5497,10.8307,29.9145,24.2404,42.1053,35.6206     c1.014,0.9467,2.0104,1.8771,2.9892,2.788c7.9887-12.8258,21.7345-20.0907,38.3375-20.0907     c13.2021,0,27.1161,4.587,38.1743,12.585c2.2051,1.5951,4.3033,3.3352,6.2614,5.192c2.7111-1.4475,5.3277-2.6168,7.944-3.5522     c5.5888-1.9977,12.1082-3.0106,19.3779-3.0106c11.9309,0,23.2932,3.392,34.2818,6.6726     c3.2671,0.9751,6.6454,1.9839,9.9474,2.8722l2.996,0.8577c31.9633,9.1544,65.015,18.6211,97.9668,26.0203     c16.6423,3.7368,34.5861,7.4209,53.0519,9.0685c1.5437,0.0459,3.1353,0.0688,4.7329,0.0688     c14.8401,0,29.7217-1.9347,44.9318-4.0896c12.9884-1.8402,26.1136-4.1804,38.8068-6.4435     c18.062-3.22,36.5236-6.5112,55.0201-8.4229c18.4967,1.9116,36.9583,5.2029,55.0201,8.4229     c12.6932,2.2631,25.8185,4.6033,38.8069,6.4435c15.2101,2.1549,30.0916,4.0896,44.9316,4.0896     c1.5977,0,3.1892-0.0229,4.7329-0.0688c10.3307-0.9218,20.4978-2.4808,30.3651-4.33c1.8491-9.8673,3.4082-20.0344,4.33-30.3651     c0.0459-1.5437,0.0688-3.1353,0.0688-4.7329c0-14.8401-1.9347-29.7216-4.0896-44.9316     c-1.8402-12.9884-4.1804-26.1136-6.4435-38.8069c-3.22-18.0619-6.5112-36.5234-8.4229-55.0201     c1.9116-18.4966,5.2029-36.9581,8.4229-55.0201c2.2631-12.6931,4.6033-25.8184,6.4435-38.8068     c2.1549-15.2101,4.0896-30.0917,4.0896-44.9318c0-1.5977-0.0229-3.1892-0.0688-4.7329     c-1.6476-18.4658-5.3317-36.4095-9.0685-53.0519c-7.3992-32.9518-16.8658-66.0035-26.0203-97.9668l-0.8577-2.996     c-0.8883-3.302-1.8971-6.6803-2.8722-9.9474c-3.2806-10.9886-6.6726-22.3509-6.6726-34.2818     c0-7.2697,1.0129-13.7891,3.0106-19.3779c0.9354-2.6163,2.1047-5.233,3.5522-7.944c-1.8568-1.9581-3.5969-4.0563-5.192-6.2614     c-7.9979-11.0582-12.585-24.9721-12.585-38.1743c0-16.603,7.2649-30.3488,20.0907-38.3375     c-0.9109-0.9788-1.8413-1.9752-2.788-2.9892C1464.6704,870.2561,1451.2607,855.8913,1440.4301,840.3416z"
   id="path2" />
			<path
   d="M1511.1233,169.5599c1.8491,9.8673,3.4082,20.0345,4.33,30.365c0.0459,1.5437,0.0688,3.1353,0.0688,4.733     c0,14.84-1.9347,29.7216-4.0896,44.9317c-1.8402,12.9884-4.1804,26.1136-6.4435,38.8069     c-3.22,18.0619-6.5112,36.5235-8.4229,55.0201c1.9116,18.4966,5.2029,36.9582,8.4229,55.0201     c2.2631,12.6932,4.6033,25.8185,6.4435,38.8069c2.1549,15.2101,4.0896,30.0916,4.0896,44.9317     c0,1.5977-0.0229,3.1892-0.0688,4.7329c-1.6476,18.4659-5.3317,36.4095-9.0685,53.0518     c-7.3992,32.9518-16.8658,66.0035-26.0203,97.9669l-0.8577,2.9959c-0.8883,3.3021-1.8971,6.6804-2.8722,9.9474     c-3.2806,10.9886-6.6726,22.3509-6.6726,34.2817c0,7.2697,1.0129,13.7891,3.0106,19.3779     c0.9354,2.6163,2.1047,5.233,3.5522,7.944c-1.8568,1.9581-3.5969,4.0563-5.192,6.2614     c-7.9979,11.0582-12.585,24.9722-12.585,38.1743c0,16.6031,7.2649,30.3488,20.0907,38.3376     c-0.9109,0.9787-1.8413,1.9751-2.788,2.9892c-11.3802,12.1909-24.7899,26.5556-35.6206,42.1053     c10.8307,15.5497,24.2404,29.9145,35.6206,42.1053c0.9467,1.014,1.8771,2.0104,2.788,2.9892     c-12.8258,7.9887-20.0907,21.7345-20.0907,38.3375c0,13.2021,4.587,27.1161,12.585,38.1743     c1.5951,2.2051,3.3352,4.3033,5.192,6.2614c-1.4475,2.7111-2.6168,5.3277-3.5522,7.944     c-1.9977,5.5888-3.0106,12.1082-3.0106,19.3779c0,11.9309,3.392,23.2932,6.6726,34.2818     c0.9751,3.2671,1.9839,6.6454,2.8722,9.9474l0.8577,2.996c9.1544,31.9633,18.6211,65.015,26.0203,97.9668     c3.7368,16.6423,7.4209,34.5861,9.0685,53.0519c0.0459,1.5437,0.0688,3.1353,0.0688,4.7329     c0,14.8401-1.9347,29.7217-4.0896,44.9318c-1.8402,12.9884-4.1804,26.1136-6.4435,38.8068     c-3.22,18.062-6.5112,36.5236-8.4229,55.0201c1.9116,18.4967,5.2029,36.9583,8.4229,55.0201     c2.2631,12.6932,4.6033,25.8185,6.4435,38.8069c2.1549,15.2101,4.0896,30.0916,4.0896,44.9316     c0,1.5977-0.0229,3.1892-0.0688,4.7329c-0.9218,10.3307-2.4808,20.4978-4.33,30.3651c-9.8673,1.8491-20.0344,3.4082-30.3651,4.33     c-1.5437,0.0459-3.1353,0.0688-4.7329,0.0688c-14.8401,0-29.7216-1.9347-44.9316-4.0896     c-12.9884-1.8402-26.1136-4.1804-38.8069-6.4435c-18.0619-3.22-36.5234-6.5112-55.0201-8.4229     c-18.4966,1.9116-36.9581,5.2029-55.0201,8.4229c-12.6931,2.2631-25.8184,4.6033-38.8068,6.4435     c-15.2101,2.1549-30.0917,4.0896-44.9318,4.0896c-1.5977,0-3.1892-0.0229-4.7329-0.0688     c-18.4658-1.6476-36.4095-5.3317-53.0519-9.0685c-32.9518-7.3992-66.0035-16.8658-97.9668-26.0203l-2.996-0.8577     c-3.302-0.8883-6.6803-1.8971-9.9474-2.8722c-10.9886-3.2806-22.3509-6.6726-34.2818-6.6726     c-7.2697,0-13.7891,1.0129-19.3779,3.0106c-2.6163,0.9354-5.233,2.1047-7.944,3.5522c-1.9581-1.8568-4.0563-3.5969-6.2614-5.192     c-11.0582-7.9979-24.9721-12.585-38.1743-12.585c-16.603,0-30.3488,7.2649-38.3375,20.0907     c-0.9788-0.9109-1.9752-1.8413-2.9892-2.788c-12.1909-11.3802-26.5557-24.7899-42.1053-35.6206     c-15.5497,10.8307-29.9145,24.2404-42.1053,35.6206c-1.0141,0.9467-2.0105,1.8771-2.9892,2.788     c-7.9888-12.8258-21.7345-20.0907-38.3376-20.0907c-13.2021,0-27.1161,4.587-38.1743,12.585     c-2.2051,1.5951-4.3032,3.3352-6.2614,5.192c-2.711-1.4475-5.3276-2.6168-7.944-3.5522     c-5.5889-1.9977-12.1082-3.0106-19.3779-3.0106c-11.9308,0-23.2932,3.392-34.2817,6.6726     c-3.2671,0.9751-6.6454,1.9839-9.9474,2.8722l-2.9959,0.8577c-31.9633,9.1544-65.0151,18.6211-97.9669,26.0203     c-16.6423,3.7368-34.586,7.4209-53.0518,9.0685c-1.5437,0.0459-3.1353,0.0688-4.7329,0.0688     c-14.8401,0-29.7216-1.9347-44.9317-4.0896c-12.9884-1.8402-26.1137-4.1804-38.8069-6.4435     c-18.062-3.22-36.5235-6.5112-55.0201-8.4229c-18.4966,1.9116-36.9582,5.2029-55.0201,8.4229     c-12.6932,2.2631-25.8185,4.6033-38.8069,6.4435c-15.2101,2.1549-30.0916,4.0896-44.9317,4.0896     c-1.5977,0-3.1893-0.0229-4.733-0.0688c-10.3306-0.9218-20.4977-2.4808-30.365-4.33c-1.8492-9.8673-3.4083-20.0344-4.33-30.3651     c-0.0459-1.5437-0.0688-3.1353-0.0688-4.7329c0-14.8401,1.9347-29.7216,4.0897-44.9316     c1.8402-12.9884,4.1804-26.1136,6.4434-38.8069c3.2199-18.0619,6.5113-36.5234,8.4229-55.0201     c-1.9116-18.4966-5.2029-36.9581-8.4229-55.0201c-2.2631-12.6931-4.6033-25.8184-6.4434-38.8068     c-2.155-15.2101-4.0897-30.0917-4.0897-44.9318c0-1.5977,0.0229-3.1892,0.0688-4.7329     c1.6476-18.4658,5.3317-36.4095,9.0685-53.0519c7.3992-32.9518,16.8658-66.0035,26.0203-97.9668l0.8577-2.996     c0.8883-3.302,1.897-6.6803,2.8721-9.9474c3.2807-10.9886,6.6726-22.3509,6.6726-34.2818c0-7.2697-1.0129-13.7891-3.0106-19.3779     c-0.9354-2.6163-2.1048-5.233-3.5523-7.944c1.8568-1.9581,3.597-4.0563,5.192-6.2614     c7.998-11.0582,12.585-24.9721,12.585-38.1743c0-16.603-7.2649-30.3488-20.0908-38.3375     c0.9109-0.9788,1.8413-1.9752,2.7881-2.9892c11.3802-12.1909,24.7899-26.5557,35.6205-42.1053     c-10.8306-15.5497-24.2403-29.9145-35.6205-42.1053c-0.9468-1.0141-1.8772-2.0105-2.7881-2.9892     c12.8259-7.9888,20.0908-21.7345,20.0908-38.3376c0-13.2021-4.587-27.1161-12.585-38.1743     c-1.5951-2.2051-3.3352-4.3032-5.192-6.2614c1.4475-2.711,2.6169-5.3276,3.5523-7.944     c1.9977-5.5889,3.0106-12.1082,3.0106-19.3779c0-11.9308-3.392-23.2932-6.6726-34.2817     c-0.9751-3.2671-1.9838-6.6454-2.8721-9.9474l-0.8577-2.9959c-9.1545-31.9633-18.6211-65.0151-26.0203-97.9669     c-3.7368-16.6423-7.4209-34.586-9.0685-53.0518c-0.0459-1.5437-0.0688-3.1353-0.0688-4.7329     c0-14.8401,1.9347-29.7216,4.0897-44.9317c1.8402-12.9884,4.1804-26.1137,6.4434-38.8069     c3.2199-18.062,6.5113-36.5235,8.4229-55.0201c-1.9116-18.4966-5.2029-36.9582-8.4229-55.0201     c-2.2631-12.6932-4.6033-25.8185-6.4434-38.8069c-2.155-15.2101-4.0897-30.0916-4.0897-44.9317     c0-1.5977,0.0229-3.1893,0.0688-4.733c0.9217-10.3306,2.4809-20.4977,4.33-30.365c9.8673-1.8492,20.0345-3.4083,30.365-4.33     c1.5437-0.0459,3.1353-0.0688,4.733-0.0688c14.84,0,29.7216,1.9347,44.9317,4.0897c12.9884,1.8402,26.1136,4.1804,38.8069,6.4434     c18.0619,3.2199,36.5235,6.5113,55.0201,8.4229c18.4966-1.9116,36.9582-5.2029,55.0201-8.4229     c12.6932-2.2631,25.8185-4.6033,38.8069-6.4434c15.2101-2.155,30.0916-4.0897,44.9317-4.0897     c1.5977,0,3.1892,0.0229,4.7329,0.0688c18.4659,1.6476,36.4095,5.3317,53.0518,9.0685     c32.9518,7.3992,66.0035,16.8658,97.9669,26.0203l2.9959,0.8577c3.3021,0.8883,6.6804,1.897,9.9474,2.8721     c10.9886,3.2807,22.3509,6.6726,34.2817,6.6726c7.2697,0,13.7891-1.0129,19.3779-3.0106c2.6163-0.9354,5.233-2.1048,7.944-3.5523     c1.9581,1.8568,4.0563,3.597,6.2614,5.192c11.0582,7.998,24.9722,12.585,38.1743,12.585     c16.6031,0,30.3488-7.2649,38.3376-20.0908c0.9787,0.9109,1.9751,1.8413,2.9892,2.7881     c12.1909,11.3802,26.5556,24.7899,42.1053,35.6205c15.5497-10.8306,29.9145-24.2403,42.1053-35.6205     c1.014-0.9468,2.0104-1.8772,2.9892-2.7881c7.9887,12.8259,21.7345,20.0908,38.3375,20.0908     c13.2021,0,27.1161-4.587,38.1743-12.585c2.2051-1.5951,4.3033-3.3352,6.2614-5.192c2.7111,1.4475,5.3277,2.6169,7.944,3.5523     c5.5888,1.9977,12.1082,3.0106,19.3779,3.0106c11.9309,0,23.2932-3.392,34.2818-6.6726     c3.2671-0.9751,6.6454-1.9838,9.9474-2.8721l2.996-0.8577c31.9633-9.1545,65.015-18.6211,97.9668-26.0203     c16.6423-3.7368,34.5861-7.4209,53.0519-9.0685c1.5437-0.0459,3.1353-0.0688,4.7329-0.0688     c14.8401,0,29.7217,1.9347,44.9318,4.0897c12.9884,1.8402,26.1136,4.1804,38.8068,6.4434     c18.062,3.2199,36.5236,6.5113,55.0201,8.4229c18.4967-1.9116,36.9583-5.2029,55.0201-8.4229     c12.6932-2.2631,25.8185-4.6033,38.8069-6.4434c15.2101-2.155,30.0916-4.0897,44.9316-4.0897     c1.5977,0,3.1892,0.0229,4.7329,0.0688C1491.0889,166.1517,1501.256,167.7108,1511.1233,169.5599z M1444.3726,840.3416     c12.4412-17.4545,27.9806-33.3597,39.5579-45.8955c-15.498-7.741-21.9961-22.2382-21.9954-37.5363     c0.0006-12.6849,4.4695-25.9213,11.9805-36.3061c1.9613-2.712,4.1534-5.2567,6.5548-7.5884     c-1.7595-3.0532-3.3088-6.2374-4.4961-9.5584c-2.0743-5.8022-2.825-12.1586-2.825-18.3046     c0-14.9818,5.6023-29.1522,9.4357-43.4013c9.6001-33.5252,19.2665-67.0532,26.9095-101.0923     c3.9716-17.6873,7.5355-35.4815,9.1418-53.56c0.0497-1.6389,0.0732-3.2781,0.0732-4.9215     c0-15.1443-2.0065-30.4543-4.1213-45.3805c-4.458-31.4619-11.6072-62.4464-14.8279-93.3801     c3.2207-30.9337,10.3699-61.9182,14.8279-93.3801c2.1149-14.9261,4.1213-30.2361,4.1213-45.3805     c0-1.6435-0.0236-3.2827-0.0732-4.9215c-0.9825-11.0585-2.6976-22.0107-4.7904-32.8972     c-10.8865-2.0928-21.8386-3.8079-32.8972-4.7905c-1.6389-0.0497-3.2781-0.0732-4.9215-0.0732     c-15.1444,0-30.4543,2.0065-45.3805,4.1214c-31.4619,4.4581-62.4464,11.6073-93.3801,14.8279     c-30.9337-3.2206-61.9181-10.3698-93.3801-14.8279c-14.9261-2.1149-30.2361-4.1214-45.3804-4.1214     c-1.6436,0-3.2827,0.0236-4.9216,0.0732c-18.0785,1.6064-35.8727,5.1704-53.5599,9.1418     c-34.0391,7.6431-67.5671,17.3095-101.0923,26.9096c-14.2491,3.8334-28.4196,9.4357-43.4014,9.4357     c-6.146,0-12.5024-0.7506-18.3046-2.825c-3.321-1.1872-6.5052-2.7366-9.5583-4.4961c-2.3318,2.4014-4.8765,4.5935-7.5885,6.5548     c-10.3848,7.511-23.6212,11.9799-36.306,11.9804c-15.2981,0.0007-29.7953-6.4973-37.5363-21.9953     c-12.5358,11.5772-28.441,27.1167-45.8955,39.5578c-17.4545-12.4412-33.3597-27.9806-45.8955-39.5578     c-7.741,15.498-22.2382,21.996-37.5363,21.9953c-12.6849-0.0006-25.9213-4.4694-36.3061-11.9804     c-2.712-1.9614-5.2567-4.1535-7.5884-6.5548c-3.0532,1.7595-6.2374,3.3089-9.5584,4.4961     c-5.8022,2.0743-12.1586,2.825-18.3046,2.825c-14.9818,0-29.1522-5.6022-43.4013-9.4357     c-33.5252-9.6001-67.0532-19.2665-101.0923-26.9096c-17.6873-3.9715-35.4815-7.5355-53.56-9.1418     c-1.6389-0.0497-3.2781-0.0732-4.9215-0.0732c-15.1443,0-30.4543,2.0065-45.3805,4.1214     c-31.4619,4.4581-62.4464,11.6073-93.3801,14.8279c-30.9337-3.2206-61.9182-10.3698-93.3801-14.8279     c-14.9261-2.1149-30.2361-4.1214-45.3805-4.1214c-1.6435,0-3.2827,0.0236-4.9215,0.0732     c-11.0585,0.9826-22.0107,2.6977-32.8972,4.7905c-2.0928,10.8864-3.8079,21.8386-4.7905,32.8972     c-0.0497,1.6389-0.0732,3.278-0.0732,4.9215c0,15.1443,2.0065,30.4543,4.1214,45.3805     c4.4581,31.4619,11.6073,62.4464,14.8279,93.3801c-3.2206,30.9337-10.3698,61.9182-14.8279,93.3801     c-2.1149,14.9261-4.1214,30.2361-4.1214,45.3805c0,1.6435,0.0236,3.2827,0.0732,4.9215     c1.6064,18.0785,5.1704,35.8727,9.1418,53.56c7.6431,34.0391,17.3095,67.5671,26.9096,101.0923     c3.8334,14.2491,9.4357,28.4195,9.4357,43.4013c0,6.146-0.7506,12.5024-2.825,18.3046c-1.1872,3.321-2.7366,6.5052-4.4961,9.5584     c2.4014,2.3317,4.5935,4.8765,6.5548,7.5884c7.511,10.3848,11.9799,23.6212,11.9804,36.3061     c0.0007,15.298-6.4973,29.7953-21.9953,37.5363c11.5772,12.5358,27.1167,28.441,39.5578,45.8955     c-12.4412,17.4545-27.9806,33.3597-39.5578,45.8955c15.498,7.7409,21.996,22.2382,21.9953,37.5363     c-0.0006,12.6849-4.4694,25.9213-11.9804,36.306c-1.9614,2.712-4.1535,5.2567-6.5548,7.5885     c1.7595,3.0532,3.3089,6.2374,4.4961,9.5583c2.0743,5.8022,2.825,12.1586,2.825,18.3046c0,14.9818-5.6022,29.1522-9.4357,43.4014     c-9.6001,33.5251-19.2665,67.0532-26.9096,101.0923c-3.9715,17.6873-7.5355,35.4814-9.1418,53.5599     c-0.0497,1.6389-0.0732,3.2781-0.0732,4.9216c0,15.1443,2.0065,30.4542,4.1214,45.3804     c4.4581,31.462,11.6073,62.4464,14.8279,93.3801c-3.2206,30.9337-10.3698,61.9182-14.8279,93.3801     c-2.1149,14.9261-4.1214,30.2361-4.1214,45.3805c0,1.6434,0.0236,3.2826,0.0732,4.9215     c0.9826,11.0586,2.6977,22.0107,4.7905,32.8972c10.8864,2.0928,21.8386,3.8079,32.8972,4.7904     c1.6389,0.0497,3.278,0.0732,4.9215,0.0732c15.1443,0,30.4543-2.0065,45.3805-4.1213     c31.4619-4.458,62.4464-11.6072,93.3801-14.8279c30.9337,3.2207,61.9182,10.3699,93.3801,14.8279     c14.9261,2.1149,30.2361,4.1213,45.3805,4.1213c1.6435,0,3.2827-0.0236,4.9215-0.0732     c18.0785-1.6063,35.8727-5.1703,53.56-9.1418c34.0391-7.6431,67.5671-17.3094,101.0923-26.9095     c14.2491-3.8334,28.4195-9.4357,43.4013-9.4357c6.146,0,12.5024,0.7506,18.3046,2.825c3.321,1.1873,6.5052,2.7366,9.5584,4.4961     c2.3317-2.4014,4.8765-4.5935,7.5884-6.5548c10.3848-7.511,23.6212-11.9799,36.3061-11.9805     c15.298-0.0007,29.7953,6.4973,37.5363,21.9954c12.5358-11.5773,28.441-27.1167,45.8955-39.5579     c17.4545,12.4412,33.3597,27.9806,45.8955,39.5579c7.7409-15.498,22.2382-21.9961,37.5363-21.9954     c12.6849,0.0006,25.9213,4.4695,36.306,11.9805c2.712,1.9613,5.2567,4.1534,7.5885,6.5548     c3.0532-1.7595,6.2374-3.3088,9.5583-4.4961c5.8022-2.0743,12.1586-2.825,18.3046-2.825c14.9818,0,29.1522,5.6023,43.4014,9.4357     c33.5251,9.6001,67.0532,19.2665,101.0923,26.9095c17.6873,3.9716,35.4814,7.5355,53.5599,9.1418     c1.6389,0.0497,3.2781,0.0732,4.9216,0.0732c15.1443,0,30.4542-2.0065,45.3804-4.1213     c31.462-4.458,62.4464-11.6072,93.3801-14.8279c30.9337,3.2207,61.9182,10.3699,93.3801,14.8279     c14.9261,2.1149,30.2361,4.1213,45.3805,4.1213c1.6434,0,3.2826-0.0236,4.9215-0.0732     c11.0586-0.9825,22.0107-2.6976,32.8972-4.7904c2.0928-10.8865,3.8079-21.8386,4.7904-32.8972     c0.0497-1.6389,0.0732-3.2781,0.0732-4.9215c0-15.1444-2.0065-30.4543-4.1213-45.3805     c-4.458-31.4619-11.6072-62.4464-14.8279-93.3801c3.2207-30.9337,10.3699-61.9181,14.8279-93.3801     c2.1149-14.9261,4.1213-30.2361,4.1213-45.3804c0-1.6436-0.0236-3.2827-0.0732-4.9216     c-1.6063-18.0785-5.1703-35.8727-9.1418-53.5599c-7.6431-34.0391-17.3094-67.5671-26.9095-101.0923     c-3.8334-14.2491-9.4357-28.4196-9.4357-43.4014c0-6.146,0.7506-12.5024,2.825-18.3046c1.1873-3.321,2.7366-6.5052,4.4961-9.5583     c-2.4014-2.3318-4.5935-4.8765-6.5548-7.5885c-7.511-10.3848-11.9799-23.6212-11.9805-36.306     c-0.0007-15.2981,6.4973-29.7953,21.9954-37.5363C1472.3531,873.7013,1456.8137,857.7961,1444.3726,840.3416z"
   id="path4" />
			<path
   d="M840.3416,1608.1077c5.858,4.833,12.0495,9.0985,18.2108,12.5903c20.7669,11.7695,42.5944,10.8669,65.5563,13.267     c-25.4849,4.9496-55.4407,8.2856-83.7671,5.1666c-28.3264,3.119-58.2823-0.217-83.7671-5.1666     c22.962-2.4,44.7894-1.4974,65.5563-13.267C828.2921,1617.2062,834.4835,1612.9407,840.3416,1608.1077z"
   id="path6" />
			<path
   d="M72.5756,840.3416c-4.833,5.858-9.0986,12.0495-12.5904,18.2108c-11.7695,20.7669-10.8668,42.5944-13.2669,65.5563     c-4.9496-25.4849-8.2856-55.4407-5.1667-83.7671c-3.119-28.3264,0.217-58.2823,5.1667-83.7671     c2.4001,22.962,1.4974,44.7894,13.2669,65.5563C63.477,828.2921,67.7426,834.4835,72.5756,840.3416z"
   id="path8" />
			<path
   d="M840.3416,72.5756c-5.8581-4.833-12.0496-9.0986-18.2108-12.5904c-20.7668-11.7695-42.5943-10.8668-65.5563-13.2669     c25.4848-4.9496,55.4407-8.2856,83.7671-5.1667c28.3264-3.119,58.2822,0.217,83.7671,5.1667     c-22.962,2.4001-44.7894,1.4974-65.5563,13.2669C852.3911,63.477,846.1996,67.7426,840.3416,72.5756z"
   id="path10" />
			<path
   d="M1608.1077,840.3416c4.833-5.8581,9.0985-12.0496,12.5903-18.2108c11.7695-20.7668,10.8669-42.5943,13.267-65.5563     c4.9496,25.4848,8.2856,55.4407,5.1666,83.7671c3.119,28.3264-0.217,58.2822-5.1666,83.7671     c-2.4-22.962-1.4974-44.7894-13.267-65.5563C1617.2062,852.3911,1612.9407,846.1996,1608.1077,840.3416z"
   id="path12" />
			<path
   d="M840.3416,1461.0444c3.2434,3.6115,6.0176,7.5607,8.1788,11.7585c-2.7,1.3683-5.449,2.8729-8.1788,4.5159     c-2.7298-1.6429-5.4789-3.1476-8.1788-4.5159C834.324,1468.6051,837.0981,1464.6559,840.3416,1461.0444z"
   id="path14" />
			<path
   d="M219.6388,840.3416c-3.6115,3.2434-7.5607,6.0176-11.7586,8.1788c-1.3683-2.7-2.8729-5.449-4.5159-8.1788     c1.6429-2.7298,3.1475-5.4789,4.5159-8.1788C212.0781,834.324,216.0273,837.0981,219.6388,840.3416z"
   id="path16" />
			<path
   d="M840.3416,219.6388c-3.2435-3.6115-6.0176-7.5607-8.1788-11.7586c2.7-1.3683,5.449-2.8729,8.1788-4.5159     c2.7298,1.6429,5.4788,3.1475,8.1788,4.5159C846.3592,212.0781,843.585,216.0273,840.3416,219.6388z"
   id="path18" />
			<path
   d="M1461.0444,840.3416c3.6115-3.2435,7.5607-6.0176,11.7585-8.1788c1.3683,2.7,2.8729,5.449,4.5159,8.1788     c-1.6429,2.7298-3.1476,5.4788-4.5159,8.1788C1468.6051,846.3592,1464.6559,843.585,1461.0444,840.3416z"
   id="path20" />
			<path
   d="M1541.5172,139.166c-2.4946,11.4649-4.6505,23.5179-8.9211,34.1945c-0.1414-8.2993-0.3196-16.5041-0.6429-24.6304     c-8.1262-0.3234-16.3311-0.5016-24.6304-0.643C1517.9993,143.8165,1530.0524,141.6606,1541.5172,139.166z"
   id="path22" />
			<path
   d="M1541.5172,1541.5172c-11.4648-2.4946-23.5179-4.6505-34.1945-8.9211c8.2993-0.1414,16.5042-0.3196,24.6304-0.6429     c0.3234-8.1262,0.5016-16.3311,0.6429-24.6304C1536.8667,1517.9993,1539.0226,1530.0524,1541.5172,1541.5172z"
   id="path24" />
			<path
   d="M139.166,1541.5172c2.4947-11.4648,4.6505-23.5179,8.9211-34.1945c0.1413,8.2993,0.3195,16.5042,0.643,24.6304     c8.1263,0.3234,16.3311,0.5016,24.6304,0.6429C162.6839,1536.8667,150.6309,1539.0226,139.166,1541.5172z"
   id="path26" />
			<path
   d="M139.166,139.166c11.4649,2.4947,23.5179,4.6505,34.1945,8.9211c-8.2993,0.1413-16.5041,0.3195-24.6304,0.643     c-0.3234,8.1263-0.5016,16.3311-0.643,24.6304C143.8165,162.6839,141.6606,150.6309,139.166,139.166z"
   id="path28" />
			<path
   d="M1548.1218,756.3928c13.1415-21.9877,14.5995-50.5963,15.2712-75.5463c0.7728-28.7047-4.1866-55.9714-10.3508-83.8918     c-3.1475-14.2568-6.5452-28.4569-10.0037-42.641c-3.2534-13.3428-5.3364-28.0757-10.4425-40.841     c-0.7183,42.174-2.3884,81.91-19.2269,121.285c-7.2039,16.8453-19.6434,34.4944-18.7166,53.5991     c0.4719,9.7274,5.9769,17.9603,13.8579,23.4515c7.3162,5.0978,14.7732,4.5059,23.2329,4.8004     c-2.5276,3.8671-4.8604,7.8563-7.3635,11.7388c-6.1812-4.4809-9.7631-7.6787-18.0234-7.2094     c-6.5432,0.3719-13.5415,2.6873-17.089,8.6199c-6.0518,10.0225-8.054,28.6312-0.9165,38.6269     C1504.6569,791.9941,1536.6981,775.5063,1548.1218,756.3928z"
   id="path30" />
			<path
   d="M756.3928,132.5613c-21.9877-13.1415-50.5963-14.5995-75.5463-15.2712c-28.7047-0.7728-55.9714,4.1867-83.8918,10.3508     c-14.2568,3.1474-28.4569,6.5451-42.641,10.0036c-13.3428,3.2535-28.0757,5.3365-40.841,10.4425     c42.174,0.7183,81.91,2.3884,121.285,19.227c16.8453,7.2038,34.4944,19.6435,53.5991,18.7166     c9.7274-0.4719,17.9603-5.9769,23.4515-13.8579c5.0978-7.3162,4.5059-14.7732,4.8004-23.233     c3.8671,2.5275,7.8563,4.8604,11.7388,7.3636c-4.4809,6.1811-7.6787,9.7631-7.2094,18.0234     c0.3719,6.5432,2.6873,13.5414,8.6199,17.089c10.0225,6.0517,28.6312,8.054,38.6269,0.9165     C791.9941,176.0264,775.5063,143.9851,756.3928,132.5613z"
   id="path32" />
			<path
   d="M132.5613,924.2904c-13.1415,21.9877-14.5995,50.5963-15.2712,75.5463c-0.7728,28.7047,4.1867,55.9714,10.3508,83.8918     c3.1474,14.2567,6.5451,28.4569,10.0036,42.641c3.2535,13.3428,5.3365,28.0757,10.4425,40.8409     c0.7183-42.174,2.3884-81.9099,19.227-121.2849c7.2038-16.8453,19.6435-34.4944,18.7166-53.5992     c-0.4719-9.7274-5.9769-17.9602-13.8579-23.4515c-7.3162-5.0979-14.7732-4.5059-23.233-4.8005     c2.5275-3.867,4.8604-7.8563,7.3636-11.7388c6.1811,4.4808,9.7631,7.6787,18.0234,7.2094     c6.5432-0.3719,13.5414-2.6873,17.089-8.6199c6.0517-10.0224,8.054-28.6312,0.9165-38.6268     C176.0264,888.689,143.9851,905.1769,132.5613,924.2904z"
   id="path34" />
			<path
   d="M924.2904,1548.1218c21.9877,13.1415,50.5963,14.5995,75.5463,15.2712c28.7047,0.7728,55.9714-4.1866,83.8918-10.3508     c14.2567-3.1475,28.4569-6.5452,42.641-10.0037c13.3428-3.2534,28.0757-5.3364,40.8409-10.4425     c-42.174-0.7183-81.9099-2.3884-121.2849-19.2269c-16.8453-7.2039-34.4944-19.6434-53.5992-18.7166     c-9.7274,0.4719-17.9602,5.9769-23.4515,13.8579c-5.0979,7.3162-4.5059,14.7732-4.8005,23.2329     c-3.867-2.5276-7.8563-4.8604-11.7388-7.3635c4.4808-6.1812,7.6787-9.7631,7.2094-18.0234     c-0.3719-6.5432-2.6873-13.5415-8.6199-17.089c-10.0224-6.0518-28.6312-8.054-38.6268-0.9165     C888.689,1504.6569,905.1769,1536.6981,924.2904,1548.1218z"
   id="path36" />
			<path
   d="M1548.1218,924.2904c13.1415,21.9877,14.5995,50.5963,15.2712,75.5463c0.7728,28.7047-4.1866,55.9714-10.3508,83.8918     c-3.1475,14.2567-6.5452,28.4569-10.0037,42.641c-3.2534,13.3428-5.3364,28.0757-10.4425,40.8409     c-0.7183-42.174-2.3884-81.9099-19.2269-121.2849c-7.2039-16.8453-19.6434-34.4944-18.7166-53.5992     c0.4719-9.7274,5.9769-17.9602,13.8579-23.4515c7.3162-5.0979,14.7732-4.5059,23.2329-4.8005     c-2.5276-3.867-4.8604-7.8563-7.3635-11.7388c-6.1812,4.4808-9.7631,7.6787-18.0234,7.2094     c-6.5432-0.3719-13.5415-2.6873-17.089-8.6199c-6.0518-10.0224-8.054-28.6312-0.9165-38.6268     C1504.6569,888.689,1536.6981,905.1769,1548.1218,924.2904z"
   id="path38" />
			<path
   d="M924.2904,132.5613c21.9877-13.1415,50.5963-14.5995,75.5463-15.2712c28.7047-0.7728,55.9714,4.1867,83.8918,10.3508     c14.2567,3.1474,28.4569,6.5451,42.641,10.0036c13.3428,3.2535,28.0757,5.3365,40.8409,10.4425     c-42.174,0.7183-81.9099,2.3884-121.2849,19.227c-16.8453,7.2038-34.4944,19.6435-53.5992,18.7166     c-9.7274-0.4719-17.9602-5.9769-23.4515-13.8579c-5.0979-7.3162-4.5059-14.7732-4.8005-23.233     c-3.867,2.5275-7.8563,4.8604-11.7388,7.3636c4.4808,6.1811,7.6787,9.7631,7.2094,18.0234     c-0.3719,6.5432-2.6873,13.5414-8.6199,17.089c-10.0224,6.0517-28.6312,8.054-38.6268,0.9165     C888.689,176.0264,905.1769,143.9851,924.2904,132.5613z"
   id="path40" />
			<path
   d="M132.5613,756.3928c-13.1415-21.9877-14.5995-50.5963-15.2712-75.5463c-0.7728-28.7047,4.1867-55.9714,10.3508-83.8918     c3.1474-14.2568,6.5451-28.4569,10.0036-42.641c3.2535-13.3428,5.3365-28.0757,10.4425-40.841     c0.7183,42.174,2.3884,81.91,19.227,121.285c7.2038,16.8453,19.6435,34.4944,18.7166,53.5991     c-0.4719,9.7274-5.9769,17.9603-13.8579,23.4515c-7.3162,5.0978-14.7732,4.5059-23.233,4.8004     c2.5275,3.8671,4.8604,7.8563,7.3636,11.7388c6.1811-4.4809,9.7631-7.6787,18.0234-7.2094     c6.5432,0.3719,13.5414,2.6873,17.089,8.6199c6.0517,10.0225,8.054,28.6312,0.9165,38.6269     C176.0264,791.9941,143.9851,775.5063,132.5613,756.3928z"
   id="path42" />
			<path
   d="M756.3928,1548.1218c-21.9877,13.1415-50.5963,14.5995-75.5463,15.2712c-28.7047,0.7728-55.9714-4.1866-83.8918-10.3508     c-14.2568-3.1475-28.4569-6.5452-42.641-10.0037c-13.3428-3.2534-28.0757-5.3364-40.841-10.4425     c42.174-0.7183,81.91-2.3884,121.285-19.2269c16.8453-7.2039,34.4944-19.6434,53.5991-18.7166     c9.7274,0.4719,17.9603,5.9769,23.4515,13.8579c5.0978,7.3162,4.5059,14.7732,4.8004,23.2329     c3.8671-2.5276,7.8563-4.8604,11.7388-7.3635c-4.4809-6.1812-7.6787-9.7631-7.2094-18.0234     c0.3719-6.5432,2.6873-13.5415,8.6199-17.089c10.0225-6.0518,28.6312-8.054,38.6269-0.9165     C791.9941,1504.6569,775.5063,1536.6981,756.3928,1548.1218z"
   id="path44" />
			<path
   d="M1488.351,768.3849C1484.9879,763.6752,1492.7101,774.6966,1488.351,768.3849L1488.351,768.3849z"
   id="path46" />
			<path
   d="M768.3849,192.3322C763.6752,195.6953,774.6966,187.9731,768.3849,192.3322L768.3849,192.3322z"
   id="path48" />
			<path
   d="M192.3322,912.2983C195.6953,917.008,187.9731,905.9866,192.3322,912.2983L192.3322,912.2983z"
   id="path50" />
			<path
   d="M912.2983,1488.351C917.008,1484.9879,905.9866,1492.7101,912.2983,1488.351L912.2983,1488.351z"
   id="path52" />
			<path
   d="M1488.351,912.2983C1484.9879,917.008,1492.7101,905.9866,1488.351,912.2983L1488.351,912.2983z"
   id="path54" />
			<path
   d="M912.2983,192.3322C917.008,195.6953,905.9866,187.9731,912.2983,192.3322L912.2983,192.3322z"
   id="path56" />
			<path
   d="M192.3322,768.3849C195.6953,763.6752,187.9731,774.6966,192.3322,768.3849L192.3322,768.3849z"
   id="path58" />
			<path
   d="M768.3849,1488.351C763.6752,1484.9879,774.6966,1492.7101,768.3849,1488.351L768.3849,1488.351z"
   id="path60" />
			<path
   d="M1616.373,64.3101c-5.9773,29.3684-14.423,58.4342-23.3022,87.287c-19.5112,63.4024-46.6425,126.0743-57.627,191.8194     c10.9845,65.7452,38.1157,128.4171,57.627,191.8195c21.1167,68.6185,39.7816,138.4415,28.6238,210.6754     c-4.8033,31.0953-14.0336,65.802-35.8214,89.557c-1.5576,1.6982-3.2019,3.3256-4.9218,4.8732     c1.7198,1.5476,3.3641,3.175,4.9218,4.8732c21.7878,23.755,31.0181,58.4617,35.8214,89.5571     c11.1578,72.2338-7.5071,142.0568-28.6238,210.6753c-19.5112,63.4025-46.6425,126.0743-57.627,191.8195     c10.9845,65.7452,38.1157,128.4171,57.627,191.8195c8.8793,28.8528,17.325,57.9186,23.3022,87.287     c-29.3684-5.9773-58.4342-14.423-87.287-23.3022c-63.4023-19.5112-126.0742-46.6425-191.8195-57.627     c-65.7451,10.9845-128.417,38.1157-191.8195,57.627c-68.6185,21.1167-138.4415,39.7816-210.6753,28.6238     c-31.0954-4.8033-65.8021-14.0336-89.5571-35.8214c-1.6981-1.5576-3.3256-3.2019-4.8732-4.9218     c-1.5476,1.7198-3.175,3.3641-4.8732,4.9218c-23.755,21.7878-58.4617,31.0181-89.557,35.8214     c-72.2338,11.1578-142.0568-7.5071-210.6754-28.6238c-63.4024-19.5112-126.0743-46.6425-191.8195-57.627     c-65.7451,10.9845-128.4171,38.1157-191.8194,57.627c-28.8528,8.8793-57.9186,17.325-87.287,23.3022     c5.9774-29.3684,14.423-58.4342,23.3022-87.287c19.5113-63.4023,46.6425-126.0742,57.627-191.8195     c-10.9845-65.7451-38.1157-128.417-57.627-191.8195c-21.1167-68.6185-39.7816-138.4415-28.6237-210.6753     c4.8033-31.0954,14.0335-65.8021,35.8214-89.5571c1.5576-1.6981,3.202-3.3256,4.9218-4.8732     c-1.7199-1.5476-3.3643-3.175-4.9218-4.8732c-21.7878-23.755-31.018-58.4617-35.8214-89.557     c-11.1579-72.2338,7.507-142.0568,28.6237-210.6754c19.5113-63.4024,46.6425-126.0743,57.627-191.8195     c-10.9845-65.7451-38.1157-128.4171-57.627-191.8194c-8.8792-28.8528-17.3249-57.9186-23.3022-87.287     c29.3684,5.9774,58.4342,14.423,87.287,23.3022c63.4024,19.5113,126.0743,46.6425,191.8194,57.627     c65.7452-10.9845,128.4171-38.1157,191.8195-57.627c68.6185-21.1167,138.4415-39.7816,210.6754-28.6237     c31.0953,4.8033,65.802,14.0335,89.557,35.8214c1.6982,1.5576,3.3256,3.202,4.8732,4.9218     c1.5476-1.7199,3.175-3.3643,4.8732-4.9218c23.755-21.7878,58.4617-31.018,89.5571-35.8214     c72.2338-11.1579,142.0568,7.507,210.6753,28.6237c63.4025,19.5113,126.0743,46.6425,191.8195,57.627     c65.7452-10.9845,128.4171-38.1157,191.8195-57.627C1557.9388,78.7332,1587.0046,70.2875,1616.373,64.3101z M1501.0096,840.3416     c-6.2554-8.9315-6.9784-20.3353-2.9757-30.9366c6.0919-16.1345,19.8236-14.9838,34.3203-18.1477     c33.1365-7.2322,42.2887-38.8419,47.5118-68.3011c11.6692-65.8149-4.2013-136.0999-22.0276-199.6051     c-16.437-58.5555-31.7892-119.089-38.1401-179.9346c6.351-60.8456,21.7031-121.379,38.1401-179.9345     c4.9796-17.7396,9.8066-36.0082,13.9233-54.5607c-18.5525,4.1167-36.821,8.9437-54.5607,13.9234     c-58.5555,16.4369-119.089,31.7891-179.9346,38.1401c-60.8456-6.3509-121.379-21.7031-179.9346-38.1401     c-63.5052-17.8264-133.7902-33.6969-199.6051-22.0277c-29.4592,5.2232-61.0689,14.3754-68.301,47.5119     c-3.1639,14.4967-2.0132,28.2284-18.1477,34.3203c-10.6014,4.0027-22.0051,3.2797-30.9366-2.9756     c-8.9315,6.2554-20.3353,6.9784-30.9366,2.9756c-16.1345-6.0918-14.9838-19.8236-18.1477-34.3203     c-7.2322-33.1365-38.8419-42.2887-68.3011-47.5119c-65.8149-11.6692-136.0999,4.2013-199.6051,22.0277     c-58.5555,16.4369-119.089,31.7891-179.9346,38.1401c-60.8456-6.3509-121.379-21.7031-179.9345-38.1401     c-17.7396-4.9796-36.0082-9.8066-54.5607-13.9234c4.1167,18.5524,8.9437,36.8211,13.9234,54.5607     c16.4369,58.5555,31.7891,119.0889,38.1401,179.9345c-6.3509,60.8456-21.7031,121.379-38.1401,179.9346     c-17.8264,63.5052-33.6969,133.7902-22.0277,199.6051c5.2232,29.4592,14.3754,61.0689,47.5119,68.3011     c14.4967,3.1639,28.2284,2.0132,34.3203,18.1477c4.0027,10.6013,3.2797,22.0051-2.9756,30.9366     c6.2554,8.9315,6.9784,20.3352,2.9756,30.9366c-6.0918,16.1345-19.8236,14.9838-34.3203,18.1477     c-33.1365,7.2321-42.2887,38.8419-47.5119,68.301c-11.6692,65.8149,4.2013,136.0999,22.0277,199.6051     c16.4369,58.5555,31.7891,119.089,38.1401,179.9346c-6.3509,60.8456-21.7031,121.379-38.1401,179.9346     c-4.9796,17.7396-9.8066,36.0082-13.9234,54.5607c18.5524-4.1167,36.8211-8.9437,54.5607-13.9233     c58.5555-16.437,119.0889-31.7892,179.9345-38.1401c60.8456,6.351,121.379,21.7031,179.9346,38.1401     c63.5052,17.8263,133.7902,33.6968,199.6051,22.0276c29.4592-5.2231,61.0689-14.3754,68.3011-47.5118     c3.1639-14.4967,2.0132-28.2284,18.1477-34.3203c10.6013-4.0027,22.0051-3.2797,30.9366,2.9757     c8.9315-6.2554,20.3352-6.9784,30.9366-2.9757c16.1345,6.0919,14.9838,19.8236,18.1477,34.3203     c7.2321,33.1365,38.8419,42.2887,68.301,47.5118c65.8149,11.6692,136.0999-4.2013,199.6051-22.0276     c58.5555-16.437,119.089-31.7892,179.9346-38.1401c60.8456,6.351,121.379,21.7031,179.9346,38.1401     c17.7396,4.9796,36.0082,9.8066,54.5607,13.9233c-4.1167-18.5525-8.9437-36.821-13.9233-54.5607     c-16.437-58.5555-31.7892-119.089-38.1401-179.9346c6.351-60.8456,21.7031-121.379,38.1401-179.9346     c17.8263-63.5052,33.6968-133.7902,22.0276-199.6051c-5.2231-29.4592-14.3754-61.0689-47.5118-68.301     c-14.4967-3.1639-28.2284-2.0132-34.3203-18.1477C1494.0313,860.6768,1494.7543,849.2731,1501.0096,840.3416z"
   id="path62" />
		</g>
	</g>
</g>
</svg>
