<?xml version="1.0" encoding="UTF-8" standalone="no"?>
<svg
   version="1.1"
   id="Layer_1"
   x="0px"
   y="0px"
   viewBox="0 0 1660.856 1660.856"
   enable-background="new 0 0 1660.856 1660.856"
   xml:space="preserve"
   xmlns="http://www.w3.org/2000/svg"
   xmlns:svg="http://www.w3.org/2000/svg"><defs
   id="defs9" />
<g
   id="g4">
	<path
   d="M830.428,105.05c87.846,0.045,176.461,0.095,265.702,0.151c-33.874,21.434-3.207,73.705,8.571,63.138   c1.004-4.252-14.788-30.491,24.832-51.216c28.415-14.698,55.62,4.352,77.235,27.901c47.523,54.755,126.926,21.693,129.097,21.469   c1.058,1.129,1.834,2.493,2.693,3.833c-10.093,3.626-24.855,14.142-61.21,13.439c-43.323,1.158-74.743-33.798-83.995-41.774   c-64.095-53.76-89.059,2.951-81.385,28.418c4.232,15.42,26.038,38.354,35.202,26.654c3.304-5.397,0.07-12.628-4.962-15.743   c-4.821-3.457-11.158-1.493-16.401-3.468c-15.422-13.221-5.74-49.324,26.548-35.99c-7.337,24.997,11.038,34.427,31.745,21.069   c0.367,20.969,13.26,32.272,39.858,18.718c0.721,15.932,13.588,24.828,35.214,10.429c0.505,3.151,0.576,6.784,3.08,9.147   c3.903,3.998,9.994,5.15,15.356,4.139c4.609-0.823,8.007-4.35,11.346-7.384c2.798,6.396,10.523,7.725,16.649,5.914   c23.531-6.648,36.875-21.528,39.047-23.28c1.587-0.294,2.481,1.822,3.703,2.704c53.432,65.332,112.591,24.384,117.01-11.311   c2.429-21.198-12.98-44.312-32.744-44.831c-24.793-1.707-44.391,22.16-33.003,40.07c5.784,10.17,19.717,14.638,30.205,9.124   c10.479-3.79,18.331-27.292-10.605-30.875c7.554-11.489,30.705-4.623,32.78,17.648c2.35,30.801-59.873,65.549-87.946-18.965   c-3.047-10.139,5.574-6.391,15.485-22.774c40.321-63.388-44.955-128.474-53.144-65.031c-192.084-0.494-122.898,1.548-147.415-4.503   c-3.339,4.762-6.42,9.829-7.066,15.743c-3.953-3.101-16.026-28.006-37.777-22.657c-1.423,4.021-2.198,8.642-5.22,11.781   c-0.502,0.116-113.886,0.207-298.482,0.273c-184.596-0.066-297.98-0.157-298.482-0.273c-3.022-3.139-3.798-7.76-5.22-11.781   c-21.751-5.35-33.824,19.556-37.777,22.657c-0.646-5.914-3.727-10.981-7.066-15.743c-24.517,6.051,44.67,4.009-147.415,4.503   c-8.189-63.443-93.465,1.642-53.144,65.031c9.911,16.384,18.532,12.635,15.485,22.774c-28.073,84.513-90.296,49.766-87.946,18.965   c2.074-22.271,25.226-29.137,32.78-17.648c-28.936,3.583-21.084,27.085-10.605,30.875c10.488,5.514,24.42,1.046,30.205-9.124   c11.388-17.91-8.211-41.777-33.003-40.07c-19.764,0.519-35.173,23.633-32.744,44.831c4.419,35.695,63.578,76.643,117.01,11.311   c1.223-0.882,2.116-2.998,3.703-2.704c2.172,1.752,15.515,16.632,39.046,23.28c6.126,1.811,13.85,0.482,16.649-5.914   c3.339,3.033,6.738,6.561,11.346,7.384c5.362,1.011,11.452-0.141,15.356-4.139c2.504-2.363,2.575-5.996,3.08-9.147   c21.626,14.399,34.493,5.504,35.214-10.429c26.598,13.554,39.491,2.251,39.858-18.718c20.708,13.357,39.082,3.927,31.745-21.069   c32.287-13.334,41.97,22.768,26.548,35.99c-5.244,1.975-11.581,0.012-16.401,3.468c-5.032,3.116-8.265,10.347-4.962,15.743   c9.164,11.7,30.97-11.234,35.202-26.654c7.674-25.466-17.291-82.178-81.385-28.418c-9.253,7.976-40.672,42.933-83.996,41.774   c-36.355,0.703-51.116-9.813-61.21-13.439c0.858-1.34,1.635-2.704,2.693-3.833c2.172,0.224,81.574,33.286,129.097-21.469   c21.615-23.549,48.82-42.598,77.235-27.901c39.62,20.725,23.828,46.964,24.832,51.216c11.778,10.567,42.445-41.704,8.571-63.138   C653.967,105.146,742.582,105.096,830.428,105.05z M1555.806,830.428c-0.045,87.846-0.095,176.461-0.151,265.702   c-21.434-33.874-73.705-3.207-63.138,8.571c4.252,1.004,30.491-14.788,51.216,24.832c14.697,28.415-4.352,55.62-27.901,77.235   c-54.755,47.523-21.693,126.926-21.469,129.097c-1.129,1.058-2.493,1.834-3.833,2.693c-3.626-10.093-14.142-24.855-13.439-61.21   c-1.158-43.323,33.798-74.743,41.774-83.995c53.76-64.095-2.951-89.059-28.418-81.385c-15.42,4.232-38.354,26.038-26.654,35.202   c5.397,3.304,12.628,0.07,15.743-4.962c3.457-4.821,1.493-11.158,3.469-16.401c13.221-15.422,49.324-5.74,35.99,26.548   c-24.997-7.337-34.427,11.038-21.069,31.745c-20.969,0.367-32.272,13.26-18.718,39.858c-15.932,0.721-24.828,13.588-10.429,35.214   c-3.151,0.505-6.784,0.576-9.147,3.08c-3.998,3.903-5.15,9.994-4.139,15.356c0.823,4.609,4.35,8.007,7.384,11.346   c-6.396,2.798-7.725,10.523-5.914,16.649c6.648,23.531,21.528,36.875,23.28,39.047c0.294,1.587-1.822,2.481-2.704,3.703   c-65.332,53.432-24.384,112.591,11.311,117.01c21.198,2.429,44.312-12.98,44.831-32.744c1.707-24.793-22.16-44.391-40.07-33.003   c-10.17,5.784-14.638,19.717-9.124,30.205c3.79,10.479,27.292,18.331,30.875-10.605c11.489,7.554,4.623,30.705-17.648,32.78   c-30.801,2.35-65.549-59.873,18.965-87.946c10.139-3.047,6.391,5.574,22.774,15.485c63.388,40.321,128.474-44.955,65.031-53.144   c0.494-192.084-1.548-122.898,4.503-147.415c-4.762-3.339-9.829-6.42-15.743-7.066c3.101-3.953,28.006-16.026,22.657-37.777   c-4.021-1.423-8.642-2.198-11.781-5.22c-0.116-0.502-0.207-113.886-0.273-298.482c0.066-184.596,0.157-297.98,0.273-298.482   c3.139-3.022,7.76-3.798,11.781-5.22c5.35-21.751-19.556-33.824-22.657-37.777c5.914-0.646,10.981-3.727,15.743-7.066   c-6.051-24.517-4.009,44.67-4.503-147.415c63.443-8.189-1.642-93.465-65.031-53.144c-16.384,9.911-12.635,18.532-22.774,15.485   c-84.513-28.073-49.766-90.296-18.965-87.946c22.271,2.074,29.137,25.226,17.648,32.78c-3.583-28.936-27.085-21.084-30.875-10.605   c-5.514,10.488-1.047,24.42,9.124,30.205c17.91,11.388,41.777-8.211,40.07-33.003c-0.519-19.764-23.633-35.173-44.831-32.744   c-35.694,4.419-76.643,63.578-11.311,117.01c0.882,1.223,2.998,2.116,2.704,3.703c-1.752,2.172-16.632,15.515-23.28,39.046   c-1.811,6.126-0.482,13.85,5.914,16.649c-3.034,3.339-6.561,6.738-7.384,11.346c-1.011,5.362,0.141,11.452,4.139,15.356   c2.363,2.504,5.996,2.575,9.147,3.08c-14.399,21.626-5.504,34.493,10.429,35.214c-13.554,26.598-2.251,39.491,18.718,39.858   c-13.358,20.708-3.927,39.082,21.069,31.745c13.334,32.287-22.768,41.97-35.99,26.548c-1.975-5.244-0.012-11.581-3.469-16.401   c-3.116-5.032-10.347-8.265-15.743-4.962c-11.7,9.164,11.234,30.97,26.654,35.202c25.466,7.674,82.177-17.291,28.418-81.385   c-7.976-9.253-42.932-40.672-41.774-83.996c-0.703-36.355,9.813-51.116,13.439-61.21c1.34,0.858,2.704,1.635,3.833,2.693   c-0.224,2.172-33.286,81.574,21.469,129.097c23.549,21.615,42.598,48.82,27.901,77.235c-20.725,39.62-46.964,23.828-51.216,24.832   c-10.567,11.778,41.704,42.445,63.138,8.571C1555.711,653.967,1555.761,742.582,1555.806,830.428z M830.428,1555.806   c-87.846-0.045-176.461-0.095-265.703-0.151c33.874-21.434,3.207-73.705-8.571-63.138c-1.004,4.252,14.788,30.491-24.832,51.216   c-28.415,14.697-55.62-4.352-77.235-27.901c-47.523-54.755-126.926-21.693-129.097-21.469c-1.058-1.129-1.834-2.493-2.693-3.833   c10.093-3.626,24.855-14.142,61.21-13.439c43.323-1.158,74.743,33.798,83.996,41.774c64.095,53.76,89.059-2.951,81.385-28.418   c-4.232-15.42-26.038-38.354-35.202-26.654c-3.304,5.397-0.07,12.628,4.962,15.743c4.821,3.457,11.158,1.493,16.401,3.469   c15.422,13.221,5.74,49.324-26.548,35.99c7.337-24.997-11.038-34.427-31.745-21.069c-0.367-20.969-13.26-32.272-39.858-18.718   c-0.721-15.932-13.587-24.828-35.214-10.429c-0.505-3.151-0.576-6.784-3.08-9.147c-3.903-3.998-9.994-5.15-15.356-4.139   c-4.608,0.823-8.007,4.35-11.346,7.384c-2.798-6.396-10.523-7.725-16.649-5.914c-23.531,6.648-36.875,21.528-39.046,23.28   c-1.587,0.294-2.481-1.822-3.703-2.704c-53.432-65.332-112.591-24.384-117.01,11.311c-2.429,21.198,12.98,44.312,32.744,44.831   c24.793,1.707,44.391-22.16,33.003-40.07c-5.784-10.17-19.717-14.638-30.205-9.124c-10.479,3.79-18.331,27.292,10.605,30.875   c-7.554,11.489-30.706,4.623-32.78-17.648c-2.35-30.801,59.873-65.549,87.946,18.965c3.048,10.139-5.574,6.391-15.485,22.774   c-40.321,63.388,44.955,128.474,53.144,65.031c192.084,0.494,122.898-1.548,147.415,4.503c3.339-4.762,6.42-9.829,7.066-15.743   c3.953,3.101,16.026,28.006,37.777,22.657c1.423-4.021,2.198-8.642,5.22-11.781c0.502-0.116,113.886-0.207,298.482-0.273   c184.596,0.066,297.98,0.157,298.482,0.273c3.022,3.139,3.798,7.76,5.22,11.781c21.751,5.35,33.824-19.556,37.777-22.657   c0.646,5.914,3.727,10.981,7.066,15.743c24.517-6.051-44.67-4.009,147.415-4.503c8.189,63.443,93.465-1.642,53.144-65.031   c-9.911-16.384-18.532-12.635-15.485-22.774c28.073-84.513,90.296-49.766,87.946-18.965c-2.074,22.271-25.226,29.137-32.78,17.648   c28.936-3.583,21.084-27.085,10.605-30.875c-10.488-5.514-24.421-1.047-30.205,9.124c-11.388,17.91,8.211,41.777,33.003,40.07   c19.764-0.519,35.173-23.633,32.744-44.831c-4.419-35.694-63.578-76.643-117.01-11.311c-1.223,0.882-2.116,2.998-3.703,2.704   c-2.172-1.752-15.515-16.632-39.047-23.28c-6.126-1.811-13.85-0.482-16.649,5.914c-3.339-3.034-6.738-6.561-11.346-7.384   c-5.362-1.011-11.452,0.141-15.356,4.139c-2.504,2.363-2.575,5.996-3.08,9.147c-21.626-14.399-34.493-5.504-35.214,10.429   c-26.598-13.554-39.491-2.251-39.858,18.718c-20.708-13.358-39.082-3.927-31.745,21.069c-32.287,13.334-41.97-22.768-26.548-35.99   c5.244-1.975,11.581-0.012,16.401-3.469c5.032-3.116,8.266-10.347,4.962-15.743c-9.164-11.7-30.97,11.234-35.202,26.654   c-7.674,25.466,17.291,82.177,81.385,28.418c9.253-7.976,40.672-42.932,83.995-41.774c36.355-0.703,51.116,9.813,61.21,13.439   c-0.858,1.34-1.635,2.704-2.693,3.833c-2.172-0.224-81.574-33.286-129.097,21.469c-21.615,23.549-48.82,42.598-77.235,27.901   c-39.62-20.725-23.828-46.964-24.832-51.216c-11.778-10.567-42.445,41.704-8.571,63.138   C1006.89,1555.711,918.274,1555.761,830.428,1555.806z M105.05,830.428c0.045-87.846,0.095-176.461,0.151-265.703   c21.434,33.874,73.705,3.207,63.138-8.571c-4.252-1.004-30.491,14.788-51.216-24.832c-14.698-28.415,4.352-55.62,27.901-77.235   c54.755-47.523,21.693-126.926,21.469-129.097c1.129-1.058,2.493-1.834,3.833-2.693c3.626,10.093,14.142,24.855,13.439,61.21   c1.158,43.323-33.798,74.743-41.774,83.996c-53.76,64.095,2.951,89.059,28.418,81.385c15.42-4.232,38.354-26.038,26.654-35.202   c-5.397-3.304-12.628-0.07-15.743,4.962c-3.457,4.821-1.493,11.158-3.468,16.401c-13.221,15.422-49.324,5.74-35.99-26.548   c24.997,7.337,34.427-11.038,21.069-31.745c20.969-0.367,32.272-13.26,18.718-39.858c15.932-0.721,24.828-13.587,10.429-35.214   c3.151-0.505,6.784-0.576,9.147-3.08c3.998-3.903,5.15-9.994,4.139-15.356c-0.823-4.608-4.35-8.007-7.384-11.346   c6.396-2.798,7.725-10.523,5.914-16.649c-6.648-23.531-21.528-36.875-23.28-39.046c-0.294-1.587,1.822-2.481,2.704-3.703   c65.332-53.432,24.384-112.591-11.311-117.01c-21.198-2.429-44.312,12.98-44.831,32.744c-1.707,24.793,22.16,44.391,40.07,33.003   c10.17-5.784,14.638-19.717,9.124-30.205c-3.79-10.479-27.292-18.331-30.875,10.605c-11.489-7.554-4.623-30.706,17.648-32.78   c30.801-2.35,65.549,59.873-18.965,87.946c-10.139,3.048-6.391-5.574-22.774-15.485c-63.388-40.321-128.474,44.955-65.031,53.144   c-0.494,192.084,1.548,122.898-4.503,147.415c4.762,3.339,9.829,6.42,15.743,7.066c-3.101,3.953-28.006,16.026-22.657,37.777   c4.021,1.423,8.642,2.198,11.781,5.22c0.116,0.502,0.207,113.886,0.273,298.482c-0.066,184.596-0.157,297.98-0.273,298.482   c-3.139,3.022-7.76,3.798-11.781,5.22c-5.35,21.751,19.556,33.824,22.657,37.777c-5.914,0.646-10.981,3.727-15.743,7.066   c6.051,24.517,4.009-44.67,4.503,147.415c-63.443,8.189,1.642,93.465,65.031,53.144c16.384-9.911,12.635-18.532,22.774-15.485   c84.513,28.073,49.766,90.296,18.965,87.946c-22.271-2.074-29.137-25.226-17.648-32.78c3.583,28.936,27.085,21.084,30.875,10.605   c5.514-10.488,1.046-24.421-9.124-30.205c-17.91-11.388-41.777,8.211-40.07,33.003c0.519,19.764,23.633,35.173,44.831,32.744   c35.695-4.419,76.643-63.578,11.311-117.01c-0.882-1.223-2.998-2.116-2.704-3.703c1.752-2.172,16.632-15.515,23.28-39.047   c1.811-6.126,0.482-13.85-5.914-16.649c3.033-3.339,6.561-6.738,7.384-11.346c1.011-5.362-0.141-11.452-4.139-15.356   c-2.363-2.504-5.996-2.575-9.147-3.08c14.399-21.626,5.504-34.493-10.429-35.214c13.554-26.598,2.251-39.491-18.718-39.858   c13.357-20.708,3.927-39.082-21.069-31.745c-13.334-32.287,22.768-41.97,35.99-26.548c1.975,5.244,0.012,11.581,3.468,16.401   c3.116,5.032,10.347,8.266,15.743,4.962c11.7-9.164-11.234-30.97-26.654-35.202c-25.466-7.674-82.178,17.291-28.418,81.385   c7.976,9.253,42.933,40.672,41.774,83.995c0.703,36.355-9.813,51.116-13.439,61.21c-1.34-0.858-2.704-1.635-3.833-2.693   c0.224-2.172,33.286-81.574-21.469-129.097c-23.549-21.615-42.598-48.82-27.901-77.235c20.725-39.62,46.964-23.828,51.216-24.832   c10.567-11.778-41.704-42.445-63.138-8.571C105.146,1006.89,105.096,918.274,105.05,830.428z M1254.88,121.015   c13.077,1.858,12.183,41.292,74.93,33.756c1.141,2.269,2.14,4.633,2.61,7.16C1273.477,171.716,1254.267,129.05,1254.88,121.015z    M121.015,405.976c1.858-13.077,41.292-12.183,33.756-74.93c2.269-1.141,4.633-2.14,7.16-2.61   C171.716,387.379,129.05,406.589,121.015,405.976z M405.976,1539.841c-13.077-1.858-12.183-41.292-74.93-33.756   c-1.141-2.269-2.14-4.633-2.61-7.16C387.379,1489.141,406.589,1531.807,405.976,1539.841z M1539.841,1254.88   c-1.858,13.077-41.292,12.183-33.756,74.93c-2.269,1.141-4.633,2.14-7.16,2.61   C1489.141,1273.477,1531.807,1254.267,1539.841,1254.88z M1498.925,328.436c2.528,0.471,4.891,1.47,7.16,2.61   c-7.536,62.748,31.897,61.853,33.756,74.93C1531.807,406.589,1489.141,387.379,1498.925,328.436z M328.436,161.931   c0.471-2.528,1.47-4.891,2.61-7.16c62.748,7.536,61.853-31.898,74.93-33.756C406.589,129.05,387.379,171.716,328.436,161.931z    M161.931,1332.421c-2.528-0.471-4.891-1.47-7.16-2.61c7.536-62.748-31.898-61.853-33.756-74.93   C129.05,1254.267,171.716,1273.477,161.931,1332.421z M1332.421,1498.925c-0.471,2.528-1.47,4.891-2.61,7.16   c-62.748-7.536-61.853,31.897-74.93,33.756C1254.267,1531.807,1273.477,1489.141,1332.421,1498.925z M1398.45,204.869   c-36.091-7.023-54.409-49.704-50.416-59.105C1355.036,157.935,1349.278,178.385,1398.45,204.869z M204.869,262.406   c-7.023,36.091-49.704,54.409-59.105,50.416C157.935,305.82,178.385,311.578,204.869,262.406z M262.406,1455.987   c36.091,7.023,54.409,49.704,50.416,59.105C305.82,1502.921,311.578,1482.471,262.406,1455.987z M1455.987,1398.45   c7.023-36.091,49.704-54.409,59.105-50.416C1502.921,1355.036,1482.471,1349.278,1455.987,1398.45z M1515.092,312.822   c-9.4,3.993-52.082-14.325-59.105-50.416C1482.471,311.578,1502.921,305.82,1515.092,312.822z M312.822,145.764   c3.993,9.4-14.325,52.082-50.416,59.105C311.578,178.385,305.82,157.935,312.822,145.764z M145.764,1348.034   c9.4-3.993,52.082,14.325,59.105,50.416C178.385,1349.278,157.935,1355.036,145.764,1348.034z M1348.034,1515.092   c-3.993-9.4,14.325-52.082,50.416-59.105C1349.278,1482.471,1355.036,1502.921,1348.034,1515.092z M1336.136,71.704   c9.139-0.16,22.358,2.877,26.607-17.307c22.41,23.939,10.835,71.593-26.818,79.586c-24.731,4.496-21.929-10.761-33.697-18.542   c-5.079-4.174-12.157-4.538-17.165-8.736c-4.409-2.74-3.669-11.123-10.041-10.452c-2.728,4.832-2.763,10.417-2.716,15.79   c-0.612-0.165-1.834-0.506-2.446-0.67c-3.94-16.419-27.109-32.816-39.728-33.297c0.306,4.679,5.091,7.196,6.067,11.64   c2.821,10.864-0.129,22.351,3.504,33.109c-5.785,0.752-11.558-0.635-17.284,0.094c-4.237,17.002,25.722,34.263,27.007,39.717   c-12.83-4.407-31.024-22.839-35.719-46.63c-2.74-14.579-2.645-29.629-6.784-43.95C1215.767,71.491,1328.796,71.692,1336.136,71.704   z M71.704,324.72c-0.16-9.139,2.877-22.358-17.307-26.607c23.939-22.41,71.593-10.835,79.586,26.819   c4.496,24.731-10.761,21.929-18.542,33.697c-4.174,5.079-4.538,12.157-8.736,17.165c-2.74,4.409-11.123,3.669-10.452,10.041   c4.832,2.728,10.417,2.763,15.79,2.716c-0.165,0.612-0.506,1.834-0.67,2.446c-16.419,3.94-32.816,27.109-33.297,39.728   c4.679-0.306,7.196-5.091,11.64-6.067c10.864-2.821,22.351,0.129,33.109-3.504c0.752,5.785-0.635,11.558,0.094,17.284   c17.002,4.237,34.263-25.722,39.717-27.007c-4.407,12.83-22.839,31.024-46.63,35.719c-14.579,2.74-29.629,2.645-43.95,6.784   C71.491,445.089,71.692,332.06,71.704,324.72z M324.72,1589.152c-9.139,0.16-22.358-2.877-26.607,17.307   c-22.41-23.939-10.835-71.593,26.819-79.586c24.731-4.496,21.929,10.761,33.697,18.542c5.079,4.174,12.157,4.538,17.165,8.736   c4.409,2.74,3.669,11.123,10.041,10.452c2.728-4.832,2.763-10.417,2.716-15.79c0.612,0.165,1.834,0.506,2.446,0.67   c3.94,16.419,27.109,32.816,39.728,33.297c-0.306-4.679-5.091-7.196-6.067-11.64c-2.821-10.864,0.129-22.351-3.504-33.109   c5.785-0.752,11.558,0.635,17.284-0.094c4.237-17.002-25.722-34.263-27.007-39.717c12.83,4.406,31.024,22.839,35.719,46.63   c2.74,14.579,2.645,29.629,6.784,43.949C445.089,1589.365,332.06,1589.164,324.72,1589.152z M1589.152,1336.136   c0.16,9.139-2.877,22.358,17.307,26.607c-23.939,22.41-71.593,10.835-79.586-26.818c-4.496-24.731,10.761-21.929,18.542-33.697   c4.174-5.079,4.538-12.157,8.736-17.165c2.74-4.409,11.123-3.669,10.452-10.041c-4.832-2.728-10.417-2.763-15.79-2.716   c0.165-0.612,0.506-1.834,0.67-2.446c16.419-3.94,32.816-27.109,33.297-39.728c-4.679,0.306-7.196,5.091-11.64,6.067   c-10.864,2.821-22.351-0.129-33.109,3.504c-0.752-5.785,0.635-11.558-0.094-17.284c-17.002-4.237-34.263,25.722-39.717,27.007   c4.406-12.83,22.839-31.024,46.63-35.719c14.579-2.74,29.629-2.645,43.949-6.784   C1589.365,1215.767,1589.164,1328.796,1589.152,1336.136z M1588.8,453.935c-14.321-4.139-29.37-4.044-43.949-6.784   c-23.791-4.695-42.224-22.889-46.63-35.719c5.453,1.285,22.714,31.244,39.717,27.007c0.729-5.726-0.658-11.499,0.094-17.284   c10.758,3.633,22.245,0.682,33.109,3.504c4.444,0.976,6.961,5.761,11.64,6.067c-0.481-12.619-16.878-35.789-33.297-39.728   c-0.165-0.612-0.506-1.834-0.67-2.446c5.373,0.047,10.958,0.012,15.79-2.716c0.67-6.372-7.713-5.632-10.452-10.041   c-4.197-5.008-4.562-12.087-8.736-17.165c-7.781-11.768-23.038-8.967-18.542-33.697c7.994-37.654,55.647-49.228,79.586-26.819   c-20.184,4.249-17.147,17.468-17.307,26.607C1589.164,332.06,1589.365,445.089,1588.8,453.935z M453.935,72.057   c-4.139,14.321-4.044,29.37-6.784,43.95c-4.695,23.791-22.889,42.224-35.719,46.63c1.285-5.453,31.244-22.715,27.007-39.717   c-5.726-0.729-11.499,0.658-17.284-0.094c3.633-10.758,0.682-22.245,3.504-33.109c0.976-4.444,5.761-6.96,6.067-11.64   c-12.619,0.481-35.789,16.878-39.728,33.297c-0.612,0.165-1.834,0.506-2.446,0.67c0.047-5.373,0.012-10.958-2.716-15.79   c-6.372-0.67-5.632,7.713-10.041,10.452c-5.008,4.197-12.087,4.562-17.165,8.736c-11.768,7.781-8.967,23.038-33.697,18.542   c-37.654-7.994-49.228-55.647-26.819-79.586c4.249,20.184,17.468,17.147,26.607,17.307   C332.06,71.692,445.089,71.491,453.935,72.057z M72.057,1206.921c14.321,4.139,29.37,4.044,43.95,6.784   c23.791,4.695,42.224,22.889,46.63,35.719c-5.453-1.285-22.715-31.244-39.717-27.007c-0.729,5.726,0.658,11.499-0.094,17.284   c-10.758-3.633-22.245-0.682-33.109-3.504c-4.444-0.976-6.96-5.761-11.64-6.067c0.481,12.62,16.878,35.788,33.297,39.728   c0.165,0.611,0.506,1.834,0.67,2.446c-5.373-0.047-10.958-0.012-15.79,2.716c-0.67,6.372,7.713,5.632,10.452,10.041   c4.197,5.008,4.562,12.087,8.736,17.165c7.781,11.768,23.038,8.967,18.542,33.697c-7.994,37.654-55.647,49.228-79.586,26.818   c20.184-4.249,17.147-17.468,17.307-26.607C71.692,1328.796,71.491,1215.767,72.057,1206.921z M1206.921,1588.8   c4.139-14.321,4.044-29.37,6.784-43.949c4.695-23.791,22.889-42.224,35.719-46.63c-1.285,5.453-31.244,22.714-27.007,39.717   c5.726,0.729,11.499-0.658,17.284,0.094c-3.633,10.758-0.682,22.245-3.504,33.109c-0.976,4.444-5.761,6.961-6.067,11.64   c12.62-0.481,35.788-16.878,39.728-33.297c0.611-0.165,1.834-0.506,2.446-0.67c-0.047,5.373-0.012,10.958,2.716,15.79   c6.372,0.67,5.632-7.713,10.041-10.452c5.008-4.197,12.087-4.562,17.165-8.736c11.768-7.781,8.967-23.038,33.697-18.542   c37.654,7.994,49.228,55.647,26.818,79.586c-4.249-20.184-17.468-17.147-26.607-17.307   C1328.796,1589.164,1215.767,1589.365,1206.921,1588.8z M1167.569,84.273c17.542,5.032,33.204,19.576,35.672,38.235   c-5.315-6.737-10.452-13.815-17.519-18.859c-11.009-9.086-35.811-11.845-44.726-37.318   C1149.039,73.35,1156.893,81.427,1167.569,84.273z M84.273,493.288c5.032-17.542,19.576-33.204,38.235-35.672   c-6.737,5.315-13.815,10.452-18.859,17.519c-9.086,11.009-11.845,35.811-37.318,44.726   C73.35,511.817,81.427,503.963,84.273,493.288z M493.288,1576.583c-17.542-5.032-33.204-19.576-35.672-38.235   c5.315,6.737,10.452,13.815,17.519,18.859c11.009,9.087,35.811,11.845,44.726,37.318   C511.817,1587.506,503.963,1579.429,493.288,1576.583z M1576.583,1167.569c-5.032,17.542-19.576,33.204-38.235,35.672   c6.737-5.315,13.815-10.452,18.859-17.519c9.087-11.009,11.845-35.811,37.318-44.726   C1587.506,1149.039,1579.429,1156.893,1576.583,1167.569z M1594.525,519.859c-25.473-8.915-28.232-33.717-37.318-44.726   c-5.044-7.066-12.122-12.204-18.859-17.519c18.659,2.469,33.203,18.13,38.235,35.672   C1579.429,503.963,1587.506,511.817,1594.525,519.859z M519.859,66.331c-8.915,25.473-33.717,28.232-44.726,37.318   c-7.066,5.044-12.204,12.122-17.519,18.859c2.469-18.659,18.13-33.203,35.672-38.235C503.963,81.427,511.817,73.35,519.859,66.331z    M66.331,1140.997c25.473,8.915,28.232,33.717,37.318,44.726c5.044,7.066,12.122,12.204,18.859,17.519   c-18.659-2.469-33.203-18.13-38.235-35.672C81.427,1156.893,73.35,1149.039,66.331,1140.997z M1140.997,1594.525   c8.915-25.473,33.717-28.232,44.726-37.318c7.066-5.044,12.204-12.122,17.519-18.859c-2.469,18.659-18.13,33.203-35.672,38.235   C1156.893,1579.429,1149.039,1587.506,1140.997,1594.525z M830.428,72.887c182.687,0.169,294.633,0.4,296.977,0.71   c1.188,3.457,2.587,6.855,4.197,10.17c-14.841,7.919-89.345,5.756-224.615,5.855c-25.72,0-51.24,0.001-76.56,0.002   c-25.32-0.001-50.84-0.002-76.56-0.002c-135.269-0.099-209.774,2.064-224.615-5.855c1.611-3.315,3.01-6.713,4.197-10.17   C535.795,73.286,647.741,73.056,830.428,72.887z M1587.97,830.428c-0.169,182.687-0.4,294.633-0.71,296.977   c-3.457,1.188-6.855,2.587-10.17,4.197c-7.919-14.841-5.756-89.345-5.855-224.615c0-25.72-0.001-51.24-0.002-76.56   c0.001-25.32,0.002-50.84,0.002-76.56c0.099-135.269-2.064-209.774,5.855-224.615c3.315,1.611,6.713,3.01,10.17,4.197   C1587.57,535.795,1587.801,647.741,1587.97,830.428z M830.428,1587.97c-182.687-0.169-294.633-0.4-296.977-0.71   c-1.188-3.457-2.587-6.855-4.197-10.17c14.841-7.919,89.345-5.756,224.615-5.855c25.72,0,51.24-0.001,76.56-0.002   c25.32,0.001,50.84,0.002,76.56,0.002c135.269,0.099,209.774-2.064,224.615,5.855c-1.611,3.315-3.01,6.713-4.197,10.17   C1125.061,1587.57,1013.115,1587.801,830.428,1587.97z M72.887,830.428c0.169-182.687,0.4-294.633,0.71-296.977   c3.457-1.188,6.855-2.587,10.17-4.197c7.919,14.841,5.756,89.345,5.855,224.615c0,25.72,0.001,51.24,0.002,76.56   c-0.001,25.32-0.002,50.84-0.002,76.56c-0.099,135.269,2.064,209.774-5.855,224.615c-3.315-1.611-6.713-3.01-10.17-4.197   C73.286,1125.061,73.056,1013.115,72.887,830.428z"
   id="path2" />
</g>
</svg>
