<?xml version="1.0" encoding="utf-8"?>

<!DOCTYPE svg PUBLIC "-//W3C//DTD SVG 1.1//EN" "http://www.w3.org/Graphics/SVG/1.1/DTD/svg11.dtd">
<svg version="1.1" id="Layer_1" xmlns="http://www.w3.org/2000/svg" xmlns:xlink="http://www.w3.org/1999/xlink" x="0px" y="0px"
	 viewBox="0 0 1734 1683" style="enable-background:new 0 0 1734 1683;" xml:space="preserve">
<g>
	<g>
		<path d="M1271.008,57.073c28.376,8.513,63.847,31.214,61.009,53.915c-1.419,22.701-41.146,43.983-73.779,51.078
			c-50.81,11.046-92.486-15.327-116.343-11.351c-8.513,1.419-14.188,7.094-14.188,12.769c0,5.675,7.094,11.351,9.932,14.188
			c2.838,2.838,4.256,2.838,2.838,4.256c-4.441,4.441-42.574,9.198-55.334-22.701c-2.838-7.094,0-11.351,0-14.188
			c3.834-7.669-9.813,9.479-24.12,7.094c-8.513,0-17.026-7.094-18.445-14.188c-1.929-9.646,9.932-18.369,9.932-21.282
			c-1.419,0-20.757-5.092-42.565,2.838c-69.589,25.305-18.174,91.411-12.769,75.198c1.419-4.256-1.419-11.351,1.419-18.445
			c10.667-26.668,42.209-6.617,35.471,11.351c-4.687,18.748-48.404,41.19-75.198,9.932c-9.932-8.513-12.769-19.863-15.607-25.539
			c-1.419-5.675-1.419-5.675-2.838-5.675c0,0-4.757,18.445-9.932,18.445c-8.106,0-26.825-29.994-4.256-63.847
			c27.165-34.926,81.715-29.795,76.616-29.795c0,0,0,0-5.675-2.838c-56.092-28.046,44.63-53.269,97.899,0
			c7.342,5.507,5.675,5.955,5.675-1.419c0-14.236-4.093-29.877,24.12-43.983c12.973-6.487-2.88,10.48,15.607,36.889
			c9.932,14.188,29.795,31.214,51.078,43.983c82.752,44.134,137.588-7.822,82.292-35.471c-14.505-7.252-9.112,18.445-15.607,18.445
			c-4.256,0-15.607-4.256-18.445-11.351c-6.801-9.067,4.443-25.725,0-21.282c-7.68,7.68-19.806,2.881-25.539-1.419
			c-5.675-4.256-9.932-8.513-1.419-14.188s29.795-11.351,58.172-2.838V57.073z"/>
		<path d="M1675.669,461.735c-8.513-28.376-31.214-63.847-53.915-61.009c-22.701,1.419-43.984,41.146-51.078,73.779
			c-11.046,50.81,15.327,92.486,11.35,116.343c-1.419,8.513-7.094,14.188-12.769,14.188c-5.675,0-11.351-7.094-14.188-9.932
			c-2.838-2.838-2.838-4.256-4.256-2.838c-4.441,4.441-9.198,42.574,22.701,55.334c7.094,2.838,11.35,0,14.188,0
			c7.669-3.834-9.479,9.813-7.094,24.12c0,8.513,7.094,17.026,14.188,18.445c9.646,1.929,18.369-9.932,21.282-9.932
			c0,1.419,5.093,20.757-2.838,42.565c-25.305,69.589-91.411,18.174-75.198,12.769c4.256-1.419,11.351,1.419,18.445-1.419
			c26.668-10.667,6.617-42.208-11.351-35.471c-18.748,4.687-41.19,48.404-9.932,75.198c8.513,9.932,19.864,12.769,25.539,15.607
			c5.675,1.419,5.675,1.419,5.675,2.838c0,0-18.445,4.757-18.445,9.932c0,8.106,29.994,26.825,63.847,4.256
			c34.926-27.165,29.795-81.715,29.795-76.616c0,0,0,0,2.838,5.675c28.046,56.092,53.269-44.63,0-97.899
			c-5.507-7.342-5.955-5.675,1.419-5.675c14.236,0,29.877,4.093,43.983-24.12c6.487-12.973-10.48,2.88-36.889-15.607
			c-14.188-9.932-31.214-29.795-43.984-51.078c-44.134-82.752,7.822-137.588,35.471-82.292c7.252,14.505-18.445,9.112-18.445,15.607
			c0,4.256,4.256,15.607,11.351,18.445c9.067,6.801,25.725-4.443,21.282,0c-7.68,7.68-2.881,19.806,1.419,25.539
			c4.256,5.675,8.513,9.932,14.188,1.419c5.675-8.513,11.351-29.795,2.838-58.172H1675.669z"/>
		<path d="M1674.788,57.955c-2.235-0.413-4.439-0.709-6.51-0.881c-50.946-4.246-90.805,35.471-90.805,35.471
			s1.683-22.173-2.838-31.214c-4.256-8.513-15.607-15.607-21.282-18.445c-12.973-6.487,2.88,10.48-15.607,36.889
			c-23.405,33.436-74.935,63.77-116.343,61.009c-19.864-1.419-38.308-11.351-39.727-22.701s14.188-25.539,22.701-29.795
			c14.505-7.252,9.112,18.445,15.607,18.445c4.256,0,15.607-4.256,18.445-11.351c4.256-5.675,1.419-14.188,0-18.445
			c-3.019-9.057,0.546,1.419,8.513,1.419c11.516,0,31.865-10.917,18.445-19.863c-8.513-5.675-29.795-11.351-58.172-2.838v1.419
			c-28.376,8.513-63.847,31.214-61.009,53.915c1.419,22.701,41.146,43.983,73.779,51.078c50.81,11.046,92.486-15.327,116.343-11.351
			c8.513,1.419,14.188,7.094,14.188,12.769c0,5.675-7.094,11.351-9.932,14.188c-2.838,2.838-4.256,2.838-2.838,4.256
			s2.838,2.838,9.932,2.838c0.099,0,0.198,0,0.297,0c0,0.099,0,0.198,0,0.297c0,7.094,1.419,8.513,2.838,9.932s1.419,0,4.256-2.838
			c2.838-2.838,8.513-9.932,14.188-9.932c5.675,0,11.35,5.675,12.769,14.188c3.976,23.857-22.396,65.534-11.35,116.343
			c7.094,32.633,28.376,72.36,51.078,73.779c22.701,2.838,45.402-32.633,53.915-61.009h1.419
			c8.513-28.376,2.838-49.659-2.838-58.172c-8.947-13.42-19.863,6.929-19.863,18.445c0,7.967,10.476,11.532,1.419,8.513
			c-4.256-1.419-12.769-4.256-18.445,0c-7.094,2.838-11.351,14.188-11.351,18.445c0,6.495,25.697,1.102,18.445,15.607
			c-4.256,8.513-18.445,24.12-29.795,22.701s-21.282-19.863-22.701-39.727c-2.76-41.409,27.573-92.938,61.009-116.343
			c26.41-18.487,43.376-2.634,36.889-15.607c-2.838-5.675-9.932-17.026-18.445-21.282c-9.042-4.521-31.214-2.838-31.214-2.838
			s39.716-39.858,35.47-90.805C1675.497,62.394,1675.201,60.19,1674.788,57.955z"/>
	</g>
	<g>
		<path d="M462.992,55.654c28.376-8.513,49.659-2.838,58.172,2.838c8.513,5.675,4.256,9.932-1.419,14.188
			c-5.733,4.3-17.859,9.099-25.539,1.419c-4.443-4.443,6.801,12.215,0,21.282c-2.838,7.094-14.188,11.351-18.445,11.351
			c-6.495,0-1.102-25.697-15.607-18.445c-55.297,27.648-0.46,79.605,82.292,35.471c21.282-12.769,41.146-29.795,51.078-43.983
			c18.487-26.41,2.634-43.376,15.607-36.889c28.213,14.107,24.12,29.747,24.12,43.983c0,7.374-1.667,6.925,5.675,1.419
			c53.269-53.269,153.991-28.046,97.899,0c-5.675,2.838-5.675,2.838-5.675,2.838c-5.098,0,49.452-5.131,76.616,29.795
			c22.569,33.853,3.85,63.847-4.256,63.847c-5.175,0-9.932-18.445-9.932-18.445c-1.419,0-1.419,0-2.838,5.675
			c-2.838,5.675-5.675,17.026-15.607,25.539c-26.793,31.259-70.51,8.817-75.198-9.932c-6.738-17.968,24.803-38.018,35.471-11.351
			c2.838,7.094,0,14.188,1.419,18.445c5.404,16.214,56.82-49.892-12.769-75.198c-21.808-7.93-41.145-2.838-42.565-2.838
			c0,2.914,11.861,11.636,9.932,21.282c-1.419,7.094-9.932,14.188-18.445,14.188c-14.307,2.385-27.954-14.763-24.12-7.094
			c0,2.838,2.838,7.094,0,14.188c-12.76,31.899-50.893,27.142-55.334,22.701c-1.419-1.419,0-1.419,2.838-4.256
			c2.838-2.838,9.932-8.513,9.932-14.188c0-5.675-5.675-11.351-14.188-12.769c-23.857-3.976-65.534,22.396-116.343,11.351
			c-32.633-7.094-72.36-28.376-73.779-51.078c-2.838-22.701,32.633-45.402,61.009-53.915V55.654z"/>
		<path d="M56.912,461.735c-8.513,28.376-2.838,49.659,2.838,58.172c5.675,8.513,9.932,4.256,14.188-1.419
			c4.3-5.733,9.099-17.859,1.419-25.539c-4.443-4.443,12.215,6.801,21.282,0c7.094-2.838,11.351-14.188,11.351-18.445
			c0-6.495-25.697-1.102-18.445-15.607c27.648-55.297,79.605-0.46,35.471,82.292c-12.769,21.282-29.795,41.146-43.983,51.078
			c-26.41,18.487-43.376,2.634-36.889,15.607c14.107,28.213,29.747,24.12,43.983,24.12c7.374,0,6.925-1.667,1.419,5.675
			c-53.269,53.269-28.046,153.991,0,97.899c2.838-5.675,2.838-5.675,2.838-5.675c0-5.098-5.131,49.452,29.795,76.616
			c33.853,22.569,63.847,3.85,63.847-4.256c0-5.175-18.445-9.932-18.445-9.932c0-1.419,0-1.419,5.675-2.838
			c5.675-2.838,17.026-5.675,25.539-15.607c31.259-26.793,8.817-70.51-9.932-75.198c-17.968-6.738-38.018,24.803-11.351,35.471
			c7.094,2.838,14.188,0,18.445,1.419c16.214,5.405-49.892,56.82-75.198-12.769c-7.93-21.808-2.838-41.145-2.838-42.565
			c2.914,0,11.636,11.861,21.282,9.932c7.094-1.419,14.188-9.932,14.188-18.445c2.385-14.307-14.763-27.954-7.094-24.12
			c2.838,0,7.094,2.838,14.188,0c31.899-12.76,27.142-50.893,22.701-55.334c-1.419-1.419-1.419,0-4.256,2.838
			c-2.838,2.838-8.513,9.932-14.188,9.932c-5.675,0-11.351-5.675-12.769-14.188c-3.976-23.857,22.396-65.534,11.351-116.343
			c-7.094-32.633-28.376-72.36-51.078-73.779c-22.701-2.838-45.402,32.633-53.915,61.009H56.912z"/>
		<path d="M58.331,64.465c-4.246,50.946,35.471,90.805,35.471,90.805s-22.173-1.683-31.214,2.838
			c-8.513,4.256-15.607,15.607-18.445,21.282c-6.487,12.973,10.48-2.88,36.889,15.607c33.436,23.405,63.77,74.935,61.009,116.343
			c-1.419,19.863-11.351,38.308-22.701,39.727s-25.539-14.188-29.795-22.701c-7.252-14.505,18.445-9.112,18.445-15.607
			c0-4.256-4.256-15.607-11.351-18.445c-5.675-4.256-14.188-1.419-18.445,0c-9.057,3.019,1.419-0.546,1.419-8.513
			c0-11.516-10.917-31.865-19.863-18.445c-5.675,8.513-11.351,29.795-2.838,58.172h1.419c8.513,28.376,31.214,63.847,53.915,61.009
			c22.701-1.419,43.983-41.146,51.078-73.779c11.046-50.81-15.327-92.486-11.351-116.343c1.419-8.513,7.094-14.188,12.769-14.188
			c5.675,0,11.351,7.094,14.188,9.932c2.838,2.838,2.838,4.256,4.256,2.838s2.838-2.838,2.838-9.932c0-0.099,0-0.198,0-0.297
			c0.099,0,0.198,0,0.297,0c7.094,0,8.513-1.419,9.932-2.838s0-1.419-2.838-4.256c-2.838-2.838-9.932-8.513-9.932-14.188
			c0-5.675,5.675-11.351,14.188-12.769c23.857-3.976,65.534,22.396,116.343,11.351c32.633-7.094,72.36-28.376,73.779-51.078
			c2.838-22.701-32.633-45.402-61.009-53.915v-1.419c-28.376-8.513-49.659-2.838-58.172,2.838
			c-13.42,8.947,6.929,19.863,18.445,19.863c7.967,0,11.532-10.476,8.513-1.419c-1.419,4.256-4.256,12.769,0,18.445
			c2.838,7.094,14.188,11.351,18.445,11.351c6.495,0,1.102-25.697,15.607-18.445c8.513,4.256,24.12,18.445,22.701,29.795
			s-19.863,21.282-39.727,22.701c-41.409,2.761-92.938-27.573-116.343-61.009c-18.487-26.41-2.634-43.376-15.607-36.889
			c-5.675,2.838-17.026,9.932-21.282,18.445c-4.521,9.042-2.838,31.214-2.838,31.214s-39.858-39.716-90.805-35.471
			c-2.071,0.173-4.275,0.468-6.51,0.881C58.799,60.19,58.503,62.394,58.331,64.465z"/>
	</g>
	<g>
		<path d="M1271.008,1627.345c-28.376,8.513-49.659,2.838-58.172-2.838c-8.513-5.675-4.256-9.932,1.419-14.188
			c5.733-4.3,17.859-9.099,25.539-1.419c4.443,4.443-6.801-12.215,0-21.282c2.838-7.094,14.188-11.351,18.445-11.351
			c6.495,0,1.102,25.697,15.607,18.445c55.297-27.648,0.46-79.605-82.292-35.471c-21.282,12.769-41.146,29.795-51.078,43.984
			c-18.487,26.41-2.634,43.376-15.607,36.889c-28.213-14.107-24.12-29.747-24.12-43.983c0-7.374,1.667-6.926-5.675-1.419
			c-53.269,53.269-153.991,28.046-97.899,0c5.675-2.838,5.675-2.838,5.675-2.838c5.098,0-49.452,5.131-76.616-29.795
			c-22.569-33.853-3.85-63.847,4.256-63.847c5.175,0,9.932,18.445,9.932,18.445c1.419,0,1.419,0,2.838-5.675
			c2.838-5.675,5.675-17.026,15.607-25.539c26.793-31.259,70.51-8.817,75.198,9.932c6.738,17.968-24.803,38.018-35.471,11.351
			c-2.838-7.094,0-14.188-1.419-18.445c-5.404-16.214-56.82,49.892,12.769,75.198c21.808,7.93,41.145,2.838,42.565,2.838
			c0-2.914-11.861-11.636-9.932-21.282c1.419-7.094,9.932-14.188,18.445-14.188c14.307-2.385,27.954,14.763,24.12,7.094
			c0-2.838-2.838-7.094,0-14.188c12.76-31.899,50.893-27.142,55.334-22.701c1.419,1.419,0,1.419-2.838,4.256
			s-9.932,8.513-9.932,14.188s5.675,11.35,14.188,12.769c23.857,3.976,65.534-22.396,116.343-11.35
			c32.633,7.094,72.36,28.376,73.779,51.078c2.838,22.701-32.633,45.402-61.009,53.915V1627.345z"/>
		<path d="M1677.088,1221.265c8.513-28.376,2.838-49.659-2.838-58.172s-9.932-4.256-14.188,1.419
			c-4.3,5.733-9.099,17.859-1.419,25.539c4.443,4.443-12.215-6.801-21.282,0c-7.094,2.838-11.351,14.188-11.351,18.445
			c0,6.495,25.697,1.102,18.445,15.607c-27.648,55.297-79.605,0.46-35.471-82.292c12.769-21.282,29.795-41.146,43.984-51.078
			c26.41-18.487,43.376-2.634,36.889-15.607c-14.107-28.213-29.747-24.12-43.983-24.12c-7.374,0-6.926,1.667-1.419-5.675
			c53.269-53.269,28.046-153.991,0-97.899c-2.838,5.675-2.838,5.675-2.838,5.675c0,5.098,5.131-49.452-29.795-76.616
			c-33.853-22.569-63.847-3.85-63.847,4.256c0,5.175,18.445,9.932,18.445,9.932c0,1.419,0,1.419-5.675,2.838
			c-5.675,2.838-17.026,5.675-25.539,15.607c-31.259,26.793-8.817,70.51,9.932,75.198c17.968,6.738,38.018-24.803,11.351-35.471
			c-7.094-2.838-14.188,0-18.445-1.419c-16.214-5.405,49.892-56.82,75.198,12.769c7.93,21.808,2.838,41.145,2.838,42.565
			c-2.914,0-11.636-11.861-21.282-9.932c-7.094,1.419-14.188,9.932-14.188,18.445c-2.385,14.307,14.763,27.954,7.094,24.12
			c-2.838,0-7.094-2.838-14.188,0c-31.899,12.76-27.142,50.893-22.701,55.334c1.419,1.419,1.419,0,4.256-2.838
			s8.513-9.932,14.188-9.932c5.675,0,11.35,5.675,12.769,14.188c3.976,23.857-22.396,65.534-11.35,116.343
			c7.094,32.633,28.376,72.36,51.078,73.779c22.701,2.838,45.402-32.633,53.915-61.009H1677.088z"/>
		<path d="M1675.669,1618.535c4.246-50.946-35.47-90.805-35.47-90.805s22.172,1.683,31.214-2.838
			c8.513-4.256,15.607-15.607,18.445-21.282c6.487-12.973-10.48,2.88-36.889-15.607c-33.436-23.405-63.77-74.935-61.009-116.343
			c1.419-19.864,11.351-38.308,22.701-39.727s25.539,14.188,29.795,22.701c7.252,14.505-18.445,9.112-18.445,15.607
			c0,4.256,4.256,15.607,11.351,18.445c5.675,4.256,14.188,1.419,18.445,0c9.057-3.019-1.419,0.546-1.419,8.513
			c0,11.516,10.917,31.865,19.863,18.445c5.675-8.513,11.351-29.795,2.838-58.172h-1.419c-8.513-28.376-31.214-63.847-53.915-61.009
			c-22.701,1.419-43.984,41.146-51.078,73.779c-11.046,50.81,15.327,92.486,11.35,116.343c-1.419,8.513-7.094,14.188-12.769,14.188
			c-5.675,0-11.351-7.094-14.188-9.932s-2.838-4.256-4.256-2.838s-2.838,2.838-2.838,9.932c0,0.099,0,0.198,0,0.297
			c-0.099,0-0.198,0-0.297,0c-7.094,0-8.513,1.419-9.932,2.838s0,1.419,2.838,4.256s9.932,8.513,9.932,14.188
			s-5.675,11.35-14.188,12.769c-23.857,3.976-65.534-22.396-116.343-11.35c-32.633,7.094-72.36,28.376-73.779,51.078
			c-2.838,22.701,32.633,45.402,61.009,53.915v1.419c28.376,8.513,49.659,2.838,58.172-2.838
			c13.42-8.947-6.929-19.863-18.445-19.863c-7.967,0-11.532,10.476-8.513,1.419c1.419-4.256,4.256-12.769,0-18.445
			c-2.838-7.094-14.188-11.351-18.445-11.351c-6.495,0-1.102,25.697-15.607,18.445c-8.513-4.256-24.12-18.445-22.701-29.795
			s19.864-21.282,39.727-22.701c41.409-2.76,92.938,27.573,116.343,61.009c18.487,26.41,2.634,43.376,15.607,36.889
			c5.675-2.838,17.026-9.932,21.282-18.445c4.521-9.042,2.838-31.214,2.838-31.214s39.858,39.716,90.805,35.47
			c2.071-0.172,4.275-0.468,6.51-0.881C1675.201,1622.81,1675.497,1620.606,1675.669,1618.535z"/>
	</g>
	<g>
		<path d="M462.992,1625.927c-28.376-8.513-63.847-31.214-61.009-53.915c1.419-22.701,41.146-43.983,73.779-51.078
			c50.81-11.046,92.486,15.327,116.343,11.35c8.513-1.419,14.188-7.094,14.188-12.769s-7.094-11.351-9.932-14.188
			s-4.256-2.838-2.838-4.256c4.441-4.441,42.574-9.198,55.334,22.701c2.838,7.094,0,11.35,0,14.188
			c-3.834,7.669,9.813-9.479,24.12-7.094c8.513,0,17.026,7.094,18.445,14.188c1.929,9.646-9.932,18.369-9.932,21.282
			c1.419,0,20.757,5.093,42.565-2.838c69.589-25.305,18.174-91.411,12.769-75.198c-1.419,4.256,1.419,11.351-1.419,18.445
			c-10.667,26.668-42.209,6.617-35.471-11.351c4.687-18.748,48.404-41.19,75.198-9.932c9.932,8.513,12.769,19.864,15.607,25.539
			c1.419,5.675,1.419,5.675,2.838,5.675c0,0,4.757-18.445,9.932-18.445c8.106,0,26.825,29.994,4.256,63.847
			c-27.165,34.926-81.715,29.795-76.616,29.795c0,0,0,0,5.675,2.838c56.092,28.046-44.63,53.269-97.899,0
			c-7.342-5.507-5.675-5.955-5.675,1.419c0,14.236,4.093,29.877-24.12,43.983c-12.973,6.487,2.88-10.48-15.607-36.889
			c-9.932-14.188-29.795-31.214-51.078-43.984c-82.752-44.134-137.588,7.822-82.292,35.471c14.505,7.252,9.112-18.445,15.607-18.445
			c4.256,0,15.607,4.256,18.445,11.351c6.801,9.067-4.443,25.725,0,21.282c7.68-7.68,19.806-2.881,25.539,1.419
			c5.675,4.256,9.932,8.513,1.419,14.188c-8.513,5.675-29.795,11.351-58.172,2.838V1625.927z"/>
		<path d="M58.331,1221.265c8.513,28.376,31.214,63.847,53.915,61.009c22.701-1.419,43.983-41.146,51.078-73.779
			c11.046-50.81-15.327-92.486-11.351-116.343c1.419-8.513,7.094-14.188,12.769-14.188c5.675,0,11.351,7.094,14.188,9.932
			s2.838,4.256,4.256,2.838c4.441-4.441,9.198-42.574-22.701-55.334c-7.094-2.838-11.351,0-14.188,0
			c-7.669,3.834,9.479-9.813,7.094-24.12c0-8.513-7.094-17.026-14.188-18.445c-9.646-1.929-18.369,9.932-21.282,9.932
			c0-1.419-5.092-20.757,2.838-42.565c25.305-69.589,91.411-18.174,75.198-12.769c-4.256,1.419-11.351-1.419-18.445,1.419
			c-26.668,10.667-6.617,42.208,11.351,35.471c18.748-4.687,41.19-48.404,9.932-75.198c-8.513-9.932-19.863-12.769-25.539-15.607
			c-5.675-1.419-5.675-1.419-5.675-2.838c0,0,18.445-4.757,18.445-9.932c0-8.106-29.994-26.825-63.847-4.256
			c-34.926,27.165-29.795,81.715-29.795,76.616c0,0,0,0-2.838-5.675c-28.046-56.092-53.269,44.63,0,97.899
			c5.507,7.342,5.955,5.675-1.419,5.675c-14.236,0-29.877-4.093-43.983,24.12c-6.487,12.973,10.48-2.88,36.889,15.607
			c14.188,9.932,31.214,29.795,43.983,51.078c44.134,82.752-7.822,137.588-35.471,82.292c-7.252-14.505,18.445-9.112,18.445-15.607
			c0-4.256-4.256-15.607-11.351-18.445c-9.067-6.801-25.725,4.443-21.282,0c7.68-7.68,2.881-19.806-1.419-25.539
			c-4.256-5.675-8.513-9.932-14.188-1.419s-11.351,29.795-2.838,58.172H58.331z"/>
		<path d="M59.212,1625.045c2.235,0.413,4.439,0.709,6.51,0.881c50.946,4.246,90.805-35.47,90.805-35.47s-1.683,22.172,2.838,31.214
			c4.256,8.513,15.607,15.607,21.282,18.445c12.973,6.487-2.88-10.48,15.607-36.889c23.405-33.436,74.935-63.77,116.343-61.009
			c19.863,1.419,38.308,11.351,39.727,22.701s-14.188,25.539-22.701,29.795c-14.505,7.252-9.112-18.445-15.607-18.445
			c-4.256,0-15.607,4.256-18.445,11.351c-4.256,5.675-1.419,14.188,0,18.445c3.019,9.057-0.546-1.419-8.513-1.419
			c-11.516,0-31.865,10.917-18.445,19.863c8.513,5.675,29.795,11.351,58.172,2.838v-1.419c28.376-8.513,63.847-31.214,61.009-53.915
			c-1.419-22.701-41.146-43.983-73.779-51.078c-50.81-11.046-92.486,15.327-116.343,11.35c-8.513-1.419-14.188-7.094-14.188-12.769
			s7.094-11.351,9.932-14.188s4.256-2.838,2.838-4.256s-2.838-2.838-9.932-2.838c-0.099,0-0.198,0-0.297,0c0-0.099,0-0.198,0-0.297
			c0-7.094-1.419-8.513-2.838-9.932s-1.419,0-4.256,2.838s-8.513,9.932-14.188,9.932c-5.675,0-11.351-5.675-12.769-14.188
			c-3.976-23.857,22.396-65.534,11.351-116.343c-7.094-32.633-28.376-72.36-51.078-73.779
			c-22.701-2.838-45.402,32.633-53.915,61.009h-1.419c-8.513,28.376-2.838,49.659,2.838,58.172
			c8.947,13.42,19.863-6.929,19.863-18.445c0-7.967-10.476-11.532-1.419-8.513c4.256,1.419,12.769,4.256,18.445,0
			c7.094-2.838,11.351-14.188,11.351-18.445c0-6.495-25.697-1.102-18.445-15.607c4.256-8.513,18.445-24.12,29.795-22.701
			s21.282,19.864,22.701,39.727c2.761,41.409-27.573,92.938-61.009,116.343c-26.41,18.487-43.376,2.634-36.889,15.607
			c2.838,5.675,9.932,17.026,18.445,21.282c9.042,4.521,31.214,2.838,31.214,2.838s-39.716,39.858-35.471,90.805
			C58.503,1620.606,58.799,1622.81,59.212,1625.045z"/>
	</g>
</g>
</svg>
