<?xml version="1.0" encoding="UTF-8" standalone="no"?>
<!-- Generator: Adobe Illustrator 16.0.4, SVG Export Plug-In . SVG Version: 6.00 Build 0)  -->

<svg
   version="1.1"
   id="Layer_1"
   x="0px"
   y="0px"
   viewBox="0 0 612 792"
   style="enable-background:new 0 0 612 792;"
   xml:space="preserve"
   xmlns="http://www.w3.org/2000/svg"
   xmlns:svg="http://www.w3.org/2000/svg"
   xmlns:rdf="http://www.w3.org/1999/02/22-rdf-syntax-ns#"
   xmlns:cc="http://creativecommons.org/ns#"
   xmlns:dc="http://purl.org/dc/elements/1.1/"><defs
   id="defs35" />
<g
   id="g28">
	<path
   style="fill-rule:evenodd;clip-rule:evenodd;"
   d="M232.04,141.826c-0.73-8.346-1.46-16.688-2.287-26.151   c2.539-0.599,6.692-1.574,11.236-2.641c0.713,10.155,0.658,19.29,2.166,28.16c1.673,9.819,9.901,14.617,17.756,19.297   c1.627,0.973,3.593,1.696,4.739,3.083c3.95,4.779,7.636,6.795,11.665,0.167c0.34-0.56,1.339-1.129,1.947-1.05   c5.479,0.704,10.968-4.091,16.508,0.147c0.998,0.766,2.884,0.311,4.33,0.576c3.459,0.638,8.126,0.209,10.111,2.297   c4.68,4.929,8.521,2.327,12.549,0.147c9.154-4.952,18.41-9.793,27.09-15.491c2.648-1.737,4.777-6.042,5.02-9.328   c0.674-9.167,0.234-18.417,0.234-28.042c5.256,0,10.047,0,15.34,0c-4.371,6.968-5.555,13.177-5.855,29.574   c4.543-2.688,8.84-4.936,12.822-7.646c11.205-7.632,22.889-14.041,36.131-17.651c15.545-4.241,30.988-8.689,47.15-9.985   c4.703-0.377,9.463-1.015,14.004-2.235c10.582-2.851,20.07,1.688,29.291,4.955c12.025,4.261,23.297,10.66,34.869,16.182   c3.762,1.793,7.809,3.269,11.039,5.773c1.805,1.4,2.197,4.618,3.229,7.017c-2.611,0.963-5.732,3.345-7.744,2.629   c-7.289-2.608-14.273-6.124-21.25-9.544c-10.518-5.155-21.078-10.25-31.318-15.919c-4.695-2.602-9.119-1.882-13.752-1.096   c-17.381,2.952-34.693,6.395-52.139,8.882c-14.133,2.016-25.9,9.272-38.25,15.37c-6.801,3.354-13.561,6.798-20.301,10.264   c-4.281,2.199-5.68,9.606-3.102,13.681c12.639,19.968,25.232,39.962,37.574,60.111c2.092,3.417,3.316,7.537,4.18,11.498   c1.42,6.487-1.25,10.025-7.58,11.93c-8.445,2.537-16.797,5.371-26.812,8.605c4.223,2.392,7.424,4.441,10.818,6.087   c11.795,5.724,23.725,11.167,35.461,16.996c7.52,3.738,9.498,10.517,8.209,18.237c-0.572,3.437,0.844,4.481,3.182,6.661   c4.006,3.738,7.855,8.545,9.572,13.645c3.611,10.719,6.018,21.87,8.512,32.936c2.186,9.704,3.979,19.51,5.602,29.326   c0.541,3.267-0.582,6.831,0.082,10.048c2.168,10.477,7.365,18.997,15.732,26.134c7.502,6.398,15.928,10.487,24.84,14.009   c4.195,1.655,3.98,4.294,1.564,7.06c-2.098,2.399-4.539,4.599-7.184,6.359c-0.779,0.518-3.311-0.33-4.096-1.309   c-3.842-4.799-8.506-7.709-14.162-10.49c-6.654-3.27-11.566-10.045-17.326-15.193c-1.811-1.617-3.734-3.433-5.939-4.192   c-3.088-1.063-4.668-2.419-5.002-5.904c-1.514-15.91-3.23-31.8-5.074-47.677c-0.389-3.348-1.762-6.568-2.414-9.901   c-1.592-8.071-2.777-16.233-4.721-24.22c-0.451-1.869-3.158-4.199-5.027-4.389c-1.451-0.151-4.168,2.435-4.664,4.251   c-1.521,5.626-2.283,11.458-3.271,17.222c-0.828,4.824-2.16,9.662-2.207,14.502c-0.078,8.143,1.143,16.303,0.988,24.439   c-0.213,11.033-0.701,22.112-2.021,33.057c-1.064,8.846-0.463,11.114,7.189,15.127c8.795,4.607,17.932,8.788,26.004,14.463   c6.344,4.461,11.328,10.873,16.816,16.52c0.713,0.732,1.348,2.172,1.137,3.076c-1.088,4.602-2.58,9.105-3.709,13.697   c-0.965,3.93-1.369,8.016-2.496,11.893c-1.42,4.855-3.453,9.525-4.99,14.354c-1.744,5.492-2.816,11.232-4.936,16.566   c-2.322,5.854-5.766,11.246-8.26,17.039c-4.926,11.436-9.695,22.945-14.229,34.541c-7.363,18.822-14.518,37.73-21.646,56.645   c-0.438,1.164-0.416,3.217,0.311,3.992c8.824,9.414,12.098,23.363,24.439,29.945c0.742,0.395,1.123,3.475,0.713,3.723   c-4.297,2.6-8.787,4.881-13.775,7.539c-0.91-3.117-1.697-5.395-2.229-7.734c-0.895-3.934-2.805-6.617-5.971-9.586   c-4.578-4.295-7.148-10.732-10.555-16.264c-1.068-1.729-1.787-3.771-3.158-5.188c-5.791-5.967-6.254-7.938-2.861-15.541   c6.145-13.77,12.312-27.531,18.467-41.297c1.197-2.678,2.615-5.289,3.443-8.074c0.295-0.998-0.852-2.426-0.764-2.201   c2.479-3.812,4.945-6.76,6.484-10.131c5.322-11.682,10.572-23.412,15.346-35.322c2.881-7.191,4.979-14.713,7.166-22.162   c2.502-8.531,4.791-17.131,6.984-25.752c0.367-1.434,0.373-3.873-0.488-4.564c-11.334-9.105-22.789-18.087-37.088-22.594   c-2.973,14.156-5.689,28.029-8.896,41.793c-0.91,3.9-3.254,7.465-4.92,11.193c-4.059,9.107-7.74,18.406-12.303,27.254   c-2.377,4.611-6.514,8.279-9.42,12.666c-1.719,2.596-2.566,5.76-3.848,8.654c-0.609,1.367-1.17,2.791-2.01,4.016   c-2.889,4.205-5.816,8.385-8.873,12.467c-1.254,1.676-1.51,5.26-5.332,3.16c-0.412-0.225-2.428,1.879-3.299,3.176   c-4.977,7.42-9.736,14.988-14.775,22.367c-1.988,2.912-3.967,5.912-8.664,5.172c-1.439-0.229-3.881,2.094-4.928,3.818   c-5.119,8.436-13.43,13.027-21.378,17.947c-1.984,1.227-5.135,0.893-7.725,0.766c-8.62-0.428-17.29-0.623-25.826-1.768   c-9.872-1.324-15.799-9.152-22.578-15.377c-3.725-3.42-6.12-7.521-12.326-8.814c-4.477-0.934-8.365-7.131-11.455-11.699   c-3.774-5.584-6.435-11.922-9.593-17.924c-0.173-0.328-0.409-0.73-0.717-0.867c-12.898-5.789-13.141-19.834-19.566-29.844   c-1.433-2.232-3.652-3.949-5.396-6.002c-1.035-1.221-2.134-2.516-2.71-3.973c-1.986-5.035-3.757-10.152-5.619-15.236   c-0.128-0.354-0.413-0.658-0.504-1.018c-2.946-11.662-6.35-23.234-8.661-35.021c-1.839-9.408-2.418-19.074-3.414-28.641   c-0.638-6.11-3.515-8.01-8.46-5.303c-12.378,6.775-24.75,13.557-37.613,20.604c1.977,9.182,3.878,18.398,5.96,27.57   c2.382,10.518,4.788,21.033,7.433,31.486c2.549,10.072,5.371,20.07,8.146,30.078c2.917,10.537,5.462,21.203,9.017,31.523   c3.496,10.148,7.413,20.26,12.326,29.781c4.513,8.744,3.989,13.031-3.499,19.234c-2.54,2.104-3.292,6.467-4.637,9.887   c-3.012,7.652-3.862,16.004-8.727,23.156c-1.797,2.645-0.612,7.312-0.834,12.107c0,0-1.397,0.979-2.707,0.871   c-3.96-0.338-7.885-1.094-11.822-1.689c0.716-3.107,1.083-6.35,2.216-9.299c3.44-8.955,7.174-17.795,10.791-26.682   c0.076-0.176,0.092-0.385,0.2-0.533c9.508-12.852,1.391-25.148-1.438-37.473c-2.062-8.973-5.309-17.666-7.809-26.543   c-2.036-7.232-3.859-14.533-5.574-21.848c-2.367-10.094-4.327-20.287-6.86-30.34c-2.91-11.553-6.308-22.982-9.348-34.506   c-0.455-1.725,0.088-3.689-0.18-5.492c-1.542-10.408-3.312-20.783-4.674-31.215c-0.216-1.643,0.739-4.244,2.032-5.15   c7.594-5.31,15.196-10.703,23.287-15.184c8.117-4.494,16.915-7.754,25.169-12.021c1.853-0.959,3.767-3.836,3.826-5.885   c0.436-14.975,0.462-29.961,0.508-44.944c0.045-15.337,1.833-30.743-1.417-45.965c-0.563-2.638-1.889-5.119-2.861-7.668   c-0.756,0.124-1.512,0.249-2.269,0.373c-0.398,2.258-0.72,4.53-1.214,6.765c-3.96,17.86-6.984,35.812-8.091,54.147   c-0.445,7.407-2.972,14.856-5.613,21.89c-1.332,3.551-5.439,5.958-7.554,9.344c-4.179,6.697-8.051,13.196-14.843,18.104   c-4.428,3.2-6.677,9.408-9.688,13.945c-3.804-1.109-7.822-2.213-11.782-3.502c-0.766-0.252-1.856-1.287-1.8-1.862   c0.091-0.949,0.828-2.013,1.59-2.688c7.377-6.503,15.115-12.538,20.329-21.265c2.045-3.423,6.055-5.652,9.053-8.542   c0.906-0.874,2.288-2.608,1.99-3.168c-4.664-8.775,2.34-15.995,3.194-24.004c1.244-11.704,2.848-23.598,6.35-34.765   c4.147-13.213,5.711-27.817,16.453-38.359c0.874-0.857,0.953-3.1,0.622-4.52c-2.491-10.774-1.941-13.733,7.247-18.849   c9.999-5.571,20.643-9.983,30.981-14.941c4.036-1.934,8.016-3.989,12.022-5.989c0-0.632,0-1.264,0.003-1.896   c-4.196-1.502-8.398-2.991-12.588-4.506c-3.741-1.353-7.515-2.629-11.197-4.118c-3.836-1.551-5.341-4.543-3.4-8.238   c2.615-4.979,5.099-10.278,8.817-14.369c10.811-11.894,22.302-23.166,33.335-34.86c5.174-5.486,10.087-11.243,14.718-17.193   c1.166-1.499,1.346-4.3,0.992-6.333c-0.91-5.276-2.373-10.458-3.614-15.674C232.805,145.643,232.422,143.735,232.04,141.826z    M233.188,181.815c-2.838,1.997-7.865,2.435-5.708,7.996c-2.313,1.165-5.007,1.908-6.866,3.574   c-6.212,5.567-12.253,11.34-18.105,17.284c-3.591,3.643-6.72,7.741-10.435,12.078c1.434,0.18,1.941,0.399,2.115,0.246   c10.801-9.826,21.605-19.648,32.291-29.598c0.776-0.72,0.684-2.366,0.999-3.583c2.285-2.285,4.569-4.569,6.854-6.854   c3.021-2.743,6.042-5.486,9.063-8.228c-0.557-0.553-1.11-1.11-1.663-1.663C236.39,173.208,234.77,177.488,233.188,181.815z    M115.565,466.244c0.029,8.258,2.893,15.684,5.767,23.107c0.501-0.135,1.004-0.271,1.509-0.408   c-2.059-7.938-4.118-15.875-6.176-23.814c-0.661-4.177-1.323-8.354-1.983-12.525c-0.704,0.141-1.404,0.281-2.111,0.422   C113.569,457.434,114.567,461.84,115.565,466.244z M140.655,570.23c0.937,5.471,1.801,10.959,2.919,16.393   c0.105,0.508,2.013,1.186,2.691,0.887c0.71-0.314,1.525-1.881,1.302-2.592c-1.793-5.701-3.816-11.324-5.77-16.973   c-0.929-10.402-0.929-10.402-5.855-13.77C137.795,560.492,139.225,565.359,140.655,570.23z M449.23,116.35   c-0.154-0.825-0.309-1.649-0.463-2.474c-4.941,0.985-9.883,1.97-14.824,2.956c0.133,0.648,0.264,1.296,0.395,1.944   c4.965-0.808,9.926-1.617,14.604-3.986c0.098,0.478,0.199,0.959,0.299,1.437c10.676-2.016,21.352-4.033,32.027-6.052   c-0.156-0.753-0.311-1.509-0.467-2.265C470.285,110.691,458.879,109.248,449.23,116.35z M144.083,349.748   c1.938-8.121,3.878-16.244,5.816-24.368c-1.047-0.222-2.098-0.445-3.148-0.667c-1.649,8.726-3.299,17.455-4.949,26.18   c-2.91,12.29-5.976,24.547-8.546,36.909c-0.341,1.64,1.84,3.803,2.851,5.725c0.893-0.197,1.79-0.39,2.684-0.586   c2.072-13.315,4.173-26.622,6.156-39.946C145.097,351.976,144.39,350.83,144.083,349.748z M324.586,412.592   c-7.793,6.986-11.714,16.443-17.105,24.965c0.551,0.416,1.104,0.835,1.654,1.254c5.189-6.11,10.381-12.221,15.574-18.332   c0.729-0.596,1.576-1.086,2.164-1.797c10.801-12.986,21.654-25.935,32.316-39.036c6.783-8.327,13.285-16.879,19.895-25.349   c3.109-3.983,6.107-8.055,9.266-12.002c5.131-6.408,10.414-12.699,15.465-19.169c0.631-0.812,0.75-3.073,0.186-3.525   c-0.959-0.772-2.887-1.233-3.977-0.785c-3.314,1.368-6.494,3.109-9.6,4.925c-6.188,3.61-12.42,7.175-18.377,11.145   c-3.238,2.157-6.795,4.608-8.693,7.819c-3.033,5.135-4.602,11.115-7.16,16.561c-4.65,9.911-9.012,20.024-14.549,29.434   C336.699,397.097,330.326,404.658,324.586,412.592z M401.121,345.178c2.713-2.288,4.541-4.743,0.994-9.322   c-1.309,3.263-2.295,5.722-3.279,8.179c-1.367,1.271-3.125,2.311-4.031,3.855c-2.547,4.331-5.012,8.206-10.799,8.975   c-1.531,0.203-2.943,3.525-3.865,5.652c-1.355,3.113-1.502,6.968-3.43,9.573c-5.211,7.047-11.068,13.612-16.732,20.318   c-0.545,0.652-1.623,1.473-2.26,1.332c-5.211-1.155-5.146,2.936-6.242,5.977c-0.605,1.686-1.127,3.538-2.209,4.896   c-5.418,6.797-10.836,13.608-16.641,20.072c-1.947,2.17-5.07,3.267-7.562,4.981c-0.992,0.681-2.609,1.901-2.465,2.557   c1.209,5.521-3.078,6.12-6.416,7.708c-1.305,0.621-2.742,1.371-3.6,2.468c-2.972,3.813-5.463,8.022-8.602,11.685   c-5.587,6.525-5.734,10.221,0.037,16.768c-2.374-0.361-4.747-0.721-7.166-1.088c-2.196,6.045-7.429,7.217-12.476,6.586   c-5.178-0.645-8.369,0.998-11.011,5.012c-1.996,3.027-3.894,6.172-6.261,8.895c-2.693,3.1-6.457,5.387-8.69,8.74   c-4.268,6.416-7.124,13.836-11.772,19.924c-5.544,7.264-8.735,14.244-9.544,23.92c-0.743,8.932-0.455,16.764,1.859,25.375   c5.597,20.809,18.917,35.027,37.711,43.199c17.255,7.504,25.454,6.572,38.604-6.664c13.766-13.852,25.424-29.691,34.379-47.252   c1.17-2.287,1.459-5.02,2.16-7.547c0.115-0.154,0.24-0.305,0.371-0.445c0.248-1.314,1.086-2.883,0.65-3.906   c-2.1-4.967-4.486-9.812-6.879-14.65c-9.773-19.746-23.625-36.457-38.752-52.252c-1.627-1.699-2.151-4.453-3.184-6.715   c14.694,9.236,23.075,24.328,33.512,37.326c6.914,8.617,11.037,19.5,16.238,29.459c3.684,7.053,5.84,7.475,9.98,0.939   c6.359-10.037,12.555-20.193,18.4-30.537c1.83-3.232,2.301-7.229,3.318-10.619c1.797-2.352,4.441-4.492,5.328-7.209   c3.578-10.957,7.172-21.967,9.715-33.189c3.332-14.729,6.668-29.578,8.205-44.559c1.836-17.887,1.898-35.963,2.418-53.968   c0.096-3.273-1.305-6.585-2.016-9.88c3.463-4.799,2.719-10.114,2.896-15.318c-0.818-0.108-1.637-0.216-2.451-0.324   c-0.529,4.831-1.061,9.665-1.586,14.499c-1.078,1.97-2.705,3.83-3.135,5.931c-2.359,11.596-4.453,23.241-6.584,34.883   c-1.617,8.843-2.402,17.916-4.861,26.514c-5.785,20.194-12.152,40.234-18.736,60.187c-1.656,5.014-5.025,9.465-7.607,14.178   c-0.732-0.324-1.463-0.645-2.191-0.965c0.293-1.689,0.301-3.496,0.932-5.051c3.127-7.717,7.125-15.156,9.502-23.087   c5.201-17.376,9.779-34.948,14.27-52.528c2.59-10.145,4.566-20.455,6.717-30.712c1.861-8.887,0.736-18.312,5.135-26.789   C402.213,349.632,401.264,347.198,401.121,345.178z M343.547,333.375c0.039-0.311,0.074-0.625,0.113-0.936   c0.949-0.059,1.908-0.242,2.844-0.164c11.303,0.976,21.5-1.129,31.002-8.124c6.883-5.063,14.65-9.633,22.73-12.186   c9.607-3.037,15.416-9.357,20.254-17.173c2.385-3.859,1.299-8.474-2.436-10.617c-10.785-6.187-22.047-11.534-32.961-17.501   c-10.76-5.885-21.822-11.426-31.795-18.469c-6.188-4.369-10.561-11.292-15.824-17.003c-5.279-5.734-6.994-5.682-10.883,1.06   c-3.434,5.948-8.584,9.512-15.026,10.045c-8.316,0.688-16.819-0.602-25.093,0.292c-12.506,1.355-22.207-1.597-30.082-12.202   c-5.404-7.279-7.914-6.208-14.378,0.504c-8.988,9.328-17.789,19-29.836,24.688c-11.413,5.387-22.809,10.81-34.203,16.236   c-2.402,1.146-4.883,2.187-7.125,3.601c-5.685,3.574-10.012,12.886-7.155,16.29c5.983,7.125,12.562,14.244,21.942,16.332   c10.31,2.298,18.96,6.792,26.786,13.733c5.073,4.5,10.598,8.654,18.162,8.382c16.97-0.619,33.947-1.132,50.923-1.447   c7.898-0.147,15.838-0.134,23.697,0.524C318.01,330.312,330.768,331.965,343.547,333.375z M172.07,312.033   c-0.413,0.092-0.825,0.183-1.237,0.275c2.17,9.275,4.654,18.495,6.425,27.846c1.892,9.996,3.42,20.085,4.503,30.203   c0.576,5.378-0.841,10.994-0.095,16.322c1.218,8.657,3.473,17.167,5.292,25.739c1.695,7.985,2.723,16.191,5.237,23.908   c5.178,15.895,11.22,31.506,16.669,47.314c0.48,1.395-0.776,3.387-1.225,5.102c-1.479-1.201-3.78-2.123-4.31-3.656   c-3.411-9.857-6.385-19.869-9.603-29.799c-1.803-5.561-4.308-10.941-5.601-16.607c-3.194-13.988-5.838-28.102-8.777-42.148   c-1.067-5.106-2.772-10.117-3.375-15.266c-0.383-3.273,1.371-6.785,1.047-10.081c-1.146-11.776-2.694-23.516-4.291-35.243   c-0.255-1.885-1.525-3.633-2.874-6.683c-0.923,2.379-1.414,3.06-1.42,3.744c-0.114,10.611-0.209,21.222-0.216,31.833   c-0.003,4.635,0.438,9.279,0.251,13.9c-0.2,4.899-1.397,9.789-1.296,14.663c0.242,11.518,0.642,23.055,1.666,34.523   c0.737,8.244,1.967,16.551,4.075,24.54c3.901,14.78,8.267,29.464,13.134,43.95c2.245,6.689,7.021,12.561,9.063,19.283   c3.073,10.127,8.948,18.275,15.511,26.096c3.315,3.951,6.375,3.148,8.5-1.555c0.854-1.896,1.794-3.783,2.956-5.496   c9.083-13.389,17.871-27.004,27.5-39.994c5.679-7.66,12.391-14.65,19.268-21.291c4.778-4.619,6.657-11.576,2.514-16.859   c-5.125-6.533-10.872-12.571-16.021-19.084c-6.438-8.143-12.692-16.439-18.744-24.875c-6.353-8.854-11.727-18.492-18.767-26.73   c-4.35-5.093-2.786-13.77-10.634-16.365c-0.291-0.098-0.082-1.728-0.101-2.645c-0.112-4.506-2.275-7.141-6.213-9.694   c-3.43-2.222-5.652-6.542-7.927-10.234c-1.525-2.478-1.833-5.701-3.341-8.198c-3.152-5.221-6.766-10.163-10.134-15.252   C176.965,319.718,174.534,315.863,172.07,312.033z M357.207,337.585c-43.973-0.913-86.988-1.81-131.946-2.746   c4.628,11.782,8.088,21.761,12.418,31.344c7.439,16.46,14.152,33.453,23.529,48.78c9.547,15.608,12.84,32.966,18.338,49.729   c1.247,3.797,2.74,6.346,6.405,6.814c4.225,0.539,5.97-2.697,7-6.156c1.019-3.428,1.839-6.912,2.685-10.393   c4.431-18.23,13.625-34.146,25.224-48.484c12.004-14.847,22.949-30.05,28.707-48.525   C351.627,351.334,354.418,344.949,357.207,337.585z M334.09,218.119c0.639,1.562,0.889,3.509,1.98,4.619   c5.977,6.055,12.068,12.005,18.352,17.736c1.283,1.172,3.783,2.115,5.328,1.702c9.865-2.638,19.588-5.793,29.42-8.558   c5.225-1.47,4.979-4.475,2.639-8.094c-11.189-17.314-22.576-34.5-33.551-51.942c-1.719-2.733-1.637-6.579-2.475-9.888   c-0.533-2.101-1.23-4.16-1.855-6.234c-1.883,0.572-3.982,0.782-5.607,1.78c-5.318,3.263-10.195,7.37-15.771,10.034   c-3.225,1.539-4.664,3.27-5.404,6.445c-1.408,6.029-2.762,12.097-4.715,17.959c-1.199,3.606,1.328,11.979,5.086,12.836   C333.881,207.966,334.191,212.889,334.09,218.119z M297.272,201.391c-0.831-0.229-1.666-0.462-2.497-0.694   c0.324-3.479,1.986-7.581,0.709-10.313c-3.083-6.608-0.38-12.87-0.665-19.238c-0.074-1.729-1.957-3.375-3.011-5.054   c-0.573,0.266-1.148,0.531-1.721,0.792c-1.169,12.67-2.334,25.336-3.502,38.006c-0.898-0.033-1.797-0.069-2.697-0.102   c-3.194-12.159,3.521-24.832-0.033-38.126c-2.844,1.689-4.985,2.739-6.879,4.127c-6.604,4.844-4.985,12.657-6.922,19.218   c-1.015,3.443-2.402,7.6-5.021,9.583c-6.85,5.181-4.307,5.489-0.556,9.773c1.253,1.434,3.354,3.996,2.916,4.7   c-1.378,2.206-3.504,4.435-5.858,5.414c-2.507,1.041-5.603,0.665-8.958,0.953c3.872,2.932,7.04,5.622,10.526,7.812   c1.226,0.773,3.223,0.403,4.87,0.41c2.247,0.01,4.494-0.121,6.741-0.19c-0.075,2.022-0.134,4.045-0.236,6.068   c-0.032,0.71-0.166,1.414-0.33,2.726c10.274,0.487,20.209,0.959,28.608,1.358c2.114-4.569,3.489-8.516,5.856-11.734   c0.415-0.566,4.997,1.938,8.411,3.332c2.141-2.438,4.957-5.649,7.93-9.037c-6.631-1.548-8.781-4.196-6.781-9.485   c1.473-3.908,0.33-6.48-1.869-9.334c-1.129-1.463-2.359-3.149-2.664-4.891c-1.267-7.18-2.493-14.391-3.142-21.644   c-0.452-5.06-3.646-7.021-7.682-7.607c-0.916-0.13-3.325,3.477-3.43,5.447c-0.351,6.781,0.22,13.609,0.003,20.403   C299.311,196.527,298.015,198.953,297.272,201.391z M246.726,161.156c0.226,3.535,0.484,5.768,0.481,7.999   c-0.003,2.379,0.537,5.204-0.521,7.06c-5.586,9.806-13.418,17.749-21.754,25.277c-8.867,8.005-17.514,16.25-26.184,24.468   c-1.267,1.204-2.118,2.847-3.161,4.287c1.721,1.012,3.325,2.429,5.184,2.966c7.076,2.042,14.28,3.643,21.336,5.744   c2.526,0.752,3.75,0.812,5.554-1.666c2.68-3.679,6.137-6.919,9.717-9.78c3.42-2.729,7.423-4.736,11.095-7.011   c-2.546-8.271-2.022-11.995,3.221-15.278c7.704-4.818,11.249-10.722,8.801-20.158c-1.329-5.116-0.647-10.735-1.132-16.106   c-0.099-1.1-1.13-2.517-2.128-3.061C254.45,164.38,251.455,163.245,246.726,161.156z M263.967,434.771   c0.589-0.393,1.179-0.785,1.768-1.178c-2.861-4.71-6.051-9.25-8.514-14.156c-6.958-13.871-13.802-27.806-20.331-41.883   c-3.96-8.542-7.573-17.278-10.749-26.141c-2.922-8.16-4.428-16.754-13.563-21.15c-5.056-2.432-9.197-6.7-14.106-9.521   c-4.552-2.615-9.576-4.405-14.394-6.562c-0.629,0.667-1.261,1.329-1.892,1.996c1.6,4.059,2.664,8.451,4.926,12.104   c3.25,5.253,7.541,9.855,11.089,14.941c7.754,11.105,15.281,22.367,22.969,33.518c8.428,12.224,16.741,24.54,25.48,36.539   C252.057,420.708,258.171,427.623,263.967,434.771z M160.199,422.027c-15.03,7.727-29.5,15.17-44.234,22.744   c1.875,3.475,3.011,5.576,4.314,7.992c2.115-0.757,4.163-1.225,5.954-2.174c9.472-5.014,18.792-10.31,28.33-15.193   C162.087,431.545,162.191,431.748,160.199,422.027z M234.543,527.232c-7.223,4.059-10.241,10.816-13.249,17.828   c-1.917,4.467-1.892,8.342,0.318,12.473c3.829,7.166,7.488,14.422,11.465,21.504c1.489,2.654,3.663,4.922,5.525,7.367   c0.432-0.336,0.864-0.678,1.299-1.018c-3.05-9.404-7.8-18.648-8.677-28.248C230.331,547.404,233.267,537.32,234.543,527.232z    M454.643,454.465c-5.158-3.812-10.807-8.467-16.941-12.361c-4.859-3.086-10.213-5.473-15.555-7.666   c-1.475-0.602-3.686,0.6-5.559,0.973c0.75,2.156,1.166,4.529,2.365,6.398c0.836,1.299,2.797,1.843,4.184,2.821   c7.637,5.378,15.174,10.899,22.953,16.061c1.195,0.788,3.975,0.612,5.109-0.278C452.705,459.227,453.32,456.903,454.643,454.465z    M423.258,566.701c-0.453-0.4-0.912-0.801-1.367-1.201c-1.609,1.639-3.84,3.002-4.727,4.969   c-6.502,14.416-12.986,28.854-18.885,43.52c-1.51,3.748-4.945,8.016-1.061,13.158c1.346-0.959,3.139-1.541,3.582-2.658   C408.383,605.268,415.803,585.979,423.258,566.701z M188.169,240.002c9.783,7.191,24.197,9.073,29.624,3.28   c-7.688-2.331-15.01-4.366-22.194-6.795C191.883,235.23,189.891,236.545,188.169,240.002z M443.553,354.601   c-0.777,0.164-1.557,0.33-2.332,0.497c1.309,9.295,2.73,18.574,3.875,27.886c0.553,4.47,0.465,9.017,0.887,13.508   c0.494,5.305,1.764,6.666,5.088,6.683c-0.848-8.157-1.393-16.414-2.652-24.563C447.174,370.55,445.207,362.6,443.553,354.601z    M150.903,593.203c-0.625,0.045-1.25,0.094-1.878,0.139c-0.55,1.729-1.888,3.646-1.515,5.146c1.83,7.406,3.868,14.787,6.441,21.961   c0.507,1.414,3.685,1.873,6.922,3.369C160.591,611.531,152.183,603.564,150.903,593.203z M369.932,245.252   c5.234,4.697,17.49,3.22,26.377-2.904c-2.006-3.613-4.848-5.253-8.926-3.757C381.719,240.673,376.102,242.889,369.932,245.252z    M438.793,525.314c-0.512-0.209-1.025-0.418-1.537-0.629c-4.908,12.059-9.814,24.115-14.725,36.174   c0.635,0.252,1.271,0.508,1.906,0.76C431.201,550.322,436.674,538.502,438.793,525.314z M132.765,545.297   c1.001-0.256,2.006-0.514,3.005-0.773c-2.416-9.557-4.835-19.113-7.25-28.672c-0.763,0.193-1.522,0.391-2.285,0.586   C128.412,526.057,130.588,535.676,132.765,545.297z M500.137,112.9c-0.168,0.481-0.33,0.959-0.498,1.44   c8.146,4.14,16.297,8.284,24.443,12.427c0.414-0.877,0.832-1.754,1.242-2.631C516.93,120.392,508.535,116.645,500.137,112.9z    M446.434,499.227c0.881,0.242,1.758,0.484,2.635,0.729c2.504-6.236,5.361-12.393,2.672-19.926   C449.973,486.428,448.201,492.828,446.434,499.227z M248.699,505.295c-0.242-0.293-0.484-0.58-0.73-0.871   c-2.412,2.801-4.978,5.488-7.138,8.473c-0.592,0.814,0.032,2.508,0.098,3.797c0.903-0.678,2.115-1.172,2.658-2.068   C245.419,511.592,247.013,508.416,248.699,505.295z M248.525,596.463c-0.461,0.424-0.92,0.848-1.378,1.271   c3.711,3.254,7.423,6.504,11.135,9.754c0.333-0.379,0.667-0.762,1.001-1.148C255.697,603.047,252.109,599.754,248.525,596.463z    M125.302,509.734c0.782-0.205,1.567-0.412,2.354-0.621c-0.894-3.348-1.787-6.695-2.678-10.047   c-0.612,0.166-1.227,0.33-1.839,0.494C123.858,502.951,124.579,506.344,125.302,509.734z M376.18,192.102   c0.572-0.356,1.143-0.713,1.713-1.067c-2.766-3.744-5.535-7.485-8.301-11.229c-0.383,0.269-0.766,0.537-1.148,0.805   C371.023,184.443,373.602,188.273,376.18,192.102z"
   id="path2" />
	<path
   style="fill-rule:evenodd;clip-rule:evenodd;"
   d="M232.04,141.826c0.383,1.909,0.766,3.817,1.149,5.722   c-2.583,0.19-5.577,1.318-7.675,0.399c-8.615-3.774-16.839-8.435-25.431-12.277c-11.242-5.024-22.426-10.46-34.149-14.034   c-7.774-2.367-16.454-1.741-24.721-2.524c-12.248-1.161-24.488-2.409-36.739-3.544c-1.224-0.115-2.785-0.151-3.702,0.484   c-11.655,8.074-23.031,16.564-34.886,24.331c-5.967,3.911-12.663,6.792-19.245,9.639c-1.532,0.665-3.94-0.694-5.947-1.123   c0.69-1.8,0.854-4.288,2.157-5.296c8.533-6.578,17.045-13.249,26.085-19.081c8.621-5.564,18.364-9.459,26.714-15.357   c8.559-6.042,17.347-4.792,26.479-3.718c10.499,1.237,21.186,1.66,31.446,3.97c12.847,2.897,25.617,6.645,37.901,11.38   c8.882,3.427,16.865,9.161,25.349,13.674C221.792,137.117,226.96,139.388,232.04,141.826z M146.852,115.41   c0.075-0.985,0.151-1.97,0.229-2.955c-12.424-0.956-24.848-1.911-37.273-2.871c-0.055,0.632-0.111,1.261-0.167,1.892   C122.046,112.789,134.45,114.102,146.852,115.41z M63.398,133.5c0.415,0.546,0.834,1.093,1.25,1.64   c4.883-3.263,9.764-6.522,14.646-9.786c-0.409-0.603-0.815-1.202-1.221-1.801C73.18,126.869,68.288,130.185,63.398,133.5z"
   id="path4" />
	<path
   style="fill-rule:evenodd;clip-rule:evenodd;"
   d="M315.67,515.734c-1.014-4.213-1.836-6.922-2.248-9.697   c-0.139-0.955,0.752-2.062,1.172-3.1c1.754,1.561,4.225,2.818,5.07,4.771c0.85,1.977,0.5,4.771-0.168,6.953   C319.254,515.457,316.584,515.506,315.67,515.734z"
   id="path6" />
	<path
   style="fill-rule:evenodd;clip-rule:evenodd;"
   d="M351.812,549.953c-4.189,0.809-9.512-3.613-12.564,2.725   c-0.141,0.293-1.658,0.369-1.992,0.021c-0.531-0.543-0.98-1.643-0.787-2.316c0.553-1.955,1.443-3.811,2.383-6.156   c4.402,1.846,10.307-0.465,13.332,5.281C352.053,549.648,351.928,549.799,351.812,549.953z"
   id="path8" />
	<path
   style="fill-rule:evenodd;clip-rule:evenodd;"
   d="M326.713,536.266c1.27-3.787,2.539-7.576,4.137-12.352   c2.779,2.979,4.504,4.828,6.268,6.717c-3.111,2.041-6.098,3.998-9.086,5.959C327.594,536.482,327.154,536.375,326.713,536.266z"
   id="path10" />
	<path
   style="fill-rule:evenodd;clip-rule:evenodd;"
   d="M318.188,556.264c-1.682,3.889-2.934,6.779-4.436,10.252   C309.889,561.48,311.18,558.357,318.188,556.264z"
   id="path12" />
	<path
   style="fill-rule:evenodd;clip-rule:evenodd;"
   d="M287.565,543.074c2.048,6.482,1.205,8.119-4.786,9.168   C284.161,549.594,285.546,546.943,287.565,543.074z"
   id="path14" />
	<path
   style="fill-rule:evenodd;clip-rule:evenodd;"
   d="M307.652,542.871c-0.967,2.189-1.879,4.404-3.009,6.51   c-0.078,0.146-1.738-0.553-2.66-0.861c0.822-2.287,1.643-4.574,2.465-6.863C305.514,542.062,306.584,542.469,307.652,542.871z"
   id="path16" />
	<path
   style="fill-rule:evenodd;clip-rule:evenodd;"
   d="M261.536,534.807c0.196,2.277,0.491,4.555,0.458,6.83   c-0.004,0.252-1.833,0.484-2.818,0.723c-0.173-2.434-0.349-4.865-0.526-7.301C259.61,534.973,260.573,534.889,261.536,534.807z"
   id="path18" />
	<path
   style="fill-rule:evenodd;clip-rule:evenodd;"
   d="M290.151,538.998c0.396-3.572,0.661-5.943,0.922-8.312   c0.543-0.02,1.087-0.039,1.627-0.059c1.263,1.934,2.523,3.871,3.974,6.098C294.988,537.311,293.434,537.854,290.151,538.998z"
   id="path20" />
	<path
   style="fill-rule:evenodd;clip-rule:evenodd;"
   d="M306.646,592.211c1.607-3.404,2.727-5.781,4.324-9.168   C313.602,589.059,312.551,591.268,306.646,592.211z"
   id="path22" />
	<path
   style="fill-rule:evenodd;clip-rule:evenodd;"
   d="M299.108,509.215c2.22-1.357,4.441-2.717,6.661-4.074   c0.449,0.396,0.897,0.789,1.342,1.184c-1.009,1.752-1.666,3.98-3.155,5.07c-0.904,0.662-3.097-0.438-4.71-0.75   C299.2,510.17,299.155,509.693,299.108,509.215z"
   id="path24" />
	<path
   style="fill-rule:evenodd;clip-rule:evenodd;"
   d="M274.631,566.92c0.644-2.18,1.289-4.359,2.468-8.338   c1.666,2.902,3.436,4.67,3.077,5.672c-0.557,1.537-2.572,2.549-3.967,3.785C275.684,567.668,275.158,567.291,274.631,566.92z"
   id="path26" />
</g>
<metadata
   id="metadata30"><rdf:RDF><cc:Work><dc:format>image/svg+xml</dc:format><dc:type
         rdf:resource="http://purl.org/dc/dcmitype/StillImage" /><cc:license
         rdf:resource="http://creativecommons.org/licenses/publicdomain/" /><dc:publisher><cc:Agent
           rdf:about="http://openclipart.org/"><dc:title>Openclipart</dc:title></cc:Agent></dc:publisher></cc:Work><cc:License
       rdf:about="http://creativecommons.org/licenses/publicdomain/"><cc:permits
         rdf:resource="http://creativecommons.org/ns#Reproduction" /><cc:permits
         rdf:resource="http://creativecommons.org/ns#Distribution" /><cc:permits
         rdf:resource="http://creativecommons.org/ns#DerivativeWorks" /></cc:License></rdf:RDF></metadata></svg>
