<?xml version="1.0" encoding="UTF-8" standalone="no"?>
<svg
   height="3546"
   viewBox="0 0 3546 3546"
   width="3546"
   version="1.1"
   id="svg4"
   xmlns="http://www.w3.org/2000/svg"
   xmlns:svg="http://www.w3.org/2000/svg">
  <defs
     id="defs8" />
  <path
     d="m1768.2 3538.8c-3.3498-5.5779-4.7072-9.2797-6.3127-17.214-1.125-5.5597-2.6922-11.527-3.4827-13.26-0.7905-1.7332-1.4483-4.4332-1.4617-6-0.014-1.5669-0.4884-4.8621-1.0554-7.3228-0.567-2.4606-1.6773-9.6606-2.4674-16-2.3151-18.576-3.4197-26.899-4.9799-37.526-0.8076-5.5-1.9105-14.335-2.451-19.634-0.5406-5.2985-1.4205-10.785-1.9554-12.192-0.5349-1.4069-1.2635-6.0718-1.6192-10.366-0.3557-4.2947-1.2365-10.508-1.9573-13.808s-1.6107-9.15-1.9776-13c-0.3668-3.85-1.0757-8.35-1.5753-10s-1.5816-7.725-2.4045-13.5c-1.8448-12.947-3.3824-20.91-9.4612-49-1.1308-5.225-2.9811-13.775-4.1119-19-1.9685-9.0956-3.2702-13.984-7.8543-29.5-3.8919-13.173-10.958-34.996-13.032-40.25-1.1401-2.8875-3.013-7.6125-4.1621-10.5s-2.5836-6.825-3.1879-8.75-1.9141-4.6945-2.9108-6.1544-1.8121-2.9569-1.8121-3.3267c0-3.629-20.886-40.495-29.058-51.29-6.4502-8.5204-6.6492-7.8599 5.9959-19.892 18.736-17.827 34.679-41.659 44.044-65.838 1.7043-4.4 3.7556-9.1944 4.5584-10.654 0.8028-1.4599 1.4749-3.4849 1.4935-4.5 0.019-1.0151 0.9034-3.6457 1.9661-5.8457s1.9672-4.675 2.01-5.5c0.043-0.825 0.7441-3.3 1.5585-5.5s1.8732-5.8 2.3528-8 2.4961-10.525 4.481-18.5c5.2336-21.028 6.403-26.525 7.6249-35.844 0.6017-4.5894 1.453-9.3144 1.8919-10.5 0.4389-1.1857 1.0995-5.5788 1.4681-9.7625s1.1008-9.1082 1.6271-10.943c0.5264-1.8351 1.4356-8.0425 2.0207-13.794 0.5851-5.7517 1.6728-13.202 2.4172-16.557 0.7444-3.3545 1.6564-10.599 2.0267-16.099 0.3702-5.5 1.1191-12.25 1.664-15 0.545-2.75 1.3639-9.725 1.8198-15.5 1.1141-14.113 3.7611-36.578 5.5376-47 0.797-4.675 1.7199-11.2 2.051-14.5 1.0466-10.432 5.8759-20.01 11.094-22.002 9.8862-3.7755 18.137 5.3913 19.803 22.002 0.3311 3.3 1.254 9.825 2.051 14.5 1.7765 10.422 4.4235 32.887 5.5376 47 0.4559 5.775 1.2748 12.75 1.8198 15.5 0.5449 2.75 1.2938 9.5 1.664 15 0.3703 5.5 1.2823 12.745 2.0267 16.099 0.7444 3.3546 1.8321 10.805 2.4172 16.557 0.5851 5.7516 1.4943 11.959 2.0207 13.794 0.5263 1.8351 1.2585 6.7596 1.6271 10.943 0.3686 4.1837 1.0292 8.5768 1.4681 9.7625 0.4389 1.1856 1.2902 5.9106 1.8919 10.5 1.2219 9.3195 2.3913 14.817 7.6249 35.844 1.9849 7.975 4.0014 16.3 4.481 18.5s1.5384 5.8 2.3528 8 1.5157 4.675 1.5585 5.5c0.043 0.825 0.9473 3.3 2.01 5.5s1.9474 4.8306 1.9661 5.8457c0.019 1.0151 0.6907 3.0401 1.4935 4.5s2.8541 6.2543 4.5584 10.654c9.3654 24.179 25.309 48.011 44.044 65.838 12.645 12.032 12.446 11.371 5.9959 19.892-8.1719 10.795-29.058 47.66-29.058 51.29 0 0.3698-0.8154 1.8668-1.8121 3.3267s-2.3065 4.2294-2.9108 6.1544-1.9977 5.75-3.0965 8.5c-5.3313 13.343-6.6391 16.985-10.772 30-8.0147 25.24-11.718 38.256-14.368 50.5-1.1308 5.225-2.9811 13.775-4.1119 19-6.0788 28.09-7.6164 36.053-9.4612 49-0.8229 5.775-1.9049 11.85-2.4045 13.5s-1.2085 6.15-1.5753 10c-0.3669 3.85-1.2568 9.7-1.9776 13s-1.6016 9.5138-1.9573 13.808c-0.3557 4.2947-1.0843 8.9596-1.6192 10.366-0.5349 1.4068-1.4148 6.893-1.9554 12.192-0.5405 5.2984-1.6434 14.134-2.451 19.634-1.5602 10.627-2.6648 18.95-4.9799 37.526-0.7901 6.3394-1.9004 13.539-2.4674 16-0.567 2.4607-1.0419 5.7559-1.0554 7.3228-0.013 1.5668-0.6712 4.2668-1.4617 6-0.7905 1.7331-2.3577 7.7-3.4827 13.26-1.8386 9.087-8.7788 24.32-11.08 24.32-0.275 0-2.4203-3.1977-4.7673-7.106zm10.134-116.57c2.6547-35.062 5.2143-65.55 5.6881-67.75 0.4737-2.2 1.3236-12.325 1.8886-22.5s1.7088-22.027 2.5417-26.338c0.8329-4.3109 1.5127-9.4859 1.5106-11.5 0-3.9043 3.184-22.719 5.5342-32.662 0.7801-3.3 1.6836-7.8 2.0079-10s1.2205-5.8 1.9916-8 1.8096-6.475 2.3078-9.5c1.3334-8.096 4.8407-21.494 9.1623-35 0.9679-3.025 2.758-8.875 3.9779-13 3.8779-13.113 6.284-20.427 7.5662-23 0.6853-1.375 1.7187-4.075 2.2964-6 0.5778-1.925 2.2304-6.65 3.6725-10.5s2.9855-8.1513 3.4297-9.5584c0.4443-1.4072 1.5528-3.9991 2.4634-5.76 2.7479-5.314 2.2741-9.3145-2.1752-18.365-9.3133-18.946-12.772-27.522-17.265-42.816-1.2119-4.125-2.8042-9.075-3.5383-11-1.3739-3.6024-3.7385-12.337-5.9557-22-0.694-3.025-1.741-7.525-2.3266-10s-1.9361-8.55-3.0012-13.5-2.8772-13.275-4.0268-18.5c-4.1449-18.838-6.1168-29.106-6.103-31.778 0.1-4.1-16.2-106.2-16.9-106.2-0.6828 0-17.036 102.09-17.014 106.22 0.014 2.6723-1.9581 12.94-6.103 31.778-1.1496 5.225-2.9617 13.55-4.0268 18.5s-2.4156 11.025-3.0012 13.5-1.6326 6.975-2.3266 10c-2.2172 9.663-4.5818 18.398-5.9557 22-0.7341 1.925-2.3264 6.875-3.5383 11-4.4934 15.294-7.9519 23.871-17.265 42.816-4.4493 9.0509-4.9231 13.051-2.1752 18.365 0.9106 1.7609 2.0191 4.3528 2.4634 5.76 0.4442 1.4071 1.9876 5.7084 3.4297 9.5584s3.0947 8.575 3.6725 10.5c0.5777 1.925 1.6111 4.625 2.2964 6 1.2822 2.5729 3.6883 9.887 7.5662 23 1.2199 4.125 3.01 9.975 3.9779 13 4.3216 13.506 7.8289 26.904 9.1623 35 0.4982 3.025 1.5367 7.3 2.3078 9.5s1.6673 5.8 1.9916 8 1.2278 6.7 2.0079 10c2.3502 9.9429 5.5382 28.758 5.5342 32.662 0 2.0141 0.6777 7.1891 1.5106 11.5s1.9767 16.163 2.5417 26.338 1.4149 20.3 1.8886 22.5c0.4738 2.2 3.0334 32.688 5.6881 67.75s5.0699 63.75 5.3672 63.75 2.7125-28.688 5.3672-63.75zm-232.8-327.8c-24.466-4.8984-33.896-8.9844-49.666-21.522-8.491-6.7502-18.689-17.388-22.379-23.346-1.022-1.65-3.0437-4.575-4.4925-6.5-9.0768-12.06-17.47-35.924-19.872-56.5-2.5716-22.032-2.5335-24.736 0.8192-58.171 1.32-13.164 5.7529-32.02 14.536-61.829 1.3758-4.6695 3.0203-9.2296 9.1958-25.5 1.3569-3.575 2.9093-7.9462 3.4497-9.7139 0.5404-1.7676 1.4159-3.4817 1.9455-3.809 0.5297-0.3273 0.963-1.2623 0.963-2.0778s1.3961-4.5014 3.1024-8.191c1.7064-3.6896 4.4311-9.6333 6.0549-13.208 5.0116-11.034 18.764-37.882 24.443-47.718 2.9696-5.1438 5.3993-9.5977 5.3993-9.8974 0-2.1091 25.638-42.489 38.975-61.384 9.1643-12.984 9.1537-13.252-0.4227-10.7-52.572 14.008-89.671-58.288-47.683-92.922 9.6344-7.9469 9.3906-8.0972 17.228 10.622 11.79 28.161 24.759 28.161 58.076 0 17.608-14.883 22.26-18.442 30.968-23.692 15.152-9.1347 29.4-12.297 41.898-9.299 4.9388 1.1848 5.4596 1.1375 6.7338-0.6125 0.7595-1.0432 6.7551-10.222 13.324-20.397 6.5683-10.175 13.133-20.3 14.587-22.5 8.5947-12.998 15.361-23.637 17.216-27.07 1.1676-2.1613 3.4474-6.1797 5.0662-8.9297 3.4149-5.801 11.035-21.189 11.035-22.284 0-0.4101 0.8371-2.314 1.8602-4.2308 2.0763-3.8902 6.5803-16.734 7.6218-21.735 1.0252-4.9222-1.0657-4.0197-4.2323 1.8269-13.966 25.786-38.568 51.994-66.25 70.576-19.684 13.213-51.591 25.422-70 26.784-35.188 2.6046-58.133-1.6089-82.893-15.222-29.932-16.457-45.188-47.7-41.088-84.15 0.6534-5.8103 1.5272-14.164 1.9419-18.564 0.7295-7.742 2.6632-19.034 5.5653-32.5 0.7704-3.575 1.8956-9.425 2.5004-13s1.5091-8.075 2.0096-10c14.431-55.511 2.6395-87.092-40.702-109.01-20.142-10.187-20.222-10.511-4.0791-16.595 54.858-20.677 92.132 7.8719 92.188 70.608 0.016 17.694-1.2509 25.492-6.9446 42.75-2.7074 8.2063 4.7401 1.7376 29.002-25.19 13.484-14.966 15.54-16.601 18.152-14.433 7.4819 6.2094 1.6085 19.186-17.138 37.862-16.193 16.133-16.31 17.125-1.6605 14.09 25.46-5.2758 51.12 9.2217 57.25 32.345 0.5944 2.2423 1.7648 5.6518 2.6009 7.5768 1.9359 4.4572 2.8051 21.749 1.4577 29-4.8395 26.046-19.855 39.44-44.163 39.394-21.661-0.041-29.706-5.2509-17.368-11.246 25.588-12.432 33.838-49.586 13.943-62.796-46.943-31.171-91.641 39.332-55.742 87.923 17.388 23.536 64.75 32.821 100.67 19.734 2.75-1.002 6.35-2.1141 8-2.4715 43.862-9.4986 97.044-55.562 109.1-94.498 2.8538-9.2152 3.1136-9.0331-5.8605-4.1079-11.293 6.1978-22.042 9.0682-33.961 9.0682h-9.8666l-5.0831-4.75c-20.398-19.061-20.212-35.3 0.4083-35.738 22.849-0.4857 56.76-22.213 56.76-36.367 0-0.4815 0.8511-1.9573 1.8913-3.2797 1.0401-1.3224 3.3282-5.9956 5.0845-10.385 1.7563-4.3893 4.0961-10.23 5.1995-12.98 3.9267-9.7862 8.5421-25.888 11.39-39.737 4.1-19.8 5-20.7 19.5-20.7 14.483 0 15.357 0.934 19.435 20.763 2.8479 13.848 7.4633 29.951 11.39 39.737 1.1034 2.75 3.4432 8.5912 5.1995 12.98 1.7563 4.3893 4.0444 9.0625 5.0845 10.385 1.0402 1.3224 1.8913 2.7982 1.8913 3.2797 0 14.154 33.912 35.881 56.76 36.367 20.62 0.4384 20.806 16.677 0.4083 35.738l-5.0831 4.75h-9.8666c-11.918 0-22.668-2.8704-33.961-9.0682-8.9741-4.9252-8.7143-5.1073-5.8605 4.1079 12.058 38.936 65.24 84.999 109.1 94.498 1.65 0.3574 5.25 1.4695 8 2.4715 35.916 13.086 83.278 3.8019 100.67-19.734 35.899-48.591-8.7994-119.09-55.742-87.923-19.895 13.21-11.645 50.364 13.943 62.796 12.339 5.9947 4.293 11.204-17.368 11.246-24.308 0.046-39.323-13.348-44.163-39.394-1.3474-7.2513-0.4782-24.543 1.4577-29 0.8361-1.925 2.0065-5.3345 2.6009-7.5768 6.1297-23.123 31.79-37.62 57.25-32.345 14.65 3.0357 14.533 2.0437-1.6605-14.09-18.746-18.677-24.62-31.653-17.138-37.862 2.6119-2.1677 4.6678-0.533 18.152 14.433 24.262 26.928 31.71 33.397 29.002 25.19-5.6937-17.258-6.9605-25.056-6.9446-42.75 0.056-62.736 37.331-91.285 92.188-70.608 16.142 6.0845 16.063 6.4086-4.0791 16.595-43.342 21.92-55.134 53.502-40.702 109.01 0.5005 1.925 1.4048 6.425 2.0096 10s1.73 9.425 2.5004 13c2.9021 13.466 4.8358 24.758 5.5653 32.5 0.4147 4.4 1.2885 12.754 1.9419 18.564 4.0992 36.45-11.156 67.693-41.088 84.15-20.569 11.309-40.281 16.177-64.393 15.903-22.276-0.2537-25.018-0.6926-47.843-7.6587-39.934-12.188-85.352-50.585-106.91-90.382-3.1666-5.8466-5.2575-6.7491-4.2323-1.8269 1.0415 5.0009 5.5455 17.845 7.6218 21.735 1.0231 1.9168 1.8602 3.8207 1.8602 4.2308 0 1.0949 7.6201 16.483 11.035 22.284 1.6188 2.75 3.8986 6.7684 5.0662 8.9297 1.8545 3.4329 8.6209 14.073 17.216 27.07 1.4547 2.2 8.0191 12.325 14.587 22.5 6.5684 10.175 12.564 19.354 13.324 20.397 1.2742 1.75 1.795 1.7973 6.7338 0.6125 12.497-2.998 26.745 0.1643 41.898 9.299 8.7087 5.2501 13.361 8.809 30.968 23.692 33.316 28.161 46.286 28.161 58.076 0 7.8369-18.72 7.5931-18.569 17.228-10.622 41.988 34.634 4.889 106.93-47.683 92.922-9.5764-2.5517-9.587-2.284-0.4227 10.7 13.336 18.895 38.975 59.275 38.975 61.384 0 0.2997 2.4297 4.7536 5.3993 9.8974 5.6789 9.8365 19.432 36.685 24.443 47.718 1.6238 3.575 4.3485 9.5187 6.0549 13.208 1.7063 3.6896 3.1024 7.3755 3.1024 8.191s0.4333 1.7505 0.963 2.0778c0.5296 0.3273 1.4051 2.0414 1.9455 3.809 0.5404 1.7677 2.0928 6.1389 3.4497 9.7139 6.1755 16.27 7.82 20.83 9.1958 25.5 8.7832 29.809 13.216 48.664 14.536 61.829 3.3527 33.435 3.3908 36.139 0.8192 58.171-2.4015 20.576-10.795 44.44-19.872 56.5-1.4488 1.925-3.4705 4.85-4.4925 6.5-41.638 67.221-156.59 56.657-160.27-14.729-1.9602-38.015 18.465-68.77 45.674-68.772 39.492 0 48.046 17.481 10.192 20.834-13.654 1.2094-15.032 2.1663-21.053 14.613-20.781 42.961 14.851 78.05 57.649 56.771 29.192-14.514 35.421-35.229 20.512-68.217-8.5373-18.89-10.897-23.054-31.747-56.035-15.046-23.8-25.093-41.417-28.494-49.965-1.2035-3.025-2.7608-6.625-3.4606-8-13.223-25.98-2.2542-63.16 20.332-68.92 5.8636-1.4955 22.906-3.1001 32.814-3.0897 11.577 0.012 11.41 0.7545 3.1369-14.005-3.8494-6.8671-8.5608-15.411-10.47-18.986-1.9089-3.575-4.8553-8.75-6.5473-11.5-1.6921-2.75-4.3076-7.25-5.8123-10-12.052-22.026-43.512-69.19-50.028-75l-2.2429-2 0.5276 3c0.2901 1.65 1.8676 6.6 3.5054 11 14.899 40.025 7.387 62.77-26.902 81.461-4.0473 2.2062-8.089 4.0175-8.9816 4.0252-0.8926 0.01-3.8176 0.9916-6.5 2.1863-8.0236 3.5737-30.634 3.2426-38.838-0.5687-18.935-8.7966-28.117-24.816-14.539-25.367 42.631-1.729 53.113-15.758 39.401-52.736-1.4275-3.85-3.2391-8.8-4.0256-11-0.7864-2.2-1.8407-4.9-2.3427-6-2.5984-5.6935-8.0859-18.826-10.446-25-12.789-33.452-15.176-46.043-11.697-61.715l2.3028-10.375-5.3463-9.7999c-2.9405-5.3899-6.3373-11.445-7.5486-13.455-1.2113-2.0102-2.5244-4.33-2.9181-5.155-0.6763-1.4172-12.899-23.2-21.602-38.5-2.1901-3.85-5.8019-10.375-8.0262-14.5s-5.1573-9.525-6.5177-12-4.7203-8.775-7.4663-14c-15.709-29.891-16.155-30.578-17.179-26.495-0.7362 2.933 1.1073 53.526 2.4775 67.995 1.9381 20.466 3.0609 57.908 2.609 87l-0.466 30-3.1538 7.5c-2.4645 5.8609-4.0932 8.2103-7.4521 10.75-9.3079 7.0377-18.944 2.8365-24.658-10.75l-3.1538-7.5-0.466-30c-0.4519-29.092 0.6709-66.534 2.609-87 1.3702-14.469 3.2137-65.062 2.4775-67.995-1.0247-4.0828-1.47-3.396-17.179 26.495-2.746 5.225-6.1059 11.525-7.4663 14s-4.2934 7.875-6.5177 12-5.8361 10.65-8.0262 14.5c-8.7033 15.3-20.926 37.083-21.602 38.5-0.3937 0.825-1.7068 3.1448-2.9181 5.155-1.2113 2.0103-4.6081 8.065-7.5486 13.455l-5.3463 9.7999 2.3028 10.375c3.4787 15.672 1.0923 28.264-11.697 61.715-2.3604 6.1741-7.8479 19.306-10.446 25-0.502 1.1-1.5563 3.8-2.3427 6-0.7865 2.2-2.5981 7.15-4.0256 11-13.712 36.978-3.2296 51.007 39.401 52.736 13.578 0.5507 4.3959 16.57-14.539 25.367-8.2041 3.8113-30.814 4.1424-38.838 0.5687-2.6824-1.1947-5.6074-2.1785-6.5-2.1863-0.8926-0.01-4.9343-1.819-8.9816-4.0252-34.289-18.691-41.801-41.436-26.902-81.461 1.6378-4.4 3.2153-9.35 3.5054-11l0.5276-3-2.2429 2c-6.516 5.8104-37.976 52.974-50.028 75-1.5047 2.75-4.1202 7.25-5.8123 10-1.692 2.75-4.6384 7.925-6.5473 11.5-1.909 3.575-6.6204 12.118-10.47 18.986-8.2735 14.759-8.4398 14.017 3.1369 14.005 9.9078-0.01 26.95 1.5942 32.814 3.0897 22.586 5.7602 33.554 42.94 20.332 68.92-0.6998 1.375-2.2571 4.975-3.4606 8-3.401 8.5484-13.448 26.166-28.494 49.965-20.851 32.981-23.21 37.145-31.747 56.035-14.909 32.988-8.6799 53.702 20.512 68.217 42.798 21.279 78.43-13.81 57.649-56.771-6.0207-12.446-7.3993-13.403-21.053-14.613-37.854-3.353-29.3-20.837 10.192-20.834 22.12 0 40.14 20.306 45.053 50.762 7.3785 45.738-24.906 78.654-76.607 78.103-4.95-0.053-9.9-0.2761-11-0.4963zm209-352.36c-32.223-10.628-42.507-38.814-23.613-64.722 5.8342-8.0002 18.939-11.548 34.363-9.3043 5.7516 0.8368 9.7484 0.8368 15.5 0 52.368-7.6198 61.09 58.853 9.75 74.309-7.0532 2.1233-29.233 1.949-36-0.2828zm-154.5-424.7c-21.356-3.8611-31.691-20.512-24.84-40.02 7.4976-21.349 24.275-25.993 40.355-11.171 19.998 18.433 8.7403 55.576-15.515 51.191zm339.5-0.2142c-26.668-9.3039-26.576-45.445 0.1471-57.266 26.477-11.712 46.257 31.544 23.101 50.518-5.8681 4.8086-18.39 8.4429-23.248 6.7478zm-218.33-29.56c-55.983-34.516-42.969-80.846 27.83-99.074 53.377-13.742 123.02 25.988 110.11 62.816-6.6705 19.031-42.909 48.467-47.977 38.971-1.9569-3.6669 3.695-20.64 8.9074-26.75 4.1398-4.8525 4.2145-6.0718 0.7488-12.226-7.5088-13.333-19.706-20.51-41.543-24.444-13.434-2.4201-36.553 4.7967-46.54 14.528-9.6493 9.4018-11.749 16.287-6.754 22.142 5.2124 6.1097 10.864 23.083 8.9074 26.75-1.5504 2.905-6.0175 2.0201-13.694-2.7126zm-95.406-25.943c-30.16-6.8902-24.787-53.204 6.1548-53.052 16.515 0.081 22.789 6.9533 21.745 23.819-1.5975 25.811-8.9867 33.553-27.9 29.232zm279.86 0.3715c-8.4-2.5-13.7-15.1-13.7-32.7 0-28.082 40.069-28.777 47.11-0.8179 5.3247 21.146-13.103 39.549-33.49 33.444zm-259.3-52.604c-19.137-6.7807-18.174-36.837 1.46-45.577 18.153-8.0807 30.718-0.016 30.718 19.716 0 20.681-14.32 32.19-32.178 25.862zm232.46-1.2836c-14.058-8.915-15.436-40.139-2.0201-45.756 18.364-7.6892 42.051 12.241 36.344 30.579-4.9482 15.899-21.586 23.255-34.324 15.177zm-134.79-37.328c-0.5276-1.2375-1.4022-7.875-1.9435-14.75-0.5414-6.875-1.4417-14.975-2.0008-18s-1.7459-10-2.6373-15.5c-4.1873-25.835-4.5124-27.421-8.5093-41.5-1.0149-3.575-2.8016-9.875-3.9703-14-12.241-43.204-31.683-78.317-58.437-105.54-16.811-17.105-31.842-27.686-45.341-31.92-1.3905-0.4361-2.9587-2.2179-3.8616-4.3879-7.3752-17.724-14.383-27.577-31.759-44.654-27.222-26.753-62.335-46.196-105.54-58.437-4.125-1.1687-10.425-2.9554-14-3.9703-14.079-3.9969-15.665-4.322-41.5-8.5093-5.5-0.8914-12.475-2.0782-15.5-2.6373s-11.125-1.4594-18-2.0008c-14.568-1.147-17-1.9158-17-5.3734 0-7.1225 29.166-16.875 45.609-15.251 14.558 1.4381 29.548 3.5375 36.418 5.101 22.09 5.0267 26.176 6.0826 33.973 8.7811 4.675 1.6179 10.525 3.5357 13 4.2619 9.5644 2.806 36.019 15.883 50.308 24.868 31.333 19.702 64.819 51.21 79.77 75.055 3.4976 5.5784 5.6385 7.7223 11.366 11.382 24.602 15.719 55.484 48.532 75.224 79.922 8.9848 14.288 22.062 40.743 24.868 50.308 0.7262 2.475 2.644 8.325 4.2619 13 2.6985 7.7974 3.7544 11.883 8.7811 33.973 1.5635 6.8708 3.6629 21.86 5.101 36.418 2.0631 20.886-13.179 56.263-18.681 43.359zm49.624-1.0014c-5.6185-7.3662-11.406-31.166-10.301-42.357 1.4381-14.558 3.5375-29.548 5.101-36.418 5.0267-22.09 6.0826-26.176 8.7811-33.973 1.6179-4.675 3.5357-10.525 4.2619-13 2.806-9.5644 15.883-36.019 24.868-50.308 19.81-31.503 50.612-64.196 75.421-80.049 5.9784-3.8203 8.0691-5.911 11.889-11.889 15.853-24.809 48.546-55.612 80.049-75.421 14.288-8.9848 40.743-22.062 50.308-24.868 2.475-0.7262 8.325-2.644 13-4.2619 7.7974-2.6985 11.883-3.7544 33.973-8.7811 6.8708-1.5635 21.86-3.6629 36.418-5.101 16.443-1.6242 45.609 8.1287 45.609 15.251 0 3.4576-2.4322 4.2264-17 5.3734-6.875 0.5414-14.975 1.4417-18 2.0008s-10 1.7459-15.5 2.6373c-25.835 4.1873-27.421 4.5124-41.5 8.5093-3.575 1.0149-9.875 2.8016-14 3.9703-66.37 18.805-118.53 58.008-137.35 103.22-1.1504 2.7642-2.5974 4.2112-5.3616 5.3616-17.872 7.4381-27.669 14.397-44.786 31.814-26.753 27.222-46.196 62.335-58.437 105.54-1.1687 4.125-2.9554 10.425-3.9703 14-3.9969 14.079-4.322 15.665-8.5093 41.5-0.8914 5.5-2.0782 12.475-2.6373 15.5s-1.4594 11.125-2.0008 18c-1.4064 17.862-4.2738 21.681-10.324 13.749zm-268.95-4.7421c-4.8545-0.4681-9.5795-1.1623-10.5-1.5427-0.9205-0.3803-4.5986-1.4999-8.1736-2.488-12.017-3.3212-27.416-9.6572-34.5-14.195-13.132-8.4122-26.343-20.62-32.983-30.48-1.8304-2.7179-5.4028-6.2913-7.9387-7.9409-9.2987-6.0488-21.971-19.765-30.359-32.86-6.0091-9.3808-13.254-28.725-17.416-46.5-3.6749-15.696-0.8223-51.171 5.1863-64.5 0.9918-2.2 2.1397-5.125 2.551-6.5 3.1687-10.594 20.645-30.874 43.518-50.5 27.104-23.256 38.409-36.338 48.395-56 4.9369-9.7204 12.391-8.6628 18.08 2.5654 3.638 7.1792 2.5833 17.63-3.6615 36.28-2.3426 6.9962-1.5337 8.6542 4.2224 8.6542 7.2129 0 30.2 5.2547 42.406 9.6937 48.683 17.705 68.95 35.488 87.534 76.806 9.0895 20.209 16.966 48.252 16.966 60.406 0 5.7561 1.658 6.565 8.6542 4.2224 18.651-6.2448 29.101-7.2995 36.28-3.6615 11.228 5.6897 12.286 13.144 2.5654 18.08-19.662 9.9861-32.744 21.291-56 48.395-19.626 22.873-39.906 40.349-50.5 43.518-1.375 0.4113-4.3 1.5592-6.5 2.551-12.456 5.6152-36.222 8.0795-57.826 5.996zm38.087-28.908c64.954-13.041 74.485-117.38 10.74-117.56-29.456-0.087-44.796 35.322-26.831 61.937 4.3132 6.3902 0.8132 8.9796-10.899 8.0634-19.567-1.5307-33.232-10.701-41.786-28.043-1.9951-4.0445-3.4323-5.4817-7.4768-7.4768-17.342-8.5545-26.512-22.219-28.043-41.786-0.9162-11.712 1.6732-15.212 8.0634-10.899 9.5868 6.4708 35.48 8.4493 44.972 3.4363 32.706-17.273 17.746-68.42-21.25-72.651-84.704-9.1886-111.4 93.606-39.25 151.15 4.125 3.2902 10.246 9.4131 13.602 13.606 18.393 22.983 38.257 35.382 64.898 40.508 14.905 2.8678 17.678 2.844 33.26-0.2846zm56.1-137.7c0-0.7989-1.8437-4.9614-4.097-9.25-11.049-21.028-54.703-61.298-66.45-61.298-1.9527 0-1.9335 0.08 1.8807 7.775 6.8391 13.798 10.7 28.973 10.68 41.975l-0.013 8.25 8.25-0.013c12.963-0.02 29.487 4.2329 42.462 10.929 6.7027 3.4592 7.2883 3.5903 7.2883 1.631zm368.5 166.55c-8.2326-0.7536-16.983-2.9797-24-6.1053-2.2-0.98-5.125-2.1183-6.5-2.5296-10.594-3.1687-30.874-20.645-50.5-43.518-23.256-27.104-36.338-38.409-56-48.395-9.7204-4.9369-8.6628-12.391 2.5654-18.08 7.1792-3.638 17.63-2.5833 36.28 3.6615 6.9962 2.3426 8.6542 1.5337 8.6542-4.2224 0-9.4466 6.3318-34.43 13.028-51.406 6.5236-16.538 23.259-45.232 30.749-52.722 7.4903-7.4904 36.184-24.226 52.722-30.749 16.976-6.6966 41.959-13.028 51.406-13.028 5.7561 0 6.565-1.658 4.2224-8.6542-6.2448-18.651-7.2995-29.101-3.6615-36.28 5.6897-11.228 13.144-12.286 18.08-2.5654 9.9861 19.662 21.291 32.744 48.395 56 22.873 19.626 40.349 39.906 43.518 50.5 0.4113 1.375 1.5592 4.3 2.551 6.5 6.0086 13.329 8.8612 48.804 5.1863 64.5-4.1615 17.775-11.407 37.119-17.416 46.5-8.4624 13.211-20.627 26.348-30.644 33.093-2.8081 1.8911-6.6529 5.7359-8.544 8.544-6.7458 10.017-19.882 22.181-33.093 30.644-9.3374 5.9813-30.359 13.855-46 17.23-5.8102 1.2535-31.676 1.9372-41 1.0837zm29-28.717c27.176-5.2076 53.764-22.605 68.046-44.524 1.5855-2.4335 4.8737-5.7217 7.3072-7.3072 57.033-37.16 61.794-122.49 8.2078-147.1-42.236-19.4-81.414-2.5521-81.525 35.059-0.087 29.456 35.322 44.796 61.937 26.831 12.225-8.2513 10.891 22.111-1.6784 38.204-5.5825 7.1477-18.794 16.464-23.347 16.464-0.7959 0-1.4471 0.6512-1.4471 1.4471 0 4.5533-9.3166 17.764-16.464 23.347-16.094 12.569-46.456 13.903-38.204 1.6784 17.964-26.615 2.6246-62.024-26.831-61.937-65.235 0.1924-53.54 106.28 13 117.93 5.5 0.9627 10.45 1.9118 11 2.109 1.5477 0.5551 11.16-0.4988 20-2.1928zm-81.725-139.71c13.982-6.9301 28.973-10.699 42.475-10.68l8.75 0.013-0.013-8.75c-0.02-13.502 3.7495-28.493 10.68-42.475 4.7847-9.6536 4.3841-9.8535-7.3693-3.678-21.108 11.091-62.298 55.687-62.298 67.45 0 1.9527 0.08 1.9335 7.775-1.8807zm-628.9 121.2c-1.1197-1.7875-4.6129-8.425-7.7627-14.75-20.584-41.334-53.559-53.233-108.17-39.036-1.925 0.5005-6.425 1.4048-10 2.0096s-9.425 1.73-13 2.5004c-13.466 2.9021-24.758 4.8358-32.5 5.5653-4.4 0.4147-12.754 1.2885-18.564 1.9419-36.45 4.0992-67.693-11.156-84.15-41.088-11.309-20.569-16.177-40.281-15.903-64.393 0.2537-22.276 0.6926-25.018 7.6587-47.843 12.188-39.934 50.585-85.352 90.382-106.91 5.8466-3.1666 6.7491-5.2575 1.8269-4.2323-5.0009 1.0415-17.845 5.5455-21.735 7.6218-1.9168 1.0231-3.8207 1.8602-4.2308 1.8602-1.0949 0-16.483 7.6201-22.284 11.035-2.75 1.6188-6.7684 3.8986-8.9297 5.0662-3.4329 1.8545-14.073 8.6209-27.07 17.216-2.2 1.4547-12.325 8.0191-22.5 14.587-10.175 6.5684-19.354 12.564-20.397 13.324-1.75 1.2742-1.7974 1.795-0.61256 6.7338 2.998 12.497-0.16427 26.745-9.299 41.898-5.25 8.7087-8.809 13.361-23.692 30.968-28.161 33.316-28.161 46.286 0 58.076 18.719 7.8369 18.569 7.5931 10.622 17.228-34.634 41.988-106.93 4.889-92.922-47.683 2.5517-9.5764 2.284-9.587-10.7-0.4227-18.895 13.336-59.275 38.975-61.384 38.975-0.2998 0-4.7536 2.4297-9.8974 5.3993-9.8365 5.6789-36.685 19.432-47.718 24.443-3.575 1.6238-9.5187 4.3485-13.208 6.0549-3.6896 1.7063-7.3755 3.1024-8.191 3.1024-0.81548 0-1.7505 0.4333-2.0778 0.963-0.32733 0.5296-2.0414 1.4051-3.809 1.9455s-6.1389 2.0928-9.7139 3.4497c-16.27 6.1755-20.83 7.82-25.5 9.1958-29.809 8.7832-48.664 13.216-61.829 14.536-33.435 3.3527-36.139 3.3908-58.171 0.8192-20.576-2.4015-44.44-10.795-56.5-19.872-1.925-1.4488-4.85-3.4705-6.5-4.4925-67.221-41.638-56.657-156.59 14.729-160.27 38.015-1.9602 68.77 18.465 68.772 45.674 0.003 39.492-17.481 48.046-20.834 10.192-1.2094-13.654-2.1663-15.032-14.613-21.053-42.961-20.781-78.05 14.851-56.771 57.649 14.514 29.192 35.229 35.421 68.217 20.512 18.89-8.5373 23.054-10.897 56.035-31.747 23.8-15.046 41.417-25.093 49.965-28.494 3.025-1.2035 6.625-2.7608 8-3.4606 25.98-13.223 63.16-2.2542 68.92 20.332 1.4954 5.8636 3.1001 22.906 3.0897 32.814-0.0122 11.577-0.75453 11.41 14.005 3.1369 6.8671-3.8494 15.411-8.5608 18.986-10.47 3.575-1.9089 8.75-4.8553 11.5-6.5473 2.75-1.6921 7.25-4.3076 10-5.8123 22.026-12.052 69.19-43.512 75-50.028l2-2.2429-3 0.5276c-1.65 0.2901-6.6 1.8676-11 3.5054-40.025 14.899-62.77 7.387-81.461-26.902-2.2061-4.0473-4.0175-8.089-4.0252-8.9816-0.008-0.8926-0.99157-3.8176-2.1863-6.5-3.5737-8.0236-3.2426-30.634 0.56872-38.838 8.7966-18.935 24.816-28.117 25.367-14.539 1.729 42.631 15.758 53.113 52.736 39.401 3.85-1.4275 8.8-3.2391 11-4.0256 2.2-0.7864 4.9-1.8407 6-2.3427 5.6935-2.5984 18.826-8.0859 25-10.446 33.452-12.789 46.043-15.176 61.715-11.697l10.375 2.3028 9.7999-5.3463c5.3899-2.9405 11.445-6.3373 13.455-7.5486 2.0103-1.2113 4.33-2.5244 5.155-2.9181 1.4172-0.6763 23.2-12.899 38.5-21.602 3.85-2.1901 10.375-5.8019 14.5-8.0262s9.525-5.1573 12-6.5177 8.775-4.7203 14-7.4663c29.891-15.709 30.578-16.155 26.495-17.179-2.933-0.7362-53.526 1.1073-67.995 2.4775-20.466 1.9381-57.908 3.0609-87 2.609l-30-0.466-7.5-3.1538c-5.8609-2.4645-8.2103-4.0932-10.75-7.4521-7.0377-9.3079-2.8364-18.944 10.75-24.658l7.5-3.1538 30-0.466c29.092-0.4519 66.534 0.6709 87 2.609 14.469 1.3702 65.062 3.2137 67.995 2.4775 4.0828-1.0247 3.396-1.47-26.495-17.179-5.225-2.746-11.525-6.1059-14-7.4663s-7.875-4.2934-12-6.5177-10.65-5.8361-14.5-8.0262c-15.3-8.7033-37.083-20.926-38.5-21.602-0.825-0.3937-3.1448-1.7068-5.155-2.9181-2.0103-1.2113-8.065-4.6081-13.455-7.5486l-9.7999-5.3463-10.375 2.3028c-15.673 3.4787-28.264 1.0923-61.715-11.697-6.1741-2.3604-19.307-7.8479-25-10.446-1.1-0.502-3.8-1.5563-6-2.3427-2.2-0.7865-7.15-2.5981-11-4.0256-36.978-13.712-51.007-3.2296-52.736 39.401-0.55068 13.578-16.571 4.3959-25.367-14.539-3.8113-8.2041-4.1424-30.814-0.56872-38.838 1.1947-2.6824 2.1786-5.6074 2.1863-6.5 0.008-0.8926 1.8191-4.9343 4.0252-8.9816 18.691-34.289 41.436-41.801 81.461-26.902 4.4 1.6378 9.35 3.2153 11 3.5054l3 0.5276-2-2.2429c-5.8104-6.516-52.974-37.976-75-50.028-2.75-1.5047-7.25-4.1202-10-5.8123-2.75-1.692-7.925-4.6384-11.5-6.5473-3.575-1.909-12.119-6.6204-18.986-10.47-14.759-8.2735-14.017-8.4398-14.005 3.1369 0.0104 9.9078-1.5943 26.95-3.0897 32.814-5.7602 22.586-42.94 33.554-68.92 20.332-1.375-0.6998-4.975-2.2571-8-3.4606-8.5484-3.401-26.165-13.448-49.965-28.494-32.981-20.851-37.145-23.21-56.035-31.747-32.988-14.909-53.702-8.6799-68.217 20.512-21.279 42.798 13.81 78.43 56.771 57.649 12.446-6.0207 13.403-7.3993 14.613-21.053 3.353-37.854 20.837-29.3 20.834 10.192-0.002 27.209-30.757 47.634-68.772 45.674-71.386-3.6809-81.95-118.63-14.729-160.27 1.65-1.022 4.575-3.0437 6.5-4.4925 12.06-9.0768 35.924-17.47 56.5-19.872 22.032-2.5716 24.736-2.5335 58.171 0.8192 13.165 1.32 32.02 5.7529 61.829 14.536 4.6695 1.3758 9.2296 3.0203 25.5 9.1958 3.575 1.3569 7.9462 2.9093 9.7139 3.4497 1.7676 0.5404 3.4817 1.4159 3.809 1.9455 0.32734 0.5297 1.2624 0.963 2.0778 0.963 0.81547 0 4.5014 1.3961 8.191 3.1024 3.6896 1.7064 9.6333 4.4311 13.208 6.0549 11.033 5.0116 37.882 18.764 47.718 24.443 5.1438 2.9696 9.5976 5.3993 9.8974 5.3993 2.109 0 42.489 25.638 61.384 38.975 12.984 9.1643 13.252 9.1537 10.7-0.4227-14.008-52.572 58.288-89.671 92.922-47.683 7.9468 9.6344 8.0971 9.3906-10.622 17.228-28.161 11.79-28.161 24.759 0 58.076 14.883 17.608 18.442 22.26 23.692 30.968 9.1347 15.152 12.297 29.4 9.299 41.898-1.1848 4.9388-1.1374 5.4596 0.61256 6.7338 1.0432 0.7595 10.222 6.7551 20.397 13.324 10.175 6.5683 20.3 13.133 22.5 14.587 12.998 8.5947 23.637 15.361 27.07 17.216 2.1613 1.1676 6.1797 3.4474 8.9297 5.0662 5.801 3.4149 21.189 11.035 22.284 11.035 0.4101 0 2.314 0.8371 4.2308 1.8602 3.8902 2.0763 16.734 6.5803 21.735 7.6218 4.9222 1.0252 4.0197-1.0657-1.8269-4.2323-25.786-13.966-51.994-38.568-70.576-66.25-13.213-19.684-25.422-51.591-26.784-70-2.6046-35.188 1.6089-58.133 15.222-82.893 16.457-29.932 47.7-45.188 84.15-41.088 5.8103 0.6534 14.164 1.5272 18.564 1.9419 7.742 0.7295 19.034 2.6632 32.5 5.5653 3.575 0.7704 9.425 1.8956 13 2.5004s8.075 1.5091 10 2.0096c55.511 14.431 87.092 2.6395 109.01-40.702 10.187-20.142 10.511-20.222 16.595-4.0791 20.677 54.858-7.8719 92.132-70.608 92.188-17.694 0.016-25.492-1.2509-42.75-6.9446-8.2063-2.7074-1.7376 4.7401 25.19 29.002 14.966 13.484 16.601 15.54 14.433 18.152-6.2094 7.4819-19.186 1.6085-37.862-17.138-16.133-16.193-17.125-16.31-14.09-1.6605 5.2758 25.46-9.2217 51.12-32.345 57.25-2.2423 0.5944-5.6518 1.7648-7.5768 2.6009-4.4572 1.9359-21.749 2.8051-29 1.4577-26.046-4.8395-39.44-19.855-39.394-44.163 0.041-21.661 5.2509-29.706 11.246-17.368 12.432 25.588 49.586 33.838 62.796 13.943 31.171-46.943-39.332-91.641-87.923-55.742-23.536 17.388-32.821 64.75-19.734 100.67 1.002 2.75 2.1141 6.35 2.4715 8 9.4986 43.862 55.562 97.044 94.498 109.1 9.2152 2.8538 9.0331 3.1136 4.1079-5.8605-6.1978-11.293-9.0682-22.042-9.0682-33.961v-9.8666l4.75-5.0831c19.061-20.398 35.3-20.212 35.738 0.4083 0.4857 22.849 22.213 56.76 36.367 56.76 0.4815 0 1.9573 0.8511 3.2797 1.8913 1.3224 1.0401 5.9956 3.3282 10.385 5.0845 4.3893 1.7563 10.23 4.0961 12.98 5.1995 9.7862 3.9267 25.888 8.5421 39.737 11.39 19.829 4.0779 20.763 4.9521 20.763 19.435s-0.934 15.357-20.763 19.435c-13.848 2.8479-29.951 7.4633-39.737 11.39-2.75 1.1034-8.5912 3.4432-12.98 5.1995-4.3893 1.7563-9.0625 4.0444-10.385 5.0845-1.3224 1.0402-2.7982 1.8913-3.2797 1.8913-14.154 0-35.881 33.912-36.367 56.76-0.4384 20.62-16.677 20.806-35.738 0.4083l-4.75-5.0831v-9.8666c0-11.918 2.8704-22.668 9.0682-33.961 4.9252-8.9741 5.1073-8.7143-4.1079-5.8605-38.936 12.058-84.999 65.24-94.498 109.1-0.3574 1.65-1.4695 5.25-2.4715 8-13.086 35.916-3.8019 83.278 19.734 100.67 48.591 35.899 119.09-8.7994 87.923-55.742-13.21-19.895-50.364-11.645-62.796 13.943-5.9947 12.339-11.204 4.293-11.246-17.368-0.046-24.308 13.348-39.323 39.394-44.163 7.2513-1.3474 24.543-0.4782 29 1.4577 1.925 0.8361 5.3345 2.0065 7.5768 2.6009 23.123 6.1297 37.62 31.79 32.345 57.25-3.0357 14.65-2.0437 14.533 14.09-1.6605 18.677-18.746 31.653-24.62 37.862-17.138 2.1677 2.6119 0.533 4.6678-14.433 18.152-26.928 24.262-33.397 31.71-25.19 29.002 17.258-5.6937 25.056-6.9605 42.75-6.9446 62.578 0.056 91.414 37.562 70.688 91.942-5.0831 13.337-6.4066 14.592-9.7529 9.25zm462.59 1.0579c-1.038-2.9638-6.441-34.825-7.0051-41.308-1.224-14.068-4.6812-39.133-6.0811-44.088-0.7906-2.7983-1.4374-5.9338-1.4374-6.9676 0-1.8361-2.0594-10.838-6.1642-26.944-1.1214-4.4-2.8932-9.9245-3.9373-12.277-1.0442-2.3522-1.8985-4.8185-1.8985-5.4806 0-1.2163-0.8529-3.5374-7.6217-20.743-4.4279-11.255-15.293-33.444-19.831-40.5-1.7687-2.75-5.3412-8.375-7.9389-12.5-20.592-32.7-34.909-47.016-67.608-67.608-4.125-2.5977-9.75-6.1702-12.5-7.9389-7.0556-4.5379-29.245-15.403-40.5-19.831-17.205-6.7688-19.526-7.6217-20.743-7.6217-0.6621 0-3.1284-0.8543-5.4806-1.8985-2.3523-1.0441-7.8768-2.8159-12.277-3.9373-16.107-4.1048-25.108-6.1642-26.944-6.1642-1.0338 0-4.1693-0.6488-6.9676-1.4418-4.6524-1.3183-23.423-3.9104-47.588-6.5714-5.225-0.5754-16.025-2.2705-24-3.7669l-14.5-2.7206v-4.4993-4.4993l14.5-2.7206c7.975-1.4964 18.775-3.1915 24-3.7669 24.165-2.661 42.936-5.2531 47.588-6.5714 2.7983-0.793 5.9338-1.4418 6.9676-1.4418 1.8361 0 10.838-2.0594 26.944-6.1642 4.4-1.1214 9.9245-2.8932 12.277-3.9373 2.3522-1.0442 4.8185-1.8985 5.4806-1.8985 1.2163 0 3.5374-0.8529 20.743-7.6217 11.255-4.4279 33.444-15.293 40.5-19.831 2.75-1.7687 8.375-5.3412 12.5-7.9389 32.945-20.747 47.862-35.663 68.608-68.608 2.5977-4.125 6.1702-9.75 7.9389-12.5 4.5379-7.0556 15.403-29.245 19.831-40.5 6.7688-17.205 7.6217-19.526 7.6217-20.743 0-0.6621 0.8543-3.1284 1.8985-5.4806 1.0441-2.3523 2.8159-7.8768 3.9373-12.277 4.1048-16.107 6.1642-25.108 6.1642-26.944 0-1.0338 0.6488-4.1693 1.4418-6.9676 1.3183-4.6524 3.9104-23.423 6.5714-47.588 0.5754-5.225 2.2705-16.025 3.7669-24l2.7206-14.5h4.4993 4.4993l2.7206 14.5c1.4964 7.975 3.1915 18.775 3.7669 24 2.661 24.165 5.2531 42.936 6.5714 47.588 0.793 2.7983 1.4418 5.9338 1.4418 6.9676 0 1.8361 2.0594 10.838 6.1642 26.944 1.1214 4.4 2.8932 9.9245 3.9373 12.277 1.0442 2.3522 1.8985 4.8185 1.8985 5.4806 0 1.2163 0.8529 3.5374 7.6217 20.743 4.4279 11.255 15.293 33.444 19.831 40.5 1.7687 2.75 5.3412 8.375 7.9389 12.5 20.592 32.7 34.909 47.016 67.608 67.608 4.125 2.5977 9.75 6.1702 12.5 7.9389 7.0556 4.5379 29.245 15.403 40.5 19.831 17.205 6.7688 19.526 7.6217 20.743 7.6217 0.6621 0 3.1284 0.8543 5.4806 1.8985 2.3523 1.0441 7.8768 2.8159 12.277 3.9373 16.107 4.1048 25.108 6.1642 26.944 6.1642 1.0338 0 4.1693 0.6488 6.9676 1.4418 4.6524 1.3183 23.423 3.9104 47.588 6.5714 5.225 0.5754 16.025 2.2705 24 3.7669l14.5 2.7206v4.4993 4.4993l-14.5 2.7206c-7.975 1.4964-18.775 3.1915-24 3.7669-24.165 2.661-42.936 5.2531-47.588 6.5714-2.7983 0.793-5.9338 1.4418-6.9676 1.4418-1.8361 0-10.838 2.0594-26.944 6.1642-4.4 1.1214-9.9245 2.8932-12.277 3.9373-2.3522 1.0442-4.8185 1.8985-5.4806 1.8985-1.2163 0-3.5374 0.8529-20.743 7.6217-11.255 4.4279-33.444 15.293-40.5 19.831-2.75 1.7687-8.375 5.3412-12.5 7.9389-32.945 20.747-47.862 35.663-68.608 68.608-2.5977 4.125-6.1702 9.75-7.9389 12.5-4.5379 7.0556-15.403 29.245-19.831 40.5-6.7688 17.205-7.6217 19.526-7.6217 20.743 0 0.6621-0.8543 3.1284-1.8985 5.4806-1.0441 2.3523-2.8159 7.8768-3.9373 12.277-4.1048 16.107-6.1642 25.108-6.1642 26.944 0 1.0338-0.6488 4.1693-1.4418 6.9676-1.3183 4.6524-3.9104 23.423-6.5714 47.588-0.5754 5.225-2.2703 16.025-3.7665 24l-2.7203 14.5-4.2591 0.3079c-2.8368 0.2051-4.4122-0.1288-4.7173-1zm5.9516-113.06c2.5373-16.565 22.361-64.895 37.152-90.579 2.955-5.131 5.3727-9.5158 5.3727-9.7438 0-0.5808 14.903-23.498 20.698-31.83 13.874-19.945 15.954-22.025 35.899-35.899 8.3316-5.7955 31.249-20.698 31.83-20.698 0.228 0 4.6128-2.4177 9.7438-5.3727 25.684-14.792 74.014-34.615 90.579-37.152 2.3375-0.3581 4.25-1.0219 4.25-1.4752s-1.9125-1.1171-4.25-1.4752c-16.565-2.5373-64.895-22.361-90.579-37.152-5.131-2.955-9.5158-5.3727-9.7438-5.3727-0.6212 0-23.84-15.126-32.427-21.124-19.255-13.451-20.424-14.62-33.876-33.876-5.9983-8.5865-21.124-31.806-21.124-32.427 0-0.228-2.4177-4.6128-5.3727-9.7438-14.792-25.684-34.615-74.014-37.152-90.579-0.3581-2.3375-1.0219-4.25-1.4752-4.25s-1.1171 1.9125-1.4752 4.25c-2.5373 16.565-22.361 64.895-37.152 90.579-2.955 5.131-5.3727 9.5158-5.3727 9.7438 0 0.5808-14.903 23.498-20.698 31.83-13.874 19.945-15.954 22.025-35.899 35.899-8.3316 5.7955-31.249 20.698-31.83 20.698-0.228 0-4.6128 2.4177-9.7438 5.3727-25.684 14.792-74.014 34.615-90.579 37.152-2.3375 0.3581-4.25 1.0219-4.25 1.4752s1.9125 1.1171 4.25 1.4752c16.565 2.5373 64.895 22.361 90.579 37.152 5.131 2.955 9.5158 5.3727 9.7438 5.3727 1.3622 0 34.349 22.174 45.962 30.896 5.9281 4.4524 9.9038 9.1637 20.34 24.104 5.9983 8.5865 21.124 31.806 21.124 32.427 0 0.228 2.4177 4.6128 5.3727 9.7438 14.792 25.684 34.615 74.014 37.152 90.579 0.3581 2.3375 1.0219 4.25 1.4752 4.25s1.1171-1.9125 1.4752-4.25zm-5.1749-75.5c-3.4759-4.5451-6.8756-9.7739-11.541-17.75-3.7468-6.4056-5.1032-9.2528-9.2905-19.5-4.7978-11.742-17.096-37.542-19.616-41.154-3.8778-5.557-2.3175-9.1485 13.183-30.346 7.2324-9.8902 12.294-23.599 9.6789-26.214-2.6151-2.6151-16.324 2.4465-26.214 9.6789-21.197 15.501-24.789 17.061-30.346 13.183-3.6123-2.5207-29.413-14.819-41.154-19.616-13.259-5.4179-18.978-8.4829-32.197-17.255-11.789-7.8229-11.498-8.3381 12.697-22.512 6.4022-3.7504 9.2417-5.104 19.5-9.2958 11.742-4.7978 37.542-17.096 41.154-19.616 5.557-3.8778 9.1485-2.3175 30.346 13.183 26.411 19.314 36.849 8.8757 17.535-17.535-15.501-21.197-17.061-24.789-13.183-30.346 2.5207-3.6123 14.819-29.413 19.616-41.154 5.4179-13.259 8.4829-18.978 17.255-32.197 7.8229-11.789 8.3381-11.498 22.512 12.697 3.7504 6.4022 5.104 9.2417 9.2958 19.5 4.7978 11.742 17.096 37.542 19.616 41.154 3.8778 5.557 2.3175 9.1485-13.183 30.346-7.2324 9.8902-12.294 23.599-9.6789 26.214 2.6151 2.6151 16.324-2.4465 26.214-9.6789 21.197-15.501 24.789-17.061 30.346-13.183 3.6123 2.5207 29.413 14.819 41.154 19.616 13.259 5.4179 18.978 8.4829 32.197 17.255 11.031 7.3199 11.031 7.2331 0 14.553-13.219 8.7718-18.938 11.837-32.197 17.255-11.742 4.7978-37.542 17.096-41.154 19.616-5.557 3.8778-9.1485 2.3175-30.346-13.183-10.891-7.9643-23.582-12.327-26.722-9.1868-3.1404 3.1404 1.2225 15.831 9.1868 26.722 15.501 21.197 17.061 24.789 13.183 30.346-2.5207 3.6123-14.819 29.413-19.616 41.154-4.1873 10.247-5.5437 13.094-9.2905 19.5-7.0906 12.122-13.738 21.5-15.241 21.5-0.4576 0-2.1224-1.6875-3.6997-3.75zm466.5 187.5c-32.421-50.858 0.7978-102.13 66.204-102.19 17.694-0.016 25.492 1.2509 42.75 6.9446 8.2063 2.7074 1.7376-4.7401-25.19-29.002-14.966-13.484-16.601-15.54-14.433-18.152 6.2094-7.4819 19.186-1.6085 37.862 17.138 16.133 16.193 17.125 16.31 14.09 1.6605-5.2758-25.46 9.2217-51.12 32.345-57.25 2.2423-0.5944 5.6518-1.7648 7.5768-2.6009 4.4572-1.9359 21.749-2.8051 29-1.4577 26.046 4.8395 39.44 19.855 39.394 44.163-0.041 21.661-5.2509 29.706-11.246 17.368-12.432-25.588-49.586-33.838-62.796-13.943-31.171 46.943 39.332 91.641 87.923 55.742 23.536-17.388 32.821-64.75 19.734-100.67-1.002-2.75-2.1141-6.35-2.4715-8-9.4986-43.862-55.562-97.044-94.498-109.1-9.2152-2.8538-9.0331-3.1136-4.1079 5.8605 6.1978 11.293 9.0682 22.042 9.0682 33.961v9.8666l-4.75 5.0831c-19.061 20.398-35.3 20.212-35.738-0.4083-0.4857-22.849-22.213-56.76-36.367-56.76-0.4815 0-1.9573-0.8511-3.2797-1.8913-1.3224-1.0401-5.9956-3.3282-10.385-5.0845-4.3893-1.7563-10.23-4.0961-12.98-5.1995-9.7862-3.9267-25.888-8.5421-39.737-11.39-19.8-4.1-20.7-5-20.7-19.5 0-14.483 0.934-15.357 20.763-19.435 13.848-2.8479 29.951-7.4633 39.737-11.39 2.75-1.1034 8.5912-3.4432 12.98-5.1995 4.3893-1.7563 9.0625-4.0444 10.385-5.0845 1.3224-1.0402 2.7982-1.8913 3.2797-1.8913 14.154 0 35.881-33.912 36.367-56.76 0.4384-20.62 16.677-20.806 35.738-0.4083l4.75 5.0831v9.8666c0 11.918-2.8704 22.668-9.0682 33.961-4.9252 8.9741-5.1073 8.7143 4.1079 5.8605 38.936-12.058 84.999-65.24 94.498-109.1 0.3574-1.65 1.4695-5.25 2.4715-8 13.086-35.916 3.8019-83.278-19.734-100.67-48.591-35.899-119.09 8.7994-87.923 55.742 13.21 19.895 50.364 11.645 62.796-13.943 5.9947-12.339 11.204-4.293 11.246 17.368 0.046 24.308-13.348 39.323-39.394 44.163-7.2513 1.3474-24.543 0.4782-29-1.4577-1.925-0.8361-5.3345-2.0065-7.5768-2.6009-23.123-6.1297-37.62-31.79-32.345-57.25 3.0357-14.65 2.0437-14.533-14.09 1.6605-18.677 18.746-31.653 24.62-37.862 17.138-2.1677-2.6119-0.533-4.6678 14.433-18.152 26.928-24.262 33.397-31.71 25.19-29.002-17.258 5.6937-25.056 6.9605-42.75 6.9446-62.736-0.056-91.285-37.331-70.608-92.188 6.0845-16.142 6.4086-16.063 16.595 4.0791 21.92 43.342 53.502 55.134 109.01 40.702 1.925-0.5005 6.425-1.4048 10-2.0096s9.425-1.73 13-2.5004c13.466-2.9021 24.758-4.8358 32.5-5.5653 4.4-0.4147 12.754-1.2885 18.564-1.9419 36.45-4.0992 67.693 11.156 84.15 41.088 11.309 20.569 16.177 40.281 15.903 64.393-0.2537 22.276-0.6926 25.018-7.6587 47.843-12.188 39.934-50.585 85.352-90.382 106.91-5.8466 3.1666-6.7491 5.2575-1.8269 4.2323 5.0009-1.0415 17.845-5.5455 21.735-7.6218 1.9168-1.0231 3.8207-1.8602 4.2308-1.8602 1.0949 0 16.483-7.6201 22.284-11.035 2.75-1.6188 6.7684-3.8986 8.9297-5.0662 3.4329-1.8545 14.073-8.6209 27.07-17.216 2.2-1.4547 12.325-8.0191 22.5-14.587 10.175-6.5684 19.354-12.564 20.397-13.324 1.75-1.2742 1.7973-1.795 0.6125-6.7338-2.998-12.497 0.1643-26.745 9.299-41.898 5.2501-8.7087 8.809-13.361 23.692-30.968 28.161-33.316 28.161-46.286 0-58.076-18.72-7.8369-18.569-7.5931-10.622-17.228 34.634-41.988 106.93-4.889 92.922 47.683-2.5517 9.5764-2.284 9.587 10.7 0.4227 18.895-13.336 59.275-38.975 61.384-38.975 0.2997 0 4.7536-2.4297 9.8974-5.3993 9.8365-5.6789 36.685-19.432 47.718-24.443 3.575-1.6238 9.5187-4.3485 13.208-6.0549 3.6896-1.7063 7.3755-3.1024 8.191-3.1024s1.7505-0.4333 2.0778-0.963c0.3273-0.5296 2.0414-1.4051 3.809-1.9455 1.7677-0.5404 6.2514-2.1321 9.9639-3.537 17.426-6.5949 20.58-7.7327 25.25-9.1085 29.809-8.7832 48.664-13.216 61.829-14.536 33.435-3.3527 36.139-3.3908 58.171-0.8192 20.576 2.4015 44.44 10.795 56.5 19.872 1.925 1.4488 4.85 3.4705 6.5 4.4925 67.221 41.638 56.657 156.59-14.729 160.27-38.015 1.9602-68.77-18.465-68.772-45.674 0-39.492 17.481-48.046 20.834-10.192 1.2094 13.654 2.1663 15.032 14.613 21.053 42.961 20.781 78.05-14.851 56.771-57.649-14.514-29.192-35.229-35.421-68.217-20.512-18.89 8.5373-23.054 10.897-56.035 31.747-23.8 15.046-41.417 25.093-49.965 28.494-3.025 1.2035-6.625 2.7608-8 3.4606-25.98 13.223-63.16 2.2542-68.92-20.332-1.4955-5.8636-3.1001-22.906-3.0897-32.814 0.012-11.577 0.7545-11.41-14.005-3.1369-6.8671 3.8494-15.411 8.5608-18.986 10.47-3.575 1.9089-8.75 4.8553-11.5 6.5473-2.75 1.6921-7.25 4.3076-10 5.8123-22.026 12.052-69.19 43.512-75 50.028l-2 2.2429 3-0.5276c1.65-0.2901 6.6-1.8676 11-3.5054 40.025-14.899 62.77-7.387 81.461 26.902 2.2062 4.0473 4.0175 8.089 4.0252 8.9816 0.01 0.8926 0.9916 3.8176 2.1863 6.5 3.5737 8.0236 3.2426 30.634-0.5687 38.838-8.7966 18.935-24.816 28.117-25.367 14.539-1.729-42.631-15.758-53.113-52.736-39.401-3.85 1.4275-8.8 3.2391-11 4.0256-2.2 0.7864-4.9 1.8407-6 2.3427-5.6935 2.5984-18.826 8.0859-25 10.446-33.452 12.789-46.043 15.176-61.715 11.697l-10.375-2.3028-9.7999 5.3463c-5.3899 2.9405-11.445 6.3373-13.455 7.5486-2.0102 1.2113-4.33 2.5244-5.155 2.9181-1.4172 0.6763-23.2 12.899-38.5 21.602-3.85 2.1901-10.375 5.8019-14.5 8.0262s-9.525 5.1573-12 6.5177-8.775 4.7203-14 7.4663c-29.891 15.709-30.578 16.155-26.495 17.179 2.933 0.7362 53.526-1.1073 67.995-2.4775 20.466-1.9381 57.908-3.0609 87-2.609l30 0.466 7.5 3.1538c5.8609 2.4645 8.2103 4.0932 10.75 7.4521 7.0377 9.3079 2.8365 18.944-10.75 24.658l-7.5 3.1538-30 0.466c-29.092 0.4519-66.534-0.6709-87-2.609-14.469-1.3702-65.062-3.2137-67.995-2.4775-4.0828 1.0247-3.396 1.47 26.495 17.179 5.225 2.746 11.525 6.1059 14 7.4663s7.875 4.2934 12 6.5177 10.65 5.8361 14.5 8.0262c15.3 8.7033 37.083 20.926 38.5 21.602 0.825 0.3937 3.1448 1.7068 5.155 2.9181 2.0103 1.2113 8.065 4.6081 13.455 7.5486l9.7999 5.3463 10.375-2.3028c15.672-3.4787 28.264-1.0923 61.715 11.697 6.1741 2.3604 19.306 7.8479 25 10.446 1.1 0.502 3.8 1.5563 6 2.3427 2.2 0.7865 7.15 2.5981 11 4.0256 36.978 13.712 51.007 3.2296 52.736-39.401 0.5507-13.578 16.57-4.3959 25.367 14.539 3.8113 8.2041 4.1424 30.814 0.5687 38.838-1.1947 2.6824-2.1785 5.6074-2.1863 6.5-0.01 0.8926-1.819 4.9343-4.0252 8.9816-18.691 34.289-41.436 41.801-81.461 26.902-4.4-1.6378-9.35-3.2153-11-3.5054l-3-0.5276 2 2.2429c5.8104 6.516 52.974 37.976 75 50.028 2.75 1.5047 7.25 4.1202 10 5.8123 2.75 1.692 7.925 4.6384 11.5 6.5473 3.575 1.909 12.118 6.6204 18.986 10.47 14.759 8.2735 14.017 8.4398 14.005-3.1369-0.01-9.9078 1.5942-26.95 3.0897-32.814 5.7602-22.586 42.94-33.554 68.92-20.332 1.375 0.6998 4.975 2.2571 8 3.4606 8.5484 3.401 26.166 13.448 49.965 28.494 32.981 20.851 37.145 23.21 56.035 31.747 32.988 14.909 53.702 8.6799 68.217-20.512 21.279-42.798-13.81-78.43-56.771-57.649-12.446 6.0207-13.403 7.3993-14.613 21.053-3.353 37.854-20.837 29.3-20.834-10.192 0-27.209 30.757-47.634 68.772-45.674 71.386 3.6809 81.95 118.63 14.729 160.27-1.65 1.022-4.575 3.0437-6.5 4.4925-12.06 9.0768-35.924 17.47-56.5 19.872-22.032 2.5716-24.736 2.5335-58.171-0.8192-13.164-1.32-32.02-5.7529-61.829-14.536-4.6695-1.3758-9.2296-3.0203-25.5-9.1958-3.575-1.3569-7.9462-2.9093-9.7139-3.4497-1.7676-0.5404-3.4817-1.4159-3.809-1.9455-0.3273-0.5297-1.2623-0.963-2.0778-0.963s-4.5014-1.3961-8.191-3.1024c-3.6896-1.7064-9.6333-4.4311-13.208-6.0549-11.034-5.0116-37.882-18.764-47.718-24.443-5.1438-2.9696-9.5977-5.3993-9.8974-5.3993-2.1091 0-42.489-25.638-61.384-38.975-12.984-9.1643-13.252-9.1537-10.7 0.4227 14.008 52.572-58.288 89.671-92.922 47.683-7.9469-9.6344-8.0972-9.3906 10.622-17.228 28.161-11.79 28.161-24.759 0-58.076-14.883-17.608-18.442-22.26-23.692-30.968-9.1347-15.152-12.297-29.4-9.299-41.898 1.1848-4.9388 1.1375-5.4596-0.6125-6.7338-1.0432-0.7595-10.222-6.7551-20.397-13.324-10.175-6.5683-20.3-13.133-22.5-14.587-12.998-8.5947-23.637-15.361-27.07-17.216-2.1613-1.1676-6.1797-3.4474-8.9297-5.0662-5.801-3.4149-21.189-11.035-22.284-11.035-0.4101 0-2.314-0.8371-4.2308-1.8602-3.8902-2.0763-16.734-6.5803-21.735-7.6218-4.9222-1.0252-4.0197 1.0657 1.8269 4.2323 25.786 13.966 51.994 38.568 70.576 66.25 13.213 19.684 25.422 51.591 26.784 70 2.6046 35.188-1.6089 58.133-15.222 82.893-16.457 29.932-47.7 45.188-84.15 41.088-5.8103-0.6534-14.164-1.5272-18.564-1.9419-7.742-0.7295-19.034-2.6632-32.5-5.5653-3.575-0.7704-9.425-1.8956-13-2.5004s-8.075-1.5091-10-2.0096c-54.613-14.198-87.588-2.2981-108.17 39.036-9.3203 18.716-10.349 19.959-13.032 15.75zm-989.38-146.63c-14.653-6.932-20.506-23.258-13.439-37.484 12.322-24.805 55.508-11.504 56.352 17.356 0.4707 16.093-25.597 28.32-42.913 20.128zm1030.4-0.3731c-16.834-6.23-22.962-17.481-16.938-31.1 12.429-28.098 58.411-24.931 57.466 3.9572-0.703 21.496-20.308 34.626-40.528 27.143zm-975.95-30.727c-10.824-3.2671-19.212-20.501-15.914-32.697 4.2153-15.586 40.436-20.332 49.696-6.5112 14.005 20.904-8.3742 46.877-33.783 39.208zm926.37-1.0959c-26.9-8.3-25.1-47 2.1-47 25.371 0 35.636 8.1109 32.615 25.771-2.9692 17.358-17.751 26.353-34.762 21.153zm-873.36-24.868c-29.226-9.2234-21.515-45.556 9.6691-45.556 31.418 0 30.149 39.546-1.5 46.774-1.375 0.3139-5.0511-0.2342-8.1691-1.2182zm827.29-1.0878c-28.962-10.29-27.118-45.468 2.3836-45.468 33.872 0 38.453 38.975 5.5 46.788-1.4094 0.3341-4.8486-0.2418-7.8836-1.3201zm-1765.3-24.9c-10.79-8.2-47.66-29.1-51.29-29.1-0.36982 0-1.8669-0.8154-3.3268-1.8121s-4.2294-2.3065-6.1544-2.9108-5.975-2.08-9-3.2793-7.75-3.0722-10.5-4.162c-5.0983-2.0205-27.758-9.3449-39.5-12.768-22.113-6.4462-19.468-5.7909-48.5-12.012-32.647-6.996-36.377-7.7186-49.5-9.5885-5.775-0.8229-11.85-1.9049-13.5-2.4045s-6.15-1.2085-10-1.5753c-3.85-0.3669-9.7-1.2568-13-1.9776s-9.5138-1.6016-13.809-1.9573c-4.2947-0.3557-8.9596-1.0843-10.366-1.6192-1.4069-0.5349-6.893-1.4148-12.191-1.9554-5.2984-0.5405-14.134-1.6434-19.634-2.451-10.627-1.5602-18.95-2.6648-37.526-4.9799-6.3394-0.7901-13.539-1.9004-16-2.4674-2.4606-0.567-5.7559-1.0419-7.3227-1.0554-1.5669-0.013-4.2669-0.6712-6-1.4617s-7.6974-2.3572-13.254-3.4815c-9.828-2-25.4-9.5-25.4-12.3 0-0.4977 0.46904-0.615 1.0423-0.2606 0.57327 0.3543 3.9743-1.1942 7.5578-3.441 5.1666-3.2395 8.6255-4.5123 16.708-6.1479 5.6057-1.1345 11.61-2.7095 13.343-3.5 1.7331-0.7905 4.4331-1.4483 6-1.4617 1.5669-0.014 4.8621-0.4884 7.3227-1.0554s9.6606-1.6773 16-2.4674c18.576-2.3151 26.899-3.4197 37.526-4.9799 5.5-0.8076 14.335-1.9105 19.634-2.451 5.2984-0.5406 10.785-1.4205 12.191-1.9554 1.4069-0.5349 6.0718-1.2635 10.366-1.6192 4.2947-0.3557 10.509-1.2365 13.809-1.9573s9.15-1.6107 13-1.9776c3.85-0.3668 8.35-1.0757 10-1.5753s7.725-1.5816 13.5-2.4045c12.947-1.8448 20.91-3.3824 49-9.4612 5.225-1.1308 13.775-2.9811 19-4.1119 5.225-1.1309 12.65-2.9734 16.5-4.0945s9.925-2.891 13.5-3.9332c3.575-1.0421 12.8-3.8953 20.5-6.3404 13.015-4.1329 16.657-5.4407 30-10.772 2.75-1.0988 6.575-2.4922 8.5-3.0965s4.6945-1.9141 6.1544-2.9108 2.957-1.8121 3.3268-1.8121c3.629 0 40.495-20.886 51.289-29.058 8.5204-6.4502 7.8599-6.6492 19.892 5.9959 17.827 18.736 41.659 34.679 65.838 44.044 4.4 1.7043 9.1944 3.7556 10.654 4.5584 1.4599 0.8028 3.4849 1.4749 4.5 1.4935 1.0151 0.019 3.6457 0.9034 5.8457 1.9661s4.675 1.9672 5.5 2.01c0.825 0.043 3.3 0.7441 5.5 1.5585s5.8 1.8732 8 2.3528 10.525 2.4961 18.5 4.481c21.027 5.2336 26.525 6.403 35.844 7.6249 4.5893 0.6017 9.3143 1.453 10.5 1.8919s5.5788 1.0995 9.7625 1.4681 9.1082 1.1008 10.943 1.6271c1.8351 0.5264 8.0425 1.4356 13.794 2.0207 5.7516 0.5851 13.202 1.6728 16.557 2.4172 3.3545 0.7444 10.599 1.6564 16.099 2.0267 5.5 0.3702 12.25 1.1191 15 1.664 2.75 0.545 9.725 1.3639 15.5 1.8198 14.113 1.1141 36.578 3.7611 47 5.5376 4.675 0.797 11.2 1.7199 14.5 2.051 16.611 1.6665 25.778 9.9171 22.002 19.803-1.9928 5.2182-11.571 10.048-22.002 11.094-3.3 0.3311-9.825 1.254-14.5 2.051-10.422 1.7765-32.887 4.4235-47 5.5376-5.775 0.4559-12.75 1.2748-15.5 1.8198-2.75 0.5449-9.5 1.2938-15 1.664-5.5 0.3703-12.745 1.2823-16.099 2.0267-3.3545 0.7444-10.805 1.8321-16.557 2.4172-5.7517 0.5851-11.959 1.4943-13.794 2.0207-1.8351 0.5263-6.7596 1.2585-10.943 1.6271-4.1837 0.3686-8.5768 1.0292-9.7625 1.4681s-5.9107 1.2902-10.5 1.8919c-9.3196 1.2219-14.817 2.3913-35.844 7.6249-7.975 1.9849-16.3 4.0014-18.5 4.481s-5.8 1.5384-8 2.3528-4.675 1.5157-5.5 1.5585c-0.825 0.043-3.3 0.9473-5.5 2.01s-4.8306 1.9474-5.8457 1.9661c-1.0151 0.019-3.0401 0.6907-4.5 1.4935s-6.2543 2.8541-10.654 4.5584c-24.179 9.3654-48.011 25.309-65.838 44.044-12.032 12.645-11.371 12.446-19.892 5.9959zm18.73-55.1c20.439-9.7649 27.527-12.6 42.5-16.999 4.125-1.2119 9.075-2.8042 11-3.5383 3.6024-1.3739 12.337-3.7385 22-5.9557 3.025-0.694 7.525-1.741 10-2.3266s8.55-1.9361 13.5-3.0012 13.275-2.8772 18.5-4.0268c18.838-4.1449 29.106-6.1168 31.778-6.103 4.13 0 106.22-16.3 106.22-17 0-0.6828-102.09-17.036-106.22-17.014-2.6724 0.014-12.94-1.9581-31.778-6.103-5.225-1.1496-13.55-2.9617-18.5-4.0268s-11.025-2.4156-13.5-3.0012-6.975-1.6326-10-2.3266c-9.663-2.2172-18.398-4.5818-22-5.9557-1.925-0.7341-6.875-2.3264-11-3.5383-15.294-4.4934-23.871-7.9519-42.816-17.265-9.0509-4.4493-13.051-4.9231-18.365-2.1752-1.7608 0.9106-4.3528 2.0191-5.76 2.4634-1.4071 0.4442-5.7084 1.9876-9.5584 3.4297s-8.575 3.0947-10.5 3.6725c-1.925 0.5777-4.625 1.6111-6 2.2964-2.5729 1.2822-9.887 3.6883-23 7.5662-4.125 1.2199-9.975 3.01-13 3.9779-13.506 4.3216-26.904 7.8289-35 9.1623-3.025 0.4982-7.3 1.5367-9.5 2.3078s-5.8 1.6673-8 1.9916-6.7 1.2278-10 2.0079c-9.9429 2.3502-28.758 5.5382-32.662 5.5342-2.0141 0-7.1891 0.6777-11.5 1.5106s-16.163 1.9767-26.338 2.5417-20.3 1.4149-22.5 1.8886c-2.2 0.4738-32.688 3.0334-67.75 5.6881-35.062 2.7-63.75 5.1-63.75 5.4 0 0.2973 28.688 2.7125 63.75 5.3672s65.55 5.2143 67.75 5.6881c2.2 0.4737 12.325 1.3236 22.5 1.8886s22.027 1.7088 26.338 2.5417c4.3109 0.8329 9.4859 1.5127 11.5 1.5106 3.9043 0 22.719 3.184 32.662 5.5342 3.3 0.7801 7.8 1.6836 10 2.0079s5.8 1.2205 8 1.9916 6.475 1.8096 9.5 2.3078c8.096 1.3334 21.494 4.8407 35 9.1623 3.025 0.9679 8.875 2.758 13 3.9779 13.113 3.8779 20.427 6.284 23 7.5662 1.375 0.6853 4.075 1.7187 6 2.2964 1.925 0.5778 6.65 2.2304 10.5 3.6725s8.1748 2.9922 9.6106 3.4447 3.6858 1.4003 5 2.1062c6.3672 3.4201 8.2684 3.2143 19.389-2.099zm2676.7 48.076c-17.52-18.579-41.488-34.63-65.736-44.023-4.4-1.7043-9.1944-3.7556-10.654-4.5584-1.4599-0.8028-3.4849-1.4749-4.5-1.4935-1.0151-0.019-3.6457-0.9034-5.8457-1.9661s-4.675-1.9672-5.5-2.01c-0.825-0.043-3.3-0.7441-5.5-1.5585s-5.8-1.8732-8-2.3528-10.525-2.4961-18.5-4.481c-21.028-5.2336-26.525-6.403-35.844-7.6249-4.5894-0.6017-9.3144-1.453-10.5-1.8919-1.1857-0.4389-5.5788-1.0995-9.7625-1.4681s-9.1082-1.1008-10.943-1.6271c-1.8351-0.5264-8.0425-1.4356-13.794-2.0207-5.7517-0.5851-13.202-1.6728-16.557-2.4172-3.3545-0.7444-10.599-1.6564-16.099-2.0267-5.5-0.3702-12.25-1.1191-15-1.664-2.75-0.545-9.725-1.3639-15.5-1.8198-14.113-1.1141-36.578-3.7611-47-5.5376-4.675-0.797-11.2-1.7199-14.5-2.051-30.503-3.0603-30.503-27.837 0-30.897 3.3-0.3311 9.825-1.254 14.5-2.051 10.422-1.7765 32.887-4.4235 47-5.5376 5.775-0.4559 12.75-1.2748 15.5-1.8198 2.75-0.5449 9.5-1.2938 15-1.664 5.5-0.3703 12.745-1.2823 16.099-2.0267 3.3546-0.7444 10.805-1.8321 16.557-2.4172 5.7516-0.5851 11.959-1.4943 13.794-2.0207 1.8351-0.5263 6.7596-1.2585 10.943-1.6271 4.1837-0.3686 8.5768-1.0292 9.7625-1.4681 1.1856-0.4389 5.9106-1.2902 10.5-1.8919 9.3195-1.2219 14.817-2.3913 35.844-7.6249 7.975-1.9849 16.3-4.0014 18.5-4.481s5.8-1.5384 8-2.3528 4.675-1.5157 5.5-1.5585c0.825-0.043 3.3-0.9473 5.5-2.01s4.8306-1.9474 5.8457-1.9661c1.0151-0.019 3.0401-0.6907 4.5-1.4935s6.2543-2.8541 10.654-4.5584c24.179-9.3654 48.011-25.309 65.838-44.044 12.032-12.645 11.371-12.446 19.892-5.9959 10.795 8.1719 47.66 29.058 51.29 29.058 0.3698 0 1.8668 0.8154 3.3267 1.8121s4.2294 2.3065 6.1544 2.9108 5.975 2.08 9 3.2793 7.75 3.0722 10.5 4.162c5.0983 2.0205 27.758 9.3449 39.5 12.768 3.575 1.0422 9.65 2.8121 13.5 3.9332s11.275 2.9636 16.5 4.0945c5.225 1.1308 13.775 2.9811 19 4.1119 28.09 6.0788 36.053 7.6164 49 9.4612 5.775 0.8229 11.85 1.9049 13.5 2.4045s6.15 1.2085 10 1.5753c3.85 0.3669 9.7 1.2568 13 1.9776s9.5138 1.6016 13.808 1.9573c4.2947 0.3557 8.9596 1.0843 10.366 1.6192 1.4068 0.5349 6.893 1.4148 12.192 1.9554 5.2984 0.5405 14.134 1.6434 19.634 2.451 10.627 1.5602 18.95 2.6648 37.526 4.9799 6.3394 0.7901 13.539 1.9004 16 2.4674 2.4607 0.567 5.7559 1.0419 7.3228 1.0554 1.5668 0.013 4.2668 0.6712 6 1.4617 1.7331 0.7905 7.7 2.3577 13.26 3.4827 9.087 1.8386 24.32 8.7788 24.32 11.08s-15.234 9.2414-24.32 11.08c-5.5597 1.125-11.527 2.6922-13.26 3.4827-1.7332 0.7905-4.4332 1.4483-6 1.4617-1.5669 0.014-4.8621 0.4884-7.3228 1.0554-2.4606 0.567-9.6606 1.6773-16 2.4674-18.576 2.3151-26.899 3.4197-37.526 4.9799-5.5 0.8076-14.335 1.9105-19.634 2.451-5.2985 0.5406-10.785 1.4205-12.192 1.9554-1.4069 0.5349-6.0718 1.2635-10.366 1.6192-4.2947 0.3557-10.508 1.2365-13.808 1.9573s-9.15 1.6107-13 1.9776c-3.85 0.3668-8.35 1.0757-10 1.5753s-7.725 1.5816-13.5 2.4045c-13.123 1.8699-16.853 2.5925-49.5 9.5885-23.756 5.0908-28.492 6.1839-35 8.0791-3.85 1.1211-9.925 2.891-13.5 3.9332-11.742 3.4227-34.402 10.747-39.5 12.768-2.75 1.0898-7.475 2.9627-10.5 4.162s-7.075 2.675-9 3.2793-4.6945 1.9141-6.1544 2.9108-2.9569 1.8121-3.3267 1.8121c-3.629 0-40.495 20.886-51.29 29.058-8.5344 6.4607-8.1046 6.59-19.993-6.0176zm20.677-46.994c1.3012-0.6964 3.5406-1.6364 4.9765-2.0889 1.4358-0.4525 5.7606-2.0026 9.6106-3.4447s8.575-3.0947 10.5-3.6725c1.925-0.5777 4.625-1.6111 6-2.2964 2.5729-1.2822 9.887-3.6883 23-7.5662 4.125-1.2199 9.975-3.01 13-3.9779 13.506-4.3216 26.904-7.8289 35-9.1623 3.025-0.4982 7.3-1.5367 9.5-2.3078s5.8-1.6673 8-1.9916 6.7-1.2278 10-2.0079c9.9429-2.3502 28.758-5.5382 32.662-5.5342 2.0141 0 7.1891-0.6777 11.5-1.5106s16.163-1.9767 26.338-2.5417 20.3-1.4149 22.5-1.8886c2.2-0.4738 32.688-3.0334 67.75-5.6881s63.75-5.0699 63.75-5.3672-28.688-2.7125-63.75-5.3672-65.55-5.2143-67.75-5.6881c-2.2-0.4737-12.325-1.3236-22.5-1.8886s-22.027-1.7088-26.338-2.5417c-4.3109-0.8329-9.4859-1.5127-11.5-1.5106-3.9043 0-22.719-3.184-32.662-5.5342-3.3-0.7801-7.8-1.6836-10-2.0079s-5.8-1.2205-8-1.9916-6.475-1.8096-9.5-2.3078c-8.096-1.3334-21.494-4.8407-35-9.1623-3.025-0.9679-8.875-2.758-13-3.9779-13.113-3.8779-20.427-6.284-23-7.5662-1.375-0.6853-4.075-1.7187-6-2.2964-1.925-0.5778-6.65-2.2304-10.5-3.6725s-8.1513-2.9855-9.5584-3.4297c-1.4072-0.4443-3.9991-1.5528-5.76-2.4634-5.314-2.7479-9.3145-2.2741-18.365 2.1752-18.946 9.3133-27.522 12.772-42.816 17.265-4.125 1.2119-9.075 2.8042-11 3.5383-3.6024 1.3739-12.337 3.7385-22 5.9557-3.025 0.694-7.525 1.741-10 2.3266s-8.55 1.9361-13.5 3.0012-13.275 2.8772-18.5 4.0268c-18.838 4.1449-29.106 6.1168-31.778 6.103-4.1 0-106.2 16.3-106.2 17 0 0.6828 102.09 17.036 106.22 17.014 2.6723-0.014 12.94 1.9581 31.778 6.103 5.225 1.1496 13.55 2.9617 18.5 4.0268s11.025 2.4156 13.5 3.0012 6.975 1.6326 10 2.3266c9.663 2.2172 18.398 4.5818 22 5.9557 1.925 0.7341 6.875 2.3264 11 3.5383 14.866 4.3676 21.676 7.0842 40.5 16.155 12.55 6.0475 14.964 6.3773 21.413 2.9257zm-1836.7 25.992c-18.827-6.883-47.798-42.936-38.492-47.902 3.6669-1.9569 20.64 3.695 26.75 8.9074 5.8553 4.9953 12.74 2.8953 22.142-6.754 9.7311-9.9872 16.948-33.106 14.528-46.54-3.9337-21.836-11.111-34.034-24.444-41.543-6.154-3.4657-7.3733-3.391-12.226 0.7488-6.1097 5.2124-23.083 10.864-26.75 8.9074-9.4959-5.0678 19.94-41.306 38.971-47.977 23.873-8.3676 51.772 19.22 62.816 62.113 13.81 53.642-26.39 123.53-63.294 110.04zm936.8-1.5c-19.729-8.204-35.546-30.595-43.536-61.628-13.742-53.377 25.988-123.02 62.816-110.11 19.031 6.6705 48.467 42.909 38.971 47.977-3.6669 1.9569-20.64-3.695-26.75-8.9074-5.8553-4.9953-12.74-2.8953-22.142 6.754-9.7311 9.9872-16.948 33.106-14.528 46.54 3.9337 21.836 11.111 34.034 24.444 41.543 6.154 3.4657 7.3733 3.391 12.226-0.7488 10.047-8.5712 28.5-11.946 28.5-5.2126 0 21.514-41.224 51.605-60 43.797zm-1396.7-34.1c-51.65-12.619-37.085-111.78 14.916-101.54 22.412 4.4092 32.311 19.28 28.818 43.29-0.83688 5.7516-0.83688 9.7484 0 15.5 2.2442 15.424-1.3042 28.529-9.3043 34.363-11.959 8.721-22.533 11.298-34.43 8.3918zm1859.2-0.9c-20.945-5.19-29.893-19.646-26.518-42.841 0.8368-5.7516 0.8368-9.7484 0-15.5-7.6217-52.381 58.759-61.09 74.319-9.75 11.17 36.856-16.246 75.91-47.801 68.091zm-1292.5-61.3c-31.87-6.311-38.052-17.142-11-19.272 6.875-0.5414 14.975-1.4417 18-2.0008s10-1.7459 15.5-2.6373c25.835-4.1873 27.421-4.5124 41.5-8.5093 3.575-1.0149 9.875-2.8016 14-3.9703 66.37-18.805 118.53-58.008 137.35-103.22 1.1504-2.7642 2.5974-4.2112 5.3616-5.3616 17.872-7.4381 27.669-14.397 44.786-31.814 26.753-27.222 46.196-62.335 58.437-105.54 1.1687-4.125 2.9554-10.425 3.9703-14 3.9969-14.079 4.322-15.665 8.5093-41.5 0.8914-5.5 2.0782-12.475 2.6373-15.5s1.4594-11.125 2.0008-18c1.147-14.568 1.9158-17 5.3734-17 7.1225 0 16.875 29.166 15.251 45.609-1.4381 14.558-3.5375 29.548-5.101 36.418-5.0267 22.09-6.0826 26.176-8.7811 33.973-1.6179 4.675-3.5357 10.525-4.2619 13-2.806 9.5644-15.883 36.019-24.868 50.308-19.81 31.503-50.612 64.196-75.421 80.049-5.9784 3.8203-8.0691 5.911-11.889 11.889-15.853 24.809-48.546 55.612-80.049 75.421-14.288 8.9848-40.743 22.062-50.308 24.868-2.475 0.7262-8.325 2.644-13 4.2619-7.7974 2.6985-11.883 3.7544-33.973 8.7811-18.804 4.279-42.902 5.9507-54.027 3.7479zm718.93-0.2775c-1.4144-0.429-6.1394-1.0743-10.5-1.4341-12.22-1.0083-39.859-7.1215-53.428-11.817-4.675-1.6179-10.525-3.5357-13-4.2619-9.5644-2.806-36.019-15.883-50.308-24.868-31.333-19.702-64.819-51.21-79.77-75.055-3.4976-5.5784-5.6385-7.7223-11.366-11.382-24.602-15.719-55.484-48.532-75.224-79.922-8.9848-14.288-22.062-40.743-24.868-50.308-0.7262-2.475-2.644-8.325-4.2619-13-2.6985-7.7974-3.7544-11.883-8.7811-33.973-1.5635-6.8708-3.6629-21.86-5.101-36.418-1.6242-16.443 8.1287-45.609 15.251-45.609 3.4576 0 4.2264 2.4322 5.3734 17 0.5414 6.875 1.4417 14.975 2.0008 18s1.7459 10 2.6373 15.5c4.1873 25.835 4.5124 27.421 8.5093 41.5 1.0149 3.575 2.8016 9.875 3.9703 14 18.78 66.282 58.02 118.54 103.09 137.3 2.17 0.9029 3.9518 2.4711 4.3879 3.8616 4.2335 13.5 14.815 28.53 31.92 45.341 27.222 26.753 62.335 46.196 105.54 58.437 4.125 1.1687 10.425 2.9554 14 3.9703 14.079 3.9969 15.665 4.322 41.5 8.5093 5.5 0.8914 12.475 2.0782 15.5 2.6373s11.125 1.4594 18 2.0008c14.568 1.147 17 1.9158 17 5.3734 0 8.3497-37.775 18.956-52.072 14.621zm-635.78-60.375c-0.6056-0.7297-1.7898-2.9751-2.6316-4.9898-6.4631-15.468-22.002-33.486-48.454-56.184-22.873-19.626-40.349-39.906-43.518-50.5-0.4113-1.375-1.5592-4.3-2.551-6.5-6.0086-13.329-8.8612-48.804-5.1863-64.5 4.1615-17.775 11.407-37.119 17.416-46.5 8.4624-13.211 20.627-26.348 30.644-33.093 2.8081-1.8911 6.6529-5.7359 8.544-8.544 6.7458-10.017 19.882-22.181 33.093-30.644 9.3808-6.0091 28.725-13.254 46.5-17.416 15.696-3.6749 51.171-0.8223 64.5 5.1863 2.2 0.9918 5.125 2.1397 6.5 2.551 10.594 3.1687 30.874 20.645 50.5 43.518 23.256 27.104 36.338 38.409 56 48.395 9.7204 4.9369 8.6628 12.391-2.5654 18.08-7.1792 3.638-17.63 2.5833-36.28-3.6615-6.9962-2.3426-8.6542-1.5337-8.6542 4.2224 0 7.2129-5.2547 30.2-9.6937 42.406-17.796 48.935-36.12 69.785-77.806 88.534-20.209 9.0895-48.252 16.966-60.406 16.966-5.7561 0-6.565 1.658-4.2224 8.6542 2.9692 8.8677 6.1284 23.022 6.1284 27.458 0 10.938-12.727 22.742-17.856 16.561zm72.559-85.77c21.108-11.091 62.298-55.687 62.298-67.45 0-1.9527-0.08-1.9335-7.775 1.8807-13.982 6.9301-28.973 10.699-42.475 10.68l-8.7 0.1 0.013 8.75c0.02 13.502-3.7495 28.493-10.68 42.475-4.7847 9.6536-4.3841 9.8535 7.3693 3.678zm-61.302 0c34.483-6.6938 44.861-55.958 15.099-71.675-9.492-5.013-35.386-3.0345-44.972 3.4363-12.225 8.2513-10.891-22.111 1.6784-38.204 5.5825-7.1477 18.794-16.464 23.347-16.464 0.7959 0 1.4471-0.6512 1.4471-1.4471 0-4.5533 9.3166-17.764 16.464-23.347 16.094-12.569 46.456-13.903 38.204-1.6784-17.964 26.615-2.6246 62.024 26.831 61.937 37.611-0.1109 54.459-39.289 35.059-81.525-24.613-53.586-109.94-48.825-147.1 8.2078-1.5855 2.4335-4.8737 5.7217-7.3072 7.3072-79.701 51.93-47.763 170.73 41.254 153.45zm555.26 84.042c-9.0289-7.1022-9.4717-19.592-1.5351-43.296 2.3426-6.9962 1.5337-8.6542-4.2224-8.6542-9.4466 0-34.43-6.3318-51.406-13.028-16.001-6.3118-45.174-23.218-52.214-30.257-7.0398-7.0399-23.946-36.214-30.257-52.214-6.6966-16.976-13.028-41.959-13.028-51.406 0-5.7561-1.658-6.565-8.6542-4.2224-18.651 6.2448-29.101 7.2995-36.28 3.6615-11.228-5.6897-12.286-13.144-2.5654-18.08 19.662-9.9861 32.744-21.291 56-48.395 19.626-22.873 39.906-40.349 50.5-43.518 1.375-0.4113 4.3-1.5592 6.5-2.551 13.329-6.0086 48.804-8.8612 64.5-5.1863 17.775 4.1615 37.119 11.407 46.5 17.416 13.132 8.4122 26.343 20.62 32.983 30.48 1.8304 2.7179 5.4028 6.2913 7.9387 7.9409 9.2987 6.0488 21.971 19.765 30.359 32.86 6.0091 9.3808 13.254 28.725 17.416 46.5 3.6749 15.696 0.8223 51.171-5.1863 64.5-0.9918 2.2-2.1397 5.125-2.551 6.5-3.1687 10.594-20.645 30.874-43.518 50.5-27.104 23.256-38.409 36.338-48.395 56-3.5891 7.0667-7.7361 8.4991-12.884 4.45zm-51.7-81.3c0-0.2887-1.4999-3.5512-3.3332-7.25-6.8391-13.798-10.7-28.973-10.68-41.975l0.013-8.25-8.25 0.013c-13.002 0.02-28.176-3.8405-41.975-10.68-9.6536-4.7847-9.8535-4.3841-3.678 7.3693 11.627 22.129 67.903 72.496 67.903 60.772zm82.144-4.0038c67.951-13.494 75.889-100.13 13.732-149.87-4.1933-3.3558-10.316-9.4765-13.606-13.602-57.546-72.146-160.34-45.454-151.15 39.25 4.2302 38.996 55.378 53.956 72.651 21.25 5.013-9.492 3.0345-35.386-3.4363-44.972-4.3132-6.3902-0.8132-8.9796 10.899-8.0634 19.567 1.5307 33.232 10.701 41.786 28.043 1.9951 4.0445 3.4323 5.4817 7.4768 7.4768 17.342 8.5545 26.512 22.219 28.043 41.786 0.9162 11.712-1.6732 15.212-8.0634 10.899-26.615-17.964-62.024-2.6246-61.937 26.831 0.095 32.076 25.618 48.516 63.608 40.971zm-730.21 63.192c-22.971-9.8017-21.659-36.357 2.1636-43.771 18.326-5.7036 38.269 17.98 30.587 36.324-3.4932 8.3425-21.211 12.371-32.751 7.4473zm824.1 0.7c-13.177-4.9172-15.633-8.1969-14.682-19.602 2.8609-34.299 49.682-35.995 49.682-1.7994 0 13.833-20.951 26.644-35 21.401zm-872.5-24.599c-18.552-3.4875-25.023-19.554-14.528-36.072 13.446-21.163 49.61-10.051 49.486 15.206-0.093 18.872-10.984 25.373-34.958 20.866zm915.25-1.0798c-9.4973-4.1623-13.878-24.13-7.3593-33.544 18.097-26.137 58.817-9.6433 50.691 20.533-2.8663 10.645-30.084 18.818-43.332 13.012zm-971.25-26.543c-22.579-3.0276-23.364-38.742-1.0834-49.282 17.316-8.1919 43.384 4.0349 42.913 20.128-0.5784 19.773-18.523 32.28-41.83 29.154zm1034.9-1.1c-16.894-3.1161-31.147-26.619-22.911-37.779 15.475-20.967 49.108-17.551 56.009 5.688 6.4392 21.683-8.8987 36.554-33.098 32.091zm-628.78-240.2c-29.653-6.9825-25.997-48.908 4.2649-48.908 12.601 0 21.518 11.396 21.518 27.5 0 18.302-8.6103 25.452-25.782 21.408zm223.54-0.3266c-8.8421-4.0279-11.714-23.044-5.4241-35.91 9.6867-19.813 35.443-16.506 42.27 5.427 5.7275 18.402-18.807 38.7-36.846 30.483zm-112.2-23.1c-50.039-7.3536-86.643-38.566-77.113-65.754 6.6705-19.031 42.909-48.467 47.977-38.971 1.9569 3.6669-3.695 20.64-8.9074 26.75-4.1398 4.8525-4.2145 6.0718-0.7488 12.226 7.5088 13.333 19.706 20.51 41.543 24.444 13.434 2.4201 36.553-4.7967 46.54-14.528 9.6493-9.4018 11.749-16.287 6.754-22.142-5.2124-6.1097-10.864-23.083-8.9074-26.75 5.0678-9.4959 41.306 19.94 47.977 38.971 9.4938 27.086-30.006 60.545-77.613 65.743-3.3 0.3603-6.675 0.7912-7.5 0.9574-0.825 0.1663-5.325-0.2598-10-0.9468zm-140-23.105c-20.021-7.9017-24.527-38.444-7.2873-49.397 21.038-13.367 37.287-0.8651 37.287 28.689 0 15.195-15.995 26.236-30 20.709zm282.5-0.1742c-13.27-4.6722-16.968-13.952-13.402-33.635 3.5555-19.629 19.215-26.373 36.19-15.588 24.085 15.303 4.014 58.66-22.787 49.223zm-445-16.148c-15.705-3.2521-27.973-7.3458-33.586-11.208-3.4263-2.3572-2.0142-3.5154 14.419-11.827 43.342-21.92 55.134-53.502 40.702-109.01-0.5005-1.925-1.4048-6.425-2.0096-10s-1.73-9.425-2.5004-13c-2.9021-13.466-4.8358-24.758-5.5653-32.5-0.4147-4.4-1.2885-12.754-1.9419-18.564-4.0992-36.45 11.156-67.693 41.088-84.15 20.569-11.309 40.281-16.177 64.393-15.903 22.276 0.2537 25.018 0.6926 47.843 7.6587 39.934 12.188 85.352 50.585 106.91 90.382 3.1666 5.8466 5.2575 6.7491 4.2323 1.8269-1.0415-5.0009-5.5455-17.845-7.6218-21.735-1.0231-1.9168-1.8602-3.8207-1.8602-4.2308 0-1.0949-7.6201-16.483-11.035-22.284-1.6188-2.75-3.8986-6.7684-5.0662-8.9297-1.8545-3.4329-8.6209-14.073-17.216-27.07-1.4547-2.2-8.0191-12.325-14.587-22.5-6.5684-10.175-12.564-19.354-13.324-20.397-1.2742-1.75-1.795-1.7974-6.7338-0.61256-12.497 2.998-26.745-0.16427-41.898-9.299-8.7087-5.25-13.361-8.809-30.968-23.692-33.316-28.161-46.286-28.161-58.076 0-7.8369 18.719-7.5931 18.569-17.228 10.622-41.988-34.634-4.889-106.93 47.683-92.922 9.5764 2.5517 9.587 2.284 0.4227-10.7-13.4-18.97-39-59.35-39-61.45 0-0.2998-2.4297-4.7536-5.3993-9.8974-5.6789-9.8365-19.432-36.685-24.443-47.718-1.6238-3.575-4.3485-9.5187-6.0549-13.208-1.7063-3.6896-3.1024-7.3755-3.1024-8.191 0-0.81548-0.4333-1.7505-0.963-2.0778-0.5296-0.32733-1.4051-2.0414-1.9455-3.809s-2.1714-6.3639-3.6244-10.214c-1.453-3.85-3.7457-9.925-5.0948-13.5-1.3492-3.575-3.116-8.75-3.9263-11.5-8.7832-29.809-13.216-48.664-14.536-61.829-3.3527-33.435-3.3908-36.139-0.8192-58.171 2.4015-20.576 10.795-44.44 19.872-56.5 1.4488-1.925 3.4705-4.85 4.4925-6.5 41.638-67.221 156.59-56.657 160.27 14.729 1.9602 38.015-18.465 68.77-45.674 68.772-39.492 0.003-48.046-17.481-10.192-20.834 13.654-1.2094 15.032-2.1663 21.053-14.613 20.781-42.961-14.851-78.05-57.649-56.771-29.192 14.514-35.421 35.229-20.512 68.217 8.5373 18.89 10.897 23.054 31.747 56.035 15.046 23.8 25.093 41.417 28.494 49.965 1.2035 3.025 2.7608 6.625 3.4606 8 13.223 25.98 2.2542 63.16-20.332 68.92-5.8636 1.4954-22.906 3.1001-32.814 3.0897-11.577-0.0122-11.41-0.75453-3.1369 14.005 3.8494 6.8671 8.5608 15.411 10.47 18.986 1.9089 3.575 4.8553 8.75 6.5473 11.5 1.6921 2.75 4.3076 7.25 5.8123 10 12.052 22.026 43.512 69.19 50.028 75l2.2429 2-0.5276-3c-0.2901-1.65-1.8676-6.6-3.5054-11-14.899-40.025-7.387-62.77 26.902-81.461 4.0473-2.2061 8.089-4.0175 8.9816-4.0252 0.8926-0.008 3.8176-0.99157 6.5-2.1863 8.0236-3.5737 30.634-3.2426 38.838 0.56872 18.935 8.7966 28.117 24.816 14.539 25.367-42.631 1.729-53.113 15.758-39.401 52.736 1.4275 3.85 3.2391 8.8 4.0256 11 0.7864 2.2 1.8407 4.9 2.3427 6 2.5984 5.6935 8.0859 18.826 10.446 25 12.789 33.452 15.176 46.043 11.697 61.715l-2.3028 10.375 5.3463 9.7999c2.9405 5.3899 6.3373 11.445 7.5486 13.455 1.2113 2.0103 2.5244 4.33 2.9181 5.155 0.6763 1.4172 12.899 23.2 21.602 38.5 2.1901 3.85 5.8019 10.375 8.0262 14.5s5.1573 9.525 6.5177 12 4.7203 8.775 7.4663 14c15.709 29.891 16.155 30.578 17.179 26.495 0.7362-2.933-1.1073-53.526-2.4775-67.995-1.9381-20.466-3.0609-57.908-2.609-87l0.466-30 3.1538-7.5c2.4645-5.8609 4.0932-8.2103 7.4521-10.75 9.3079-7.0377 18.944-2.8364 24.658 10.75l3.1538 7.5 0.466 30c0.4519 29.092-0.6709 66.534-2.609 87-1.3702 14.469-3.2137 65.062-2.4775 67.995 1.0247 4.0828 1.47 3.396 17.179-26.495 2.746-5.225 6.1059-11.525 7.4663-14s4.2934-7.875 6.5177-12 5.8361-10.65 8.0262-14.5c8.7033-15.3 20.926-37.083 21.602-38.5 0.3937-0.825 1.7068-3.1448 2.9181-5.155 1.2113-2.0103 4.6081-8.065 7.5486-13.455l5.3463-9.7999-2.3028-10.375c-3.4787-15.673-1.0923-28.264 11.697-61.715 2.3604-6.1741 7.8479-19.307 10.446-25 0.502-1.1 1.5563-3.8 2.3427-6 0.7865-2.2 2.5981-7.15 4.0256-11 13.712-36.978 3.2296-51.007-39.401-52.736-13.578-0.55068-4.3959-16.571 14.539-25.367 8.2041-3.8113 30.814-4.1424 38.838-0.56872 2.6824 1.1947 5.6074 2.1786 6.5 2.1863 0.8926 0.008 4.9343 1.8191 8.9816 4.0252 34.289 18.691 41.801 41.436 26.902 81.461-1.6378 4.4-3.2153 9.35-3.5054 11l-0.5276 3 2.2429-2c6.516-5.8104 37.976-52.974 50.028-75 1.5047-2.75 4.1202-7.25 5.8123-10 1.692-2.75 4.6384-7.925 6.5473-11.5 1.909-3.575 6.6204-12.119 10.47-18.986 8.2735-14.759 8.4398-14.017-3.1369-14.005-9.9078 0.0104-26.95-1.5943-32.814-3.0897-22.586-5.7602-33.554-42.94-20.332-68.92 0.6998-1.375 2.2571-4.975 3.4606-8 3.401-8.5484 13.448-26.165 28.494-49.965 20.851-32.981 23.21-37.145 31.747-56.035 14.909-32.988 8.6799-53.702-20.512-68.217-42.798-21.279-78.43 13.81-57.649 56.771 6.0207 12.446 7.3993 13.403 21.053 14.613 37.854 3.353 29.3 20.837-10.192 20.834-27.209-0.002-47.634-30.757-45.674-68.772 3.6809-71.386 118.63-81.95 160.27-14.729 1.022 1.65 3.0437 4.575 4.4925 6.5 9.0768 12.06 17.47 35.924 19.872 56.5 2.5716 22.032 2.5335 24.736-0.8192 58.171-1.32 13.165-5.7529 32.02-14.536 61.829-1.3758 4.6695-3.0203 9.2296-9.1958 25.5-1.3569 3.575-2.9093 7.9462-3.4497 9.7139-0.5404 1.7676-1.4159 3.4817-1.9455 3.809-0.5297 0.32734-0.963 1.2624-0.963 2.0778 0 0.81547-1.3961 4.5014-3.1024 8.191-1.7064 3.6896-4.4311 9.6333-6.0549 13.208-5.0116 11.033-18.764 37.882-24.443 47.718-2.9696 5.1438-5.3993 9.5976-5.3993 9.8974 0 2.109-25.638 42.489-38.975 61.384-9.1643 12.984-9.1537 13.252 0.4227 10.7 52.572-14.008 89.671 58.288 47.683 92.922-9.6344 7.9468-9.3906 8.0971-17.228-10.622-11.79-28.161-24.759-28.161-58.076 0-17.608 14.883-22.26 18.442-30.968 23.692-15.152 9.1347-29.4 12.297-41.898 9.299-4.9388-1.1848-5.4596-1.1374-6.7338 0.61256-0.7595 1.0432-6.7551 10.222-13.324 20.397-6.5683 10.175-13.133 20.3-14.587 22.5-8.5947 12.998-15.361 23.637-17.216 27.07-1.1676 2.1613-3.4474 6.1797-5.0662 8.9297-3.4149 5.801-11.035 21.189-11.035 22.284 0 0.4101-0.8371 2.314-1.8602 4.2308-2.0763 3.8902-6.5803 16.734-7.6218 21.735-1.0252 4.9222 1.0657 4.0197 4.2323-1.8269 13.966-25.786 38.568-51.994 66.25-70.576 19.684-13.213 51.591-25.422 70-26.784 35.188-2.6046 58.133 1.6089 82.893 15.222 29.932 16.457 45.188 47.7 41.088 84.15-0.6534 5.8103-1.5272 14.164-1.9419 18.564-0.7295 7.742-2.6632 19.034-5.5653 32.5-0.7704 3.575-1.8956 9.425-2.5004 13s-1.5091 8.075-2.0096 10c-14.431 55.511-2.6395 87.092 40.702 109.01 20.142 10.187 20.222 10.511 4.0791 16.595-54.858 20.677-92.132-7.8719-92.188-70.608-0.016-17.694 1.2509-25.492 6.9446-42.75 2.7074-8.2063-4.7401-1.7376-29.002 25.19-13.484 14.966-15.54 16.601-18.152 14.433-7.4819-6.2094-1.6085-19.186 17.138-37.862 16.193-16.133 16.31-17.125 1.6605-14.09-25.46 5.2758-51.12-9.2217-57.25-32.345-0.5944-2.2423-1.7648-5.6518-2.6009-7.5768-1.9359-4.4572-2.8051-21.749-1.4577-29 4.8395-26.046 19.855-39.44 44.163-39.394 21.661 0.041 29.706 5.2509 17.368 11.246-25.588 12.432-33.838 49.586-13.943 62.796 46.943 31.171 91.641-39.332 55.742-87.923-17.388-23.536-64.75-32.821-100.67-19.734-2.75 1.002-6.35 2.1141-8 2.4715-43.862 9.4986-97.044 55.562-109.1 94.498-2.8538 9.2152-3.1136 9.0331 5.8605 4.1079 11.293-6.1978 22.042-9.0682 33.961-9.0682h9.8666l5.0831 4.75c20.398 19.061 20.212 35.3-0.4083 35.738-22.849 0.4857-56.76 22.213-56.76 36.367 0 0.4815-0.8511 1.9573-1.8913 3.2797-1.0401 1.3224-3.3282 5.9956-5.0845 10.385-1.7563 4.3893-4.0961 10.23-5.1995 12.98-3.9267 9.7862-8.5421 25.888-11.39 39.737-3.9 19.8-4.8 20.7-19.3 20.7-14.483 0-15.357-0.934-19.435-20.763-2.8479-13.848-7.4633-29.951-11.39-39.737-1.1034-2.75-3.4432-8.5912-5.1995-12.98-1.7563-4.3893-4.0444-9.0625-5.0845-10.385-1.0402-1.3224-1.8913-2.7982-1.8913-3.2797 0-14.154-33.912-35.881-56.76-36.367-20.62-0.4384-20.806-16.677-0.4083-35.738l5.0831-4.75h9.8666c11.918 0 22.668 2.8704 33.961 9.0682 8.9741 4.9252 8.7143 5.1073 5.8605-4.1079-12.058-38.936-65.24-84.999-109.1-94.498-1.65-0.3574-5.25-1.4695-8-2.4715-35.916-13.086-83.278-3.8019-100.67 19.734-35.899 48.591 8.7994 119.09 55.742 87.923 19.895-13.21 11.645-50.364-13.943-62.796-12.339-5.9947-4.293-11.204 17.368-11.246 24.308-0.046 39.323 13.348 44.163 39.394 1.3474 7.2513 0.4782 24.543-1.4577 29-0.8361 1.925-2.0065 5.3345-2.6009 7.5768-6.1297 23.123-31.79 37.62-57.25 32.345-14.65-3.0357-14.533-2.0437 1.6605 14.09 18.746 18.677 24.62 31.653 17.138 37.862-2.6119 2.1677-4.6678 0.533-18.152-14.433-24.262-26.928-31.71-33.397-29.002-25.19 5.6937 17.258 6.9605 25.056 6.9446 42.75-0.046 51.449-30.141 85.082-68.942 77.047zm128.5-33.14c-8.4235-3.4625-17.001-18.951-17-30.695 0-25.667 36.056-38.706 49.76-17.997 13.19 19.932-11.923 57.257-32.761 48.692zm355.33 0.092c-32.36-6.7377-33.916-60.351-1.7221-59.298 26.285 0.8597 38.155 29.004 21.476 50.917-6.3118 8.2921-10.877 10.229-19.754 8.3805zm-198.6-410.61c-26.721-4.4915-34.228-41.901-12.454-62.06 33.283-30.814 97.724-6.5731 89.786 33.775-4.426 22.497-19.172 32.252-43.54 28.802-5.7532-0.81448-9.8255-0.83558-14.5-0.0751-7.8219 1.2724-9.291 1.2388-19.292-0.4422zm21.187-91.163c-4.4351-1.8249-9.3856-12.269-10.344-21.822-0.3311-3.3-1.254-9.825-2.051-14.5-1.7765-10.422-4.4235-32.887-5.5376-47-0.4559-5.775-1.2748-12.75-1.8198-15.5-0.5449-2.75-1.2938-9.5-1.664-15-0.3703-5.5-1.2823-12.745-2.0267-16.099-0.7444-3.3545-1.8321-10.805-2.4172-16.557-0.5851-5.7517-1.4943-11.959-2.0207-13.794-0.5263-1.8351-1.2585-6.7596-1.6271-10.943-0.3686-4.1837-1.0292-8.5768-1.4681-9.7625s-1.2902-5.9107-1.8919-10.5c-1.2219-9.3196-2.3913-14.817-7.6249-35.844-1.9849-7.975-4.0014-16.3-4.481-18.5s-1.5384-5.8-2.3528-8-1.5157-4.675-1.5585-5.5c-0.043-0.825-0.9473-3.3-2.01-5.5s-1.9474-4.8306-1.9661-5.8457c-0.019-1.0151-0.6907-3.0401-1.4935-4.5s-2.8541-6.2543-4.5584-10.654c-9.3654-24.179-25.309-48.011-44.044-65.838-12.645-12.032-12.446-11.371-5.9959-19.892 8.1719-10.795 29.058-47.66 29.058-51.289 0-0.36982 0.8154-1.8669 1.8121-3.3268s2.3065-4.2294 2.9108-6.1544 2.08-5.975 3.2793-9 3.0722-7.75 4.162-10.5c1.9923-5.0271 9.0908-26.968 12.941-40 5.6979-19.285 5.604-18.905 11.839-48 6.996-32.647 7.7186-36.377 9.5885-49.5 0.8229-5.775 1.9049-11.85 2.4045-13.5s1.2085-6.15 1.5753-10c0.3669-3.85 1.2568-9.7 1.9776-13s1.6016-9.5138 1.9573-13.809c0.3557-4.2947 1.0843-8.9596 1.6192-10.366 0.5349-1.4069 1.4148-6.893 1.9554-12.191 0.5405-5.2984 1.6434-14.134 2.451-19.634 1.5602-10.627 2.6648-18.95 4.9799-37.526 0.7901-6.3394 1.9004-13.539 2.4674-16 0.567-2.4606 1.0419-5.7559 1.0554-7.3227 0.013-1.5669 0.6712-4.2669 1.4617-6s2.3577-7.7 3.4827-13.26c1.8386-9.087 8.7788-24.321 11.08-24.321s9.2414 15.234 11.08 24.321c1.125 5.5597 2.6922 11.527 3.4827 13.26 0.7905 1.7331 1.4483 4.4331 1.4617 6 0.014 1.5669 0.4884 4.8621 1.0554 7.3227s1.6773 9.6606 2.4674 16c2.3151 18.576 3.4197 26.899 4.9799 37.526 0.8076 5.5 1.9105 14.335 2.451 19.634 0.5406 5.2984 1.4205 10.785 1.9554 12.191 0.5349 1.4069 1.2635 6.0718 1.6192 10.366 0.3557 4.2947 1.2365 10.509 1.9573 13.809s1.6107 9.15 1.9776 13c0.3668 3.85 1.0757 8.35 1.5753 10s1.5816 7.725 2.4045 13.5c1.8448 12.947 3.3824 20.91 9.4612 49 1.1308 5.225 2.9811 13.775 4.1119 19 1.1309 5.225 2.9734 12.65 4.0945 16.5s2.891 9.925 3.9332 13.5c1.0421 3.575 3.8953 12.8 6.3404 20.5 4.1329 13.015 5.4407 16.657 10.772 30 1.0988 2.75 2.4922 6.575 3.0965 8.5s1.9141 4.6945 2.9108 6.1544 1.8121 2.957 1.8121 3.3268c0 3.629 20.886 40.495 29.058 51.289 6.4502 8.5204 6.6492 7.8599-5.9959 19.892-18.736 17.827-34.679 41.659-44.044 65.838-1.7043 4.4-3.7556 9.1944-4.5584 10.654-0.8028 1.4599-1.4749 3.4849-1.4935 4.5-0.019 1.0151-0.9034 3.6457-1.9661 5.8457s-1.9672 4.675-2.01 5.5c-0.043 0.825-0.7441 3.3-1.5585 5.5s-1.8732 5.8-2.3528 8-2.4961 10.525-4.481 18.5c-5.2336 21.027-6.403 26.525-7.6249 35.844-0.6017 4.5893-1.453 9.3143-1.8919 10.5s-1.0995 5.5788-1.4681 9.7625-1.1008 9.1082-1.6271 10.943c-0.5264 1.8351-1.4356 8.0425-2.0207 13.794-0.5851 5.7516-1.6728 13.202-2.4172 16.557-0.7444 3.3545-1.6564 10.599-2.0267 16.099-0.3702 5.5-1.1191 12.25-1.664 15-0.545 2.75-1.3639 9.725-1.8198 15.5-1.1141 14.113-3.7611 36.578-5.5376 47-0.797 4.675-1.7199 11.2-2.051 14.5-1.7152 17.097-10.185 26.089-20.553 21.822zm13.9-149.08c4.5192-28.462 8.2103-52.975 8.2025-54.472-0.014-2.6724 1.9581-12.94 6.103-31.778 1.1496-5.225 2.9617-13.55 4.0268-18.5s2.4156-11.025 3.0012-13.5 1.6326-6.975 2.3266-10c2.2172-9.663 4.5818-18.398 5.9557-22 0.7341-1.925 2.3264-6.875 3.5383-11 4.4934-15.294 7.9519-23.871 17.265-42.816 4.4493-9.0509 4.9231-13.051 2.1752-18.365-0.9106-1.7608-2.0191-4.3528-2.4634-5.76-0.4442-1.4071-1.9876-5.7084-3.4297-9.5584s-3.0947-8.575-3.6725-10.5c-0.5777-1.925-1.6111-4.625-2.2964-6-1.2822-2.5729-3.6883-9.887-7.5662-23-1.2199-4.125-3.01-9.975-3.9779-13-4.3216-13.506-7.8289-26.904-9.1623-35-0.4982-3.025-1.5367-7.3-2.3078-9.5s-1.6673-5.8-1.9916-8-1.2278-6.7-2.0079-10c-2.3502-9.9429-5.5382-28.758-5.5342-32.662 0-2.0141-0.6777-7.1891-1.5106-11.5s-1.9767-16.163-2.5417-26.338-1.4149-20.3-1.8886-22.5c-0.4738-2.2-3.0334-32.688-5.6881-67.75-2.7-35.052-5.1-63.74-5.4-63.74-0.2973 0-2.7125 28.688-5.3672 63.75s-5.2143 65.55-5.6881 67.75c-0.4737 2.2-1.3236 12.325-1.8886 22.5s-1.7088 22.027-2.5417 26.338c-0.8329 4.3109-1.5127 9.4859-1.5106 11.5 0 3.9043-3.184 22.719-5.5342 32.662-0.7801 3.3-1.6836 7.8-2.0079 10s-1.2205 5.8-1.9916 8-1.8096 6.475-2.3078 9.5c-1.3334 8.096-4.8407 21.494-9.1623 35-0.9679 3.025-2.758 8.875-3.9779 13-3.8779 13.113-6.284 20.427-7.5662 23-0.6853 1.375-1.7187 4.075-2.2964 6-0.5778 1.925-2.2304 6.65-3.6725 10.5s-2.9855 8.1513-3.4297 9.5584c-0.4443 1.4071-1.5528 3.9991-2.4634 5.76-2.7479 5.314-2.2741 9.3145 2.1752 18.365 9.3133 18.946 12.772 27.522 17.265 42.816 1.2119 4.125 2.8042 9.075 3.5383 11 1.3739 3.6024 3.7385 12.337 5.9557 22 0.694 3.025 1.741 7.525 2.3266 10s1.9361 8.55 3.0012 13.5 2.8772 13.275 4.0268 18.5c4.1449 18.838 6.1168 29.106 6.103 31.778 0 4.13 16.3 106.22 17 106.22 0.3273 0 4.2925-23.288 8.8116-51.75z"
     id="path2" />
</svg>
