<?xml version="1.0" encoding="utf-8"?>

<!DOCTYPE svg PUBLIC "-//W3C//DTD SVG 1.1//EN" "http://www.w3.org/Graphics/SVG/1.1/DTD/svg11.dtd">
<svg version="1.1" id="Layer_1" xmlns="http://www.w3.org/2000/svg" xmlns:xlink="http://www.w3.org/1999/xlink" x="0px" y="0px"
	 viewBox="0 0 1670 1670" enable-background="new 0 0 1670 1670" xml:space="preserve">
<g>
	<path d="M1571.1931,835c5.5138,4.3464,10.3049,9.8328,14.2188,16.4923c3.7161,6.3231,4.5994,14.3479,11.0128,19.2693
		c3.3322-7.9634,0.9827-16.2692,1.3721-24.4071c0.0618-1.292-1.2443-2.601-1.7048-3.9735c-0.875-2.608-1.8571-5.0658-2.9409-7.381
		c1.0839-2.3152,2.0659-4.7731,2.9409-7.381c0.4606-1.3726,1.7666-2.6815,1.7048-3.9735
		c-0.3894-8.1379,1.9601-16.4437-1.3721-24.4071c-6.4135,4.9214-7.2968,12.9462-11.0128,19.2693
		C1581.498,825.1672,1576.7069,830.6536,1571.1931,835z M835,1571.1931c-4.3464,5.5138-9.8328,10.3049-16.4923,14.2188
		c-6.3231,3.7161-14.3479,4.5994-19.2693,11.0128c7.9634,3.3322,16.2692,0.9827,24.4071,1.3721
		c1.292,0.0618,2.601-1.2443,3.9735-1.7048c2.608-0.875,5.0658-1.8571,7.381-2.9409c2.3152,1.0839,4.7731,2.0659,7.381,2.9409
		c1.3726,0.4606,2.6815,1.7666,3.9735,1.7048c8.1379-0.3894,16.4437,1.9601,24.4071-1.3721
		c-4.9214-6.4135-12.9462-7.2968-19.2693-11.0128C844.8328,1581.498,839.3464,1576.7069,835,1571.1931z M98.8069,835
		c-5.5138-4.3464-10.3049-9.8328-14.2187-16.4923c-3.7161-6.3231-4.5994-14.3479-11.0128-19.2693
		c-3.3322,7.9634-0.9827,16.2692-1.3721,24.4071c-0.0618,1.292,1.2443,2.601,1.7048,3.9735c0.875,2.608,1.8571,5.0658,2.941,7.381
		c-1.0839,2.3152-2.066,4.7731-2.941,7.381c-0.4605,1.3726-1.7666,2.6815-1.7048,3.9735
		c0.3894,8.1379-1.9601,16.4437,1.3721,24.4071c6.4135-4.9214,7.2967-12.9462,11.0128-19.2693
		C88.502,844.8328,93.2931,839.3464,98.8069,835z M835,98.8069c4.3464-5.5138,9.8328-10.3049,16.4923-14.2187
		c6.3231-3.7161,14.3479-4.5994,19.2693-11.0128c-7.9634-3.3322-16.2692-0.9827-24.4071-1.3721
		c-1.292-0.0618-2.601,1.2443-3.9735,1.7048c-2.608,0.875-5.0658,1.8571-7.381,2.941c-2.3152-1.0839-4.7731-2.066-7.381-2.941
		c-1.3726-0.4605-2.6815-1.7666-3.9735-1.7048c-8.1379,0.3894-16.4437-1.9601-24.4071,1.3721
		c4.9214,6.4135,12.9462,7.2967,19.2693,11.0128C825.1672,88.502,830.6536,93.2931,835,98.8069z M1505.3503,164.6497
		c-18.0022-8.7632-38.657-13.4077-58.0933-15.9337c-37.0287-4.8123-75.5184-3.7361-112.7943-1.8079
		c-3.1622,0.1636-6.4266,0.3698-9.2554,1.7929c-13.285,6.6839,4.5168,19.9267,8.3158,26.42
		c4.1591,7.1089,6.905,15.0528,7.9277,23.2296c1.0358,8.2809-1.9933,14.8222-11.1687,11.7419
		c-22.2261-7.4616-45.5194-14.8811-69.3923-15.37c-24.1495-0.4945-48.8049,5.5702-71.6443,12.9146
		c-21.402,6.8822-42.2849,15.8889-63.2819,23.93c-7.0854,2.7135,0.864,6.1318,3.3276,9.0313
		c11.3345,13.3397,23.127,26.3395,27.0001,44.208c2.5411,11.7233-3.3452,18.4028-13.8527,13.9935
		c-41.4814-17.4068-75.9008-0.0786-112.0708,18.2439c-30.6547,15.5287-55.0494,38.0951-79.1604,60.7339
		c-19.7293,18.5247-35.5112,41.5686-51.3931,63.7884c-16.3181,22.83-31.3464,46.9286-44.7885,71.3094
		c-6.0814,11.0303-13.3205,21.3996-20.0261,32.0685c-6.7056-10.6689-13.9447-21.0381-20.0261-32.0685
		c-13.4421-24.3807-28.4703-48.4794-44.7885-71.3094c-15.8819-22.2197-31.6638-45.2637-51.3931-63.7884
		c-24.111-22.6388-48.5057-45.2052-79.1605-60.7339c-36.17-18.3225-70.5893-35.6506-112.0707-18.2439
		c-10.5075,4.4093-16.3938-2.2702-13.8527-13.9935c3.873-17.8685,15.6656-30.8683,27-44.208
		c2.4637-2.8995,10.4131-6.3178,3.3276-9.0313c-20.9969-8.0411-41.8798-17.0478-63.2818-23.93
		c-22.8394-7.3444-47.4948-13.4091-71.6443-12.9146c-23.8729,0.4889-47.1662,7.9084-69.3924,15.37
		c-9.1753,3.0803-12.2044-3.461-11.1686-11.7419c1.0227-8.1768,3.7687-16.1207,7.9278-23.2296
		c3.7989-6.4933,21.6007-19.7361,8.3157-26.42c-2.8287-1.4231-6.0931-1.6293-9.2554-1.7929
		c-37.2758-1.9282-75.7656-3.0044-112.7942,1.8079c-19.4363,2.526-40.0911,7.1704-58.0932,15.9337
		c-8.7632,18.0021-13.4077,38.6569-15.9337,58.0932c-4.8123,37.0287-3.7361,75.5184-1.8079,112.7942
		c0.1636,3.1623,0.3698,6.4267,1.7929,9.2554c6.6839,13.2851,19.9267-4.5168,26.42-8.3157
		c7.1089-4.1591,15.0528-6.9051,23.2296-7.9278c8.2809-1.0357,14.8222,1.9933,11.7419,11.1686
		c-7.4616,22.2262-14.8811,45.5195-15.37,69.3924c-0.4945,24.1495,5.5702,48.8049,12.9146,71.6443
		c6.8822,21.402,15.8889,42.2849,23.93,63.2818c2.7135,7.0854,6.1318-0.864,9.0313-3.3276c13.3397-11.3344,26.3395-23.127,44.208-27
		c11.7233-2.5412,18.4028,3.3452,13.9935,13.8527c-17.4068,41.4814-0.0786,75.9007,18.2439,112.0707
		c15.5287,30.6547,38.0951,55.0494,60.7339,79.1605c18.5247,19.7293,41.5686,35.5112,63.7884,51.3931
		c22.83,16.3181,46.9286,31.3464,71.3094,44.7885c11.0303,6.0814,21.3996,13.3205,32.0685,20.0261
		c-10.6689,6.7056-21.0381,13.9447-32.0685,20.0261c-24.3807,13.4421-48.4794,28.4703-71.3094,44.7885
		c-22.2197,15.8819-45.2637,31.6638-63.7884,51.3931c-22.6388,24.111-45.2052,48.5057-60.7339,79.1604
		c-18.3225,36.17-35.6506,70.5894-18.2439,112.0708c4.4093,10.5074-2.2702,16.3938-13.9935,13.8527
		c-17.8685-3.8732-30.8683-15.6656-44.208-27.0001c-2.8995-2.4636-6.3178-10.4131-9.0313-3.3276
		c-8.0411,20.9969-17.0478,41.8799-23.93,63.2819c-7.3444,22.8394-13.4091,47.4948-12.9146,71.6443
		c0.4889,23.8729,7.9084,47.1663,15.37,69.3923c3.0803,9.1754-3.461,12.2045-11.7419,11.1687
		c-8.1768-1.0227-16.1207-3.7687-23.2296-7.9277c-6.4933-3.799-19.7361-21.6008-26.42-8.3158
		c-1.4231,2.8287-1.6293,6.0931-1.7929,9.2554c-1.9282,37.2759-3.0044,75.7656,1.8079,112.7943
		c2.526,19.4363,7.1704,40.0911,15.9337,58.0933c18.0021,8.7632,38.6569,13.4077,58.0932,15.9336
		c37.0287,4.8123,75.5184,3.7362,112.7942,1.808c3.1623-0.1636,6.4267-0.3699,9.2554-1.793
		c13.2851-6.6838-4.5168-19.9266-8.3157-26.4199c-4.1591-7.109-6.9051-15.0529-7.9278-23.2296
		c-1.0357-8.2809,1.9933-14.8221,11.1686-11.7419c22.2262,7.4617,45.5195,14.8811,69.3924,15.37
		c24.1495,0.4946,48.8049-5.5701,71.6443-12.9146c21.402-6.8822,42.2849-15.8889,63.2818-23.9299
		c7.0854-2.7135-0.864-6.1318-3.3276-9.0314c-11.3344-13.3397-23.127-26.3395-27-44.208
		c-2.5412-11.7233,3.3452-18.4027,13.8527-13.9934c41.4814,17.4067,75.9007,0.0786,112.0707-18.2439
		c30.6547-15.5287,55.0494-38.0951,79.1605-60.7339c19.7293-18.5247,35.5112-41.5686,51.3931-63.7883
		c16.3181-22.83,31.3464-46.9287,44.7885-71.3093c6.0814-11.0304,13.3205-21.3997,20.0261-32.0685
		c6.7056,10.6688,13.9447,21.0381,20.0261,32.0685c13.4421,24.3806,28.4703,48.4794,44.7885,71.3093
		c15.8819,22.2197,31.6638,45.2637,51.3931,63.7883c24.111,22.6388,48.5057,45.2052,79.1604,60.7339
		c36.17,18.3225,70.5894,35.6506,112.0708,18.2439c10.5074-4.4093,16.3938,2.2701,13.8527,13.9934
		c-3.8732,17.8685-15.6656,30.8683-27.0001,44.208c-2.4636,2.8995-10.4131,6.3179-3.3276,9.0314
		c20.9969,8.041,41.8799,17.0477,63.2819,23.9299c22.8394,7.3445,47.4948,13.4092,71.6443,12.9146
		c23.8729-0.4889,47.1663-7.9083,69.3923-15.37c9.1754-3.0802,12.2045,3.4611,11.1687,11.7419
		c-1.0227,8.1768-3.7687,16.1206-7.9277,23.2296c-3.799,6.4933-21.6008,19.7361-8.3158,26.4199
		c2.8287,1.4231,6.0931,1.6294,9.2554,1.793c37.2759,1.9282,75.7656,3.0043,112.7943-1.808
		c19.4363-2.5259,40.0911-7.1704,58.0933-15.9336c8.7632-18.0022,13.4077-38.657,15.9336-58.0933
		c4.8123-37.0287,3.7362-75.5184,1.808-112.7943c-0.1636-3.1622-0.3699-6.4266-1.793-9.2554
		c-6.6838-13.285-19.9266,4.5168-26.4199,8.3158c-7.109,4.1591-15.0529,6.905-23.2296,7.9277
		c-8.2809,1.0358-14.8221-1.9933-11.7419-11.1687c7.4617-22.2261,14.8811-45.5194,15.37-69.3923
		c0.4946-24.1495-5.5701-48.8049-12.9146-71.6443c-6.8822-21.402-15.8889-42.2849-23.9299-63.2819
		c-2.7135-7.0854-6.1318,0.864-9.0314,3.3276c-13.3397,11.3345-26.3395,23.127-44.208,27.0001
		c-11.7233,2.5411-18.4027-3.3452-13.9934-13.8527c17.4067-41.4814,0.0786-75.9008-18.2439-112.0708
		c-15.5287-30.6547-38.0951-55.0494-60.7339-79.1604c-18.5247-19.7293-41.5686-35.5112-63.7883-51.3931
		c-22.83-16.3181-46.9287-31.3464-71.3093-44.7885c-11.0304-6.0814-21.3997-13.3205-32.0685-20.0261
		c10.6688-6.7056,21.0381-13.9447,32.0685-20.0261c24.3806-13.4421,48.4794-28.4703,71.3093-44.7885
		c22.2197-15.8819,45.2637-31.6638,63.7883-51.3931c22.6388-24.111,45.2052-48.5057,60.7339-79.1605
		c18.3225-36.17,35.6506-70.5893,18.2439-112.0707c-4.4093-10.5075,2.2701-16.3938,13.9934-13.8527
		c17.8685,3.873,30.8683,15.6656,44.208,27c2.8995,2.4637,6.3179,10.4131,9.0314,3.3276
		c8.041-20.9969,17.0477-41.8798,23.9299-63.2818c7.3445-22.8394,13.4092-47.4948,12.9146-71.6443
		c-0.4889-23.8729-7.9083-47.1662-15.37-69.3924c-3.0802-9.1753,3.4611-12.2044,11.7419-11.1686
		c8.1768,1.0227,16.1206,3.7687,23.2296,7.9278c6.4933,3.7989,19.7361,21.6007,26.4199,8.3157
		c1.4231-2.8287,1.6294-6.0931,1.793-9.2554c1.9282-37.2758,3.0043-75.7656-1.808-112.7942
		C1518.7581,203.3066,1514.1135,182.6518,1505.3503,164.6497z M835,45.8367c5.7865-1.4172,11.8966-2.2685,18.2839-2.5691
		c20.5308-0.9664,49.541,5.3874,60.175,25.0546c4.705,8.7015,9.7836,33.6658-5.6053,33.4398
		c-7.4476-0.1094-14.9277,0.3675-22.3407-0.1572c-19.3807-1.3719-41.5419,18.067-42.6606,37.5085
		c-0.4397,7.6415,0.7162,11.2075,9.0514,6.1541c13.1503-7.9727,26.2913-13.1126,42.861-8.2179
		c8.7073,2.5722,14.5769,7.3112,18.0595,13.54c3.3187,5.9357-2.8751,11.7375-7.8066,15.6042
		c-16.7634,13.1437-18.311,28.8371-15.4973,49.6851c4.5577,33.7721,8.9427,68.3925-1.3075,102.4501
		c-1.4988,4.9797-0.2081,10.799-0.2081,17.5211c19.4378-29.7375,42.8209-54.8207,65.4951-80.4206
		c18.5452-20.9381,30.0992-45.6363,37.9163-71.6075c5.7802-19.2039-5.3853-35.7181-17.1207-50.7608
		c-5.0714-6.5007-15.8166-12.3513-10.0472-21.8981c5.4504-9.0189,14.676-13.147,27.1801-12.9464
		c13.2526,0.2125,24.993,1.6609,35.0246,10.0968c6.6271,5.5729,6.8876-1.0479,9.2598-3.8496
		c12.8058-15.1242,21.4586-33.5798,37.2908-46.2871c17.1533-13.7678,21.8584-13.536,34.7773,4.3082
		c4.1212,5.6924,6.7991,4.102,10.6008,0.8818c12.0543-10.21,25.7852-18.5859,40.9143-23.3372
		c7.6272-2.3953,15.387-3.6594,23.335-4.3342c8.0396-0.6826,15.7423,1.0409,23.8632,0.3256c6.119-0.539,12.2677-1.436,18.3778-0.804
		c11.9292,1.2341,17.7913,8.027,19.7701,19.4468c1.7534,10.1187-7.6398,12.1061-15.0067,14.1672
		c-19.3333,5.409-34.0502,16.9295-47.7609,31.4182c-7.8491,8.2945-5.6711,18.4958-10.2136,27.1828
		c-2.6067,4.9848,3.5344,1.7351,5.2012,1.1416c15.4154-5.4893,29.7429-13.4596,44.8494-19.7811
		c49.3143-20.6363,99.8306-33.6395,153.5157-37.7708c24.6239-1.8949,49.2637-4.9264,74.0054-3.9877
		c23.7751,0.902,47.4974,2.6567,71.0488,6.0955c17.0914,2.4956,34.2067,5.4784,51.531,5.537
		c8.1389,0.0275,15.4415-0.2143,21.8574-2.3359c-2.1217,6.4158-2.3635,13.7184-2.3359,21.8573
		c0.0586,17.3244,3.0414,34.4396,5.537,51.5311c3.4387,23.5513,5.1934,47.2736,6.0955,71.0488
		c0.9387,24.7416-2.0928,49.3814-3.9878,74.0054c-4.1312,53.6851-17.1344,104.2014-37.7708,153.5157
		c-6.3215,15.1064-14.2917,29.434-19.7811,44.8493c-0.5935,1.6668-3.8431,7.808,1.1416,5.2013
		c8.687-4.5425,18.8883-2.3646,27.1827-10.2137c14.4886-13.7106,26.0092-28.4275,31.4182-47.7608
		c2.0612-7.367,4.0486-16.7601,14.1672-15.0067c11.4199,1.9788,18.2128,7.8409,19.4468,19.7701
		c0.6322,6.1101-0.2649,12.2588-0.804,18.3778c-0.7152,8.1208,1.0083,15.8235,0.3257,23.8632
		c-0.6748,7.9479-1.9388,15.7078-4.3342,23.3349c-4.7512,15.1292-13.1272,28.86-23.3372,40.9142
		c-3.2202,3.8018-4.8105,6.4797,0.8818,10.6009c17.8442,12.9189,18.0759,17.624,4.3082,34.7773
		c-12.7074,15.8322-31.163,24.485-46.2871,37.2909c-2.8016,2.3721-9.4225,2.6327-3.8496,9.2597
		c8.436,10.0316,9.8843,21.772,10.0968,35.0246c0.2006,12.5041-3.9275,21.7297-12.9464,27.1801
		c-9.5468,5.7693-15.3973-4.9758-21.8981-10.0472c-15.0427-11.7354-31.557-22.9009-50.7609-17.1207
		c-25.9712,7.8171-50.6694,19.3711-71.6075,37.9163c-25.6,22.6742-50.683,46.0573-80.4205,65.4951
		c6.7219,0,12.5413,1.2907,17.521-0.2081c34.0576-10.2502,68.6781-5.8652,102.4502-1.3075
		c20.848,2.8137,36.5414,1.2661,49.6851-15.4973c3.8667-4.9316,9.6686-11.1254,15.6042-7.8066
		c6.2289,3.4826,10.9678,9.3522,13.54,18.0595c4.8948,16.5697-0.2451,29.7106-8.2179,42.861
		c-5.0533,8.3351-1.4874,9.4911,6.1541,9.0514c19.4415-1.1187,38.8805-23.2799,37.5085-42.6606
		c-0.5248-7.413-0.0479-14.8931-0.1572-22.3407c-0.226-15.3889,24.7383-10.3103,33.4398-5.6053
		c19.6672,10.6341,26.0211,39.6443,25.0547,60.175c-0.3008,6.3873-1.152,12.4974-2.5692,18.2839
		c1.4172,5.7865,2.2684,11.8966,2.5692,18.2839c0.9664,20.5308-5.3875,49.541-25.0547,60.175
		c-8.7015,4.705-33.6658,9.7836-33.4398-5.6053c0.1094-7.4476-0.3676-14.9277,0.1572-22.3407
		c1.3719-19.3807-18.067-41.5419-37.5085-42.6606c-7.6415-0.4397-11.2074,0.7162-6.1541,9.0514
		c7.9728,13.1503,13.1127,26.2913,8.2179,42.861c-2.5723,8.7073-7.3112,14.5769-13.54,18.0595
		c-5.9357,3.3187-11.7375-2.8751-15.6042-7.8066c-13.1437-16.7634-28.837-18.311-49.6851-15.4973
		c-33.7721,4.5577-68.3926,8.9427-102.4502-1.3075c-4.9797-1.4988-10.7991-0.2081-17.521-0.2081
		c29.7375,19.4378,54.8206,42.8209,80.4205,65.4951c20.9381,18.5452,45.6364,30.0992,71.6075,37.9163
		c19.2039,5.7802,35.7181-5.3853,50.7609-17.1207c6.5007-5.0714,12.3513-15.8166,21.8981-10.0472
		c9.0189,5.4504,13.147,14.676,12.9464,27.1801c-0.2125,13.2526-1.6608,24.993-10.0968,35.0246
		c-5.5729,6.6271,1.048,6.8876,3.8496,9.2598c15.1241,12.8058,33.5797,21.4586,46.2871,37.2908
		c13.7677,17.1533,13.536,21.8584-4.3082,34.7773c-5.6924,4.1212-4.1021,6.7991-0.8818,10.6008
		c10.21,12.0543,18.5859,25.7852,23.3372,40.9143c2.3954,7.6272,3.6594,15.387,4.3342,23.335
		c0.6826,8.0396-1.0409,15.7423-0.3257,23.8632c0.5391,6.119,1.4362,12.2677,0.804,18.3778
		c-1.234,11.9292-8.0269,17.7913-19.4468,19.7701c-10.1187,1.7534-12.1061-7.6398-14.1672-15.0067
		c-5.4091-19.3333-16.9296-34.0502-31.4182-47.7609c-8.2944-7.8491-18.4957-5.6711-27.1827-10.2136
		c-4.9847-2.6067-1.7351,3.5344-1.1416,5.2012c5.4894,15.4154,13.4596,29.7429,19.7811,44.8494
		c20.6364,49.3143,33.6395,99.8306,37.7708,153.5157c1.895,24.6239,4.9265,49.2637,3.9878,74.0054
		c-0.9021,23.7751-2.6567,47.4974-6.0955,71.0488c-2.4956,17.0914-5.4784,34.2067-5.537,51.531
		c-0.0276,8.1389,0.2142,15.4415,2.3359,21.8574c-6.4159-2.1217-13.7185-2.3635-21.8574-2.3359
		c-17.3243,0.0586-34.4396,3.0414-51.531,5.537c-23.5514,3.4387-47.2737,5.1934-71.0488,6.0955
		c-24.7417,0.9387-49.3815-2.0928-74.0054-3.9878c-53.6852-4.1312-104.2014-17.1344-153.5157-37.7708
		c-15.1064-6.3215-29.434-14.2917-44.8494-19.7811c-1.6667-0.5935-7.8079-3.8431-5.2012,1.1416
		c4.5425,8.687,2.3645,18.8883,10.2136,27.1827c13.7107,14.4886,28.4276,26.0092,47.7609,31.4182
		c7.3669,2.0612,16.7601,4.0486,15.0067,14.1672c-1.9789,11.4199-7.8409,18.2128-19.7701,19.4468
		c-6.1101,0.6322-12.2588-0.2649-18.3778-0.804c-8.1208-0.7152-15.8236,1.0083-23.8632,0.3257
		c-7.948-0.6748-15.7078-1.9388-23.335-4.3342c-15.1292-4.7512-28.86-13.1272-40.9143-23.3372
		c-3.8018-3.2202-6.4796-4.8105-10.6008,0.8818c-12.9189,17.8442-17.624,18.0759-34.7773,4.3082
		c-15.8322-12.7074-24.485-31.163-37.2908-46.2871c-2.3722-2.8016-2.6327-9.4225-9.2598-3.8496
		c-10.0316,8.436-21.772,9.8843-35.0246,10.0968c-12.5041,0.2006-21.7297-3.9275-27.1801-12.9464
		c-5.7693-9.5468,4.9758-15.3973,10.0472-21.8981c11.7354-15.0427,22.9009-31.557,17.1207-50.7609
		c-7.8171-25.9712-19.3711-50.6694-37.9163-71.6075c-22.6742-25.6-46.0573-50.683-65.4951-80.4205
		c0,6.7219-1.2907,12.5413,0.2081,17.521c10.2502,34.0576,5.8652,68.6781,1.3075,102.4502
		c-2.8137,20.848-1.2661,36.5414,15.4973,49.6851c4.9316,3.8667,11.1254,9.6686,7.8066,15.6042
		c-3.4826,6.2289-9.3522,10.9678-18.0595,13.54c-16.5697,4.8948-29.7106-0.2451-42.861-8.2179
		c-8.3351-5.0533-9.4911-1.4874-9.0514,6.1541c1.1187,19.4415,23.2799,38.8805,42.6606,37.5085
		c7.413-0.5248,14.8931-0.0479,22.3407-0.1572c15.3889-0.226,10.3103,24.7383,5.6053,33.4398
		c-10.6341,19.6672-39.6443,26.0211-60.175,25.0547c-6.3873-0.3008-12.4974-1.152-18.2839-2.5692
		c-5.7865,1.4172-11.8966,2.2684-18.2839,2.5692c-20.5308,0.9664-49.541-5.3875-60.175-25.0547
		c-4.705-8.7015-9.7836-33.6658,5.6053-33.4398c7.4476,0.1094,14.9277-0.3676,22.3407,0.1572
		c19.3807,1.3719,41.5419-18.067,42.6606-37.5085c0.4397-7.6415-0.7162-11.2074-9.0514-6.1541
		c-13.1503,7.9728-26.2913,13.1127-42.861,8.2179c-8.7073-2.5723-14.5769-7.3112-18.0595-13.54
		c-3.3187-5.9357,2.8751-11.7375,7.8066-15.6042c16.7634-13.1437,18.311-28.837,15.4973-49.6851
		c-4.5577-33.7721-8.9427-68.3926,1.3075-102.4502c1.4988-4.9797,0.2081-10.7991,0.2081-17.521
		c-19.4378,29.7375-42.8209,54.8206-65.4951,80.4205c-18.5452,20.9381-30.0992,45.6364-37.9163,71.6075
		c-5.7802,19.2039,5.3853,35.7181,17.1207,50.7609c5.0714,6.5007,15.8166,12.3513,10.0472,21.8981
		c-5.4504,9.0189-14.676,13.147-27.1801,12.9464c-13.2526-0.2125-24.993-1.6608-35.0246-10.0968
		c-6.627-5.5729-6.8876,1.048-9.2597,3.8496c-12.8058,15.1241-21.4587,33.5797-37.2909,46.2871
		c-17.1533,13.7677-21.8583,13.536-34.7773-4.3082c-4.1212-5.6924-6.7991-4.1021-10.6009-0.8818
		c-12.0542,10.21-25.785,18.5859-40.9142,23.3372c-7.6271,2.3954-15.387,3.6594-23.3349,4.3342
		c-8.0396,0.6826-15.7423-1.0409-23.8632-0.3257c-6.119,0.5391-12.2677,1.4362-18.3778,0.804
		c-11.9293-1.234-17.7913-8.0269-19.7701-19.4468c-1.7534-10.1187,7.6397-12.1061,15.0067-14.1672
		c19.3333-5.4091,34.0502-16.9296,47.7608-31.4182c7.8491-8.2944,5.6712-18.4957,10.2137-27.1827
		c2.6067-4.9847-3.5345-1.7351-5.2013-1.1416c-15.4153,5.4894-29.7429,13.4596-44.8493,19.7811
		c-49.3143,20.6364-99.8306,33.6395-153.5157,37.7708c-24.624,1.895-49.2637,4.9265-74.0054,3.9878
		c-23.7752-0.9021-47.4975-2.6567-71.0488-6.0955c-17.0915-2.4956-34.2067-5.4784-51.5311-5.537
		c-8.1389-0.0276-15.4415,0.2142-21.8573,2.3359c2.1216-6.4159,2.3635-13.7185,2.3359-21.8574
		c-0.0586-17.3243-3.0415-34.4396-5.537-51.531c-3.4388-23.5514-5.1934-47.2737-6.0955-71.0488
		c-0.9387-24.7417,2.0928-49.3815,3.9877-74.0054c4.1313-53.6852,17.1345-104.2014,37.7708-153.5157
		c6.3215-15.1064,14.2918-29.434,19.7811-44.8494c0.5935-1.6667,3.8432-7.8079-1.1416-5.2012
		c-8.687,4.5425-18.8883,2.3645-27.1828,10.2136c-14.4886,13.7107-26.0091,28.4276-31.4182,47.7609
		c-2.0611,7.3669-4.0486,16.7601-14.1672,15.0067c-11.4199-1.9789-18.2128-7.8409-19.4468-19.7701
		c-0.6321-6.1101,0.265-12.2588,0.804-18.3778c0.7153-8.1208-1.0082-15.8236-0.3256-23.8632
		c0.6748-7.948,1.9389-15.7078,4.3342-23.335c4.7513-15.1292,13.1272-28.86,23.3372-40.9143
		c3.2202-3.8018,4.8106-6.4796-0.8818-10.6008c-17.8442-12.9189-18.076-17.624-4.3082-34.7773
		c12.7074-15.8322,31.1629-24.485,46.2871-37.2908c2.8016-2.3722,9.4225-2.6327,3.8496-9.2598
		c-8.436-10.0316-9.8843-21.772-10.0968-35.0246c-0.2005-12.5041,3.9276-21.7297,12.9464-27.1801
		c9.5468-5.7693,15.3973,4.9758,21.8981,10.0472c15.0428,11.7354,31.557,22.9009,50.7608,17.1207
		c25.9713-7.8171,50.6694-19.3711,71.6075-37.9163c25.6-22.6742,50.6831-46.0573,80.4206-65.4951
		c-6.722,0-12.5413-1.2907-17.5211,0.2081c-34.0576,10.2502-68.6781,5.8652-102.4501,1.3075
		c-20.848-2.8137-36.5414-1.2661-49.6851,15.4973c-3.8667,4.9316-9.6685,11.1254-15.6042,7.8066
		c-6.2289-3.4826-10.9678-9.3522-13.54-18.0595c-4.8947-16.5697,0.2451-29.7106,8.2179-42.861
		c5.0534-8.3351,1.4874-9.4911-6.1541-9.0514c-19.4415,1.1187-38.8804,23.2799-37.5085,42.6606
		c0.5247,7.413,0.0478,14.8931,0.1572,22.3407c0.226,15.3889-24.7383,10.3103-33.4398,5.6053
		c-19.6672-10.6341-26.021-39.6443-25.0546-60.175c0.3007-6.3873,1.1519-12.4974,2.5691-18.2839
		c-1.4172-5.7865-2.2685-11.8966-2.5691-18.2839c-0.9664-20.5308,5.3874-49.541,25.0546-60.175
		c8.7015-4.705,33.6658-9.7836,33.4398,5.6053c-0.1094,7.4476,0.3675,14.9277-0.1572,22.3407
		c-1.3719,19.3807,18.067,41.5419,37.5085,42.6606c7.6415,0.4397,11.2075-0.7162,6.1541-9.0514
		c-7.9727-13.1503-13.1126-26.2913-8.2179-42.861c2.5722-8.7073,7.3112-14.5769,13.54-18.0595
		c5.9357-3.3187,11.7375,2.8751,15.6042,7.8066c13.1437,16.7634,28.8371,18.311,49.6851,15.4973
		c33.7721-4.5577,68.3925-8.9427,102.4501,1.3075c4.9797,1.4988,10.799,0.2081,17.5211,0.2081
		c-29.7375-19.4378-54.8207-42.8209-80.4206-65.4951c-20.9381-18.5452-45.6363-30.0992-71.6075-37.9163
		c-19.2039-5.7802-35.7181,5.3853-50.7608,17.1207c-6.5007,5.0714-12.3513,15.8166-21.8981,10.0472
		c-9.0189-5.4504-13.147-14.676-12.9464-27.1801c0.2125-13.2526,1.6609-24.993,10.0968-35.0246
		c5.5729-6.627-1.0479-6.8876-3.8496-9.2597c-15.1242-12.8058-33.5798-21.4587-46.2871-37.2909
		c-13.7678-17.1533-13.536-21.8583,4.3082-34.7773c5.6924-4.1212,4.102-6.7991,0.8818-10.6009
		c-10.21-12.0542-18.5859-25.785-23.3372-40.9142c-2.3953-7.6271-3.6594-15.387-4.3342-23.3349
		c-0.6826-8.0396,1.0409-15.7423,0.3256-23.8632c-0.539-6.119-1.436-12.2677-0.804-18.3778
		c1.2341-11.9293,8.027-17.7913,19.4468-19.7701c10.1187-1.7534,12.1061,7.6397,14.1672,15.0067
		c5.409,19.3333,16.9295,34.0502,31.4182,47.7608c8.2945,7.8491,18.4958,5.6712,27.1828,10.2137
		c4.9848,2.6067,1.7351-3.5345,1.1416-5.2013c-5.4893-15.4153-13.4596-29.7429-19.7811-44.8493
		c-20.6363-49.3143-33.6395-99.8306-37.7708-153.5157c-1.8949-24.624-4.9264-49.2637-3.9877-74.0054
		c0.902-23.7752,2.6567-47.4975,6.0955-71.0488c2.4956-17.0915,5.4784-34.2067,5.537-51.5311
		c0.0275-8.1389-0.2143-15.4415-2.3359-21.8573c6.4158,2.1216,13.7184,2.3635,21.8573,2.3359
		c17.3244-0.0586,34.4396-3.0415,51.5311-5.537c23.5513-3.4388,47.2736-5.1934,71.0488-6.0955
		c24.7416-0.9387,49.3814,2.0928,74.0054,3.9877c53.6851,4.1313,104.2014,17.1345,153.5157,37.7708
		c15.1064,6.3215,29.434,14.2918,44.8493,19.7811c1.6668,0.5935,7.808,3.8432,5.2013-1.1416
		c-4.5425-8.687-2.3646-18.8883-10.2137-27.1828c-13.7106-14.4886-28.4275-26.0091-47.7608-31.4182
		c-7.367-2.0611-16.7601-4.0486-15.0067-14.1672c1.9788-11.4199,7.8409-18.2128,19.7701-19.4468
		c6.1101-0.6321,12.2588,0.265,18.3778,0.804c8.1208,0.7153,15.8235-1.0082,23.8632-0.3256
		c7.9479,0.6748,15.7078,1.9389,23.3349,4.3342c15.1292,4.7513,28.86,13.1272,40.9142,23.3372
		c3.8018,3.2202,6.4797,4.8106,10.6009-0.8818c12.9189-17.8442,17.624-18.076,34.7773-4.3082
		c15.8322,12.7074,24.485,31.1629,37.2909,46.2871c2.3721,2.8016,2.6327,9.4225,9.2597,3.8496
		c10.0316-8.436,21.772-9.8843,35.0246-10.0968c12.5041-0.2005,21.7297,3.9276,27.1801,12.9464
		c5.7693,9.5468-4.9758,15.3973-10.0472,21.8981c-11.7354,15.0428-22.9009,31.557-17.1207,50.7608
		c7.8171,25.9713,19.3711,50.6694,37.9163,71.6075c22.6742,25.6,46.0573,50.6831,65.4951,80.4206
		c0-6.722,1.2907-12.5413-0.2081-17.5211c-10.2502-34.0576-5.8652-68.6781-1.3075-102.4501
		c2.8137-20.848,1.2661-36.5414-15.4973-49.6851c-4.9316-3.8667-11.1254-9.6685-7.8066-15.6042
		c3.4826-6.2289,9.3522-10.9678,18.0595-13.54c16.5697-4.8947,29.7106,0.2451,42.861,8.2179
		c8.3351,5.0534,9.4911,1.4874,9.0514-6.1541c-1.1187-19.4415-23.2799-38.8804-42.6606-37.5085
		c-7.413,0.5247-14.8931,0.0478-22.3407,0.1572c-15.3889,0.226-10.3103-24.7383-5.6053-33.4398
		c10.6341-19.6672,39.6443-26.021,60.175-25.0546C823.1034,43.5682,829.2135,44.4194,835,45.8367z M835,495.747
		c3.2128-4.6746,6.3279-9.4029,9.1881-14.2723c29.5345-50.2839,65.13-96.1175,108.2435-135.5918
		c30.2763-27.7207,62.7642-52.3511,102.0104-66.7752c18.9387-6.9604,38.246-8.0232,57.9492-7.303
		c4.1764,0.1527,8.5791-0.2093,9.9369-4.5179c1.5487-4.9141-3.1539-5.9834-6.4313-8.2363
		c-8.1235-5.5842-16.1787-10.3611-26.3265-11.9532c-7.2191-1.1326-18.6984-7.0758-11.217-15.7819
		c1.4771-1.7189,3.4163-2.9666,5.3502-4.1482c22.9014-13.9924,49.9915-23.2106,75.168-32.2838
		c25.9539-9.3533,52.7769-16.6701,80.3566-18.923c14.1079-1.1511,26.5427-1.3685,40.4928,1.6494
		c6.7732,1.4653,13.8696,2.8013,20.8141,1.8616c8.186-1.1077,7.0332-2.6638,2.8058-6.9055
		c-13.3739-13.4195-31.4758-16.8064-48.3268-22.7106c-3.7472-1.313-8.8749-1.1838-8.8674-5.8784
		c0.0071-4.3512,5.2986-5.3247,8.7562-6.0327c58.0227-11.8804,116.8049-19.4284,176.0828-13.9981
		c24.7883,2.2709,50.7623,5.5442,73.8092,15.0798c5.983,2.4755,11.7957,5.4308,17.3607,8.8186
		c3.3877,5.5651,6.3431,11.3777,8.8186,17.3607c9.5356,23.0468,12.809,49.0208,15.0798,73.8093
		c5.4302,59.2778-2.1177,118.06-13.9982,176.0827c-0.708,3.4577-1.6815,8.7492-6.0327,8.7562
		c-4.6946,0.0075-4.5653-5.1201-5.8783-8.8673c-5.9043-16.851-9.2911-34.953-22.7106-48.3269
		c-4.2417-4.2274-5.7979-5.3802-6.9055,2.8058c-0.9397,6.9444,0.3964,14.0408,1.8617,20.814
		c3.0178,13.9501,2.8004,26.3849,1.6493,40.4929c-2.2529,27.5797-9.5697,54.4026-18.923,80.3565
		c-9.0732,25.1766-18.2915,52.2667-32.2838,75.168c-1.1816,1.9339-2.4293,3.8732-4.1482,5.3502
		c-8.7062,7.4814-14.6494-3.9979-15.782-11.2169c-1.592-10.1479-6.369-18.2031-11.9531-26.3267
		c-2.2529-3.2773-3.3221-7.9799-8.2363-6.4312c-4.3086,1.3577-4.6705,5.7605-4.5179,9.9369
		c0.7203,19.7033-0.3425,39.0106-7.3029,57.9492c-14.4242,39.2462-39.0546,71.7341-66.7753,102.0104
		c-39.4742,43.1135-85.3079,78.709-135.5917,108.2435c-4.8695,2.8602-9.5978,5.9753-14.2725,9.1881
		c4.6747,3.2128,9.403,6.3279,14.2725,9.1881c50.2838,29.5345,96.1174,65.13,135.5917,108.2435
		c27.7207,30.2763,52.3511,62.7642,66.7753,102.0104c6.9603,18.9387,8.0232,38.246,7.3029,57.9492
		c-0.1526,4.1764,0.2094,8.5791,4.5179,9.9369c4.9142,1.5487,5.9834-3.1539,8.2363-6.4313
		c5.5841-8.1235,10.3611-16.1787,11.9531-26.3265c1.1326-7.2191,7.0758-18.6984,15.782-11.217
		c1.7189,1.4771,2.9666,3.4163,4.1482,5.3502c13.9923,22.9014,23.2106,49.9915,32.2838,75.168
		c9.3533,25.9539,16.67,52.7769,18.923,80.3566c1.1511,14.1079,1.3685,26.5427-1.6493,40.4928
		c-1.4653,6.7732-2.8014,13.8696-1.8617,20.8141c1.1077,8.186,2.6638,7.0332,6.9055,2.8058
		c13.4194-13.3739,16.8063-31.4758,22.7106-48.3268c1.313-3.7472,1.1837-8.8749,5.8783-8.8674
		c4.3512,0.0071,5.3247,5.2986,6.0327,8.7562c11.8805,58.0227,19.4283,116.8049,13.9982,176.0828
		c-2.2709,24.7883-5.5442,50.7623-15.0798,73.8092c-2.4755,5.983-5.4309,11.7957-8.8186,17.3607
		c-5.5651,3.3877-11.3777,6.3431-17.3607,8.8186c-23.0469,9.5356-49.0209,12.809-73.8092,15.0798
		c-59.2778,5.4302-118.0601-2.1177-176.0828-13.9982c-3.4576-0.708-8.7491-1.6815-8.7562-6.0327
		c-0.0074-4.6946,5.1202-4.5653,8.8674-5.8783c16.851-5.9043,34.9529-9.2911,48.3268-22.7106
		c4.2274-4.2417,5.3802-5.7979-2.8058-6.9055c-6.9445-0.9397-14.0409,0.3964-20.8141,1.8617
		c-13.9501,3.0178-26.3849,2.8004-40.4928,1.6493c-27.5797-2.2529-54.4027-9.5697-80.3566-18.923
		c-25.1765-9.0732-52.2666-18.2915-75.168-32.2838c-1.934-1.1816-3.8732-2.4293-5.3502-4.1482
		c-7.4813-8.7062,3.9979-14.6494,11.217-15.782c10.1478-1.592,18.203-6.369,26.3265-11.9531
		c3.2773-2.2529,7.98-3.3221,6.4313-8.2363c-1.3578-4.3086-5.7605-4.6705-9.9369-4.5179
		c-19.7032,0.7203-39.0105-0.3425-57.9492-7.3029c-39.2462-14.4242-71.7341-39.0546-102.0104-66.7753
		c-43.1135-39.4742-78.709-85.3079-108.2435-135.5917c-2.8602-4.8695-5.9753-9.5978-9.1881-14.2725
		c-3.2128,4.6747-6.3279,9.403-9.1881,14.2725c-29.5345,50.2838-65.13,96.1174-108.2435,135.5917
		c-30.2763,27.7207-62.7642,52.3511-102.0104,66.7753c-18.9386,6.9603-38.2458,8.0232-57.9492,7.3029
		c-4.1764-0.1526-8.5792,0.2094-9.9369,4.5179c-1.5487,4.9142,3.1539,5.9834,6.4312,8.2363
		c8.1236,5.5841,16.1788,10.3611,26.3267,11.9531c7.2191,1.1326,18.6983,7.0758,11.2169,15.782
		c-1.477,1.7189-3.4163,2.9666-5.3502,4.1482c-22.9014,13.9923-49.9915,23.2106-75.168,32.2838
		c-25.9538,9.3533-52.7768,16.67-80.3565,18.923c-14.1079,1.1511-26.5428,1.3685-40.4929-1.6493
		c-6.7732-1.4653-13.8696-2.8014-20.814-1.8617c-8.186,1.1077-7.0332,2.6638-2.8058,6.9055
		c13.3739,13.4194,31.4758,16.8063,48.3269,22.7106c3.7472,1.313,8.8748,1.1837,8.8673,5.8783
		c-0.007,4.3512-5.2985,5.3247-8.7562,6.0327c-58.0227,11.8805-116.8049,19.4283-176.0827,13.9982
		c-24.7884-2.2709-50.7624-5.5442-73.8093-15.0798c-5.983-2.4755-11.7957-5.4309-17.3607-8.8186
		c-3.3877-5.5651-6.3431-11.3777-8.8186-17.3607c-9.5356-23.0469-12.8089-49.0209-15.0798-73.8092
		c-5.4302-59.2778,2.1177-118.0601,13.9981-176.0828c0.708-3.4576,1.6815-8.7491,6.0327-8.7562
		c4.6945-0.0074,4.5654,5.1202,5.8784,8.8674c5.9042,16.851,9.2911,34.9529,22.7106,48.3268
		c4.2417,4.2274,5.7978,5.3802,6.9055-2.8058c0.9397-6.9445-0.3964-14.0409-1.8616-20.8141
		c-3.0179-13.9501-2.8004-26.3849-1.6494-40.4928c2.253-27.5797,9.5697-54.4027,18.923-80.3566
		c9.0732-25.1765,18.2914-52.2666,32.2838-75.168c1.1816-1.934,2.4293-3.8732,4.1482-5.3502
		c8.7061-7.4813,14.6493,3.9979,15.7819,11.217c1.5921,10.1478,6.369,18.203,11.9532,26.3265
		c2.2528,3.2773,3.3221,7.98,8.2363,6.4313c4.3086-1.3578,4.6706-5.7605,4.5179-9.9369
		c-0.7202-19.7032,0.3426-39.0105,7.303-57.9492c14.4241-39.2462,39.0545-71.7341,66.7752-102.0104
		c39.4742-43.1135,85.3079-78.709,135.5918-108.2435c4.8695-2.8602,9.5977-5.9753,14.2723-9.1881
		c-4.6746-3.2128-9.4029-6.3279-14.2723-9.1881c-50.2839-29.5345-96.1175-65.13-135.5918-108.2435
		c-27.7207-30.2763-52.3511-62.7642-66.7752-102.0104c-6.9604-18.9386-8.0232-38.2458-7.303-57.9492
		c0.1527-4.1764-0.2093-8.5792-4.5179-9.9369c-4.9141-1.5487-5.9834,3.1539-8.2363,6.4312
		c-5.5842,8.1236-10.3611,16.1788-11.9532,26.3267c-1.1326,7.2191-7.0758,18.6983-15.7819,11.2169
		c-1.7189-1.477-2.9666-3.4163-4.1482-5.3502c-13.9924-22.9014-23.2106-49.9915-32.2838-75.168
		c-9.3533-25.9538-16.6701-52.7768-18.923-80.3565c-1.1511-14.1079-1.3685-26.5428,1.6494-40.4929
		c1.4653-6.7732,2.8013-13.8696,1.8616-20.814c-1.1077-8.186-2.6638-7.0332-6.9055-2.8058
		c-13.4195,13.3739-16.8064,31.4758-22.7106,48.3269c-1.313,3.7472-1.1838,8.8748-5.8784,8.8673
		c-4.3512-0.007-5.3247-5.2985-6.0327-8.7562c-11.8804-58.0227-19.4284-116.8049-13.9981-176.0827
		c2.2709-24.7884,5.5442-50.7624,15.0798-73.8093c2.4755-5.983,5.4308-11.7957,8.8186-17.3607
		c5.5651-3.3877,11.3777-6.3431,17.3607-8.8186c23.0468-9.5356,49.0208-12.8089,73.8093-15.0798
		c59.2778-5.4302,118.06,2.1177,176.0827,13.9981c3.4577,0.708,8.7492,1.6815,8.7562,6.0327
		c0.0075,4.6945-5.1201,4.5654-8.8673,5.8784c-16.851,5.9042-34.953,9.2911-48.3269,22.7106
		c-4.2274,4.2417-5.3802,5.7978,2.8058,6.9055c6.9444,0.9397,14.0408-0.3964,20.814-1.8616
		c13.9501-3.0179,26.3849-2.8004,40.4929-1.6494c27.5797,2.253,54.4026,9.5697,80.3565,18.923
		c25.1766,9.0732,52.2667,18.2914,75.168,32.2838c1.9339,1.1816,3.8732,2.4293,5.3502,4.1482
		c7.4814,8.7061-3.9979,14.6493-11.2169,15.7819c-10.1479,1.5921-18.2031,6.369-26.3267,11.9532
		c-3.2773,2.2528-7.9799,3.3221-6.4312,8.2363c1.3577,4.3086,5.7605,4.6706,9.9369,4.5179
		c19.7033-0.7202,39.0106,0.3426,57.9492,7.303c39.2462,14.4241,71.7341,39.0545,102.0104,66.7752
		c43.1135,39.4742,78.709,85.3079,108.2435,135.5918C828.6721,486.3441,831.7872,491.0724,835,495.747z M1567.8274,102.1727
		c-16.4612,0.3152-32.939-0.5133-49.295-2.3867c-19.4015-2.2221-38.7905-6.4878-58.1722-6.4146
		c-20.1755,0.0763-40.4641,0.3568-60.7566,1.687c-43.5741,2.8564-86.132,8.772-127.9534,21.6171
		c-45.9574,14.1154-89.7595,32.7897-131.4113,56.6937c-4.7239,2.711-10.9716,5.1586-7.8354,11.6188
		c3.8539,7.9385,2.5803,13.9419-4.8523,17.0867c-7.4541,3.1538-14.5886,1.6221-17.8096-7.5258
		c-0.4167-1.1838-2.0466-2.1421-3.3248-2.7904c-16.8446-8.543-17.6794-14.5342-1.098-23.9639
		c16.3811-9.3159,27.7788-23.3591,36.1855-38.6695c12.2921-22.3862,20.2452-47.1965,42.9999-65.8058
		c-4.5347,0.4859-6.0269,0.3056-7.2152,0.8233c-25.022,10.9024-46.3618,26.8059-65.751,46.0189
		c-4.7688,4.7255-6.175,17.8677-17.6077,12.3516c-10.5253-5.0783-0.5343-14.8527-3.4055-22.0795
		c-1.0256-2.5815-0.1158-7.8745-1.149-8.1653c-3.9254-1.105-7.5829,1.0877-10.1766,4.2734
		c-13.6929,16.8176-27.9788,33.2895-25.2847,57.4847c0.6238,5.6014-3.9417,9.0313-8.9952,10.0557
		c-8.2766,1.6777-14.2909-1.3581-17.4125-9.793c-2.5226-6.8162-5.7309-13.382-8.7199-20.0207
		c-1.4991-3.3297-3.7288-6.4181-7.8135-5.3424c-5.9925,1.5783-0.2516,5.4241-0.959,8.2793
		c-0.7635,3.0823,0.773,6.6365,1.3281,9.9039c2.1233,12.5003,5.7301,25.7174,3.6144,37.7587
		c-3.8972,22.1796-13.0577,42.8217-25.5451,62.1342c-11.8762,18.3672-27.6629,33.0998-41.8851,49.2136
		c-17.2355,19.528-33.3398,39.8778-48.614,60.8623c-12.1046,16.6298-25.3767,32.5943-33.7371,51.752
		c-3.4338,7.8685-10.2371,11.1293-17.974,7.6617c-8.2828-3.7123-2.8352-10.5625-0.9333-15.3479
		c10.0346-25.2484,20.8177-49.92,22.112-77.9651c1.4581-31.5968,1.7735-62.9893-0.1842-94.6034
		c-1.3229-21.3618-8.4147-44.4011,8.5826-63.5951c2.61-2.9473,1.8536-5.1658-0.5988-7.5826
		c-2.886-2.8441-5.0377-1.3891-7.6001,0.6799c-11.2897,9.1155-16.6407,21.6892-19.4319,35.2173
		c-1.3719,6.649-3.7778,11.8371-10.3085,12.3832c-1.5378,0.1286-2.7954-0.0687-3.8393-0.5076
		c-1.0439,0.439-2.3015,0.6362-3.8393,0.5076c-6.5307-0.5461-8.9365-5.7342-10.3085-12.3832
		c-2.7912-13.5282-8.1422-26.1018-19.4319-35.2173c-2.5624-2.069-4.7141-3.524-7.6001-0.6799
		c-2.4524,2.4168-3.2088,4.6352-0.5988,7.5826c16.9973,19.194,9.9055,42.2333,8.5826,63.5951
		c-1.9577,31.6141-1.6423,63.0067-0.1842,94.6034c1.2943,28.045,12.0774,52.7166,22.112,77.9651
		c1.9019,4.7855,7.3495,11.6356-0.9333,15.3479c-7.7369,3.4677-14.5402,0.2068-17.974-7.6617
		c-8.3604-19.1577-21.6325-35.1223-33.7371-51.752c-15.2742-20.9845-31.3785-41.3343-48.614-60.8623
		c-14.2222-16.1138-30.0089-30.8464-41.8851-49.2136c-12.4874-19.3125-21.6479-39.9546-25.5451-62.1342
		c-2.1157-12.0413,1.4911-25.2584,3.6144-37.7587c0.5551-3.2675,2.0916-6.8216,1.3281-9.9039
		c-0.7073-2.8552,5.0335-6.701-0.959-8.2793c-4.0847-1.0758-6.3145,2.0127-7.8135,5.3424
		c-2.989,6.6387-6.1973,13.2045-8.7199,20.0207c-3.1216,8.4349-9.1359,11.4707-17.4124,9.793
		c-5.0536-1.0244-9.6191-4.4543-8.9953-10.0557c2.6941-24.1953-11.5919-40.6671-25.2847-57.4847
		c-2.5937-3.1856-6.2512-5.3784-10.1766-4.2734c-1.0333,0.2909-0.1234,5.5839-1.1491,8.1653
		c-2.8713,7.2269,7.1198,17.0012-3.4056,22.0795c-11.4326,5.5161-12.8388-7.6261-17.6077-12.3516
		c-19.3891-19.2131-40.7289-35.1166-65.7509-46.0189c-1.1883-0.5177-2.6806-0.3374-7.2151-0.8233
		c22.7545,18.6094,30.7077,43.4196,42.9998,65.8058c8.4069,15.3105,19.8044,29.3536,36.1857,38.6695
		c16.5814,9.4297,15.7465,15.421-1.0981,23.9639c-1.2782,0.6483-2.9081,1.6066-3.3249,2.7904
		c-3.2209,9.148-10.3554,10.6797-17.8094,7.5258c-7.4327-3.1448-8.7063-9.1482-4.8524-17.0867
		c3.1362-6.4601-3.1115-8.9078-7.8353-11.6188c-41.6518-23.9039-85.4539-42.5783-131.4113-56.6937
		c-41.8215-12.8451-84.3794-18.7607-127.9534-21.6171c-20.2925-1.3302-40.5811-1.6107-60.7567-1.687
		c-19.3817-0.0733-38.7708,4.1925-58.1722,6.4146c-16.3561,1.8733-32.8339,2.7018-49.295,2.3867
		c0.3152,16.4611-0.5133,32.9389-2.3867,49.295c-2.2221,19.4014-6.4878,38.7905-6.4146,58.1722
		c0.0763,20.1756,0.3568,40.4642,1.687,60.7567c2.8564,43.574,8.772,86.1319,21.6171,127.9534
		c14.1154,45.9574,32.7897,89.7595,56.6937,131.4113c2.711,4.7238,5.1586,10.9715,11.6188,7.8353
		c7.9385-3.8539,13.9419-2.5803,17.0867,4.8524c3.1538,7.454,1.6221,14.5886-7.5258,17.8094
		c-1.1838,0.4167-2.1421,2.0467-2.7904,3.3249c-8.543,16.8446-14.5342,17.6794-23.9639,1.0981
		c-9.3159-16.3812-23.3591-27.7788-38.6695-36.1857c-22.3862-12.2921-47.1965-20.2452-65.8058-42.9998
		c0.4859,4.5345,0.3056,6.0268,0.8233,7.2151c10.9024,25.022,26.8059,46.3618,46.0189,65.7509
		c4.7255,4.7689,17.8677,6.1751,12.3516,17.6077c-5.0783,10.5253-14.8527,0.5343-22.0795,3.4056
		c-2.5815,1.0257-7.8745,0.1158-8.1653,1.1491c-1.105,3.9254,1.0877,7.5829,4.2734,10.1766
		c16.8176,13.6928,33.2895,27.9788,57.4847,25.2847c5.6014-0.6238,9.0313,3.9417,10.0557,8.9953
		c1.6777,8.2766-1.3581,14.2908-9.793,17.4124c-6.8162,2.5226-13.382,5.7309-20.0207,8.7199
		c-3.3297,1.4991-6.4181,3.7288-5.3424,7.8135c1.5783,5.9925,5.4241,0.2516,8.2793,0.959c3.0823,0.7635,6.6365-0.773,9.9039-1.3281
		c12.5003-2.1233,25.7174-5.7301,37.7587-3.6144c22.1796,3.8972,42.8217,13.0577,62.1342,25.5451
		c18.3672,11.8762,33.0998,27.6629,49.2136,41.8851c19.528,17.2355,39.8778,33.3398,60.8623,48.614
		c16.6298,12.1046,32.5943,25.3767,51.752,33.7371c7.8685,3.4338,11.1293,10.2371,7.6617,17.974
		c-3.7123,8.2828-10.5625,2.8352-15.3479,0.9333c-25.2484-10.0346-49.92-20.8177-77.9651-22.112
		c-31.5968-1.4581-62.9893-1.7735-94.6034,0.1842c-21.3618,1.3229-44.4011,8.4147-63.5951-8.5826
		c-2.9473-2.61-5.1658-1.8536-7.5826,0.5988c-2.8441,2.886-1.3891,5.0377,0.6799,7.6001
		c9.1155,11.2897,21.6892,16.6407,35.2173,19.4319c6.649,1.3719,11.8371,3.7778,12.3832,10.3085
		c0.1286,1.5378-0.0687,2.7954-0.5076,3.8393c0.439,1.0439,0.6362,2.3015,0.5076,3.8393
		c-0.5461,6.5307-5.7342,8.9365-12.3832,10.3085c-13.5282,2.7912-26.1018,8.1422-35.2173,19.4319
		c-2.069,2.5624-3.524,4.7141-0.6799,7.6001c2.4168,2.4524,4.6352,3.2088,7.5826,0.5988
		c19.194-16.9973,42.2333-9.9055,63.5951-8.5826c31.6141,1.9577,63.0067,1.6423,94.6034,0.1842
		c28.045-1.2943,52.7166-12.0774,77.9651-22.112c4.7855-1.9019,11.6356-7.3495,15.3479,0.9333
		c3.4677,7.7369,0.2068,14.5402-7.6617,17.974c-19.1577,8.3604-35.1223,21.6325-51.752,33.7371
		c-20.9845,15.2742-41.3343,31.3785-60.8623,48.614c-16.1138,14.2222-30.8464,30.0089-49.2136,41.8851
		c-19.3125,12.4874-39.9546,21.6479-62.1342,25.5451c-12.0413,2.1157-25.2584-1.4911-37.7587-3.6144
		c-3.2675-0.5551-6.8216-2.0916-9.9039-1.3281c-2.8552,0.7073-6.701-5.0335-8.2793,0.959
		c-1.0758,4.0847,2.0127,6.3145,5.3424,7.8135c6.6387,2.989,13.2045,6.1973,20.0207,8.7199
		c8.4349,3.1216,11.4707,9.1359,9.793,17.4125c-1.0244,5.0536-4.4543,9.619-10.0557,8.9952
		c-24.1953-2.6941-40.6671,11.5918-57.4847,25.2847c-3.1856,2.5938-5.3784,6.2512-4.2734,10.1766
		c0.2909,1.0332,5.5839,0.1234,8.1653,1.149c7.2269,2.8712,17.0012-7.1198,22.0795,3.4055
		c5.5161,11.4326-7.6261,12.8389-12.3516,17.6077c-19.2131,19.3892-35.1166,40.729-46.0189,65.751
		c-0.5177,1.1884-0.3374,2.6805-0.8233,7.2152c18.6094-22.7546,43.4196-30.7078,65.8058-42.9999
		c15.3105-8.4067,29.3536-19.8044,38.6695-36.1855c9.4297-16.5814,15.421-15.7466,23.9639,1.098
		c0.6483,1.2782,1.6066,2.9081,2.7904,3.3248c9.148,3.2209,10.6797,10.3555,7.5258,17.8096
		c-3.1448,7.4326-9.1482,8.7062-17.0867,4.8523c-6.4601-3.1361-8.9078,3.1116-11.6188,7.8354
		c-23.9039,41.6517-42.5783,85.4539-56.6937,131.4113c-12.8451,41.8214-18.7607,84.3793-21.6171,127.9534
		c-1.3302,20.2925-1.6107,40.5811-1.687,60.7566c-0.0733,19.3817,4.1925,38.7708,6.4146,58.1722
		c1.8733,16.3561,2.7018,32.8339,2.3867,49.295c16.4611-0.3152,32.9389,0.5133,49.295,2.3866
		c19.4014,2.222,38.7905,6.4878,58.1722,6.4146c20.1756-0.0763,40.4642-0.3568,60.7567-1.687
		c43.574-2.8563,86.1319-8.772,127.9534-21.6171c45.9574-14.1154,89.7595-32.7897,131.4113-56.6936
		c4.7238-2.7111,10.9715-5.1587,7.8353-11.6188c-3.8539-7.9386-2.5803-13.9419,4.8524-17.0868
		c7.454-3.1538,14.5886-1.6221,17.8094,7.5259c0.4167,1.1838,2.0467,2.1421,3.3249,2.7904
		c16.8446,8.543,17.6794,14.5342,1.0981,23.9639c-16.3812,9.3159-27.7788,23.3591-36.1857,38.6696
		c-12.2921,22.3862-20.2452,47.1964-42.9998,65.8058c4.5345-0.4858,6.0268-0.3055,7.2151-0.8232
		c25.022-10.9023,46.3618-26.8059,65.7509-46.0189c4.7689-4.7256,6.1751-17.8677,17.6077-12.3517
		c10.5253,5.0784,0.5343,14.8527,3.4056,22.0796c1.0257,2.5814,0.1158,7.8744,1.1491,8.1653
		c3.9254,1.1051,7.5829-1.0876,10.1766-4.2733c13.6928-16.8176,27.9788-33.2894,25.2847-57.4847
		c-0.6238-5.6014,3.9417-9.0314,8.9953-10.0558c8.2766-1.6776,14.2908,1.3582,17.4124,9.793
		c2.5226,6.8163,5.7309,13.3821,8.7199,20.0208c1.4991,3.3297,3.7288,6.4182,7.8135,5.3424
		c5.9925-1.5782,0.2516-5.4241,0.959-8.2793c0.7635-3.0823-0.773-6.6365-1.3281-9.9039
		c-2.1233-12.5002-5.7301-25.7174-3.6144-37.7587c3.8972-22.1796,13.0577-42.8218,25.5451-62.1343
		c11.8762-18.3672,27.6629-33.0997,41.8851-49.2136c17.2355-19.528,33.3398-39.8778,48.614-60.8623
		c12.1046-16.6298,25.3767-32.5942,33.7371-51.752c3.4338-7.8685,10.2371-11.1294,17.974-7.6617
		c8.2828,3.7124,2.8352,10.5625,0.9333,15.348c-10.0346,25.2484-20.8177,49.9199-22.112,77.965
		c-1.4581,31.5968-1.7735,62.9894,0.1842,94.6035c1.3229,21.3617,8.4147,44.401-8.5826,63.5951
		c-2.61,2.9473-1.8536,5.1658,0.5988,7.5825c2.886,2.8441,5.0377,1.3892,7.6001-0.6798
		c11.2897-9.1156,16.6407-21.6892,19.4319-35.2174c1.3719-6.6489,3.7778-11.837,10.3085-12.3832
		c1.5378-0.1285,2.7954,0.0687,3.8393,0.5077c1.0439-0.439,2.3015-0.6362,3.8393-0.5077
		c6.5307,0.5461,8.9365,5.7343,10.3085,12.3832c2.7912,13.5282,8.1422,26.1018,19.4319,35.2174
		c2.5624,2.069,4.7141,3.5239,7.6001,0.6798c2.4524-2.4167,3.2088-4.6353,0.5988-7.5825
		c-16.9973-19.1941-9.9055-42.2334-8.5826-63.5951c1.9577-31.6141,1.6423-63.0067,0.1842-94.6035
		c-1.2943-28.045-12.0774-52.7166-22.112-77.965c-1.9019-4.7855-7.3495-11.6356,0.9333-15.348
		c7.7369-3.4677,14.5402-0.2068,17.974,7.6617c8.3604,19.1577,21.6325,35.1222,33.7371,51.752
		c15.2742,20.9845,31.3785,41.3344,48.614,60.8623c14.2222,16.1139,30.0089,30.8464,41.8851,49.2136
		c12.4874,19.3125,21.6479,39.9547,25.5451,62.1343c2.1157,12.0413-1.4911,25.2584-3.6144,37.7587
		c-0.5551,3.2675-2.0916,6.8217-1.3281,9.9039c0.7073,2.8552-5.0335,6.701,0.959,8.2793c4.0847,1.0758,6.3145-2.0127,7.8135-5.3424
		c2.989-6.6387,6.1973-13.2045,8.7199-20.0208c3.1216-8.4348,9.1359-11.4706,17.4125-9.793
		c5.0536,1.0244,9.619,4.4543,8.9952,10.0558c-2.6941,24.1953,11.5918,40.6671,25.2847,57.4847
		c2.5938,3.1857,6.2512,5.3784,10.1766,4.2733c1.0332-0.2909,0.1234-5.5839,1.149-8.1653
		c2.8712-7.2269-7.1198-17.0012,3.4055-22.0796c11.4326-5.516,12.8389,7.6261,17.6077,12.3517
		c19.3892,19.213,40.729,35.1166,65.751,46.0189c1.1884,0.5177,2.6805,0.3374,7.2152,0.8232
		c-22.7546-18.6094-30.7078-43.4196-42.9999-65.8058c-8.4067-15.3104-19.8044-29.3536-36.1855-38.6696
		c-16.5814-9.4297-15.7466-15.4209,1.098-23.9639c1.2782-0.6483,2.9081-1.6066,3.3248-2.7904
		c3.2209-9.1479,10.3555-10.6797,17.8096-7.5259c7.4326,3.1449,8.7062,9.1482,4.8523,17.0868
		c-3.1361,6.4601,3.1116,8.9077,7.8354,11.6188c41.6517,23.9039,85.4539,42.5782,131.4113,56.6936
		c41.8214,12.8451,84.3793,18.7607,127.9534,21.6171c20.2925,1.3302,40.5811,1.6107,60.7566,1.687
		c19.3817,0.0732,38.7708-4.1925,58.1722-6.4146c16.3561-1.8733,32.8339-2.7018,49.295-2.3866
		c-0.3152-16.4612,0.5133-32.939,2.3866-49.295c2.222-19.4015,6.4878-38.7905,6.4146-58.1722
		c-0.0763-20.1755-0.3568-40.4641-1.687-60.7566c-2.8563-43.5741-8.772-86.132-21.6171-127.9534
		c-14.1154-45.9574-32.7897-89.7595-56.6936-131.4113c-2.7111-4.7239-5.1587-10.9716-11.6188-7.8354
		c-7.9386,3.8539-13.9419,2.5803-17.0868-4.8523c-3.1538-7.4541-1.6221-14.5886,7.5259-17.8096
		c1.1838-0.4167,2.1421-2.0466,2.7904-3.3248c8.543-16.8446,14.5342-17.6794,23.9639-1.098
		c9.3159,16.3811,23.3591,27.7788,38.6696,36.1855c22.3862,12.2921,47.1964,20.2452,65.8058,42.9999
		c-0.4858-4.5347-0.3055-6.0269-0.8232-7.2152c-10.9023-25.022-26.8059-46.3618-46.0189-65.751
		c-4.7256-4.7688-17.8677-6.175-12.3517-17.6077c5.0784-10.5253,14.8527-0.5343,22.0796-3.4055
		c2.5814-1.0256,7.8744-0.1158,8.1653-1.149c1.1051-3.9254-1.0876-7.5829-4.2733-10.1766
		c-16.8176-13.6929-33.2894-27.9788-57.4847-25.2847c-5.6014,0.6238-9.0314-3.9417-10.0558-8.9952
		c-1.6776-8.2766,1.3582-14.2909,9.793-17.4125c6.8163-2.5226,13.3821-5.7309,20.0208-8.7199
		c3.3297-1.4991,6.4182-3.7288,5.3424-7.8135c-1.5782-5.9925-5.4241-0.2516-8.2793-0.959c-3.0823-0.7635-6.6365,0.773-9.9039,1.3281
		c-12.5002,2.1233-25.7174,5.7301-37.7587,3.6144c-22.1796-3.8972-42.8218-13.0577-62.1343-25.5451
		c-18.3672-11.8762-33.0997-27.6629-49.2136-41.8851c-19.528-17.2355-39.8778-33.3398-60.8623-48.614
		c-16.6298-12.1046-32.5942-25.3767-51.752-33.7371c-7.8685-3.4338-11.1294-10.2371-7.6617-17.974
		c3.7124-8.2828,10.5625-2.8352,15.348-0.9333c25.2484,10.0346,49.9199,20.8177,77.965,22.112
		c31.5968,1.4581,62.9894,1.7735,94.6035-0.1842c21.3617-1.3229,44.401-8.4147,63.5951,8.5826
		c2.9473,2.61,5.1658,1.8536,7.5825-0.5988c2.8441-2.886,1.3892-5.0377-0.6798-7.6001
		c-9.1156-11.2897-21.6892-16.6407-35.2174-19.4319c-6.6489-1.3719-11.837-3.7778-12.3832-10.3085
		c-0.1285-1.5378,0.0687-2.7954,0.5077-3.8393c-0.439-1.0439-0.6362-2.3015-0.5077-3.8393
		c0.5461-6.5307,5.7343-8.9365,12.3832-10.3085c13.5282-2.7912,26.1018-8.1422,35.2174-19.4319
		c2.069-2.5624,3.5239-4.7141,0.6798-7.6001c-2.4167-2.4524-4.6353-3.2088-7.5825-0.5988
		c-19.1941,16.9973-42.2334,9.9055-63.5951,8.5826c-31.6141-1.9577-63.0067-1.6423-94.6035-0.1842
		c-28.045,1.2943-52.7166,12.0774-77.965,22.112c-4.7855,1.9019-11.6356,7.3495-15.348-0.9333
		c-3.4677-7.7369-0.2068-14.5402,7.6617-17.974c19.1577-8.3604,35.1222-21.6325,51.752-33.7371
		c20.9845-15.2742,41.3344-31.3785,60.8623-48.614c16.1139-14.2222,30.8464-30.0089,49.2136-41.8851
		c19.3125-12.4874,39.9547-21.6479,62.1343-25.5451c12.0413-2.1157,25.2584,1.4911,37.7587,3.6144
		c3.2675,0.5551,6.8217,2.0916,9.9039,1.3281c2.8552-0.7073,6.701,5.0335,8.2793-0.959c1.0758-4.0847-2.0127-6.3145-5.3424-7.8135
		c-6.6387-2.989-13.2045-6.1973-20.0208-8.7199c-8.4348-3.1216-11.4706-9.1359-9.793-17.4124
		c1.0244-5.0536,4.4543-9.6191,10.0558-8.9953c24.1953,2.6941,40.6671-11.5919,57.4847-25.2847
		c3.1857-2.5937,5.3784-6.2512,4.2733-10.1766c-0.2909-1.0333-5.5839-0.1234-8.1653-1.1491
		c-7.2269-2.8713-17.0012,7.1198-22.0796-3.4056c-5.516-11.4326,7.6261-12.8388,12.3517-17.6077
		c19.213-19.3891,35.1166-40.7289,46.0189-65.7509c0.5177-1.1883,0.3374-2.6806,0.8232-7.2151
		c-18.6094,22.7545-43.4196,30.7077-65.8058,42.9998c-15.3104,8.4069-29.3536,19.8044-38.6696,36.1857
		c-9.4297,16.5814-15.4209,15.7465-23.9639-1.0981c-0.6483-1.2782-1.6066-2.9081-2.7904-3.3249
		c-9.1479-3.2209-10.6797-10.3554-7.5259-17.8094c3.1449-7.4327,9.1482-8.7063,17.0868-4.8524
		c6.4601,3.1362,8.9077-3.1115,11.6188-7.8353c23.9039-41.6518,42.5782-85.4539,56.6936-131.4113
		c12.8451-41.8215,18.7607-84.3794,21.6171-127.9534c1.3302-20.2925,1.6107-40.5811,1.687-60.7567
		c0.0732-19.3817-4.1925-38.7708-6.4146-58.1722C1568.3407,135.1116,1567.5122,118.6338,1567.8274,102.1727z"/>
</g>
</svg>
